<svg xmlns="http://www.w3.org/2000/svg" xmlns:xlink="http://www.w3.org/1999/xlink" version="1.1" fill-rule="evenodd" fill="none" stroke="none" stroke-linecap="square" stroke-miterlimit="10" overflow="hidden" viewBox="6858 13335 358140 268605"><rect fill="#ffffff" fill-opacity="0" width="100%" height="100%"></rect><g transform="translate(6858 13335) scale(0.98125)"><defs cursor="default"><radialGradient gradientUnits="userSpaceOnUse" gradientTransform="matrix(478.1213235152768,0,0,478.1213235152768,0,0)" cx="382.4970588122215" cy="286.87279410916614" r="478.12132351527686" id="gradient-10920"><stop offset="0%" stop-color="#FFFFFF" stop-opacity="1"></stop><stop offset="30%" stop-color="#FFFFFF" stop-opacity="1"></stop><stop offset="100%" stop-color="#CCCCCC" stop-opacity="1"></stop></radialGradient></defs><g id="editor-gb98267064_0_234"><g></g><path fill="#fff" fill-opacity="1" d="M 0 0 L 365760 0 365760 274320 0 274320 Z"></path><g id="editor-gb98267064_0_234-bg"><g><g></g><g><g><path fill="url(#gradient-10920)" d="M 0 0 L 365760 0 365760 274320 0 274320 Z"></path></g><g></g></g><g></g></g></g><g id="editor-gb9563dfae_0_1"></g><g id="editor-gb9563dfae_0_2"></g><g id="editor-gb9563dfae_0_3"></g><g id="editor-gb9563dfae_0_5"></g><g id="editor-gb9563dfae_0_6"></g><g id="editor-gb9563dfae_0_7"></g><g id="editor-gb98267064_0_235"><g><g></g><g><path fill="#FFFFFF" fill-opacity="1" stroke="#666666" stroke-opacity="1" stroke-width="762" stroke-linecap="butt" stroke-linejoin="round" stroke-miterlimit="8" d="M 316971.5315718651 183956.51561543345 C 322853.3639798019 183499.223847857 327946.57251986157 187303.0124312033 328347.5312460661 192452.51520872116 328540.0784166463 194925.39364958106 327602.6890404293 197384.22489038354 325741.57808033464 199288.0941245265 323880.46712024004 201191.96335866945 321248.0870954245 202384.91553182583 318423.53156399727 202604.51478287578 312541.6991560605 203061.80655045222 307448.4906160008 199258.01796710593 307047.53188979626 194108.51518958807 306646.57316359173 188959.0124120702 311089.69916392834 184413.8073830099 316971.5315718651 183956.51561543345 Z"></path></g><g><path fill="#000" fill-opacity="0" stroke="#000" stroke-opacity="0" stroke-width="3882.8025477707006" stroke-linecap="round" stroke-linejoin="round" stroke-miterlimit="10" pointer-events="visiblePainted" d="M 316971.5315718651 183956.51561543345 C 322853.3639798019 183499.223847857 327946.57251986157 187303.0124312033 328347.5312460661 192452.51520872116 328540.0784166463 194925.39364958106 327602.6890404293 197384.22489038354 325741.57808033464 199288.0941245265 323880.46712024004 201191.96335866945 321248.0870954245 202384.91553182583 318423.53156399727 202604.51478287578 312541.6991560605 203061.80655045222 307448.4906160008 199258.01796710593 307047.53188979626 194108.51518958807 306646.57316359173 188959.0124120702 311089.69916392834 184413.8073830099 316971.5315718651 183956.51561543345 Z"></path></g><g></g></g></g><g id="editor-gb98267064_0_236"><g><g></g><g><path stroke="#666666" stroke-opacity="1" stroke-width="762" stroke-linecap="butt" stroke-linejoin="round" stroke-miterlimit="8" d="M 307044.59375 194106.21875 L 260628.59481430054 197718.21864914894"></path></g><g><path stroke="#000" stroke-opacity="0" stroke-width="3882.8025477707006" stroke-linecap="round" stroke-linejoin="round" stroke-miterlimit="10" pointer-events="visiblePainted" d="M 307044.59375 194106.21875 L 260628.59481430054 197718.21864914894"></path></g></g></g><g id="editor-gb98267064_0_237"><g><g></g><g><path stroke="#666666" stroke-opacity="1" stroke-width="762" stroke-linecap="butt" stroke-linejoin="round" stroke-miterlimit="8" d="M 260618.53125 197676.53125 L 218126.52989530563 211188.53131902218"></path></g><g><path stroke="#000" stroke-opacity="0" stroke-width="3882.8025477707006" stroke-linecap="round" stroke-linejoin="round" stroke-miterlimit="10" pointer-events="visiblePainted" d="M 260618.53125 197676.53125 L 218126.52989530563 211188.53131902218"></path></g></g></g><g id="editor-gb98267064_0_238"><g><g></g><g><path stroke="#666666" stroke-opacity="1" stroke-width="762" stroke-linecap="butt" stroke-linejoin="round" stroke-miterlimit="8" d="M 260296.53125 197848.078125 L 210664.53151893616 202984.07834100723"></path></g><g><path stroke="#000" stroke-opacity="0" stroke-width="3882.8025477707006" stroke-linecap="round" stroke-linejoin="round" stroke-miterlimit="10" pointer-events="visiblePainted" d="M 260296.53125 197848.078125 L 210664.53151893616 202984.07834100723"></path></g></g></g><g id="editor-gb98267064_0_239"><g><g></g><g><path stroke="#666666" stroke-opacity="1" stroke-width="762" stroke-linecap="butt" stroke-linejoin="round" stroke-miterlimit="8" d="M 303718.375 194363.640625 L 323494.3747099638 224879.64176011086"></path></g><g><path stroke="#000" stroke-opacity="0" stroke-width="3882.8025477707006" stroke-linecap="round" stroke-linejoin="round" stroke-miterlimit="10" pointer-events="visiblePainted" d="M 303718.375 194363.640625 L 323494.3747099638 224879.64176011086"></path></g></g></g><g id="editor-gb98267064_0_240"><g><g></g><g><path stroke="#666666" stroke-opacity="1" stroke-width="762" stroke-linecap="butt" stroke-linejoin="round" stroke-miterlimit="8" d="M 303563.3125 194522.1875 L 319079.31229400635 229598.1858062744"></path></g><g><path stroke="#000" stroke-opacity="0" stroke-width="3882.8025477707006" stroke-linecap="round" stroke-linejoin="round" stroke-miterlimit="10" pointer-events="visiblePainted" d="M 303563.3125 194522.1875 L 319079.31229400635 229598.1858062744"></path></g></g></g><g id="editor-gb98267064_0_243"><g></g><g id="editor-gb98267064_0_241"><g><g></g><g><path fill="#FFFFFF" fill-opacity="1" stroke="#666666" stroke-opacity="1" stroke-width="762" stroke-linecap="butt" stroke-linejoin="round" stroke-miterlimit="8" d="M 340830.6031873779 199387.1941249756 L 324230.6868635254 200679.48164145506 C 326064.2629903516 200536.7395039054 327281.3604436907 196960.19953903637 326949.1501119385 192691.05604389647 326616.9397801863 188421.91254875658 324861.22295763675 185076.80331538 323027.6468308105 185219.54545292968 L 339627.5631546631 183927.2579364502 C 341461.1392814893 183784.5157989005 343216.85610403883 187129.62503227708 343549.066435791 191398.76852741698 343881.2767675432 195667.91202255688 342664.17931420414 199244.4519874259 340830.603187378 199387.1941249756 Z"></path></g><g><path fill="#000" fill-opacity="0" stroke="#000" stroke-opacity="0" stroke-width="3882.8025477707006" stroke-linecap="round" stroke-linejoin="round" stroke-miterlimit="10" pointer-events="visiblePainted" d="M 340830.6031873779 199387.1941249756 L 324230.6868635254 200679.48164145506 C 326064.2629903516 200536.7395039054 327281.3604436907 196960.19953903637 326949.1501119385 192691.05604389647 326616.9397801863 188421.91254875658 324861.22295763675 185076.80331538 323027.6468308105 185219.54545292968 L 339627.5631546631 183927.2579364502 C 341461.1392814893 183784.5157989005 343216.85610403883 187129.62503227708 343549.066435791 191398.76852741698 343881.2767675432 195667.91202255688 342664.17931420414 199244.4519874259 340830.603187378 199387.1941249756 Z"></path></g><g></g></g></g><g id="editor-gb98267064_0_242"><g><g></g><g><path fill="#FFFFFF" fill-opacity="1" stroke="#666666" stroke-opacity="1" stroke-width="762" stroke-linecap="butt" stroke-linejoin="round" stroke-miterlimit="8" d="M 341435.7585732416 182264.59894897832 C 342465.24409723305 182001.47185092108 343544.8515725729 182518.1938450123 344216.46374596213 183595.50073934952 344888.07591935137 184672.80763368672 345033.90654713265 186121.76310850406 344592.07431765145 187327.5219377003 345230.9834548472 187692.71577644383 345708.68910186033 188414.97425380038 345880.69454289443 189275.82815428797 346052.69998392847 190136.68205477553 345898.8025063765 191035.0207167574 345465.5531196618 191699.1140756192 346043.07073369354 192007.62397555902 346466.402519413 192668.71063871135 346585.3283839275 193447.78619972145 346704.2542484421 194226.86176073155 346501.94325777586 195013.66787181972 346050.18585346016 195529.00488135772 346682.7664975068 196118.3525772541 347006.89938371175 197109.13745943483 346882.33037326083 198072.64128820712 346757.7613628099 199036.1451169794 346206.8641611878 199799.3140098386 345468.0151130268 200031.92045704034 345362.9035940021 200822.4885929781 344992.26509309467 201503.0530031116 344451.8607325926 201897.777632783 343911.4563720905 202292.50226245436 343254.2986077026 202362.66551080882 342650.1759662122 202090.139440815 341931.5615367223 202916.5041360807 340908.5525489501 203176.36527279468 339962.9177308392 202772.74730451396 339017.2829127284 202369.12933623325 338291.0931137887 201362.67126073255 338055.3494289281 200128.96530037269 337201.7991027058 200186.58833933756 336372.60214299534 199648.46491201984 335887.3673390843 198722.01133257538 335402.13253517327 197795.5577531309 335336.63091203634 196625.44282260232 335716.1096612147 195662.68003289166 334663.90696464735 195347.090432155 333825.7890221395 194293.50020439617 333563.85377090337 192957.0992802792 333301.91851966723 191620.6983561622 333663.12299877044 190241.06285271482 334491.41351915384 189414.24631391466 333981.80342899484 188519.45589617192 333769.0935133713 187414.73715164457 333901.2668420607 186349.2923633937 334033.4401707501 185283.84757514286 334499.3631040426 184347.42464102939 335193.9328189054 183751.261701302 335033.34812080127 182808.85908492608 335345.9042367413 181861.26671450672 335976.48069170694 181378.7712717852 336607.05714667257 180896.2758290637 337421.41929261206 180981.58905570162 338015.4021285132 181592.3703044791 338338.6134405338 180715.40954078457 339077.0912256758 180223.28051943955 339845.7482898532 180372.60921859925 340614.40535403066 180521.93791775894 341239.0611727438 181278.88590367354 341393.98224210466 182248.73449714977 Z"></path><path stroke="#666666" stroke-opacity="1" stroke-width="762" stroke-linecap="butt" stroke-linejoin="round" stroke-miterlimit="8" d="M 338015.49511434266 181592.60417497024 C 337862.97071476514 182006.4446222594 337815.5960574755 182474.49834127253 337879.73196518153 182933.9214636886 M 335193.9431434027 183751.2928462951 C 335227.5290640881 183948.39418845953 335281.080741434 184139.9848636079 335353.21712593344 184321.1239208585 M 334491.44992882776 189413.9962506545 C 334644.0701090799 189261.64766512602 334809.6714234656 189131.14938748957 334985.4322289142 189024.72494816955 M 335716.19552235806 195662.66868368717 C 335908.0277830114 195720.20537955908 336103.32729266735 195751.95621539894 336298.8358556747 195757.3914897475 M 338055.35006844596 200128.7847617729 C 338964.08614244557 200067.4361422573 339744.07028230367 199342.20517597412 340060.27634116093 198264.5999100756 M 342650.0791608148 202089.9446169008 C 342327.6947813285 201944.51363660835 342033.27681632736 201707.10358607752 341789.9092897653 201396.32874821496 M 345468.01165335084 200031.87784605974 C 345345.3994270044 200070.47895737595 345219.7032828576 200093.71135752962 345092.66544926196 200101.25303070643 M 346050.1505583947 195529.04065961027 C 345892.3531096569 195382.0276839412 345719.63430595305 195264.2336307678 345537.37207399163 195179.32624078222 M 345465.5785009664 191699.10860731272 C 345326.87744820747 191625.01450720467 345182.1529292048 191572.8895422019 345034.73876248597 191543.9344430117 M 344592.08371368056 187327.45269686263 C 344498.59230500605 187582.59047075393 344380.7266742794 187821.06996722025 344241.0760295576 188037.65239841555 M 341435.7585732416 182264.59894897832 C 341293.8687470113 182300.8646927404 341154.88379850006 182351.53302056977 341020.1045432711 182416.12970737874"></path></g><g><path fill="#000" fill-opacity="0" stroke="#000" stroke-opacity="0" stroke-width="3882.8025477707006" stroke-linecap="round" stroke-linejoin="round" stroke-miterlimit="10" pointer-events="visiblePainted" d="M 341435.7585732416 182264.59894897832 C 342465.24409723305 182001.47185092108 343544.8515725729 182518.1938450123 344216.46374596213 183595.50073934952 344888.07591935137 184672.80763368672 345033.90654713265 186121.76310850406 344592.07431765145 187327.5219377003 345230.9834548472 187692.71577644383 345708.68910186033 188414.97425380038 345880.69454289443 189275.82815428797 346052.69998392847 190136.68205477553 345898.8025063765 191035.0207167574 345465.5531196618 191699.1140756192 346043.07073369354 192007.62397555902 346466.402519413 192668.71063871135 346585.3283839275 193447.78619972145 346704.2542484421 194226.86176073155 346501.94325777586 195013.66787181972 346050.18585346016 195529.00488135772 346682.7664975068 196118.3525772541 347006.89938371175 197109.13745943483 346882.33037326083 198072.64128820712 346757.7613628099 199036.1451169794 346206.8641611878 199799.3140098386 345468.0151130268 200031.92045704034 345362.9035940021 200822.4885929781 344992.26509309467 201503.0530031116 344451.8607325926 201897.777632783 343911.4563720905 202292.50226245436 343254.2986077026 202362.66551080882 342650.1759662122 202090.139440815 341931.5615367223 202916.5041360807 340908.5525489501 203176.36527279468 339962.9177308392 202772.74730451396 339017.2829127284 202369.12933623325 338291.0931137887 201362.67126073255 338055.3494289281 200128.96530037269 337201.7991027058 200186.58833933756 336372.60214299534 199648.46491201984 335887.3673390843 198722.01133257538 335402.13253517327 197795.5577531309 335336.63091203634 196625.44282260232 335716.1096612147 195662.68003289166 334663.90696464735 195347.090432155 333825.7890221395 194293.50020439617 333563.85377090337 192957.0992802792 333301.91851966723 191620.6983561622 333663.12299877044 190241.06285271482 334491.41351915384 189414.24631391466 333981.80342899484 188519.45589617192 333769.0935133713 187414.73715164457 333901.2668420607 186349.2923633937 334033.4401707501 185283.84757514286 334499.3631040426 184347.42464102939 335193.9328189054 183751.261701302 335033.34812080127 182808.85908492608 335345.9042367413 181861.26671450672 335976.48069170694 181378.7712717852 336607.05714667257 180896.2758290637 337421.41929261206 180981.58905570162 338015.4021285132 181592.3703044791 338338.6134405338 180715.40954078457 339077.0912256758 180223.28051943955 339845.7482898532 180372.60921859925 340614.40535403066 180521.93791775894 341239.0611727438 181278.88590367354 341393.98224210466 182248.73449714977 Z"></path><path stroke="#000" stroke-opacity="0" stroke-width="3882.8025477707006" stroke-linecap="round" stroke-linejoin="round" stroke-miterlimit="10" pointer-events="visiblePainted" d="M 338015.49511434266 181592.60417497024 C 337862.97071476514 182006.4446222594 337815.5960574755 182474.49834127253 337879.73196518153 182933.9214636886 M 335193.9431434027 183751.2928462951 C 335227.5290640881 183948.39418845953 335281.080741434 184139.9848636079 335353.21712593344 184321.1239208585 M 334491.44992882776 189413.9962506545 C 334644.0701090799 189261.64766512602 334809.6714234656 189131.14938748957 334985.4322289142 189024.72494816955 M 335716.19552235806 195662.66868368717 C 335908.0277830114 195720.20537955908 336103.32729266735 195751.95621539894 336298.8358556747 195757.3914897475 M 338055.35006844596 200128.7847617729 C 338964.08614244557 200067.4361422573 339744.07028230367 199342.20517597412 340060.27634116093 198264.5999100756 M 342650.0791608148 202089.9446169008 C 342327.6947813285 201944.51363660835 342033.27681632736 201707.10358607752 341789.9092897653 201396.32874821496 M 345468.01165335084 200031.87784605974 C 345345.3994270044 200070.47895737595 345219.7032828576 200093.71135752962 345092.66544926196 200101.25303070643 M 346050.1505583947 195529.04065961027 C 345892.3531096569 195382.0276839412 345719.63430595305 195264.2336307678 345537.37207399163 195179.32624078222 M 345465.5785009664 191699.10860731272 C 345326.87744820747 191625.01450720467 345182.1529292048 191572.8895422019 345034.73876248597 191543.9344430117 M 344592.08371368056 187327.45269686263 C 344498.59230500605 187582.59047075393 344380.7266742794 187821.06996722025 344241.0760295576 188037.65239841555 M 341435.7585732416 182264.59894897832 C 341293.8687470113 182300.8646927404 341154.88379850006 182351.53302056977 341020.1045432711 182416.12970737874"></path></g><g></g></g></g></g><g id="editor-gb98267064_0_244"><g><g></g><g><path fill="#000000" fill-opacity="1" d="M 320127.71917127515 186757.07404405627 L 321245.91613913816 187441.47978002668 320205.9863101884 189141.12293133608 321497.71511409484 190659.47081973866 320499.5001823804 191508.43557234484 319486.258962933 190317.43273851633 318670.5306422219 191650.64486017075 317552.3336743589 190966.23912420034 318592.26350330864 189266.59597289094 317300.5346994022 187748.24808448835 318298.7496311167 186899.28333188218 319311.9908505641 188090.28616571068 Z"></path></g><g><path fill="#000" fill-opacity="0" stroke="#000" stroke-opacity="0" stroke-width="3882.8025477707006" stroke-linecap="round" stroke-linejoin="round" stroke-miterlimit="10" pointer-events="visiblePainted" d="M 320127.71917127515 186757.07404405627 L 321245.91613913816 187441.47978002668 320205.9863101884 189141.12293133608 321497.71511409484 190659.47081973866 320499.5001823804 191508.43557234484 319486.258962933 190317.43273851633 318670.5306422219 191650.64486017075 317552.3336743589 190966.23912420034 318592.26350330864 189266.59597289094 317300.5346994022 187748.24808448835 318298.7496311167 186899.28333188218 319311.9908505641 188090.28616571068 Z"></path></g><g></g></g></g><g id="editor-gb98267064_0_245"><g><g></g><g><path fill="#000000" fill-opacity="1" d="M 310091.53132116795 190149.68734291196 C 311715.2484432053 190388.27435074048 312795.1375934695 192180.0308154218 312503.531247139 194151.6874177456 312211.92490080843 196123.34402006937 310659.24844892736 197528.2745152493 309035.53132689 197289.68750742078 310085.56166593195 196582.89996103302 310825.7914665098 195340.29191994245 311033.531285584 193935.68742145598 311241.27110465814 192531.0829229695 310892.2738773209 191128.425194708 310091.53132116795 190149.68734291196 Z"></path></g><g><path fill="#000" fill-opacity="0" stroke="#000" stroke-opacity="0" stroke-width="3882.8025477707006" stroke-linecap="round" stroke-linejoin="round" stroke-miterlimit="10" pointer-events="visiblePainted" d="M 310091.53132116795 190149.68734291196 C 311715.2484432053 190388.27435074048 312795.1375934695 192180.0308154218 312503.531247139 194151.6874177456 312211.92490080843 196123.34402006937 310659.24844892736 197528.2745152493 309035.53132689 197289.68750742078 310085.56166593195 196582.89996103302 310825.7914665098 195340.29191994245 311033.531285584 193935.68742145598 311241.27110465814 192531.0829229695 310892.2738773209 191128.425194708 310091.53132116795 190149.68734291196 Z"></path></g><g></g></g></g><g id="editor-gb98267064_0_246"><g><g></g><g><path fill="#000000" fill-opacity="1" d="M 320724.62542127515 194425.54279405627 L 321842.82238913816 195109.94853002668 320802.8925601884 196809.59168133608 322094.62136409484 198327.93956973866 321096.4064323804 199176.90432234484 320083.165212933 197985.90148851633 319267.4368922219 199319.11361017075 318149.2399243589 198634.70787420034 319189.16975330864 196935.06472289094 317897.4409494022 195416.71683448835 318895.6558811167 194567.75208188218 319908.8971005641 195758.75491571068 Z"></path></g><g><path fill="#000" fill-opacity="0" stroke="#000" stroke-opacity="0" stroke-width="3882.8025477707006" stroke-linecap="round" stroke-linejoin="round" stroke-miterlimit="10" pointer-events="visiblePainted" d="M 320724.62542127515 194425.54279405627 L 321842.82238913816 195109.94853002668 320802.8925601884 196809.59168133608 322094.62136409484 198327.93956973866 321096.4064323804 199176.90432234484 320083.165212933 197985.90148851633 319267.4368922219 199319.11361017075 318149.2399243589 198634.70787420034 319189.16975330864 196935.06472289094 317897.4409494022 195416.71683448835 318895.6558811167 194567.75208188218 319908.8971005641 195758.75491571068 Z"></path></g><g></g></g></g><g id="editor-gb98267064_0_258"><g><g></g><g><path stroke="#666666" stroke-opacity="1" stroke-width="762" stroke-linecap="butt" stroke-linejoin="round" stroke-miterlimit="8" d="M 43212 220305 L 88740.00178527832 224552.99993634224"></path></g><g><path stroke="#000" stroke-opacity="0" stroke-width="3882.8025477707006" stroke-linecap="round" stroke-linejoin="round" stroke-miterlimit="10" pointer-events="visiblePainted" d="M 43212 220305 L 88740.00178527832 224552.99993634224"></path></g></g></g><g id="editor-gb98267064_0_259"><g><g></g><g><path stroke="#666666" stroke-opacity="1" stroke-width="762" stroke-linecap="butt" stroke-linejoin="round" stroke-miterlimit="8" d="M 47070 212974 L 90282.00013160706 219141.99980401993"></path></g><g><path stroke="#000" stroke-opacity="0" stroke-width="3882.8025477707006" stroke-linecap="round" stroke-linejoin="round" stroke-miterlimit="10" pointer-events="visiblePainted" d="M 47070 212974 L 90282.00013160706 219141.99980401993"></path></g></g></g><g id="editor-gb98267064_0_260"><g><g></g><g><path stroke="#666666" stroke-opacity="1" stroke-width="762" stroke-linecap="butt" stroke-linejoin="round" stroke-miterlimit="8" d="M 89511 218762 L 70994.99949073792 195613.99975967407"></path></g><g><path stroke="#000" stroke-opacity="0" stroke-width="3882.8025477707006" stroke-linecap="round" stroke-linejoin="round" stroke-miterlimit="10" pointer-events="visiblePainted" d="M 89511 218762 L 70994.99949073792 195613.99975967407"></path></g></g></g><g id="editor-gb98267064_0_261"><g><g></g><g><path stroke="#666666" stroke-opacity="1" stroke-width="762" stroke-linecap="butt" stroke-linejoin="round" stroke-miterlimit="8" d="M 88739 225706 L 71759.00045776367 196378.0006465912"></path></g><g><path stroke="#000" stroke-opacity="0" stroke-width="3882.8025477707006" stroke-linecap="round" stroke-linejoin="round" stroke-miterlimit="10" pointer-events="visiblePainted" d="M 88739 225706 L 71759.00045776367 196378.0006465912"></path></g></g></g><g id="editor-gb98267064_0_262"><g><g></g><g><path stroke="#666666" stroke-opacity="1" stroke-width="762" stroke-linecap="butt" stroke-linejoin="round" stroke-miterlimit="8" d="M 71763 196384 L 65978.99999070168 139671.99843788147"></path></g><g><path stroke="#000" stroke-opacity="0" stroke-width="3882.8025477707006" stroke-linecap="round" stroke-linejoin="round" stroke-miterlimit="10" pointer-events="visiblePainted" d="M 71763 196384 L 65978.99999070168 139671.99843788147"></path></g></g></g><g id="editor-gb98267064_0_265"><g><g></g><g><path fill="#FFFFFF" fill-opacity="1" stroke="#666666" stroke-opacity="1" stroke-width="762" stroke-linecap="butt" stroke-linejoin="round" stroke-miterlimit="8" d="M 53674.80078482628 128813.17170619965 C 51968.240905874 121963.73633202401 55444.30190740294 115199.65441460686 61438.80033636093 113705.17188966274 64317.45999908742 112987.49607204573 67403.76989363949 113605.84990389828 70018.77707195668 115424.20260042402 72633.78425027386 117242.55529694975 74563.28094049546 120111.95687330374 75382.79989504814 123401.17173552513 77089.35977400042 130250.60710970077 73613.29877247148 137014.6890271179 67618.80034351349 138509.17155206203 61624.30191455551 140003.65407700615 55381.360663778556 135662.60708037528 53674.80078482628 128813.17170619965 Z"></path></g><g><path fill="#000" fill-opacity="0" stroke="#000" stroke-opacity="0" stroke-width="3882.8025477707006" stroke-linecap="round" stroke-linejoin="round" stroke-miterlimit="10" pointer-events="visiblePainted" d="M 53674.80078482628 128813.17170619965 C 51968.240905874 121963.73633202401 55444.30190740294 115199.65441460686 61438.80033636093 113705.17188966274 64317.45999908742 112987.49607204573 67403.76989363949 113605.84990389828 70018.77707195668 115424.20260042402 72633.78425027386 117242.55529694975 74563.28094049546 120111.95687330374 75382.79989504814 123401.17173552513 77089.35977400042 130250.60710970077 73613.29877247148 137014.6890271179 67618.80034351349 138509.17155206203 61624.30191455551 140003.65407700615 55381.360663778556 135662.60708037528 53674.80078482628 128813.17170619965 Z"></path></g><g></g></g></g><g id="editor-gb98267064_0_268"><g></g><g id="editor-gb98267064_0_266"><g><g></g><g><path fill="#FFFFFF" fill-opacity="1" stroke="#666666" stroke-opacity="1" stroke-width="762" stroke-linecap="butt" stroke-linejoin="round" stroke-miterlimit="8" d="M 42028.144008422845 84381.98943442383 L 56996.73160424804 97521.06479208985 C 55343.347073111916 96069.76260270654 51263.08077214265 98014.5099347424 47883.20174475097 101864.7795333252 44503.3227173593 105715.04913190799 43103.72239244785 110012.82222824366 44757.10692358398 111464.12441762695 L 29788.519327758782 98325.04905996093 C 28135.134796622657 96873.74687057764 29534.735121534097 92575.97377424198 32914.61414892577 88725.70417565918 36294.493176317446 84875.43457707639 40374.75947728671 82930.68724504052 42028.14400842284 84381.98943442383 Z"></path></g><g><path fill="#000" fill-opacity="0" stroke="#000" stroke-opacity="0" stroke-width="3882.8025477707006" stroke-linecap="round" stroke-linejoin="round" stroke-miterlimit="10" pointer-events="visiblePainted" d="M 42028.144008422845 84381.98943442383 L 56996.73160424804 97521.06479208985 C 55343.347073111916 96069.76260270654 51263.08077214265 98014.5099347424 47883.20174475097 101864.7795333252 44503.3227173593 105715.04913190799 43103.72239244785 110012.82222824366 44757.10692358398 111464.12441762695 L 29788.519327758782 98325.04905996093 C 28135.134796622657 96873.74687057764 29534.735121534097 92575.97377424198 32914.61414892577 88725.70417565918 36294.493176317446 84875.43457707639 40374.75947728671 82930.68724504052 42028.14400842284 84381.98943442383 Z"></path></g><g></g></g></g><g id="editor-gb98267064_0_267"><g><g></g><g><path fill="#FFFFFF" fill-opacity="1" stroke="#666666" stroke-opacity="1" stroke-width="762" stroke-linecap="butt" stroke-linejoin="round" stroke-miterlimit="8" d="M 26854.247475736454 98164.96745497573 C 25769.175486069795 97502.94738303103 25310.330381743417 96146.64219720878 25672.417056605456 94671.58219028366 26034.503731467496 93196.52218335854 27154.020017153212 91861.40096492982 28555.913880829645 91232.75968942518 28335.256317231324 90380.4896492238 28555.099153951753 89368.06495769588 29148.944186299123 88501.72449611043 29742.78921864649 87635.38403452496 30640.887022129213 87016.88288260454 31571.58038716895 86833.30567233478 31353.62694710678 86080.96387061024 31566.469244436583 85166.2049452735 32134.579783338508 84413.63284852901 32702.690322240436 83661.06075178453 33545.66749276749 83177.18293955171 34364.37923554076 83133.704377898 34341.034125209335 82099.634759212 34919.156575423105 80994.46926178268 35848.58972202297 80296.4192664542 36778.02286862282 79598.36927112575 37891.832227547085 79432.81078395701 38708.06617004217 79871.38190163451 39473.10122413324 79301.10704038083 40365.622712089506 79050.14419779243 41155.031656352425 79183.33413757867 41944.44060061533 79316.52407736491 42553.29775429399 79820.80116516042 42824.29392202213 80565.87634639225 44132.29157052833 80491.19070993672 45209.15754446536 81150.39122341415 45653.02464818815 82297.47599974617 46096.89175191094 83444.5607760782 45841.07401395603 84907.19340641842 44981.03805638814 86139.54545190843 45743.14694477917 86822.51389484282 45974.55633201165 87982.2084779454 45586.07091506734 89171.63216714807 45197.58549812304 90361.05585635074 44249.86856412052 91394.47619525586 43108.21168620993 91873.56776856277 43716.47877127245 93038.40783013677 43513.74782227247 94636.27721202116 42587.60610434156 95976.83726643134 41661.46438641065 97317.3973208415 40177.940995006 98160.32632494543 38777.97288254068 98141.4477850517 38436.96685474539 99325.3037535205 37668.19755342147 100430.19246462811 36645.083838334176 101206.87329427863 35621.970123246865 101983.55412392915 34430.694128106195 102366.60324862778 33339.983707142586 102269.61250623158 32666.740868222365 103194.2826691513 31593.962916246266 103718.02511876803 30654.065686365873 103580.90836301168 29714.168456485477 103443.79160725532 29107.233592828627 102675.0045245022 29134.480683028745 101656.09337599286 28113.313895007315 102111.7155815538 27075.062387383266 101890.22366292696 26561.133590238634 101107.11696643368 26047.204793094003 100324.01026994038 26174.056866529107 99156.74366003374 26875.541430720026 98214.00088130691 Z"></path><path stroke="#666666" stroke-opacity="1" stroke-width="762" stroke-linecap="butt" stroke-linejoin="round" stroke-miterlimit="8" d="M 29134.603388580545 101655.8183944466 C 29616.495096632898 101440.80889214016 30057.02646584776 101090.45421832752 30397.048953582278 100651.79521916009 M 33340.001767092355 102269.5776496716 C 33480.8089601624 102076.18500940948 33600.22317317666 101870.29364854174 33695.16482117813 101657.21331974943 M 38777.728255201626 98141.62545932885 C 38519.77119736553 98138.14691395065 38269.69314123476 98105.29950792297 38031.755109838436 98043.6429207143 M 43108.13026651954 91873.5037045666 C 42997.234095668435 91661.1359706307 42861.35244130047 91467.33555121787 42702.75222674868 91295.33563255006 M 44980.882858710975 86139.69569550348 C 44169.50030993752 85412.57036682524 42896.89596158892 85350.2206227509 41709.69084031997 85979.42751362167 M 42824.2078563324 80566.12198664126 C 42968.822418634976 80963.72436648172 43011.28749156404 81414.19622808539 42948.27357462295 81882.21804452135 M 38708.032555053396 79871.42045496854 C 38843.48682836938 79944.20146657506 38968.35022642717 80032.46038424486 39080.89206326464 80134.97388335099 M 34364.43935864085 83133.70472631641 C 34370.26280405523 83391.65373120864 34413.57734591825 83637.9788820083 34493.03430402512 83865.01037913913 M 31571.55450830595 86833.2884996191 C 31623.899875537303 87013.97666808084 31700.095548520432 87181.47486076983 31798.386312948474 87331.92465354371 M 28555.84671763296 91232.80947345105 C 28852.486535604432 91099.78939370978 29155.208883841697 91001.56022694465 29457.363722478996 90940.27981805473 M 26854.247475736454 98164.96745497573 C 27003.798559722796 98256.2110040885 27163.26236275324 98332.93694042038 27331.146399497844 98394.42715533337"></path></g><g><path fill="#000" fill-opacity="0" stroke="#000" stroke-opacity="0" stroke-width="3882.8025477707006" stroke-linecap="round" stroke-linejoin="round" stroke-miterlimit="10" pointer-events="visiblePainted" d="M 26854.247475736454 98164.96745497573 C 25769.175486069795 97502.94738303103 25310.330381743417 96146.64219720878 25672.417056605456 94671.58219028366 26034.503731467496 93196.52218335854 27154.020017153212 91861.40096492982 28555.913880829645 91232.75968942518 28335.256317231324 90380.4896492238 28555.099153951753 89368.06495769588 29148.944186299123 88501.72449611043 29742.78921864649 87635.38403452496 30640.887022129213 87016.88288260454 31571.58038716895 86833.30567233478 31353.62694710678 86080.96387061024 31566.469244436583 85166.2049452735 32134.579783338508 84413.63284852901 32702.690322240436 83661.06075178453 33545.66749276749 83177.18293955171 34364.37923554076 83133.704377898 34341.034125209335 82099.634759212 34919.156575423105 80994.46926178268 35848.58972202297 80296.4192664542 36778.02286862282 79598.36927112575 37891.832227547085 79432.81078395701 38708.06617004217 79871.38190163451 39473.10122413324 79301.10704038083 40365.622712089506 79050.14419779243 41155.031656352425 79183.33413757867 41944.44060061533 79316.52407736491 42553.29775429399 79820.80116516042 42824.29392202213 80565.87634639225 44132.29157052833 80491.19070993672 45209.15754446536 81150.39122341415 45653.02464818815 82297.47599974617 46096.89175191094 83444.5607760782 45841.07401395603 84907.19340641842 44981.03805638814 86139.54545190843 45743.14694477917 86822.51389484282 45974.55633201165 87982.2084779454 45586.07091506734 89171.63216714807 45197.58549812304 90361.05585635074 44249.86856412052 91394.47619525586 43108.21168620993 91873.56776856277 43716.47877127245 93038.40783013677 43513.74782227247 94636.27721202116 42587.60610434156 95976.83726643134 41661.46438641065 97317.3973208415 40177.940995006 98160.32632494543 38777.97288254068 98141.4477850517 38436.96685474539 99325.3037535205 37668.19755342147 100430.19246462811 36645.083838334176 101206.87329427863 35621.970123246865 101983.55412392915 34430.694128106195 102366.60324862778 33339.983707142586 102269.61250623158 32666.740868222365 103194.2826691513 31593.962916246266 103718.02511876803 30654.065686365873 103580.90836301168 29714.168456485477 103443.79160725532 29107.233592828627 102675.0045245022 29134.480683028745 101656.09337599286 28113.313895007315 102111.7155815538 27075.062387383266 101890.22366292696 26561.133590238634 101107.11696643368 26047.204793094003 100324.01026994038 26174.056866529107 99156.74366003374 26875.541430720026 98214.00088130691 Z"></path><path stroke="#000" stroke-opacity="0" stroke-width="3882.8025477707006" stroke-linecap="round" stroke-linejoin="round" stroke-miterlimit="10" pointer-events="visiblePainted" d="M 29134.603388580545 101655.8183944466 C 29616.495096632898 101440.80889214016 30057.02646584776 101090.45421832752 30397.048953582278 100651.79521916009 M 33340.001767092355 102269.5776496716 C 33480.8089601624 102076.18500940948 33600.22317317666 101870.29364854174 33695.16482117813 101657.21331974943 M 38777.728255201626 98141.62545932885 C 38519.77119736553 98138.14691395065 38269.69314123476 98105.29950792297 38031.755109838436 98043.6429207143 M 43108.13026651954 91873.5037045666 C 42997.234095668435 91661.1359706307 42861.35244130047 91467.33555121787 42702.75222674868 91295.33563255006 M 44980.882858710975 86139.69569550348 C 44169.50030993752 85412.57036682524 42896.89596158892 85350.2206227509 41709.69084031997 85979.42751362167 M 42824.2078563324 80566.12198664126 C 42968.822418634976 80963.72436648172 43011.28749156404 81414.19622808539 42948.27357462295 81882.21804452135 M 38708.032555053396 79871.42045496854 C 38843.48682836938 79944.20146657506 38968.35022642717 80032.46038424486 39080.89206326464 80134.97388335099 M 34364.43935864085 83133.70472631641 C 34370.26280405523 83391.65373120864 34413.57734591825 83637.9788820083 34493.03430402512 83865.01037913913 M 31571.55450830595 86833.2884996191 C 31623.899875537303 87013.97666808084 31700.095548520432 87181.47486076983 31798.386312948474 87331.92465354371 M 28555.84671763296 91232.80947345105 C 28852.486535604432 91099.78939370978 29155.208883841697 91001.56022694465 29457.363722478996 90940.27981805473 M 26854.247475736454 98164.96745497573 C 27003.798559722796 98256.2110040885 27163.26236275324 98332.93694042038 27331.146399497844 98394.42715533337"></path></g><g></g></g></g></g><g id="editor-gb98267064_0_273"><g><g></g><g><path fill="#FFFFFF" fill-opacity="1" stroke="#666666" stroke-opacity="1" stroke-width="762" stroke-linecap="butt" stroke-linejoin="round" stroke-miterlimit="8" d="M 263951.0306777954 194510.1093876958 C 273974.99920324417 194768.5786436049 281918.3634255092 202094.09553172812 281693.0312445909 210872.10930919647 281584.8229153018 215087.460181254 279568.81980454514 219080.85425617942 276088.51958498295 221973.79042015914 272608.21936542075 224866.7265841389 267948.710109323 226422.23056996652 263135.03066697717 226298.10925608873 253111.0621415284 226039.6400001796 245167.69791926336 218714.1231120564 245393.0301001817 209936.10933458805 245618.36228110004 201158.0955571197 253927.06215234665 194251.64013178667 263951.0306777954 194510.1093876958 Z"></path></g><g><path fill="#000" fill-opacity="0" stroke="#000" stroke-opacity="0" stroke-width="3882.8025477707006" stroke-linecap="round" stroke-linejoin="round" stroke-miterlimit="10" pointer-events="visiblePainted" d="M 263951.0306777954 194510.1093876958 C 273974.99920324417 194768.5786436049 281918.3634255092 202094.09553172812 281693.0312445909 210872.10930919647 281584.8229153018 215087.460181254 279568.81980454514 219080.85425617942 276088.51958498295 221973.79042015914 272608.21936542075 224866.7265841389 267948.710109323 226422.23056996652 263135.03066697717 226298.10925608873 253111.0621415284 226039.6400001796 245167.69791926336 218714.1231120564 245393.0301001817 209936.10933458805 245618.36228110004 201158.0955571197 253927.06215234665 194251.64013178667 263951.0306777954 194510.1093876958 Z"></path></g><g></g></g></g><g id="editor-gb98267064_0_274"><g><g></g><g><path stroke="#666666" stroke-opacity="1" stroke-width="762" stroke-linecap="butt" stroke-linejoin="round" stroke-miterlimit="8" d="M 245380.15625 209920.203125 L 166264.15273666382 207856.20305490494"></path></g><g><path stroke="#000" stroke-opacity="0" stroke-width="3882.8025477707006" stroke-linecap="round" stroke-linejoin="round" stroke-miterlimit="10" pointer-events="visiblePainted" d="M 245380.15625 209920.203125 L 166264.15273666382 207856.20305490494"></path></g></g></g><g id="editor-gb98267064_0_275"><g><g></g><g><path stroke="#666666" stroke-opacity="1" stroke-width="762" stroke-linecap="butt" stroke-linejoin="round" stroke-miterlimit="8" d="M 166257.53125 207792.546875 L 92025.53209672868 223176.54622268677"></path></g><g><path stroke="#000" stroke-opacity="0" stroke-width="3882.8025477707006" stroke-linecap="round" stroke-linejoin="round" stroke-miterlimit="10" pointer-events="visiblePainted" d="M 166257.53125 207792.546875 L 92025.53209672868 223176.54622268677"></path></g></g></g><g id="editor-gb98267064_0_276"><g><g></g><g><path stroke="#666666" stroke-opacity="1" stroke-width="762" stroke-linecap="butt" stroke-linejoin="round" stroke-miterlimit="8" d="M 165682.9375 208025.9375 L 98386.93558883667 253865.9374141693"></path></g><g><path stroke="#000" stroke-opacity="0" stroke-width="3882.8025477707006" stroke-linecap="round" stroke-linejoin="round" stroke-miterlimit="10" pointer-events="visiblePainted" d="M 165682.9375 208025.9375 L 98386.93558883667 253865.9374141693"></path></g></g></g><g id="editor-gb98267064_0_277"><g><g></g><g><path stroke="#666666" stroke-opacity="1" stroke-width="762" stroke-linecap="butt" stroke-linejoin="round" stroke-miterlimit="8" d="M 239711.09375 209770.53125 L 177863.09465408325 202942.53144955635"></path></g><g><path stroke="#000" stroke-opacity="0" stroke-width="3882.8025477707006" stroke-linecap="round" stroke-linejoin="round" stroke-miterlimit="10" pointer-events="visiblePainted" d="M 239711.09375 209770.53125 L 177863.09465408325 202942.53144955635"></path></g></g></g><g id="editor-gb98267064_0_278"><g><g></g><g><path stroke="#666666" stroke-opacity="1" stroke-width="762" stroke-linecap="butt" stroke-linejoin="round" stroke-miterlimit="8" d="M 239421.046875 210011.3125 L 187893.0472354889 226091.3129005432"></path></g><g><path stroke="#000" stroke-opacity="0" stroke-width="3882.8025477707006" stroke-linecap="round" stroke-linejoin="round" stroke-miterlimit="10" pointer-events="visiblePainted" d="M 239421.046875 210011.3125 L 187893.0472354889 226091.3129005432"></path></g></g></g><g id="editor-gb98267064_0_282"><g><g></g><g><path fill="#000000" fill-opacity="1" d="M 268793.00344808254 199793.08956943665 L 270562.7075456675 201147.66996559894 268505.502107841 203836.89325087052 270421.69959240995 206631.87250108525 268584.80661379144 207890.45982496048 267081.73622838286 205698.07069353736 265468.0588307246 207807.50456577327 263698.3547331397 206452.92416961098 265755.56017096614 203763.7008843394 263839.3626863972 200968.72163412467 265676.2556650157 199710.13431024944 267179.3260504243 201902.52344167256 Z"></path></g><g><path fill="#000" fill-opacity="0" stroke="#000" stroke-opacity="0" stroke-width="3882.8025477707006" stroke-linecap="round" stroke-linejoin="round" stroke-miterlimit="10" pointer-events="visiblePainted" d="M 268793.00344808254 199793.08956943665 L 270562.7075456675 201147.66996559894 268505.502107841 203836.89325087052 270421.69959240995 206631.87250108525 268584.80661379144 207890.45982496048 267081.73622838286 205698.07069353736 265468.0588307246 207807.50456577327 263698.3547331397 206452.92416961098 265755.56017096614 203763.7008843394 263839.3626863972 200968.72163412467 265676.2556650157 199710.13431024944 267179.3260504243 201902.52344167256 Z"></path></g><g></g></g></g><g id="editor-gb98267064_0_283"><g><g></g><g><path fill="#000000" fill-opacity="1" d="M 251245.2968646288 203772.25006097555 C 253942.65556818646 204461.50143064075 255446.9788051524 207679.67863596772 254605.29685658216 210960.2500321865 253763.61490801192 214240.8214284053 250894.65560502213 216341.50136626774 248197.29690146446 215652.24999660254 250094.33915597503 214642.823333481 251563.68421421136 212673.32299507203 252163.2968698144 210336.25003048778 252762.90952541743 207999.17706590352 252422.80393241573 205567.31095535512 251245.2968646288 203772.25006097555 Z"></path></g><g><path fill="#000" fill-opacity="0" stroke="#000" stroke-opacity="0" stroke-width="3882.8025477707006" stroke-linecap="round" stroke-linejoin="round" stroke-miterlimit="10" pointer-events="visiblePainted" d="M 251245.2968646288 203772.25006097555 C 253942.65556818646 204461.50143064075 255446.9788051524 207679.67863596772 254605.29685658216 210960.2500321865 253763.61490801192 214240.8214284053 250894.65560502213 216341.50136626774 248197.29690146446 215652.24999660254 250094.33915597503 214642.823333481 251563.68421421136 212673.32299507203 252163.2968698144 210336.25003048778 252762.90952541743 207999.17706590352 252422.80393241573 205567.31095535512 251245.2968646288 203772.25006097555 Z"></path></g><g></g></g></g><g id="editor-gb98267064_0_284"><g><g></g><g><path fill="#000000" fill-opacity="1" d="M 268453.72219808254 212863.58956943665 L 270223.4262956675 214218.16996559894 268166.220857841 216907.39325087052 270082.41834240995 219702.37250108525 268245.52536379144 220960.95982496048 266742.45497838286 218768.57069353736 265128.7775807246 220878.00456577327 263359.0734831397 219523.42416961098 265416.27892096614 216834.2008843394 263500.0814363972 214039.22163412467 265336.9744150157 212780.63431024944 266840.0448004243 214973.02344167256 Z"></path></g><g><path fill="#000" fill-opacity="0" stroke="#000" stroke-opacity="0" stroke-width="3882.8025477707006" stroke-linecap="round" stroke-linejoin="round" stroke-miterlimit="10" pointer-events="visiblePainted" d="M 268453.72219808254 212863.58956943665 L 270223.4262956675 214218.16996559894 268166.220857841 216907.39325087052 270082.41834240995 219702.37250108525 268245.52536379144 220960.95982496048 266742.45497838286 218768.57069353736 265128.7775807246 220878.00456577327 263359.0734831397 219523.42416961098 265416.27892096614 216834.2008843394 263500.0814363972 214039.22163412467 265336.9744150157 212780.63431024944 266840.0448004243 214973.02344167256 Z"></path></g><g></g></g></g><g id="editor-gb98267064_0_289"><g></g><g id="editor-gb98267064_0_285"><g><g></g><g><path fill="#FFD966" fill-opacity="1" stroke="#FFFF00" stroke-opacity="1" stroke-width="762" stroke-linecap="butt" stroke-linejoin="round" stroke-miterlimit="8" d="M 275798.5819 202070.0144 L 281979.4199 197271.03639999998 C 281296.70338628505 197801.1168728347 285165.08632553637 203925.92786723012 290619.695025293 210951.1846461914 296074.30372504954 217976.4414251527 301049.58883687103 223241.8221652175 301732.30535058596 222711.7416923828 L 295551.46735058597 227510.71969238282 C 294868.750836871 228040.80016521752 289893.46572504955 222775.4194251527 284438.857025293 215750.16264619143 278984.2483255364 208724.90586723012 275115.86538628506 202600.0948728347 275798.5819 202070.0144 Z"></path></g><g><path fill="#000" fill-opacity="0" stroke="#000" stroke-opacity="0" stroke-width="3882.8025477707006" stroke-linecap="round" stroke-linejoin="round" stroke-miterlimit="10" pointer-events="visiblePainted" d="M 275798.5819 202070.0144 L 281979.4199 197271.03639999998 C 281296.70338628505 197801.1168728347 285165.08632553637 203925.92786723012 290619.695025293 210951.1846461914 296074.30372504954 217976.4414251527 301049.58883687103 223241.8221652175 301732.30535058596 222711.7416923828 L 295551.46735058597 227510.71969238282 C 294868.750836871 228040.80016521752 289893.46572504955 222775.4194251527 284438.857025293 215750.16264619143 278984.2483255364 208724.90586723012 275115.86538628506 202600.0948728347 275798.5819 202070.0144 Z"></path></g><g></g></g></g><g id="editor-gb98267064_0_286"><g><g></g><g><path fill="#FFD966" fill-opacity="1" stroke="#FFFF00" stroke-opacity="1" stroke-width="762" stroke-linecap="butt" stroke-linejoin="round" stroke-miterlimit="8" d="M 285981.64352793293 204759.21833359776 L 291111.22303489095 209071.65060770613 297149.39103359776 206164.73037206708 292836.95875948935 211294.30987902507 295743.87899512844 217332.4778777319 290614.2994881704 213020.04560362353 284576.1314894636 215926.9658392626 288888.563763572 210797.3863323046 Z"></path></g><g><path fill="#000" fill-opacity="0" stroke="#000" stroke-opacity="0" stroke-width="3882.8025477707006" stroke-linecap="round" stroke-linejoin="round" stroke-miterlimit="10" pointer-events="visiblePainted" d="M 285981.64352793293 204759.21833359776 L 291111.22303489095 209071.65060770613 297149.39103359776 206164.73037206708 292836.95875948935 211294.30987902507 295743.87899512844 217332.4778777319 290614.2994881704 213020.04560362353 284576.1314894636 215926.9658392626 288888.563763572 210797.3863323046 Z"></path></g><g></g></g></g><g id="editor-gb98267064_0_287"><g><g></g><g><path fill="#FFD966" fill-opacity="1" stroke="#FFFF00" stroke-opacity="1" stroke-width="762" stroke-linecap="butt" stroke-linejoin="round" stroke-miterlimit="8" d="M 295743.87878960755 217332.47748571183 L 299077.69149627833 220136.45321604755 302999.3391913512 218249.53286006596 300199.53899363463 221581.3353642601 302090.00657231 225505.9652058437 298756.1938656392 222701.989475508 294834.54617056635 224588.90983148958 297634.3463682829 221257.10732729544 Z"></path></g><g><path fill="#000" fill-opacity="0" stroke="#000" stroke-opacity="0" stroke-width="3882.8025477707006" stroke-linecap="round" stroke-linejoin="round" stroke-miterlimit="10" pointer-events="visiblePainted" d="M 295743.87878960755 217332.47748571183 L 299077.69149627833 220136.45321604755 302999.3391913512 218249.53286006596 300199.53899363463 221581.3353642601 302090.00657231 225505.9652058437 298756.1938656392 222701.989475508 294834.54617056635 224588.90983148958 297634.3463682829 221257.10732729544 Z"></path></g><g></g></g></g><g id="editor-gb98267064_0_288"><g><g></g><g><path fill="#FFD966" fill-opacity="1" stroke="#FFFF00" stroke-opacity="1" stroke-width="762" stroke-linecap="butt" stroke-linejoin="round" stroke-miterlimit="8" d="M 278639.15098960756 195302.46368571182 L 281972.96369627834 198106.43941604753 285894.6113913512 196219.51906006594 283094.81119363464 199551.32156426008 284985.27877231 203475.9514058437 281651.4660656392 200671.97567550797 277729.81837056635 202558.89603148957 280529.6185682829 199227.09352729542 Z"></path></g><g><path fill="#000" fill-opacity="0" stroke="#000" stroke-opacity="0" stroke-width="3882.8025477707006" stroke-linecap="round" stroke-linejoin="round" stroke-miterlimit="10" pointer-events="visiblePainted" d="M 278639.15098960756 195302.46368571182 L 281972.96369627834 198106.43941604753 285894.6113913512 196219.51906006594 283094.81119363464 199551.32156426008 284985.27877231 203475.9514058437 281651.4660656392 200671.97567550797 277729.81837056635 202558.89603148957 280529.6185682829 199227.09352729542 Z"></path></g><g></g></g></g></g><g id="editor-gb98267064_0_342"><g><g></g><g><path stroke="#666666" stroke-opacity="1" stroke-width="762" stroke-linecap="butt" stroke-linejoin="round" stroke-miterlimit="8" d="M 66362 145069 L 92977.9999370575 133885.0002231598"></path></g><g><path stroke="#000" stroke-opacity="0" stroke-width="3882.8025477707006" stroke-linecap="round" stroke-linejoin="round" stroke-miterlimit="10" pointer-events="visiblePainted" d="M 66362 145069 L 92977.9999370575 133885.0002231598"></path></g></g></g><g id="editor-gb98267064_0_343"><g><g></g><g><path stroke="#666666" stroke-opacity="1" stroke-width="762" stroke-linecap="butt" stroke-linejoin="round" stroke-miterlimit="8" d="M 92597 135038 L 65981.0000629425 131954.00009799004"></path></g><g><path stroke="#000" stroke-opacity="0" stroke-width="3882.8025477707006" stroke-linecap="round" stroke-linejoin="round" stroke-miterlimit="10" pointer-events="visiblePainted" d="M 92597 135038 L 65981.0000629425 131954.00009799004"></path></g></g></g><g id="editor-gb98267064_0_344"><g><g></g><g><path stroke="#666666" stroke-opacity="1" stroke-width="762" stroke-linecap="butt" stroke-linejoin="round" stroke-miterlimit="8" d="M 66362 145455 L 47845.999490737915 141590.99985837936"></path></g><g><path stroke="#000" stroke-opacity="0" stroke-width="3882.8025477707006" stroke-linecap="round" stroke-linejoin="round" stroke-miterlimit="10" pointer-events="visiblePainted" d="M 66362 145455 L 47845.999490737915 141590.99985837936"></path></g></g></g><g id="editor-gb98267064_0_345"><g><g></g><g><path stroke="#666666" stroke-opacity="1" stroke-width="762" stroke-linecap="butt" stroke-linejoin="round" stroke-miterlimit="8" d="M 47456 141983 L 64052.00019454956 131566.999812603"></path></g><g><path stroke="#000" stroke-opacity="0" stroke-width="3882.8025477707006" stroke-linecap="round" stroke-linejoin="round" stroke-miterlimit="10" pointer-events="visiblePainted" d="M 47456 141983 L 64052.00019454956 131566.999812603"></path></g></g></g></g></g></svg>