<svg xmlns="http://www.w3.org/2000/svg" xmlns:xlink="http://www.w3.org/1999/xlink" version="1.1" fill-rule="evenodd" fill="none" stroke="none" stroke-linecap="square" stroke-miterlimit="10" overflow="hidden" viewBox="6858 13335 358140 268605"><rect fill="#ffffff" fill-opacity="0" width="100%" height="100%"></rect><g transform="translate(6858 13335) scale(0.98125)"><defs cursor="default"><radialGradient gradientUnits="userSpaceOnUse" gradientTransform="matrix(478.1213235152768,0,0,478.1213235152768,0,0)" cx="382.4970588122215" cy="286.87279410916614" r="478.12132351527686" id="gradient-11816"><stop offset="0%" stop-color="#FFFFFF" stop-opacity="1"></stop><stop offset="30%" stop-color="#FFFFFF" stop-opacity="1"></stop><stop offset="100%" stop-color="#CCCCCC" stop-opacity="1"></stop></radialGradient></defs><g id="editor-gb98267064_0_229"><g></g><path fill="#fff" fill-opacity="1" d="M 0 0 L 365760 0 365760 274320 0 274320 Z"></path><g id="editor-gb98267064_0_229-bg"><g><g></g><g><g><path fill="url(#gradient-11816)" d="M 0 0 L 365760 0 365760 274320 0 274320 Z"></path></g><g></g></g><g></g></g></g><g id="editor-gb9563dfae_0_1"></g><g id="editor-gb9563dfae_0_2"></g><g id="editor-gb9563dfae_0_3"></g><g id="editor-gb9563dfae_0_18"></g><g id="editor-gb9563dfae_0_19"></g><g id="editor-gb98267064_0_356"><g></g><g id="editor-gb98267064_0_352"><g></g><g id="editor-gb98267064_0_346"><g><g></g><g><path fill="#FFFFFF" fill-opacity="1" stroke="#666666" stroke-opacity="1" stroke-width="762" stroke-linecap="butt" stroke-linejoin="round" stroke-miterlimit="8" d="M 64356.502704149985 99239.0792699726 C 64356.502704149985 92180.82034661529 69362.98638684148 86458.97095534 75538.79698784789 86458.97095534 78504.52582612303 86458.97095534 81348.78613236938 87805.44278689749 83445.87310507425 90202.1780163973 85542.9600777791 92598.91324589711 86721.0912715458 95849.58380299657 86721.0912715458 99239.0792699726 86721.0912715458 106297.3381933299 81714.6075888543 112019.1875846052 75538.79698784789 112019.1875846052 69362.98638684148 112019.1875846052 64356.502704149985 106297.33819332991 64356.502704149985 99239.0792699726 Z"></path></g><g><path fill="#000" fill-opacity="0" stroke="#000" stroke-opacity="0" stroke-width="3882.8025477707006" stroke-linecap="round" stroke-linejoin="round" stroke-miterlimit="10" pointer-events="visiblePainted" d="M 64356.502704149985 99239.0792699726 C 64356.502704149985 92180.82034661529 69362.98638684148 86458.97095534 75538.79698784789 86458.97095534 78504.52582612303 86458.97095534 81348.78613236938 87805.44278689749 83445.87310507425 90202.1780163973 85542.9600777791 92598.91324589711 86721.0912715458 95849.58380299657 86721.0912715458 99239.0792699726 86721.0912715458 106297.3381933299 81714.6075888543 112019.1875846052 75538.79698784789 112019.1875846052 69362.98638684148 112019.1875846052 64356.502704149985 106297.33819332991 64356.502704149985 99239.0792699726 Z"></path></g><g></g></g></g><g id="editor-gb98267064_0_347"><g><g></g><g><path stroke="#666666" stroke-opacity="1" stroke-width="762" stroke-linecap="butt" stroke-linejoin="round" stroke-miterlimit="8" d="M 75538.79659275 112019.1866815 L 75538.79659275 167720.70784913684"></path></g><g><path stroke="#000" stroke-opacity="0" stroke-width="3882.8025477707006" stroke-linecap="round" stroke-linejoin="round" stroke-miterlimit="10" pointer-events="visiblePainted" d="M 75538.79659275 112019.1866815 L 75538.79659275 167720.70784913684"></path></g></g></g><g id="editor-gb98267064_0_348"><g><g></g><g><path stroke="#666666" stroke-opacity="1" stroke-width="762" stroke-linecap="butt" stroke-linejoin="round" stroke-miterlimit="8" d="M 75486.86278114999 167720.70809614 L 87660.62063954074 219658.6155763851"></path></g><g><path stroke="#000" stroke-opacity="0" stroke-width="3882.8025477707006" stroke-linecap="round" stroke-linejoin="round" stroke-miterlimit="10" pointer-events="visiblePainted" d="M 75486.86278114999 167720.70809614 L 87660.62063954074 219658.6155763851"></path></g></g></g><g id="editor-gb98267064_0_349"><g><g></g><g><path stroke="#666666" stroke-opacity="1" stroke-width="762" stroke-linecap="butt" stroke-linejoin="round" stroke-miterlimit="8" d="M 75661.54923835 168120.67663967 L 63416.97240244078 220349.95615041914"></path></g><g><path stroke="#000" stroke-opacity="0" stroke-width="3882.8025477707006" stroke-linecap="round" stroke-linejoin="round" stroke-miterlimit="10" pointer-events="visiblePainted" d="M 75661.54923835 168120.67663967 L 63416.97240244078 220349.95615041914"></path></g></g></g><g id="editor-gb98267064_0_350"><g><g></g><g><path stroke="#666666" stroke-opacity="1" stroke-width="762" stroke-linecap="butt" stroke-linejoin="round" stroke-miterlimit="8" d="M 75537.0261219 116010.10383507 L 101739.99503959052 159336.2086402718"></path></g><g><path stroke="#000" stroke-opacity="0" stroke-width="3882.8025477707006" stroke-linecap="round" stroke-linejoin="round" stroke-miterlimit="10" pointer-events="visiblePainted" d="M 75537.0261219 116010.10383507 L 101739.99503959052 159336.2086402718"></path></g></g></g><g id="editor-gb98267064_0_351"><g><g></g><g><path stroke="#666666" stroke-opacity="1" stroke-width="762" stroke-linecap="butt" stroke-linejoin="round" stroke-miterlimit="8" d="M 75711.7125791 116209.75086523 L 49678.70962956696 157342.4341179533"></path></g><g><path stroke="#000" stroke-opacity="0" stroke-width="3882.8025477707006" stroke-linecap="round" stroke-linejoin="round" stroke-miterlimit="10" pointer-events="visiblePainted" d="M 75711.7125791 116209.75086523 L 49678.70962956696 157342.4341179533"></path></g></g></g></g><g id="editor-gb98267064_0_355"><g></g><g id="editor-gb98267064_0_353"><g><g></g><g><path fill="#FFFFFF" fill-opacity="1" stroke="#666666" stroke-opacity="1" stroke-width="762" stroke-linecap="butt" stroke-linejoin="round" stroke-miterlimit="8" d="M 84983.46451183436 72213.60657330882 L 84983.46451183436 92132.05254321086 C 84983.46451183436 89931.92175330975 80830.36278051841 88148.36334923045 75707.25216537897 88148.36334923045 70584.14155023955 88148.36334923045 66431.0398189236 89931.92175330975 66431.0398189236 92132.05254321086 L 66431.0398189236 72213.60657330882 C 66431.0398189236 70013.47578340772 70584.14155023955 68229.91737932841 75707.25216537897 68229.91737932841 80830.3627805184 68229.91737932841 84983.46451183436 70013.47578340772 84983.46451183436 72213.60657330882 Z"></path></g><g><path fill="#000" fill-opacity="0" stroke="#000" stroke-opacity="0" stroke-width="3882.8025477707006" stroke-linecap="round" stroke-linejoin="round" stroke-miterlimit="10" pointer-events="visiblePainted" d="M 84983.46451183436 72213.60657330882 L 84983.46451183436 92132.05254321086 C 84983.46451183436 89931.92175330975 80830.36278051841 88148.36334923045 75707.25216537897 88148.36334923045 70584.14155023955 88148.36334923045 66431.0398189236 89931.92175330975 66431.0398189236 92132.05254321086 L 66431.0398189236 72213.60657330882 C 66431.0398189236 70013.47578340772 70584.14155023955 68229.91737932841 75707.25216537897 68229.91737932841 80830.3627805184 68229.91737932841 84983.46451183436 70013.47578340772 84983.46451183436 72213.60657330882 Z"></path></g><g></g></g></g><g id="editor-gb98267064_0_354"><g><g></g><g><path fill="#FFFFFF" fill-opacity="1" stroke="#666666" stroke-opacity="1" stroke-width="762" stroke-linecap="butt" stroke-linejoin="round" stroke-miterlimit="8" d="M 64615.71635478362 69902.6821931927 C 64397.45347878873 68650.40693247024 65114.0539057628 67410.73035073666 66461.43765588266 66709.69292434576 67808.82140600253 66008.65549795485 69550.68652260376 65969.2040232714 70947.8954199786 66608.07921544733 71442.82934945848 65879.95443488806 72348.70311902856 65377.23447961784 73391.50743981483 65251.982409715965 74434.31176060108 65126.730339814094 75491.5651816016 65393.6575013661 76243.46899820719 65972.02359238405 76665.08921380166 65311.85880847908 77492.94775461545 64868.3124507102 78433.27743590591 64798.7777914794 79373.60711719637 64729.2431322486 80293.3281682505 65043.56103555407 80866.0758170734 65630.19519293726 81627.79425946559 64930.42224414145 82839.7074723244 64635.788728660686 83977.41373271104 64873.7842402334 85115.11999309764 65111.77975180611 85974.277107831 65839.65817353435 86183.12291897691 66742.46238275101 87116.35716734287 66941.20087787561 87893.72173430311 67446.42046013981 88314.37050382546 68127.58856457483 88735.0192733478 68808.75666900986 88757.68754460242 69599.05223234183 88376.51856204352 70294.28818307434 89295.48201180107 71228.06605331427 89510.45063161141 72472.31371544907 88941.20196251891 73562.70010993014 88371.95329342644 74653.08650441121 87104.01045751953 75425.7935078033 85610.5471310369 75592.46063326404 85600.02057487465 76615.8272220264 84881.14520894716 77554.85610254445 83731.00705324298 78047.60445762152 82580.8688975388 78540.35281269858 81179.06584202331 78509.87635141029 80065.9141193434 77967.9220354164 79591.77048683778 79193.58056494339 78257.2145980393 80095.40845476871 76638.82393675935 80283.78271501928 75020.43327547939 80472.15697526984 73408.33615835289 79913.3078194958 72499.0181408025 78848.67874419726 71384.38454830211 79373.43787724862 70046.91689544191 79524.60433944782 68788.32092792804 79268.07802369614 67529.72496041415 79011.55170794445 66456.01869399563 78368.94114603876 65809.40862173148 77485.2063288721 64670.392982511345 77589.26841602124 63569.12227620289 77128.53984777536 63052.15318934795 76331.67855375446 62535.184102493 75534.81725973355 62712.56699120803 74571.45595379274 63496.267366470514 73919.70738359842 62480.235926225 73452.82588173957 61961.79543641185 72526.37795203179 62211.292273779916 71623.46984478598 62460.78911114798 70720.56173754018 63421.68637254615 70045.79575854992 64592.91383265209 69951.03589444012 Z"></path><path stroke="#666666" stroke-opacity="1" stroke-width="762" stroke-linecap="butt" stroke-linejoin="round" stroke-miterlimit="8" d="M 63496.554963259594 73919.61818631896 C 63976.02328510294 74139.94098473736 64529.921630448545 74239.88461412447 65083.88008562176 74206.03000733143 M 65809.44673040135 77485.19690557095 C 66047.66923460011 77463.43255911316 66281.17257648485 77417.34386046362 66503.9349152635 77348.11939563285 M 72498.72324468967 78848.61211025166 C 72331.17299954046 78652.44436792562 72190.8913558542 78442.82213968648 72080.26854060066 78223.31713092799 M 80065.90855490474 77967.81857660052 C 80152.35201793202 77744.36272795539 80208.35990517588 77514.37832720276 80232.99783305808 77281.7022205065 M 85610.33184281323 75592.44311457113 C 85621.53898669887 74502.91141671542 84828.90722230019 73505.32499026004 83572.89522349884 73028.17656926921 M 88376.27718558312 70294.3855598511 C 88172.86993433605 70665.39170194924 87862.3463823747 70994.50600024784 87469.0533222316 71255.92404316671 M 86183.07177106236 66742.46255429913 C 86217.72979753133 66892.28318995198 86233.7695569885 67044.355591107 86230.96872818553 67196.57193774648 M 80866.1152161456 65630.24060952137 C 80676.10430133622 65804.79920067478 80519.5603264604 65999.86613501629 80401.357584331 66209.36763451104 M 76243.46483245426 65971.99281290865 C 76142.20529275094 66130.5430428883 76066.59134731602 66298.31635890472 76018.36481000364 66471.44799918006 M 70947.81370156427 66608.06158262001 C 71243.46218375284 66743.24715238671 71516.97720309516 66905.95747509279 71762.35033043794 67092.6182188831 M 64615.71635478362 69902.6821931927 C 64645.7986442629 70075.27822780958 64693.330172657676 70245.74636862059 64757.86607343717 70412.4911363097"></path></g><g><path fill="#000" fill-opacity="0" stroke="#000" stroke-opacity="0" stroke-width="3882.8025477707006" stroke-linecap="round" stroke-linejoin="round" stroke-miterlimit="10" pointer-events="visiblePainted" d="M 64615.71635478362 69902.6821931927 C 64397.45347878873 68650.40693247024 65114.0539057628 67410.73035073666 66461.43765588266 66709.69292434576 67808.82140600253 66008.65549795485 69550.68652260376 65969.2040232714 70947.8954199786 66608.07921544733 71442.82934945848 65879.95443488806 72348.70311902856 65377.23447961784 73391.50743981483 65251.982409715965 74434.31176060108 65126.730339814094 75491.5651816016 65393.6575013661 76243.46899820719 65972.02359238405 76665.08921380166 65311.85880847908 77492.94775461545 64868.3124507102 78433.27743590591 64798.7777914794 79373.60711719637 64729.2431322486 80293.3281682505 65043.56103555407 80866.0758170734 65630.19519293726 81627.79425946559 64930.42224414145 82839.7074723244 64635.788728660686 83977.41373271104 64873.7842402334 85115.11999309764 65111.77975180611 85974.277107831 65839.65817353435 86183.12291897691 66742.46238275101 87116.35716734287 66941.20087787561 87893.72173430311 67446.42046013981 88314.37050382546 68127.58856457483 88735.0192733478 68808.75666900986 88757.68754460242 69599.05223234183 88376.51856204352 70294.28818307434 89295.48201180107 71228.06605331427 89510.45063161141 72472.31371544907 88941.20196251891 73562.70010993014 88371.95329342644 74653.08650441121 87104.01045751953 75425.7935078033 85610.5471310369 75592.46063326404 85600.02057487465 76615.8272220264 84881.14520894716 77554.85610254445 83731.00705324298 78047.60445762152 82580.8688975388 78540.35281269858 81179.06584202331 78509.87635141029 80065.9141193434 77967.9220354164 79591.77048683778 79193.58056494339 78257.2145980393 80095.40845476871 76638.82393675935 80283.78271501928 75020.43327547939 80472.15697526984 73408.33615835289 79913.3078194958 72499.0181408025 78848.67874419726 71384.38454830211 79373.43787724862 70046.91689544191 79524.60433944782 68788.32092792804 79268.07802369614 67529.72496041415 79011.55170794445 66456.01869399563 78368.94114603876 65809.40862173148 77485.2063288721 64670.392982511345 77589.26841602124 63569.12227620289 77128.53984777536 63052.15318934795 76331.67855375446 62535.184102493 75534.81725973355 62712.56699120803 74571.45595379274 63496.267366470514 73919.70738359842 62480.235926225 73452.82588173957 61961.79543641185 72526.37795203179 62211.292273779916 71623.46984478598 62460.78911114798 70720.56173754018 63421.68637254615 70045.79575854992 64592.91383265209 69951.03589444012 Z"></path><path stroke="#000" stroke-opacity="0" stroke-width="3882.8025477707006" stroke-linecap="round" stroke-linejoin="round" stroke-miterlimit="10" pointer-events="visiblePainted" d="M 63496.554963259594 73919.61818631896 C 63976.02328510294 74139.94098473736 64529.921630448545 74239.88461412447 65083.88008562176 74206.03000733143 M 65809.44673040135 77485.19690557095 C 66047.66923460011 77463.43255911316 66281.17257648485 77417.34386046362 66503.9349152635 77348.11939563285 M 72498.72324468967 78848.61211025166 C 72331.17299954046 78652.44436792562 72190.8913558542 78442.82213968648 72080.26854060066 78223.31713092799 M 80065.90855490474 77967.81857660052 C 80152.35201793202 77744.36272795539 80208.35990517588 77514.37832720276 80232.99783305808 77281.7022205065 M 85610.33184281323 75592.44311457113 C 85621.53898669887 74502.91141671542 84828.90722230019 73505.32499026004 83572.89522349884 73028.17656926921 M 88376.27718558312 70294.3855598511 C 88172.86993433605 70665.39170194924 87862.3463823747 70994.50600024784 87469.0533222316 71255.92404316671 M 86183.07177106236 66742.46255429913 C 86217.72979753133 66892.28318995198 86233.7695569885 67044.355591107 86230.96872818553 67196.57193774648 M 80866.1152161456 65630.24060952137 C 80676.10430133622 65804.79920067478 80519.5603264604 65999.86613501629 80401.357584331 66209.36763451104 M 76243.46483245426 65971.99281290865 C 76142.20529275094 66130.5430428883 76066.59134731602 66298.31635890472 76018.36481000364 66471.44799918006 M 70947.81370156427 66608.06158262001 C 71243.46218375284 66743.24715238671 71516.97720309516 66905.95747509279 71762.35033043794 67092.6182188831 M 64615.71635478362 69902.6821931927 C 64645.7986442629 70075.27822780958 64693.330172657676 70245.74636862059 64757.86607343717 70412.4911363097"></path></g><g></g></g></g></g></g><g id="editor-gb98267064_0_378"><g></g><g id="editor-gb98267064_0_374"><g></g><g id="editor-gb98267064_0_368"><g><g></g><g><path fill="#FFFFFF" fill-opacity="1" stroke="#666666" stroke-opacity="1" stroke-width="762" stroke-linecap="butt" stroke-linejoin="round" stroke-miterlimit="8" d="M 171527.00660415 99239.0792699726 C 171527.00660415 92180.82034661529 176533.4902868415 86458.97095534 182709.3008878479 86458.97095534 185675.02972612306 86458.97095534 188519.29003236938 87805.44278689749 190616.37700507426 90202.1780163973 192713.46397777912 92598.91324589711 193891.5951715458 95849.58380299657 193891.5951715458 99239.0792699726 193891.5951715458 106297.3381933299 188885.1114888543 112019.1875846052 182709.3008878479 112019.1875846052 176533.4902868415 112019.1875846052 171527.00660415 106297.33819332991 171527.00660415 99239.0792699726 Z"></path></g><g><path fill="#000" fill-opacity="0" stroke="#000" stroke-opacity="0" stroke-width="3882.8025477707006" stroke-linecap="round" stroke-linejoin="round" stroke-miterlimit="10" pointer-events="visiblePainted" d="M 171527.00660415 99239.0792699726 C 171527.00660415 92180.82034661529 176533.4902868415 86458.97095534 182709.3008878479 86458.97095534 185675.02972612306 86458.97095534 188519.29003236938 87805.44278689749 190616.37700507426 90202.1780163973 192713.46397777912 92598.91324589711 193891.5951715458 95849.58380299657 193891.5951715458 99239.0792699726 193891.5951715458 106297.3381933299 188885.1114888543 112019.1875846052 182709.3008878479 112019.1875846052 176533.4902868415 112019.1875846052 171527.00660415 106297.33819332991 171527.00660415 99239.0792699726 Z"></path></g><g></g></g></g><g id="editor-gb98267064_0_369"><g><g></g><g><path stroke="#666666" stroke-opacity="1" stroke-width="762" stroke-linecap="butt" stroke-linejoin="round" stroke-miterlimit="8" d="M 182709.30049275002 112019.1866815 L 182709.30049275002 167720.70784913684"></path></g><g><path stroke="#000" stroke-opacity="0" stroke-width="3882.8025477707006" stroke-linecap="round" stroke-linejoin="round" stroke-miterlimit="10" pointer-events="visiblePainted" d="M 182709.30049275002 112019.1866815 L 182709.30049275002 167720.70784913684"></path></g></g></g><g id="editor-gb98267064_0_370"><g><g></g><g><path stroke="#666666" stroke-opacity="1" stroke-width="762" stroke-linecap="butt" stroke-linejoin="round" stroke-miterlimit="8" d="M 182657.36668115 167720.70809614 L 194831.12453954073 219658.6155763851"></path></g><g><path stroke="#000" stroke-opacity="0" stroke-width="3882.8025477707006" stroke-linecap="round" stroke-linejoin="round" stroke-miterlimit="10" pointer-events="visiblePainted" d="M 182657.36668115 167720.70809614 L 194831.12453954073 219658.6155763851"></path></g></g></g><g id="editor-gb98267064_0_371"><g><g></g><g><path stroke="#666666" stroke-opacity="1" stroke-width="762" stroke-linecap="butt" stroke-linejoin="round" stroke-miterlimit="8" d="M 182832.05313835 168120.67663967 L 170587.47630244077 220349.95615041914"></path></g><g><path stroke="#000" stroke-opacity="0" stroke-width="3882.8025477707006" stroke-linecap="round" stroke-linejoin="round" stroke-miterlimit="10" pointer-events="visiblePainted" d="M 182832.05313835 168120.67663967 L 170587.47630244077 220349.95615041914"></path></g></g></g><g id="editor-gb98267064_0_372"><g><g></g><g><path stroke="#666666" stroke-opacity="1" stroke-width="762" stroke-linecap="butt" stroke-linejoin="round" stroke-miterlimit="8" d="M 182707.5300219 116010.10383507 L 208910.4989395905 159336.2086402718"></path></g><g><path stroke="#000" stroke-opacity="0" stroke-width="3882.8025477707006" stroke-linecap="round" stroke-linejoin="round" stroke-miterlimit="10" pointer-events="visiblePainted" d="M 182707.5300219 116010.10383507 L 208910.4989395905 159336.2086402718"></path></g></g></g><g id="editor-gb98267064_0_373"><g><g></g><g><path stroke="#666666" stroke-opacity="1" stroke-width="762" stroke-linecap="butt" stroke-linejoin="round" stroke-miterlimit="8" d="M 182882.2164791 116209.75086523 L 156849.21352956694 157342.4341179533"></path></g><g><path stroke="#000" stroke-opacity="0" stroke-width="3882.8025477707006" stroke-linecap="round" stroke-linejoin="round" stroke-miterlimit="10" pointer-events="visiblePainted" d="M 182882.2164791 116209.75086523 L 156849.21352956694 157342.4341179533"></path></g></g></g></g><g id="editor-gb98267064_0_377"><g></g><g id="editor-gb98267064_0_375"><g><g></g><g><path fill="#FFFFFF" fill-opacity="1" stroke="#666666" stroke-opacity="1" stroke-width="762" stroke-linecap="butt" stroke-linejoin="round" stroke-miterlimit="8" d="M 192153.96841183436 72213.60657330882 L 192153.96841183436 92132.05254321086 C 192153.96841183436 89931.92175330975 188000.8666805184 88148.36334923045 182877.75606537898 88148.36334923045 177754.64545023954 88148.36334923045 173601.54371892358 89931.92175330975 173601.54371892358 92132.05254321086 L 173601.54371892358 72213.60657330882 C 173601.54371892358 70013.47578340772 177754.64545023954 68229.91737932841 182877.75606537896 68229.91737932841 188000.8666805184 68229.91737932841 192153.96841183436 70013.47578340772 192153.96841183436 72213.60657330882 Z"></path></g><g><path fill="#000" fill-opacity="0" stroke="#000" stroke-opacity="0" stroke-width="3882.8025477707006" stroke-linecap="round" stroke-linejoin="round" stroke-miterlimit="10" pointer-events="visiblePainted" d="M 192153.96841183436 72213.60657330882 L 192153.96841183436 92132.05254321086 C 192153.96841183436 89931.92175330975 188000.8666805184 88148.36334923045 182877.75606537898 88148.36334923045 177754.64545023954 88148.36334923045 173601.54371892358 89931.92175330975 173601.54371892358 92132.05254321086 L 173601.54371892358 72213.60657330882 C 173601.54371892358 70013.47578340772 177754.64545023954 68229.91737932841 182877.75606537896 68229.91737932841 188000.8666805184 68229.91737932841 192153.96841183436 70013.47578340772 192153.96841183436 72213.60657330882 Z"></path></g><g></g></g></g><g id="editor-gb98267064_0_376"><g><g></g><g><path fill="#FFFFFF" fill-opacity="1" stroke="#666666" stroke-opacity="1" stroke-width="762" stroke-linecap="butt" stroke-linejoin="round" stroke-miterlimit="8" d="M 171786.22025478364 69902.6821931927 C 171567.95737878873 68650.40693247024 172284.5578057628 67410.73035073666 173631.9415558827 66709.69292434576 174979.32530600255 66008.65549795485 176721.19042260377 65969.2040232714 178118.3993199786 66608.07921544733 178613.3332494585 65879.95443488806 179519.20701902857 65377.23447961784 180562.01133981484 65251.982409715965 181604.81566060107 65126.730339814094 182662.06908160163 65393.6575013661 183413.9728982072 65972.02359238405 183835.59311380167 65311.85880847908 184663.45165461546 64868.3124507102 185603.78133590592 64798.7777914794 186544.11101719638 64729.2431322486 187463.83206825051 65043.56103555407 188036.57971707341 65630.19519293726 188798.2981594656 64930.42224414145 190010.2113723244 64635.788728660686 191147.91763271103 64873.7842402334 192285.62389309765 65111.77975180611 193144.781007831 65839.65817353435 193353.62681897692 66742.46238275101 194286.86106734286 66941.20087787561 195064.22563430312 67446.42046013981 195484.87440382547 68127.58856457483 195905.5231733478 68808.75666900986 195928.19144460242 69599.05223234183 195547.02246204353 70294.28818307434 196465.98591180108 71228.06605331427 196680.9545316114 72472.31371544907 196111.70586251892 73562.70010993014 195542.45719342644 74653.08650441121 194274.51435751954 75425.7935078033 192781.0510310369 75592.46063326404 192770.52447487466 76615.8272220264 192051.64910894717 77554.85610254445 190901.510953243 78047.60445762152 189751.37279753882 78540.35281269858 188349.5697420233 78509.87635141029 187236.4180193434 77967.9220354164 186762.2743868378 79193.58056494339 185427.71849803932 80095.40845476871 183809.32783675936 80283.78271501928 182190.9371754794 80472.15697526984 180578.84005835291 79913.3078194958 179669.52204080252 78848.67874419726 178554.8884483021 79373.43787724862 177217.42079544193 79524.60433944782 175958.82482792804 79268.07802369614 174700.22886041418 79011.55170794445 173626.52259399564 78368.94114603876 172979.9125217315 77485.2063288721 171840.89688251136 77589.26841602124 170739.6261762029 77128.53984777536 170222.65708934795 76331.67855375446 169705.68800249303 75534.81725973355 169883.07089120804 74571.45595379274 170666.77126647052 73919.70738359842 169650.739826225 73452.82588173957 169132.29933641184 72526.37795203179 169381.79617377993 71623.46984478598 169631.293011148 70720.56173754018 170592.19027254617 70045.79575854992 171763.4177326521 69951.03589444012 Z"></path><path stroke="#666666" stroke-opacity="1" stroke-width="762" stroke-linecap="butt" stroke-linejoin="round" stroke-miterlimit="8" d="M 170667.05886325962 73919.61818631896 C 171146.52718510295 74139.94098473736 171700.42553044856 74239.88461412447 172254.38398562177 74206.03000733143 M 172979.95063040135 77485.19690557095 C 173218.17313460013 77463.43255911316 173451.67647648486 77417.34386046362 173674.4388152635 77348.11939563285 M 179669.22714468968 78848.61211025166 C 179501.67689954047 78652.44436792562 179361.3952558542 78442.82213968648 179250.77244060067 78223.31713092799 M 187236.41245490476 77967.81857660052 C 187322.85591793203 77744.36272795539 187378.86380517588 77514.37832720276 187403.5017330581 77281.7022205065 M 192780.83574281324 75592.44311457113 C 192792.04288669888 74502.91141671542 191999.4111223002 73505.32499026004 190743.39912349885 73028.17656926921 M 195546.78108558315 70294.3855598511 C 195343.37383433606 70665.39170194924 195032.8502823747 70994.50600024784 194639.5572222316 71255.92404316671 M 193353.57567106237 66742.46255429913 C 193388.23369753134 66892.28318995198 193404.2734569885 67044.355591107 193401.47262818553 67196.57193774648 M 188036.61911614562 65630.24060952137 C 187846.60820133623 65804.79920067478 187690.0642264604 65999.86613501629 187571.86148433102 66209.36763451104 M 183413.9687324543 65971.99281290865 C 183312.70919275095 66130.5430428883 183237.09524731603 66298.31635890472 183188.86871000365 66471.44799918006 M 178118.31760156428 66608.06158262001 C 178413.96608375284 66743.24715238671 178687.48110309517 66905.95747509279 178932.85423043795 67092.6182188831 M 171786.22025478364 69902.6821931927 C 171816.3025442629 70075.27822780958 171863.8340726577 70245.74636862059 171928.3699734372 70412.4911363097"></path></g><g><path fill="#000" fill-opacity="0" stroke="#000" stroke-opacity="0" stroke-width="3882.8025477707006" stroke-linecap="round" stroke-linejoin="round" stroke-miterlimit="10" pointer-events="visiblePainted" d="M 171786.22025478364 69902.6821931927 C 171567.95737878873 68650.40693247024 172284.5578057628 67410.73035073666 173631.9415558827 66709.69292434576 174979.32530600255 66008.65549795485 176721.19042260377 65969.2040232714 178118.3993199786 66608.07921544733 178613.3332494585 65879.95443488806 179519.20701902857 65377.23447961784 180562.01133981484 65251.982409715965 181604.81566060107 65126.730339814094 182662.06908160163 65393.6575013661 183413.9728982072 65972.02359238405 183835.59311380167 65311.85880847908 184663.45165461546 64868.3124507102 185603.78133590592 64798.7777914794 186544.11101719638 64729.2431322486 187463.83206825051 65043.56103555407 188036.57971707341 65630.19519293726 188798.2981594656 64930.42224414145 190010.2113723244 64635.788728660686 191147.91763271103 64873.7842402334 192285.62389309765 65111.77975180611 193144.781007831 65839.65817353435 193353.62681897692 66742.46238275101 194286.86106734286 66941.20087787561 195064.22563430312 67446.42046013981 195484.87440382547 68127.58856457483 195905.5231733478 68808.75666900986 195928.19144460242 69599.05223234183 195547.02246204353 70294.28818307434 196465.98591180108 71228.06605331427 196680.9545316114 72472.31371544907 196111.70586251892 73562.70010993014 195542.45719342644 74653.08650441121 194274.51435751954 75425.7935078033 192781.0510310369 75592.46063326404 192770.52447487466 76615.8272220264 192051.64910894717 77554.85610254445 190901.510953243 78047.60445762152 189751.37279753882 78540.35281269858 188349.5697420233 78509.87635141029 187236.4180193434 77967.9220354164 186762.2743868378 79193.58056494339 185427.71849803932 80095.40845476871 183809.32783675936 80283.78271501928 182190.9371754794 80472.15697526984 180578.84005835291 79913.3078194958 179669.52204080252 78848.67874419726 178554.8884483021 79373.43787724862 177217.42079544193 79524.60433944782 175958.82482792804 79268.07802369614 174700.22886041418 79011.55170794445 173626.52259399564 78368.94114603876 172979.9125217315 77485.2063288721 171840.89688251136 77589.26841602124 170739.6261762029 77128.53984777536 170222.65708934795 76331.67855375446 169705.68800249303 75534.81725973355 169883.07089120804 74571.45595379274 170666.77126647052 73919.70738359842 169650.739826225 73452.82588173957 169132.29933641184 72526.37795203179 169381.79617377993 71623.46984478598 169631.293011148 70720.56173754018 170592.19027254617 70045.79575854992 171763.4177326521 69951.03589444012 Z"></path><path stroke="#000" stroke-opacity="0" stroke-width="3882.8025477707006" stroke-linecap="round" stroke-linejoin="round" stroke-miterlimit="10" pointer-events="visiblePainted" d="M 170667.05886325962 73919.61818631896 C 171146.52718510295 74139.94098473736 171700.42553044856 74239.88461412447 172254.38398562177 74206.03000733143 M 172979.95063040135 77485.19690557095 C 173218.17313460013 77463.43255911316 173451.67647648486 77417.34386046362 173674.4388152635 77348.11939563285 M 179669.22714468968 78848.61211025166 C 179501.67689954047 78652.44436792562 179361.3952558542 78442.82213968648 179250.77244060067 78223.31713092799 M 187236.41245490476 77967.81857660052 C 187322.85591793203 77744.36272795539 187378.86380517588 77514.37832720276 187403.5017330581 77281.7022205065 M 192780.83574281324 75592.44311457113 C 192792.04288669888 74502.91141671542 191999.4111223002 73505.32499026004 190743.39912349885 73028.17656926921 M 195546.78108558315 70294.3855598511 C 195343.37383433606 70665.39170194924 195032.8502823747 70994.50600024784 194639.5572222316 71255.92404316671 M 193353.57567106237 66742.46255429913 C 193388.23369753134 66892.28318995198 193404.2734569885 67044.355591107 193401.47262818553 67196.57193774648 M 188036.61911614562 65630.24060952137 C 187846.60820133623 65804.79920067478 187690.0642264604 65999.86613501629 187571.86148433102 66209.36763451104 M 183413.9687324543 65971.99281290865 C 183312.70919275095 66130.5430428883 183237.09524731603 66298.31635890472 183188.86871000365 66471.44799918006 M 178118.31760156428 66608.06158262001 C 178413.96608375284 66743.24715238671 178687.48110309517 66905.95747509279 178932.85423043795 67092.6182188831 M 171786.22025478364 69902.6821931927 C 171816.3025442629 70075.27822780958 171863.8340726577 70245.74636862059 171928.3699734372 70412.4911363097"></path></g><g></g></g></g></g></g><g id="editor-gb98267064_0_389"><g></g><g id="editor-gb98267064_0_385"><g></g><g id="editor-gb98267064_0_379"><g><g></g><g><path fill="#FFFFFF" fill-opacity="1" stroke="#666666" stroke-opacity="1" stroke-width="762" stroke-linecap="butt" stroke-linejoin="round" stroke-miterlimit="8" d="M 278696.99880415 99239.0792699726 C 278696.99880415 92180.82034661529 283703.48248684144 86458.97095534 289879.2930878479 86458.97095534 292845.021926123 86458.97095534 295689.28223236935 87805.44278689749 297786.3692050742 90202.1780163973 299883.4561777791 92598.91324589711 301061.5873715458 95849.58380299657 301061.5873715458 99239.0792699726 301061.5873715458 106297.3381933299 296055.10368885426 112019.1875846052 289879.2930878479 112019.1875846052 283703.48248684144 112019.1875846052 278696.99880415 106297.33819332991 278696.99880415 99239.0792699726 Z"></path></g><g><path fill="#000" fill-opacity="0" stroke="#000" stroke-opacity="0" stroke-width="3882.8025477707006" stroke-linecap="round" stroke-linejoin="round" stroke-miterlimit="10" pointer-events="visiblePainted" d="M 278696.99880415 99239.0792699726 C 278696.99880415 92180.82034661529 283703.48248684144 86458.97095534 289879.2930878479 86458.97095534 292845.021926123 86458.97095534 295689.28223236935 87805.44278689749 297786.3692050742 90202.1780163973 299883.4561777791 92598.91324589711 301061.5873715458 95849.58380299657 301061.5873715458 99239.0792699726 301061.5873715458 106297.3381933299 296055.10368885426 112019.1875846052 289879.2930878479 112019.1875846052 283703.48248684144 112019.1875846052 278696.99880415 106297.33819332991 278696.99880415 99239.0792699726 Z"></path></g><g></g></g></g><g id="editor-gb98267064_0_380"><g><g></g><g><path stroke="#666666" stroke-opacity="1" stroke-width="762" stroke-linecap="butt" stroke-linejoin="round" stroke-miterlimit="8" d="M 289879.29269275 112019.1866815 L 289879.29269275 167720.70784913684"></path></g><g><path stroke="#000" stroke-opacity="0" stroke-width="3882.8025477707006" stroke-linecap="round" stroke-linejoin="round" stroke-miterlimit="10" pointer-events="visiblePainted" d="M 289879.29269275 112019.1866815 L 289879.29269275 167720.70784913684"></path></g></g></g><g id="editor-gb98267064_0_381"><g><g></g><g><path stroke="#666666" stroke-opacity="1" stroke-width="762" stroke-linecap="butt" stroke-linejoin="round" stroke-miterlimit="8" d="M 289827.35888115 167720.70809614 L 302001.11673954077 219658.6155763851"></path></g><g><path stroke="#000" stroke-opacity="0" stroke-width="3882.8025477707006" stroke-linecap="round" stroke-linejoin="round" stroke-miterlimit="10" pointer-events="visiblePainted" d="M 289827.35888115 167720.70809614 L 302001.11673954077 219658.6155763851"></path></g></g></g><g id="editor-gb98267064_0_382"><g><g></g><g><path stroke="#666666" stroke-opacity="1" stroke-width="762" stroke-linecap="butt" stroke-linejoin="round" stroke-miterlimit="8" d="M 290002.04533835 168120.67663967 L 277757.4685024408 220349.95615041914"></path></g><g><path stroke="#000" stroke-opacity="0" stroke-width="3882.8025477707006" stroke-linecap="round" stroke-linejoin="round" stroke-miterlimit="10" pointer-events="visiblePainted" d="M 290002.04533835 168120.67663967 L 277757.4685024408 220349.95615041914"></path></g></g></g><g id="editor-gb98267064_0_383"><g><g></g><g><path stroke="#666666" stroke-opacity="1" stroke-width="762" stroke-linecap="butt" stroke-linejoin="round" stroke-miterlimit="8" d="M 289877.5222219 116010.10383507 L 316080.4911395905 159336.2086402718"></path></g><g><path stroke="#000" stroke-opacity="0" stroke-width="3882.8025477707006" stroke-linecap="round" stroke-linejoin="round" stroke-miterlimit="10" pointer-events="visiblePainted" d="M 289877.5222219 116010.10383507 L 316080.4911395905 159336.2086402718"></path></g></g></g><g id="editor-gb98267064_0_384"><g><g></g><g><path stroke="#666666" stroke-opacity="1" stroke-width="762" stroke-linecap="butt" stroke-linejoin="round" stroke-miterlimit="8" d="M 290052.20867910003 116209.75086523 L 264019.205729567 157342.4341179533"></path></g><g><path stroke="#000" stroke-opacity="0" stroke-width="3882.8025477707006" stroke-linecap="round" stroke-linejoin="round" stroke-miterlimit="10" pointer-events="visiblePainted" d="M 290052.20867910003 116209.75086523 L 264019.205729567 157342.4341179533"></path></g></g></g></g><g id="editor-gb98267064_0_388"><g></g><g id="editor-gb98267064_0_386"><g><g></g><g><path fill="#FFFFFF" fill-opacity="1" stroke="#666666" stroke-opacity="1" stroke-width="762" stroke-linecap="butt" stroke-linejoin="round" stroke-miterlimit="8" d="M 299323.96061183437 72213.60657330882 L 299323.96061183437 92132.05254321086 C 299323.96061183437 89931.92175330975 295170.8588805184 88148.36334923045 290047.748265379 88148.36334923045 284924.6376502396 88148.36334923045 280771.5359189236 89931.92175330975 280771.5359189236 92132.05254321086 L 280771.5359189236 72213.60657330882 C 280771.5359189236 70013.47578340772 284924.6376502396 68229.91737932841 290047.748265379 68229.91737932841 295170.8588805184 68229.91737932841 299323.96061183437 70013.47578340772 299323.96061183437 72213.60657330882 Z"></path></g><g><path fill="#000" fill-opacity="0" stroke="#000" stroke-opacity="0" stroke-width="3882.8025477707006" stroke-linecap="round" stroke-linejoin="round" stroke-miterlimit="10" pointer-events="visiblePainted" d="M 299323.96061183437 72213.60657330882 L 299323.96061183437 92132.05254321086 C 299323.96061183437 89931.92175330975 295170.8588805184 88148.36334923045 290047.748265379 88148.36334923045 284924.6376502396 88148.36334923045 280771.5359189236 89931.92175330975 280771.5359189236 92132.05254321086 L 280771.5359189236 72213.60657330882 C 280771.5359189236 70013.47578340772 284924.6376502396 68229.91737932841 290047.748265379 68229.91737932841 295170.8588805184 68229.91737932841 299323.96061183437 70013.47578340772 299323.96061183437 72213.60657330882 Z"></path></g><g></g></g></g><g id="editor-gb98267064_0_387"><g><g></g><g><path fill="#FFFFFF" fill-opacity="1" stroke="#666666" stroke-opacity="1" stroke-width="762" stroke-linecap="butt" stroke-linejoin="round" stroke-miterlimit="8" d="M 278956.2124547836 69902.6821931927 C 278737.9495787887 68650.40693247024 279454.5500057628 67410.73035073666 280801.93375588267 66709.69292434576 282149.31750600255 66008.65549795485 283891.1826226037 65969.2040232714 285288.3915199786 66608.07921544733 285783.32544945844 65879.95443488806 286689.1992190285 65377.23447961784 287732.0035398148 65251.982409715965 288774.80786060105 65126.730339814094 289832.0612816016 65393.6575013661 290583.9650982072 65972.02359238405 291005.58531380165 65311.85880847908 291833.44385461544 64868.3124507102 292773.7735359059 64798.7777914794 293714.10321719636 64729.2431322486 294633.8242682505 65043.56103555407 295206.5719170734 65630.19519293726 295968.2903594656 64930.42224414145 297180.2035723244 64635.788728660686 298317.90983271104 64873.7842402334 299455.61609309766 65111.77975180611 300314.77320783096 65839.65817353435 300523.61901897687 66742.46238275101 301456.85326734284 66941.20087787561 302234.2178343031 67446.42046013981 302654.8666038254 68127.58856457483 303075.5153733478 68808.75666900986 303098.1836446024 69599.05223234183 302717.0146620435 70294.28818307434 303635.978111801 71228.06605331427 303850.9467316114 72472.31371544907 303281.6980625189 73562.70010993014 302712.4493934264 74653.08650441121 301444.50655751955 75425.7935078033 299951.04323103686 75592.46063326404 299940.51667487464 76615.8272220264 299221.6413089472 77554.85610254445 298071.503153243 78047.60445762152 296921.3649975388 78540.35281269858 295519.5619420233 78509.87635141029 294406.4102193434 77967.9220354164 293932.26658683777 79193.58056494339 292597.7106980393 80095.40845476871 290979.3200367593 80283.78271501928 289360.9293754794 80472.15697526984 287748.8322583529 79913.3078194958 286839.5142408025 78848.67874419726 285724.8806483021 79373.43787724862 284387.41299544193 79524.60433944782 283128.817027928 79268.07802369614 281870.22106041416 79011.55170794445 280796.51479399565 78368.94114603876 280149.90472173144 77485.2063288721 279010.8890825113 77589.26841602124 277909.6183762029 77128.53984777536 277392.64928934793 76331.67855375446 276875.680202493 75534.81725973355 277053.063091208 74571.45595379274 277836.7634664705 73919.70738359842 276820.732026225 73452.82588173957 276302.29153641185 72526.37795203179 276551.7883737799 71623.46984478598 276801.285211148 70720.56173754018 277762.1824725461 70045.79575854992 278933.4099326521 69951.03589444012 Z"></path><path stroke="#666666" stroke-opacity="1" stroke-width="762" stroke-linecap="butt" stroke-linejoin="round" stroke-miterlimit="8" d="M 277837.0510632596 73919.61818631896 C 278316.51938510296 74139.94098473736 278870.41773044853 74239.88461412447 279424.3761856217 74206.03000733143 M 280149.94283040136 77485.19690557095 C 280388.1653346001 77463.43255911316 280621.66867648484 77417.34386046362 280844.4310152635 77348.11939563285 M 286839.2193446897 78848.61211025166 C 286671.66909954045 78652.44436792562 286531.3874558542 78442.82213968648 286420.76464060065 78223.31713092799 M 294406.40465490473 77967.81857660052 C 294492.848117932 77744.36272795539 294548.85600517585 77514.37832720276 294573.49393305805 77281.7022205065 M 299950.8279428132 75592.44311457113 C 299962.0350866989 74502.91141671542 299169.4033223002 73505.32499026004 297913.3913234988 73028.17656926921 M 302716.7732855831 70294.3855598511 C 302513.36603433604 70665.39170194924 302202.8424823747 70994.50600024784 301809.54942223156 71255.92404316671 M 300523.5678710624 66742.46255429913 C 300558.2258975313 66892.28318995198 300574.2656569885 67044.355591107 300571.4648281855 67196.57193774648 M 295206.6113161456 65630.24060952137 C 295016.6004013362 65804.79920067478 294860.0564264604 65999.86613501629 294741.853684331 66209.36763451104 M 290583.96093245427 65971.99281290865 C 290482.7013927509 66130.5430428883 290407.087447316 66298.31635890472 290358.8609100036 66471.44799918006 M 285288.30980156426 66608.06158262001 C 285583.95828375284 66743.24715238671 285857.47330309515 66905.95747509279 286102.84643043793 67092.6182188831 M 278956.2124547836 69902.6821931927 C 278986.2947442629 70075.27822780958 279033.82627265766 70245.74636862059 279098.36217343714 70412.4911363097"></path></g><g><path fill="#000" fill-opacity="0" stroke="#000" stroke-opacity="0" stroke-width="3882.8025477707006" stroke-linecap="round" stroke-linejoin="round" stroke-miterlimit="10" pointer-events="visiblePainted" d="M 278956.2124547836 69902.6821931927 C 278737.9495787887 68650.40693247024 279454.5500057628 67410.73035073666 280801.93375588267 66709.69292434576 282149.31750600255 66008.65549795485 283891.1826226037 65969.2040232714 285288.3915199786 66608.07921544733 285783.32544945844 65879.95443488806 286689.1992190285 65377.23447961784 287732.0035398148 65251.982409715965 288774.80786060105 65126.730339814094 289832.0612816016 65393.6575013661 290583.9650982072 65972.02359238405 291005.58531380165 65311.85880847908 291833.44385461544 64868.3124507102 292773.7735359059 64798.7777914794 293714.10321719636 64729.2431322486 294633.8242682505 65043.56103555407 295206.5719170734 65630.19519293726 295968.2903594656 64930.42224414145 297180.2035723244 64635.788728660686 298317.90983271104 64873.7842402334 299455.61609309766 65111.77975180611 300314.77320783096 65839.65817353435 300523.61901897687 66742.46238275101 301456.85326734284 66941.20087787561 302234.2178343031 67446.42046013981 302654.8666038254 68127.58856457483 303075.5153733478 68808.75666900986 303098.1836446024 69599.05223234183 302717.0146620435 70294.28818307434 303635.978111801 71228.06605331427 303850.9467316114 72472.31371544907 303281.6980625189 73562.70010993014 302712.4493934264 74653.08650441121 301444.50655751955 75425.7935078033 299951.04323103686 75592.46063326404 299940.51667487464 76615.8272220264 299221.6413089472 77554.85610254445 298071.503153243 78047.60445762152 296921.3649975388 78540.35281269858 295519.5619420233 78509.87635141029 294406.4102193434 77967.9220354164 293932.26658683777 79193.58056494339 292597.7106980393 80095.40845476871 290979.3200367593 80283.78271501928 289360.9293754794 80472.15697526984 287748.8322583529 79913.3078194958 286839.5142408025 78848.67874419726 285724.8806483021 79373.43787724862 284387.41299544193 79524.60433944782 283128.817027928 79268.07802369614 281870.22106041416 79011.55170794445 280796.51479399565 78368.94114603876 280149.90472173144 77485.2063288721 279010.8890825113 77589.26841602124 277909.6183762029 77128.53984777536 277392.64928934793 76331.67855375446 276875.680202493 75534.81725973355 277053.063091208 74571.45595379274 277836.7634664705 73919.70738359842 276820.732026225 73452.82588173957 276302.29153641185 72526.37795203179 276551.7883737799 71623.46984478598 276801.285211148 70720.56173754018 277762.1824725461 70045.79575854992 278933.4099326521 69951.03589444012 Z"></path><path stroke="#000" stroke-opacity="0" stroke-width="3882.8025477707006" stroke-linecap="round" stroke-linejoin="round" stroke-miterlimit="10" pointer-events="visiblePainted" d="M 277837.0510632596 73919.61818631896 C 278316.51938510296 74139.94098473736 278870.41773044853 74239.88461412447 279424.3761856217 74206.03000733143 M 280149.94283040136 77485.19690557095 C 280388.1653346001 77463.43255911316 280621.66867648484 77417.34386046362 280844.4310152635 77348.11939563285 M 286839.2193446897 78848.61211025166 C 286671.66909954045 78652.44436792562 286531.3874558542 78442.82213968648 286420.76464060065 78223.31713092799 M 294406.40465490473 77967.81857660052 C 294492.848117932 77744.36272795539 294548.85600517585 77514.37832720276 294573.49393305805 77281.7022205065 M 299950.8279428132 75592.44311457113 C 299962.0350866989 74502.91141671542 299169.4033223002 73505.32499026004 297913.3913234988 73028.17656926921 M 302716.7732855831 70294.3855598511 C 302513.36603433604 70665.39170194924 302202.8424823747 70994.50600024784 301809.54942223156 71255.92404316671 M 300523.5678710624 66742.46255429913 C 300558.2258975313 66892.28318995198 300574.2656569885 67044.355591107 300571.4648281855 67196.57193774648 M 295206.6113161456 65630.24060952137 C 295016.6004013362 65804.79920067478 294860.0564264604 65999.86613501629 294741.853684331 66209.36763451104 M 290583.96093245427 65971.99281290865 C 290482.7013927509 66130.5430428883 290407.087447316 66298.31635890472 290358.8609100036 66471.44799918006 M 285288.30980156426 66608.06158262001 C 285583.95828375284 66743.24715238671 285857.47330309515 66905.95747509279 286102.84643043793 67092.6182188831 M 278956.2124547836 69902.6821931927 C 278986.2947442629 70075.27822780958 279033.82627265766 70245.74636862059 279098.36217343714 70412.4911363097"></path></g><g></g></g></g></g></g><g id="editor-gb98267064_0_390"><g><g></g><g><path d="M 18288 10985.51953125 L 347472.0076446533 10985.51953125 347472.0076446533 56717.51940536499 18288 56717.51940536499 Z"></path></g><g></g><g><path fill="#000" fill-opacity="0" stroke="#000" stroke-opacity="0" stroke-width="3882.8025477707006" stroke-linecap="round" stroke-linejoin="round" stroke-miterlimit="10" pointer-events="visiblePainted" d="M 18288 10985.51953125 L 347472.0076446533 10985.51953125 347472.0076446533 56717.51940536499 18288 56717.51940536499 Z"></path></g><g><g direction="ltr" style="opacity: 1;"><g transform="matrix(381,0,0,380.9999999999995,21945,30962.519405365016)"><g pointer-events="none"><g id="editor-gb98267064_0_390-paragraph-0"><g><g class="sketchy-text-background" visibility="visible"></g><g class="sketchy-text-content" visibility="visible"><g class="sketchy-text-content-text" transform="translate(0 46.08)"><text x="242.35470983550306px" style="font-family:Arial;font-size:48px;fill:#000000;font-weight:700;" y="0px" text-rendering="geometricPrecision">Leader-Election</text></g></g></g></g></g><rect style="opacity: 0;"></rect><rect style="opacity: 1;"></rect></g><g><path d="M 114282.14444732666 30962.519405365016 L 251477.86319732666 30962.519405365016 251477.86319732666 52908.11940536498 114282.14444732666 52908.11940536498 Z" pointer-events="visiblePainted" fill="#000000" stroke="#000000" opacity="0"></path></g><g transform="matrix(381,0,0,380.9999999999995,21945,30962.519405365016)"></g></g></g></g></g></g></g></svg>