<svg xmlns="http://www.w3.org/2000/svg" xmlns:xlink="http://www.w3.org/1999/xlink" version="1.1" fill-rule="evenodd" fill="none" stroke="none" stroke-linecap="square" stroke-miterlimit="10" overflow="hidden" viewBox="6858 13335 358140 268605"><rect fill="#ffffff" fill-opacity="0" width="100%" height="100%"></rect><g transform="translate(6858 13335) scale(0.98125)"><defs cursor="default"><radialGradient gradientUnits="userSpaceOnUse" gradientTransform="matrix(478.1213235152768,0,0,478.1213235152768,0,0)" cx="382.4970588122215" cy="286.87279410916614" r="478.12132351527686" id="gradient-12643"><stop offset="0%" stop-color="#FFFFFF" stop-opacity="1"></stop><stop offset="30%" stop-color="#FFFFFF" stop-opacity="1"></stop><stop offset="100%" stop-color="#CCCCCC" stop-opacity="1"></stop></radialGradient></defs><g id="editor-gb98267064_0_391"><g></g><path fill="#fff" fill-opacity="1" d="M 0 0 L 365760 0 365760 274320 0 274320 Z"></path><g id="editor-gb98267064_0_391-bg"><g><g></g><g><g><path fill="url(#gradient-12643)" d="M 0 0 L 365760 0 365760 274320 0 274320 Z"></path></g><g></g></g><g></g></g></g><g id="editor-gb9563dfae_0_1"></g><g id="editor-gb9563dfae_0_2"></g><g id="editor-gb9563dfae_0_3"></g><g id="editor-gb9563dfae_0_5"></g><g id="editor-gb9563dfae_0_6"></g><g id="editor-gb9563dfae_0_7"></g><g id="editor-gb98267064_0_464"><g><g></g><g><path d="M 27432 151469.515625 L 338328.00563049316 151469.515625 338328.00563049316 193325.5160484314 27432 193325.5160484314 Z"></path></g><g></g><g><path fill="#000" fill-opacity="0" stroke="#000" stroke-opacity="0" stroke-width="3882.8025477707006" stroke-linecap="round" stroke-linejoin="round" stroke-miterlimit="10" pointer-events="visiblePainted" d="M 27432 151469.515625 L 338328.00563049316 151469.515625 338328.00563049316 193325.5160484314 27432 193325.5160484314 Z"></path></g><g><g direction="ltr" style="opacity: 1;"><g transform="matrix(381,0,0,381.0000000000005,31089,155126.515625)"><g pointer-events="none"><g id="editor-gb98267064_0_464-paragraph-0"><g><g class="sketchy-text-background" visibility="visible"></g><g class="sketchy-text-content" visibility="visible"><g class="sketchy-text-content-text" transform="translate(0 38.4)"><text x="194.93478531724827px" style="font-family:Arial;font-size:40px;fill:#666666;" y="0px" text-rendering="geometricPrecision">or</text><text x="241.61447281724827px" style="font-family:Arial;font-size:40px;fill:#666666;" y="0px" text-rendering="geometricPrecision">just</text><text x="314.97384781724827px" style="font-family:Arial;font-size:40px;fill:#666666;" y="0px" text-rendering="geometricPrecision">not</text><text x="381.69259781724827px" style="font-family:Arial;font-size:40px;fill:#666666;" y="0px" text-rendering="geometricPrecision">responding?</text></g></g></g></g></g><rect style="opacity: 0;"></rect><rect style="opacity: 1;"></rect></g><g><path d="M 105359.1532058716 155126.515625 L 260400.85242462158 155126.515625 260400.85242462158 173414.51562500003 105359.1532058716 173414.51562500003 Z" pointer-events="visiblePainted" fill="#000000" stroke="#000000" opacity="0"></path></g><g transform="matrix(381,0,0,381.0000000000005,31089,155126.515625)"></g></g></g></g></g><g id="editor-gb98267064_0_465"><g><g></g><g><path d="M 27432 84444.921875 L 338328.00563049316 84444.921875 338328.00563049316 146304.92296218872 27432 146304.92296218872 Z"></path></g><g></g><g><path fill="#000" fill-opacity="0" stroke="#000" stroke-opacity="0" stroke-width="3882.8025477707006" stroke-linecap="round" stroke-linejoin="round" stroke-miterlimit="10" pointer-events="visiblePainted" d="M 27432 84444.921875 L 338328.00563049316 84444.921875 338328.00563049316 146304.92296218872 27432 146304.92296218872 Z"></path></g><g><g direction="ltr" style="opacity: 1;"><g transform="matrix(380.99999999999994,0,0,381,31089,113310.92296218872)"><g pointer-events="none"><g id="editor-gb98267064_0_465-paragraph-0"><g><g class="sketchy-text-background" visibility="visible"></g><g class="sketchy-text-content" visibility="visible"><g class="sketchy-text-content-text" transform="translate(0 61.44)"><text x="300.60470719224827px" style="font-family:Arial;font-size:64px;fill:#000000;font-weight:700;" y="0px" text-rendering="geometricPrecision">Dead?</text></g></g></g></g></g><rect style="opacity: 0;"></rect><rect style="opacity: 1;"></rect></g><g><path d="M 145619.39344024658 113310.92296218872 L 220140.61219024655 113310.92296218872 220140.61219024655 142571.7229621887 145619.39344024658 142571.7229621887 Z" pointer-events="visiblePainted" fill="#000000" stroke="#000000" opacity="0"></path></g><g transform="matrix(380.99999999999994,0,0,381,31089,113310.92296218872)"></g></g></g></g></g><g id="editor-gb98267064_0_470"><g><g></g><g><path stroke="#666666" stroke-opacity="1" stroke-width="762" stroke-linecap="butt" stroke-linejoin="round" stroke-miterlimit="8" d="M 68285.2681 50933.4938 L 64805.2681 38177.4938"></path></g><g><path stroke="#000" stroke-opacity="0" stroke-width="3882.8025477707006" stroke-linecap="round" stroke-linejoin="round" stroke-miterlimit="10" pointer-events="visiblePainted" d="M 68285.2681 50933.4938 L 64805.2681 38177.4938"></path></g></g></g><g id="editor-gb98267064_0_471"><g></g><g id="editor-gb98267064_0_428"><g><g></g><g><path fill="#FFFFFF" fill-opacity="1" stroke="#666666" stroke-opacity="1" stroke-width="762" stroke-linecap="butt" stroke-linejoin="round" stroke-miterlimit="8" d="M 42105.05078125 42423.85647583008 C 42105.05078125 37122.97079933925 45865.20522735547 32825.75390625 50503.590801239014 32825.75390625 52731.02210511743 32825.75390625 54867.223621840225 33836.97966648415 56442.25540143985 35636.97306235597 58017.28718103947 37436.9664582278 58902.13082122803 39878.28140320614 58902.13082122803 42423.85647583008 58902.13082122803 47724.742152320905 55141.976375122555 52021.959045410156 50503.590801239014 52021.959045410156 45865.20522735547 52021.959045410156 42105.05078125 47724.742152320905 42105.05078125 42423.85647583008 Z"></path></g><g><path fill="#000" fill-opacity="0" stroke="#000" stroke-opacity="0" stroke-width="3882.8025477707006" stroke-linecap="round" stroke-linejoin="round" stroke-miterlimit="10" pointer-events="visiblePainted" d="M 42105.05078125 42423.85647583008 C 42105.05078125 37122.97079933925 45865.20522735547 32825.75390625 50503.590801239014 32825.75390625 52731.02210511743 32825.75390625 54867.223621840225 33836.97966648415 56442.25540143985 35636.97306235597 58017.28718103947 37436.9664582278 58902.13082122803 39878.28140320614 58902.13082122803 42423.85647583008 58902.13082122803 47724.742152320905 55141.976375122555 52021.959045410156 50503.590801239014 52021.959045410156 45865.20522735547 52021.959045410156 42105.05078125 47724.742152320905 42105.05078125 42423.85647583008 Z"></path></g><g></g></g></g><g id="editor-gb98267064_0_429"><g><g></g><g><path stroke="#666666" stroke-opacity="1" stroke-width="762" stroke-linecap="butt" stroke-linejoin="round" stroke-miterlimit="8" d="M 50503.58984375 52021.95703125 L 50503.58984375 93854.85111808777"></path></g><g><path stroke="#000" stroke-opacity="0" stroke-width="3882.8025477707006" stroke-linecap="round" stroke-linejoin="round" stroke-miterlimit="10" pointer-events="visiblePainted" d="M 50503.58984375 52021.95703125 L 50503.58984375 93854.85111808777"></path></g></g></g><g id="editor-gb98267064_0_430"><g><g></g><g><path stroke="#666666" stroke-opacity="1" stroke-width="762" stroke-linecap="butt" stroke-linejoin="round" stroke-miterlimit="8" d="M 50464.5859375 93854.8515625 L 59607.77155303955 132861.1980266571"></path></g><g><path stroke="#000" stroke-opacity="0" stroke-width="3882.8025477707006" stroke-linecap="round" stroke-linejoin="round" stroke-miterlimit="10" pointer-events="visiblePainted" d="M 50464.5859375 93854.8515625 L 59607.77155303955 132861.1980266571"></path></g></g></g><g id="editor-gb98267064_0_431"><g><g></g><g><path stroke="#666666" stroke-opacity="1" stroke-width="762" stroke-linecap="butt" stroke-linejoin="round" stroke-miterlimit="8" d="M 50595.78515625 94155.234375 L 41399.41044187546 133380.4097557068"></path></g><g><path stroke="#000" stroke-opacity="0" stroke-width="3882.8025477707006" stroke-linecap="round" stroke-linejoin="round" stroke-miterlimit="10" pointer-events="visiblePainted" d="M 50595.78515625 94155.234375 L 41399.41044187546 133380.4097557068"></path></g></g></g><g id="editor-gb98267064_0_433"><g><g></g><g><path stroke="#666666" stroke-opacity="1" stroke-width="762" stroke-linecap="butt" stroke-linejoin="round" stroke-miterlimit="8" d="M 50633.4609375 55169.1484375 L 31081.192551612854 86060.57166290283"></path></g><g><path stroke="#000" stroke-opacity="0" stroke-width="3882.8025477707006" stroke-linecap="round" stroke-linejoin="round" stroke-miterlimit="10" pointer-events="visiblePainted" d="M 50633.4609375 55169.1484375 L 31081.192551612854 86060.57166290283"></path></g></g></g><g id="editor-gb98267064_0_437"><g></g><g id="editor-gb98267064_0_435"><g><g></g><g><path fill="#FFFFFF" fill-opacity="1" stroke="#666666" stroke-opacity="1" stroke-width="762" stroke-linecap="butt" stroke-linejoin="round" stroke-miterlimit="8" d="M 57598.82445 22126.603854858397 L 57598.82445 37085.36416918945 C 57598.82445 35433.065129593626 54479.5157552679 34093.61210632324 50631.653477929685 34093.61210632324 46783.79120059147 34093.61210632324 43664.48250585937 35433.06512959363 43664.48250585937 37085.36416918946 L 43664.48250585937 22126.603854858397 C 43664.48250585937 20474.304815262574 46783.79120059147 19134.851791992187 50631.653477929685 19134.851791992187 54479.5157552679 19134.851791992187 57598.82444999999 20474.304815262567 57598.82445 22126.603854858393 Z"></path></g><g><path fill="#000" fill-opacity="0" stroke="#000" stroke-opacity="0" stroke-width="3882.8025477707006" stroke-linecap="round" stroke-linejoin="round" stroke-miterlimit="10" pointer-events="visiblePainted" d="M 57598.82445 22126.603854858397 L 57598.82445 37085.36416918945 C 57598.82445 35433.065129593626 54479.5157552679 34093.61210632324 50631.653477929685 34093.61210632324 46783.79120059147 34093.61210632324 43664.48250585937 35433.06512959363 43664.48250585937 37085.36416918946 L 43664.48250585937 22126.603854858397 C 43664.48250585937 20474.304815262574 46783.79120059147 19134.851791992187 50631.653477929685 19134.851791992187 54479.5157552679 19134.851791992187 57598.82444999999 20474.304815262567 57598.82445 22126.603854858393 Z"></path></g><g></g></g></g><g id="editor-gb98267064_0_436"><g><g></g><g><path fill="#FFFFFF" fill-opacity="1" stroke="#666666" stroke-opacity="1" stroke-width="762" stroke-linecap="butt" stroke-linejoin="round" stroke-miterlimit="8" d="M 42301.030649444394 20391.098787900035 C 42137.09792376749 19450.63960242846 42675.321662823524 18519.642029552393 43687.313691624106 17993.162662206018 44699.30572042469 17466.683294859642 46007.58453341275 17437.055222733507 47056.99919837868 17916.850729118538 47428.73382214273 17370.02874874068 48109.11684874736 16992.48587579358 48892.34557637645 16898.421524821268 49675.574304005546 16804.357173848955 50469.65545154758 17004.819571220447 51034.394835380794 17439.17272018334 51351.06504705941 16943.38872251009 51972.852451133054 16610.285243243437 52679.11459940809 16558.06468835959 53385.37674768313 16505.84413347574 54076.16018061682 16741.89699548889 54506.33907736505 17182.459465360014 55078.45002335405 16656.929721156757 55988.69293737326 16435.659841704044 56843.20054630453 16614.39455920572 57697.7081552358 16793.129276707394 58343.003269949855 17339.76624151173 58499.86303325725 18017.77253762778 59200.795948817526 18167.025221210228 59784.65837491982 18546.445314957324 60100.59895357346 19058.002814142128 60416.5395322271 19569.560313326932 60433.56520127968 20163.07257463616 60147.2770729411 20685.19503161039 60837.491487231746 21386.462558648003 60998.949965316395 22320.893014601534 60571.39907977566 23139.77360145538 60143.84819423494 23958.65418830923 59191.522590784225 24538.957434577198 58069.81321765874 24664.12450764167 58061.906939342734 25432.673195532414 57521.97454075546 26137.884233237335 56658.12959273046 26507.93843073932 55794.28464470546 26877.992628241307 54741.41940271054 26855.104794505205 53905.354198497196 26448.09690209634 53549.23473619883 27368.566912563718 52546.877448356536 28045.839992454614 51331.33774145795 28187.309131800903 50115.798034559375 28328.778271147192 48904.985278327695 27909.08234779443 48222.0153483995 27109.54551720417 47384.83714245528 27503.63982084277 46380.292888932316 27617.165890046155 45434.98752474688 27424.51453173004 44489.682160561446 27231.863173413927 43683.243621583875 26749.2624029758 43197.588188367255 26085.577227365175 42342.09713211292 26163.727893427436 41514.955513226254 25817.720567716933 41126.67073913203 25219.277440224032 40738.385965037814 24620.83431273114 40871.61457894179 23897.34961450494 41460.23569943779 23407.886196451305 40697.11552788477 23057.25801531435 40307.725613503135 22361.49527633622 40495.11752067507 21683.410952761715 40682.509427847006 21005.326629187213 41404.21945956199 20498.577128587003 42283.90414733866 20427.412435478964 Z"></path><path stroke="#666666" stroke-opacity="1" stroke-width="762" stroke-linecap="butt" stroke-linejoin="round" stroke-miterlimit="8" d="M 41460.4517074296 23407.81920926133 C 41820.57043360891 23573.28171262648 42236.59200890675 23648.33941538127 42652.65873145116 23622.914593117603 M 43197.61681099992 26085.57015046251 C 43376.5408000332 26069.225118196846 43551.92032399186 26034.612488409373 43719.23250297643 25982.624889635048 M 48221.793858036806 27109.495475086303 C 48095.9503390694 26962.173427809485 47990.58770189576 26804.747056619504 47907.50119648845 26639.898713592396 M 53905.350019162564 26448.019204487224 C 53970.27591389578 26280.203779239244 54012.34227801491 26107.48540893606 54030.84731536655 25932.745566470418 M 58069.65151913281 24664.1113510968 C 58078.06897279208 23845.872641725746 57482.739670895535 23096.684865293526 56539.375072093026 22738.34622407882 M 60147.0957800809 20685.26816160587 C 59994.32080647447 20963.89391198704 59761.09299790712 21211.058872130372 59465.69872599906 21407.383919364172 M 58499.82461711798 18017.77266646049 C 58525.85554299001 18130.288019428197 58537.90267411586 18244.494449123573 58535.79902961044 18358.808981931186 M 54506.368669192176 17182.493573231535 C 54363.6554064301 17313.58713995943 54246.07846911214 17460.082480031393 54157.298837617636 17617.418183889542 M 51034.39170657006 17439.149604785893 C 50958.337763503965 17558.220886332223 50901.54569514223 17684.218708914483 50865.32374179565 17814.240635003458 M 47056.93782137018 17916.83748685867 C 47278.99327311152 18018.361899915402 47484.42473931931 18140.557412642924 47668.719413298175 18280.739700491744 M 42301.030649444394 20391.098787900035 C 42323.62483403241 20520.718473940768 42359.324780575436 20648.740110943705 42407.79635903592 20773.965493350515"></path></g><g><path fill="#000" fill-opacity="0" stroke="#000" stroke-opacity="0" stroke-width="3882.8025477707006" stroke-linecap="round" stroke-linejoin="round" stroke-miterlimit="10" pointer-events="visiblePainted" d="M 42301.030649444394 20391.098787900035 C 42137.09792376749 19450.63960242846 42675.321662823524 18519.642029552393 43687.313691624106 17993.162662206018 44699.30572042469 17466.683294859642 46007.58453341275 17437.055222733507 47056.99919837868 17916.850729118538 47428.73382214273 17370.02874874068 48109.11684874736 16992.48587579358 48892.34557637645 16898.421524821268 49675.574304005546 16804.357173848955 50469.65545154758 17004.819571220447 51034.394835380794 17439.17272018334 51351.06504705941 16943.38872251009 51972.852451133054 16610.285243243437 52679.11459940809 16558.06468835959 53385.37674768313 16505.84413347574 54076.16018061682 16741.89699548889 54506.33907736505 17182.459465360014 55078.45002335405 16656.929721156757 55988.69293737326 16435.659841704044 56843.20054630453 16614.39455920572 57697.7081552358 16793.129276707394 58343.003269949855 17339.76624151173 58499.86303325725 18017.77253762778 59200.795948817526 18167.025221210228 59784.65837491982 18546.445314957324 60100.59895357346 19058.002814142128 60416.5395322271 19569.560313326932 60433.56520127968 20163.07257463616 60147.2770729411 20685.19503161039 60837.491487231746 21386.462558648003 60998.949965316395 22320.893014601534 60571.39907977566 23139.77360145538 60143.84819423494 23958.65418830923 59191.522590784225 24538.957434577198 58069.81321765874 24664.12450764167 58061.906939342734 25432.673195532414 57521.97454075546 26137.884233237335 56658.12959273046 26507.93843073932 55794.28464470546 26877.992628241307 54741.41940271054 26855.104794505205 53905.354198497196 26448.09690209634 53549.23473619883 27368.566912563718 52546.877448356536 28045.839992454614 51331.33774145795 28187.309131800903 50115.798034559375 28328.778271147192 48904.985278327695 27909.08234779443 48222.0153483995 27109.54551720417 47384.83714245528 27503.63982084277 46380.292888932316 27617.165890046155 45434.98752474688 27424.51453173004 44489.682160561446 27231.863173413927 43683.243621583875 26749.2624029758 43197.588188367255 26085.577227365175 42342.09713211292 26163.727893427436 41514.955513226254 25817.720567716933 41126.67073913203 25219.277440224032 40738.385965037814 24620.83431273114 40871.61457894179 23897.34961450494 41460.23569943779 23407.886196451305 40697.11552788477 23057.25801531435 40307.725613503135 22361.49527633622 40495.11752067507 21683.410952761715 40682.509427847006 21005.326629187213 41404.21945956199 20498.577128587003 42283.90414733866 20427.412435478964 Z"></path><path stroke="#000" stroke-opacity="0" stroke-width="3882.8025477707006" stroke-linecap="round" stroke-linejoin="round" stroke-miterlimit="10" pointer-events="visiblePainted" d="M 41460.4517074296 23407.81920926133 C 41820.57043360891 23573.28171262648 42236.59200890675 23648.33941538127 42652.65873145116 23622.914593117603 M 43197.61681099992 26085.57015046251 C 43376.5408000332 26069.225118196846 43551.92032399186 26034.612488409373 43719.23250297643 25982.624889635048 M 48221.793858036806 27109.495475086303 C 48095.9503390694 26962.173427809485 47990.58770189576 26804.747056619504 47907.50119648845 26639.898713592396 M 53905.350019162564 26448.019204487224 C 53970.27591389578 26280.203779239244 54012.34227801491 26107.48540893606 54030.84731536655 25932.745566470418 M 58069.65151913281 24664.1113510968 C 58078.06897279208 23845.872641725746 57482.739670895535 23096.684865293526 56539.375072093026 22738.34622407882 M 60147.0957800809 20685.26816160587 C 59994.32080647447 20963.89391198704 59761.09299790712 21211.058872130372 59465.69872599906 21407.383919364172 M 58499.82461711798 18017.77266646049 C 58525.85554299001 18130.288019428197 58537.90267411586 18244.494449123573 58535.79902961044 18358.808981931186 M 54506.368669192176 17182.493573231535 C 54363.6554064301 17313.58713995943 54246.07846911214 17460.082480031393 54157.298837617636 17617.418183889542 M 51034.39170657006 17439.149604785893 C 50958.337763503965 17558.220886332223 50901.54569514223 17684.218708914483 50865.32374179565 17814.240635003458 M 47056.93782137018 17916.83748685867 C 47278.99327311152 18018.361899915402 47484.42473931931 18140.557412642924 47668.719413298175 18280.739700491744 M 42301.030649444394 20391.098787900035 C 42323.62483403241 20520.718473940768 42359.324780575436 20648.740110943705 42407.79635903592 20773.965493350515"></path></g><g></g></g></g></g><g id="editor-gb98267064_0_466"><g><g></g><g><path fill="#FFFFFF" fill-opacity="1" d="M 66261.65161132812 33239.44030761719 C 67519.62939157216 33011.066855595695 68907.16926259719 34851.64217514018 69360.80865478516 37350.48034667968 69814.44804697312 39849.31851821918 69162.40295114249 42060.16036145507 67904.42517089844 42288.53381347656 L 58793.34411621094 43942.56066894531 C 57535.36633596689 44170.934120966805 56147.82646494187 42330.35880142231 55694.187072753906 39831.52062988281 55240.54768056594 37332.68245834331 55892.59277639658 35121.84061510743 57150.570556640625 34893.46716308594 Z"></path><path stroke="#666666" stroke-opacity="1" stroke-width="762" stroke-linecap="butt" stroke-linejoin="round" stroke-miterlimit="8" d="M 67904.42517089844 42288.53381347656 C 66646.4473906544 42516.907265498055 65258.90751962937 40676.33194595356 64805.268127441406 38177.49377441406 64351.62873525344 35678.65560287456 65003.67383108408 33467.81375963868 66261.65161132812 33239.44030761719"></path><path stroke="#666666" stroke-opacity="1" stroke-width="762" stroke-linecap="butt" stroke-linejoin="round" stroke-miterlimit="8" d="M 66261.65161132812 33239.44030761719 C 67519.62939157216 33011.066855595695 68907.16926259719 34851.64217514018 69360.80865478516 37350.48034667968 69814.44804697312 39849.31851821918 69162.40295114249 42060.16036145507 67904.42517089844 42288.53381347656 L 58793.34411621094 43942.56066894531 C 57535.36633596689 44170.934120966805 56147.82646494187 42330.35880142231 55694.187072753906 39831.52062988281 55240.54768056594 37332.68245834331 55892.59277639658 35121.84061510743 57150.570556640625 34893.46716308594 Z"></path></g><g><path fill="#000" fill-opacity="0" pointer-events="visiblePainted" d="M 66261.65161132812 33239.44030761719 C 67519.62939157216 33011.066855595695 68907.16926259719 34851.64217514018 69360.80865478516 37350.48034667968 69814.44804697312 39849.31851821918 69162.40295114249 42060.16036145507 67904.42517089844 42288.53381347656 L 58793.34411621094 43942.56066894531 C 57535.36633596689 44170.934120966805 56147.82646494187 42330.35880142231 55694.187072753906 39831.52062988281 55240.54768056594 37332.68245834331 55892.59277639658 35121.84061510743 57150.570556640625 34893.46716308594 Z"></path><path stroke="#000" stroke-opacity="0" stroke-width="3882.8025477707006" stroke-linecap="round" stroke-linejoin="round" stroke-miterlimit="10" pointer-events="visiblePainted" d="M 67904.42517089844 42288.53381347656 C 66646.4473906544 42516.907265498055 65258.90751962937 40676.33194595356 64805.268127441406 38177.49377441406 64351.62873525344 35678.65560287456 65003.67383108408 33467.81375963868 66261.65161132812 33239.44030761719"></path><path stroke="#000" stroke-opacity="0" stroke-width="3882.8025477707006" stroke-linecap="round" stroke-linejoin="round" stroke-miterlimit="10" pointer-events="visiblePainted" d="M 66261.65161132812 33239.44030761719 C 67519.62939157216 33011.066855595695 68907.16926259719 34851.64217514018 69360.80865478516 37350.48034667968 69814.44804697312 39849.31851821918 69162.40295114249 42060.16036145507 67904.42517089844 42288.53381347656 L 58793.34411621094 43942.56066894531 C 57535.36633596689 44170.934120966805 56147.82646494187 42330.35880142231 55694.187072753906 39831.52062988281 55240.54768056594 37332.68245834331 55892.59277639658 35121.84061510743 57150.570556640625 34893.46716308594 Z"></path></g><g></g></g></g><g id="editor-gb98267064_0_469"><g><g></g><g><path stroke="#666666" stroke-opacity="1" stroke-width="762" stroke-linecap="butt" stroke-linejoin="round" stroke-miterlimit="8" d="M 50929 56330 L 68677.0000257492 50545.999990701675"></path></g><g><path stroke="#000" stroke-opacity="0" stroke-width="3882.8025477707006" stroke-linecap="round" stroke-linejoin="round" stroke-miterlimit="10" pointer-events="visiblePainted" d="M 50929 56330 L 68677.0000257492 50545.999990701675"></path></g></g></g></g><g id="editor-gb98267064_0_499"><g></g><g id="editor-gb98267064_0_486"><g><g></g><g><path fill="#FFFFFF" fill-opacity="1" stroke="#666666" stroke-opacity="1" stroke-width="762" stroke-linecap="butt" stroke-linejoin="round" stroke-miterlimit="8" d="M 298984.0625 42424.25369167328 C 298984.0625 37122.32021180511 302744.87061743287 32824.25390625 307384.0625357628 32824.25390625 309611.8810598998 32824.25390625 311748.4539373476 33835.67955115088 313323.7595230179 35636.02874401108 314899.0651086882 37436.377936871264 315784.0625715256 39878.175446122936 315784.0625715256 42424.25369167328 315784.0625715256 47726.187171541445 312023.2544540927 52024.25347709656 307384.0625357628 52024.25347709656 302744.87061743287 52024.25347709656 298984.0625 47726.18717154144 298984.0625 42424.25369167328 Z"></path></g><g><path fill="#000" fill-opacity="0" stroke="#000" stroke-opacity="0" stroke-width="3882.8025477707006" stroke-linecap="round" stroke-linejoin="round" stroke-miterlimit="10" pointer-events="visiblePainted" d="M 298984.0625 42424.25369167328 C 298984.0625 37122.32021180511 302744.87061743287 32824.25390625 307384.0625357628 32824.25390625 309611.8810598998 32824.25390625 311748.4539373476 33835.67955115088 313323.7595230179 35636.02874401108 314899.0651086882 37436.377936871264 315784.0625715256 39878.175446122936 315784.0625715256 42424.25369167328 315784.0625715256 47726.187171541445 312023.2544540927 52024.25347709656 307384.0625357628 52024.25347709656 302744.87061743287 52024.25347709656 298984.0625 47726.18717154144 298984.0625 42424.25369167328 Z"></path></g><g></g></g></g><g id="editor-gb98267064_0_487"><g><g></g><g><path stroke="#666666" stroke-opacity="1" stroke-width="762" stroke-linecap="butt" stroke-linejoin="round" stroke-miterlimit="8" d="M 307382.59375 52020.45703125 L 307382.59375 93852.45704841614"></path></g><g><path stroke="#000" stroke-opacity="0" stroke-width="3882.8025477707006" stroke-linecap="round" stroke-linejoin="round" stroke-miterlimit="10" pointer-events="visiblePainted" d="M 307382.59375 52020.45703125 L 307382.59375 93852.45704841614"></path></g></g></g><g id="editor-gb98267064_0_488"><g><g></g><g><path stroke="#666666" stroke-opacity="1" stroke-width="762" stroke-linecap="butt" stroke-linejoin="round" stroke-miterlimit="8" d="M 307343.59375 93853.3515625 L 316487.5938630104 132865.3521232605"></path></g><g><path stroke="#000" stroke-opacity="0" stroke-width="3882.8025477707006" stroke-linecap="round" stroke-linejoin="round" stroke-miterlimit="10" pointer-events="visiblePainted" d="M 307343.59375 93853.3515625 L 316487.5938630104 132865.3521232605"></path></g></g></g><g id="editor-gb98267064_0_489"><g><g></g><g><path stroke="#666666" stroke-opacity="1" stroke-width="762" stroke-linecap="butt" stroke-linejoin="round" stroke-miterlimit="8" d="M 307474.78125 94153.734375 L 298282.78121852875 133381.73501586914"></path></g><g><path stroke="#000" stroke-opacity="0" stroke-width="3882.8025477707006" stroke-linecap="round" stroke-linejoin="round" stroke-miterlimit="10" pointer-events="visiblePainted" d="M 307474.78125 94153.734375 L 298282.78121852875 133381.73501586914"></path></g></g></g><g id="editor-gb98267064_0_490"><g><g></g><g><path stroke="#666666" stroke-opacity="1" stroke-width="762" stroke-linecap="butt" stroke-linejoin="round" stroke-miterlimit="8" d="M 307512.46875 55167.6484375 L 313668.46879792213 87579.64813995361"></path></g><g><path stroke="#000" stroke-opacity="0" stroke-width="3882.8025477707006" stroke-linecap="round" stroke-linejoin="round" stroke-miterlimit="10" pointer-events="visiblePainted" d="M 307512.46875 55167.6484375 L 313668.46879792213 87579.64813995361"></path></g></g></g><g id="editor-gb98267064_0_493"><g></g><g id="editor-gb98267064_0_491"><g><g></g><g><path fill="#FFFFFF" fill-opacity="1" stroke="#666666" stroke-opacity="1" stroke-width="762" stroke-linecap="butt" stroke-linejoin="round" stroke-miterlimit="8" d="M 314477.82275 22125.103654858398 L 314477.82275 37083.86396918945 C 314477.82275 35431.56492959363 311358.5140552679 34092.11190632325 307510.6517779297 34092.11190632325 303662.78950059146 34092.11190632325 300543.4808058594 35431.56492959363 300543.4808058594 37083.86396918946 L 300543.4808058594 22125.103654858398 C 300543.4808058594 20472.804615262576 303662.78950059146 19133.35159199219 307510.6517779297 19133.35159199219 311358.5140552679 19133.35159199219 314477.82275 20472.80461526257 314477.82275 22125.103654858394 Z"></path></g><g><path fill="#000" fill-opacity="0" stroke="#000" stroke-opacity="0" stroke-width="3882.8025477707006" stroke-linecap="round" stroke-linejoin="round" stroke-miterlimit="10" pointer-events="visiblePainted" d="M 314477.82275 22125.103654858398 L 314477.82275 37083.86396918945 C 314477.82275 35431.56492959363 311358.5140552679 34092.11190632325 307510.6517779297 34092.11190632325 303662.78950059146 34092.11190632325 300543.4808058594 35431.56492959363 300543.4808058594 37083.86396918946 L 300543.4808058594 22125.103654858398 C 300543.4808058594 20472.804615262576 303662.78950059146 19133.35159199219 307510.6517779297 19133.35159199219 311358.5140552679 19133.35159199219 314477.82275 20472.80461526257 314477.82275 22125.103654858394 Z"></path></g><g></g></g></g><g id="editor-gb98267064_0_492"><g><g></g><g><path fill="#FFFFFF" fill-opacity="1" stroke="#666666" stroke-opacity="1" stroke-width="762" stroke-linecap="butt" stroke-linejoin="round" stroke-miterlimit="8" d="M 299180.02894944436 20389.598587900036 C 299016.0962237675 19449.13940242846 299554.31996282353 18518.141829552394 300566.31199162407 17991.66246220602 301578.30402042466 17465.183094859643 302886.58283341274 17435.555022733508 303935.9974983787 17915.35052911854 304307.7321221427 17368.52854874068 304988.11514874734 16990.98567579358 305771.34387637646 16896.92132482127 306554.5726040055 16802.856973848957 307348.65375154756 17003.31937122045 307913.39313538076 17437.67252018334 308230.0633470594 16941.888522510093 308851.85075113305 16608.78504324344 309558.1128994081 16556.564488359592 310264.37504768313 16504.343933475742 310955.1584806168 16740.39679548889 311385.33737736504 17180.959265360016 311957.448323354 16655.42952115676 312867.6912373732 16434.159641704045 313722.1988463045 16612.894359205722 314576.7064552358 16791.629076707395 315222.00156994985 17338.26604151173 315378.8613332572 18016.272337627783 316079.7942488175 18165.52502121023 316663.6566749198 18544.945114957325 316979.5972535735 19056.50261414213 317295.53783222707 19568.060113326934 317312.5635012797 20161.572374636162 317026.2753729411 20683.69483161039 317716.4897872317 21384.962358648 317877.9482653164 22319.39281460154 317450.39737977565 23138.273401455383 317022.8464942349 23957.15398830923 316070.5208907842 24537.4572345772 314948.8115176587 24662.624307641672 314940.9052393427 25431.17299553241 314400.9728407554 26136.384033237337 313537.12789273047 26506.438230739324 312673.28294470545 26876.492428241305 311620.41770271055 26853.604594505206 310784.3524984972 26446.59670209634 310428.2330361988 27367.06671256372 309425.8757483565 28044.339792454615 308210.33604145795 28185.808931800904 306994.79633455933 28327.278071147193 305783.9835783277 27907.582147794434 305101.0136483995 27108.045317204174 304263.83544245525 27502.13962084277 303259.2911889323 27615.66569004616 302313.9858247469 27423.014331730046 301368.6804605614 27230.362973413932 300562.24192158383 26747.7622029758 300076.58648836723 26084.077027365176 299221.0954321129 26162.227693427434 298393.95381322625 25816.22036771693 298005.669039132 25217.777240224037 297617.3842650378 24619.334112731136 297750.61287894176 23895.84941450494 298339.23399943777 23406.385996451307 297576.1138278848 23055.757815314355 297186.7239135031 22359.99507633622 297374.11582067504 21681.910752761716 297561.50772784697 21003.826429187215 298283.21775956196 20497.076928587005 299162.9024473386 20425.912235478965 Z"></path><path stroke="#666666" stroke-opacity="1" stroke-width="762" stroke-linecap="butt" stroke-linejoin="round" stroke-miterlimit="8" d="M 298339.4500074296 23406.319009261333 C 298699.5687336089 23571.781512626483 299115.59030890674 23646.83921538127 299531.6570314511 23621.414393117608 M 300076.6151109999 26084.06995046251 C 300255.5391000332 26067.724918196844 300430.91862399183 26033.11228840937 300598.2308029764 25981.12468963505 M 305100.7921580368 27107.995275086305 C 304974.9486390694 26960.673227809486 304869.5860018957 26803.246856619506 304786.4994964884 26638.398513592394 M 310784.34831916256 26446.51900448722 C 310849.2742138958 26278.70357923925 310891.3405780149 26105.98520893606 310909.84561536653 25931.245366470415 M 314948.6498191328 24662.611151096797 C 314957.06727279205 23844.372441725747 314361.73797089554 23095.184665293527 313418.373372093 22736.84602407882 M 317026.09408008086 20683.76796160587 C 316873.31910647446 20962.393711987042 316640.0912979071 21209.558672130377 316344.697025999 21405.883719364174 M 315378.82291711797 18016.27246646049 C 315404.85384299 18128.7878194282 315416.9009741158 18242.99424912357 315414.79732961045 18357.308781931188 M 311385.36696919217 17180.993373231537 C 311242.6537064301 17312.08693995943 311125.07676911214 17458.582280031394 311036.2971376176 17615.917983889543 M 307913.39000657 17437.649404785894 C 307837.3360635039 17556.720686332224 307780.5439951422 17682.718508914484 307744.32204179565 17812.74043500346 M 303935.9361213702 17915.33728685867 C 304157.9915731115 18016.861699915404 304363.4230393193 18139.057212642925 304547.71771329816 18279.239500491745 M 299180.02894944436 20389.598587900036 C 299202.6231340324 20519.21827394077 299238.32308057544 20647.239910943703 299286.7946590359 20772.465293350517"></path></g><g><path fill="#000" fill-opacity="0" stroke="#000" stroke-opacity="0" stroke-width="3882.8025477707006" stroke-linecap="round" stroke-linejoin="round" stroke-miterlimit="10" pointer-events="visiblePainted" d="M 299180.02894944436 20389.598587900036 C 299016.0962237675 19449.13940242846 299554.31996282353 18518.141829552394 300566.31199162407 17991.66246220602 301578.30402042466 17465.183094859643 302886.58283341274 17435.555022733508 303935.9974983787 17915.35052911854 304307.7321221427 17368.52854874068 304988.11514874734 16990.98567579358 305771.34387637646 16896.92132482127 306554.5726040055 16802.856973848957 307348.65375154756 17003.31937122045 307913.39313538076 17437.67252018334 308230.0633470594 16941.888522510093 308851.85075113305 16608.78504324344 309558.1128994081 16556.564488359592 310264.37504768313 16504.343933475742 310955.1584806168 16740.39679548889 311385.33737736504 17180.959265360016 311957.448323354 16655.42952115676 312867.6912373732 16434.159641704045 313722.1988463045 16612.894359205722 314576.7064552358 16791.629076707395 315222.00156994985 17338.26604151173 315378.8613332572 18016.272337627783 316079.7942488175 18165.52502121023 316663.6566749198 18544.945114957325 316979.5972535735 19056.50261414213 317295.53783222707 19568.060113326934 317312.5635012797 20161.572374636162 317026.2753729411 20683.69483161039 317716.4897872317 21384.962358648 317877.9482653164 22319.39281460154 317450.39737977565 23138.273401455383 317022.8464942349 23957.15398830923 316070.5208907842 24537.4572345772 314948.8115176587 24662.624307641672 314940.9052393427 25431.17299553241 314400.9728407554 26136.384033237337 313537.12789273047 26506.438230739324 312673.28294470545 26876.492428241305 311620.41770271055 26853.604594505206 310784.3524984972 26446.59670209634 310428.2330361988 27367.06671256372 309425.8757483565 28044.339792454615 308210.33604145795 28185.808931800904 306994.79633455933 28327.278071147193 305783.9835783277 27907.582147794434 305101.0136483995 27108.045317204174 304263.83544245525 27502.13962084277 303259.2911889323 27615.66569004616 302313.9858247469 27423.014331730046 301368.6804605614 27230.362973413932 300562.24192158383 26747.7622029758 300076.58648836723 26084.077027365176 299221.0954321129 26162.227693427434 298393.95381322625 25816.22036771693 298005.669039132 25217.777240224037 297617.3842650378 24619.334112731136 297750.61287894176 23895.84941450494 298339.23399943777 23406.385996451307 297576.1138278848 23055.757815314355 297186.7239135031 22359.99507633622 297374.11582067504 21681.910752761716 297561.50772784697 21003.826429187215 298283.21775956196 20497.076928587005 299162.9024473386 20425.912235478965 Z"></path><path stroke="#000" stroke-opacity="0" stroke-width="3882.8025477707006" stroke-linecap="round" stroke-linejoin="round" stroke-miterlimit="10" pointer-events="visiblePainted" d="M 298339.4500074296 23406.319009261333 C 298699.5687336089 23571.781512626483 299115.59030890674 23646.83921538127 299531.6570314511 23621.414393117608 M 300076.6151109999 26084.06995046251 C 300255.5391000332 26067.724918196844 300430.91862399183 26033.11228840937 300598.2308029764 25981.12468963505 M 305100.7921580368 27107.995275086305 C 304974.9486390694 26960.673227809486 304869.5860018957 26803.246856619506 304786.4994964884 26638.398513592394 M 310784.34831916256 26446.51900448722 C 310849.2742138958 26278.70357923925 310891.3405780149 26105.98520893606 310909.84561536653 25931.245366470415 M 314948.6498191328 24662.611151096797 C 314957.06727279205 23844.372441725747 314361.73797089554 23095.184665293527 313418.373372093 22736.84602407882 M 317026.09408008086 20683.76796160587 C 316873.31910647446 20962.393711987042 316640.0912979071 21209.558672130377 316344.697025999 21405.883719364174 M 315378.82291711797 18016.27246646049 C 315404.85384299 18128.7878194282 315416.9009741158 18242.99424912357 315414.79732961045 18357.308781931188 M 311385.36696919217 17180.993373231537 C 311242.6537064301 17312.08693995943 311125.07676911214 17458.582280031394 311036.2971376176 17615.917983889543 M 307913.39000657 17437.649404785894 C 307837.3360635039 17556.720686332224 307780.5439951422 17682.718508914484 307744.32204179565 17812.74043500346 M 303935.9361213702 17915.33728685867 C 304157.9915731115 18016.861699915404 304363.4230393193 18139.057212642925 304547.71771329816 18279.239500491745 M 299180.02894944436 20389.598587900036 C 299202.6231340324 20519.21827394077 299238.32308057544 20647.239910943703 299286.7946590359 20772.465293350517"></path></g><g></g></g></g></g><g id="editor-gb98267064_0_485"><g><g></g><g><path fill="#FFFFFF" fill-opacity="1" d="M 292321.80810546875 47121.288818359375 C 293213.1808598298 46204.7098473435 295411.7390624166 46897.044260310875 297232.42529296875 48667.66101074218 299053.1115235209 50438.27776117349 299806.4689457673 52616.68030632787 298915.09619140625 53533.25927734375 L 292459.20361328125 60171.71142578125 C 291567.8308589202 61088.29039679712 289369.2726563334 60395.95598382975 287548.58642578125 58625.33923339844 285727.9001952291 56854.722482967125 284974.5427729827 54676.319937812754 285865.91552734375 53759.740966796875 Z"></path><path stroke="#666666" stroke-opacity="1" stroke-width="762" stroke-linecap="butt" stroke-linejoin="round" stroke-miterlimit="8" d="M 298915.09619140625 53533.25927734375 C 298023.7234370452 54449.83824835962 295825.1652344584 53757.50383539225 294004.47900390625 51986.88708496094 292183.7927733541 50216.270334529625 291430.4353511077 48037.867789375254 292321.80810546875 47121.288818359375"></path><path stroke="#666666" stroke-opacity="1" stroke-width="762" stroke-linecap="butt" stroke-linejoin="round" stroke-miterlimit="8" d="M 292321.80810546875 47121.288818359375 C 293213.1808598298 46204.7098473435 295411.7390624166 46897.044260310875 297232.42529296875 48667.66101074218 299053.1115235209 50438.27776117349 299806.4689457673 52616.68030632787 298915.09619140625 53533.25927734375 L 292459.20361328125 60171.71142578125 C 291567.8308589202 61088.29039679712 289369.2726563334 60395.95598382975 287548.58642578125 58625.33923339844 285727.9001952291 56854.722482967125 284974.5427729827 54676.319937812754 285865.91552734375 53759.740966796875 Z"></path></g><g><path fill="#000" fill-opacity="0" pointer-events="visiblePainted" d="M 292321.80810546875 47121.288818359375 C 293213.1808598298 46204.7098473435 295411.7390624166 46897.044260310875 297232.42529296875 48667.66101074218 299053.1115235209 50438.27776117349 299806.4689457673 52616.68030632787 298915.09619140625 53533.25927734375 L 292459.20361328125 60171.71142578125 C 291567.8308589202 61088.29039679712 289369.2726563334 60395.95598382975 287548.58642578125 58625.33923339844 285727.9001952291 56854.722482967125 284974.5427729827 54676.319937812754 285865.91552734375 53759.740966796875 Z"></path><path stroke="#000" stroke-opacity="0" stroke-width="3882.8025477707006" stroke-linecap="round" stroke-linejoin="round" stroke-miterlimit="10" pointer-events="visiblePainted" d="M 298915.09619140625 53533.25927734375 C 298023.7234370452 54449.83824835962 295825.1652344584 53757.50383539225 294004.47900390625 51986.88708496094 292183.7927733541 50216.270334529625 291430.4353511077 48037.867789375254 292321.80810546875 47121.288818359375"></path><path stroke="#000" stroke-opacity="0" stroke-width="3882.8025477707006" stroke-linecap="round" stroke-linejoin="round" stroke-miterlimit="10" pointer-events="visiblePainted" d="M 292321.80810546875 47121.288818359375 C 293213.1808598298 46204.7098473435 295411.7390624166 46897.044260310875 297232.42529296875 48667.66101074218 299053.1115235209 50438.27776117349 299806.4689457673 52616.68030632787 298915.09619140625 53533.25927734375 L 292459.20361328125 60171.71142578125 C 291567.8308589202 61088.29039679712 289369.2726563334 60395.95598382975 287548.58642578125 58625.33923339844 285727.9001952291 56854.722482967125 284974.5427729827 54676.319937812754 285865.91552734375 53759.740966796875 Z"></path></g><g></g></g></g><g id="editor-gb98267064_0_494"><g><g></g><g><path stroke="#666666" stroke-opacity="1" stroke-width="762" stroke-linecap="butt" stroke-linejoin="round" stroke-miterlimit="8" d="M 307808 56328.5 L 301712.00007367134 69060.50005292892"></path></g><g><path stroke="#000" stroke-opacity="0" stroke-width="3882.8025477707006" stroke-linecap="round" stroke-linejoin="round" stroke-miterlimit="10" pointer-events="visiblePainted" d="M 307808 56328.5 L 301712.00007367134 69060.50005292892"></path></g></g></g><g id="editor-gb98267064_0_497"><g><g></g><g><path stroke="#666666" stroke-opacity="1" stroke-width="762" stroke-linecap="butt" stroke-linejoin="round" stroke-miterlimit="8" d="M 301495.1499 68900.4854 L 295687.1499 56852.485400000005"></path></g><g><path stroke="#000" stroke-opacity="0" stroke-width="3882.8025477707006" stroke-linecap="round" stroke-linejoin="round" stroke-miterlimit="10" pointer-events="visiblePainted" d="M 301495.1499 68900.4854 L 295687.1499 56852.485400000005"></path></g></g></g></g><g id="editor-gb98267064_0_498"><g><g></g><g><path stroke="#666666" stroke-opacity="1" stroke-width="762" stroke-linecap="butt" stroke-linejoin="round" stroke-miterlimit="8" d="M 67132.5864 37805.3392 L 287548.58640000003 58625.3392"></path></g><g><path stroke="#000" stroke-opacity="0" stroke-width="3882.8025477707006" stroke-linecap="round" stroke-linejoin="round" stroke-miterlimit="10" pointer-events="visiblePainted" d="M 67132.5864 37805.3392 L 287548.58640000003 58625.3392"></path></g></g></g><g id="editor-gb98267064_0_500"><g><g></g><g><path fill="#FFFFFF" fill-opacity="1" stroke="#666666" stroke-opacity="1" stroke-width="762" stroke-linecap="butt" stroke-linejoin="round" stroke-miterlimit="8" d="M 57492.12109375 177382.81228542328 C 57492.12109375 172080.8788055551 53707.619892502575 167782.8125 49039.20107412338 167782.8125 46797.34729762361 167782.8125 44647.314015209544 168794.23814490088 43062.08400741788 170594.58733776107 41476.85399962621 172394.93653062126 40586.281054496765 174836.73403987294 40586.281054496765 177382.81228542328 40586.281054496765 182684.74576529145 44370.78225574419 186982.81207084656 49039.20107412338 186982.81207084656 53707.619892502575 186982.81207084656 57492.12109375 182684.74576529145 57492.12109375 177382.81228542328 Z"></path></g><g><path fill="#000" fill-opacity="0" stroke="#000" stroke-opacity="0" stroke-width="3882.8025477707006" stroke-linecap="round" stroke-linejoin="round" stroke-miterlimit="10" pointer-events="visiblePainted" d="M 57492.12109375 177382.81228542328 C 57492.12109375 172080.8788055551 53707.619892502575 167782.8125 49039.20107412338 167782.8125 46797.34729762361 167782.8125 44647.314015209544 168794.23814490088 43062.08400741788 170594.58733776107 41476.85399962621 172394.93653062126 40586.281054496765 174836.73403987294 40586.281054496765 177382.81228542328 40586.281054496765 182684.74576529145 44370.78225574419 186982.81207084656 49039.20107412338 186982.81207084656 53707.619892502575 186982.81207084656 57492.12109375 182684.74576529145 57492.12109375 177382.81228542328 Z"></path></g><g></g></g></g><g id="editor-gb98267064_0_501"><g><g></g><g><path stroke="#666666" stroke-opacity="1" stroke-width="762" stroke-linecap="butt" stroke-linejoin="round" stroke-miterlimit="8" d="M 49040.671875 186979.015625 L 49040.671875 228811.01564216614"></path></g><g><path stroke="#000" stroke-opacity="0" stroke-width="3882.8025477707006" stroke-linecap="round" stroke-linejoin="round" stroke-miterlimit="10" pointer-events="visiblePainted" d="M 49040.671875 186979.015625 L 49040.671875 228811.01564216614"></path></g></g></g><g id="editor-gb98267064_0_502"><g><g></g><g><path stroke="#666666" stroke-opacity="1" stroke-width="762" stroke-linecap="butt" stroke-linejoin="round" stroke-miterlimit="8" d="M 49079.921875 228811.90625 L 39878.315064907074 267823.9068107605"></path></g><g><path stroke="#000" stroke-opacity="0" stroke-width="3882.8025477707006" stroke-linecap="round" stroke-linejoin="round" stroke-miterlimit="10" pointer-events="visiblePainted" d="M 49079.921875 228811.90625 L 39878.315064907074 267823.9068107605"></path></g></g></g><g id="editor-gb98267064_0_503"><g><g></g><g><path stroke="#666666" stroke-opacity="1" stroke-width="762" stroke-linecap="butt" stroke-linejoin="round" stroke-miterlimit="8" d="M 48947.89453125 229112.28125 L 58197.804349422455 268340.28189086914"></path></g><g><path stroke="#000" stroke-opacity="0" stroke-width="3882.8025477707006" stroke-linecap="round" stroke-linejoin="round" stroke-miterlimit="10" pointer-events="visiblePainted" d="M 48947.89453125 229112.28125 L 58197.804349422455 268340.28189086914"></path></g></g></g><g id="editor-gb98267064_0_505"><g><g></g><g><path fill="#FFFFFF" fill-opacity="1" stroke="#666666" stroke-opacity="1" stroke-width="762" stroke-linecap="butt" stroke-linejoin="round" stroke-miterlimit="8" d="M 41900.73828125 157083.658203125 L 41900.73828125 172042.41796875 C 41900.73828125 170390.11898976256 45039.69875683329 169050.666015625 48911.802734375 169050.666015625 52783.90671191671 169050.666015625 55922.8671875 170390.1189897626 55922.8671875 172042.41796875 L 55922.8671875 157083.658203125 C 55922.8671875 155431.35922413756 52783.906711916716 154091.90625 48911.80273437501 154091.90625 45039.6987568333 154091.90625 41900.73828125001 155431.35922413756 41900.73828125 157083.658203125 Z"></path></g><g><path fill="#000" fill-opacity="0" stroke="#000" stroke-opacity="0" stroke-width="3882.8025477707006" stroke-linecap="round" stroke-linejoin="round" stroke-miterlimit="10" pointer-events="visiblePainted" d="M 41900.73828125 157083.658203125 L 41900.73828125 172042.41796875 C 41900.73828125 170390.11898976256 45039.69875683329 169050.666015625 48911.802734375 169050.666015625 52783.90671191671 169050.666015625 55922.8671875 170390.1189897626 55922.8671875 172042.41796875 L 55922.8671875 157083.658203125 C 55922.8671875 155431.35922413756 52783.906711916716 154091.90625 48911.80273437501 154091.90625 45039.6987568333 154091.90625 41900.73828125001 155431.35922413756 41900.73828125 157083.658203125 Z"></path></g><g></g></g></g><g id="editor-gb98267064_0_506"><g><g></g><g><path fill="#FFFFFF" fill-opacity="1" stroke="#666666" stroke-opacity="1" stroke-width="762" stroke-linecap="butt" stroke-linejoin="round" stroke-miterlimit="8" d="M 57294.90939426422 155348.14644497633 C 57459.87489110946 154407.6873068098 56918.26035892462 153476.68978076286 55899.89281122981 152950.21043989836 54881.525263535 152423.73109903387 53565.00433395536 152394.10302839804 52508.97838862954 152873.8985106494 52134.90184808157 152327.07655777663 51450.232429175434 151949.53370381994 50662.069384467366 151855.46935757904 49873.9063397593 151761.40501133815 49074.82250522406 151961.8673986264 48506.525280509224 152396.22052574137 48187.860056162186 151900.43655300603 47562.15541042058 151567.33309049445 46851.44383216738 151515.1125382373 46140.73225391419 151462.89198598015 45445.59690643655 151698.94483611986 45012.707895768384 152139.5072838307 44436.99266828117 151613.97756606157 43521.01525168536 151392.70769773872 42661.12427089842 151571.44240625005 41801.233290111486 151750.17711476138 41151.872835869915 152296.81405206988 40994.02486084123 152974.82031408226 40288.676089306246 153124.07299015732 39701.13534773969 153503.4930648196 39383.20435308342 154015.0505382731 39065.27335842715 154526.60801172658 39048.140428179184 155120.12024318217 39336.23216298844 155642.24267389366 38641.669418953934 156343.51016565756 38479.19375738526 157277.9405746093 38909.43820045554 158096.82112027347 39339.6826435258 158915.70166593767 40298.00786921213 159496.00488301643 41426.78397715238 159621.171949785 41434.74006478047 160389.72059901778 41978.07402099945 161094.93160125063 42847.36116583142 161464.9857801389 43716.64831066339 161835.03995902717 44776.14657154816 161812.15212644235 45617.47896103033 161405.14425450595 45975.84196507198 162325.61421867373 46984.51407323453 163002.88726449784 48207.711643186834 163144.35639672822 49430.90921313914 163285.82552895864 50649.35005277961 162866.12962671655 51336.62267242129 162066.59283634296 52179.07507551127 162460.68712015863 53189.947927171524 162574.21318365165 54141.20868629947 162381.5618350259 55092.469445427414 162188.91048640013 55903.98852258707 161706.3097402368 56392.703570210164 161042.6245980095 57253.58419400828 161120.7752601408 58085.93677984858 160774.76795183442 58476.66773616867 160176.3248544432 58867.398692488765 159577.88175705195 58733.330742383485 158854.397095217 58141.00132679378 158364.93370178336 58908.92913213625 158014.305538283 59300.772191093834 157318.54283430168 59112.199720626144 156640.45854483478 58923.62725015845 155962.37425536787 58197.370467271125 155455.62478025715 57312.14379281049 155384.46009072868 Z"></path><path stroke="#666666" stroke-opacity="1" stroke-width="762" stroke-linecap="butt" stroke-linejoin="round" stroke-miterlimit="8" d="M 58140.78395795822 158364.86671459675 C 57778.39649479524 158530.32920963914 57359.753996270505 158605.38690861853 56941.06606607292 158579.96208763373 M 56392.67476725578 161042.6175211072 C 56212.62356255257 161026.27248966368 56036.13915294577 160991.65986161723 55867.77291234016 160939.67226545786 M 51336.845558166504 162066.5427942276 C 51463.48188746251 161919.22075436107 51569.50830603455 161761.79439108964 51653.118253890025 161596.94605635438 M 45617.48316669464 161405.06655690074 C 45552.14824080623 161237.25114009387 45509.81685987706 161064.5327784784 45491.1952413549 160889.79294480218 M 41426.946694374084 159621.1587932408 C 41418.476211013665 158802.9201250271 42017.556069342 158053.73238627898 42966.86383632434 157695.39376308868 M 39336.41459798813 155642.31580388546 C 39490.152049265394 155920.94154025178 39724.84918590833 156168.1064879627 40022.10443271362 156364.4315253214 M 40994.06351900101 152974.82044291496 C 40967.86859909048 153087.33579022315 40955.74557140623 153201.54221417394 40957.86246880783 153315.85674123155 M 45012.67811751366 152139.5413917005 C 45156.29046947535 152270.6349518344 45274.608137909825 152417.13028453765 45363.94707837308 152574.46598048182 M 48506.52842903137 152396.19741034508 C 48583.061509617524 152515.26868590212 48640.21136627658 152641.2665021467 48676.661516823704 152771.2884216956 M 52509.040152311325 152873.88526839018 C 52285.58575800141 152975.40967634023 52078.86007982653 153097.60518292134 51893.40435502649 153237.787463719 M 57294.90939426422 155348.14644497633 C 57272.1728670029 155477.7661244972 57236.24801188626 155605.78775506065 57187.47106396088 155731.01313116864"></path></g><g><path fill="#000" fill-opacity="0" stroke="#000" stroke-opacity="0" stroke-width="3882.8025477707006" stroke-linecap="round" stroke-linejoin="round" stroke-miterlimit="10" pointer-events="visiblePainted" d="M 57294.90939426422 155348.14644497633 C 57459.87489110946 154407.6873068098 56918.26035892462 153476.68978076286 55899.89281122981 152950.21043989836 54881.525263535 152423.73109903387 53565.00433395536 152394.10302839804 52508.97838862954 152873.8985106494 52134.90184808157 152327.07655777663 51450.232429175434 151949.53370381994 50662.069384467366 151855.46935757904 49873.9063397593 151761.40501133815 49074.82250522406 151961.8673986264 48506.525280509224 152396.22052574137 48187.860056162186 151900.43655300603 47562.15541042058 151567.33309049445 46851.44383216738 151515.1125382373 46140.73225391419 151462.89198598015 45445.59690643655 151698.94483611986 45012.707895768384 152139.5072838307 44436.99266828117 151613.97756606157 43521.01525168536 151392.70769773872 42661.12427089842 151571.44240625005 41801.233290111486 151750.17711476138 41151.872835869915 152296.81405206988 40994.02486084123 152974.82031408226 40288.676089306246 153124.07299015732 39701.13534773969 153503.4930648196 39383.20435308342 154015.0505382731 39065.27335842715 154526.60801172658 39048.140428179184 155120.12024318217 39336.23216298844 155642.24267389366 38641.669418953934 156343.51016565756 38479.19375738526 157277.9405746093 38909.43820045554 158096.82112027347 39339.6826435258 158915.70166593767 40298.00786921213 159496.00488301643 41426.78397715238 159621.171949785 41434.74006478047 160389.72059901778 41978.07402099945 161094.93160125063 42847.36116583142 161464.9857801389 43716.64831066339 161835.03995902717 44776.14657154816 161812.15212644235 45617.47896103033 161405.14425450595 45975.84196507198 162325.61421867373 46984.51407323453 163002.88726449784 48207.711643186834 163144.35639672822 49430.90921313914 163285.82552895864 50649.35005277961 162866.12962671655 51336.62267242129 162066.59283634296 52179.07507551127 162460.68712015863 53189.947927171524 162574.21318365165 54141.20868629947 162381.5618350259 55092.469445427414 162188.91048640013 55903.98852258707 161706.3097402368 56392.703570210164 161042.6245980095 57253.58419400828 161120.7752601408 58085.93677984858 160774.76795183442 58476.66773616867 160176.3248544432 58867.398692488765 159577.88175705195 58733.330742383485 158854.397095217 58141.00132679378 158364.93370178336 58908.92913213625 158014.305538283 59300.772191093834 157318.54283430168 59112.199720626144 156640.45854483478 58923.62725015845 155962.37425536787 58197.370467271125 155455.62478025715 57312.14379281049 155384.46009072868 Z"></path><path stroke="#000" stroke-opacity="0" stroke-width="3882.8025477707006" stroke-linecap="round" stroke-linejoin="round" stroke-miterlimit="10" pointer-events="visiblePainted" d="M 58140.78395795822 158364.86671459675 C 57778.39649479524 158530.32920963914 57359.753996270505 158605.38690861853 56941.06606607292 158579.96208763373 M 56392.67476725578 161042.6175211072 C 56212.62356255257 161026.27248966368 56036.13915294577 160991.65986161723 55867.77291234016 160939.67226545786 M 51336.845558166504 162066.5427942276 C 51463.48188746251 161919.22075436107 51569.50830603455 161761.79439108964 51653.118253890025 161596.94605635438 M 45617.48316669464 161405.06655690074 C 45552.14824080623 161237.25114009387 45509.81685987706 161064.5327784784 45491.1952413549 160889.79294480218 M 41426.946694374084 159621.1587932408 C 41418.476211013665 158802.9201250271 42017.556069342 158053.73238627898 42966.86383632434 157695.39376308868 M 39336.41459798813 155642.31580388546 C 39490.152049265394 155920.94154025178 39724.84918590833 156168.1064879627 40022.10443271362 156364.4315253214 M 40994.06351900101 152974.82044291496 C 40967.86859909048 153087.33579022315 40955.74557140623 153201.54221417394 40957.86246880783 153315.85674123155 M 45012.67811751366 152139.5413917005 C 45156.29046947535 152270.6349518344 45274.608137909825 152417.13028453765 45363.94707837308 152574.46598048182 M 48506.52842903137 152396.19741034508 C 48583.061509617524 152515.26868590212 48640.21136627658 152641.2665021467 48676.661516823704 152771.2884216956 M 52509.040152311325 152873.88526839018 C 52285.58575800141 152975.40967634023 52078.86007982653 153097.60518292134 51893.40435502649 153237.787463719 M 57294.90939426422 155348.14644497633 C 57272.1728670029 155477.7661244972 57236.24801188626 155605.78775506065 57187.47106396088 155731.01313116864"></path></g><g></g></g></g><g id="editor-gb98267064_0_538"><g></g><g id="editor-gb98267064_0_509"><g><g></g><g><path stroke="#666666" stroke-opacity="1" stroke-width="762" stroke-linecap="butt" stroke-linejoin="round" stroke-miterlimit="8" d="M 48612.58203125 191287.046875 L 59028.582218647 196003.04668688774"></path></g><g><path stroke="#000" stroke-opacity="0" stroke-width="3882.8025477707006" stroke-linecap="round" stroke-linejoin="round" stroke-miterlimit="10" pointer-events="visiblePainted" d="M 48612.58203125 191287.046875 L 59028.582218647 196003.04668688774"></path></g></g></g><g id="editor-gb98267064_0_510"><g><g></g><g><path stroke="#666666" stroke-opacity="1" stroke-width="762" stroke-linecap="butt" stroke-linejoin="round" stroke-miterlimit="8" d="M 59031 195226 L 69447.000187397 175930.00059223175"></path></g><g><path stroke="#000" stroke-opacity="0" stroke-width="3882.8025477707006" stroke-linecap="round" stroke-linejoin="round" stroke-miterlimit="10" pointer-events="visiblePainted" d="M 59031 195226 L 69447.000187397 175930.00059223175"></path></g></g></g></g><g id="editor-gb98267064_0_542"><g><g></g><g><path fill="#FFFFFF" fill-opacity="1" d="M 81878.36376953125 258148.20373535156 C 83144.50864928262 258325.79746313117 83884.9445104296 260508.62562325294 83532.1735534668 263023.68688964844 83179.40259650399 265538.74815604393 81867.01200621622 267433.639992428 80600.86712646484 267256.04626464844 L 71430.63470458984 265969.7987060547 C 70164.48982483847 265792.20497827505 69424.05396369149 263609.3768181533 69776.8249206543 261094.3155517578 70129.5958776171 258579.25428536232 71441.98646790488 256684.3624489782 72708.13134765625 256861.9561767578 Z"></path><path stroke="#666666" stroke-opacity="1" stroke-width="762" stroke-linecap="butt" stroke-linejoin="round" stroke-miterlimit="8" d="M 80600.86712646484 267256.04626464844 C 79334.72224671347 267078.45253686886 78594.28638556649 264895.62437674706 78947.0573425293 262380.56311035156 79299.8282994921 259865.50184395607 80612.21888977988 257970.61000757196 81878.36376953125 258148.20373535156"></path><path stroke="#666666" stroke-opacity="1" stroke-width="762" stroke-linecap="butt" stroke-linejoin="round" stroke-miterlimit="8" d="M 81878.36376953125 258148.20373535156 C 83144.50864928262 258325.79746313117 83884.9445104296 260508.62562325294 83532.1735534668 263023.68688964844 83179.40259650399 265538.74815604393 81867.01200621622 267433.639992428 80600.86712646484 267256.04626464844 L 71430.63470458984 265969.7987060547 C 70164.48982483847 265792.20497827505 69424.05396369149 263609.3768181533 69776.8249206543 261094.3155517578 70129.5958776171 258579.25428536232 71441.98646790488 256684.3624489782 72708.13134765625 256861.9561767578 Z"></path></g><g><path fill="#000" fill-opacity="0" pointer-events="visiblePainted" d="M 81878.36376953125 258148.20373535156 C 83144.50864928262 258325.79746313117 83884.9445104296 260508.62562325294 83532.1735534668 263023.68688964844 83179.40259650399 265538.74815604393 81867.01200621622 267433.639992428 80600.86712646484 267256.04626464844 L 71430.63470458984 265969.7987060547 C 70164.48982483847 265792.20497827505 69424.05396369149 263609.3768181533 69776.8249206543 261094.3155517578 70129.5958776171 258579.25428536232 71441.98646790488 256684.3624489782 72708.13134765625 256861.9561767578 Z"></path><path stroke="#000" stroke-opacity="0" stroke-width="3882.8025477707006" stroke-linecap="round" stroke-linejoin="round" stroke-miterlimit="10" pointer-events="visiblePainted" d="M 80600.86712646484 267256.04626464844 C 79334.72224671347 267078.45253686886 78594.28638556649 264895.62437674706 78947.0573425293 262380.56311035156 79299.8282994921 259865.50184395607 80612.21888977988 257970.61000757196 81878.36376953125 258148.20373535156"></path><path stroke="#000" stroke-opacity="0" stroke-width="3882.8025477707006" stroke-linecap="round" stroke-linejoin="round" stroke-miterlimit="10" pointer-events="visiblePainted" d="M 81878.36376953125 258148.20373535156 C 83144.50864928262 258325.79746313117 83884.9445104296 260508.62562325294 83532.1735534668 263023.68688964844 83179.40259650399 265538.74815604393 81867.01200621622 267433.639992428 80600.86712646484 267256.04626464844 L 71430.63470458984 265969.7987060547 C 70164.48982483847 265792.20497827505 69424.05396369149 263609.3768181533 69776.8249206543 261094.3155517578 70129.5958776171 258579.25428536232 71441.98646790488 256684.3624489782 72708.13134765625 256861.9561767578 Z"></path></g><g></g></g></g><g id="editor-gb98267064_0_512"><g><g></g><g><path stroke="#666666" stroke-opacity="1" stroke-width="762" stroke-linecap="butt" stroke-linejoin="round" stroke-miterlimit="8" d="M 290783.625 172763.890625 L 81023.62191009521 263519.88732910156"></path></g><g><path stroke="#000" stroke-opacity="0" stroke-width="3882.8025477707006" stroke-linecap="round" stroke-linejoin="round" stroke-miterlimit="10" pointer-events="visiblePainted" d="M 290783.625 172763.890625 L 81023.62191009521 263519.88732910156"></path></g></g></g><g id="editor-gb98267064_0_525"><g></g><g id="editor-gb98267064_0_513"><g><g></g><g><path stroke="#666666" stroke-opacity="1" stroke-width="762" stroke-linecap="butt" stroke-linejoin="round" stroke-miterlimit="8" d="M 289644.31601097 185892.04069999998 L 293146.24001097 173136.04069999998"></path></g><g><path stroke="#000" stroke-opacity="0" stroke-width="3882.8025477707006" stroke-linecap="round" stroke-linejoin="round" stroke-miterlimit="10" pointer-events="visiblePainted" d="M 289644.31601097 185892.04069999998 L 293146.24001097 173136.04069999998"></path></g></g></g><g id="editor-gb98267064_0_524"><g></g><g id="editor-gb98267064_0_515"><g><g></g><g><path fill="#FFFFFF" fill-opacity="1" stroke="#666666" stroke-opacity="1" stroke-width="762" stroke-linecap="butt" stroke-linejoin="round" stroke-miterlimit="8" d="M 315989.46869882813 177384.30059167327 C 315989.46869882813 172082.3671118051 312204.9674902554 167784.30080625 307536.54866284004 167784.30080625 305294.6948820009 167784.30080625 303144.6615954253 168795.72645115087 301559.4315845652 170596.07564401106 299974.2015737052 172396.42483687124 299083.62862685195 174838.22234612293 299083.62862685195 177384.30059167327 299083.62862685195 182686.23407154143 302868.12983542465 186984.30037709654 307536.54866284004 186984.30037709654 312204.9674902554 186984.30037709654 315989.46869882813 182686.23407154143 315989.46869882813 177384.30059167327 Z"></path></g><g><path fill="#000" fill-opacity="0" stroke="#000" stroke-opacity="0" stroke-width="3882.8025477707006" stroke-linecap="round" stroke-linejoin="round" stroke-miterlimit="10" pointer-events="visiblePainted" d="M 315989.46869882813 177384.30059167327 C 315989.46869882813 172082.3671118051 312204.9674902554 167784.30080625 307536.54866284004 167784.30080625 305294.6948820009 167784.30080625 303144.6615954253 168795.72645115087 301559.4315845652 170596.07564401106 299974.2015737052 172396.42483687124 299083.62862685195 174838.22234612293 299083.62862685195 177384.30059167327 299083.62862685195 182686.23407154143 302868.12983542465 186984.30037709654 307536.54866284004 186984.30037709654 312204.9674902554 186984.30037709654 315989.46869882813 182686.23407154143 315989.46869882813 177384.30059167327 Z"></path></g><g></g></g></g><g id="editor-gb98267064_0_516"><g><g></g><g><path stroke="#666666" stroke-opacity="1" stroke-width="762" stroke-linecap="butt" stroke-linejoin="round" stroke-miterlimit="8" d="M 307538.0188402344 186980.50393125 L 307538.0188402344 228812.50394841612"></path></g><g><path stroke="#000" stroke-opacity="0" stroke-width="3882.8025477707006" stroke-linecap="round" stroke-linejoin="round" stroke-miterlimit="10" pointer-events="visiblePainted" d="M 307538.0188402344 186980.50393125 L 307538.0188402344 228812.50394841612"></path></g></g></g><g id="editor-gb98267064_0_517"><g><g></g><g><path stroke="#666666" stroke-opacity="1" stroke-width="762" stroke-linecap="butt" stroke-linejoin="round" stroke-miterlimit="8" d="M 307577.26847109373 228813.3984625 L 298375.66115737136 267825.39902326046"></path></g><g><path stroke="#000" stroke-opacity="0" stroke-width="3882.8025477707006" stroke-linecap="round" stroke-linejoin="round" stroke-miterlimit="10" pointer-events="visiblePainted" d="M 307577.26847109373 228813.3984625 L 298375.66115737136 267825.39902326046"></path></g></g></g><g id="editor-gb98267064_0_518"><g><g></g><g><path stroke="#666666" stroke-opacity="1" stroke-width="762" stroke-linecap="butt" stroke-linejoin="round" stroke-miterlimit="8" d="M 307445.2426972656 229113.781275 L 316695.1523289351 268341.7819158691"></path></g><g><path stroke="#000" stroke-opacity="0" stroke-width="3882.8025477707006" stroke-linecap="round" stroke-linejoin="round" stroke-miterlimit="10" pointer-events="visiblePainted" d="M 307445.2426972656 229113.781275 L 316695.1523289351 268341.7819158691"></path></g></g></g><g id="editor-gb98267064_0_519"><g><g></g><g><path stroke="#666666" stroke-opacity="1" stroke-width="762" stroke-linecap="butt" stroke-linejoin="round" stroke-miterlimit="8" d="M 307407.32955859374 190127.6953375 L 327078.48205648136 221015.69606419982"></path></g><g><path stroke="#000" stroke-opacity="0" stroke-width="3882.8025477707006" stroke-linecap="round" stroke-linejoin="round" stroke-miterlimit="10" pointer-events="visiblePainted" d="M 307407.32955859374 190127.6953375 L 327078.48205648136 221015.69606419982"></path></g></g></g><g id="editor-gb98267064_0_522"><g></g><g id="editor-gb98267064_0_520"><g><g></g><g><path fill="#FFFFFF" fill-opacity="1" stroke="#666666" stroke-opacity="1" stroke-width="762" stroke-linecap="butt" stroke-linejoin="round" stroke-miterlimit="8" d="M 300398.08425596496 157085.15055485838 L 300398.08425596496 172043.91086918945 C 300398.08425596496 170391.61182959363 303537.04459547385 169052.15880632325 307409.1484051593 169052.15880632325 311281.25221484475 169052.15880632325 314420.2125543537 170391.61182959363 314420.2125543537 172043.91086918945 L 314420.2125543537 157085.15055485838 C 314420.2125543537 155432.85151526256 311281.25221484475 154093.39849199218 307409.1484051593 154093.39849199218 303537.04459547385 154093.39849199218 300398.08425596496 155432.85151526256 300398.08425596496 157085.15055485838 Z"></path></g><g><path fill="#000" fill-opacity="0" stroke="#000" stroke-opacity="0" stroke-width="3882.8025477707006" stroke-linecap="round" stroke-linejoin="round" stroke-miterlimit="10" pointer-events="visiblePainted" d="M 300398.08425596496 157085.15055485838 L 300398.08425596496 172043.91086918945 C 300398.08425596496 170391.61182959363 303537.04459547385 169052.15880632325 307409.1484051593 169052.15880632325 311281.25221484475 169052.15880632325 314420.2125543537 170391.61182959363 314420.2125543537 172043.91086918945 L 314420.2125543537 157085.15055485838 C 314420.2125543537 155432.85151526256 311281.25221484475 154093.39849199218 307409.1484051593 154093.39849199218 303537.04459547385 154093.39849199218 300398.08425596496 155432.85151526256 300398.08425596496 157085.15055485838 Z"></path></g><g></g></g></g><g id="editor-gb98267064_0_521"><g><g></g><g><path fill="#FFFFFF" fill-opacity="1" stroke="#666666" stroke-opacity="1" stroke-width="762" stroke-linecap="butt" stroke-linejoin="round" stroke-miterlimit="8" d="M 315792.2541574641 155349.64548790004 C 315957.21965931274 154409.18630242845 315415.60511070065 153478.1887295524 314397.2375321186 152951.70936220602 313378.8699535366 152425.22999485963 312062.3489840267 152395.6019227335 311006.3230066715 152875.39742911854 310632.2464547777 152328.57544874068 309947.5770151055 151951.0325757936 309159.41394649236 151856.96822482126 308371.2508778792 151762.90387384896 307572.1670191076 151963.36627122044 307003.8697771563 152397.71942018333 306685.2045431441 151901.93542251008 306059.49987842474 151568.83194324342 305348.7882786156 151516.6113883596 304638.07667880645 151464.39083347574 303942.94131024525 151700.44369548888 303510.0522864475 152141.00616536 302934.3370414988 151615.47642115675 302018.35959712125 151394.20654170404 301158.46859025373 151572.94125920572 300298.57758338616 151751.6759767074 299649.21710944944 152298.31294151174 299491.3691296332 152976.3192376278 298786.0203367049 153125.57192121024 298198.4795773181 153504.99201495733 297880.548573019 154016.54951414213 297562.61756871984 154528.10701332692 297545.48463795224 155121.61927463615 297833.57638149936 155643.74173161038 297139.0136163987 156345.009258648 296976.53794990206 157279.43971460153 297406.7824060217 158098.3203014554 297837.0268621413 158917.20088830922 298795.3521168938 159497.5041345772 299924.12825907 159622.67120764166 299932.0843469394 160391.2198955324 300475.41831963777 161096.43093323734 301344.7054908353 161466.4851307393 302213.99266203283 161836.5393282413 303273.4909550524 161813.6514945052 304114.8233700522 161406.64360209633 304473.1863849631 162327.11361256373 305481.8585237188 163004.3866924546 306705.0561307708 163145.8558318009 307928.2537378229 163287.3249711472 309146.6946144188 162867.62904779444 309833.96725490555 162068.09221720416 310676.4196835472 162462.18652084278 311687.29256586736 162575.71259004617 312638.5533538472 162383.06123173004 313589.814141827 162190.40987341394 314401.3332436001 161707.8091029758 314890.048306046 161044.12392736517 315750.92895595473 161122.27459342743 316583.28156704037 160776.26726771693 316974.0125352114 160177.82414022402 317364.74350338243 159579.38101273114 317230.67554921086 158855.89631450493 316638.34611565573 158366.4328964513 317406.27394428954 158015.80471531436 317798.11701513175 157320.04197633622 317609.5445389446 156641.95765276172 317420.97206275753 155963.87332918722 316694.71525784273 155457.123828587 315809.48855653306 155385.95913547897 Z"></path><path stroke="#666666" stroke-opacity="1" stroke-width="762" stroke-linecap="butt" stroke-linejoin="round" stroke-miterlimit="8" d="M 316638.12874681357 158366.36590926134 C 316275.74127265933 158531.8284126265 315857.0987614371 158606.88611538126 315438.41081854067 158581.4612931176 M 314890.01950309076 161044.1168504625 C 314709.96829292655 161027.77181819684 314533.48387796694 160993.15918840937 314365.1176322548 160941.17158963505 M 309834.19014065753 162068.0421750863 C 309960.8264737944 161920.72012780947 310066.85289558227 161763.2937566195 310150.4628459736 161598.4454135924 M 304114.82757571666 161406.56590448722 C 304049.49264784664 161238.75047923924 304007.16126563353 161066.03210893605 303988.5396465466 160891.2922664704 M 299924.29097629664 159622.6580510968 C 299915.8204926793 158804.41934172573 300514.9003691778 158055.23156529354 301464.20816495275 157696.89292407883 M 297833.75881650456 155643.81486160588 C 297987.4962724447 155922.44061198703 298222.19341620605 156169.6055721304 298519.4486720271 156365.93061936417 M 299491.40778779413 152976.3193664605 C 299465.21286708914 153088.83471942818 299453.08983903716 153203.04114912357 299455.206736503 153317.3556819312 M 303510.0225081919 152141.04027323154 C 303653.63486450934 152272.13383995942 303771.9525365324 152418.6291800314 303861.2914797053 152575.96488388954 M 307003.8729256785 152397.6963047859 C 307080.40600858594 152516.76758633222 307137.55586697836 152642.76540891448 307174.006018631 152772.78733500346 M 311006.38477035513 152875.38418685866 C 310782.9303692678 152976.9085999154 310576.20468482294 153099.10411264293 310390.74895439803 153239.28640049175 M 315792.2541574641 155349.64548790004 C 315769.51762951317 155479.26517394077 315733.5927733069 155607.2868109437 315684.81582390214 155732.51219335053"></path></g><g><path fill="#000" fill-opacity="0" stroke="#000" stroke-opacity="0" stroke-width="3882.8025477707006" stroke-linecap="round" stroke-linejoin="round" stroke-miterlimit="10" pointer-events="visiblePainted" d="M 315792.2541574641 155349.64548790004 C 315957.21965931274 154409.18630242845 315415.60511070065 153478.1887295524 314397.2375321186 152951.70936220602 313378.8699535366 152425.22999485963 312062.3489840267 152395.6019227335 311006.3230066715 152875.39742911854 310632.2464547777 152328.57544874068 309947.5770151055 151951.0325757936 309159.41394649236 151856.96822482126 308371.2508778792 151762.90387384896 307572.1670191076 151963.36627122044 307003.8697771563 152397.71942018333 306685.2045431441 151901.93542251008 306059.49987842474 151568.83194324342 305348.7882786156 151516.6113883596 304638.07667880645 151464.39083347574 303942.94131024525 151700.44369548888 303510.0522864475 152141.00616536 302934.3370414988 151615.47642115675 302018.35959712125 151394.20654170404 301158.46859025373 151572.94125920572 300298.57758338616 151751.6759767074 299649.21710944944 152298.31294151174 299491.3691296332 152976.3192376278 298786.0203367049 153125.57192121024 298198.4795773181 153504.99201495733 297880.548573019 154016.54951414213 297562.61756871984 154528.10701332692 297545.48463795224 155121.61927463615 297833.57638149936 155643.74173161038 297139.0136163987 156345.009258648 296976.53794990206 157279.43971460153 297406.7824060217 158098.3203014554 297837.0268621413 158917.20088830922 298795.3521168938 159497.5041345772 299924.12825907 159622.67120764166 299932.0843469394 160391.2198955324 300475.41831963777 161096.43093323734 301344.7054908353 161466.4851307393 302213.99266203283 161836.5393282413 303273.4909550524 161813.6514945052 304114.8233700522 161406.64360209633 304473.1863849631 162327.11361256373 305481.8585237188 163004.3866924546 306705.0561307708 163145.8558318009 307928.2537378229 163287.3249711472 309146.6946144188 162867.62904779444 309833.96725490555 162068.09221720416 310676.4196835472 162462.18652084278 311687.29256586736 162575.71259004617 312638.5533538472 162383.06123173004 313589.814141827 162190.40987341394 314401.3332436001 161707.8091029758 314890.048306046 161044.12392736517 315750.92895595473 161122.27459342743 316583.28156704037 160776.26726771693 316974.0125352114 160177.82414022402 317364.74350338243 159579.38101273114 317230.67554921086 158855.89631450493 316638.34611565573 158366.4328964513 317406.27394428954 158015.80471531436 317798.11701513175 157320.04197633622 317609.5445389446 156641.95765276172 317420.97206275753 155963.87332918722 316694.71525784273 155457.123828587 315809.48855653306 155385.95913547897 Z"></path><path stroke="#000" stroke-opacity="0" stroke-width="3882.8025477707006" stroke-linecap="round" stroke-linejoin="round" stroke-miterlimit="10" pointer-events="visiblePainted" d="M 316638.12874681357 158366.36590926134 C 316275.74127265933 158531.8284126265 315857.0987614371 158606.88611538126 315438.41081854067 158581.4612931176 M 314890.01950309076 161044.1168504625 C 314709.96829292655 161027.77181819684 314533.48387796694 160993.15918840937 314365.1176322548 160941.17158963505 M 309834.19014065753 162068.0421750863 C 309960.8264737944 161920.72012780947 310066.85289558227 161763.2937566195 310150.4628459736 161598.4454135924 M 304114.82757571666 161406.56590448722 C 304049.49264784664 161238.75047923924 304007.16126563353 161066.03210893605 303988.5396465466 160891.2922664704 M 299924.29097629664 159622.6580510968 C 299915.8204926793 158804.41934172573 300514.9003691778 158055.23156529354 301464.20816495275 157696.89292407883 M 297833.75881650456 155643.81486160588 C 297987.4962724447 155922.44061198703 298222.19341620605 156169.6055721304 298519.4486720271 156365.93061936417 M 299491.40778779413 152976.3193664605 C 299465.21286708914 153088.83471942818 299453.08983903716 153203.04114912357 299455.206736503 153317.3556819312 M 303510.0225081919 152141.04027323154 C 303653.63486450934 152272.13383995942 303771.9525365324 152418.6291800314 303861.2914797053 152575.96488388954 M 307003.8729256785 152397.6963047859 C 307080.40600858594 152516.76758633222 307137.55586697836 152642.76540891448 307174.006018631 152772.78733500346 M 311006.38477035513 152875.38418685866 C 310782.9303692678 152976.9085999154 310576.20468482294 153099.10411264293 310390.74895439803 153239.28640049175 M 315792.2541574641 155349.64548790004 C 315769.51762951317 155479.26517394077 315733.5927733069 155607.2868109437 315684.81582390214 155732.51219335053"></path></g><g></g></g></g></g><g id="editor-gb98267064_0_514"><g><g></g><g><path fill="#FFFFFF" fill-opacity="1" d="M 291680.6812835205 168197.98720761717 C 290414.77824326087 167969.61375559567 289018.4968710484 169810.18907514017 288561.99955068965 172309.02724667967 288105.5022303309 174807.86541821918 288761.6552102653 177018.70726145504 290027.55825052486 177247.08071347655 L 299196.03911585687 178901.1075689453 C 300461.9421561165 179129.48102096678 301858.22352832893 177288.9057014223 302314.7208486877 174790.0675298828 302771.21816904645 172291.2293583433 302115.0651891121 170080.38751510743 300849.1621488525 169852.01406308592 Z"></path><path stroke="#666666" stroke-opacity="1" stroke-width="762" stroke-linecap="butt" stroke-linejoin="round" stroke-miterlimit="8" d="M 290027.55825052486 177247.08071347655 C 291293.4612907844 177475.45416549803 292689.7426629969 175634.87884595356 293146.2399833557 173136.04067441405 293602.73730371444 170637.20250287454 292946.58432378 168426.36065963868 291680.6812835205 168197.98720761717"></path><path stroke="#666666" stroke-opacity="1" stroke-width="762" stroke-linecap="butt" stroke-linejoin="round" stroke-miterlimit="8" d="M 291680.6812835205 168197.98720761717 C 290414.77824326087 167969.61375559567 289018.4968710484 169810.18907514017 288561.99955068965 172309.02724667967 288105.5022303309 174807.86541821918 288761.6552102653 177018.70726145504 290027.55825052486 177247.08071347655 L 299196.03911585687 178901.1075689453 C 300461.9421561165 179129.48102096678 301858.22352832893 177288.9057014223 302314.7208486877 174790.0675298828 302771.21816904645 172291.2293583433 302115.0651891121 170080.38751510743 300849.1621488525 169852.01406308592 Z"></path></g><g><path fill="#000" fill-opacity="0" pointer-events="visiblePainted" d="M 291680.6812835205 168197.98720761717 C 290414.77824326087 167969.61375559567 289018.4968710484 169810.18907514017 288561.99955068965 172309.02724667967 288105.5022303309 174807.86541821918 288761.6552102653 177018.70726145504 290027.55825052486 177247.08071347655 L 299196.03911585687 178901.1075689453 C 300461.9421561165 179129.48102096678 301858.22352832893 177288.9057014223 302314.7208486877 174790.0675298828 302771.21816904645 172291.2293583433 302115.0651891121 170080.38751510743 300849.1621488525 169852.01406308592 Z"></path><path stroke="#000" stroke-opacity="0" stroke-width="3882.8025477707006" stroke-linecap="round" stroke-linejoin="round" stroke-miterlimit="10" pointer-events="visiblePainted" d="M 290027.55825052486 177247.08071347655 C 291293.4612907844 177475.45416549803 292689.7426629969 175634.87884595356 293146.2399833557 173136.04067441405 293602.73730371444 170637.20250287454 292946.58432378 168426.36065963868 291680.6812835205 168197.98720761717"></path><path stroke="#000" stroke-opacity="0" stroke-width="3882.8025477707006" stroke-linecap="round" stroke-linejoin="round" stroke-miterlimit="10" pointer-events="visiblePainted" d="M 291680.6812835205 168197.98720761717 C 290414.77824326087 167969.61375559567 289018.4968710484 169810.18907514017 288561.99955068965 172309.02724667967 288105.5022303309 174807.86541821918 288761.6552102653 177018.70726145504 290027.55825052486 177247.08071347655 L 299196.03911585687 178901.1075689453 C 300461.9421561165 179129.48102096678 301858.22352832893 177288.9057014223 302314.7208486877 174790.0675298828 302771.21816904645 172291.2293583433 302115.0651891121 170080.38751510743 300849.1621488525 169852.01406308592 Z"></path></g><g></g></g></g><g id="editor-gb98267064_0_523"><g><g></g><g><path stroke="#666666" stroke-opacity="1" stroke-width="762" stroke-linecap="butt" stroke-linejoin="round" stroke-miterlimit="8" d="M 307109.9286 191288.5469 L 289250.11617408856 185504.54689070166"></path></g><g><path stroke="#000" stroke-opacity="0" stroke-width="3882.8025477707006" stroke-linecap="round" stroke-linejoin="round" stroke-miterlimit="10" pointer-events="visiblePainted" d="M 307109.9286 191288.5469 L 289250.11617408856 185504.54689070166"></path></g></g></g></g></g><g id="editor-gb98267064_0_541"><g></g><g id="editor-gb98267064_0_539"><g><g></g><g><path stroke="#666666" stroke-opacity="1" stroke-width="762" stroke-linecap="butt" stroke-linejoin="round" stroke-miterlimit="8" d="M 49040.98046875 192878.993575 L 38624.980281353 197594.99338688774"></path></g><g><path stroke="#000" stroke-opacity="0" stroke-width="3882.8025477707006" stroke-linecap="round" stroke-linejoin="round" stroke-miterlimit="10" pointer-events="visiblePainted" d="M 49040.98046875 192878.993575 L 38624.980281353 197594.99338688774"></path></g></g></g><g id="editor-gb98267064_0_540"><g><g></g><g><path stroke="#666666" stroke-opacity="1" stroke-width="762" stroke-linecap="butt" stroke-linejoin="round" stroke-miterlimit="8" d="M 38622.5625 196817.9467 L 28206.562312602997 177521.94729223175"></path></g><g><path stroke="#000" stroke-opacity="0" stroke-width="3882.8025477707006" stroke-linecap="round" stroke-linejoin="round" stroke-miterlimit="10" pointer-events="visiblePainted" d="M 38622.5625 196817.9467 L 28206.562312602997 177521.94729223175"></path></g></g></g></g></g></g></svg>