<svg xmlns="http://www.w3.org/2000/svg" xmlns:xlink="http://www.w3.org/1999/xlink" version="1.1" fill-rule="evenodd" fill="none" stroke="none" stroke-linecap="square" stroke-miterlimit="10" overflow="hidden" viewBox="6858 13335 358140 268605"><rect fill="#ffffff" fill-opacity="0" width="100%" height="100%"></rect><g transform="translate(6858 13335) scale(0.98125)"><defs cursor="default"><radialGradient gradientUnits="userSpaceOnUse" gradientTransform="matrix(478.1213235152768,0,0,478.1213235152768,0,0)" cx="382.4970588122215" cy="286.87279410916614" r="478.12132351527686" id="gradient-13955"><stop offset="0%" stop-color="#FFFFFF" stop-opacity="1"></stop><stop offset="30%" stop-color="#FFFFFF" stop-opacity="1"></stop><stop offset="100%" stop-color="#CCCCCC" stop-opacity="1"></stop></radialGradient></defs><g id="editor-gb98267064_0_697"><g></g><path fill="#fff" fill-opacity="1" d="M 0 0 L 365760 0 365760 274320 0 274320 Z"></path><g id="editor-gb98267064_0_697-bg"><g><g></g><g><g><path fill="url(#gradient-13955)" d="M 0 0 L 365760 0 365760 274320 0 274320 Z"></path></g><g></g></g><g></g></g></g><g id="editor-gb9563dfae_0_1"></g><g id="editor-gb9563dfae_0_2"></g><g id="editor-gb9563dfae_0_3"></g><g id="editor-gb9563dfae_0_5"></g><g id="editor-gb9563dfae_0_6"></g><g id="editor-gb9563dfae_0_7"></g><g id="editor-gb98267064_0_708"><g></g><g id="editor-gb98267064_0_704"><g></g><g id="editor-gb98267064_0_698"><g><g></g><g><path fill="#FFFFFF" fill-opacity="1" stroke="#666666" stroke-opacity="1" stroke-width="762" stroke-linecap="butt" stroke-linejoin="round" stroke-miterlimit="8" d="M 42349.42347811999 41314.13041469068 C 42349.42347811999 35687.08406629967 46340.26005900571 31125.461706900005 51263.20646714582 31125.4617069 53627.28870268669 31125.4617069 55894.54428467768 32198.907649482833 57566.20286471128 34109.65368014871 59237.861444744885 36020.39971081459 60176.98945617166 38611.92746387243 60176.98945617166 41314.13041469068 60176.98945617166 46941.17676308168 56186.15287528594 51502.79912248136 51263.20646714582 51502.79912248136 46340.26005900571 51502.79912248136 42349.42347811999 46941.17676308168 42349.42347811999 41314.130414690684 Z"></path></g><g><path fill="#000" fill-opacity="0" stroke="#000" stroke-opacity="0" stroke-width="3882.8025477707006" stroke-linecap="round" stroke-linejoin="round" stroke-miterlimit="10" pointer-events="visiblePainted" d="M 42349.42347811999 41314.13041469068 C 42349.42347811999 35687.08406629967 46340.26005900571 31125.461706900005 51263.20646714582 31125.4617069 53627.28870268669 31125.4617069 55894.54428467768 32198.907649482833 57566.20286471128 34109.65368014871 59237.861444744885 36020.39971081459 60176.98945617166 38611.92746387243 60176.98945617166 41314.13041469068 60176.98945617166 46941.17676308168 56186.15287528594 51502.79912248136 51263.20646714582 51502.79912248136 46340.26005900571 51502.79912248136 42349.42347811999 46941.17676308168 42349.42347811999 41314.130414690684 Z"></path></g><g></g></g></g><g id="editor-gb98267064_0_699"><g><g></g><g><path stroke="#666666" stroke-opacity="1" stroke-width="762" stroke-linecap="butt" stroke-linejoin="round" stroke-miterlimit="8" d="M 51263.2061522 51502.798402500004 L 51263.2061522 95909.64783798203"></path></g><g><path stroke="#000" stroke-opacity="0" stroke-width="3882.8025477707006" stroke-linecap="round" stroke-linejoin="round" stroke-miterlimit="10" pointer-events="visiblePainted" d="M 51263.2061522 51502.798402500004 L 51263.2061522 95909.64783798203"></path></g></g></g><g id="editor-gb98267064_0_700"><g><g></g><g><path stroke="#666666" stroke-opacity="1" stroke-width="762" stroke-linecap="butt" stroke-linejoin="round" stroke-miterlimit="8" d="M 51221.80796372 95909.6480349 L 60925.91992479049 137316.03674963553"></path></g><g><path stroke="#000" stroke-opacity="0" stroke-width="3882.8025477707006" stroke-linecap="round" stroke-linejoin="round" stroke-miterlimit="10" pointer-events="visiblePainted" d="M 51221.80796372 95909.6480349 L 60925.91992479049 137316.03674963553"></path></g></g></g><g id="editor-gb98267064_0_701"><g><g></g><g><path stroke="#666666" stroke-opacity="1" stroke-width="762" stroke-linecap="butt" stroke-linejoin="round" stroke-miterlimit="8" d="M 51361.05641588 96228.51442345 L 41600.49226520611 137867.19327348293"></path></g><g><path stroke="#000" stroke-opacity="0" stroke-width="3882.8025477707006" stroke-linecap="round" stroke-linejoin="round" stroke-miterlimit="10" pointer-events="visiblePainted" d="M 51361.05641588 96228.51442345 L 41600.49226520611 137867.19327348293"></path></g></g></g><g id="editor-gb98267064_0_702"><g><g></g><g><path stroke="#666666" stroke-opacity="1" stroke-width="762" stroke-linecap="butt" stroke-linejoin="round" stroke-miterlimit="8" d="M 51261.79485032 54684.47196245 L 72149.06294350448 89225.28471548413"></path></g><g><path stroke="#000" stroke-opacity="0" stroke-width="3882.8025477707006" stroke-linecap="round" stroke-linejoin="round" stroke-miterlimit="10" pointer-events="visiblePainted" d="M 51261.79485032 54684.47196245 L 72149.06294350448 89225.28471548413"></path></g></g></g><g id="editor-gb98267064_0_703"><g><g></g><g><path stroke="#666666" stroke-opacity="1" stroke-width="762" stroke-linecap="butt" stroke-linejoin="round" stroke-miterlimit="8" d="M 51401.04330248 54843.63629805001 L 30649.26080082428 87635.79051200554"></path></g><g><path stroke="#000" stroke-opacity="0" stroke-width="3882.8025477707006" stroke-linecap="round" stroke-linejoin="round" stroke-miterlimit="10" pointer-events="visiblePainted" d="M 51401.04330248 54843.63629805001 L 30649.26080082428 87635.79051200554"></path></g></g></g></g><g id="editor-gb98267064_0_707"><g></g><g id="editor-gb98267064_0_705"><g><g></g><g><path fill="#FFFFFF" fill-opacity="1" stroke="#666666" stroke-opacity="1" stroke-width="762" stroke-linecap="butt" stroke-linejoin="round" stroke-miterlimit="8" d="M 58791.868705542496 19768.648858600645 L 58791.868705542496 35648.204975429566 C 58791.868705542496 33894.19763994818 55481.29158915706 32472.293752063786 51397.48775663746 32472.293752063786 47313.68392411787 32472.293752063786 44003.10680773244 33894.19763994819 44003.10680773244 35648.20497542957 L 44003.10680773244 19768.648858600645 C 44003.10680773243 18014.641523119266 47313.68392411787 16592.737635234862 51397.48775663746 16592.737635234862 55481.29158915706 16592.737635234862 58791.86870554249 18014.641523119262 58791.868705542496 19768.64885860064 Z"></path></g><g><path fill="#000" fill-opacity="0" stroke="#000" stroke-opacity="0" stroke-width="3882.8025477707006" stroke-linecap="round" stroke-linejoin="round" stroke-miterlimit="10" pointer-events="visiblePainted" d="M 58791.868705542496 19768.648858600645 L 58791.868705542496 35648.204975429566 C 58791.868705542496 33894.19763994818 55481.29158915706 32472.293752063786 51397.48775663746 32472.293752063786 47313.68392411787 32472.293752063786 44003.10680773244 33894.19763994819 44003.10680773244 35648.20497542957 L 44003.10680773244 19768.648858600645 C 44003.10680773243 18014.641523119266 47313.68392411787 16592.737635234862 51397.48775663746 16592.737635234862 55481.29158915706 16592.737635234862 58791.86870554249 18014.641523119262 58791.868705542496 19768.64885860064 Z"></path></g><g></g></g></g><g id="editor-gb98267064_0_706"><g><g></g><g><path fill="#FFFFFF" fill-opacity="1" stroke="#666666" stroke-opacity="1" stroke-width="762" stroke-linecap="butt" stroke-linejoin="round" stroke-miterlimit="8" d="M 42556.05139998661 17926.313696949343 C 42382.06671832648 16927.963960910343 42953.293027868545 15939.658252919719 44027.33794627295 15380.771120399791 45101.38286467735 14821.883987879864 46489.88215217803 14790.432141331483 47603.644371769406 15299.76175876938 47998.1728584433 14719.279811010192 48720.275317253596 14318.497051510489 49551.52972530994 14218.642510862028 50382.78413336629 14118.787970213567 51225.55640532687 14331.589955236685 51824.924234486345 14792.67998265491 52161.0118932662 14266.377692395226 52820.92578850179 13912.769821116066 53570.494213774095 13857.334797470721 54320.0626390464 13801.899773825375 55053.20323180356 14052.483016695089 55509.7596521193 14520.164583635158 56116.95104969512 13962.285528902035 57083.00784509759 13727.395244286196 57989.91178207651 13917.132088580325 58896.81571905543 14106.868932874453 59581.67876056698 14687.154476311323 59748.15678300962 15406.895872022003 60492.06919998009 15565.335897447381 61111.73264984507 15968.111431241938 61447.045936277646 16511.158170717223 61782.35922271022 17054.204910192504 61800.42886437531 17684.251188189 61496.586244383536 18238.513218006785 62229.122927658565 18982.947704187773 62400.481646882516 19974.89760851056 61946.71438102907 20844.18489961513 61492.94711517563 21713.472190719705 60482.227222189 22329.496364531886 59291.737358785715 22462.368174691335 59283.34628671486 23278.22535546214 58710.3065467953 24026.846097564274 57793.49272780187 24419.67921154038 56876.67890880845 24812.512325516487 55759.254531197956 24788.215616927817 54871.92384233438 24356.154100352345 54493.9680008444 25333.284215277145 53430.148602277986 26052.247261181525 52140.0749572706 26202.424621460283 50850.0013122632 26352.60198173904 49564.94446303961 25907.071414577033 48840.09647828643 25058.318596693716 47951.58454113313 25476.671620503872 46885.444077470165 25597.185857563418 45882.1748877443 25392.67572496685 44878.90569801844 25188.165592370293 44023.01830943802 24675.85803110432 43507.58366638058 23971.31930138622 42599.635979480925 24054.280580344224 41721.77604849023 23686.974558321133 41309.68259652503 23051.69389160373 40897.589144559824 22416.413224886324 41038.9870129988 21648.39397571476 41663.70094882251 21128.801332287534 40853.788104588115 20756.590015205882 40440.52174782125 20017.999167739927 40639.40407092282 19298.17494154202 40838.286394024384 18578.350715344117 41604.24992937324 18040.407933799128 42537.87474243082 17964.86265370908 Z"></path><path stroke="#666666" stroke-opacity="1" stroke-width="762" stroke-linecap="butt" stroke-linejoin="round" stroke-miterlimit="8" d="M 41663.930201898955 21128.73022165938 C 42046.130532403105 21304.377872414283 42487.66153875384 21384.05579878316 42929.24046067048 21357.065935758917 M 43507.614044083464 23971.311788860403 C 43697.50921690375 23953.960627959365 43883.64258667271 23917.217396200067 44061.21394149705 23862.02966842258 M 48839.86140667346 25058.265474202133 C 48706.30146922883 24901.874926601937 48594.478251431196 24734.758077140483 48506.29708361462 24559.762391745524 M 54871.91940673311 24356.071620018534 C 54940.82639940351 24177.92621180969 54985.47217064684 23994.576054710837 55005.11189187662 23809.079992472267 M 59291.5657452995 22462.354208287157 C 59300.49933674228 21593.74830583338 58668.66589015174 20798.443809477478 57667.4564688213 20418.047410148472 M 61496.39383508613 18238.590849564654 C 61334.25107171296 18534.367581446146 61086.72230123514 18796.746934563376 60773.21517110028 19005.156892285704 M 59748.116011286125 15406.896008785086 C 59775.743090214164 15526.337314341927 59788.52892211682 15647.573791907045 59786.2962872473 15768.925026938768 M 55509.79105844528 14520.200791037943 C 55358.326965551 14659.363903867317 55233.54049643466 14814.876855786068 55139.31711388737 14981.897456831644 M 51824.92091382454 14792.655444374786 C 51744.203527965714 14919.05623277476 51683.929108114906 15052.809929755684 51645.48611269657 15190.835436439549 M 47603.57923127203 15299.74770137396 C 47839.250583179266 15407.521512872096 48057.27860719676 15537.238846448356 48252.87378229967 15686.050142284692 M 42556.05139998661 17926.313696949343 C 42580.03100501474 18063.912203448417 42617.91998544207 18199.81429200644 42669.36372318991 18332.748000776093"></path></g><g><path fill="#000" fill-opacity="0" stroke="#000" stroke-opacity="0" stroke-width="3882.8025477707006" stroke-linecap="round" stroke-linejoin="round" stroke-miterlimit="10" pointer-events="visiblePainted" d="M 42556.05139998661 17926.313696949343 C 42382.06671832648 16927.963960910343 42953.293027868545 15939.658252919719 44027.33794627295 15380.771120399791 45101.38286467735 14821.883987879864 46489.88215217803 14790.432141331483 47603.644371769406 15299.76175876938 47998.1728584433 14719.279811010192 48720.275317253596 14318.497051510489 49551.52972530994 14218.642510862028 50382.78413336629 14118.787970213567 51225.55640532687 14331.589955236685 51824.924234486345 14792.67998265491 52161.0118932662 14266.377692395226 52820.92578850179 13912.769821116066 53570.494213774095 13857.334797470721 54320.0626390464 13801.899773825375 55053.20323180356 14052.483016695089 55509.7596521193 14520.164583635158 56116.95104969512 13962.285528902035 57083.00784509759 13727.395244286196 57989.91178207651 13917.132088580325 58896.81571905543 14106.868932874453 59581.67876056698 14687.154476311323 59748.15678300962 15406.895872022003 60492.06919998009 15565.335897447381 61111.73264984507 15968.111431241938 61447.045936277646 16511.158170717223 61782.35922271022 17054.204910192504 61800.42886437531 17684.251188189 61496.586244383536 18238.513218006785 62229.122927658565 18982.947704187773 62400.481646882516 19974.89760851056 61946.71438102907 20844.18489961513 61492.94711517563 21713.472190719705 60482.227222189 22329.496364531886 59291.737358785715 22462.368174691335 59283.34628671486 23278.22535546214 58710.3065467953 24026.846097564274 57793.49272780187 24419.67921154038 56876.67890880845 24812.512325516487 55759.254531197956 24788.215616927817 54871.92384233438 24356.154100352345 54493.9680008444 25333.284215277145 53430.148602277986 26052.247261181525 52140.0749572706 26202.424621460283 50850.0013122632 26352.60198173904 49564.94446303961 25907.071414577033 48840.09647828643 25058.318596693716 47951.58454113313 25476.671620503872 46885.444077470165 25597.185857563418 45882.1748877443 25392.67572496685 44878.90569801844 25188.165592370293 44023.01830943802 24675.85803110432 43507.58366638058 23971.31930138622 42599.635979480925 24054.280580344224 41721.77604849023 23686.974558321133 41309.68259652503 23051.69389160373 40897.589144559824 22416.413224886324 41038.9870129988 21648.39397571476 41663.70094882251 21128.801332287534 40853.788104588115 20756.590015205882 40440.52174782125 20017.999167739927 40639.40407092282 19298.17494154202 40838.286394024384 18578.350715344117 41604.24992937324 18040.407933799128 42537.87474243082 17964.86265370908 Z"></path><path stroke="#000" stroke-opacity="0" stroke-width="3882.8025477707006" stroke-linecap="round" stroke-linejoin="round" stroke-miterlimit="10" pointer-events="visiblePainted" d="M 41663.930201898955 21128.73022165938 C 42046.130532403105 21304.377872414283 42487.66153875384 21384.05579878316 42929.24046067048 21357.065935758917 M 43507.614044083464 23971.311788860403 C 43697.50921690375 23953.960627959365 43883.64258667271 23917.217396200067 44061.21394149705 23862.02966842258 M 48839.86140667346 25058.265474202133 C 48706.30146922883 24901.874926601937 48594.478251431196 24734.758077140483 48506.29708361462 24559.762391745524 M 54871.91940673311 24356.071620018534 C 54940.82639940351 24177.92621180969 54985.47217064684 23994.576054710837 55005.11189187662 23809.079992472267 M 59291.5657452995 22462.354208287157 C 59300.49933674228 21593.74830583338 58668.66589015174 20798.443809477478 57667.4564688213 20418.047410148472 M 61496.39383508613 18238.590849564654 C 61334.25107171296 18534.367581446146 61086.72230123514 18796.746934563376 60773.21517110028 19005.156892285704 M 59748.116011286125 15406.896008785086 C 59775.743090214164 15526.337314341927 59788.52892211682 15647.573791907045 59786.2962872473 15768.925026938768 M 55509.79105844528 14520.200791037943 C 55358.326965551 14659.363903867317 55233.54049643466 14814.876855786068 55139.31711388737 14981.897456831644 M 51824.92091382454 14792.655444374786 C 51744.203527965714 14919.05623277476 51683.929108114906 15052.809929755684 51645.48611269657 15190.835436439549 M 47603.57923127203 15299.74770137396 C 47839.250583179266 15407.521512872096 48057.27860719676 15537.238846448356 48252.87378229967 15686.050142284692 M 42556.05139998661 17926.313696949343 C 42580.03100501474 18063.912203448417 42617.91998544207 18199.81429200644 42669.36372318991 18332.748000776093"></path></g><g></g></g></g></g></g><g id="editor-gb98267064_0_719"><g></g><g id="editor-gb98267064_0_715"><g></g><g id="editor-gb98267064_0_709"><g><g></g><g><path fill="#FFFFFF" fill-opacity="1" stroke="#666666" stroke-opacity="1" stroke-width="762" stroke-linecap="butt" stroke-linejoin="round" stroke-miterlimit="8" d="M 293828.42537812004 41314.13041469068 C 293828.42537812004 35687.08406629967 297819.26195900573 31125.461706900005 302742.20836714585 31125.4617069 305106.29060268676 31125.4617069 307373.54618467775 32198.907649482833 309045.2047647113 34109.65368014871 310716.86334474495 36020.39971081459 311655.9913561717 38611.92746387243 311655.9913561717 41314.13041469068 311655.9913561717 46941.17676308168 307665.154775286 51502.79912248136 302742.20836714585 51502.79912248136 297819.2619590058 51502.79912248136 293828.42537812004 46941.17676308168 293828.42537812004 41314.130414690684 Z"></path></g><g><path fill="#000" fill-opacity="0" stroke="#000" stroke-opacity="0" stroke-width="3882.8025477707006" stroke-linecap="round" stroke-linejoin="round" stroke-miterlimit="10" pointer-events="visiblePainted" d="M 293828.42537812004 41314.13041469068 C 293828.42537812004 35687.08406629967 297819.26195900573 31125.461706900005 302742.20836714585 31125.4617069 305106.29060268676 31125.4617069 307373.54618467775 32198.907649482833 309045.2047647113 34109.65368014871 310716.86334474495 36020.39971081459 311655.9913561717 38611.92746387243 311655.9913561717 41314.13041469068 311655.9913561717 46941.17676308168 307665.154775286 51502.79912248136 302742.20836714585 51502.79912248136 297819.2619590058 51502.79912248136 293828.42537812004 46941.17676308168 293828.42537812004 41314.130414690684 Z"></path></g><g></g></g></g><g id="editor-gb98267064_0_710"><g><g></g><g><path stroke="#666666" stroke-opacity="1" stroke-width="762" stroke-linecap="butt" stroke-linejoin="round" stroke-miterlimit="8" d="M 302742.20805220003 51502.798402500004 L 302742.20805220003 95909.64783798203"></path></g><g><path stroke="#000" stroke-opacity="0" stroke-width="3882.8025477707006" stroke-linecap="round" stroke-linejoin="round" stroke-miterlimit="10" pointer-events="visiblePainted" d="M 302742.20805220003 51502.798402500004 L 302742.20805220003 95909.64783798203"></path></g></g></g><g id="editor-gb98267064_0_711"><g><g></g><g><path stroke="#666666" stroke-opacity="1" stroke-width="762" stroke-linecap="butt" stroke-linejoin="round" stroke-miterlimit="8" d="M 302700.80986372003 95909.6480349 L 312404.92182479054 137316.03674963553"></path></g><g><path stroke="#000" stroke-opacity="0" stroke-width="3882.8025477707006" stroke-linecap="round" stroke-linejoin="round" stroke-miterlimit="10" pointer-events="visiblePainted" d="M 302700.80986372003 95909.6480349 L 312404.92182479054 137316.03674963553"></path></g></g></g><g id="editor-gb98267064_0_712"><g><g></g><g><path stroke="#666666" stroke-opacity="1" stroke-width="762" stroke-linecap="butt" stroke-linejoin="round" stroke-miterlimit="8" d="M 302840.05831588 96228.51442345 L 293079.4941652061 137867.19327348293"></path></g><g><path stroke="#000" stroke-opacity="0" stroke-width="3882.8025477707006" stroke-linecap="round" stroke-linejoin="round" stroke-miterlimit="10" pointer-events="visiblePainted" d="M 302840.05831588 96228.51442345 L 293079.4941652061 137867.19327348293"></path></g></g></g><g id="editor-gb98267064_0_713"><g><g></g><g><path stroke="#666666" stroke-opacity="1" stroke-width="762" stroke-linecap="butt" stroke-linejoin="round" stroke-miterlimit="8" d="M 302740.79675032 54684.47196245 L 323628.06484350446 89225.28471548413"></path></g><g><path stroke="#000" stroke-opacity="0" stroke-width="3882.8025477707006" stroke-linecap="round" stroke-linejoin="round" stroke-miterlimit="10" pointer-events="visiblePainted" d="M 302740.79675032 54684.47196245 L 323628.06484350446 89225.28471548413"></path></g></g></g><g id="editor-gb98267064_0_714"><g><g></g><g><path stroke="#666666" stroke-opacity="1" stroke-width="762" stroke-linecap="butt" stroke-linejoin="round" stroke-miterlimit="8" d="M 302880.04520248005 54843.63629805001 L 282128.2627008243 87635.79051200554"></path></g><g><path stroke="#000" stroke-opacity="0" stroke-width="3882.8025477707006" stroke-linecap="round" stroke-linejoin="round" stroke-miterlimit="10" pointer-events="visiblePainted" d="M 302880.04520248005 54843.63629805001 L 282128.2627008243 87635.79051200554"></path></g></g></g></g><g id="editor-gb98267064_0_718"><g></g><g id="editor-gb98267064_0_716"><g><g></g><g><path fill="#FFFFFF" fill-opacity="1" stroke="#666666" stroke-opacity="1" stroke-width="762" stroke-linecap="butt" stroke-linejoin="round" stroke-miterlimit="8" d="M 310270.8706055425 19768.648858600645 L 310270.8706055425 35648.204975429566 C 310270.8706055425 33894.19763994818 306960.29348915705 32472.293752063786 302876.4896566375 32472.293752063786 298792.68582411786 32472.293752063786 295482.10870773246 33894.19763994819 295482.10870773246 35648.20497542957 L 295482.10870773246 19768.648858600645 C 295482.10870773246 18014.641523119266 298792.68582411786 16592.737635234862 302876.4896566375 16592.737635234862 306960.29348915705 16592.737635234862 310270.8706055425 18014.641523119262 310270.8706055425 19768.64885860064 Z"></path></g><g><path fill="#000" fill-opacity="0" stroke="#000" stroke-opacity="0" stroke-width="3882.8025477707006" stroke-linecap="round" stroke-linejoin="round" stroke-miterlimit="10" pointer-events="visiblePainted" d="M 310270.8706055425 19768.648858600645 L 310270.8706055425 35648.204975429566 C 310270.8706055425 33894.19763994818 306960.29348915705 32472.293752063786 302876.4896566375 32472.293752063786 298792.68582411786 32472.293752063786 295482.10870773246 33894.19763994819 295482.10870773246 35648.20497542957 L 295482.10870773246 19768.648858600645 C 295482.10870773246 18014.641523119266 298792.68582411786 16592.737635234862 302876.4896566375 16592.737635234862 306960.29348915705 16592.737635234862 310270.8706055425 18014.641523119262 310270.8706055425 19768.64885860064 Z"></path></g><g></g></g></g><g id="editor-gb98267064_0_717"><g><g></g><g><path fill="#FFFFFF" fill-opacity="1" stroke="#666666" stroke-opacity="1" stroke-width="762" stroke-linecap="butt" stroke-linejoin="round" stroke-miterlimit="8" d="M 294035.0532999866 17926.313696949343 C 293861.06861832645 16927.963960910343 294432.2949278685 15939.658252919719 295506.33984627295 15380.771120399791 296580.3847646773 14821.883987879864 297968.884052178 14790.432141331483 299082.64627176936 15299.76175876938 299477.1747584433 14719.279811010192 300199.2772172536 14318.497051510489 301030.53162530996 14218.642510862028 301861.7860333663 14118.787970213567 302704.55830532685 14331.589955236685 303303.92613448633 14792.67998265491 303640.0137932662 14266.377692395226 304299.9276885018 13912.769821116066 305049.4961137741 13857.334797470721 305799.0645390464 13801.899773825375 306532.2051318035 14052.483016695089 306988.7615521193 14520.164583635158 307595.9529496951 13962.285528902035 308562.0097450976 13727.395244286196 309468.9136820765 13917.132088580325 310375.8176190554 14106.868932874453 311060.68066056696 14687.154476311323 311227.1586830096 15406.895872022003 311971.0710999801 15565.335897447381 312590.73454984504 15968.111431241938 312926.04783627763 16511.158170717223 313261.3611227102 17054.204910192504 313279.4307643753 17684.251188189 312975.5881443835 18238.513218006785 313708.1248276585 18982.947704187773 313879.4835468825 19974.89760851056 313425.71628102905 20844.18489961513 312971.94901517563 21713.472190719705 311961.229122189 22329.496364531886 310770.73925878573 22462.368174691335 310762.34818671487 23278.22535546214 310189.3084467953 24026.846097564274 309272.4946278019 24419.67921154038 308355.6808088084 24812.512325516487 307238.2564311979 24788.215616927817 306350.92574233434 24356.154100352345 305972.9699008444 25333.284215277145 304909.150502278 26052.247261181525 303619.07685727056 26202.424621460283 302329.00321226317 26352.60198173904 301043.9463630396 25907.071414577033 300319.0983782864 25058.318596693716 299430.5864411331 25476.671620503872 298364.44597747014 25597.185857563418 297361.1767877443 25392.67572496685 296357.9075980184 25188.165592370293 295502.020209438 24675.85803110432 294986.5855663806 23971.31930138622 294078.6378794809 24054.280580344224 293200.7779484902 23686.974558321133 292788.68449652503 23051.69389160373 292376.59104455984 22416.413224886324 292517.9889129988 21648.39397571476 293142.7028488225 21128.801332287534 292332.7900045881 20756.590015205882 291919.5236478212 20017.999167739927 292118.4059709228 19298.17494154202 292317.28829402436 18578.350715344117 293083.25182937324 18040.407933799128 294016.8766424308 17964.86265370908 Z"></path><path stroke="#666666" stroke-opacity="1" stroke-width="762" stroke-linecap="butt" stroke-linejoin="round" stroke-miterlimit="8" d="M 293142.93210189894 21128.73022165938 C 293525.1324324031 21304.377872414283 293966.6634387538 21384.05579878316 294408.24236067047 21357.065935758917 M 294986.61594408343 23971.311788860403 C 295176.51111690374 23953.960627959365 295362.6444866727 23917.217396200067 295540.21584149706 23862.02966842258 M 300318.8633066735 25058.265474202133 C 300185.3033692288 24901.874926601937 300073.48015143117 24734.758077140483 299985.2989836146 24559.762391745524 M 306350.9213067331 24356.071620018534 C 306419.8282994035 24177.92621180969 306464.47407064686 23994.576054710837 306484.1137918766 23809.079992472267 M 310770.5676452995 22462.354208287157 C 310779.50123674225 21593.74830583338 310147.6677901517 20798.443809477478 309146.4583688213 20418.047410148472 M 312975.3957350861 18238.590849564654 C 312813.25297171297 18534.367581446146 312565.7242012351 18796.746934563376 312252.21707110025 19005.156892285704 M 311227.1179112861 15406.896008785086 C 311254.7449902141 15526.337314341927 311267.5308221168 15647.573791907045 311265.2981872473 15768.925026938768 M 306988.79295844526 14520.200791037943 C 306837.328865551 14659.363903867317 306712.54239643464 14814.876855786068 306618.3190138874 14981.897456831644 M 303303.92281382455 14792.655444374786 C 303223.2054279657 14919.05623277476 303162.9310081149 15052.809929755684 303124.48801269656 15190.835436439549 M 299082.581131272 15299.74770137396 C 299318.25248317927 15407.521512872096 299536.28050719673 15537.238846448356 299731.87568229967 15686.050142284692 M 294035.0532999866 17926.313696949343 C 294059.0329050147 18063.912203448417 294096.92188544205 18199.81429200644 294148.3656231899 18332.748000776093"></path></g><g><path fill="#000" fill-opacity="0" stroke="#000" stroke-opacity="0" stroke-width="3882.8025477707006" stroke-linecap="round" stroke-linejoin="round" stroke-miterlimit="10" pointer-events="visiblePainted" d="M 294035.0532999866 17926.313696949343 C 293861.06861832645 16927.963960910343 294432.2949278685 15939.658252919719 295506.33984627295 15380.771120399791 296580.3847646773 14821.883987879864 297968.884052178 14790.432141331483 299082.64627176936 15299.76175876938 299477.1747584433 14719.279811010192 300199.2772172536 14318.497051510489 301030.53162530996 14218.642510862028 301861.7860333663 14118.787970213567 302704.55830532685 14331.589955236685 303303.92613448633 14792.67998265491 303640.0137932662 14266.377692395226 304299.9276885018 13912.769821116066 305049.4961137741 13857.334797470721 305799.0645390464 13801.899773825375 306532.2051318035 14052.483016695089 306988.7615521193 14520.164583635158 307595.9529496951 13962.285528902035 308562.0097450976 13727.395244286196 309468.9136820765 13917.132088580325 310375.8176190554 14106.868932874453 311060.68066056696 14687.154476311323 311227.1586830096 15406.895872022003 311971.0710999801 15565.335897447381 312590.73454984504 15968.111431241938 312926.04783627763 16511.158170717223 313261.3611227102 17054.204910192504 313279.4307643753 17684.251188189 312975.5881443835 18238.513218006785 313708.1248276585 18982.947704187773 313879.4835468825 19974.89760851056 313425.71628102905 20844.18489961513 312971.94901517563 21713.472190719705 311961.229122189 22329.496364531886 310770.73925878573 22462.368174691335 310762.34818671487 23278.22535546214 310189.3084467953 24026.846097564274 309272.4946278019 24419.67921154038 308355.6808088084 24812.512325516487 307238.2564311979 24788.215616927817 306350.92574233434 24356.154100352345 305972.9699008444 25333.284215277145 304909.150502278 26052.247261181525 303619.07685727056 26202.424621460283 302329.00321226317 26352.60198173904 301043.9463630396 25907.071414577033 300319.0983782864 25058.318596693716 299430.5864411331 25476.671620503872 298364.44597747014 25597.185857563418 297361.1767877443 25392.67572496685 296357.9075980184 25188.165592370293 295502.020209438 24675.85803110432 294986.5855663806 23971.31930138622 294078.6378794809 24054.280580344224 293200.7779484902 23686.974558321133 292788.68449652503 23051.69389160373 292376.59104455984 22416.413224886324 292517.9889129988 21648.39397571476 293142.7028488225 21128.801332287534 292332.7900045881 20756.590015205882 291919.5236478212 20017.999167739927 292118.4059709228 19298.17494154202 292317.28829402436 18578.350715344117 293083.25182937324 18040.407933799128 294016.8766424308 17964.86265370908 Z"></path><path stroke="#000" stroke-opacity="0" stroke-width="3882.8025477707006" stroke-linecap="round" stroke-linejoin="round" stroke-miterlimit="10" pointer-events="visiblePainted" d="M 293142.93210189894 21128.73022165938 C 293525.1324324031 21304.377872414283 293966.6634387538 21384.05579878316 294408.24236067047 21357.065935758917 M 294986.61594408343 23971.311788860403 C 295176.51111690374 23953.960627959365 295362.6444866727 23917.217396200067 295540.21584149706 23862.02966842258 M 300318.8633066735 25058.265474202133 C 300185.3033692288 24901.874926601937 300073.48015143117 24734.758077140483 299985.2989836146 24559.762391745524 M 306350.9213067331 24356.071620018534 C 306419.8282994035 24177.92621180969 306464.47407064686 23994.576054710837 306484.1137918766 23809.079992472267 M 310770.5676452995 22462.354208287157 C 310779.50123674225 21593.74830583338 310147.6677901517 20798.443809477478 309146.4583688213 20418.047410148472 M 312975.3957350861 18238.590849564654 C 312813.25297171297 18534.367581446146 312565.7242012351 18796.746934563376 312252.21707110025 19005.156892285704 M 311227.1179112861 15406.896008785086 C 311254.7449902141 15526.337314341927 311267.5308221168 15647.573791907045 311265.2981872473 15768.925026938768 M 306988.79295844526 14520.200791037943 C 306837.328865551 14659.363903867317 306712.54239643464 14814.876855786068 306618.3190138874 14981.897456831644 M 303303.92281382455 14792.655444374786 C 303223.2054279657 14919.05623277476 303162.9310081149 15052.809929755684 303124.48801269656 15190.835436439549 M 299082.581131272 15299.74770137396 C 299318.25248317927 15407.521512872096 299536.28050719673 15537.238846448356 299731.87568229967 15686.050142284692 M 294035.0532999866 17926.313696949343 C 294059.0329050147 18063.912203448417 294096.92188544205 18199.81429200644 294148.3656231899 18332.748000776093"></path></g><g></g></g></g></g></g><g id="editor-gb98267064_0_730"><g></g><g id="editor-gb98267064_0_726"><g></g><g id="editor-gb98267064_0_720"><g><g></g><g><path fill="#FFFFFF" fill-opacity="1" stroke="#666666" stroke-opacity="1" stroke-width="762" stroke-linecap="butt" stroke-linejoin="round" stroke-miterlimit="8" d="M 42349.42347811999 172378.12851469067 C 42349.42347811999 166751.08216629966 46340.26005900571 162189.4598069 51263.20646714582 162189.4598069 53627.28870268669 162189.4598069 55894.54428467768 163262.90574948283 57566.20286471128 165173.6517801487 59237.861444744885 167084.39781081458 60176.98945617166 169675.92556387244 60176.98945617166 172378.12851469067 60176.98945617166 178005.1748630817 56186.15287528594 182566.79722248134 51263.20646714582 182566.79722248134 46340.26005900571 182566.79722248134 42349.42347811999 178005.1748630817 42349.42347811999 172378.12851469067 Z"></path></g><g><path fill="#000" fill-opacity="0" stroke="#000" stroke-opacity="0" stroke-width="3882.8025477707006" stroke-linecap="round" stroke-linejoin="round" stroke-miterlimit="10" pointer-events="visiblePainted" d="M 42349.42347811999 172378.12851469067 C 42349.42347811999 166751.08216629966 46340.26005900571 162189.4598069 51263.20646714582 162189.4598069 53627.28870268669 162189.4598069 55894.54428467768 163262.90574948283 57566.20286471128 165173.6517801487 59237.861444744885 167084.39781081458 60176.98945617166 169675.92556387244 60176.98945617166 172378.12851469067 60176.98945617166 178005.1748630817 56186.15287528594 182566.79722248134 51263.20646714582 182566.79722248134 46340.26005900571 182566.79722248134 42349.42347811999 178005.1748630817 42349.42347811999 172378.12851469067 Z"></path></g><g></g></g></g><g id="editor-gb98267064_0_721"><g><g></g><g><path stroke="#666666" stroke-opacity="1" stroke-width="762" stroke-linecap="butt" stroke-linejoin="round" stroke-miterlimit="8" d="M 51263.2061522 182566.79650250002 L 51263.2061522 226973.64593798204"></path></g><g><path stroke="#000" stroke-opacity="0" stroke-width="3882.8025477707006" stroke-linecap="round" stroke-linejoin="round" stroke-miterlimit="10" pointer-events="visiblePainted" d="M 51263.2061522 182566.79650250002 L 51263.2061522 226973.64593798204"></path></g></g></g><g id="editor-gb98267064_0_722"><g><g></g><g><path stroke="#666666" stroke-opacity="1" stroke-width="762" stroke-linecap="butt" stroke-linejoin="round" stroke-miterlimit="8" d="M 51221.80796372 226973.6461349 L 60925.91992479049 268380.0348496355"></path></g><g><path stroke="#000" stroke-opacity="0" stroke-width="3882.8025477707006" stroke-linecap="round" stroke-linejoin="round" stroke-miterlimit="10" pointer-events="visiblePainted" d="M 51221.80796372 226973.6461349 L 60925.91992479049 268380.0348496355"></path></g></g></g><g id="editor-gb98267064_0_723"><g><g></g><g><path stroke="#666666" stroke-opacity="1" stroke-width="762" stroke-linecap="butt" stroke-linejoin="round" stroke-miterlimit="8" d="M 51361.05641588 227292.51252345002 L 41600.49226520611 268931.1913734829"></path></g><g><path stroke="#000" stroke-opacity="0" stroke-width="3882.8025477707006" stroke-linecap="round" stroke-linejoin="round" stroke-miterlimit="10" pointer-events="visiblePainted" d="M 51361.05641588 227292.51252345002 L 41600.49226520611 268931.1913734829"></path></g></g></g><g id="editor-gb98267064_0_724"><g><g></g><g><path stroke="#666666" stroke-opacity="1" stroke-width="762" stroke-linecap="butt" stroke-linejoin="round" stroke-miterlimit="8" d="M 51261.79485032 185748.47006244998 L 72149.06294350448 220289.2828154841"></path></g><g><path stroke="#000" stroke-opacity="0" stroke-width="3882.8025477707006" stroke-linecap="round" stroke-linejoin="round" stroke-miterlimit="10" pointer-events="visiblePainted" d="M 51261.79485032 185748.47006244998 L 72149.06294350448 220289.2828154841"></path></g></g></g><g id="editor-gb98267064_0_725"><g><g></g><g><path stroke="#666666" stroke-opacity="1" stroke-width="762" stroke-linecap="butt" stroke-linejoin="round" stroke-miterlimit="8" d="M 51401.04330248 185907.63439805002 L 30649.26080082428 218699.78861200553"></path></g><g><path stroke="#000" stroke-opacity="0" stroke-width="3882.8025477707006" stroke-linecap="round" stroke-linejoin="round" stroke-miterlimit="10" pointer-events="visiblePainted" d="M 51401.04330248 185907.63439805002 L 30649.26080082428 218699.78861200553"></path></g></g></g></g><g id="editor-gb98267064_0_729"><g></g><g id="editor-gb98267064_0_727"><g><g></g><g><path fill="#FFFFFF" fill-opacity="1" stroke="#666666" stroke-opacity="1" stroke-width="762" stroke-linecap="butt" stroke-linejoin="round" stroke-miterlimit="8" d="M 58791.868705542496 150832.64695860064 L 58791.868705542496 166712.20307542957 C 58791.868705542496 164958.1957399482 55481.29158915706 163536.2918520638 51397.48775663746 163536.2918520638 47313.68392411787 163536.2918520638 44003.10680773244 164958.1957399482 44003.10680773244 166712.20307542957 L 44003.10680773244 150832.64695860064 C 44003.10680773243 149078.63962311926 47313.68392411787 147656.73573523486 51397.48775663746 147656.73573523486 55481.29158915706 147656.73573523486 58791.86870554249 149078.63962311926 58791.868705542496 150832.64695860064 Z"></path></g><g><path fill="#000" fill-opacity="0" stroke="#000" stroke-opacity="0" stroke-width="3882.8025477707006" stroke-linecap="round" stroke-linejoin="round" stroke-miterlimit="10" pointer-events="visiblePainted" d="M 58791.868705542496 150832.64695860064 L 58791.868705542496 166712.20307542957 C 58791.868705542496 164958.1957399482 55481.29158915706 163536.2918520638 51397.48775663746 163536.2918520638 47313.68392411787 163536.2918520638 44003.10680773244 164958.1957399482 44003.10680773244 166712.20307542957 L 44003.10680773244 150832.64695860064 C 44003.10680773243 149078.63962311926 47313.68392411787 147656.73573523486 51397.48775663746 147656.73573523486 55481.29158915706 147656.73573523486 58791.86870554249 149078.63962311926 58791.868705542496 150832.64695860064 Z"></path></g><g></g></g></g><g id="editor-gb98267064_0_728"><g><g></g><g><path fill="#FFFFFF" fill-opacity="1" stroke="#666666" stroke-opacity="1" stroke-width="762" stroke-linecap="butt" stroke-linejoin="round" stroke-miterlimit="8" d="M 42556.05139998661 148990.31179694933 C 42382.06671832648 147991.96206091036 42953.293027868545 147003.65635291973 44027.33794627295 146444.7692203998 45101.38286467735 145885.88208787987 46489.88215217803 145854.4302413315 47603.644371769406 146363.7598587694 47998.1728584433 145783.2779110102 48720.275317253596 145382.4951515105 49551.52972530994 145282.64061086203 50382.78413336629 145182.78607021357 51225.55640532687 145395.58805523667 51824.924234486345 145856.67808265492 52161.0118932662 145330.37579239524 52820.92578850179 144976.76792111606 53570.494213774095 144921.3328974707 54320.0626390464 144865.89787382536 55053.20323180356 145116.4811166951 55509.7596521193 145584.16268363516 56116.95104969512 145026.28362890205 57083.00784509759 144791.3933442862 57989.91178207651 144981.1301885803 58896.81571905543 145170.86703287446 59581.67876056698 145751.15257631132 59748.15678300962 146470.893972022 60492.06919998009 146629.3339974474 61111.73264984507 147032.10953124193 61447.045936277646 147575.1562707172 61782.35922271022 148118.20301019252 61800.42886437531 148748.249288189 61496.586244383536 149302.5113180068 62229.122927658565 150046.94580418777 62400.481646882516 151038.89570851056 61946.71438102907 151908.18299961512 61492.94711517563 152777.4702907197 60482.227222189 153393.4944645319 59291.737358785715 153526.36627469133 59283.34628671486 154342.22345546214 58710.3065467953 155090.84419756426 57793.49272780187 155483.67731154038 56876.67890880845 155876.5104255165 55759.254531197956 155852.21371692783 54871.92384233438 155420.15220035234 54493.9680008444 156397.28231527715 53430.148602277986 157116.24536118153 52140.0749572706 157266.4227214603 50850.0013122632 157416.60008173904 49564.94446303961 156971.06951457704 48840.09647828643 156122.3166966937 47951.58454113313 156540.66972050388 46885.444077470165 156661.18395756342 45882.1748877443 156456.67382496686 44878.90569801844 156252.1636923703 44023.01830943802 155739.85613110432 43507.58366638058 155035.31740138622 42599.635979480925 155118.27868034423 41721.77604849023 154750.97265832114 41309.68259652503 154115.69199160373 40897.589144559824 153480.4113248863 41038.9870129988 152712.39207571477 41663.70094882251 152192.79943228755 40853.788104588115 151820.58811520587 40440.52174782125 151081.99726773993 40639.40407092282 150362.17304154203 40838.286394024384 149642.34881534413 41604.24992937324 149104.40603379914 42537.87474243082 149028.86075370907 Z"></path><path stroke="#666666" stroke-opacity="1" stroke-width="762" stroke-linecap="butt" stroke-linejoin="round" stroke-miterlimit="8" d="M 41663.930201898955 152192.72832165938 C 42046.130532403105 152368.37597241427 42487.66153875384 152448.05389878317 42929.24046067048 152421.06403575893 M 43507.614044083464 155035.3098888604 C 43697.50921690375 155017.95872795937 43883.64258667271 154981.21549620008 44061.21394149705 154926.0277684226 M 48839.86140667346 156122.26357420214 C 48706.30146922883 155965.87302660194 48594.478251431196 155798.7561771405 48506.29708361462 155623.76049174552 M 54871.91940673311 155420.06972001854 C 54940.82639940351 155241.92431180968 54985.47217064684 155058.57415471083 55005.11189187662 154873.07809247228 M 59291.5657452995 153526.35230828717 C 59300.49933674228 152657.74640583337 58668.66589015174 151862.44190947746 57667.4564688213 151482.04551014848 M 61496.39383508613 149302.58894956467 C 61334.25107171296 149598.36568144616 61086.72230123514 149860.74503456338 60773.21517110028 150069.1549922857 M 59748.116011286125 146470.89410878508 C 59775.743090214164 146590.3354143419 59788.52892211682 146711.57189190705 59786.2962872473 146832.92312693878 M 55509.79105844528 145584.19889103793 C 55358.326965551 145723.3620038673 55233.54049643466 145878.87495578607 55139.31711388737 146045.89555683165 M 51824.92091382454 145856.6535443748 C 51744.203527965714 145983.05433277477 51683.929108114906 146116.8080297557 51645.48611269657 146254.83353643955 M 47603.57923127203 146363.74580137397 C 47839.250583179266 146471.5196128721 48057.27860719676 146601.23694644836 48252.87378229967 146750.04824228468 M 42556.05139998661 148990.31179694933 C 42580.03100501474 149127.9103034484 42617.91998544207 149263.81239200645 42669.36372318991 149396.7461007761"></path></g><g><path fill="#000" fill-opacity="0" stroke="#000" stroke-opacity="0" stroke-width="3882.8025477707006" stroke-linecap="round" stroke-linejoin="round" stroke-miterlimit="10" pointer-events="visiblePainted" d="M 42556.05139998661 148990.31179694933 C 42382.06671832648 147991.96206091036 42953.293027868545 147003.65635291973 44027.33794627295 146444.7692203998 45101.38286467735 145885.88208787987 46489.88215217803 145854.4302413315 47603.644371769406 146363.7598587694 47998.1728584433 145783.2779110102 48720.275317253596 145382.4951515105 49551.52972530994 145282.64061086203 50382.78413336629 145182.78607021357 51225.55640532687 145395.58805523667 51824.924234486345 145856.67808265492 52161.0118932662 145330.37579239524 52820.92578850179 144976.76792111606 53570.494213774095 144921.3328974707 54320.0626390464 144865.89787382536 55053.20323180356 145116.4811166951 55509.7596521193 145584.16268363516 56116.95104969512 145026.28362890205 57083.00784509759 144791.3933442862 57989.91178207651 144981.1301885803 58896.81571905543 145170.86703287446 59581.67876056698 145751.15257631132 59748.15678300962 146470.893972022 60492.06919998009 146629.3339974474 61111.73264984507 147032.10953124193 61447.045936277646 147575.1562707172 61782.35922271022 148118.20301019252 61800.42886437531 148748.249288189 61496.586244383536 149302.5113180068 62229.122927658565 150046.94580418777 62400.481646882516 151038.89570851056 61946.71438102907 151908.18299961512 61492.94711517563 152777.4702907197 60482.227222189 153393.4944645319 59291.737358785715 153526.36627469133 59283.34628671486 154342.22345546214 58710.3065467953 155090.84419756426 57793.49272780187 155483.67731154038 56876.67890880845 155876.5104255165 55759.254531197956 155852.21371692783 54871.92384233438 155420.15220035234 54493.9680008444 156397.28231527715 53430.148602277986 157116.24536118153 52140.0749572706 157266.4227214603 50850.0013122632 157416.60008173904 49564.94446303961 156971.06951457704 48840.09647828643 156122.3166966937 47951.58454113313 156540.66972050388 46885.444077470165 156661.18395756342 45882.1748877443 156456.67382496686 44878.90569801844 156252.1636923703 44023.01830943802 155739.85613110432 43507.58366638058 155035.31740138622 42599.635979480925 155118.27868034423 41721.77604849023 154750.97265832114 41309.68259652503 154115.69199160373 40897.589144559824 153480.4113248863 41038.9870129988 152712.39207571477 41663.70094882251 152192.79943228755 40853.788104588115 151820.58811520587 40440.52174782125 151081.99726773993 40639.40407092282 150362.17304154203 40838.286394024384 149642.34881534413 41604.24992937324 149104.40603379914 42537.87474243082 149028.86075370907 Z"></path><path stroke="#000" stroke-opacity="0" stroke-width="3882.8025477707006" stroke-linecap="round" stroke-linejoin="round" stroke-miterlimit="10" pointer-events="visiblePainted" d="M 41663.930201898955 152192.72832165938 C 42046.130532403105 152368.37597241427 42487.66153875384 152448.05389878317 42929.24046067048 152421.06403575893 M 43507.614044083464 155035.3098888604 C 43697.50921690375 155017.95872795937 43883.64258667271 154981.21549620008 44061.21394149705 154926.0277684226 M 48839.86140667346 156122.26357420214 C 48706.30146922883 155965.87302660194 48594.478251431196 155798.7561771405 48506.29708361462 155623.76049174552 M 54871.91940673311 155420.06972001854 C 54940.82639940351 155241.92431180968 54985.47217064684 155058.57415471083 55005.11189187662 154873.07809247228 M 59291.5657452995 153526.35230828717 C 59300.49933674228 152657.74640583337 58668.66589015174 151862.44190947746 57667.4564688213 151482.04551014848 M 61496.39383508613 149302.58894956467 C 61334.25107171296 149598.36568144616 61086.72230123514 149860.74503456338 60773.21517110028 150069.1549922857 M 59748.116011286125 146470.89410878508 C 59775.743090214164 146590.3354143419 59788.52892211682 146711.57189190705 59786.2962872473 146832.92312693878 M 55509.79105844528 145584.19889103793 C 55358.326965551 145723.3620038673 55233.54049643466 145878.87495578607 55139.31711388737 146045.89555683165 M 51824.92091382454 145856.6535443748 C 51744.203527965714 145983.05433277477 51683.929108114906 146116.8080297557 51645.48611269657 146254.83353643955 M 47603.57923127203 146363.74580137397 C 47839.250583179266 146471.5196128721 48057.27860719676 146601.23694644836 48252.87378229967 146750.04824228468 M 42556.05139998661 148990.31179694933 C 42580.03100501474 149127.9103034484 42617.91998544207 149263.81239200645 42669.36372318991 149396.7461007761"></path></g><g></g></g></g></g></g><g id="editor-gb98267064_0_741"><g></g><g id="editor-gb98267064_0_737"><g></g><g id="editor-gb98267064_0_731"><g><g></g><g><path fill="#FFFFFF" fill-opacity="1" stroke="#666666" stroke-opacity="1" stroke-width="762" stroke-linecap="butt" stroke-linejoin="round" stroke-miterlimit="8" d="M 293828.42537812004 172378.12851469067 C 293828.42537812004 166751.08216629966 297819.26195900573 162189.4598069 302742.20836714585 162189.4598069 305106.29060268676 162189.4598069 307373.54618467775 163262.90574948283 309045.2047647113 165173.6517801487 310716.86334474495 167084.39781081458 311655.9913561717 169675.92556387244 311655.9913561717 172378.12851469067 311655.9913561717 178005.1748630817 307665.154775286 182566.79722248134 302742.20836714585 182566.79722248134 297819.2619590058 182566.79722248134 293828.42537812004 178005.1748630817 293828.42537812004 172378.12851469067 Z"></path></g><g><path fill="#000" fill-opacity="0" stroke="#000" stroke-opacity="0" stroke-width="3882.8025477707006" stroke-linecap="round" stroke-linejoin="round" stroke-miterlimit="10" pointer-events="visiblePainted" d="M 293828.42537812004 172378.12851469067 C 293828.42537812004 166751.08216629966 297819.26195900573 162189.4598069 302742.20836714585 162189.4598069 305106.29060268676 162189.4598069 307373.54618467775 163262.90574948283 309045.2047647113 165173.6517801487 310716.86334474495 167084.39781081458 311655.9913561717 169675.92556387244 311655.9913561717 172378.12851469067 311655.9913561717 178005.1748630817 307665.154775286 182566.79722248134 302742.20836714585 182566.79722248134 297819.2619590058 182566.79722248134 293828.42537812004 178005.1748630817 293828.42537812004 172378.12851469067 Z"></path></g><g></g></g></g><g id="editor-gb98267064_0_732"><g><g></g><g><path stroke="#666666" stroke-opacity="1" stroke-width="762" stroke-linecap="butt" stroke-linejoin="round" stroke-miterlimit="8" d="M 302742.20805220003 182566.79650250002 L 302742.20805220003 226973.64593798204"></path></g><g><path stroke="#000" stroke-opacity="0" stroke-width="3882.8025477707006" stroke-linecap="round" stroke-linejoin="round" stroke-miterlimit="10" pointer-events="visiblePainted" d="M 302742.20805220003 182566.79650250002 L 302742.20805220003 226973.64593798204"></path></g></g></g><g id="editor-gb98267064_0_733"><g><g></g><g><path stroke="#666666" stroke-opacity="1" stroke-width="762" stroke-linecap="butt" stroke-linejoin="round" stroke-miterlimit="8" d="M 302700.80986372003 226973.6461349 L 312404.92182479054 268380.0348496355"></path></g><g><path stroke="#000" stroke-opacity="0" stroke-width="3882.8025477707006" stroke-linecap="round" stroke-linejoin="round" stroke-miterlimit="10" pointer-events="visiblePainted" d="M 302700.80986372003 226973.6461349 L 312404.92182479054 268380.0348496355"></path></g></g></g><g id="editor-gb98267064_0_734"><g><g></g><g><path stroke="#666666" stroke-opacity="1" stroke-width="762" stroke-linecap="butt" stroke-linejoin="round" stroke-miterlimit="8" d="M 302840.05831588 227292.51252345002 L 293079.4941652061 268931.1913734829"></path></g><g><path stroke="#000" stroke-opacity="0" stroke-width="3882.8025477707006" stroke-linecap="round" stroke-linejoin="round" stroke-miterlimit="10" pointer-events="visiblePainted" d="M 302840.05831588 227292.51252345002 L 293079.4941652061 268931.1913734829"></path></g></g></g><g id="editor-gb98267064_0_735"><g><g></g><g><path stroke="#666666" stroke-opacity="1" stroke-width="762" stroke-linecap="butt" stroke-linejoin="round" stroke-miterlimit="8" d="M 302740.79675032 185748.47006244998 L 323628.06484350446 220289.2828154841"></path></g><g><path stroke="#000" stroke-opacity="0" stroke-width="3882.8025477707006" stroke-linecap="round" stroke-linejoin="round" stroke-miterlimit="10" pointer-events="visiblePainted" d="M 302740.79675032 185748.47006244998 L 323628.06484350446 220289.2828154841"></path></g></g></g><g id="editor-gb98267064_0_736"><g><g></g><g><path stroke="#666666" stroke-opacity="1" stroke-width="762" stroke-linecap="butt" stroke-linejoin="round" stroke-miterlimit="8" d="M 302880.04520248005 185907.63439805002 L 282128.2627008243 218699.78861200553"></path></g><g><path stroke="#000" stroke-opacity="0" stroke-width="3882.8025477707006" stroke-linecap="round" stroke-linejoin="round" stroke-miterlimit="10" pointer-events="visiblePainted" d="M 302880.04520248005 185907.63439805002 L 282128.2627008243 218699.78861200553"></path></g></g></g></g><g id="editor-gb98267064_0_740"><g></g><g id="editor-gb98267064_0_738"><g><g></g><g><path fill="#FFFFFF" fill-opacity="1" stroke="#666666" stroke-opacity="1" stroke-width="762" stroke-linecap="butt" stroke-linejoin="round" stroke-miterlimit="8" d="M 310270.8706055425 150832.64695860064 L 310270.8706055425 166712.20307542957 C 310270.8706055425 164958.1957399482 306960.29348915705 163536.2918520638 302876.4896566375 163536.2918520638 298792.68582411786 163536.2918520638 295482.10870773246 164958.1957399482 295482.10870773246 166712.20307542957 L 295482.10870773246 150832.64695860064 C 295482.10870773246 149078.63962311926 298792.68582411786 147656.73573523486 302876.4896566375 147656.73573523486 306960.29348915705 147656.73573523486 310270.8706055425 149078.63962311926 310270.8706055425 150832.64695860064 Z"></path></g><g><path fill="#000" fill-opacity="0" stroke="#000" stroke-opacity="0" stroke-width="3882.8025477707006" stroke-linecap="round" stroke-linejoin="round" stroke-miterlimit="10" pointer-events="visiblePainted" d="M 310270.8706055425 150832.64695860064 L 310270.8706055425 166712.20307542957 C 310270.8706055425 164958.1957399482 306960.29348915705 163536.2918520638 302876.4896566375 163536.2918520638 298792.68582411786 163536.2918520638 295482.10870773246 164958.1957399482 295482.10870773246 166712.20307542957 L 295482.10870773246 150832.64695860064 C 295482.10870773246 149078.63962311926 298792.68582411786 147656.73573523486 302876.4896566375 147656.73573523486 306960.29348915705 147656.73573523486 310270.8706055425 149078.63962311926 310270.8706055425 150832.64695860064 Z"></path></g><g></g></g></g><g id="editor-gb98267064_0_739"><g><g></g><g><path fill="#FFFFFF" fill-opacity="1" stroke="#666666" stroke-opacity="1" stroke-width="762" stroke-linecap="butt" stroke-linejoin="round" stroke-miterlimit="8" d="M 294035.0532999866 148990.31179694933 C 293861.06861832645 147991.96206091036 294432.2949278685 147003.65635291973 295506.33984627295 146444.7692203998 296580.3847646773 145885.88208787987 297968.884052178 145854.4302413315 299082.64627176936 146363.7598587694 299477.1747584433 145783.2779110102 300199.2772172536 145382.4951515105 301030.53162530996 145282.64061086203 301861.7860333663 145182.78607021357 302704.55830532685 145395.58805523667 303303.92613448633 145856.67808265492 303640.0137932662 145330.37579239524 304299.9276885018 144976.76792111606 305049.4961137741 144921.3328974707 305799.0645390464 144865.89787382536 306532.2051318035 145116.4811166951 306988.7615521193 145584.16268363516 307595.9529496951 145026.28362890205 308562.0097450976 144791.3933442862 309468.9136820765 144981.1301885803 310375.8176190554 145170.86703287446 311060.68066056696 145751.15257631132 311227.1586830096 146470.893972022 311971.0710999801 146629.3339974474 312590.73454984504 147032.10953124193 312926.04783627763 147575.1562707172 313261.3611227102 148118.20301019252 313279.4307643753 148748.249288189 312975.5881443835 149302.5113180068 313708.1248276585 150046.94580418777 313879.4835468825 151038.89570851056 313425.71628102905 151908.18299961512 312971.94901517563 152777.4702907197 311961.229122189 153393.4944645319 310770.73925878573 153526.36627469133 310762.34818671487 154342.22345546214 310189.3084467953 155090.84419756426 309272.4946278019 155483.67731154038 308355.6808088084 155876.5104255165 307238.2564311979 155852.21371692783 306350.92574233434 155420.15220035234 305972.9699008444 156397.28231527715 304909.150502278 157116.24536118153 303619.07685727056 157266.4227214603 302329.00321226317 157416.60008173904 301043.9463630396 156971.06951457704 300319.0983782864 156122.3166966937 299430.5864411331 156540.66972050388 298364.44597747014 156661.18395756342 297361.1767877443 156456.67382496686 296357.9075980184 156252.1636923703 295502.020209438 155739.85613110432 294986.5855663806 155035.31740138622 294078.6378794809 155118.27868034423 293200.7779484902 154750.97265832114 292788.68449652503 154115.69199160373 292376.59104455984 153480.4113248863 292517.9889129988 152712.39207571477 293142.7028488225 152192.79943228755 292332.7900045881 151820.58811520587 291919.5236478212 151081.99726773993 292118.4059709228 150362.17304154203 292317.28829402436 149642.34881534413 293083.25182937324 149104.40603379914 294016.8766424308 149028.86075370907 Z"></path><path stroke="#666666" stroke-opacity="1" stroke-width="762" stroke-linecap="butt" stroke-linejoin="round" stroke-miterlimit="8" d="M 293142.93210189894 152192.72832165938 C 293525.1324324031 152368.37597241427 293966.6634387538 152448.05389878317 294408.24236067047 152421.06403575893 M 294986.61594408343 155035.3098888604 C 295176.51111690374 155017.95872795937 295362.6444866727 154981.21549620008 295540.21584149706 154926.0277684226 M 300318.8633066735 156122.26357420214 C 300185.3033692288 155965.87302660194 300073.48015143117 155798.7561771405 299985.2989836146 155623.76049174552 M 306350.9213067331 155420.06972001854 C 306419.8282994035 155241.92431180968 306464.47407064686 155058.57415471083 306484.1137918766 154873.07809247228 M 310770.5676452995 153526.35230828717 C 310779.50123674225 152657.74640583337 310147.6677901517 151862.44190947746 309146.4583688213 151482.04551014848 M 312975.3957350861 149302.58894956467 C 312813.25297171297 149598.36568144616 312565.7242012351 149860.74503456338 312252.21707110025 150069.1549922857 M 311227.1179112861 146470.89410878508 C 311254.7449902141 146590.3354143419 311267.5308221168 146711.57189190705 311265.2981872473 146832.92312693878 M 306988.79295844526 145584.19889103793 C 306837.328865551 145723.3620038673 306712.54239643464 145878.87495578607 306618.3190138874 146045.89555683165 M 303303.92281382455 145856.6535443748 C 303223.2054279657 145983.05433277477 303162.9310081149 146116.8080297557 303124.48801269656 146254.83353643955 M 299082.581131272 146363.74580137397 C 299318.25248317927 146471.5196128721 299536.28050719673 146601.23694644836 299731.87568229967 146750.04824228468 M 294035.0532999866 148990.31179694933 C 294059.0329050147 149127.9103034484 294096.92188544205 149263.81239200645 294148.3656231899 149396.7461007761"></path></g><g><path fill="#000" fill-opacity="0" stroke="#000" stroke-opacity="0" stroke-width="3882.8025477707006" stroke-linecap="round" stroke-linejoin="round" stroke-miterlimit="10" pointer-events="visiblePainted" d="M 294035.0532999866 148990.31179694933 C 293861.06861832645 147991.96206091036 294432.2949278685 147003.65635291973 295506.33984627295 146444.7692203998 296580.3847646773 145885.88208787987 297968.884052178 145854.4302413315 299082.64627176936 146363.7598587694 299477.1747584433 145783.2779110102 300199.2772172536 145382.4951515105 301030.53162530996 145282.64061086203 301861.7860333663 145182.78607021357 302704.55830532685 145395.58805523667 303303.92613448633 145856.67808265492 303640.0137932662 145330.37579239524 304299.9276885018 144976.76792111606 305049.4961137741 144921.3328974707 305799.0645390464 144865.89787382536 306532.2051318035 145116.4811166951 306988.7615521193 145584.16268363516 307595.9529496951 145026.28362890205 308562.0097450976 144791.3933442862 309468.9136820765 144981.1301885803 310375.8176190554 145170.86703287446 311060.68066056696 145751.15257631132 311227.1586830096 146470.893972022 311971.0710999801 146629.3339974474 312590.73454984504 147032.10953124193 312926.04783627763 147575.1562707172 313261.3611227102 148118.20301019252 313279.4307643753 148748.249288189 312975.5881443835 149302.5113180068 313708.1248276585 150046.94580418777 313879.4835468825 151038.89570851056 313425.71628102905 151908.18299961512 312971.94901517563 152777.4702907197 311961.229122189 153393.4944645319 310770.73925878573 153526.36627469133 310762.34818671487 154342.22345546214 310189.3084467953 155090.84419756426 309272.4946278019 155483.67731154038 308355.6808088084 155876.5104255165 307238.2564311979 155852.21371692783 306350.92574233434 155420.15220035234 305972.9699008444 156397.28231527715 304909.150502278 157116.24536118153 303619.07685727056 157266.4227214603 302329.00321226317 157416.60008173904 301043.9463630396 156971.06951457704 300319.0983782864 156122.3166966937 299430.5864411331 156540.66972050388 298364.44597747014 156661.18395756342 297361.1767877443 156456.67382496686 296357.9075980184 156252.1636923703 295502.020209438 155739.85613110432 294986.5855663806 155035.31740138622 294078.6378794809 155118.27868034423 293200.7779484902 154750.97265832114 292788.68449652503 154115.69199160373 292376.59104455984 153480.4113248863 292517.9889129988 152712.39207571477 293142.7028488225 152192.79943228755 292332.7900045881 151820.58811520587 291919.5236478212 151081.99726773993 292118.4059709228 150362.17304154203 292317.28829402436 149642.34881534413 293083.25182937324 149104.40603379914 294016.8766424308 149028.86075370907 Z"></path><path stroke="#000" stroke-opacity="0" stroke-width="3882.8025477707006" stroke-linecap="round" stroke-linejoin="round" stroke-miterlimit="10" pointer-events="visiblePainted" d="M 293142.93210189894 152192.72832165938 C 293525.1324324031 152368.37597241427 293966.6634387538 152448.05389878317 294408.24236067047 152421.06403575893 M 294986.61594408343 155035.3098888604 C 295176.51111690374 155017.95872795937 295362.6444866727 154981.21549620008 295540.21584149706 154926.0277684226 M 300318.8633066735 156122.26357420214 C 300185.3033692288 155965.87302660194 300073.48015143117 155798.7561771405 299985.2989836146 155623.76049174552 M 306350.9213067331 155420.06972001854 C 306419.8282994035 155241.92431180968 306464.47407064686 155058.57415471083 306484.1137918766 154873.07809247228 M 310770.5676452995 153526.35230828717 C 310779.50123674225 152657.74640583337 310147.6677901517 151862.44190947746 309146.4583688213 151482.04551014848 M 312975.3957350861 149302.58894956467 C 312813.25297171297 149598.36568144616 312565.7242012351 149860.74503456338 312252.21707110025 150069.1549922857 M 311227.1179112861 146470.89410878508 C 311254.7449902141 146590.3354143419 311267.5308221168 146711.57189190705 311265.2981872473 146832.92312693878 M 306988.79295844526 145584.19889103793 C 306837.328865551 145723.3620038673 306712.54239643464 145878.87495578607 306618.3190138874 146045.89555683165 M 303303.92281382455 145856.6535443748 C 303223.2054279657 145983.05433277477 303162.9310081149 146116.8080297557 303124.48801269656 146254.83353643955 M 299082.581131272 146363.74580137397 C 299318.25248317927 146471.5196128721 299536.28050719673 146601.23694644836 299731.87568229967 146750.04824228468 M 294035.0532999866 148990.31179694933 C 294059.0329050147 149127.9103034484 294096.92188544205 149263.81239200645 294148.3656231899 149396.7461007761"></path></g><g></g></g></g></g></g><g id="editor-gb98267064_0_742"><g><g></g><g><path fill="#00FF00" fill-opacity="1" stroke="#666666" stroke-opacity="1" stroke-width="762" stroke-linecap="butt" stroke-linejoin="round" stroke-miterlimit="8" d="M 92051.26684379578 74305.58857250214 L 124929.75464051719 71379.39552525114 113541.10598946566 84994.67203318904 183792.25329041173 143769.0821741849 210156.901535198 112249.80478791294 196542.77535635477 100859.78104468752 229421.26315307617 97933.58799743652 232347.75176232812 130815.39670685361 218733.62558348486 119425.3729636282 192368.97733869858 150944.65034990016 262620.12463964464 209719.060490896 274008.7732906962 196103.7839829581 276935.2618999481 228985.59269237518 244056.7741032267 231911.78573962618 255445.42275427823 218296.50923168828 106366.40410409923 93572.12077398131 94977.7554530477 107187.39728191923 Z"></path></g><g><path fill="#000" fill-opacity="0" stroke="#000" stroke-opacity="0" stroke-width="3882.8025477707006" stroke-linecap="round" stroke-linejoin="round" stroke-miterlimit="10" pointer-events="visiblePainted" d="M 92051.26684379578 74305.58857250214 L 124929.75464051719 71379.39552525114 113541.10598946566 84994.67203318904 183792.25329041173 143769.0821741849 210156.901535198 112249.80478791294 196542.77535635477 100859.78104468752 229421.26315307617 97933.58799743652 232347.75176232812 130815.39670685361 218733.62558348486 119425.3729636282 192368.97733869858 150944.65034990016 262620.12463964464 209719.060490896 274008.7732906962 196103.7839829581 276935.2618999481 228985.59269237518 244056.7741032267 231911.78573962618 255445.42275427823 218296.50923168828 106366.40410409923 93572.12077398131 94977.7554530477 107187.39728191923 Z"></path></g><g></g></g></g><g id="editor-gb98267064_0_743"><g><g></g><g><path fill="#FF0000" fill-opacity="1" stroke="#666666" stroke-opacity="1" stroke-width="762" stroke-linecap="butt" stroke-linejoin="round" stroke-miterlimit="8" d="M 19231.493630236357 207366.01953797435 L 21613.833039933474 199364.4840867629 51398.999656677246 208232.579052801 81184.16627342101 199364.4840867629 83566.50568311814 207366.01953797435 66027.50102727982 212588.0000257492 83566.50568311814 217809.98051352406 81184.16627342101 225811.5159647355 51398.999656677246 216943.4209986974 21613.833039933474 225811.5159647355 19231.493630236357 217809.98051352406 36770.49828607468 212588.0000257492 Z"></path></g><g><path fill="#000" fill-opacity="0" stroke="#000" stroke-opacity="0" stroke-width="3882.8025477707006" stroke-linecap="round" stroke-linejoin="round" stroke-miterlimit="10" pointer-events="visiblePainted" d="M 19231.493630236357 207366.01953797435 L 21613.833039933474 199364.4840867629 51398.999656677246 208232.579052801 81184.16627342101 199364.4840867629 83566.50568311814 207366.01953797435 66027.50102727982 212588.0000257492 83566.50568311814 217809.98051352406 81184.16627342101 225811.5159647355 51398.999656677246 216943.4209986974 21613.833039933474 225811.5159647355 19231.493630236357 217809.98051352406 36770.49828607468 212588.0000257492 Z"></path></g><g></g></g></g></g></g></svg>