<svg xmlns="http://www.w3.org/2000/svg" xmlns:xlink="http://www.w3.org/1999/xlink" version="1.1" fill-rule="evenodd" fill="none" stroke="none" stroke-linecap="square" stroke-miterlimit="10" overflow="hidden" viewBox="6858 13335 358140 268605"><rect fill="#ffffff" fill-opacity="0" width="100%" height="100%"></rect><g transform="translate(6858 13335) scale(0.98125)"><defs cursor="default"><radialGradient gradientUnits="userSpaceOnUse" gradientTransform="matrix(478.1213235152768,0,0,478.1213235152768,0,0)" cx="382.4970588122215" cy="286.87279410916614" r="478.12132351527686" id="gradient-18165"><stop offset="0%" stop-color="#FFFFFF" stop-opacity="1"></stop><stop offset="30%" stop-color="#FFFFFF" stop-opacity="1"></stop><stop offset="100%" stop-color="#CCCCCC" stop-opacity="1"></stop></radialGradient></defs><g id="editor-gb9924d217_0_0"><g></g><path fill="#fff" fill-opacity="1" d="M 0 0 L 365760 0 365760 274320 0 274320 Z"></path><g id="editor-gb9924d217_0_0-bg"><g><g></g><g><g><path fill="url(#gradient-18165)" d="M 0 0 L 365760 0 365760 274320 0 274320 Z"></path></g><g></g></g><g></g></g></g><g id="editor-gb9563dfae_0_1"></g><g id="editor-gb9563dfae_0_2"></g><g id="editor-gb9563dfae_0_3"></g><g id="editor-gb9563dfae_0_5"></g><g id="editor-gb9563dfae_0_6"></g><g id="editor-gb9563dfae_0_7"></g><g id="editor-gb9924d217_0_2"><g><g></g><g><g></g><g><g><g><clipPath id="e118_25"><path d="M 131254 78486 L 295465 78486 295465 195834 131254 195834 Z"></path></clipPath><g clip-path="url(#e118_25)"><image fill="#000000" width="431" height="308" preserveAspectRatio="none" transform="matrix(381,0,0,381,131254,78486)" x="0" y="0" xmlns:xlink="http://www.w3.org/1999/xlink" xlink:href="filesystem:https://docs.google.com/persistent/docs/documents/1XEj6tgt0NbBzzMKIlJ2kuMWH41hY7IkUdCmUWahipdA/image/1zMv05Em29SS8ZS1tPlrJ29Oh1Qwuy3YMbtVlTBE6"></image></g></g></g></g><g></g></g><g><path stroke="#000" stroke-opacity="0" stroke-width="3882.8025477707006" stroke-linecap="round" stroke-linejoin="round" stroke-miterlimit="10" pointer-events="visiblePainted" d="M 131254 78486 L 295465 78486 295465 195834 131254 195834 Z"></path><path fill="#000" fill-opacity="0" pointer-events="visiblePainted" d="M 131254 78486 L 295465 78486 295465 195834 131254 195834 Z"></path></g></g></g><g id="editor-gb9924d217_0_5"><g><g></g><g><g></g><g><g><g><clipPath id="e118_41"><path d="M 64198.5 78486 L 228409.5 78486 228409.5 195834 64198.5 195834 Z"></path></clipPath><g clip-path="url(#e118_41)"><image fill="#000000" width="431" height="308" preserveAspectRatio="none" transform="matrix(381,0,0,381,64198.5,78486)" x="0" y="0" xmlns:xlink="http://www.w3.org/1999/xlink" xlink:href="filesystem:https://docs.google.com/persistent/docs/documents/1XEj6tgt0NbBzzMKIlJ2kuMWH41hY7IkUdCmUWahipdA/image/1H0yTsrV6QwkJpr3PBLHrFJiI3ZAWmZCYodxTvaRz"></image></g></g></g></g><g></g></g><g><path stroke="#000" stroke-opacity="0" stroke-width="3882.8025477707006" stroke-linecap="round" stroke-linejoin="round" stroke-miterlimit="10" pointer-events="visiblePainted" d="M 64198.5 78486 L 228409.5 78486 228409.5 195834 64198.5 195834 Z"></path><path fill="#000" fill-opacity="0" pointer-events="visiblePainted" d="M 64198.5 78486 L 228409.5 78486 228409.5 195834 64198.5 195834 Z"></path></g></g></g></g></g></svg>