<svg xmlns="http://www.w3.org/2000/svg" xmlns:xlink="http://www.w3.org/1999/xlink" version="1.1" fill-rule="evenodd" fill="none" stroke="none" stroke-linecap="square" stroke-miterlimit="10" overflow="hidden" viewBox="6858 13335 358140 268605"><rect fill="#ffffff" fill-opacity="0" width="100%" height="100%"></rect><g transform="translate(6858 13335) scale(0.98125)"><defs cursor="default"><radialGradient gradientUnits="userSpaceOnUse" gradientTransform="matrix(478.1213235152768,0,0,478.1213235152768,0,0)" cx="382.4970588122215" cy="286.87279410916614" r="478.12132351527686" id="gradient-18417"><stop offset="0%" stop-color="#FFFFFF" stop-opacity="1"></stop><stop offset="30%" stop-color="#FFFFFF" stop-opacity="1"></stop><stop offset="100%" stop-color="#CCCCCC" stop-opacity="1"></stop></radialGradient></defs><g id="editor-gb9924d217_0_91"><g></g><path fill="#fff" fill-opacity="1" d="M 0 0 L 365760 0 365760 274320 0 274320 Z"></path><g id="editor-gb9924d217_0_91-bg"><g><g></g><g><g><path fill="url(#gradient-18417)" d="M 0 0 L 365760 0 365760 274320 0 274320 Z"></path></g><g></g></g><g></g></g></g><g id="editor-gb9563dfae_0_1"></g><g id="editor-gb9563dfae_0_2"></g><g id="editor-gb9563dfae_0_3"></g><g id="editor-gb9563dfae_0_5"></g><g id="editor-gb9563dfae_0_6"></g><g id="editor-gb9563dfae_0_7"></g><g id="editor-gb9924d217_0_102"><g></g><g id="editor-gb9924d217_0_98"><g></g><g id="editor-gb9924d217_0_92"><g><g></g><g><path fill="#FFFFFF" fill-opacity="1" stroke="#666666" stroke-opacity="1" stroke-width="762" stroke-linecap="butt" stroke-linejoin="round" stroke-miterlimit="8" d="M 42349.42347811999 41314.13041469068 C 42349.42347811999 35687.08406629967 46340.26005900571 31125.461706900005 51263.20646714582 31125.4617069 53627.28870268669 31125.4617069 55894.54428467768 32198.907649482833 57566.20286471128 34109.65368014871 59237.861444744885 36020.39971081459 60176.98945617166 38611.92746387243 60176.98945617166 41314.13041469068 60176.98945617166 46941.17676308168 56186.15287528594 51502.79912248136 51263.20646714582 51502.79912248136 46340.26005900571 51502.79912248136 42349.42347811999 46941.17676308168 42349.42347811999 41314.130414690684 Z"></path></g><g><path fill="#000" fill-opacity="0" stroke="#000" stroke-opacity="0" stroke-width="3882.8025477707006" stroke-linecap="round" stroke-linejoin="round" stroke-miterlimit="10" pointer-events="visiblePainted" d="M 42349.42347811999 41314.13041469068 C 42349.42347811999 35687.08406629967 46340.26005900571 31125.461706900005 51263.20646714582 31125.4617069 53627.28870268669 31125.4617069 55894.54428467768 32198.907649482833 57566.20286471128 34109.65368014871 59237.861444744885 36020.39971081459 60176.98945617166 38611.92746387243 60176.98945617166 41314.13041469068 60176.98945617166 46941.17676308168 56186.15287528594 51502.79912248136 51263.20646714582 51502.79912248136 46340.26005900571 51502.79912248136 42349.42347811999 46941.17676308168 42349.42347811999 41314.130414690684 Z"></path></g><g></g></g></g><g id="editor-gb9924d217_0_93"><g><g></g><g><path stroke="#666666" stroke-opacity="1" stroke-width="762" stroke-linecap="butt" stroke-linejoin="round" stroke-miterlimit="8" d="M 51263.2061522 51502.798402500004 L 51263.2061522 95909.64783798203"></path></g><g><path stroke="#000" stroke-opacity="0" stroke-width="3882.8025477707006" stroke-linecap="round" stroke-linejoin="round" stroke-miterlimit="10" pointer-events="visiblePainted" d="M 51263.2061522 51502.798402500004 L 51263.2061522 95909.64783798203"></path></g></g></g><g id="editor-gb9924d217_0_94"><g><g></g><g><path stroke="#666666" stroke-opacity="1" stroke-width="762" stroke-linecap="butt" stroke-linejoin="round" stroke-miterlimit="8" d="M 51221.80796372 95909.6480349 L 60925.91992479049 137316.03674963553"></path></g><g><path stroke="#000" stroke-opacity="0" stroke-width="3882.8025477707006" stroke-linecap="round" stroke-linejoin="round" stroke-miterlimit="10" pointer-events="visiblePainted" d="M 51221.80796372 95909.6480349 L 60925.91992479049 137316.03674963553"></path></g></g></g><g id="editor-gb9924d217_0_95"><g><g></g><g><path stroke="#666666" stroke-opacity="1" stroke-width="762" stroke-linecap="butt" stroke-linejoin="round" stroke-miterlimit="8" d="M 51361.05641588 96228.51442345 L 41600.49226520611 137867.19327348293"></path></g><g><path stroke="#000" stroke-opacity="0" stroke-width="3882.8025477707006" stroke-linecap="round" stroke-linejoin="round" stroke-miterlimit="10" pointer-events="visiblePainted" d="M 51361.05641588 96228.51442345 L 41600.49226520611 137867.19327348293"></path></g></g></g><g id="editor-gb9924d217_0_96"><g><g></g><g><path stroke="#666666" stroke-opacity="1" stroke-width="762" stroke-linecap="butt" stroke-linejoin="round" stroke-miterlimit="8" d="M 51261.79485032 54684.47196245 L 72149.06294350448 89225.28471548413"></path></g><g><path stroke="#000" stroke-opacity="0" stroke-width="3882.8025477707006" stroke-linecap="round" stroke-linejoin="round" stroke-miterlimit="10" pointer-events="visiblePainted" d="M 51261.79485032 54684.47196245 L 72149.06294350448 89225.28471548413"></path></g></g></g><g id="editor-gb9924d217_0_97"><g><g></g><g><path stroke="#666666" stroke-opacity="1" stroke-width="762" stroke-linecap="butt" stroke-linejoin="round" stroke-miterlimit="8" d="M 51401.04330248 54843.63629805001 L 30649.26080082428 87635.79051200554"></path></g><g><path stroke="#000" stroke-opacity="0" stroke-width="3882.8025477707006" stroke-linecap="round" stroke-linejoin="round" stroke-miterlimit="10" pointer-events="visiblePainted" d="M 51401.04330248 54843.63629805001 L 30649.26080082428 87635.79051200554"></path></g></g></g></g><g id="editor-gb9924d217_0_101"><g></g><g id="editor-gb9924d217_0_99"><g><g></g><g><path fill="#FFFFFF" fill-opacity="1" stroke="#666666" stroke-opacity="1" stroke-width="762" stroke-linecap="butt" stroke-linejoin="round" stroke-miterlimit="8" d="M 58791.868705542496 19768.648858600645 L 58791.868705542496 35648.204975429566 C 58791.868705542496 33894.19763994818 55481.29158915706 32472.293752063786 51397.48775663746 32472.293752063786 47313.68392411787 32472.293752063786 44003.10680773244 33894.19763994819 44003.10680773244 35648.20497542957 L 44003.10680773244 19768.648858600645 C 44003.10680773243 18014.641523119266 47313.68392411787 16592.737635234862 51397.48775663746 16592.737635234862 55481.29158915706 16592.737635234862 58791.86870554249 18014.641523119262 58791.868705542496 19768.64885860064 Z"></path></g><g><path fill="#000" fill-opacity="0" stroke="#000" stroke-opacity="0" stroke-width="3882.8025477707006" stroke-linecap="round" stroke-linejoin="round" stroke-miterlimit="10" pointer-events="visiblePainted" d="M 58791.868705542496 19768.648858600645 L 58791.868705542496 35648.204975429566 C 58791.868705542496 33894.19763994818 55481.29158915706 32472.293752063786 51397.48775663746 32472.293752063786 47313.68392411787 32472.293752063786 44003.10680773244 33894.19763994819 44003.10680773244 35648.20497542957 L 44003.10680773244 19768.648858600645 C 44003.10680773243 18014.641523119266 47313.68392411787 16592.737635234862 51397.48775663746 16592.737635234862 55481.29158915706 16592.737635234862 58791.86870554249 18014.641523119262 58791.868705542496 19768.64885860064 Z"></path></g><g></g></g></g><g id="editor-gb9924d217_0_100"><g><g></g><g><path fill="#FFFFFF" fill-opacity="1" stroke="#666666" stroke-opacity="1" stroke-width="762" stroke-linecap="butt" stroke-linejoin="round" stroke-miterlimit="8" d="M 42556.05139998661 17926.313696949343 C 42382.06671832648 16927.963960910343 42953.293027868545 15939.658252919719 44027.33794627295 15380.771120399791 45101.38286467735 14821.883987879864 46489.88215217803 14790.432141331483 47603.644371769406 15299.76175876938 47998.1728584433 14719.279811010192 48720.275317253596 14318.497051510489 49551.52972530994 14218.642510862028 50382.78413336629 14118.787970213567 51225.55640532687 14331.589955236685 51824.924234486345 14792.67998265491 52161.0118932662 14266.377692395226 52820.92578850179 13912.769821116066 53570.494213774095 13857.334797470721 54320.0626390464 13801.899773825375 55053.20323180356 14052.483016695089 55509.7596521193 14520.164583635158 56116.95104969512 13962.285528902035 57083.00784509759 13727.395244286196 57989.91178207651 13917.132088580325 58896.81571905543 14106.868932874453 59581.67876056698 14687.154476311323 59748.15678300962 15406.895872022003 60492.06919998009 15565.335897447381 61111.73264984507 15968.111431241938 61447.045936277646 16511.158170717223 61782.35922271022 17054.204910192504 61800.42886437531 17684.251188189 61496.586244383536 18238.513218006785 62229.122927658565 18982.947704187773 62400.481646882516 19974.89760851056 61946.71438102907 20844.18489961513 61492.94711517563 21713.472190719705 60482.227222189 22329.496364531886 59291.737358785715 22462.368174691335 59283.34628671486 23278.22535546214 58710.3065467953 24026.846097564274 57793.49272780187 24419.67921154038 56876.67890880845 24812.512325516487 55759.254531197956 24788.215616927817 54871.92384233438 24356.154100352345 54493.9680008444 25333.284215277145 53430.148602277986 26052.247261181525 52140.0749572706 26202.424621460283 50850.0013122632 26352.60198173904 49564.94446303961 25907.071414577033 48840.09647828643 25058.318596693716 47951.58454113313 25476.671620503872 46885.444077470165 25597.185857563418 45882.1748877443 25392.67572496685 44878.90569801844 25188.165592370293 44023.01830943802 24675.85803110432 43507.58366638058 23971.31930138622 42599.635979480925 24054.280580344224 41721.77604849023 23686.974558321133 41309.68259652503 23051.69389160373 40897.589144559824 22416.413224886324 41038.9870129988 21648.39397571476 41663.70094882251 21128.801332287534 40853.788104588115 20756.590015205882 40440.52174782125 20017.999167739927 40639.40407092282 19298.17494154202 40838.286394024384 18578.350715344117 41604.24992937324 18040.407933799128 42537.87474243082 17964.86265370908 Z"></path><path stroke="#666666" stroke-opacity="1" stroke-width="762" stroke-linecap="butt" stroke-linejoin="round" stroke-miterlimit="8" d="M 41663.930201898955 21128.73022165938 C 42046.130532403105 21304.377872414283 42487.66153875384 21384.05579878316 42929.24046067048 21357.065935758917 M 43507.614044083464 23971.311788860403 C 43697.50921690375 23953.960627959365 43883.64258667271 23917.217396200067 44061.21394149705 23862.02966842258 M 48839.86140667346 25058.265474202133 C 48706.30146922883 24901.874926601937 48594.478251431196 24734.758077140483 48506.29708361462 24559.762391745524 M 54871.91940673311 24356.071620018534 C 54940.82639940351 24177.92621180969 54985.47217064684 23994.576054710837 55005.11189187662 23809.079992472267 M 59291.5657452995 22462.354208287157 C 59300.49933674228 21593.74830583338 58668.66589015174 20798.443809477478 57667.4564688213 20418.047410148472 M 61496.39383508613 18238.590849564654 C 61334.25107171296 18534.367581446146 61086.72230123514 18796.746934563376 60773.21517110028 19005.156892285704 M 59748.116011286125 15406.896008785086 C 59775.743090214164 15526.337314341927 59788.52892211682 15647.573791907045 59786.2962872473 15768.925026938768 M 55509.79105844528 14520.200791037943 C 55358.326965551 14659.363903867317 55233.54049643466 14814.876855786068 55139.31711388737 14981.897456831644 M 51824.92091382454 14792.655444374786 C 51744.203527965714 14919.05623277476 51683.929108114906 15052.809929755684 51645.48611269657 15190.835436439549 M 47603.57923127203 15299.74770137396 C 47839.250583179266 15407.521512872096 48057.27860719676 15537.238846448356 48252.87378229967 15686.050142284692 M 42556.05139998661 17926.313696949343 C 42580.03100501474 18063.912203448417 42617.91998544207 18199.81429200644 42669.36372318991 18332.748000776093"></path></g><g><path fill="#000" fill-opacity="0" stroke="#000" stroke-opacity="0" stroke-width="3882.8025477707006" stroke-linecap="round" stroke-linejoin="round" stroke-miterlimit="10" pointer-events="visiblePainted" d="M 42556.05139998661 17926.313696949343 C 42382.06671832648 16927.963960910343 42953.293027868545 15939.658252919719 44027.33794627295 15380.771120399791 45101.38286467735 14821.883987879864 46489.88215217803 14790.432141331483 47603.644371769406 15299.76175876938 47998.1728584433 14719.279811010192 48720.275317253596 14318.497051510489 49551.52972530994 14218.642510862028 50382.78413336629 14118.787970213567 51225.55640532687 14331.589955236685 51824.924234486345 14792.67998265491 52161.0118932662 14266.377692395226 52820.92578850179 13912.769821116066 53570.494213774095 13857.334797470721 54320.0626390464 13801.899773825375 55053.20323180356 14052.483016695089 55509.7596521193 14520.164583635158 56116.95104969512 13962.285528902035 57083.00784509759 13727.395244286196 57989.91178207651 13917.132088580325 58896.81571905543 14106.868932874453 59581.67876056698 14687.154476311323 59748.15678300962 15406.895872022003 60492.06919998009 15565.335897447381 61111.73264984507 15968.111431241938 61447.045936277646 16511.158170717223 61782.35922271022 17054.204910192504 61800.42886437531 17684.251188189 61496.586244383536 18238.513218006785 62229.122927658565 18982.947704187773 62400.481646882516 19974.89760851056 61946.71438102907 20844.18489961513 61492.94711517563 21713.472190719705 60482.227222189 22329.496364531886 59291.737358785715 22462.368174691335 59283.34628671486 23278.22535546214 58710.3065467953 24026.846097564274 57793.49272780187 24419.67921154038 56876.67890880845 24812.512325516487 55759.254531197956 24788.215616927817 54871.92384233438 24356.154100352345 54493.9680008444 25333.284215277145 53430.148602277986 26052.247261181525 52140.0749572706 26202.424621460283 50850.0013122632 26352.60198173904 49564.94446303961 25907.071414577033 48840.09647828643 25058.318596693716 47951.58454113313 25476.671620503872 46885.444077470165 25597.185857563418 45882.1748877443 25392.67572496685 44878.90569801844 25188.165592370293 44023.01830943802 24675.85803110432 43507.58366638058 23971.31930138622 42599.635979480925 24054.280580344224 41721.77604849023 23686.974558321133 41309.68259652503 23051.69389160373 40897.589144559824 22416.413224886324 41038.9870129988 21648.39397571476 41663.70094882251 21128.801332287534 40853.788104588115 20756.590015205882 40440.52174782125 20017.999167739927 40639.40407092282 19298.17494154202 40838.286394024384 18578.350715344117 41604.24992937324 18040.407933799128 42537.87474243082 17964.86265370908 Z"></path><path stroke="#000" stroke-opacity="0" stroke-width="3882.8025477707006" stroke-linecap="round" stroke-linejoin="round" stroke-miterlimit="10" pointer-events="visiblePainted" d="M 41663.930201898955 21128.73022165938 C 42046.130532403105 21304.377872414283 42487.66153875384 21384.05579878316 42929.24046067048 21357.065935758917 M 43507.614044083464 23971.311788860403 C 43697.50921690375 23953.960627959365 43883.64258667271 23917.217396200067 44061.21394149705 23862.02966842258 M 48839.86140667346 25058.265474202133 C 48706.30146922883 24901.874926601937 48594.478251431196 24734.758077140483 48506.29708361462 24559.762391745524 M 54871.91940673311 24356.071620018534 C 54940.82639940351 24177.92621180969 54985.47217064684 23994.576054710837 55005.11189187662 23809.079992472267 M 59291.5657452995 22462.354208287157 C 59300.49933674228 21593.74830583338 58668.66589015174 20798.443809477478 57667.4564688213 20418.047410148472 M 61496.39383508613 18238.590849564654 C 61334.25107171296 18534.367581446146 61086.72230123514 18796.746934563376 60773.21517110028 19005.156892285704 M 59748.116011286125 15406.896008785086 C 59775.743090214164 15526.337314341927 59788.52892211682 15647.573791907045 59786.2962872473 15768.925026938768 M 55509.79105844528 14520.200791037943 C 55358.326965551 14659.363903867317 55233.54049643466 14814.876855786068 55139.31711388737 14981.897456831644 M 51824.92091382454 14792.655444374786 C 51744.203527965714 14919.05623277476 51683.929108114906 15052.809929755684 51645.48611269657 15190.835436439549 M 47603.57923127203 15299.74770137396 C 47839.250583179266 15407.521512872096 48057.27860719676 15537.238846448356 48252.87378229967 15686.050142284692 M 42556.05139998661 17926.313696949343 C 42580.03100501474 18063.912203448417 42617.91998544207 18199.81429200644 42669.36372318991 18332.748000776093"></path></g><g></g></g></g></g></g><g id="editor-gb9924d217_0_109"><g></g><g id="editor-gb9924d217_0_103"><g><g></g><g><path fill="#FFFFFF" fill-opacity="1" stroke="#666666" stroke-opacity="1" stroke-width="762" stroke-linecap="butt" stroke-linejoin="round" stroke-miterlimit="8" d="M 293825.1412 41313.65205997905 C 293825.1412 35686.78727399095 297815.68968771683 31125.3121 302738.2807149231 31125.312099999996 305102.19229052117 31125.312099999996 307369.28420235624 32198.723406752117 309040.822107587 34109.40778524398 310712.3600128178 36020.09216373585 311651.4202298462 38611.53629850145 311651.4202298462 41313.65205997905 311651.4202298462 46940.51684596716 307660.8717421294 51501.99201995811 302738.2807149231 51501.99201995811 297815.68968771683 51501.99201995811 293825.1412 46940.51684596716 293825.1412 41313.65205997906 Z"></path></g><g><path fill="#000" fill-opacity="0" stroke="#000" stroke-opacity="0" stroke-width="3882.8025477707006" stroke-linecap="round" stroke-linejoin="round" stroke-miterlimit="10" pointer-events="visiblePainted" d="M 293825.1412 41313.65205997905 C 293825.1412 35686.78727399095 297815.68968771683 31125.3121 302738.2807149231 31125.312099999996 305102.19229052117 31125.312099999996 307369.28420235624 32198.723406752117 309040.822107587 34109.40778524398 310712.3600128178 36020.09216373585 311651.4202298462 38611.53629850145 311651.4202298462 41313.65205997905 311651.4202298462 46940.51684596716 307660.8717421294 51501.99201995811 302738.2807149231 51501.99201995811 297815.68968771683 51501.99201995811 293825.1412 46940.51684596716 293825.1412 41313.65205997906 Z"></path></g><g></g></g></g><g id="editor-gb9924d217_0_104"><g><g></g><g><path stroke="#666666" stroke-opacity="1" stroke-width="762" stroke-linecap="butt" stroke-linejoin="round" stroke-miterlimit="8" d="M 302738.2804 51501.991299999994 L 302738.2804 95907.40790308837"></path></g><g><path stroke="#000" stroke-opacity="0" stroke-width="3882.8025477707006" stroke-linecap="round" stroke-linejoin="round" stroke-miterlimit="10" pointer-events="visiblePainted" d="M 302738.2804 51501.991299999994 L 302738.2804 95907.40790308837"></path></g></g></g><g id="editor-gb9924d217_0_105"><g><g></g><g><path stroke="#666666" stroke-opacity="1" stroke-width="762" stroke-linecap="butt" stroke-linejoin="round" stroke-miterlimit="8" d="M 302696.8852 95907.4081 L 312400.2966341736 137312.46079527435"></path></g><g><path stroke="#000" stroke-opacity="0" stroke-width="3882.8025477707006" stroke-linecap="round" stroke-linejoin="round" stroke-miterlimit="10" pointer-events="visiblePainted" d="M 302696.8852 95907.4081 L 312400.2966341736 137312.46079527435"></path></g></g></g><g id="editor-gb9924d217_0_106"><g><g></g><g><path stroke="#666666" stroke-opacity="1" stroke-width="762" stroke-linecap="butt" stroke-linejoin="round" stroke-miterlimit="8" d="M 302836.1236 96226.2642 L 293076.26405143127 137863.5995354931"></path></g><g><path stroke="#000" stroke-opacity="0" stroke-width="3882.8025477707006" stroke-linecap="round" stroke-linejoin="round" stroke-miterlimit="10" pointer-events="visiblePainted" d="M 302836.1236 96226.2642 L 293076.26405143127 137863.5995354931"></path></g></g></g><g id="editor-gb9924d217_0_107"><g><g></g><g><path stroke="#666666" stroke-opacity="1" stroke-width="762" stroke-linecap="butt" stroke-linejoin="round" stroke-miterlimit="8" d="M 302736.8692 54683.5622 L 323622.62946916505 89223.26045839996"></path></g><g><path stroke="#000" stroke-opacity="0" stroke-width="3882.8025477707006" stroke-linecap="round" stroke-linejoin="round" stroke-miterlimit="10" pointer-events="visiblePainted" d="M 302736.8692 54683.5622 L 323622.62946916505 89223.26045839996"></path></g></g></g><g id="editor-gb9924d217_0_108"><g><g></g><g><path stroke="#666666" stroke-opacity="1" stroke-width="762" stroke-linecap="butt" stroke-linejoin="round" stroke-miterlimit="8" d="M 302876.1076 54842.721399999995 L 282125.8231418396 87633.81754157676"></path></g><g><path stroke="#000" stroke-opacity="0" stroke-width="3882.8025477707006" stroke-linecap="round" stroke-linejoin="round" stroke-miterlimit="10" pointer-events="visiblePainted" d="M 302876.1076 54842.721399999995 L 282125.8231418396 87633.81754157676"></path></g></g></g></g><g id="editor-gb9924d217_0_120"><g></g><g id="editor-gb9924d217_0_116"><g></g><g id="editor-gb9924d217_0_110"><g><g></g><g><path fill="#FFFFFF" fill-opacity="1" stroke="#666666" stroke-opacity="1" stroke-width="762" stroke-linecap="butt" stroke-linejoin="round" stroke-miterlimit="8" d="M 42349.42347811999 172378.12851469067 C 42349.42347811999 166751.08216629966 46340.26005900571 162189.4598069 51263.20646714582 162189.4598069 53627.28870268669 162189.4598069 55894.54428467768 163262.90574948283 57566.20286471128 165173.6517801487 59237.861444744885 167084.39781081458 60176.98945617166 169675.92556387244 60176.98945617166 172378.12851469067 60176.98945617166 178005.1748630817 56186.15287528594 182566.79722248134 51263.20646714582 182566.79722248134 46340.26005900571 182566.79722248134 42349.42347811999 178005.1748630817 42349.42347811999 172378.12851469067 Z"></path></g><g><path fill="#000" fill-opacity="0" stroke="#000" stroke-opacity="0" stroke-width="3882.8025477707006" stroke-linecap="round" stroke-linejoin="round" stroke-miterlimit="10" pointer-events="visiblePainted" d="M 42349.42347811999 172378.12851469067 C 42349.42347811999 166751.08216629966 46340.26005900571 162189.4598069 51263.20646714582 162189.4598069 53627.28870268669 162189.4598069 55894.54428467768 163262.90574948283 57566.20286471128 165173.6517801487 59237.861444744885 167084.39781081458 60176.98945617166 169675.92556387244 60176.98945617166 172378.12851469067 60176.98945617166 178005.1748630817 56186.15287528594 182566.79722248134 51263.20646714582 182566.79722248134 46340.26005900571 182566.79722248134 42349.42347811999 178005.1748630817 42349.42347811999 172378.12851469067 Z"></path></g><g></g></g></g><g id="editor-gb9924d217_0_111"><g><g></g><g><path stroke="#666666" stroke-opacity="1" stroke-width="762" stroke-linecap="butt" stroke-linejoin="round" stroke-miterlimit="8" d="M 51263.2061522 182566.79650250002 L 51263.2061522 226973.64593798204"></path></g><g><path stroke="#000" stroke-opacity="0" stroke-width="3882.8025477707006" stroke-linecap="round" stroke-linejoin="round" stroke-miterlimit="10" pointer-events="visiblePainted" d="M 51263.2061522 182566.79650250002 L 51263.2061522 226973.64593798204"></path></g></g></g><g id="editor-gb9924d217_0_112"><g><g></g><g><path stroke="#666666" stroke-opacity="1" stroke-width="762" stroke-linecap="butt" stroke-linejoin="round" stroke-miterlimit="8" d="M 51221.80796372 226973.6461349 L 60925.91992479049 268380.0348496355"></path></g><g><path stroke="#000" stroke-opacity="0" stroke-width="3882.8025477707006" stroke-linecap="round" stroke-linejoin="round" stroke-miterlimit="10" pointer-events="visiblePainted" d="M 51221.80796372 226973.6461349 L 60925.91992479049 268380.0348496355"></path></g></g></g><g id="editor-gb9924d217_0_113"><g><g></g><g><path stroke="#666666" stroke-opacity="1" stroke-width="762" stroke-linecap="butt" stroke-linejoin="round" stroke-miterlimit="8" d="M 51361.05641588 227292.51252345002 L 41600.49226520611 268931.1913734829"></path></g><g><path stroke="#000" stroke-opacity="0" stroke-width="3882.8025477707006" stroke-linecap="round" stroke-linejoin="round" stroke-miterlimit="10" pointer-events="visiblePainted" d="M 51361.05641588 227292.51252345002 L 41600.49226520611 268931.1913734829"></path></g></g></g><g id="editor-gb9924d217_0_114"><g><g></g><g><path stroke="#666666" stroke-opacity="1" stroke-width="762" stroke-linecap="butt" stroke-linejoin="round" stroke-miterlimit="8" d="M 51261.79485032 185748.47006244998 L 72149.06294350448 220289.2828154841"></path></g><g><path stroke="#000" stroke-opacity="0" stroke-width="3882.8025477707006" stroke-linecap="round" stroke-linejoin="round" stroke-miterlimit="10" pointer-events="visiblePainted" d="M 51261.79485032 185748.47006244998 L 72149.06294350448 220289.2828154841"></path></g></g></g><g id="editor-gb9924d217_0_115"><g><g></g><g><path stroke="#666666" stroke-opacity="1" stroke-width="762" stroke-linecap="butt" stroke-linejoin="round" stroke-miterlimit="8" d="M 51401.04330248 185907.63439805002 L 30649.26080082428 218699.78861200553"></path></g><g><path stroke="#000" stroke-opacity="0" stroke-width="3882.8025477707006" stroke-linecap="round" stroke-linejoin="round" stroke-miterlimit="10" pointer-events="visiblePainted" d="M 51401.04330248 185907.63439805002 L 30649.26080082428 218699.78861200553"></path></g></g></g></g><g id="editor-gb9924d217_0_119"><g></g><g id="editor-gb9924d217_0_117"><g><g></g><g><path fill="#FFFFFF" fill-opacity="1" stroke="#666666" stroke-opacity="1" stroke-width="762" stroke-linecap="butt" stroke-linejoin="round" stroke-miterlimit="8" d="M 58791.868705542496 150832.64695860064 L 58791.868705542496 166712.20307542957 C 58791.868705542496 164958.1957399482 55481.29158915706 163536.2918520638 51397.48775663746 163536.2918520638 47313.68392411787 163536.2918520638 44003.10680773244 164958.1957399482 44003.10680773244 166712.20307542957 L 44003.10680773244 150832.64695860064 C 44003.10680773243 149078.63962311926 47313.68392411787 147656.73573523486 51397.48775663746 147656.73573523486 55481.29158915706 147656.73573523486 58791.86870554249 149078.63962311926 58791.868705542496 150832.64695860064 Z"></path></g><g><path fill="#000" fill-opacity="0" stroke="#000" stroke-opacity="0" stroke-width="3882.8025477707006" stroke-linecap="round" stroke-linejoin="round" stroke-miterlimit="10" pointer-events="visiblePainted" d="M 58791.868705542496 150832.64695860064 L 58791.868705542496 166712.20307542957 C 58791.868705542496 164958.1957399482 55481.29158915706 163536.2918520638 51397.48775663746 163536.2918520638 47313.68392411787 163536.2918520638 44003.10680773244 164958.1957399482 44003.10680773244 166712.20307542957 L 44003.10680773244 150832.64695860064 C 44003.10680773243 149078.63962311926 47313.68392411787 147656.73573523486 51397.48775663746 147656.73573523486 55481.29158915706 147656.73573523486 58791.86870554249 149078.63962311926 58791.868705542496 150832.64695860064 Z"></path></g><g></g></g></g><g id="editor-gb9924d217_0_118"><g><g></g><g><path fill="#FFFFFF" fill-opacity="1" stroke="#666666" stroke-opacity="1" stroke-width="762" stroke-linecap="butt" stroke-linejoin="round" stroke-miterlimit="8" d="M 42556.05139998661 148990.31179694933 C 42382.06671832648 147991.96206091036 42953.293027868545 147003.65635291973 44027.33794627295 146444.7692203998 45101.38286467735 145885.88208787987 46489.88215217803 145854.4302413315 47603.644371769406 146363.7598587694 47998.1728584433 145783.2779110102 48720.275317253596 145382.4951515105 49551.52972530994 145282.64061086203 50382.78413336629 145182.78607021357 51225.55640532687 145395.58805523667 51824.924234486345 145856.67808265492 52161.0118932662 145330.37579239524 52820.92578850179 144976.76792111606 53570.494213774095 144921.3328974707 54320.0626390464 144865.89787382536 55053.20323180356 145116.4811166951 55509.7596521193 145584.16268363516 56116.95104969512 145026.28362890205 57083.00784509759 144791.3933442862 57989.91178207651 144981.1301885803 58896.81571905543 145170.86703287446 59581.67876056698 145751.15257631132 59748.15678300962 146470.893972022 60492.06919998009 146629.3339974474 61111.73264984507 147032.10953124193 61447.045936277646 147575.1562707172 61782.35922271022 148118.20301019252 61800.42886437531 148748.249288189 61496.586244383536 149302.5113180068 62229.122927658565 150046.94580418777 62400.481646882516 151038.89570851056 61946.71438102907 151908.18299961512 61492.94711517563 152777.4702907197 60482.227222189 153393.4944645319 59291.737358785715 153526.36627469133 59283.34628671486 154342.22345546214 58710.3065467953 155090.84419756426 57793.49272780187 155483.67731154038 56876.67890880845 155876.5104255165 55759.254531197956 155852.21371692783 54871.92384233438 155420.15220035234 54493.9680008444 156397.28231527715 53430.148602277986 157116.24536118153 52140.0749572706 157266.4227214603 50850.0013122632 157416.60008173904 49564.94446303961 156971.06951457704 48840.09647828643 156122.3166966937 47951.58454113313 156540.66972050388 46885.444077470165 156661.18395756342 45882.1748877443 156456.67382496686 44878.90569801844 156252.1636923703 44023.01830943802 155739.85613110432 43507.58366638058 155035.31740138622 42599.635979480925 155118.27868034423 41721.77604849023 154750.97265832114 41309.68259652503 154115.69199160373 40897.589144559824 153480.4113248863 41038.9870129988 152712.39207571477 41663.70094882251 152192.79943228755 40853.788104588115 151820.58811520587 40440.52174782125 151081.99726773993 40639.40407092282 150362.17304154203 40838.286394024384 149642.34881534413 41604.24992937324 149104.40603379914 42537.87474243082 149028.86075370907 Z"></path><path stroke="#666666" stroke-opacity="1" stroke-width="762" stroke-linecap="butt" stroke-linejoin="round" stroke-miterlimit="8" d="M 41663.930201898955 152192.72832165938 C 42046.130532403105 152368.37597241427 42487.66153875384 152448.05389878317 42929.24046067048 152421.06403575893 M 43507.614044083464 155035.3098888604 C 43697.50921690375 155017.95872795937 43883.64258667271 154981.21549620008 44061.21394149705 154926.0277684226 M 48839.86140667346 156122.26357420214 C 48706.30146922883 155965.87302660194 48594.478251431196 155798.7561771405 48506.29708361462 155623.76049174552 M 54871.91940673311 155420.06972001854 C 54940.82639940351 155241.92431180968 54985.47217064684 155058.57415471083 55005.11189187662 154873.07809247228 M 59291.5657452995 153526.35230828717 C 59300.49933674228 152657.74640583337 58668.66589015174 151862.44190947746 57667.4564688213 151482.04551014848 M 61496.39383508613 149302.58894956467 C 61334.25107171296 149598.36568144616 61086.72230123514 149860.74503456338 60773.21517110028 150069.1549922857 M 59748.116011286125 146470.89410878508 C 59775.743090214164 146590.3354143419 59788.52892211682 146711.57189190705 59786.2962872473 146832.92312693878 M 55509.79105844528 145584.19889103793 C 55358.326965551 145723.3620038673 55233.54049643466 145878.87495578607 55139.31711388737 146045.89555683165 M 51824.92091382454 145856.6535443748 C 51744.203527965714 145983.05433277477 51683.929108114906 146116.8080297557 51645.48611269657 146254.83353643955 M 47603.57923127203 146363.74580137397 C 47839.250583179266 146471.5196128721 48057.27860719676 146601.23694644836 48252.87378229967 146750.04824228468 M 42556.05139998661 148990.31179694933 C 42580.03100501474 149127.9103034484 42617.91998544207 149263.81239200645 42669.36372318991 149396.7461007761"></path></g><g><path fill="#000" fill-opacity="0" stroke="#000" stroke-opacity="0" stroke-width="3882.8025477707006" stroke-linecap="round" stroke-linejoin="round" stroke-miterlimit="10" pointer-events="visiblePainted" d="M 42556.05139998661 148990.31179694933 C 42382.06671832648 147991.96206091036 42953.293027868545 147003.65635291973 44027.33794627295 146444.7692203998 45101.38286467735 145885.88208787987 46489.88215217803 145854.4302413315 47603.644371769406 146363.7598587694 47998.1728584433 145783.2779110102 48720.275317253596 145382.4951515105 49551.52972530994 145282.64061086203 50382.78413336629 145182.78607021357 51225.55640532687 145395.58805523667 51824.924234486345 145856.67808265492 52161.0118932662 145330.37579239524 52820.92578850179 144976.76792111606 53570.494213774095 144921.3328974707 54320.0626390464 144865.89787382536 55053.20323180356 145116.4811166951 55509.7596521193 145584.16268363516 56116.95104969512 145026.28362890205 57083.00784509759 144791.3933442862 57989.91178207651 144981.1301885803 58896.81571905543 145170.86703287446 59581.67876056698 145751.15257631132 59748.15678300962 146470.893972022 60492.06919998009 146629.3339974474 61111.73264984507 147032.10953124193 61447.045936277646 147575.1562707172 61782.35922271022 148118.20301019252 61800.42886437531 148748.249288189 61496.586244383536 149302.5113180068 62229.122927658565 150046.94580418777 62400.481646882516 151038.89570851056 61946.71438102907 151908.18299961512 61492.94711517563 152777.4702907197 60482.227222189 153393.4944645319 59291.737358785715 153526.36627469133 59283.34628671486 154342.22345546214 58710.3065467953 155090.84419756426 57793.49272780187 155483.67731154038 56876.67890880845 155876.5104255165 55759.254531197956 155852.21371692783 54871.92384233438 155420.15220035234 54493.9680008444 156397.28231527715 53430.148602277986 157116.24536118153 52140.0749572706 157266.4227214603 50850.0013122632 157416.60008173904 49564.94446303961 156971.06951457704 48840.09647828643 156122.3166966937 47951.58454113313 156540.66972050388 46885.444077470165 156661.18395756342 45882.1748877443 156456.67382496686 44878.90569801844 156252.1636923703 44023.01830943802 155739.85613110432 43507.58366638058 155035.31740138622 42599.635979480925 155118.27868034423 41721.77604849023 154750.97265832114 41309.68259652503 154115.69199160373 40897.589144559824 153480.4113248863 41038.9870129988 152712.39207571477 41663.70094882251 152192.79943228755 40853.788104588115 151820.58811520587 40440.52174782125 151081.99726773993 40639.40407092282 150362.17304154203 40838.286394024384 149642.34881534413 41604.24992937324 149104.40603379914 42537.87474243082 149028.86075370907 Z"></path><path stroke="#000" stroke-opacity="0" stroke-width="3882.8025477707006" stroke-linecap="round" stroke-linejoin="round" stroke-miterlimit="10" pointer-events="visiblePainted" d="M 41663.930201898955 152192.72832165938 C 42046.130532403105 152368.37597241427 42487.66153875384 152448.05389878317 42929.24046067048 152421.06403575893 M 43507.614044083464 155035.3098888604 C 43697.50921690375 155017.95872795937 43883.64258667271 154981.21549620008 44061.21394149705 154926.0277684226 M 48839.86140667346 156122.26357420214 C 48706.30146922883 155965.87302660194 48594.478251431196 155798.7561771405 48506.29708361462 155623.76049174552 M 54871.91940673311 155420.06972001854 C 54940.82639940351 155241.92431180968 54985.47217064684 155058.57415471083 55005.11189187662 154873.07809247228 M 59291.5657452995 153526.35230828717 C 59300.49933674228 152657.74640583337 58668.66589015174 151862.44190947746 57667.4564688213 151482.04551014848 M 61496.39383508613 149302.58894956467 C 61334.25107171296 149598.36568144616 61086.72230123514 149860.74503456338 60773.21517110028 150069.1549922857 M 59748.116011286125 146470.89410878508 C 59775.743090214164 146590.3354143419 59788.52892211682 146711.57189190705 59786.2962872473 146832.92312693878 M 55509.79105844528 145584.19889103793 C 55358.326965551 145723.3620038673 55233.54049643466 145878.87495578607 55139.31711388737 146045.89555683165 M 51824.92091382454 145856.6535443748 C 51744.203527965714 145983.05433277477 51683.929108114906 146116.8080297557 51645.48611269657 146254.83353643955 M 47603.57923127203 146363.74580137397 C 47839.250583179266 146471.5196128721 48057.27860719676 146601.23694644836 48252.87378229967 146750.04824228468 M 42556.05139998661 148990.31179694933 C 42580.03100501474 149127.9103034484 42617.91998544207 149263.81239200645 42669.36372318991 149396.7461007761"></path></g><g></g></g></g></g></g><g id="editor-gb9924d217_0_131"><g></g><g id="editor-gb9924d217_0_127"><g></g><g id="editor-gb9924d217_0_121"><g><g></g><g><path fill="#FFFFFF" fill-opacity="1" stroke="#666666" stroke-opacity="1" stroke-width="762" stroke-linecap="butt" stroke-linejoin="round" stroke-miterlimit="8" d="M 293828.42537812004 172378.12851469067 C 293828.42537812004 166751.08216629966 297819.26195900573 162189.4598069 302742.20836714585 162189.4598069 305106.29060268676 162189.4598069 307373.54618467775 163262.90574948283 309045.2047647113 165173.6517801487 310716.86334474495 167084.39781081458 311655.9913561717 169675.92556387244 311655.9913561717 172378.12851469067 311655.9913561717 178005.1748630817 307665.154775286 182566.79722248134 302742.20836714585 182566.79722248134 297819.2619590058 182566.79722248134 293828.42537812004 178005.1748630817 293828.42537812004 172378.12851469067 Z"></path></g><g><path fill="#000" fill-opacity="0" stroke="#000" stroke-opacity="0" stroke-width="3882.8025477707006" stroke-linecap="round" stroke-linejoin="round" stroke-miterlimit="10" pointer-events="visiblePainted" d="M 293828.42537812004 172378.12851469067 C 293828.42537812004 166751.08216629966 297819.26195900573 162189.4598069 302742.20836714585 162189.4598069 305106.29060268676 162189.4598069 307373.54618467775 163262.90574948283 309045.2047647113 165173.6517801487 310716.86334474495 167084.39781081458 311655.9913561717 169675.92556387244 311655.9913561717 172378.12851469067 311655.9913561717 178005.1748630817 307665.154775286 182566.79722248134 302742.20836714585 182566.79722248134 297819.2619590058 182566.79722248134 293828.42537812004 178005.1748630817 293828.42537812004 172378.12851469067 Z"></path></g><g></g></g></g><g id="editor-gb9924d217_0_122"><g><g></g><g><path stroke="#666666" stroke-opacity="1" stroke-width="762" stroke-linecap="butt" stroke-linejoin="round" stroke-miterlimit="8" d="M 302742.20805220003 182566.79650250002 L 302742.20805220003 226973.64593798204"></path></g><g><path stroke="#000" stroke-opacity="0" stroke-width="3882.8025477707006" stroke-linecap="round" stroke-linejoin="round" stroke-miterlimit="10" pointer-events="visiblePainted" d="M 302742.20805220003 182566.79650250002 L 302742.20805220003 226973.64593798204"></path></g></g></g><g id="editor-gb9924d217_0_123"><g><g></g><g><path stroke="#666666" stroke-opacity="1" stroke-width="762" stroke-linecap="butt" stroke-linejoin="round" stroke-miterlimit="8" d="M 302700.80986372003 226973.6461349 L 312404.92182479054 268380.0348496355"></path></g><g><path stroke="#000" stroke-opacity="0" stroke-width="3882.8025477707006" stroke-linecap="round" stroke-linejoin="round" stroke-miterlimit="10" pointer-events="visiblePainted" d="M 302700.80986372003 226973.6461349 L 312404.92182479054 268380.0348496355"></path></g></g></g><g id="editor-gb9924d217_0_124"><g><g></g><g><path stroke="#666666" stroke-opacity="1" stroke-width="762" stroke-linecap="butt" stroke-linejoin="round" stroke-miterlimit="8" d="M 302840.05831588 227292.51252345002 L 293079.4941652061 268931.1913734829"></path></g><g><path stroke="#000" stroke-opacity="0" stroke-width="3882.8025477707006" stroke-linecap="round" stroke-linejoin="round" stroke-miterlimit="10" pointer-events="visiblePainted" d="M 302840.05831588 227292.51252345002 L 293079.4941652061 268931.1913734829"></path></g></g></g><g id="editor-gb9924d217_0_125"><g><g></g><g><path stroke="#666666" stroke-opacity="1" stroke-width="762" stroke-linecap="butt" stroke-linejoin="round" stroke-miterlimit="8" d="M 302740.79675032 185748.47006244998 L 323628.06484350446 220289.2828154841"></path></g><g><path stroke="#000" stroke-opacity="0" stroke-width="3882.8025477707006" stroke-linecap="round" stroke-linejoin="round" stroke-miterlimit="10" pointer-events="visiblePainted" d="M 302740.79675032 185748.47006244998 L 323628.06484350446 220289.2828154841"></path></g></g></g><g id="editor-gb9924d217_0_126"><g><g></g><g><path stroke="#666666" stroke-opacity="1" stroke-width="762" stroke-linecap="butt" stroke-linejoin="round" stroke-miterlimit="8" d="M 302880.04520248005 185907.63439805002 L 282128.2627008243 218699.78861200553"></path></g><g><path stroke="#000" stroke-opacity="0" stroke-width="3882.8025477707006" stroke-linecap="round" stroke-linejoin="round" stroke-miterlimit="10" pointer-events="visiblePainted" d="M 302880.04520248005 185907.63439805002 L 282128.2627008243 218699.78861200553"></path></g></g></g></g><g id="editor-gb9924d217_0_130"><g></g><g id="editor-gb9924d217_0_128"><g><g></g><g><path fill="#FFFFFF" fill-opacity="1" stroke="#666666" stroke-opacity="1" stroke-width="762" stroke-linecap="butt" stroke-linejoin="round" stroke-miterlimit="8" d="M 310270.8706055425 150832.64695860064 L 310270.8706055425 166712.20307542957 C 310270.8706055425 164958.1957399482 306960.29348915705 163536.2918520638 302876.4896566375 163536.2918520638 298792.68582411786 163536.2918520638 295482.10870773246 164958.1957399482 295482.10870773246 166712.20307542957 L 295482.10870773246 150832.64695860064 C 295482.10870773246 149078.63962311926 298792.68582411786 147656.73573523486 302876.4896566375 147656.73573523486 306960.29348915705 147656.73573523486 310270.8706055425 149078.63962311926 310270.8706055425 150832.64695860064 Z"></path></g><g><path fill="#000" fill-opacity="0" stroke="#000" stroke-opacity="0" stroke-width="3882.8025477707006" stroke-linecap="round" stroke-linejoin="round" stroke-miterlimit="10" pointer-events="visiblePainted" d="M 310270.8706055425 150832.64695860064 L 310270.8706055425 166712.20307542957 C 310270.8706055425 164958.1957399482 306960.29348915705 163536.2918520638 302876.4896566375 163536.2918520638 298792.68582411786 163536.2918520638 295482.10870773246 164958.1957399482 295482.10870773246 166712.20307542957 L 295482.10870773246 150832.64695860064 C 295482.10870773246 149078.63962311926 298792.68582411786 147656.73573523486 302876.4896566375 147656.73573523486 306960.29348915705 147656.73573523486 310270.8706055425 149078.63962311926 310270.8706055425 150832.64695860064 Z"></path></g><g></g></g></g><g id="editor-gb9924d217_0_129"><g><g></g><g><path fill="#FFFFFF" fill-opacity="1" stroke="#666666" stroke-opacity="1" stroke-width="762" stroke-linecap="butt" stroke-linejoin="round" stroke-miterlimit="8" d="M 294035.0532999866 148990.31179694933 C 293861.06861832645 147991.96206091036 294432.2949278685 147003.65635291973 295506.33984627295 146444.7692203998 296580.3847646773 145885.88208787987 297968.884052178 145854.4302413315 299082.64627176936 146363.7598587694 299477.1747584433 145783.2779110102 300199.2772172536 145382.4951515105 301030.53162530996 145282.64061086203 301861.7860333663 145182.78607021357 302704.55830532685 145395.58805523667 303303.92613448633 145856.67808265492 303640.0137932662 145330.37579239524 304299.9276885018 144976.76792111606 305049.4961137741 144921.3328974707 305799.0645390464 144865.89787382536 306532.2051318035 145116.4811166951 306988.7615521193 145584.16268363516 307595.9529496951 145026.28362890205 308562.0097450976 144791.3933442862 309468.9136820765 144981.1301885803 310375.8176190554 145170.86703287446 311060.68066056696 145751.15257631132 311227.1586830096 146470.893972022 311971.0710999801 146629.3339974474 312590.73454984504 147032.10953124193 312926.04783627763 147575.1562707172 313261.3611227102 148118.20301019252 313279.4307643753 148748.249288189 312975.5881443835 149302.5113180068 313708.1248276585 150046.94580418777 313879.4835468825 151038.89570851056 313425.71628102905 151908.18299961512 312971.94901517563 152777.4702907197 311961.229122189 153393.4944645319 310770.73925878573 153526.36627469133 310762.34818671487 154342.22345546214 310189.3084467953 155090.84419756426 309272.4946278019 155483.67731154038 308355.6808088084 155876.5104255165 307238.2564311979 155852.21371692783 306350.92574233434 155420.15220035234 305972.9699008444 156397.28231527715 304909.150502278 157116.24536118153 303619.07685727056 157266.4227214603 302329.00321226317 157416.60008173904 301043.9463630396 156971.06951457704 300319.0983782864 156122.3166966937 299430.5864411331 156540.66972050388 298364.44597747014 156661.18395756342 297361.1767877443 156456.67382496686 296357.9075980184 156252.1636923703 295502.020209438 155739.85613110432 294986.5855663806 155035.31740138622 294078.6378794809 155118.27868034423 293200.7779484902 154750.97265832114 292788.68449652503 154115.69199160373 292376.59104455984 153480.4113248863 292517.9889129988 152712.39207571477 293142.7028488225 152192.79943228755 292332.7900045881 151820.58811520587 291919.5236478212 151081.99726773993 292118.4059709228 150362.17304154203 292317.28829402436 149642.34881534413 293083.25182937324 149104.40603379914 294016.8766424308 149028.86075370907 Z"></path><path stroke="#666666" stroke-opacity="1" stroke-width="762" stroke-linecap="butt" stroke-linejoin="round" stroke-miterlimit="8" d="M 293142.93210189894 152192.72832165938 C 293525.1324324031 152368.37597241427 293966.6634387538 152448.05389878317 294408.24236067047 152421.06403575893 M 294986.61594408343 155035.3098888604 C 295176.51111690374 155017.95872795937 295362.6444866727 154981.21549620008 295540.21584149706 154926.0277684226 M 300318.8633066735 156122.26357420214 C 300185.3033692288 155965.87302660194 300073.48015143117 155798.7561771405 299985.2989836146 155623.76049174552 M 306350.9213067331 155420.06972001854 C 306419.8282994035 155241.92431180968 306464.47407064686 155058.57415471083 306484.1137918766 154873.07809247228 M 310770.5676452995 153526.35230828717 C 310779.50123674225 152657.74640583337 310147.6677901517 151862.44190947746 309146.4583688213 151482.04551014848 M 312975.3957350861 149302.58894956467 C 312813.25297171297 149598.36568144616 312565.7242012351 149860.74503456338 312252.21707110025 150069.1549922857 M 311227.1179112861 146470.89410878508 C 311254.7449902141 146590.3354143419 311267.5308221168 146711.57189190705 311265.2981872473 146832.92312693878 M 306988.79295844526 145584.19889103793 C 306837.328865551 145723.3620038673 306712.54239643464 145878.87495578607 306618.3190138874 146045.89555683165 M 303303.92281382455 145856.6535443748 C 303223.2054279657 145983.05433277477 303162.9310081149 146116.8080297557 303124.48801269656 146254.83353643955 M 299082.581131272 146363.74580137397 C 299318.25248317927 146471.5196128721 299536.28050719673 146601.23694644836 299731.87568229967 146750.04824228468 M 294035.0532999866 148990.31179694933 C 294059.0329050147 149127.9103034484 294096.92188544205 149263.81239200645 294148.3656231899 149396.7461007761"></path></g><g><path fill="#000" fill-opacity="0" stroke="#000" stroke-opacity="0" stroke-width="3882.8025477707006" stroke-linecap="round" stroke-linejoin="round" stroke-miterlimit="10" pointer-events="visiblePainted" d="M 294035.0532999866 148990.31179694933 C 293861.06861832645 147991.96206091036 294432.2949278685 147003.65635291973 295506.33984627295 146444.7692203998 296580.3847646773 145885.88208787987 297968.884052178 145854.4302413315 299082.64627176936 146363.7598587694 299477.1747584433 145783.2779110102 300199.2772172536 145382.4951515105 301030.53162530996 145282.64061086203 301861.7860333663 145182.78607021357 302704.55830532685 145395.58805523667 303303.92613448633 145856.67808265492 303640.0137932662 145330.37579239524 304299.9276885018 144976.76792111606 305049.4961137741 144921.3328974707 305799.0645390464 144865.89787382536 306532.2051318035 145116.4811166951 306988.7615521193 145584.16268363516 307595.9529496951 145026.28362890205 308562.0097450976 144791.3933442862 309468.9136820765 144981.1301885803 310375.8176190554 145170.86703287446 311060.68066056696 145751.15257631132 311227.1586830096 146470.893972022 311971.0710999801 146629.3339974474 312590.73454984504 147032.10953124193 312926.04783627763 147575.1562707172 313261.3611227102 148118.20301019252 313279.4307643753 148748.249288189 312975.5881443835 149302.5113180068 313708.1248276585 150046.94580418777 313879.4835468825 151038.89570851056 313425.71628102905 151908.18299961512 312971.94901517563 152777.4702907197 311961.229122189 153393.4944645319 310770.73925878573 153526.36627469133 310762.34818671487 154342.22345546214 310189.3084467953 155090.84419756426 309272.4946278019 155483.67731154038 308355.6808088084 155876.5104255165 307238.2564311979 155852.21371692783 306350.92574233434 155420.15220035234 305972.9699008444 156397.28231527715 304909.150502278 157116.24536118153 303619.07685727056 157266.4227214603 302329.00321226317 157416.60008173904 301043.9463630396 156971.06951457704 300319.0983782864 156122.3166966937 299430.5864411331 156540.66972050388 298364.44597747014 156661.18395756342 297361.1767877443 156456.67382496686 296357.9075980184 156252.1636923703 295502.020209438 155739.85613110432 294986.5855663806 155035.31740138622 294078.6378794809 155118.27868034423 293200.7779484902 154750.97265832114 292788.68449652503 154115.69199160373 292376.59104455984 153480.4113248863 292517.9889129988 152712.39207571477 293142.7028488225 152192.79943228755 292332.7900045881 151820.58811520587 291919.5236478212 151081.99726773993 292118.4059709228 150362.17304154203 292317.28829402436 149642.34881534413 293083.25182937324 149104.40603379914 294016.8766424308 149028.86075370907 Z"></path><path stroke="#000" stroke-opacity="0" stroke-width="3882.8025477707006" stroke-linecap="round" stroke-linejoin="round" stroke-miterlimit="10" pointer-events="visiblePainted" d="M 293142.93210189894 152192.72832165938 C 293525.1324324031 152368.37597241427 293966.6634387538 152448.05389878317 294408.24236067047 152421.06403575893 M 294986.61594408343 155035.3098888604 C 295176.51111690374 155017.95872795937 295362.6444866727 154981.21549620008 295540.21584149706 154926.0277684226 M 300318.8633066735 156122.26357420214 C 300185.3033692288 155965.87302660194 300073.48015143117 155798.7561771405 299985.2989836146 155623.76049174552 M 306350.9213067331 155420.06972001854 C 306419.8282994035 155241.92431180968 306464.47407064686 155058.57415471083 306484.1137918766 154873.07809247228 M 310770.5676452995 153526.35230828717 C 310779.50123674225 152657.74640583337 310147.6677901517 151862.44190947746 309146.4583688213 151482.04551014848 M 312975.3957350861 149302.58894956467 C 312813.25297171297 149598.36568144616 312565.7242012351 149860.74503456338 312252.21707110025 150069.1549922857 M 311227.1179112861 146470.89410878508 C 311254.7449902141 146590.3354143419 311267.5308221168 146711.57189190705 311265.2981872473 146832.92312693878 M 306988.79295844526 145584.19889103793 C 306837.328865551 145723.3620038673 306712.54239643464 145878.87495578607 306618.3190138874 146045.89555683165 M 303303.92281382455 145856.6535443748 C 303223.2054279657 145983.05433277477 303162.9310081149 146116.8080297557 303124.48801269656 146254.83353643955 M 299082.581131272 146363.74580137397 C 299318.25248317927 146471.5196128721 299536.28050719673 146601.23694644836 299731.87568229967 146750.04824228468 M 294035.0532999866 148990.31179694933 C 294059.0329050147 149127.9103034484 294096.92188544205 149263.81239200645 294148.3656231899 149396.7461007761"></path></g><g></g></g></g></g></g><g id="editor-gb9924d217_0_142"><g></g><g id="editor-gb9924d217_0_138"><g></g><g id="editor-gb9924d217_0_132"><g><g></g><g><path fill="#FFFFFF" fill-opacity="1" stroke="#666666" stroke-opacity="1" stroke-width="762" stroke-linecap="butt" stroke-linejoin="round" stroke-miterlimit="8" d="M 171900.42537811998 41314.13041469068 C 171900.42537811998 35687.08406629967 175891.2619590057 31125.461706900005 180814.2083671458 31125.4617069 183178.29060268667 31125.4617069 185445.54618467766 32198.907649482833 187117.20476471126 34109.65368014871 188788.86334474487 36020.39971081459 189727.99135617164 38611.92746387243 189727.99135617164 41314.13041469068 189727.99135617164 46941.17676308168 185737.15477528592 51502.79912248136 180814.20836714582 51502.79912248136 175891.2619590057 51502.79912248136 171900.42537811998 46941.17676308168 171900.42537811998 41314.130414690684 Z"></path></g><g><path fill="#000" fill-opacity="0" stroke="#000" stroke-opacity="0" stroke-width="3882.8025477707006" stroke-linecap="round" stroke-linejoin="round" stroke-miterlimit="10" pointer-events="visiblePainted" d="M 171900.42537811998 41314.13041469068 C 171900.42537811998 35687.08406629967 175891.2619590057 31125.461706900005 180814.2083671458 31125.4617069 183178.29060268667 31125.4617069 185445.54618467766 32198.907649482833 187117.20476471126 34109.65368014871 188788.86334474487 36020.39971081459 189727.99135617164 38611.92746387243 189727.99135617164 41314.13041469068 189727.99135617164 46941.17676308168 185737.15477528592 51502.79912248136 180814.20836714582 51502.79912248136 175891.2619590057 51502.79912248136 171900.42537811998 46941.17676308168 171900.42537811998 41314.130414690684 Z"></path></g><g></g></g></g><g id="editor-gb9924d217_0_133"><g><g></g><g><path stroke="#666666" stroke-opacity="1" stroke-width="762" stroke-linecap="butt" stroke-linejoin="round" stroke-miterlimit="8" d="M 180814.2080522 51502.798402500004 L 180814.2080522 95909.64783798203"></path></g><g><path stroke="#000" stroke-opacity="0" stroke-width="3882.8025477707006" stroke-linecap="round" stroke-linejoin="round" stroke-miterlimit="10" pointer-events="visiblePainted" d="M 180814.2080522 51502.798402500004 L 180814.2080522 95909.64783798203"></path></g></g></g><g id="editor-gb9924d217_0_134"><g><g></g><g><path stroke="#666666" stroke-opacity="1" stroke-width="762" stroke-linecap="butt" stroke-linejoin="round" stroke-miterlimit="8" d="M 180772.80986372 95909.6480349 L 190476.92182479048 137316.03674963553"></path></g><g><path stroke="#000" stroke-opacity="0" stroke-width="3882.8025477707006" stroke-linecap="round" stroke-linejoin="round" stroke-miterlimit="10" pointer-events="visiblePainted" d="M 180772.80986372 95909.6480349 L 190476.92182479048 137316.03674963553"></path></g></g></g><g id="editor-gb9924d217_0_135"><g><g></g><g><path stroke="#666666" stroke-opacity="1" stroke-width="762" stroke-linecap="butt" stroke-linejoin="round" stroke-miterlimit="8" d="M 180912.05831588001 96228.51442345 L 171151.49416520612 137867.19327348293"></path></g><g><path stroke="#000" stroke-opacity="0" stroke-width="3882.8025477707006" stroke-linecap="round" stroke-linejoin="round" stroke-miterlimit="10" pointer-events="visiblePainted" d="M 180912.05831588001 96228.51442345 L 171151.49416520612 137867.19327348293"></path></g></g></g><g id="editor-gb9924d217_0_136"><g><g></g><g><path stroke="#666666" stroke-opacity="1" stroke-width="762" stroke-linecap="butt" stroke-linejoin="round" stroke-miterlimit="8" d="M 180812.79675032 54684.47196245 L 201700.0648435045 89225.28471548413"></path></g><g><path stroke="#000" stroke-opacity="0" stroke-width="3882.8025477707006" stroke-linecap="round" stroke-linejoin="round" stroke-miterlimit="10" pointer-events="visiblePainted" d="M 180812.79675032 54684.47196245 L 201700.0648435045 89225.28471548413"></path></g></g></g><g id="editor-gb9924d217_0_137"><g><g></g><g><path stroke="#666666" stroke-opacity="1" stroke-width="762" stroke-linecap="butt" stroke-linejoin="round" stroke-miterlimit="8" d="M 180952.04520248 54843.63629805001 L 160200.26270082427 87635.79051200554"></path></g><g><path stroke="#000" stroke-opacity="0" stroke-width="3882.8025477707006" stroke-linecap="round" stroke-linejoin="round" stroke-miterlimit="10" pointer-events="visiblePainted" d="M 180952.04520248 54843.63629805001 L 160200.26270082427 87635.79051200554"></path></g></g></g></g><g id="editor-gb9924d217_0_141"><g></g><g id="editor-gb9924d217_0_139"><g><g></g><g><path fill="#FFFFFF" fill-opacity="1" stroke="#666666" stroke-opacity="1" stroke-width="762" stroke-linecap="butt" stroke-linejoin="round" stroke-miterlimit="8" d="M 188342.8706055425 19768.648858600645 L 188342.8706055425 35648.204975429566 C 188342.8706055425 33894.19763994818 185032.29348915708 32472.293752063786 180948.48965663748 32472.293752063786 176864.68582411786 32472.293752063786 173554.10870773243 33894.19763994819 173554.10870773243 35648.20497542957 L 173554.10870773243 19768.648858600645 C 173554.10870773243 18014.641523119266 176864.68582411786 16592.737635234862 180948.48965663745 16592.737635234862 185032.29348915708 16592.737635234862 188342.8706055425 18014.641523119262 188342.8706055425 19768.64885860064 Z"></path></g><g><path fill="#000" fill-opacity="0" stroke="#000" stroke-opacity="0" stroke-width="3882.8025477707006" stroke-linecap="round" stroke-linejoin="round" stroke-miterlimit="10" pointer-events="visiblePainted" d="M 188342.8706055425 19768.648858600645 L 188342.8706055425 35648.204975429566 C 188342.8706055425 33894.19763994818 185032.29348915708 32472.293752063786 180948.48965663748 32472.293752063786 176864.68582411786 32472.293752063786 173554.10870773243 33894.19763994819 173554.10870773243 35648.20497542957 L 173554.10870773243 19768.648858600645 C 173554.10870773243 18014.641523119266 176864.68582411786 16592.737635234862 180948.48965663745 16592.737635234862 185032.29348915708 16592.737635234862 188342.8706055425 18014.641523119262 188342.8706055425 19768.64885860064 Z"></path></g><g></g></g></g><g id="editor-gb9924d217_0_140"><g><g></g><g><path fill="#FFFFFF" fill-opacity="1" stroke="#666666" stroke-opacity="1" stroke-width="762" stroke-linecap="butt" stroke-linejoin="round" stroke-miterlimit="8" d="M 172107.0532999866 17926.313696949343 C 171933.06861832648 16927.963960910343 172504.29492786853 15939.658252919719 173578.33984627292 15380.771120399791 174652.38476467735 14821.883987879864 176040.884052178 14790.432141331483 177154.6462717694 15299.76175876938 177549.1747584433 14719.279811010192 178271.27721725358 14318.497051510489 179102.53162530993 14218.642510862028 179933.78603336628 14118.787970213567 180776.55830532685 14331.589955236685 181375.92613448633 14792.67998265491 181712.0137932662 14266.377692395226 182371.92768850178 13912.769821116066 183121.49611377408 13857.334797470721 183871.06453904638 13801.899773825375 184604.20513180355 14052.483016695089 185060.76155211928 14520.164583635158 185667.9529496951 13962.285528902035 186634.00974509757 13727.395244286196 187540.9136820765 13917.132088580325 188447.81761905542 14106.868932874453 189132.68066056696 14687.154476311323 189299.15868300962 15406.895872022003 190043.0710999801 15565.335897447381 190662.73454984504 15968.111431241938 190998.04783627763 16511.158170717223 191333.3611227102 17054.204910192504 191351.4307643753 17684.251188189 191047.58814438354 18238.513218006785 191780.12482765855 18982.947704187773 191951.48354688252 19974.89760851056 191497.71628102905 20844.18489961513 191043.94901517563 21713.472190719705 190033.229122189 22329.496364531886 188842.7392587857 22462.368174691335 188834.34818671484 23278.22535546214 188261.30844679527 24026.846097564274 187344.49462780188 24419.67921154038 186427.68080880842 24812.512325516487 185310.25643119795 24788.215616927817 184422.92574233437 24356.154100352345 184044.9699008444 25333.284215277145 182981.15050227797 26052.247261181525 181691.0768572706 26202.424621460283 180401.0032122632 26352.60198173904 179115.9463630396 25907.071414577033 178391.0983782864 25058.318596693716 177502.5864411331 25476.671620503872 176436.44597747014 25597.185857563418 175433.17678774428 25392.67572496685 174429.9075980184 25188.165592370293 173574.02020943802 24675.85803110432 173058.58556638059 23971.31930138622 172150.63787948093 24054.280580344224 171272.77794849023 23686.974558321133 170860.684496525 23051.69389160373 170448.5910445598 22416.413224886324 170589.9889129988 21648.39397571476 171214.7028488225 21128.801332287534 170404.7900045881 20756.590015205882 169991.52364782125 20017.999167739927 170190.40597092282 19298.17494154202 170389.2882940244 18578.350715344117 171155.25182937324 18040.407933799128 172088.8766424308 17964.86265370908 Z"></path><path stroke="#666666" stroke-opacity="1" stroke-width="762" stroke-linecap="butt" stroke-linejoin="round" stroke-miterlimit="8" d="M 171214.93210189894 21128.73022165938 C 171597.1324324031 21304.377872414283 172038.66343875384 21384.05579878316 172480.24236067047 21357.065935758917 M 173058.61594408346 23971.311788860403 C 173248.51111690374 23953.960627959365 173434.64448667268 23917.217396200067 173612.21584149703 23862.02966842258 M 178390.86330667345 25058.265474202133 C 178257.30336922882 24901.874926601937 178145.48015143117 24734.758077140483 178057.2989836146 24559.762391745524 M 184422.9213067331 24356.071620018534 C 184491.82829940348 24177.92621180969 184536.47407064683 23994.576054710837 184556.11379187662 23809.079992472267 M 188842.56764529948 22462.354208287157 C 188851.50123674228 21593.74830583338 188219.66779015173 20798.443809477478 187218.45836882127 20418.047410148472 M 191047.39573508612 18238.590849564654 C 190885.25297171294 18534.367581446146 190637.72420123513 18796.746934563376 190324.21707110028 19005.156892285704 M 189299.11791128613 15406.896008785086 C 189326.74499021415 15526.337314341927 189339.5308221168 15647.573791907045 189337.29818724727 15768.925026938768 M 185060.79295844526 14520.200791037943 C 184909.32886555098 14659.363903867317 184784.54239643464 14814.876855786068 184690.31901388735 14981.897456831644 M 181375.92281382452 14792.655444374786 C 181295.2054279657 14919.05623277476 181234.9310081149 15052.809929755684 181196.48801269656 15190.835436439549 M 177154.58113127202 15299.74770137396 C 177390.25248317927 15407.521512872096 177608.28050719676 15537.238846448356 177803.87568229967 15686.050142284692 M 172107.0532999866 17926.313696949343 C 172131.03290501473 18063.912203448417 172168.92188544208 18199.81429200644 172220.3656231899 18332.748000776093"></path></g><g><path fill="#000" fill-opacity="0" stroke="#000" stroke-opacity="0" stroke-width="3882.8025477707006" stroke-linecap="round" stroke-linejoin="round" stroke-miterlimit="10" pointer-events="visiblePainted" d="M 172107.0532999866 17926.313696949343 C 171933.06861832648 16927.963960910343 172504.29492786853 15939.658252919719 173578.33984627292 15380.771120399791 174652.38476467735 14821.883987879864 176040.884052178 14790.432141331483 177154.6462717694 15299.76175876938 177549.1747584433 14719.279811010192 178271.27721725358 14318.497051510489 179102.53162530993 14218.642510862028 179933.78603336628 14118.787970213567 180776.55830532685 14331.589955236685 181375.92613448633 14792.67998265491 181712.0137932662 14266.377692395226 182371.92768850178 13912.769821116066 183121.49611377408 13857.334797470721 183871.06453904638 13801.899773825375 184604.20513180355 14052.483016695089 185060.76155211928 14520.164583635158 185667.9529496951 13962.285528902035 186634.00974509757 13727.395244286196 187540.9136820765 13917.132088580325 188447.81761905542 14106.868932874453 189132.68066056696 14687.154476311323 189299.15868300962 15406.895872022003 190043.0710999801 15565.335897447381 190662.73454984504 15968.111431241938 190998.04783627763 16511.158170717223 191333.3611227102 17054.204910192504 191351.4307643753 17684.251188189 191047.58814438354 18238.513218006785 191780.12482765855 18982.947704187773 191951.48354688252 19974.89760851056 191497.71628102905 20844.18489961513 191043.94901517563 21713.472190719705 190033.229122189 22329.496364531886 188842.7392587857 22462.368174691335 188834.34818671484 23278.22535546214 188261.30844679527 24026.846097564274 187344.49462780188 24419.67921154038 186427.68080880842 24812.512325516487 185310.25643119795 24788.215616927817 184422.92574233437 24356.154100352345 184044.9699008444 25333.284215277145 182981.15050227797 26052.247261181525 181691.0768572706 26202.424621460283 180401.0032122632 26352.60198173904 179115.9463630396 25907.071414577033 178391.0983782864 25058.318596693716 177502.5864411331 25476.671620503872 176436.44597747014 25597.185857563418 175433.17678774428 25392.67572496685 174429.9075980184 25188.165592370293 173574.02020943802 24675.85803110432 173058.58556638059 23971.31930138622 172150.63787948093 24054.280580344224 171272.77794849023 23686.974558321133 170860.684496525 23051.69389160373 170448.5910445598 22416.413224886324 170589.9889129988 21648.39397571476 171214.7028488225 21128.801332287534 170404.7900045881 20756.590015205882 169991.52364782125 20017.999167739927 170190.40597092282 19298.17494154202 170389.2882940244 18578.350715344117 171155.25182937324 18040.407933799128 172088.8766424308 17964.86265370908 Z"></path><path stroke="#000" stroke-opacity="0" stroke-width="3882.8025477707006" stroke-linecap="round" stroke-linejoin="round" stroke-miterlimit="10" pointer-events="visiblePainted" d="M 171214.93210189894 21128.73022165938 C 171597.1324324031 21304.377872414283 172038.66343875384 21384.05579878316 172480.24236067047 21357.065935758917 M 173058.61594408346 23971.311788860403 C 173248.51111690374 23953.960627959365 173434.64448667268 23917.217396200067 173612.21584149703 23862.02966842258 M 178390.86330667345 25058.265474202133 C 178257.30336922882 24901.874926601937 178145.48015143117 24734.758077140483 178057.2989836146 24559.762391745524 M 184422.9213067331 24356.071620018534 C 184491.82829940348 24177.92621180969 184536.47407064683 23994.576054710837 184556.11379187662 23809.079992472267 M 188842.56764529948 22462.354208287157 C 188851.50123674228 21593.74830583338 188219.66779015173 20798.443809477478 187218.45836882127 20418.047410148472 M 191047.39573508612 18238.590849564654 C 190885.25297171294 18534.367581446146 190637.72420123513 18796.746934563376 190324.21707110028 19005.156892285704 M 189299.11791128613 15406.896008785086 C 189326.74499021415 15526.337314341927 189339.5308221168 15647.573791907045 189337.29818724727 15768.925026938768 M 185060.79295844526 14520.200791037943 C 184909.32886555098 14659.363903867317 184784.54239643464 14814.876855786068 184690.31901388735 14981.897456831644 M 181375.92281382452 14792.655444374786 C 181295.2054279657 14919.05623277476 181234.9310081149 15052.809929755684 181196.48801269656 15190.835436439549 M 177154.58113127202 15299.74770137396 C 177390.25248317927 15407.521512872096 177608.28050719676 15537.238846448356 177803.87568229967 15686.050142284692 M 172107.0532999866 17926.313696949343 C 172131.03290501473 18063.912203448417 172168.92188544208 18199.81429200644 172220.3656231899 18332.748000776093"></path></g><g></g></g></g></g></g><g id="editor-gb9924d217_0_149"><g></g><g id="editor-gb9924d217_0_143"><g><g></g><g><path fill="#FFFFFF" fill-opacity="1" stroke="#666666" stroke-opacity="1" stroke-width="762" stroke-linecap="butt" stroke-linejoin="round" stroke-miterlimit="8" d="M 171897.14899999998 172377.65985997906 C 171897.14899999998 166750.79507399094 175887.6974877168 162189.3199 180810.28851492307 162189.3199 183174.2000905211 162189.3199 185441.2920023562 163262.73120675213 187112.82990758697 165173.415585244 188784.3678128177 167084.09996373585 189723.42802984617 169675.54409850144 189723.42802984617 172377.65985997906 189723.42802984617 178004.52464596718 185732.87954212935 182565.99981995812 180810.28851492307 182565.99981995812 175887.69748771682 182565.99981995812 171897.14899999998 178004.52464596718 171897.14899999998 172377.65985997906 Z"></path></g><g><path fill="#000" fill-opacity="0" stroke="#000" stroke-opacity="0" stroke-width="3882.8025477707006" stroke-linecap="round" stroke-linejoin="round" stroke-miterlimit="10" pointer-events="visiblePainted" d="M 171897.14899999998 172377.65985997906 C 171897.14899999998 166750.79507399094 175887.6974877168 162189.3199 180810.28851492307 162189.3199 183174.2000905211 162189.3199 185441.2920023562 163262.73120675213 187112.82990758697 165173.415585244 188784.3678128177 167084.09996373585 189723.42802984617 169675.54409850144 189723.42802984617 172377.65985997906 189723.42802984617 178004.52464596718 185732.87954212935 182565.99981995812 180810.28851492307 182565.99981995812 175887.69748771682 182565.99981995812 171897.14899999998 178004.52464596718 171897.14899999998 172377.65985997906 Z"></path></g><g></g></g></g><g id="editor-gb9924d217_0_144"><g><g></g><g><path stroke="#666666" stroke-opacity="1" stroke-width="762" stroke-linecap="butt" stroke-linejoin="round" stroke-miterlimit="8" d="M 180810.2882 182565.99910000002 L 180810.2882 226971.4157030884"></path></g><g><path stroke="#000" stroke-opacity="0" stroke-width="3882.8025477707006" stroke-linecap="round" stroke-linejoin="round" stroke-miterlimit="10" pointer-events="visiblePainted" d="M 180810.2882 182565.99910000002 L 180810.2882 226971.4157030884"></path></g></g></g><g id="editor-gb9924d217_0_145"><g><g></g><g><path stroke="#666666" stroke-opacity="1" stroke-width="762" stroke-linecap="butt" stroke-linejoin="round" stroke-miterlimit="8" d="M 180768.89299999998 226971.41590000002 L 190472.30443417357 268376.4685952744"></path></g><g><path stroke="#000" stroke-opacity="0" stroke-width="3882.8025477707006" stroke-linecap="round" stroke-linejoin="round" stroke-miterlimit="10" pointer-events="visiblePainted" d="M 180768.89299999998 226971.41590000002 L 190472.30443417357 268376.4685952744"></path></g></g></g><g id="editor-gb9924d217_0_146"><g><g></g><g><path stroke="#666666" stroke-opacity="1" stroke-width="762" stroke-linecap="butt" stroke-linejoin="round" stroke-miterlimit="8" d="M 180908.13139999998 227290.272 L 171148.27185143126 268927.6073354931"></path></g><g><path stroke="#000" stroke-opacity="0" stroke-width="3882.8025477707006" stroke-linecap="round" stroke-linejoin="round" stroke-miterlimit="10" pointer-events="visiblePainted" d="M 180908.13139999998 227290.272 L 171148.27185143126 268927.6073354931"></path></g></g></g><g id="editor-gb9924d217_0_147"><g><g></g><g><path stroke="#666666" stroke-opacity="1" stroke-width="762" stroke-linecap="butt" stroke-linejoin="round" stroke-miterlimit="8" d="M 180808.87699999998 185747.57 L 201694.63726916502 220287.26825839997"></path></g><g><path stroke="#000" stroke-opacity="0" stroke-width="3882.8025477707006" stroke-linecap="round" stroke-linejoin="round" stroke-miterlimit="10" pointer-events="visiblePainted" d="M 180808.87699999998 185747.57 L 201694.63726916502 220287.26825839997"></path></g></g></g><g id="editor-gb9924d217_0_148"><g><g></g><g><path stroke="#666666" stroke-opacity="1" stroke-width="762" stroke-linecap="butt" stroke-linejoin="round" stroke-miterlimit="8" d="M 180948.1154 185906.7292 L 160197.8309418396 218697.82534157677"></path></g><g><path stroke="#000" stroke-opacity="0" stroke-width="3882.8025477707006" stroke-linecap="round" stroke-linejoin="round" stroke-miterlimit="10" pointer-events="visiblePainted" d="M 180948.1154 185906.7292 L 160197.8309418396 218697.82534157677"></path></g></g></g></g><g id="editor-gb9924d217_0_150"><g><g></g><g><path stroke="#FF0000" stroke-opacity="1" stroke-width="3048" stroke-linecap="butt" stroke-linejoin="round" stroke-miterlimit="8" d="M 361130 147769.8515625 C 356512.74087005353 144999.65565802893 351107.1424799978 142210.43081968682 348784 137352.8515625 346983.44243795867 133587.97224922135 345798.0135970985 128255.90274172259 341839 126935.8515625 340637.55080748483 126535.25318503597 340820.050663998 129254.88576778384 340296 130407.8515625 338464.83102880925 134436.61315593365 336119.45171240496 138555.7995008811 332579 141210.8515625 331327.2393698272 142149.5706615768 329444.39845833223 142443.1576270265 327949 141982.8515625 324989.0136274827 141071.72338084795 323524.8521410144 137610.4123296817 321005 135809.8515625 320017.8421293374 135104.47774155266 319747.9024759773 137886.27979847701 319075 138895.8515625 317630.81269954005 141062.60049352061 314175.3463825669 142531.6747273996 311745 141596.8515625 310038.8898792844 140940.6030235448 309952.20161800145 136632.85405434162 308272 137352.8515625 306425.7307914594 138144.01210853018 305439.3516382025 140312.09364630276 303643 141210.8515625 301430.551786917 142317.7925997651 298370.51122676145 138681.7083174805 296312 140053.8515625 295931.1929516203 140307.68637879685 291506.20033902803 144417.9326891643 291296 144297.8515625 286716.0993100245 141681.49215315824 284824.69663194986 130750.00324652507 280107 133108.8515625 275022.1912086643 135651.25595816784 273156.37268528825 142106.9264674454 269690 146612.8515625 268741.9135790062 147845.2656115627 269473.78160713083 150123.63070442417 268147 149312.8515625 268138.3778554497 149307.5826810786 258126.9886083994 135029.8608831219 258115 135037.8515625 256072.11858437056 136399.4783548612 256404.72607753542 136799.96465754643 254643 138509.8515625 249845.45759240197 143166.2252424465 249914.53957941046 143240.38873729308 244997 147769.8515625 242972.52556453942 149634.56084402648 240953.3128728486 153903.3660349461 238438 152785.8515625 232452.0807197672 150126.40052610516 230987.31739737338 141014.51991697252 224935 138509.8515625 216230.69435780094 134907.69432944836 206778.09775582547 143606.47430291024 197541 145454.8515625 196177.03634931037 145727.7857092943 196608.53424348298 142136.1126289385 195226 141982.8515625 191315.53767890384 141549.35660320774 187586.4165316403 139667.8515625 183652 139667.8515625 180811.0184599137 139667.8515625 177911.46032554613 139715.9145869198 175164 140438.8515625 172638.93290911725 141103.27038916934 169897.81952878326 142625.35610879696 169762 142368.8515625 168171.97988333707 139365.9889235158 168100.5004543391 132953.85738338286 164746 133494.8515625 148725.73647731176 136078.50580004416 134247.1893427804 144839.18648629743 118448 148541.8515625 115543.65663473996 149222.50741860335 111462.85251596924 152007.69087061446 109574 149698.8515625 107024.67181700132 146582.67967060875 107624.31244219704 140967.35831988603 104172 138895.8515625 99732.05012286258 136231.72821707875 94140.21756009934 141466.10122334943 89125 142753.8515625 80183.2713294377 145049.80662130326 79986.36600185116 144150.96338084366 70991 146226.8515625 69895.11509426174 146479.7522809154 70164.8250643225 147163.17220800105 69062 147383.8515625 68366.10970686248 147523.10177149487 68437.030066606 144662.97404919213 68291 144297.8515625 66923.33483900977 140878.24547623927 61553.568848509996 141314.06840125646 58259 139667.8515625 54455.60456505652 137767.3863127648 49270.696227474815 138423.3308961731 45527 140438.8515625 41709.72988542511 142493.98273164066 41940.710805270646 142884.30212728702 38196 145068.8515625 33956.39567546862 147542.1066986899 37859.94853096073 146612.8515625 35882 146612.8515625 30005.16175330835 146612.8515625 32699.06833177869 134922.7236143754 28937 130407.8515625 23704.10646418736 124127.83676965072 14733.457814164529 140438.8515625 6559 140438.8515625"></path></g><g><path stroke="#000" stroke-opacity="0" stroke-width="3882.8025477707006" stroke-linecap="round" stroke-linejoin="round" stroke-miterlimit="10" pointer-events="visiblePainted" d="M 361130 147769.8515625 C 356512.74087005353 144999.65565802893 351107.1424799978 142210.43081968682 348784 137352.8515625 346983.44243795867 133587.97224922135 345798.0135970985 128255.90274172259 341839 126935.8515625 340637.55080748483 126535.25318503597 340820.050663998 129254.88576778384 340296 130407.8515625 338464.83102880925 134436.61315593365 336119.45171240496 138555.7995008811 332579 141210.8515625 331327.2393698272 142149.5706615768 329444.39845833223 142443.1576270265 327949 141982.8515625 324989.0136274827 141071.72338084795 323524.8521410144 137610.4123296817 321005 135809.8515625 320017.8421293374 135104.47774155266 319747.9024759773 137886.27979847701 319075 138895.8515625 317630.81269954005 141062.60049352061 314175.3463825669 142531.6747273996 311745 141596.8515625 310038.8898792844 140940.6030235448 309952.20161800145 136632.85405434162 308272 137352.8515625 306425.7307914594 138144.01210853018 305439.3516382025 140312.09364630276 303643 141210.8515625 301430.551786917 142317.7925997651 298370.51122676145 138681.7083174805 296312 140053.8515625 295931.1929516203 140307.68637879685 291506.20033902803 144417.9326891643 291296 144297.8515625 286716.0993100245 141681.49215315824 284824.69663194986 130750.00324652507 280107 133108.8515625 275022.1912086643 135651.25595816784 273156.37268528825 142106.9264674454 269690 146612.8515625 268741.9135790062 147845.2656115627 269473.78160713083 150123.63070442417 268147 149312.8515625 268138.3778554497 149307.5826810786 258126.9886083994 135029.8608831219 258115 135037.8515625 256072.11858437056 136399.4783548612 256404.72607753542 136799.96465754643 254643 138509.8515625 249845.45759240197 143166.2252424465 249914.53957941046 143240.38873729308 244997 147769.8515625 242972.52556453942 149634.56084402648 240953.3128728486 153903.3660349461 238438 152785.8515625 232452.0807197672 150126.40052610516 230987.31739737338 141014.51991697252 224935 138509.8515625 216230.69435780094 134907.69432944836 206778.09775582547 143606.47430291024 197541 145454.8515625 196177.03634931037 145727.7857092943 196608.53424348298 142136.1126289385 195226 141982.8515625 191315.53767890384 141549.35660320774 187586.4165316403 139667.8515625 183652 139667.8515625 180811.0184599137 139667.8515625 177911.46032554613 139715.9145869198 175164 140438.8515625 172638.93290911725 141103.27038916934 169897.81952878326 142625.35610879696 169762 142368.8515625 168171.97988333707 139365.9889235158 168100.5004543391 132953.85738338286 164746 133494.8515625 148725.73647731176 136078.50580004416 134247.1893427804 144839.18648629743 118448 148541.8515625 115543.65663473996 149222.50741860335 111462.85251596924 152007.69087061446 109574 149698.8515625 107024.67181700132 146582.67967060875 107624.31244219704 140967.35831988603 104172 138895.8515625 99732.05012286258 136231.72821707875 94140.21756009934 141466.10122334943 89125 142753.8515625 80183.2713294377 145049.80662130326 79986.36600185116 144150.96338084366 70991 146226.8515625 69895.11509426174 146479.7522809154 70164.8250643225 147163.17220800105 69062 147383.8515625 68366.10970686248 147523.10177149487 68437.030066606 144662.97404919213 68291 144297.8515625 66923.33483900977 140878.24547623927 61553.568848509996 141314.06840125646 58259 139667.8515625 54455.60456505652 137767.3863127648 49270.696227474815 138423.3308961731 45527 140438.8515625 41709.72988542511 142493.98273164066 41940.710805270646 142884.30212728702 38196 145068.8515625 33956.39567546862 147542.1066986899 37859.94853096073 146612.8515625 35882 146612.8515625 30005.16175330835 146612.8515625 32699.06833177869 134922.7236143754 28937 130407.8515625 23704.10646418736 124127.83676965072 14733.457814164529 140438.8515625 6559 140438.8515625"></path></g></g></g><g id="editor-gb9924d217_0_155"><g></g><g id="editor-gb9924d217_0_151"><g><g></g><g><path fill="#FFD966" fill-opacity="1" stroke="#FFFF00" stroke-opacity="1" stroke-width="762" stroke-linecap="butt" stroke-linejoin="round" stroke-miterlimit="8" d="M 171867.8618 167806.22389999998 L 171867.8618 163227.3199 C 171867.8618 163733.09167002785 176087.70305188498 164143.10069999998 181293.14103784182 164143.10069999998 186498.57902379864 164143.10069999998 190718.4202756836 163733.09167002785 190718.4202756836 163227.3199 L 190718.4202756836 167806.22389999998 C 190718.4202756836 168311.99567002783 186498.57902379864 168722.0047 181293.14103784182 168722.0047 176087.70305188498 168722.0047 171867.8618 168311.99567002783 171867.8618 167806.22389999998 Z"></path></g><g><path fill="#000" fill-opacity="0" stroke="#000" stroke-opacity="0" stroke-width="3882.8025477707006" stroke-linecap="round" stroke-linejoin="round" stroke-miterlimit="10" pointer-events="visiblePainted" d="M 171867.8618 167806.22389999998 L 171867.8618 163227.3199 C 171867.8618 163733.09167002785 176087.70305188498 164143.10069999998 181293.14103784182 164143.10069999998 186498.57902379864 164143.10069999998 190718.4202756836 163733.09167002785 190718.4202756836 163227.3199 L 190718.4202756836 167806.22389999998 C 190718.4202756836 168311.99567002783 186498.57902379864 168722.0047 181293.14103784182 168722.0047 176087.70305188498 168722.0047 171867.8618 168311.99567002783 171867.8618 167806.22389999998 Z"></path></g><g></g></g></g><g id="editor-gb9924d217_0_152"><g><g></g><g><path fill="#FFD966" fill-opacity="1" stroke="#FFFF00" stroke-opacity="1" stroke-width="762" stroke-linecap="butt" stroke-linejoin="round" stroke-miterlimit="8" d="M 176766.00050000002 164064.72802747117 L 180600.69363171028 163241.43000315153 181424.14502749493 159407.4511 182247.59642327958 163241.43000315153 186082.28955498984 164064.72802747117 182247.59642327958 164888.0260517908 181424.14502749493 168722.00495494233 180600.69363171028 164888.0260517908 Z"></path></g><g><path fill="#000" fill-opacity="0" stroke="#000" stroke-opacity="0" stroke-width="3882.8025477707006" stroke-linecap="round" stroke-linejoin="round" stroke-miterlimit="10" pointer-events="visiblePainted" d="M 176766.00050000002 164064.72802747117 L 180600.69363171028 163241.43000315153 181424.14502749493 159407.4511 182247.59642327958 163241.43000315153 186082.28955498984 164064.72802747117 182247.59642327958 164888.0260517908 181424.14502749493 168722.00495494233 180600.69363171028 164888.0260517908 Z"></path></g><g></g></g></g><g id="editor-gb9924d217_0_153"><g><g></g><g><path fill="#FFD966" fill-opacity="1" stroke="#FFFF00" stroke-opacity="1" stroke-width="762" stroke-linecap="butt" stroke-linejoin="round" stroke-miterlimit="8" d="M 186082.2893 164064.7279817812 L 188575.10487518873 163530.0966923057 189110.4051963144 161040.3967 189645.70551744004 163530.0966923057 192138.52109262877 164064.7279817812 189645.70551744004 164599.35927125672 189110.4051963144 167089.0592635624 188575.10487518873 164599.35927125672 Z"></path></g><g><path fill="#000" fill-opacity="0" stroke="#000" stroke-opacity="0" stroke-width="3882.8025477707006" stroke-linecap="round" stroke-linejoin="round" stroke-miterlimit="10" pointer-events="visiblePainted" d="M 186082.2893 164064.7279817812 L 188575.10487518873 163530.0966923057 189110.4051963144 161040.3967 189645.70551744004 163530.0966923057 192138.52109262877 164064.7279817812 189645.70551744004 164599.35927125672 189110.4051963144 167089.0592635624 188575.10487518873 164599.35927125672 Z"></path></g><g></g></g></g><g id="editor-gb9924d217_0_154"><g><g></g><g><path fill="#FFD966" fill-opacity="1" stroke="#FFFF00" stroke-opacity="1" stroke-width="762" stroke-linecap="butt" stroke-linejoin="round" stroke-miterlimit="8" d="M 169758.9186 164064.7279817812 L 172251.73417518873 163530.0966923057 172787.0344963144 161040.3967 173322.33481744005 163530.0966923057 175815.15039262877 164064.7279817812 173322.33481744005 164599.35927125672 172787.0344963144 167089.0592635624 172251.73417518873 164599.35927125672 Z"></path></g><g><path fill="#000" fill-opacity="0" stroke="#000" stroke-opacity="0" stroke-width="3882.8025477707006" stroke-linecap="round" stroke-linejoin="round" stroke-miterlimit="10" pointer-events="visiblePainted" d="M 169758.9186 164064.7279817812 L 172251.73417518873 163530.0966923057 172787.0344963144 161040.3967 173322.33481744005 163530.0966923057 175815.15039262877 164064.7279817812 173322.33481744005 164599.35927125672 172787.0344963144 167089.0592635624 172251.73417518873 164599.35927125672 Z"></path></g><g></g></g></g></g><g id="editor-gb9924d217_0_160"><g></g><g id="editor-gb9924d217_0_156"><g><g></g><g><path fill="#FFD966" fill-opacity="1" stroke="#FFFF00" stroke-opacity="1" stroke-width="762" stroke-linecap="butt" stroke-linejoin="round" stroke-miterlimit="8" d="M 293796.8618 36549.2283 L 293796.8618 31970.3243 C 293796.8618 32476.096070027845 298016.703051885 32886.1051 303222.1410378418 32886.1051 308427.57902379864 32886.1051 312647.42027568363 32476.096070027845 312647.42027568363 31970.3243 L 312647.42027568363 36549.2283 C 312647.42027568363 37055.00007002785 308427.57902379864 37465.0091 303222.1410378418 37465.0091 298016.703051885 37465.0091 293796.8618 37055.00007002785 293796.8618 36549.2283 Z"></path></g><g><path fill="#000" fill-opacity="0" stroke="#000" stroke-opacity="0" stroke-width="3882.8025477707006" stroke-linecap="round" stroke-linejoin="round" stroke-miterlimit="10" pointer-events="visiblePainted" d="M 293796.8618 36549.2283 L 293796.8618 31970.3243 C 293796.8618 32476.096070027845 298016.703051885 32886.1051 303222.1410378418 32886.1051 308427.57902379864 32886.1051 312647.42027568363 32476.096070027845 312647.42027568363 31970.3243 L 312647.42027568363 36549.2283 C 312647.42027568363 37055.00007002785 308427.57902379864 37465.0091 303222.1410378418 37465.0091 298016.703051885 37465.0091 293796.8618 37055.00007002785 293796.8618 36549.2283 Z"></path></g><g></g></g></g><g id="editor-gb9924d217_0_157"><g><g></g><g><path fill="#FFD966" fill-opacity="1" stroke="#FFFF00" stroke-opacity="1" stroke-width="762" stroke-linecap="butt" stroke-linejoin="round" stroke-miterlimit="8" d="M 298695.00049999997 32807.732427471165 L 302529.6936317102 31984.43440315154 303353.1450274949 28150.455500000004 304176.59642327955 31984.43440315154 308011.2895549898 32807.732427471165 304176.59642327955 33631.03045179079 303353.1450274949 37465.009354942325 302529.6936317102 33631.03045179079 Z"></path></g><g><path fill="#000" fill-opacity="0" stroke="#000" stroke-opacity="0" stroke-width="3882.8025477707006" stroke-linecap="round" stroke-linejoin="round" stroke-miterlimit="10" pointer-events="visiblePainted" d="M 298695.00049999997 32807.732427471165 L 302529.6936317102 31984.43440315154 303353.1450274949 28150.455500000004 304176.59642327955 31984.43440315154 308011.2895549898 32807.732427471165 304176.59642327955 33631.03045179079 303353.1450274949 37465.009354942325 302529.6936317102 33631.03045179079 Z"></path></g><g></g></g></g><g id="editor-gb9924d217_0_158"><g><g></g><g><path fill="#FFD966" fill-opacity="1" stroke="#FFFF00" stroke-opacity="1" stroke-width="762" stroke-linecap="butt" stroke-linejoin="round" stroke-miterlimit="8" d="M 308011.2893 32807.73238178121 L 310504.1048751887 32273.101092305682 311039.4051963144 29783.401100000006 311574.70551744004 32273.101092305682 314067.52109262877 32807.73238178121 311574.70551744004 33342.363671256724 311039.4051963144 35832.0636635624 310504.1048751887 33342.363671256724 Z"></path></g><g><path fill="#000" fill-opacity="0" stroke="#000" stroke-opacity="0" stroke-width="3882.8025477707006" stroke-linecap="round" stroke-linejoin="round" stroke-miterlimit="10" pointer-events="visiblePainted" d="M 308011.2893 32807.73238178121 L 310504.1048751887 32273.101092305682 311039.4051963144 29783.401100000006 311574.70551744004 32273.101092305682 314067.52109262877 32807.73238178121 311574.70551744004 33342.363671256724 311039.4051963144 35832.0636635624 310504.1048751887 33342.363671256724 Z"></path></g><g></g></g></g><g id="editor-gb9924d217_0_159"><g><g></g><g><path fill="#FFD966" fill-opacity="1" stroke="#FFFF00" stroke-opacity="1" stroke-width="762" stroke-linecap="butt" stroke-linejoin="round" stroke-miterlimit="8" d="M 291687.9186 32807.73238178121 L 294180.7341751887 32273.101092305682 294716.03449631436 29783.401100000006 295251.33481744 32273.101092305682 297744.15039262874 32807.73238178121 295251.33481744 33342.363671256724 294716.03449631436 35832.0636635624 294180.7341751887 33342.363671256724 Z"></path></g><g><path fill="#000" fill-opacity="0" stroke="#000" stroke-opacity="0" stroke-width="3882.8025477707006" stroke-linecap="round" stroke-linejoin="round" stroke-miterlimit="10" pointer-events="visiblePainted" d="M 291687.9186 32807.73238178121 L 294180.7341751887 32273.101092305682 294716.03449631436 29783.401100000006 295251.33481744 32273.101092305682 297744.15039262874 32807.73238178121 295251.33481744 33342.363671256724 294716.03449631436 35832.0636635624 294180.7341751887 33342.363671256724 Z"></path></g><g></g></g></g></g><g id="editor-gb9924d217_0_164"><g><g></g><g><path fill="#FF0000" fill-opacity="1" stroke="#666666" stroke-opacity="1" stroke-width="762" stroke-linecap="butt" stroke-linejoin="round" stroke-miterlimit="8" d="M 283117.9520301328 24983.191910350313 L 284268.4053968682 20587.17390657068 302874.4989871979 25456.454012881553 321480.59257752757 20587.17390657068 322631.04594426294 24983.191910350313 311848.57730954705 27805.001860141754 322631.04594426294 30626.811809933195 321480.59257752757 35022.82981371283 302874.4989871979 30153.549707401955 284268.4053968682 35022.82981371283 283117.9520301328 30626.811809933195 293900.4206648487 27805.001860141754 Z"></path></g><g><path fill="#000" fill-opacity="0" stroke="#000" stroke-opacity="0" stroke-width="3882.8025477707006" stroke-linecap="round" stroke-linejoin="round" stroke-miterlimit="10" pointer-events="visiblePainted" d="M 283117.9520301328 24983.191910350313 L 284268.4053968682 20587.17390657068 302874.4989871979 25456.454012881553 321480.59257752757 20587.17390657068 322631.04594426294 24983.191910350313 311848.57730954705 27805.001860141754 322631.04594426294 30626.811809933195 321480.59257752757 35022.82981371283 302874.4989871979 30153.549707401955 284268.4053968682 35022.82981371283 283117.9520301328 30626.811809933195 293900.4206648487 27805.001860141754 Z"></path></g><g></g></g></g><g id="editor-gb9924d217_0_165"><g><g></g><g><path fill="#FF0000" fill-opacity="1" stroke="#666666" stroke-opacity="1" stroke-width="762" stroke-linecap="butt" stroke-linejoin="round" stroke-miterlimit="8" d="M 161192.95203013282 156240.18995722532 L 162343.40539686818 151844.17195344568 180949.49898719788 156713.45205975656 199555.59257752757 151844.17195344568 200706.04594426294 156240.18995722532 189923.57730954705 159061.99990701675 200706.04594426294 161883.8098568082 199555.59257752757 166279.82786058783 180949.49898719788 161410.54775427695 162343.40539686818 166279.82786058783 161192.95203013282 161883.8098568082 171975.4206648487 159061.99990701675 Z"></path></g><g><path fill="#000" fill-opacity="0" stroke="#000" stroke-opacity="0" stroke-width="3882.8025477707006" stroke-linecap="round" stroke-linejoin="round" stroke-miterlimit="10" pointer-events="visiblePainted" d="M 161192.95203013282 156240.18995722532 L 162343.40539686818 151844.17195344568 180949.49898719788 156713.45205975656 199555.59257752757 151844.17195344568 200706.04594426294 156240.18995722532 189923.57730954705 159061.99990701675 200706.04594426294 161883.8098568082 199555.59257752757 166279.82786058783 180949.49898719788 161410.54775427695 162343.40539686818 166279.82786058783 161192.95203013282 161883.8098568082 171975.4206648487 159061.99990701675 Z"></path></g><g></g></g></g></g></g></svg>