<svg xmlns="http://www.w3.org/2000/svg" xmlns:xlink="http://www.w3.org/1999/xlink" version="1.1" fill-rule="evenodd" fill="none" stroke="none" stroke-linecap="square" stroke-miterlimit="10" overflow="hidden" viewBox="6858 13335 358140 268605"><rect fill="#ffffff" fill-opacity="0" width="100%" height="100%"></rect><g transform="translate(6858 13335) scale(0.98125)"><defs cursor="default"><radialGradient gradientUnits="userSpaceOnUse" gradientTransform="matrix(478.1213235152768,0,0,478.1213235152768,0,0)" cx="382.4970588122215" cy="286.87279410916614" r="478.12132351527686" id="gradient-19076"><stop offset="0%" stop-color="#FFFFFF" stop-opacity="1"></stop><stop offset="30%" stop-color="#FFFFFF" stop-opacity="1"></stop><stop offset="100%" stop-color="#CCCCCC" stop-opacity="1"></stop></radialGradient></defs><g id="editor-gb9924d217_0_171"><g></g><path fill="#fff" fill-opacity="1" d="M 0 0 L 365760 0 365760 274320 0 274320 Z"></path><g id="editor-gb9924d217_0_171-bg"><g><g></g><g><g><path fill="url(#gradient-19076)" d="M 0 0 L 365760 0 365760 274320 0 274320 Z"></path></g><g></g></g><g></g></g></g><g id="editor-gb9563dfae_0_1"></g><g id="editor-gb9563dfae_0_2"></g><g id="editor-gb9563dfae_0_3"></g><g id="editor-gb9563dfae_0_5"></g><g id="editor-gb9563dfae_0_6"></g><g id="editor-gb9563dfae_0_7"></g><g id="editor-gba5bd53d5_0_8"><g></g><g id="editor-gb9924d217_0_224"><g><g></g><g><path stroke="#666666" stroke-opacity="1" stroke-width="762" stroke-linecap="butt" stroke-linejoin="round" stroke-miterlimit="8" d="M 182580.703125 65381.29296875 L 182580.703125 161996.3070449829"></path></g><g><path stroke="#000" stroke-opacity="0" stroke-width="3882.8025477707006" stroke-linecap="round" stroke-linejoin="round" stroke-miterlimit="10" pointer-events="visiblePainted" d="M 182580.703125 65381.29296875 L 182580.703125 161996.3070449829"></path></g></g></g><g id="editor-gb9924d217_0_225"><g><g></g><g><path stroke="#666666" stroke-opacity="1" stroke-width="762" stroke-linecap="butt" stroke-linejoin="round" stroke-miterlimit="8" d="M 182490.640625 161996.3125 L 203601.33503341675 252083.29475021362"></path></g><g><path stroke="#000" stroke-opacity="0" stroke-width="3882.8025477707006" stroke-linecap="round" stroke-linejoin="round" stroke-miterlimit="10" pointer-events="visiblePainted" d="M 182490.640625 161996.3125 L 203601.33503341675 252083.29475021362"></path></g></g></g><g id="editor-gb9924d217_0_226"><g><g></g><g><path stroke="#666666" stroke-opacity="1" stroke-width="762" stroke-linecap="butt" stroke-linejoin="round" stroke-miterlimit="8" d="M 182793.578125 162690.0625 L 161560.07609462738 253282.43014907837"></path></g><g><path stroke="#000" stroke-opacity="0" stroke-width="3882.8025477707006" stroke-linecap="round" stroke-linejoin="round" stroke-miterlimit="10" pointer-events="visiblePainted" d="M 182793.578125 162690.0625 L 161560.07609462738 253282.43014907837"></path></g></g></g><g id="editor-gb9924d217_0_227"><g><g></g><g><path stroke="#666666" stroke-opacity="1" stroke-width="762" stroke-linecap="butt" stroke-linejoin="round" stroke-miterlimit="8" d="M 182577.640625 72303.59375 L 255417.63982391357 90279.59405899048"></path></g><g><path stroke="#000" stroke-opacity="0" stroke-width="3882.8025477707006" stroke-linecap="round" stroke-linejoin="round" stroke-miterlimit="10" pointer-events="visiblePainted" d="M 182577.640625 72303.59375 L 255417.63982391357 90279.59405899048"></path></g></g></g><g id="editor-gb9924d217_0_228"><g><g></g><g><path stroke="#666666" stroke-opacity="1" stroke-width="762" stroke-linecap="butt" stroke-linejoin="round" stroke-miterlimit="8" d="M 182880.5625 72649.8828125 L 137736.34548568726 143995.06189346313"></path></g><g><path stroke="#000" stroke-opacity="0" stroke-width="3882.8025477707006" stroke-linecap="round" stroke-linejoin="round" stroke-miterlimit="10" pointer-events="visiblePainted" d="M 182880.5625 72649.8828125 L 137736.34548568726 143995.06189346313"></path></g></g></g><g id="editor-gba5bd53d5_0_7"><g></g><g id="editor-gb9924d217_0_223"><g><g></g><g><path fill="#FFFFFF" fill-opacity="1" stroke="#666666" stroke-opacity="1" stroke-width="762" stroke-linecap="butt" stroke-linejoin="round" stroke-miterlimit="8" d="M 163189.328125 43216.76629734039 C 163189.328125 30972.613022268357 171871.4219181174 21046.765625 182581.32736968994 21046.765624999996 187724.4053403377 21046.765624999996 192656.83622715843 23382.526846736968 196293.5415363746 27540.208483018174 199930.24684559077 31697.890119299387 201973.32661437988 37336.91653928194 201973.32661437988 43216.76629734039 201973.32661437988 55460.91957241242 193291.23282126247 65386.766969680786 182581.32736968994 65386.766969680786 171871.42191811744 65386.766969680786 163189.328125 55460.91957241243 163189.328125 43216.76629734039 Z"></path></g><g><path fill="#000" fill-opacity="0" stroke="#000" stroke-opacity="0" stroke-width="3882.8025477707006" stroke-linecap="round" stroke-linejoin="round" stroke-miterlimit="10" pointer-events="visiblePainted" d="M 163189.328125 43216.76629734039 C 163189.328125 30972.613022268357 171871.4219181174 21046.765625 182581.32736968994 21046.765624999996 187724.4053403377 21046.765624999996 192656.83622715843 23382.526846736968 196293.5415363746 27540.208483018174 199930.24684559077 31697.890119299387 201973.32661437988 37336.91653928194 201973.32661437988 43216.76629734039 201973.32661437988 55460.91957241242 193291.23282126247 65386.766969680786 182581.32736968994 65386.766969680786 171871.42191811744 65386.766969680786 163189.328125 55460.91957241243 163189.328125 43216.76629734039 Z"></path></g><g></g></g></g><g id="editor-gb9924d217_0_245"><g><g></g><g><path fill="#000000" fill-opacity="1" d="M 176322.99970531464 60156.99974679947 C 176322.99970531464 55060.5162151997 179259.11638189186 50929 182880.99985265732 50929 186502.88332342278 50929 189439 55060.5162151997 189439 60156.99974679947 187890.8661687735 57252.41943133877 185461.2229047015 55542.99987339973 182880.99985265732 55542.99987339973 180300.77680061312 55542.99987339973 177871.13353654114 57252.41943133877 176322.99970531464 60156.99974679946 Z"></path></g><g><path fill="#000" fill-opacity="0" stroke="#000" stroke-opacity="0" stroke-width="3882.8025477707006" stroke-linecap="round" stroke-linejoin="round" stroke-miterlimit="10" pointer-events="visiblePainted" d="M 176322.99970531464 60156.99974679947 C 176322.99970531464 55060.5162151997 179259.11638189186 50929 182880.99985265732 50929 186502.88332342278 50929 189439 55060.5162151997 189439 60156.99974679947 187890.8661687735 57252.41943133877 185461.2229047015 55542.99987339973 182880.99985265732 55542.99987339973 180300.77680061312 55542.99987339973 177871.13353654114 57252.41943133877 176322.99970531464 60156.99974679946 Z"></path></g><g></g></g></g><g id="editor-gb9924d217_0_248"><g><g></g><g><path fill="#000000" fill-opacity="1" d="M 170827 34531.00005364418 C 170827 33785.415611745746 171431.41561174576 33181 172177.00005364418 33181 172535.04232915488 33181 172878.4201252131 33323.23174014509 173131.5942461782 33576.40586111018 173384.76836714326 33829.57998207526 173527.00010728836 34172.957778133474 173527.00010728836 34531.00005364418 173527.00010728836 35276.584495542615 172922.5844955426 35881.00010728836 172177.00005364418 35881.00010728836 171431.41561174576 35881.00010728836 170827 35276.584495542615 170827 34531.00005364418 Z"></path></g><g><path fill="#000" fill-opacity="0" stroke="#000" stroke-opacity="0" stroke-width="3882.8025477707006" stroke-linecap="round" stroke-linejoin="round" stroke-miterlimit="10" pointer-events="visiblePainted" d="M 170827 34531.00005364418 C 170827 33785.415611745746 171431.41561174576 33181 172177.00005364418 33181 172535.04232915488 33181 172878.4201252131 33323.23174014509 173131.5942461782 33576.40586111018 173384.76836714326 33829.57998207526 173527.00010728836 34172.957778133474 173527.00010728836 34531.00005364418 173527.00010728836 35276.584495542615 172922.5844955426 35881.00010728836 172177.00005364418 35881.00010728836 171431.41561174576 35881.00010728836 170827 35276.584495542615 170827 34531.00005364418 Z"></path></g><g></g></g></g><g id="editor-gb9924d217_0_249"><g><g></g><g><path fill="#000000" fill-opacity="1" d="M 191696 34531.00005364418 C 191696 33785.415611745746 192300.41561174576 33181 193046.00005364418 33181 193404.04232915488 33181 193747.4201252131 33323.23174014509 194000.5942461782 33576.40586111018 194253.76836714326 33829.57998207526 194396.00010728836 34172.957778133474 194396.00010728836 34531.00005364418 194396.00010728836 35276.584495542615 193791.5844955426 35881.00010728836 193046.00005364418 35881.00010728836 192300.41561174576 35881.00010728836 191696 35276.584495542615 191696 34531.00005364418 Z"></path></g><g><path fill="#000" fill-opacity="0" stroke="#000" stroke-opacity="0" stroke-width="3882.8025477707006" stroke-linecap="round" stroke-linejoin="round" stroke-miterlimit="10" pointer-events="visiblePainted" d="M 191696 34531.00005364418 C 191696 33785.415611745746 192300.41561174576 33181 193046.00005364418 33181 193404.04232915488 33181 193747.4201252131 33323.23174014509 194000.5942461782 33576.40586111018 194253.76836714326 33829.57998207526 194396.00010728836 34172.957778133474 194396.00010728836 34531.00005364418 194396.00010728836 35276.584495542615 193791.5844955426 35881.00010728836 193046.00005364418 35881.00010728836 192300.41561174576 35881.00010728836 191696 35276.584495542615 191696 34531.00005364418 Z"></path></g><g></g></g></g></g></g></g></g></svg>