<svg xmlns="http://www.w3.org/2000/svg" xmlns:xlink="http://www.w3.org/1999/xlink" version="1.1" fill-rule="evenodd" fill="none" stroke="none" stroke-linecap="square" stroke-miterlimit="10" overflow="hidden" viewBox="6858 13335 358140 268605"><rect fill="#ffffff" fill-opacity="0" width="100%" height="100%"></rect><g transform="translate(6858 13335) scale(0.98125)"><defs cursor="default"><radialGradient gradientUnits="userSpaceOnUse" gradientTransform="matrix(478.1213235152768,0,0,478.1213235152768,0,0)" cx="382.4970588122215" cy="286.87279410916614" r="478.12132351527686" id="gradient-19494"><stop offset="0%" stop-color="#FFFFFF" stop-opacity="1"></stop><stop offset="30%" stop-color="#FFFFFF" stop-opacity="1"></stop><stop offset="100%" stop-color="#CCCCCC" stop-opacity="1"></stop></radialGradient></defs><g id="editor-gba0784a3a_0_5"><g></g><path fill="#fff" fill-opacity="1" d="M 0 0 L 365760 0 365760 274320 0 274320 Z"></path><g id="editor-gba0784a3a_0_5-bg"><g><g></g><g><g><path fill="url(#gradient-19494)" d="M 0 0 L 365760 0 365760 274320 0 274320 Z"></path></g><g></g></g><g></g></g></g><g id="editor-gb9563dfae_0_1"></g><g id="editor-gb9563dfae_0_2"></g><g id="editor-gb9563dfae_0_3"></g><g id="editor-gb9563dfae_0_5"></g><g id="editor-gb9563dfae_0_6"></g><g id="editor-gb9563dfae_0_7"></g><g id="editor-gba0784a3a_0_16"><g></g><g id="editor-gba0784a3a_0_12"><g></g><g id="editor-gba0784a3a_0_6"><g><g></g><g><path fill="#FFFFFF" fill-opacity="1" stroke="#666666" stroke-opacity="1" stroke-width="762" stroke-linecap="butt" stroke-linejoin="round" stroke-miterlimit="8" d="M 152324.92537811998 125456.62851469067 C 152324.92537811998 119829.58216629968 156315.7619590057 115267.9598069 161238.7083671458 115267.9598069 163602.79060268667 115267.9598069 165870.04618467766 116341.40574948283 167541.70476471126 118252.1517801487 169213.36334474487 120162.8978108146 170152.49135617164 122754.42556387243 170152.49135617164 125456.62851469067 170152.49135617164 131083.6748630817 166161.65477528592 135645.29722248134 161238.70836714582 135645.29722248134 156315.7619590057 135645.29722248134 152324.92537811998 131083.6748630817 152324.92537811998 125456.62851469069 Z"></path></g><g><path fill="#000" fill-opacity="0" stroke="#000" stroke-opacity="0" stroke-width="3882.8025477707006" stroke-linecap="round" stroke-linejoin="round" stroke-miterlimit="10" pointer-events="visiblePainted" d="M 152324.92537811998 125456.62851469067 C 152324.92537811998 119829.58216629968 156315.7619590057 115267.9598069 161238.7083671458 115267.9598069 163602.79060268667 115267.9598069 165870.04618467766 116341.40574948283 167541.70476471126 118252.1517801487 169213.36334474487 120162.8978108146 170152.49135617164 122754.42556387243 170152.49135617164 125456.62851469067 170152.49135617164 131083.6748630817 166161.65477528592 135645.29722248134 161238.70836714582 135645.29722248134 156315.7619590057 135645.29722248134 152324.92537811998 131083.6748630817 152324.92537811998 125456.62851469069 Z"></path></g><g></g></g></g><g id="editor-gba0784a3a_0_7"><g><g></g><g><path stroke="#666666" stroke-opacity="1" stroke-width="762" stroke-linecap="butt" stroke-linejoin="round" stroke-miterlimit="8" d="M 161238.7080522 135645.29650250002 L 161238.7080522 180052.14593798204"></path></g><g><path stroke="#000" stroke-opacity="0" stroke-width="3882.8025477707006" stroke-linecap="round" stroke-linejoin="round" stroke-miterlimit="10" pointer-events="visiblePainted" d="M 161238.7080522 135645.29650250002 L 161238.7080522 180052.14593798204"></path></g></g></g><g id="editor-gba0784a3a_0_8"><g><g></g><g><path stroke="#666666" stroke-opacity="1" stroke-width="762" stroke-linecap="butt" stroke-linejoin="round" stroke-miterlimit="8" d="M 161197.30986372 180052.1461349 L 170901.42182479048 221458.5348496355"></path></g><g><path stroke="#000" stroke-opacity="0" stroke-width="3882.8025477707006" stroke-linecap="round" stroke-linejoin="round" stroke-miterlimit="10" pointer-events="visiblePainted" d="M 161197.30986372 180052.1461349 L 170901.42182479048 221458.5348496355"></path></g></g></g><g id="editor-gba0784a3a_0_9"><g><g></g><g><path stroke="#666666" stroke-opacity="1" stroke-width="762" stroke-linecap="butt" stroke-linejoin="round" stroke-miterlimit="8" d="M 161336.55831588001 180371.01252345002 L 151575.99416520612 222009.69137348293"></path></g><g><path stroke="#000" stroke-opacity="0" stroke-width="3882.8025477707006" stroke-linecap="round" stroke-linejoin="round" stroke-miterlimit="10" pointer-events="visiblePainted" d="M 161336.55831588001 180371.01252345002 L 151575.99416520612 222009.69137348293"></path></g></g></g><g id="editor-gba0784a3a_0_10"><g><g></g><g><path stroke="#666666" stroke-opacity="1" stroke-width="762" stroke-linecap="butt" stroke-linejoin="round" stroke-miterlimit="8" d="M 161237.29675032 138826.97006244998 L 182124.5648435045 173367.7828154841"></path></g><g><path stroke="#000" stroke-opacity="0" stroke-width="3882.8025477707006" stroke-linecap="round" stroke-linejoin="round" stroke-miterlimit="10" pointer-events="visiblePainted" d="M 161237.29675032 138826.97006244998 L 182124.5648435045 173367.7828154841"></path></g></g></g><g id="editor-gba0784a3a_0_11"><g><g></g><g><path stroke="#666666" stroke-opacity="1" stroke-width="762" stroke-linecap="butt" stroke-linejoin="round" stroke-miterlimit="8" d="M 161376.54520248 138986.13439805002 L 140624.76270082427 171778.28861200553"></path></g><g><path stroke="#000" stroke-opacity="0" stroke-width="3882.8025477707006" stroke-linecap="round" stroke-linejoin="round" stroke-miterlimit="10" pointer-events="visiblePainted" d="M 161376.54520248 138986.13439805002 L 140624.76270082427 171778.28861200553"></path></g></g></g></g><g id="editor-gba0784a3a_0_15"><g></g><g id="editor-gba0784a3a_0_13"><g><g></g><g><path fill="#FFFFFF" fill-opacity="1" stroke="#666666" stroke-opacity="1" stroke-width="762" stroke-linecap="butt" stroke-linejoin="round" stroke-miterlimit="8" d="M 168767.3706055425 103911.14695860064 L 168767.3706055425 119790.70307542957 C 168767.3706055425 118036.69573994819 165456.79348915708 116614.79185206379 161372.98965663748 116614.79185206379 157289.18582411786 116614.79185206379 153978.60870773243 118036.69573994819 153978.60870773243 119790.70307542957 L 153978.60870773243 103911.14695860064 C 153978.60870773243 102157.13962311926 157289.18582411786 100735.23573523486 161372.98965663745 100735.23573523486 165456.79348915708 100735.23573523486 168767.3706055425 102157.13962311926 168767.3706055425 103911.14695860064 Z"></path></g><g><path fill="#000" fill-opacity="0" stroke="#000" stroke-opacity="0" stroke-width="3882.8025477707006" stroke-linecap="round" stroke-linejoin="round" stroke-miterlimit="10" pointer-events="visiblePainted" d="M 168767.3706055425 103911.14695860064 L 168767.3706055425 119790.70307542957 C 168767.3706055425 118036.69573994819 165456.79348915708 116614.79185206379 161372.98965663748 116614.79185206379 157289.18582411786 116614.79185206379 153978.60870773243 118036.69573994819 153978.60870773243 119790.70307542957 L 153978.60870773243 103911.14695860064 C 153978.60870773243 102157.13962311926 157289.18582411786 100735.23573523486 161372.98965663745 100735.23573523486 165456.79348915708 100735.23573523486 168767.3706055425 102157.13962311926 168767.3706055425 103911.14695860064 Z"></path></g><g></g></g></g><g id="editor-gba0784a3a_0_14"><g><g></g><g><path fill="#FFFFFF" fill-opacity="1" stroke="#666666" stroke-opacity="1" stroke-width="762" stroke-linecap="butt" stroke-linejoin="round" stroke-miterlimit="8" d="M 152531.5532999866 102068.81179694935 C 152357.56861832648 101070.46206091034 152928.79492786853 100082.15635291972 154002.83984627292 99523.26922039979 155076.88476467735 98964.38208787987 156465.384052178 98932.93024133149 157579.1462717694 99442.25985876938 157973.6747584433 98861.7779110102 158695.77721725358 98460.99515151049 159527.03162530993 98361.14061086203 160358.28603336628 98261.28607021357 161201.05830532685 98474.08805523669 161800.42613448633 98935.17808265491 162136.5137932662 98408.87579239522 162796.42768850178 98055.26792111607 163545.99611377408 97999.83289747073 164295.56453904638 97944.39787382538 165028.70513180355 98194.9811166951 165485.26155211928 98662.66268363516 166092.4529496951 98104.78362890203 167058.50974509757 97869.8933442862 167965.4136820765 98059.63018858033 168872.31761905542 98249.36703287445 169557.18066056696 98829.65257631133 169723.65868300962 99549.39397202201 170467.5710999801 99707.83399744738 171087.23454984504 100110.60953124193 171422.54783627763 100653.65627071723 171757.8611227102 101196.7030101925 171775.9307643753 101826.749288189 171472.08814438354 102381.01131800679 172204.62482765855 103125.44580418777 172375.98354688252 104117.39570851056 171922.21628102905 104986.68299961514 171468.44901517563 105855.9702907197 170457.729122189 106471.99446453189 169267.2392587857 106604.86627469133 169258.84818671484 107420.72345546214 168685.80844679527 108169.34419756428 167768.99462780188 108562.17731154038 166852.18080880842 108955.01042551649 165734.75643119795 108930.71371692781 164847.42574233437 108498.65220035234 164469.4699008444 109475.78231527715 163405.65050227797 110194.74536118153 162115.5768572706 110344.92272146029 160825.5032122632 110495.10008173904 159540.4463630396 110049.56951457703 158815.5983782864 109200.81669669371 157927.0864411331 109619.16972050388 156860.94597747014 109739.68395756342 155857.67678774428 109535.17382496686 154854.4075980184 109330.66369237029 153998.52020943802 108818.35613110432 153483.08556638059 108113.81740138622 152575.13787948093 108196.77868034423 151697.27794849023 107829.47265832113 151285.184496525 107194.19199160373 150873.0910445598 106558.91132488633 151014.4889129988 105790.89207571476 151639.2028488225 105271.29943228753 150829.2900045881 104899.08811520589 150416.02364782125 104160.49726773993 150614.90597092282 103440.67304154202 150813.7882940244 102720.84881534411 151579.75182937324 102182.90603379912 152513.3766424308 102107.36075370907 Z"></path><path stroke="#666666" stroke-opacity="1" stroke-width="762" stroke-linecap="butt" stroke-linejoin="round" stroke-miterlimit="8" d="M 151639.43210189894 105271.22832165938 C 152021.6324324031 105446.87597241429 152463.16343875384 105526.55389878317 152904.74236067047 105499.56403575891 M 153483.11594408346 108113.8098888604 C 153673.01111690374 108096.45872795937 153859.14448667268 108059.71549620006 154036.71584149703 108004.52776842259 M 158815.36330667345 109200.76357420214 C 158681.80336922882 109044.37302660194 158569.98015143117 108877.25617714049 158481.7989836146 108702.26049174552 M 164847.4213067331 108498.56972001854 C 164916.32829940348 108320.4243118097 164960.97407064683 108137.07415471083 164980.61379187662 107951.57809247226 M 169267.06764529948 106604.85230828715 C 169276.00123674228 105736.24640583337 168644.16779015173 104940.94190947748 167642.95836882127 104560.54551014847 M 171471.89573508612 102381.08894956466 C 171309.75297171294 102676.86568144614 171062.22420123513 102939.24503456337 170748.71707110028 103147.65499228571 M 169723.61791128613 99549.39410878508 C 169751.24499021415 99668.83541434193 169764.0308221168 99790.07189190705 169761.79818724727 99911.42312693877 M 165485.29295844526 98662.69889103794 C 165333.82886555098 98801.86200386731 165209.04239643464 98957.37495578607 165114.81901388735 99124.39555683165 M 161800.42281382452 98935.15354437479 C 161719.7054279657 99061.55433277476 161659.4310081149 99195.30802975569 161620.98801269656 99333.33353643955 M 157579.08113127202 99442.24580137397 C 157814.75248317927 99550.0196128721 158032.78050719676 99679.73694644835 158228.37568229967 99828.5482422847 M 152531.5532999866 102068.81179694935 C 152555.53290501473 102206.41030344841 152593.42188544208 102342.31239200644 152644.8656231899 102475.24610077609"></path></g><g><path fill="#000" fill-opacity="0" stroke="#000" stroke-opacity="0" stroke-width="3882.8025477707006" stroke-linecap="round" stroke-linejoin="round" stroke-miterlimit="10" pointer-events="visiblePainted" d="M 152531.5532999866 102068.81179694935 C 152357.56861832648 101070.46206091034 152928.79492786853 100082.15635291972 154002.83984627292 99523.26922039979 155076.88476467735 98964.38208787987 156465.384052178 98932.93024133149 157579.1462717694 99442.25985876938 157973.6747584433 98861.7779110102 158695.77721725358 98460.99515151049 159527.03162530993 98361.14061086203 160358.28603336628 98261.28607021357 161201.05830532685 98474.08805523669 161800.42613448633 98935.17808265491 162136.5137932662 98408.87579239522 162796.42768850178 98055.26792111607 163545.99611377408 97999.83289747073 164295.56453904638 97944.39787382538 165028.70513180355 98194.9811166951 165485.26155211928 98662.66268363516 166092.4529496951 98104.78362890203 167058.50974509757 97869.8933442862 167965.4136820765 98059.63018858033 168872.31761905542 98249.36703287445 169557.18066056696 98829.65257631133 169723.65868300962 99549.39397202201 170467.5710999801 99707.83399744738 171087.23454984504 100110.60953124193 171422.54783627763 100653.65627071723 171757.8611227102 101196.7030101925 171775.9307643753 101826.749288189 171472.08814438354 102381.01131800679 172204.62482765855 103125.44580418777 172375.98354688252 104117.39570851056 171922.21628102905 104986.68299961514 171468.44901517563 105855.9702907197 170457.729122189 106471.99446453189 169267.2392587857 106604.86627469133 169258.84818671484 107420.72345546214 168685.80844679527 108169.34419756428 167768.99462780188 108562.17731154038 166852.18080880842 108955.01042551649 165734.75643119795 108930.71371692781 164847.42574233437 108498.65220035234 164469.4699008444 109475.78231527715 163405.65050227797 110194.74536118153 162115.5768572706 110344.92272146029 160825.5032122632 110495.10008173904 159540.4463630396 110049.56951457703 158815.5983782864 109200.81669669371 157927.0864411331 109619.16972050388 156860.94597747014 109739.68395756342 155857.67678774428 109535.17382496686 154854.4075980184 109330.66369237029 153998.52020943802 108818.35613110432 153483.08556638059 108113.81740138622 152575.13787948093 108196.77868034423 151697.27794849023 107829.47265832113 151285.184496525 107194.19199160373 150873.0910445598 106558.91132488633 151014.4889129988 105790.89207571476 151639.2028488225 105271.29943228753 150829.2900045881 104899.08811520589 150416.02364782125 104160.49726773993 150614.90597092282 103440.67304154202 150813.7882940244 102720.84881534411 151579.75182937324 102182.90603379912 152513.3766424308 102107.36075370907 Z"></path><path stroke="#000" stroke-opacity="0" stroke-width="3882.8025477707006" stroke-linecap="round" stroke-linejoin="round" stroke-miterlimit="10" pointer-events="visiblePainted" d="M 151639.43210189894 105271.22832165938 C 152021.6324324031 105446.87597241429 152463.16343875384 105526.55389878317 152904.74236067047 105499.56403575891 M 153483.11594408346 108113.8098888604 C 153673.01111690374 108096.45872795937 153859.14448667268 108059.71549620006 154036.71584149703 108004.52776842259 M 158815.36330667345 109200.76357420214 C 158681.80336922882 109044.37302660194 158569.98015143117 108877.25617714049 158481.7989836146 108702.26049174552 M 164847.4213067331 108498.56972001854 C 164916.32829940348 108320.4243118097 164960.97407064683 108137.07415471083 164980.61379187662 107951.57809247226 M 169267.06764529948 106604.85230828715 C 169276.00123674228 105736.24640583337 168644.16779015173 104940.94190947748 167642.95836882127 104560.54551014847 M 171471.89573508612 102381.08894956466 C 171309.75297171294 102676.86568144614 171062.22420123513 102939.24503456337 170748.71707110028 103147.65499228571 M 169723.61791128613 99549.39410878508 C 169751.24499021415 99668.83541434193 169764.0308221168 99790.07189190705 169761.79818724727 99911.42312693877 M 165485.29295844526 98662.69889103794 C 165333.82886555098 98801.86200386731 165209.04239643464 98957.37495578607 165114.81901388735 99124.39555683165 M 161800.42281382452 98935.15354437479 C 161719.7054279657 99061.55433277476 161659.4310081149 99195.30802975569 161620.98801269656 99333.33353643955 M 157579.08113127202 99442.24580137397 C 157814.75248317927 99550.0196128721 158032.78050719676 99679.73694644835 158228.37568229967 99828.5482422847 M 152531.5532999866 102068.81179694935 C 152555.53290501473 102206.41030344841 152593.42188544208 102342.31239200644 152644.8656231899 102475.24610077609"></path></g><g></g></g></g></g></g><g id="editor-gba0784a3a_0_56"><g></g><g id="editor-gba0784a3a_0_52"><g></g><g id="editor-gba0784a3a_0_46"><g><g></g><g><path fill="#FFFFFF" fill-opacity="1" stroke="#666666" stroke-opacity="1" stroke-width="762" stroke-linecap="butt" stroke-linejoin="round" stroke-miterlimit="8" d="M 191119.92537811998 93852.62851469067 C 191119.92537811998 88225.58216629968 195110.7619590057 83663.9598069 200033.7083671458 83663.9598069 202397.79060268667 83663.9598069 204665.04618467766 84737.40574948283 206336.70476471126 86648.1517801487 208008.36334474487 88558.8978108146 208947.49135617164 91150.42556387243 208947.49135617164 93852.62851469067 208947.49135617164 99479.67486308169 204956.65477528592 104041.29722248136 200033.70836714582 104041.29722248136 195110.7619590057 104041.29722248136 191119.92537811998 99479.67486308169 191119.92537811998 93852.62851469069 Z"></path></g><g><path fill="#000" fill-opacity="0" stroke="#000" stroke-opacity="0" stroke-width="3882.8025477707006" stroke-linecap="round" stroke-linejoin="round" stroke-miterlimit="10" pointer-events="visiblePainted" d="M 191119.92537811998 93852.62851469067 C 191119.92537811998 88225.58216629968 195110.7619590057 83663.9598069 200033.7083671458 83663.9598069 202397.79060268667 83663.9598069 204665.04618467766 84737.40574948283 206336.70476471126 86648.1517801487 208008.36334474487 88558.8978108146 208947.49135617164 91150.42556387243 208947.49135617164 93852.62851469067 208947.49135617164 99479.67486308169 204956.65477528592 104041.29722248136 200033.70836714582 104041.29722248136 195110.7619590057 104041.29722248136 191119.92537811998 99479.67486308169 191119.92537811998 93852.62851469069 Z"></path></g><g></g></g></g><g id="editor-gba0784a3a_0_47"><g><g></g><g><path stroke="#666666" stroke-opacity="1" stroke-width="762" stroke-linecap="butt" stroke-linejoin="round" stroke-miterlimit="8" d="M 200033.7080522 104041.2965025 L 200033.7080522 148448.14593798202"></path></g><g><path stroke="#000" stroke-opacity="0" stroke-width="3882.8025477707006" stroke-linecap="round" stroke-linejoin="round" stroke-miterlimit="10" pointer-events="visiblePainted" d="M 200033.7080522 104041.2965025 L 200033.7080522 148448.14593798202"></path></g></g></g><g id="editor-gba0784a3a_0_48"><g><g></g><g><path stroke="#666666" stroke-opacity="1" stroke-width="762" stroke-linecap="butt" stroke-linejoin="round" stroke-miterlimit="8" d="M 199992.30986372 148448.1461349 L 209696.42182479048 189854.5348496355"></path></g><g><path stroke="#000" stroke-opacity="0" stroke-width="3882.8025477707006" stroke-linecap="round" stroke-linejoin="round" stroke-miterlimit="10" pointer-events="visiblePainted" d="M 199992.30986372 148448.1461349 L 209696.42182479048 189854.5348496355"></path></g></g></g><g id="editor-gba0784a3a_0_49"><g><g></g><g><path stroke="#666666" stroke-opacity="1" stroke-width="762" stroke-linecap="butt" stroke-linejoin="round" stroke-miterlimit="8" d="M 200131.55831588001 148767.01252345002 L 190370.99416520612 190405.69137348293"></path></g><g><path stroke="#000" stroke-opacity="0" stroke-width="3882.8025477707006" stroke-linecap="round" stroke-linejoin="round" stroke-miterlimit="10" pointer-events="visiblePainted" d="M 200131.55831588001 148767.01252345002 L 190370.99416520612 190405.69137348293"></path></g></g></g><g id="editor-gba0784a3a_0_50"><g><g></g><g><path stroke="#666666" stroke-opacity="1" stroke-width="762" stroke-linecap="butt" stroke-linejoin="round" stroke-miterlimit="8" d="M 200032.29675032 107222.97006245 L 220919.5648435045 141763.78281548413"></path></g><g><path stroke="#000" stroke-opacity="0" stroke-width="3882.8025477707006" stroke-linecap="round" stroke-linejoin="round" stroke-miterlimit="10" pointer-events="visiblePainted" d="M 200032.29675032 107222.97006245 L 220919.5648435045 141763.78281548413"></path></g></g></g><g id="editor-gba0784a3a_0_51"><g><g></g><g><path stroke="#666666" stroke-opacity="1" stroke-width="762" stroke-linecap="butt" stroke-linejoin="round" stroke-miterlimit="8" d="M 200171.54520248 107382.13439805001 L 179419.76270082427 140174.28861200553"></path></g><g><path stroke="#000" stroke-opacity="0" stroke-width="3882.8025477707006" stroke-linecap="round" stroke-linejoin="round" stroke-miterlimit="10" pointer-events="visiblePainted" d="M 200171.54520248 107382.13439805001 L 179419.76270082427 140174.28861200553"></path></g></g></g></g><g id="editor-gba0784a3a_0_55"><g></g><g id="editor-gba0784a3a_0_53"><g><g></g><g><path fill="#FFFFFF" fill-opacity="1" stroke="#666666" stroke-opacity="1" stroke-width="762" stroke-linecap="butt" stroke-linejoin="round" stroke-miterlimit="8" d="M 207562.3706055425 72307.14695860064 L 207562.3706055425 88186.70307542957 C 207562.3706055425 86432.69573994819 204251.79348915708 85010.79185206379 200167.98965663748 85010.79185206379 196084.18582411786 85010.79185206379 192773.60870773243 86432.69573994819 192773.60870773243 88186.70307542957 L 192773.60870773243 72307.14695860064 C 192773.60870773243 70553.13962311926 196084.18582411786 69131.23573523486 200167.98965663745 69131.23573523486 204251.79348915708 69131.23573523486 207562.3706055425 70553.13962311926 207562.3706055425 72307.14695860064 Z"></path></g><g><path fill="#000" fill-opacity="0" stroke="#000" stroke-opacity="0" stroke-width="3882.8025477707006" stroke-linecap="round" stroke-linejoin="round" stroke-miterlimit="10" pointer-events="visiblePainted" d="M 207562.3706055425 72307.14695860064 L 207562.3706055425 88186.70307542957 C 207562.3706055425 86432.69573994819 204251.79348915708 85010.79185206379 200167.98965663748 85010.79185206379 196084.18582411786 85010.79185206379 192773.60870773243 86432.69573994819 192773.60870773243 88186.70307542957 L 192773.60870773243 72307.14695860064 C 192773.60870773243 70553.13962311926 196084.18582411786 69131.23573523486 200167.98965663745 69131.23573523486 204251.79348915708 69131.23573523486 207562.3706055425 70553.13962311926 207562.3706055425 72307.14695860064 Z"></path></g><g></g></g></g><g id="editor-gba0784a3a_0_54"><g><g></g><g><path fill="#FFFFFF" fill-opacity="1" stroke="#666666" stroke-opacity="1" stroke-width="762" stroke-linecap="butt" stroke-linejoin="round" stroke-miterlimit="8" d="M 191326.5532999866 70464.81179694935 C 191152.56861832648 69466.46206091034 191723.79492786853 68478.15635291972 192797.83984627292 67919.26922039979 193871.88476467735 67360.38208787987 195260.384052178 67328.93024133149 196374.1462717694 67838.25985876938 196768.6747584433 67257.7779110102 197490.77721725358 66856.99515151049 198322.03162530993 66757.14061086203 199153.28603336628 66657.28607021357 199996.05830532685 66870.08805523669 200595.42613448633 67331.17808265491 200931.5137932662 66804.87579239522 201591.42768850178 66451.26792111607 202340.99611377408 66395.83289747073 203090.56453904638 66340.39787382538 203823.70513180355 66590.9811166951 204280.26155211928 67058.66268363516 204887.4529496951 66500.78362890203 205853.50974509757 66265.8933442862 206760.4136820765 66455.63018858033 207667.31761905542 66645.36703287445 208352.18066056696 67225.65257631133 208518.65868300962 67945.39397202201 209262.5710999801 68103.83399744738 209882.23454984504 68506.60953124193 210217.54783627763 69049.65627071723 210552.8611227102 69592.7030101925 210570.9307643753 70222.749288189 210267.08814438354 70777.01131800679 210999.62482765855 71521.44580418777 211170.98354688252 72513.39570851056 210717.21628102905 73382.68299961514 210263.44901517563 74251.9702907197 209252.729122189 74867.99446453189 208062.2392587857 75000.86627469133 208053.84818671484 75816.72345546214 207480.80844679527 76565.34419756428 206563.99462780188 76958.17731154038 205647.18080880842 77351.01042551649 204529.75643119795 77326.71371692781 203642.42574233437 76894.65220035234 203264.4699008444 77871.78231527715 202200.65050227797 78590.74536118153 200910.5768572706 78740.92272146029 199620.5032122632 78891.10008173904 198335.4463630396 78445.56951457703 197610.5983782864 77596.81669669371 196722.0864411331 78015.16972050388 195655.94597747014 78135.68395756342 194652.67678774428 77931.17382496686 193649.4075980184 77726.66369237029 192793.52020943802 77214.35613110432 192278.08556638059 76509.81740138622 191370.13787948093 76592.77868034423 190492.27794849023 76225.47265832113 190080.184496525 75590.19199160373 189668.0910445598 74954.91132488633 189809.4889129988 74186.89207571476 190434.2028488225 73667.29943228753 189624.2900045881 73295.08811520589 189211.02364782125 72556.49726773993 189409.90597092282 71836.67304154202 189608.7882940244 71116.84881534411 190374.75182937324 70578.90603379912 191308.3766424308 70503.36075370907 Z"></path><path stroke="#666666" stroke-opacity="1" stroke-width="762" stroke-linecap="butt" stroke-linejoin="round" stroke-miterlimit="8" d="M 190434.43210189894 73667.22832165938 C 190816.6324324031 73842.87597241429 191258.16343875384 73922.55389878317 191699.74236067047 73895.56403575891 M 192278.11594408346 76509.8098888604 C 192468.01111690374 76492.45872795937 192654.14448667268 76455.71549620006 192831.71584149703 76400.52776842259 M 197610.36330667345 77596.76357420214 C 197476.80336922882 77440.37302660194 197364.98015143117 77273.25617714049 197276.7989836146 77098.26049174552 M 203642.4213067331 76894.56972001854 C 203711.32829940348 76716.4243118097 203755.97407064683 76533.07415471083 203775.61379187662 76347.57809247226 M 208062.06764529948 75000.85230828715 C 208071.00123674228 74132.24640583337 207439.16779015173 73336.94190947748 206437.95836882127 72956.54551014847 M 210266.89573508612 70777.08894956466 C 210104.75297171294 71072.86568144614 209857.22420123513 71335.24503456337 209543.71707110028 71543.65499228571 M 208518.61791128613 67945.39410878508 C 208546.24499021415 68064.83541434193 208559.0308221168 68186.07189190705 208556.79818724727 68307.42312693877 M 204280.29295844526 67058.69889103794 C 204128.82886555098 67197.86200386731 204004.04239643464 67353.37495578607 203909.81901388735 67520.39555683165 M 200595.42281382452 67331.15354437479 C 200514.7054279657 67457.55433277476 200454.4310081149 67591.30802975569 200415.98801269656 67729.33353643955 M 196374.08113127202 67838.24580137397 C 196609.75248317927 67946.0196128721 196827.78050719676 68075.73694644835 197023.37568229967 68224.5482422847 M 191326.5532999866 70464.81179694935 C 191350.53290501473 70602.41030344841 191388.42188544208 70738.31239200644 191439.8656231899 70871.24610077609"></path></g><g><path fill="#000" fill-opacity="0" stroke="#000" stroke-opacity="0" stroke-width="3882.8025477707006" stroke-linecap="round" stroke-linejoin="round" stroke-miterlimit="10" pointer-events="visiblePainted" d="M 191326.5532999866 70464.81179694935 C 191152.56861832648 69466.46206091034 191723.79492786853 68478.15635291972 192797.83984627292 67919.26922039979 193871.88476467735 67360.38208787987 195260.384052178 67328.93024133149 196374.1462717694 67838.25985876938 196768.6747584433 67257.7779110102 197490.77721725358 66856.99515151049 198322.03162530993 66757.14061086203 199153.28603336628 66657.28607021357 199996.05830532685 66870.08805523669 200595.42613448633 67331.17808265491 200931.5137932662 66804.87579239522 201591.42768850178 66451.26792111607 202340.99611377408 66395.83289747073 203090.56453904638 66340.39787382538 203823.70513180355 66590.9811166951 204280.26155211928 67058.66268363516 204887.4529496951 66500.78362890203 205853.50974509757 66265.8933442862 206760.4136820765 66455.63018858033 207667.31761905542 66645.36703287445 208352.18066056696 67225.65257631133 208518.65868300962 67945.39397202201 209262.5710999801 68103.83399744738 209882.23454984504 68506.60953124193 210217.54783627763 69049.65627071723 210552.8611227102 69592.7030101925 210570.9307643753 70222.749288189 210267.08814438354 70777.01131800679 210999.62482765855 71521.44580418777 211170.98354688252 72513.39570851056 210717.21628102905 73382.68299961514 210263.44901517563 74251.9702907197 209252.729122189 74867.99446453189 208062.2392587857 75000.86627469133 208053.84818671484 75816.72345546214 207480.80844679527 76565.34419756428 206563.99462780188 76958.17731154038 205647.18080880842 77351.01042551649 204529.75643119795 77326.71371692781 203642.42574233437 76894.65220035234 203264.4699008444 77871.78231527715 202200.65050227797 78590.74536118153 200910.5768572706 78740.92272146029 199620.5032122632 78891.10008173904 198335.4463630396 78445.56951457703 197610.5983782864 77596.81669669371 196722.0864411331 78015.16972050388 195655.94597747014 78135.68395756342 194652.67678774428 77931.17382496686 193649.4075980184 77726.66369237029 192793.52020943802 77214.35613110432 192278.08556638059 76509.81740138622 191370.13787948093 76592.77868034423 190492.27794849023 76225.47265832113 190080.184496525 75590.19199160373 189668.0910445598 74954.91132488633 189809.4889129988 74186.89207571476 190434.2028488225 73667.29943228753 189624.2900045881 73295.08811520589 189211.02364782125 72556.49726773993 189409.90597092282 71836.67304154202 189608.7882940244 71116.84881534411 190374.75182937324 70578.90603379912 191308.3766424308 70503.36075370907 Z"></path><path stroke="#000" stroke-opacity="0" stroke-width="3882.8025477707006" stroke-linecap="round" stroke-linejoin="round" stroke-miterlimit="10" pointer-events="visiblePainted" d="M 190434.43210189894 73667.22832165938 C 190816.6324324031 73842.87597241429 191258.16343875384 73922.55389878317 191699.74236067047 73895.56403575891 M 192278.11594408346 76509.8098888604 C 192468.01111690374 76492.45872795937 192654.14448667268 76455.71549620006 192831.71584149703 76400.52776842259 M 197610.36330667345 77596.76357420214 C 197476.80336922882 77440.37302660194 197364.98015143117 77273.25617714049 197276.7989836146 77098.26049174552 M 203642.4213067331 76894.56972001854 C 203711.32829940348 76716.4243118097 203755.97407064683 76533.07415471083 203775.61379187662 76347.57809247226 M 208062.06764529948 75000.85230828715 C 208071.00123674228 74132.24640583337 207439.16779015173 73336.94190947748 206437.95836882127 72956.54551014847 M 210266.89573508612 70777.08894956466 C 210104.75297171294 71072.86568144614 209857.22420123513 71335.24503456337 209543.71707110028 71543.65499228571 M 208518.61791128613 67945.39410878508 C 208546.24499021415 68064.83541434193 208559.0308221168 68186.07189190705 208556.79818724727 68307.42312693877 M 204280.29295844526 67058.69889103794 C 204128.82886555098 67197.86200386731 204004.04239643464 67353.37495578607 203909.81901388735 67520.39555683165 M 200595.42281382452 67331.15354437479 C 200514.7054279657 67457.55433277476 200454.4310081149 67591.30802975569 200415.98801269656 67729.33353643955 M 196374.08113127202 67838.24580137397 C 196609.75248317927 67946.0196128721 196827.78050719676 68075.73694644835 197023.37568229967 68224.5482422847 M 191326.5532999866 70464.81179694935 C 191350.53290501473 70602.41030344841 191388.42188544208 70738.31239200644 191439.8656231899 70871.24610077609"></path></g><g></g></g></g></g></g><g id="editor-gba0784a3a_0_34"><g></g><g id="editor-gba0784a3a_0_30"><g></g><g id="editor-gba0784a3a_0_24"><g><g></g><g><path fill="#FFFFFF" fill-opacity="1" stroke="#666666" stroke-opacity="1" stroke-width="762" stroke-linecap="butt" stroke-linejoin="round" stroke-miterlimit="8" d="M 195754.92537812 148436.62851469067 C 195754.92537812 142809.58216629966 199745.76195900573 138247.9598069 204668.70836714585 138247.9598069 207032.7906026867 138247.9598069 209300.0461846777 139321.40574948283 210971.7047647113 141232.1517801487 212643.3633447449 143142.89781081458 213582.49135617167 145734.42556387244 213582.49135617167 148436.62851469067 213582.49135617167 154063.6748630817 209591.65477528595 158625.29722248134 204668.70836714585 158625.29722248134 199745.76195900573 158625.29722248134 195754.92537812 154063.6748630817 195754.92537812 148436.62851469067 Z"></path></g><g><path fill="#000" fill-opacity="0" stroke="#000" stroke-opacity="0" stroke-width="3882.8025477707006" stroke-linecap="round" stroke-linejoin="round" stroke-miterlimit="10" pointer-events="visiblePainted" d="M 195754.92537812 148436.62851469067 C 195754.92537812 142809.58216629966 199745.76195900573 138247.9598069 204668.70836714585 138247.9598069 207032.7906026867 138247.9598069 209300.0461846777 139321.40574948283 210971.7047647113 141232.1517801487 212643.3633447449 143142.89781081458 213582.49135617167 145734.42556387244 213582.49135617167 148436.62851469067 213582.49135617167 154063.6748630817 209591.65477528595 158625.29722248134 204668.70836714585 158625.29722248134 199745.76195900573 158625.29722248134 195754.92537812 154063.6748630817 195754.92537812 148436.62851469067 Z"></path></g><g></g></g></g><g id="editor-gba0784a3a_0_25"><g><g></g><g><path stroke="#666666" stroke-opacity="1" stroke-width="762" stroke-linecap="butt" stroke-linejoin="round" stroke-miterlimit="8" d="M 204668.70805220003 158625.29650250002 L 204668.70805220003 203032.14593798204"></path></g><g><path stroke="#000" stroke-opacity="0" stroke-width="3882.8025477707006" stroke-linecap="round" stroke-linejoin="round" stroke-miterlimit="10" pointer-events="visiblePainted" d="M 204668.70805220003 158625.29650250002 L 204668.70805220003 203032.14593798204"></path></g></g></g><g id="editor-gba0784a3a_0_26"><g><g></g><g><path stroke="#666666" stroke-opacity="1" stroke-width="762" stroke-linecap="butt" stroke-linejoin="round" stroke-miterlimit="8" d="M 204627.30986372003 203032.1461349 L 214331.4218247905 244438.5348496355"></path></g><g><path stroke="#000" stroke-opacity="0" stroke-width="3882.8025477707006" stroke-linecap="round" stroke-linejoin="round" stroke-miterlimit="10" pointer-events="visiblePainted" d="M 204627.30986372003 203032.1461349 L 214331.4218247905 244438.5348496355"></path></g></g></g><g id="editor-gba0784a3a_0_27"><g><g></g><g><path stroke="#666666" stroke-opacity="1" stroke-width="762" stroke-linecap="butt" stroke-linejoin="round" stroke-miterlimit="8" d="M 204766.55831588001 203351.01252345002 L 195005.99416520612 244989.69137348293"></path></g><g><path stroke="#000" stroke-opacity="0" stroke-width="3882.8025477707006" stroke-linecap="round" stroke-linejoin="round" stroke-miterlimit="10" pointer-events="visiblePainted" d="M 204766.55831588001 203351.01252345002 L 195005.99416520612 244989.69137348293"></path></g></g></g><g id="editor-gba0784a3a_0_28"><g><g></g><g><path stroke="#666666" stroke-opacity="1" stroke-width="762" stroke-linecap="butt" stroke-linejoin="round" stroke-miterlimit="8" d="M 204667.29675032 161806.97006244998 L 225554.5648435045 196347.7828154841"></path></g><g><path stroke="#000" stroke-opacity="0" stroke-width="3882.8025477707006" stroke-linecap="round" stroke-linejoin="round" stroke-miterlimit="10" pointer-events="visiblePainted" d="M 204667.29675032 161806.97006244998 L 225554.5648435045 196347.7828154841"></path></g></g></g><g id="editor-gba0784a3a_0_29"><g><g></g><g><path stroke="#666666" stroke-opacity="1" stroke-width="762" stroke-linecap="butt" stroke-linejoin="round" stroke-miterlimit="8" d="M 204806.54520248002 161966.13439805002 L 184054.7627008243 194758.28861200553"></path></g><g><path stroke="#000" stroke-opacity="0" stroke-width="3882.8025477707006" stroke-linecap="round" stroke-linejoin="round" stroke-miterlimit="10" pointer-events="visiblePainted" d="M 204806.54520248002 161966.13439805002 L 184054.7627008243 194758.28861200553"></path></g></g></g></g><g id="editor-gba0784a3a_0_33"><g></g><g id="editor-gba0784a3a_0_31"><g><g></g><g><path fill="#FFFFFF" fill-opacity="1" stroke="#666666" stroke-opacity="1" stroke-width="762" stroke-linecap="butt" stroke-linejoin="round" stroke-miterlimit="8" d="M 212197.3706055425 126891.14695860064 L 212197.3706055425 142770.70307542957 C 212197.3706055425 141016.6957399482 208886.79348915708 139594.7918520638 204802.98965663748 139594.7918520638 200719.18582411786 139594.7918520638 197408.60870773243 141016.6957399482 197408.60870773243 142770.70307542957 L 197408.60870773243 126891.14695860064 C 197408.60870773243 125137.13962311926 200719.18582411786 123715.23573523486 204802.98965663745 123715.23573523486 208886.79348915708 123715.23573523486 212197.3706055425 125137.13962311926 212197.3706055425 126891.14695860064 Z"></path></g><g><path fill="#000" fill-opacity="0" stroke="#000" stroke-opacity="0" stroke-width="3882.8025477707006" stroke-linecap="round" stroke-linejoin="round" stroke-miterlimit="10" pointer-events="visiblePainted" d="M 212197.3706055425 126891.14695860064 L 212197.3706055425 142770.70307542957 C 212197.3706055425 141016.6957399482 208886.79348915708 139594.7918520638 204802.98965663748 139594.7918520638 200719.18582411786 139594.7918520638 197408.60870773243 141016.6957399482 197408.60870773243 142770.70307542957 L 197408.60870773243 126891.14695860064 C 197408.60870773243 125137.13962311926 200719.18582411786 123715.23573523486 204802.98965663745 123715.23573523486 208886.79348915708 123715.23573523486 212197.3706055425 125137.13962311926 212197.3706055425 126891.14695860064 Z"></path></g><g></g></g></g><g id="editor-gba0784a3a_0_32"><g><g></g><g><path fill="#FFFFFF" fill-opacity="1" stroke="#666666" stroke-opacity="1" stroke-width="762" stroke-linecap="butt" stroke-linejoin="round" stroke-miterlimit="8" d="M 195961.55329998664 125048.81179694935 C 195787.5686183265 124050.46206091034 196358.79492786856 123062.15635291972 197432.83984627295 122503.26922039979 198506.88476467738 121944.38208787987 199895.38405217804 121912.93024133149 201009.14627176942 122422.25985876938 201403.67475844332 121841.7779110102 202125.7772172536 121440.99515151049 202957.03162530996 121341.14061086203 203788.2860333663 121241.28607021357 204631.05830532688 121454.08805523669 205230.42613448636 121915.17808265491 205566.5137932662 121388.87579239522 206226.4276885018 121035.26792111607 206975.9961137741 120979.83289747073 207725.5645390464 120924.39787382538 208458.70513180358 121174.9811166951 208915.2615521193 121642.66268363516 209522.45294969514 121084.78362890203 210488.5097450976 120849.8933442862 211395.41368207653 121039.63018858033 212302.31761905545 121229.36703287445 212987.180660567 121809.65257631133 213153.65868300962 122529.39397202201 213897.5710999801 122687.83399744738 214517.2345498451 123090.60953124193 214852.54783627766 123633.65627071723 215187.86112271022 124176.7030101925 215205.9307643753 124806.749288189 214902.08814438357 125361.01131800679 215634.62482765858 126105.44580418777 215805.98354688252 127097.39570851056 215352.21628102908 127966.68299961514 214898.44901517563 128835.9702907197 213887.72912218902 129451.99446453189 212697.23925878573 129584.86627469133 212688.84818671487 130400.72345546214 212115.80844679533 131149.34419756426 211198.99462780188 131542.17731154038 210282.18080880845 131935.0104255165 209164.75643119798 131910.71371692783 208277.4257423344 131478.65220035234 207899.46990084441 132455.78231527715 206835.650502278 133174.74536118153 205545.57685727061 133324.9227214603 204255.50321226323 133475.10008173904 202970.44636303963 133029.56951457704 202245.59837828644 132180.8166966937 201357.08644113314 132599.16972050388 200290.94597747017 132719.68395756342 199287.6767877443 132515.17382496686 198284.40759801844 132310.6636923703 197428.52020943805 131798.35613110432 196913.0855663806 131093.81740138622 196005.13787948096 131176.77868034423 195127.27794849026 130809.47265832113 194715.18449652503 130174.19199160373 194303.09104455984 129538.91132488633 194444.48891299882 128770.89207571476 195069.20284882252 128251.29943228753 194259.29000458814 127879.08811520589 193846.02364782128 127140.49726773993 194044.90597092285 126420.67304154202 194243.78829402442 125700.84881534411 195009.75182937327 125162.90603379912 195943.37664243084 125087.36075370907 Z"></path><path stroke="#666666" stroke-opacity="1" stroke-width="762" stroke-linecap="butt" stroke-linejoin="round" stroke-miterlimit="8" d="M 195069.43210189897 128251.22832165938 C 195451.63243240313 128426.87597241429 195893.16343875387 128506.55389878317 196334.7423606705 128479.56403575891 M 196913.1159440835 131093.8098888604 C 197103.01111690377 131076.45872795937 197289.1444866727 131039.71549620006 197466.71584149706 130984.52776842259 M 202245.36330667348 132180.76357420214 C 202111.80336922884 132024.37302660194 201999.9801514312 131857.2561771405 201911.79898361463 131682.26049174552 M 208277.42130673313 131478.56972001854 C 208346.3282994035 131300.42431180968 208390.97407064686 131117.07415471083 208410.61379187665 130931.57809247226 M 212697.0676452995 129584.85230828715 C 212706.0012367423 128716.24640583337 212074.16779015175 127920.94190947748 211072.9583688213 127540.54551014847 M 214901.89573508615 125361.08894956466 C 214739.75297171297 125656.86568144614 214492.22420123516 125919.24503456337 214178.7170711003 126127.65499228571 M 213153.61791128616 122529.39410878508 C 213181.24499021418 122648.83541434193 213194.03082211682 122770.07189190705 213191.7981872473 122891.42312693877 M 208915.2929584453 121642.69889103794 C 208763.828865551 121781.86200386731 208639.04239643467 121937.37495578607 208544.81901388738 122104.39555683165 M 205230.42281382455 121915.15354437479 C 205149.70542796573 122041.55433277476 205089.43100811492 122175.30802975569 205050.9880126966 122313.33353643955 M 201009.08113127205 122422.24580137397 C 201244.7524831793 122530.0196128721 201462.7805071968 122659.73694644835 201658.3756822997 122808.5482422847 M 195961.55329998664 125048.81179694935 C 195985.53290501476 125186.41030344841 196023.4218854421 125322.31239200644 196074.86562318992 125455.24610077609"></path></g><g><path fill="#000" fill-opacity="0" stroke="#000" stroke-opacity="0" stroke-width="3882.8025477707006" stroke-linecap="round" stroke-linejoin="round" stroke-miterlimit="10" pointer-events="visiblePainted" d="M 195961.55329998664 125048.81179694935 C 195787.5686183265 124050.46206091034 196358.79492786856 123062.15635291972 197432.83984627295 122503.26922039979 198506.88476467738 121944.38208787987 199895.38405217804 121912.93024133149 201009.14627176942 122422.25985876938 201403.67475844332 121841.7779110102 202125.7772172536 121440.99515151049 202957.03162530996 121341.14061086203 203788.2860333663 121241.28607021357 204631.05830532688 121454.08805523669 205230.42613448636 121915.17808265491 205566.5137932662 121388.87579239522 206226.4276885018 121035.26792111607 206975.9961137741 120979.83289747073 207725.5645390464 120924.39787382538 208458.70513180358 121174.9811166951 208915.2615521193 121642.66268363516 209522.45294969514 121084.78362890203 210488.5097450976 120849.8933442862 211395.41368207653 121039.63018858033 212302.31761905545 121229.36703287445 212987.180660567 121809.65257631133 213153.65868300962 122529.39397202201 213897.5710999801 122687.83399744738 214517.2345498451 123090.60953124193 214852.54783627766 123633.65627071723 215187.86112271022 124176.7030101925 215205.9307643753 124806.749288189 214902.08814438357 125361.01131800679 215634.62482765858 126105.44580418777 215805.98354688252 127097.39570851056 215352.21628102908 127966.68299961514 214898.44901517563 128835.9702907197 213887.72912218902 129451.99446453189 212697.23925878573 129584.86627469133 212688.84818671487 130400.72345546214 212115.80844679533 131149.34419756426 211198.99462780188 131542.17731154038 210282.18080880845 131935.0104255165 209164.75643119798 131910.71371692783 208277.4257423344 131478.65220035234 207899.46990084441 132455.78231527715 206835.650502278 133174.74536118153 205545.57685727061 133324.9227214603 204255.50321226323 133475.10008173904 202970.44636303963 133029.56951457704 202245.59837828644 132180.8166966937 201357.08644113314 132599.16972050388 200290.94597747017 132719.68395756342 199287.6767877443 132515.17382496686 198284.40759801844 132310.6636923703 197428.52020943805 131798.35613110432 196913.0855663806 131093.81740138622 196005.13787948096 131176.77868034423 195127.27794849026 130809.47265832113 194715.18449652503 130174.19199160373 194303.09104455984 129538.91132488633 194444.48891299882 128770.89207571476 195069.20284882252 128251.29943228753 194259.29000458814 127879.08811520589 193846.02364782128 127140.49726773993 194044.90597092285 126420.67304154202 194243.78829402442 125700.84881534411 195009.75182937327 125162.90603379912 195943.37664243084 125087.36075370907 Z"></path><path stroke="#000" stroke-opacity="0" stroke-width="3882.8025477707006" stroke-linecap="round" stroke-linejoin="round" stroke-miterlimit="10" pointer-events="visiblePainted" d="M 195069.43210189897 128251.22832165938 C 195451.63243240313 128426.87597241429 195893.16343875387 128506.55389878317 196334.7423606705 128479.56403575891 M 196913.1159440835 131093.8098888604 C 197103.01111690377 131076.45872795937 197289.1444866727 131039.71549620006 197466.71584149706 130984.52776842259 M 202245.36330667348 132180.76357420214 C 202111.80336922884 132024.37302660194 201999.9801514312 131857.2561771405 201911.79898361463 131682.26049174552 M 208277.42130673313 131478.56972001854 C 208346.3282994035 131300.42431180968 208390.97407064686 131117.07415471083 208410.61379187665 130931.57809247226 M 212697.0676452995 129584.85230828715 C 212706.0012367423 128716.24640583337 212074.16779015175 127920.94190947748 211072.9583688213 127540.54551014847 M 214901.89573508615 125361.08894956466 C 214739.75297171297 125656.86568144614 214492.22420123516 125919.24503456337 214178.7170711003 126127.65499228571 M 213153.61791128616 122529.39410878508 C 213181.24499021418 122648.83541434193 213194.03082211682 122770.07189190705 213191.7981872473 122891.42312693877 M 208915.2929584453 121642.69889103794 C 208763.828865551 121781.86200386731 208639.04239643467 121937.37495578607 208544.81901388738 122104.39555683165 M 205230.42281382455 121915.15354437479 C 205149.70542796573 122041.55433277476 205089.43100811492 122175.30802975569 205050.9880126966 122313.33353643955 M 201009.08113127205 122422.24580137397 C 201244.7524831793 122530.0196128721 201462.7805071968 122659.73694644835 201658.3756822997 122808.5482422847 M 195961.55329998664 125048.81179694935 C 195985.53290501476 125186.41030344841 196023.4218854421 125322.31239200644 196074.86562318992 125455.24610077609"></path></g><g></g></g></g></g></g><g id="editor-gba0784a3a_0_41"><g></g><g id="editor-gba0784a3a_0_35"><g><g></g><g><path fill="#FFFFFF" fill-opacity="1" stroke="#666666" stroke-opacity="1" stroke-width="762" stroke-linecap="butt" stroke-linejoin="round" stroke-miterlimit="8" d="M 318884.14119999995 112487.65205997907 C 318884.14119999995 106860.78727399095 322874.6896877168 102299.31210000001 327797.28071492305 102299.31210000001 330161.1922905211 102299.31210000001 332428.2842023562 103372.72340675213 334099.82210758695 105283.407785244 335771.3600128177 107194.09216373586 336710.42022984615 109785.53629850147 336710.42022984615 112487.65205997907 336710.42022984615 118114.51684596717 332719.8717421293 122675.99201995812 327797.28071492305 122675.99201995812 322874.6896877168 122675.99201995812 318884.14119999995 118114.51684596717 318884.14119999995 112487.65205997907 Z"></path></g><g><path fill="#000" fill-opacity="0" stroke="#000" stroke-opacity="0" stroke-width="3882.8025477707006" stroke-linecap="round" stroke-linejoin="round" stroke-miterlimit="10" pointer-events="visiblePainted" d="M 318884.14119999995 112487.65205997907 C 318884.14119999995 106860.78727399095 322874.6896877168 102299.31210000001 327797.28071492305 102299.31210000001 330161.1922905211 102299.31210000001 332428.2842023562 103372.72340675213 334099.82210758695 105283.407785244 335771.3600128177 107194.09216373586 336710.42022984615 109785.53629850147 336710.42022984615 112487.65205997907 336710.42022984615 118114.51684596717 332719.8717421293 122675.99201995812 327797.28071492305 122675.99201995812 322874.6896877168 122675.99201995812 318884.14119999995 118114.51684596717 318884.14119999995 112487.65205997907 Z"></path></g><g></g></g></g><g id="editor-gba0784a3a_0_36"><g><g></g><g><path stroke="#666666" stroke-opacity="1" stroke-width="762" stroke-linecap="butt" stroke-linejoin="round" stroke-miterlimit="8" d="M 327797.2804 122675.99130000001 L 327797.2804 167081.40790308837"></path></g><g><path stroke="#000" stroke-opacity="0" stroke-width="3882.8025477707006" stroke-linecap="round" stroke-linejoin="round" stroke-miterlimit="10" pointer-events="visiblePainted" d="M 327797.2804 122675.99130000001 L 327797.2804 167081.40790308837"></path></g></g></g><g id="editor-gba0784a3a_0_37"><g><g></g><g><path stroke="#666666" stroke-opacity="1" stroke-width="762" stroke-linecap="butt" stroke-linejoin="round" stroke-miterlimit="8" d="M 327755.88519999996 167081.4081 L 337459.29663417354 208486.46079527435"></path></g><g><path stroke="#000" stroke-opacity="0" stroke-width="3882.8025477707006" stroke-linecap="round" stroke-linejoin="round" stroke-miterlimit="10" pointer-events="visiblePainted" d="M 327755.88519999996 167081.4081 L 337459.29663417354 208486.46079527435"></path></g></g></g><g id="editor-gba0784a3a_0_38"><g><g></g><g><path stroke="#666666" stroke-opacity="1" stroke-width="762" stroke-linecap="butt" stroke-linejoin="round" stroke-miterlimit="8" d="M 327895.1236 167400.2642 L 318135.26405143127 209037.5995354931"></path></g><g><path stroke="#000" stroke-opacity="0" stroke-width="3882.8025477707006" stroke-linecap="round" stroke-linejoin="round" stroke-miterlimit="10" pointer-events="visiblePainted" d="M 327895.1236 167400.2642 L 318135.26405143127 209037.5995354931"></path></g></g></g><g id="editor-gba0784a3a_0_39"><g><g></g><g><path stroke="#666666" stroke-opacity="1" stroke-width="762" stroke-linecap="butt" stroke-linejoin="round" stroke-miterlimit="8" d="M 327795.86919999996 125857.5622 L 348681.629469165 160397.26045839995"></path></g><g><path stroke="#000" stroke-opacity="0" stroke-width="3882.8025477707006" stroke-linecap="round" stroke-linejoin="round" stroke-miterlimit="10" pointer-events="visiblePainted" d="M 327795.86919999996 125857.5622 L 348681.629469165 160397.26045839995"></path></g></g></g><g id="editor-gba0784a3a_0_40"><g><g></g><g><path stroke="#666666" stroke-opacity="1" stroke-width="762" stroke-linecap="butt" stroke-linejoin="round" stroke-miterlimit="8" d="M 327935.1076 126016.72140000001 L 307184.8231418396 158807.81754157678"></path></g><g><path stroke="#000" stroke-opacity="0" stroke-width="3882.8025477707006" stroke-linecap="round" stroke-linejoin="round" stroke-miterlimit="10" pointer-events="visiblePainted" d="M 327935.1076 126016.72140000001 L 307184.8231418396 158807.81754157678"></path></g></g></g></g><g id="editor-gba0784a3a_0_78"><g></g><g id="editor-gba0784a3a_0_23"><g></g><g id="editor-gba0784a3a_0_17"><g><g></g><g><path fill="#FFFFFF" fill-opacity="1" stroke="#666666" stroke-opacity="1" stroke-width="762" stroke-linecap="butt" stroke-linejoin="round" stroke-miterlimit="8" d="M 29197.141099999997 78809.15205997905 C 29197.141099999997 73182.28727399095 33187.68958771683 68620.8121 38110.28061492309 68620.8121 40474.19219052113 68620.8121 42741.284102356236 69694.22340675212 44412.82200758699 71604.90778524398 46084.35991281774 73515.59216373584 47023.420129846185 76107.03629850145 47023.420129846185 78809.15205997905 47023.420129846185 84436.01684596715 43032.87164212936 88997.49201995811 38110.28061492309 88997.49201995811 33187.689587716835 88997.49201995811 29197.141099999997 84436.01684596715 29197.141099999997 78809.15205997905 Z"></path></g><g><path fill="#000" fill-opacity="0" stroke="#000" stroke-opacity="0" stroke-width="3882.8025477707006" stroke-linecap="round" stroke-linejoin="round" stroke-miterlimit="10" pointer-events="visiblePainted" d="M 29197.141099999997 78809.15205997905 C 29197.141099999997 73182.28727399095 33187.68958771683 68620.8121 38110.28061492309 68620.8121 40474.19219052113 68620.8121 42741.284102356236 69694.22340675212 44412.82200758699 71604.90778524398 46084.35991281774 73515.59216373584 47023.420129846185 76107.03629850145 47023.420129846185 78809.15205997905 47023.420129846185 84436.01684596715 43032.87164212936 88997.49201995811 38110.28061492309 88997.49201995811 33187.689587716835 88997.49201995811 29197.141099999997 84436.01684596715 29197.141099999997 78809.15205997905 Z"></path></g><g></g></g></g><g id="editor-gba0784a3a_0_18"><g><g></g><g><path stroke="#666666" stroke-opacity="1" stroke-width="762" stroke-linecap="butt" stroke-linejoin="round" stroke-miterlimit="8" d="M 38110.2803 88997.4913 L 38110.2803 133402.90790308837"></path></g><g><path stroke="#000" stroke-opacity="0" stroke-width="3882.8025477707006" stroke-linecap="round" stroke-linejoin="round" stroke-miterlimit="10" pointer-events="visiblePainted" d="M 38110.2803 88997.4913 L 38110.2803 133402.90790308837"></path></g></g></g><g id="editor-gba0784a3a_0_19"><g><g></g><g><path stroke="#666666" stroke-opacity="1" stroke-width="762" stroke-linecap="butt" stroke-linejoin="round" stroke-miterlimit="8" d="M 38068.8851 133402.9081 L 47772.29653417358 174807.96079527435"></path></g><g><path stroke="#000" stroke-opacity="0" stroke-width="3882.8025477707006" stroke-linecap="round" stroke-linejoin="round" stroke-miterlimit="10" pointer-events="visiblePainted" d="M 38068.8851 133402.9081 L 47772.29653417358 174807.96079527435"></path></g></g></g><g id="editor-gba0784a3a_0_20"><g><g></g><g><path stroke="#666666" stroke-opacity="1" stroke-width="762" stroke-linecap="butt" stroke-linejoin="round" stroke-miterlimit="8" d="M 38208.1235 133721.7642 L 28448.263951431276 175359.0995354931"></path></g><g><path stroke="#000" stroke-opacity="0" stroke-width="3882.8025477707006" stroke-linecap="round" stroke-linejoin="round" stroke-miterlimit="10" pointer-events="visiblePainted" d="M 38208.1235 133721.7642 L 28448.263951431276 175359.0995354931"></path></g></g></g><g id="editor-gba0784a3a_0_21"><g><g></g><g><path stroke="#666666" stroke-opacity="1" stroke-width="762" stroke-linecap="butt" stroke-linejoin="round" stroke-miterlimit="8" d="M 38108.869099999996 92179.0622 L 58994.629369165035 126718.76045839996"></path></g><g><path stroke="#000" stroke-opacity="0" stroke-width="3882.8025477707006" stroke-linecap="round" stroke-linejoin="round" stroke-miterlimit="10" pointer-events="visiblePainted" d="M 38108.869099999996 92179.0622 L 58994.629369165035 126718.76045839996"></path></g></g></g><g id="editor-gba0784a3a_0_22"><g><g></g><g><path stroke="#666666" stroke-opacity="1" stroke-width="762" stroke-linecap="butt" stroke-linejoin="round" stroke-miterlimit="8" d="M 38248.1075 92338.2214 L 17497.823041839598 125129.31754157676"></path></g><g><path stroke="#000" stroke-opacity="0" stroke-width="3882.8025477707006" stroke-linecap="round" stroke-linejoin="round" stroke-miterlimit="10" pointer-events="visiblePainted" d="M 38248.1075 92338.2214 L 17497.823041839598 125129.31754157676"></path></g></g></g></g><g id="editor-gba0784a3a_0_74"><g></g><g id="editor-gba0784a3a_0_70"><g><g></g><g><path fill="#FFD966" fill-opacity="1" stroke="#FFFF00" stroke-opacity="1" stroke-width="762" stroke-linecap="butt" stroke-linejoin="round" stroke-miterlimit="8" d="M 29168.861800000013 74044.7283 L 29168.861800000013 69465.8243 C 29168.861800000017 69971.59607002784 33388.703051884986 70381.6051 38594.141037841815 70381.6051 43799.57902379864 70381.6051 48019.42027568361 69971.59607002784 48019.42027568361 69465.8243 L 48019.42027568361 74044.7283 C 48019.42027568362 74550.50007002783 43799.579023798644 74960.5091 38594.141037841815 74960.5091 33388.70305188499 74960.5091 29168.86180000002 74550.50007002785 29168.861800000013 74044.7283 Z"></path></g><g><path fill="#000" fill-opacity="0" stroke="#000" stroke-opacity="0" stroke-width="3882.8025477707006" stroke-linecap="round" stroke-linejoin="round" stroke-miterlimit="10" pointer-events="visiblePainted" d="M 29168.861800000013 74044.7283 L 29168.861800000013 69465.8243 C 29168.861800000017 69971.59607002784 33388.703051884986 70381.6051 38594.141037841815 70381.6051 43799.57902379864 70381.6051 48019.42027568361 69971.59607002784 48019.42027568361 69465.8243 L 48019.42027568361 74044.7283 C 48019.42027568362 74550.50007002783 43799.579023798644 74960.5091 38594.141037841815 74960.5091 33388.70305188499 74960.5091 29168.86180000002 74550.50007002785 29168.861800000013 74044.7283 Z"></path></g><g></g></g></g><g id="editor-gba0784a3a_0_71"><g><g></g><g><path fill="#FFD966" fill-opacity="1" stroke="#FFFF00" stroke-opacity="1" stroke-width="762" stroke-linecap="butt" stroke-linejoin="round" stroke-miterlimit="8" d="M 34067.00050000001 70303.23242747117 L 37901.69363171025 69479.93440315155 38725.14502749492 65645.95550000001 39548.59642327958 69479.93440315155 43383.289554989824 70303.23242747117 39548.59642327958 71126.5304517908 38725.14502749492 74960.50935494233 37901.69363171025 71126.5304517908 Z"></path></g><g><path fill="#000" fill-opacity="0" stroke="#000" stroke-opacity="0" stroke-width="3882.8025477707006" stroke-linecap="round" stroke-linejoin="round" stroke-miterlimit="10" pointer-events="visiblePainted" d="M 34067.00050000001 70303.23242747117 L 37901.69363171025 69479.93440315155 38725.14502749492 65645.95550000001 39548.59642327958 69479.93440315155 43383.289554989824 70303.23242747117 39548.59642327958 71126.5304517908 38725.14502749492 74960.50935494233 37901.69363171025 71126.5304517908 Z"></path></g><g></g></g></g><g id="editor-gba0784a3a_0_72"><g><g></g><g><path fill="#FFD966" fill-opacity="1" stroke="#FFFF00" stroke-opacity="1" stroke-width="762" stroke-linecap="butt" stroke-linejoin="round" stroke-miterlimit="8" d="M 43383.289300000004 70303.2323817812 L 45876.104875188714 69768.60109230567 46411.40519631439 67278.9011 46946.70551744006 69768.60109230567 49439.52109262877 70303.2323817812 46946.70551744006 70837.86367125672 46411.40519631439 73327.5636635624 45876.104875188714 70837.86367125672 Z"></path></g><g><path fill="#000" fill-opacity="0" stroke="#000" stroke-opacity="0" stroke-width="3882.8025477707006" stroke-linecap="round" stroke-linejoin="round" stroke-miterlimit="10" pointer-events="visiblePainted" d="M 43383.289300000004 70303.2323817812 L 45876.104875188714 69768.60109230567 46411.40519631439 67278.9011 46946.70551744006 69768.60109230567 49439.52109262877 70303.2323817812 46946.70551744006 70837.86367125672 46411.40519631439 73327.5636635624 45876.104875188714 70837.86367125672 Z"></path></g><g></g></g></g><g id="editor-gba0784a3a_0_73"><g><g></g><g><path fill="#FFD966" fill-opacity="1" stroke="#FFFF00" stroke-opacity="1" stroke-width="762" stroke-linecap="butt" stroke-linejoin="round" stroke-miterlimit="8" d="M 27059.918600000005 70303.2323817812 L 29552.734175188718 69768.60109230567 30088.034496314387 67278.9011 30623.334817440056 69768.60109230567 33116.15039262877 70303.2323817812 30623.334817440056 70837.86367125672 30088.034496314387 73327.5636635624 29552.734175188718 70837.86367125672 Z"></path></g><g><path fill="#000" fill-opacity="0" stroke="#000" stroke-opacity="0" stroke-width="3882.8025477707006" stroke-linecap="round" stroke-linejoin="round" stroke-miterlimit="10" pointer-events="visiblePainted" d="M 27059.918600000005 70303.2323817812 L 29552.734175188718 69768.60109230567 30088.034496314387 67278.9011 30623.334817440056 69768.60109230567 33116.15039262877 70303.2323817812 30623.334817440056 70837.86367125672 30088.034496314387 73327.5636635624 29552.734175188718 70837.86367125672 Z"></path></g><g></g></g></g></g></g><g id="editor-gba0784a3a_0_77"><g></g><g id="editor-gba0784a3a_0_63"><g></g><g id="editor-gba0784a3a_0_57"><g><g></g><g><path fill="#FFFFFF" fill-opacity="1" stroke="#666666" stroke-opacity="1" stroke-width="762" stroke-linecap="butt" stroke-linejoin="round" stroke-miterlimit="8" d="M 38320.148999999976 149141.15985997906 C 38320.148999999976 143514.29507399094 42310.69748771681 138952.8199 47233.28851492307 138952.8199 49597.2000905211 138952.8199 51864.29200235622 140026.23120675213 53535.829907586965 141936.915585244 55207.36781281771 143847.59996373585 56146.42802984617 146439.04409850144 56146.42802984617 149141.15985997906 56146.42802984617 154768.02464596718 52155.87954212933 159329.49981995812 47233.28851492307 159329.49981995812 42310.69748771681 159329.49981995812 38320.148999999976 154768.02464596718 38320.148999999976 149141.15985997906 Z"></path></g><g><path fill="#000" fill-opacity="0" stroke="#000" stroke-opacity="0" stroke-width="3882.8025477707006" stroke-linecap="round" stroke-linejoin="round" stroke-miterlimit="10" pointer-events="visiblePainted" d="M 38320.148999999976 149141.15985997906 C 38320.148999999976 143514.29507399094 42310.69748771681 138952.8199 47233.28851492307 138952.8199 49597.2000905211 138952.8199 51864.29200235622 140026.23120675213 53535.829907586965 141936.915585244 55207.36781281771 143847.59996373585 56146.42802984617 146439.04409850144 56146.42802984617 149141.15985997906 56146.42802984617 154768.02464596718 52155.87954212933 159329.49981995812 47233.28851492307 159329.49981995812 42310.69748771681 159329.49981995812 38320.148999999976 154768.02464596718 38320.148999999976 149141.15985997906 Z"></path></g><g></g></g></g><g id="editor-gba0784a3a_0_58"><g><g></g><g><path stroke="#666666" stroke-opacity="1" stroke-width="762" stroke-linecap="butt" stroke-linejoin="round" stroke-miterlimit="8" d="M 47233.28820000001 159329.49910000002 L 47233.28820000001 203734.9157030884"></path></g><g><path stroke="#000" stroke-opacity="0" stroke-width="3882.8025477707006" stroke-linecap="round" stroke-linejoin="round" stroke-miterlimit="10" pointer-events="visiblePainted" d="M 47233.28820000001 159329.49910000002 L 47233.28820000001 203734.9157030884"></path></g></g></g><g id="editor-gba0784a3a_0_59"><g><g></g><g><path stroke="#666666" stroke-opacity="1" stroke-width="762" stroke-linecap="butt" stroke-linejoin="round" stroke-miterlimit="8" d="M 47191.89299999998 203734.91590000002 L 56895.304434173566 245139.96859527437"></path></g><g><path stroke="#000" stroke-opacity="0" stroke-width="3882.8025477707006" stroke-linecap="round" stroke-linejoin="round" stroke-miterlimit="10" pointer-events="visiblePainted" d="M 47191.89299999998 203734.91590000002 L 56895.304434173566 245139.96859527437"></path></g></g></g><g id="editor-gba0784a3a_0_60"><g><g></g><g><path stroke="#666666" stroke-opacity="1" stroke-width="762" stroke-linecap="butt" stroke-linejoin="round" stroke-miterlimit="8" d="M 47331.131399999984 204053.772 L 37571.27185143126 245691.10733549308"></path></g><g><path stroke="#000" stroke-opacity="0" stroke-width="3882.8025477707006" stroke-linecap="round" stroke-linejoin="round" stroke-miterlimit="10" pointer-events="visiblePainted" d="M 47331.131399999984 204053.772 L 37571.27185143126 245691.10733549308"></path></g></g></g><g id="editor-gba0784a3a_0_61"><g><g></g><g><path stroke="#666666" stroke-opacity="1" stroke-width="762" stroke-linecap="butt" stroke-linejoin="round" stroke-miterlimit="8" d="M 47231.87699999998 162511.07 L 68117.63726916502 197050.76825839997"></path></g><g><path stroke="#000" stroke-opacity="0" stroke-width="3882.8025477707006" stroke-linecap="round" stroke-linejoin="round" stroke-miterlimit="10" pointer-events="visiblePainted" d="M 47231.87699999998 162511.07 L 68117.63726916502 197050.76825839997"></path></g></g></g><g id="editor-gba0784a3a_0_62"><g><g></g><g><path stroke="#666666" stroke-opacity="1" stroke-width="762" stroke-linecap="butt" stroke-linejoin="round" stroke-miterlimit="8" d="M 47371.11540000001 162670.2292 L 26620.83094183961 195461.32534157677"></path></g><g><path stroke="#000" stroke-opacity="0" stroke-width="3882.8025477707006" stroke-linecap="round" stroke-linejoin="round" stroke-miterlimit="10" pointer-events="visiblePainted" d="M 47371.11540000001 162670.2292 L 26620.83094183961 195461.32534157677"></path></g></g></g></g><g id="editor-gba0784a3a_0_69"><g></g><g id="editor-gba0784a3a_0_65"><g><g></g><g><path fill="#FFD966" fill-opacity="1" stroke="#FFFF00" stroke-opacity="1" stroke-width="762" stroke-linecap="butt" stroke-linejoin="round" stroke-miterlimit="8" d="M 38290.86180000001 144569.72389999998 L 38290.86180000001 139990.8199 C 38290.86180000001 140496.59167002785 42510.703051884986 140906.60069999998 47716.141037841815 140906.60069999998 52921.57902379864 140906.60069999998 57141.42027568361 140496.59167002785 57141.42027568361 139990.8199 L 57141.42027568361 144569.72389999998 C 57141.42027568362 145075.49567002783 52921.579023798644 145485.5047 47716.141037841815 145485.5047 42510.70305188499 145485.5047 38290.86180000002 145075.49567002783 38290.86180000001 144569.72389999998 Z"></path></g><g><path fill="#000" fill-opacity="0" stroke="#000" stroke-opacity="0" stroke-width="3882.8025477707006" stroke-linecap="round" stroke-linejoin="round" stroke-miterlimit="10" pointer-events="visiblePainted" d="M 38290.86180000001 144569.72389999998 L 38290.86180000001 139990.8199 C 38290.86180000001 140496.59167002785 42510.703051884986 140906.60069999998 47716.141037841815 140906.60069999998 52921.57902379864 140906.60069999998 57141.42027568361 140496.59167002785 57141.42027568361 139990.8199 L 57141.42027568361 144569.72389999998 C 57141.42027568362 145075.49567002783 52921.579023798644 145485.5047 47716.141037841815 145485.5047 42510.70305188499 145485.5047 38290.86180000002 145075.49567002783 38290.86180000001 144569.72389999998 Z"></path></g><g></g></g></g><g id="editor-gba0784a3a_0_66"><g><g></g><g><path fill="#FFD966" fill-opacity="1" stroke="#FFFF00" stroke-opacity="1" stroke-width="762" stroke-linecap="butt" stroke-linejoin="round" stroke-miterlimit="8" d="M 43189.000500000024 140828.22802747117 L 47023.693631710266 140004.93000315153 47847.14502749493 136170.9511 48670.596423279596 140004.93000315153 52505.28955498984 140828.22802747117 48670.596423279596 141651.5260517908 47847.14502749493 145485.50495494233 47023.693631710266 141651.5260517908 Z"></path></g><g><path fill="#000" fill-opacity="0" stroke="#000" stroke-opacity="0" stroke-width="3882.8025477707006" stroke-linecap="round" stroke-linejoin="round" stroke-miterlimit="10" pointer-events="visiblePainted" d="M 43189.000500000024 140828.22802747117 L 47023.693631710266 140004.93000315153 47847.14502749493 136170.9511 48670.596423279596 140004.93000315153 52505.28955498984 140828.22802747117 48670.596423279596 141651.5260517908 47847.14502749493 145485.50495494233 47023.693631710266 141651.5260517908 Z"></path></g><g></g></g></g><g id="editor-gba0784a3a_0_67"><g><g></g><g><path fill="#FFD966" fill-opacity="1" stroke="#FFFF00" stroke-opacity="1" stroke-width="762" stroke-linecap="butt" stroke-linejoin="round" stroke-miterlimit="8" d="M 52505.289300000004 140828.2279817812 L 54998.104875188714 140293.5966923057 55533.40519631439 137803.8967 56068.70551744006 140293.5966923057 58561.52109262877 140828.2279817812 56068.70551744006 141362.85927125672 55533.40519631439 143852.5592635624 54998.104875188714 141362.85927125672 Z"></path></g><g><path fill="#000" fill-opacity="0" stroke="#000" stroke-opacity="0" stroke-width="3882.8025477707006" stroke-linecap="round" stroke-linejoin="round" stroke-miterlimit="10" pointer-events="visiblePainted" d="M 52505.289300000004 140828.2279817812 L 54998.104875188714 140293.5966923057 55533.40519631439 137803.8967 56068.70551744006 140293.5966923057 58561.52109262877 140828.2279817812 56068.70551744006 141362.85927125672 55533.40519631439 143852.5592635624 54998.104875188714 141362.85927125672 Z"></path></g><g></g></g></g><g id="editor-gba0784a3a_0_68"><g><g></g><g><path fill="#FFD966" fill-opacity="1" stroke="#FFFF00" stroke-opacity="1" stroke-width="762" stroke-linecap="butt" stroke-linejoin="round" stroke-miterlimit="8" d="M 36181.918600000005 140828.2279817812 L 38674.734175188714 140293.5966923057 39210.03449631439 137803.8967 39745.33481744006 140293.5966923057 42238.15039262877 140828.2279817812 39745.33481744006 141362.85927125672 39210.03449631439 143852.5592635624 38674.734175188714 141362.85927125672 Z"></path></g><g><path fill="#000" fill-opacity="0" stroke="#000" stroke-opacity="0" stroke-width="3882.8025477707006" stroke-linecap="round" stroke-linejoin="round" stroke-miterlimit="10" pointer-events="visiblePainted" d="M 36181.918600000005 140828.2279817812 L 38674.734175188714 140293.5966923057 39210.03449631439 137803.8967 39745.33481744006 140293.5966923057 42238.15039262877 140828.2279817812 39745.33481744006 141362.85927125672 39210.03449631439 143852.5592635624 38674.734175188714 141362.85927125672 Z"></path></g><g></g></g></g></g></g><g id="editor-gba0784a3a_0_80"><g><g></g><g><path stroke="#666666" stroke-opacity="1" stroke-width="762" stroke-linecap="butt" stroke-linejoin="round" stroke-miterlimit="8" d="M 50145 80063 L 181274.17953647283 91463.01659805095"></path><path fill="#666666" fill-opacity="1" stroke="#666666" stroke-opacity="1" stroke-width="762" stroke-linecap="butt" stroke-linejoin="miter" stroke-miterlimit="10" d="M 181165.1628299363 92716.98593756463 L 184719.1502494225 91762.51304457987 181383.19624300936 90209.04725853726 Z"></path></g><g><path stroke="#000" stroke-opacity="0" stroke-width="3882.8025477707006" stroke-linecap="round" stroke-linejoin="round" stroke-miterlimit="10" pointer-events="visiblePainted" d="M 50145 80063 L 181274.17953647283 91463.01659805095"></path></g></g></g><g id="editor-gba0784a3a_0_81"><g><g></g><g><path stroke="#666666" stroke-opacity="1" stroke-width="762" stroke-linecap="butt" stroke-linejoin="round" stroke-miterlimit="8" d="M 51830 86805 L 146058.92524100922 115393.62359734936"></path><path fill="#666666" fill-opacity="1" stroke="#666666" stroke-opacity="1" stroke-width="762" stroke-linecap="butt" stroke-linejoin="miter" stroke-miterlimit="10" d="M 145693.49039535646 116598.10735412121 L 149367.94655082197 116397.56548101072 146424.36008666197 114189.13984057751 Z"></path></g><g><path stroke="#000" stroke-opacity="0" stroke-width="3882.8025477707006" stroke-linecap="round" stroke-linejoin="round" stroke-miterlimit="10" pointer-events="visiblePainted" d="M 51830 86805 L 146058.92524100922 115393.62359734936"></path></g></g></g><g id="editor-gba0784a3a_0_82"><g><g></g><g><path stroke="#666666" stroke-opacity="1" stroke-width="762" stroke-linecap="butt" stroke-linejoin="round" stroke-miterlimit="8" d="M 48038 91440 L 184130.35024422253 147841.57034297663"></path><path fill="#666666" fill-opacity="1" stroke="#666666" stroke-opacity="1" stroke-width="762" stroke-linecap="butt" stroke-linejoin="miter" stroke-miterlimit="10" d="M 183648.4461330993 149004.36532680955 L 187324.84195804922 149165.4827361723 184612.25435534577 146678.7753591437 Z"></path></g><g><path stroke="#000" stroke-opacity="0" stroke-width="3882.8025477707006" stroke-linecap="round" stroke-linejoin="round" stroke-miterlimit="10" pointer-events="visiblePainted" d="M 48038 91440 L 184130.35024422253 147841.57034297663"></path></g></g></g><g id="editor-gba0784a3a_0_85"><g><g></g><g><path stroke="#666666" stroke-opacity="1" stroke-width="762" stroke-linecap="butt" stroke-linejoin="round" stroke-miterlimit="8" d="M 60679 151698 L 189098.92457725032 106441.61285456875"></path><path fill="#666666" fill-opacity="1" stroke="#666666" stroke-opacity="1" stroke-width="762" stroke-linecap="butt" stroke-linejoin="miter" stroke-miterlimit="10" d="M 189517.2835790886 107628.75205968555 L 192360.29601987888 105292.27493743063 188680.56557541204 105254.47364945196 Z"></path></g><g><path stroke="#000" stroke-opacity="0" stroke-width="3882.8025477707006" stroke-linecap="round" stroke-linejoin="round" stroke-miterlimit="10" pointer-events="visiblePainted" d="M 60679 151698 L 189098.92457725032 106441.61285456875"></path></g></g></g><g id="editor-gba0784a3a_0_87"><g><g></g><g><path stroke="#666666" stroke-opacity="1" stroke-width="762" stroke-linecap="butt" stroke-linejoin="round" stroke-miterlimit="8" d="M 60258 155490 L 146092.5370206545 127415.31044869633"></path><path fill="#666666" fill-opacity="1" stroke="#666666" stroke-opacity="1" stroke-width="762" stroke-linecap="butt" stroke-linejoin="miter" stroke-miterlimit="10" d="M 146483.8324886311 128611.64301261216 L 149379.1649435002 126340.32289931006 145701.2415526779 126218.9778847805 Z"></path></g><g><path stroke="#000" stroke-opacity="0" stroke-width="3882.8025477707006" stroke-linecap="round" stroke-linejoin="round" stroke-miterlimit="10" pointer-events="visiblePainted" d="M 60258 155490 L 146092.5370206545 127415.31044869633"></path></g></g></g><g id="editor-gba0784a3a_0_89"><g><g></g><g><path stroke="#666666" stroke-opacity="1" stroke-width="762" stroke-linecap="butt" stroke-linejoin="round" stroke-miterlimit="8" d="M 58151 159283 L 189687.92460646183 153171.20640316317"></path><path fill="#666666" fill-opacity="1" stroke="#666666" stroke-opacity="1" stroke-width="762" stroke-linecap="butt" stroke-linejoin="miter" stroke-miterlimit="10" d="M 189746.3463692874 154428.54909486373 L 193142.16277047436 153010.70705474124 189629.50284363626 151913.86371146262 Z"></path></g><g><path stroke="#000" stroke-opacity="0" stroke-width="3882.8025477707006" stroke-linecap="round" stroke-linejoin="round" stroke-miterlimit="10" pointer-events="visiblePainted" d="M 58151 159283 L 189687.92460646183 153171.20640316317"></path></g></g></g><g id="editor-gba0784a3a_0_90"><g><g></g><g><path stroke="#666666" stroke-opacity="1" stroke-width="762" stroke-linecap="butt" stroke-linejoin="round" stroke-miterlimit="8" d="M 218276 149591 L 311735.2541834772 116151.23990882728"></path><path fill="#666666" fill-opacity="1" stroke="#666666" stroke-opacity="1" stroke-width="762" stroke-linecap="butt" stroke-linejoin="miter" stroke-miterlimit="10" d="M 312159.29160875926 117336.36269094929 L 314991.08600249374 114986.30192728316 311311.21675819514 114966.11712670527 Z"></path></g><g><path stroke="#000" stroke-opacity="0" stroke-width="3882.8025477707006" stroke-linecap="round" stroke-linejoin="round" stroke-miterlimit="10" pointer-events="visiblePainted" d="M 218276 149591 L 311735.2541834772 116151.23990882728"></path></g></g></g><g id="editor-gba0784a3a_0_92"><g><g></g><g><path stroke="#666666" stroke-opacity="1" stroke-width="762" stroke-linecap="butt" stroke-linejoin="round" stroke-miterlimit="8" d="M 174031 122622 L 310210.9688863814 111207.86978748217"></path><path fill="#666666" fill-opacity="1" stroke="#666666" stroke-opacity="1" stroke-width="762" stroke-linecap="butt" stroke-linejoin="miter" stroke-miterlimit="10" d="M 310316.10002956825 112462.17086357063 L 313656.85096354753 110919.04796554026 310105.8377431946 109953.5687113937 Z"></path></g><g><path stroke="#000" stroke-opacity="0" stroke-width="3882.8025477707006" stroke-linecap="round" stroke-linejoin="round" stroke-miterlimit="10" pointer-events="visiblePainted" d="M 174031 122622 L 310210.9688863814 111207.86978748217"></path></g></g></g><g id="editor-gba0784a3a_0_93"><g><g></g><g><path stroke="#666666" stroke-opacity="1" stroke-width="762" stroke-linecap="butt" stroke-linejoin="round" stroke-miterlimit="8" d="M 212377 95232 L 311068.5085859727 106107.22404828513"></path><path fill="#666666" fill-opacity="1" stroke="#666666" stroke-opacity="1" stroke-width="762" stroke-linecap="butt" stroke-linejoin="miter" stroke-miterlimit="10" d="M 310930.6418454214 107358.35014448575 L 314505.6681909195 106485.97883001945 311206.375326524 104856.09795208451 Z"></path></g><g><path stroke="#000" stroke-opacity="0" stroke-width="3882.8025477707006" stroke-linecap="round" stroke-linejoin="round" stroke-miterlimit="10" pointer-events="visiblePainted" d="M 212377 95232 L 311068.5085859727 106107.22404828513"></path></g></g></g><g id="editor-gba0784a3a_0_94"><g><g></g><g><path d="M 27432 2148.921875 L 338328.00563049316 2148.921875 338328.00563049316 64008.92296218872 27432 64008.92296218872 Z"></path></g><g></g><g><path fill="#000" fill-opacity="0" stroke="#000" stroke-opacity="0" stroke-width="3882.8025477707006" stroke-linecap="round" stroke-linejoin="round" stroke-miterlimit="10" pointer-events="visiblePainted" d="M 27432 2148.921875 L 338328.00563049316 2148.921875 338328.00563049316 64008.92296218872 27432 64008.92296218872 Z"></path></g><g><g direction="ltr" style="opacity: 1;"><g transform="matrix(380.99999999999994,0,0,381,31089,31014.92296218872)"><g pointer-events="none"><g id="editor-gba0784a3a_0_94-paragraph-0"><g><g class="sketchy-text-background" visibility="visible"></g><g class="sketchy-text-content" visibility="visible"><g class="sketchy-text-content-text" transform="translate(0 61.44)"><text x="225.91720719224827px" style="font-family:Arial;font-size:64px;fill:#000000;font-weight:700;" y="0px" text-rendering="geometricPrecision">Complexity</text></g></g></g></g></g><rect style="opacity: 0;"></rect><rect style="opacity: 1;"></rect></g><g><path d="M 117163.45594024658 31014.92296218872 L 248596.54969024655 31014.92296218872 248596.54969024655 60275.72296218872 117163.45594024658 60275.72296218872 Z" pointer-events="visiblePainted" fill="#000000" stroke="#000000" opacity="0"></path></g><g transform="matrix(380.99999999999994,0,0,381,31089,31014.92296218872)"></g></g></g></g></g></g></g></svg>