<svg xmlns="http://www.w3.org/2000/svg" xmlns:xlink="http://www.w3.org/1999/xlink" version="1.1" fill-rule="evenodd" fill="none" stroke="none" stroke-linecap="square" stroke-miterlimit="10" overflow="hidden" viewBox="6858 13335 358140 268605"><rect fill="#ffffff" fill-opacity="0" width="100%" height="100%"></rect><g transform="translate(6858 13335) scale(0.98125)"><defs cursor="default"></defs><g id="editor-gba0784a3a_2_33"><g></g><path fill="#fff" fill-opacity="1" d="M 0 0 L 365760 0 365760 274320 0 274320 Z"></path><g id="editor-gba0784a3a_2_33-bg"><g><g></g><g><g></g><g><g><g><clipPath id="e129_11"><path d="M 0 0 L 365760 0 365760 274319.99999999994 0 274319.99999999994 Z"></path></clipPath><g clip-path="url(#e129_11)"><image fill="#000000" width="800" height="400" preserveAspectRatio="none" transform="matrix(457.2,0,0,685.7999999999998,0,0)" x="0" y="0" xmlns:xlink="http://www.w3.org/1999/xlink" xlink:href="filesystem:https://docs.google.com/persistent/docs/documents/1XEj6tgt0NbBzzMKIlJ2kuMWH41hY7IkUdCmUWahipdA/image/13lwNgNqXyoA0Rq0FAqfodQ6S-Ef8bNprvq3w_MBr"></image></g></g></g></g></g><g></g></g></g><g id="editor-gb9563dfae_0_1"></g><g id="editor-gb9563dfae_0_2"></g><g id="editor-gb9563dfae_0_3"></g><g id="editor-gb9563dfae_0_9"></g><g id="editor-gb9563dfae_0_10"></g><g id="editor-gb9563dfae_0_11"></g><g id="editor-gba0784a3a_2_36"><g><g></g><g><path d="M 18288 10985.51953125 L 347472.0076446533 10985.51953125 347472.0076446533 56705.520990371704 18288 56705.520990371704 Z"></path></g><g></g><g><path fill="#000" fill-opacity="0" stroke="#000" stroke-opacity="0" stroke-width="3882.8025477707006" stroke-linecap="round" stroke-linejoin="round" stroke-miterlimit="10" pointer-events="visiblePainted" d="M 18288 10985.51953125 L 347472.0076446533 10985.51953125 347472.0076446533 56705.520990371704 18288 56705.520990371704 Z"></path></g><g><g direction="ltr" style="opacity: 1;"><g transform="matrix(381,0,0,380.99999999999994,21945,30950.5209903717)"><g pointer-events="none"><g id="editor-gba0784a3a_2_36-paragraph-0"><g><g class="sketchy-text-background" visibility="visible"></g><g class="sketchy-text-content" visibility="visible"><g class="sketchy-text-content-text" transform="translate(0 46.08)"><text x="120.58517858550306px" style="font-family:Arial;font-size:48px;fill:#FFD966;font-weight:700;font-style:italic;" y="0px" text-rendering="geometricPrecision">Cause</text><text x="277.99142858550306px" style="font-family:Arial;font-size:48px;fill:#FFD966;font-weight:700;font-style:italic;" y="0px" text-rendering="geometricPrecision">we</text><text x="355.35861608550306px" style="font-family:Arial;font-size:48px;fill:#FFD966;font-weight:700;font-style:italic;" y="0px" text-rendering="geometricPrecision">Can’t</text><text x="489.56174108550306px" style="font-family:Arial;font-size:48px;fill:#FFD966;font-weight:700;font-style:italic;" y="0px" text-rendering="geometricPrecision">Beat</text><text x="606.9367410855031px" style="font-family:Arial;font-size:48px;fill:#FFD966;font-weight:700;font-style:italic;" y="0px" text-rendering="geometricPrecision">Light</text></g></g></g></g></g><rect style="opacity: 0;"></rect><rect style="opacity: 1;"></rect></g><g><path d="M 67887.95304107666 30950.5209903717 L 297872.05460357666 30950.5209903717 297872.05460357666 52896.120990371695 67887.95304107666 52896.120990371695 Z" pointer-events="visiblePainted" fill="#000000" stroke="#000000" opacity="0"></path></g><g transform="matrix(381,0,0,380.99999999999994,21945,30950.5209903717)"></g></g></g></g></g><g id="editor-gba0784a3a_2_37"><g><g></g><g><path d="M 18288 64008 L 347472.0076446533 64008 347472.0076446533 262716.00018310547 18288 262716.00018310547 Z"></path></g><g></g><g><path fill="#000" fill-opacity="0" stroke="#000" stroke-opacity="0" stroke-width="3882.8025477707006" stroke-linecap="round" stroke-linejoin="round" stroke-miterlimit="10" pointer-events="visiblePainted" d="M 18288 64008 L 347472.0076446533 64008 347472.0076446533 262716.00018310547 18288 262716.00018310547 Z"></path></g><g><g direction="ltr" style="opacity: 1;"><g transform="matrix(381,0,0,381,21945,67665)"><g pointer-events="none"><g id="editor-gba0784a3a_2_37-paragraph-0"><g><g class="sketchy-text-background" visibility="visible"></g><g class="sketchy-text-content" visibility="visible"></g></g></g></g><rect style="opacity: 0;"></rect><rect style="opacity: 1;"></rect></g><g><path d="M 21945 70713 L 21945 70713 21945 89001 21945 89001 Z" pointer-events="visiblePainted" fill="#000000" stroke="#000000" opacity="0"></path></g><g transform="matrix(381,0,0,381,21945,67665)"></g></g></g></g></g><g id="editor-gba0784a3a_2_38"><g><g></g><g><g></g><g><g><g><clipPath id="e129_50"><path d="M 106299 24765 L 259461 24765 259461 249555 106299 249555 Z"></path></clipPath><g clip-path="url(#e129_50)"><image fill="#000000" width="402" height="590" preserveAspectRatio="none" transform="matrix(381,0,0,381,106299,24765)" x="0" y="0" xmlns:xlink="http://www.w3.org/1999/xlink" xlink:href="filesystem:https://docs.google.com/persistent/docs/documents/1XEj6tgt0NbBzzMKIlJ2kuMWH41hY7IkUdCmUWahipdA/image/1oMbMKJG1SJ0oulaHYpOk_70OY2AaTd4Hsa-pk8fO"></image></g></g></g></g><g></g></g><g><path stroke="#000" stroke-opacity="0" stroke-width="3882.8025477707006" stroke-linecap="round" stroke-linejoin="round" stroke-miterlimit="10" pointer-events="visiblePainted" d="M 106299 24765 L 259461 24765 259461 249555 106299 249555 Z"></path><path fill="#000" fill-opacity="0" pointer-events="visiblePainted" d="M 106299 24765 L 259461 24765 259461 249555 106299 249555 Z"></path></g></g></g></g></g></svg>