<svg xmlns="http://www.w3.org/2000/svg" xmlns:xlink="http://www.w3.org/1999/xlink" version="1.1" fill-rule="evenodd" fill="none" stroke="none" stroke-linecap="square" stroke-miterlimit="10" overflow="hidden" viewBox="6858 13335 358140 268605"><rect fill="#ffffff" fill-opacity="0" width="100%" height="100%"></rect><g transform="translate(6858 13335) scale(0.98125)"><defs cursor="default"></defs><g id="editor-gba0784a3a_4_25"><g></g><path fill="#fff" fill-opacity="1" d="M 0 0 L 365760 0 365760 274320 0 274320 Z"></path><g id="editor-gba0784a3a_4_25-bg"><g><g></g><g><path fill="#000000" fill-opacity="1" d="M 0 0 L 365760 0 365760 274320 0 274320 Z"></path></g><g></g></g></g><g id="editor-gb9563dfae_0_1"></g><g id="editor-gb9563dfae_0_2"></g><g id="editor-gb9563dfae_0_3"></g><g id="editor-gb9563dfae_0_5"></g><g id="editor-gb9563dfae_0_6"></g><g id="editor-gb9563dfae_0_7"></g><g id="editor-gba0784a3a_4_29"><g><g></g><g><path stroke="#FFFFFF" stroke-opacity="1" stroke-width="762" stroke-linecap="butt" stroke-linejoin="round" stroke-miterlimit="8" stroke-dasharray="3048,2286,762,2286" d="M 54583 137160.9965209961 C 54583 66303.96960860578 112023.96960860574 8863 182880.99652099606 8862.999999999984 216907.74081174066 8862.999999999984 249540.83824395435 22380.071538665492 273601.3798736405 46440.613168351636 297661.9215033266 70501.15479803778 311178.9930419922 103134.25223025147 311178.9930419922 137160.9965209961 311178.9930419922 208018.02343338638 253738.02343338644 265458.9930419922 182880.9965209961 265458.9930419922 112023.96960860578 265458.9930419922 54583.000000000015 208018.02343338644 54583 137160.9965209961 Z"></path></g><g><path fill="#000" fill-opacity="0" stroke="#000" stroke-opacity="0" stroke-width="3882.8025477707006" stroke-linecap="round" stroke-linejoin="round" stroke-miterlimit="10" pointer-events="visiblePainted" d="M 54583 137160.9965209961 C 54583 66303.96960860578 112023.96960860574 8863 182880.99652099606 8862.999999999984 216907.74081174066 8862.999999999984 249540.83824395435 22380.071538665492 273601.3798736405 46440.613168351636 297661.9215033266 70501.15479803778 311178.9930419922 103134.25223025147 311178.9930419922 137160.9965209961 311178.9930419922 208018.02343338638 253738.02343338644 265458.9930419922 182880.9965209961 265458.9930419922 112023.96960860578 265458.9930419922 54583.000000000015 208018.02343338644 54583 137160.9965209961 Z"></path></g><g></g></g></g><g id="editor-gba0784a3a_4_30"><g><g></g><g><path stroke="#FFFFFF" stroke-opacity="1" stroke-width="762" stroke-linecap="butt" stroke-linejoin="round" stroke-miterlimit="8" stroke-dasharray="3048,2286" d="M 85648 137157.99811172485 C 85648 83459.35292854239 129179.35292854236 39928 182877.99811172482 39927.999999999985 208664.996918022 39927.999999999985 233395.8273888986 50171.84538978685 251629.9891112807 68406.00711216897 269864.15083366283 86640.16883455109 280107.9962234497 111370.99930542769 280107.9962234497 137157.99811172485 280107.9962234497 190856.6432949073 236576.64329490735 234387.9962234497 182877.99811172485 234387.9962234497 129179.35292854239 234387.9962234497 85648.00000000001 190856.64329490735 85648 137157.99811172485 Z"></path></g><g><path fill="#000" fill-opacity="0" stroke="#000" stroke-opacity="0" stroke-width="3882.8025477707006" stroke-linecap="round" stroke-linejoin="round" stroke-miterlimit="10" pointer-events="visiblePainted" d="M 85648 137157.99811172485 C 85648 83459.35292854239 129179.35292854236 39928 182877.99811172482 39927.999999999985 208664.996918022 39927.999999999985 233395.8273888986 50171.84538978685 251629.9891112807 68406.00711216897 269864.15083366283 86640.16883455109 280107.9962234497 111370.99930542769 280107.9962234497 137157.99811172485 280107.9962234497 190856.6432949073 236576.64329490735 234387.9962234497 182877.99811172485 234387.9962234497 129179.35292854239 234387.9962234497 85648.00000000001 190856.64329490735 85648 137157.99811172485 Z"></path></g><g></g></g></g><g id="editor-gba0784a3a_4_31"><g><g></g><g><path stroke="#FFFFFF" stroke-opacity="1" stroke-width="762" stroke-linecap="butt" stroke-linejoin="round" stroke-miterlimit="8" stroke-dasharray="6096,2286" d="M 114432 137159.99995422363 C 114432 99357.21342308709 145077.21342308706 68712 182879.99995422363 68711.99999999999 201033.53823862007 68711.99999999999 218443.5548570853 75923.46500450926 231280.04488051165 88759.95502793559 244116.534903938 101596.44505136192 251327.99990844727 119006.46166982717 251327.99990844727 137159.99995422363 251327.99990844727 174962.78648536018 220682.7864853602 205607.99990844727 182879.99995422363 205607.99990844727 145077.2134230871 205607.99990844727 114432.00000000001 174962.7864853602 114432 137159.99995422363 Z"></path></g><g><path fill="#000" fill-opacity="0" stroke="#000" stroke-opacity="0" stroke-width="3882.8025477707006" stroke-linecap="round" stroke-linejoin="round" stroke-miterlimit="10" pointer-events="visiblePainted" d="M 114432 137159.99995422363 C 114432 99357.21342308709 145077.21342308706 68712 182879.99995422363 68711.99999999999 201033.53823862007 68711.99999999999 218443.5548570853 75923.46500450926 231280.04488051165 88759.95502793559 244116.534903938 101596.44505136192 251327.99990844727 119006.46166982717 251327.99990844727 137159.99995422363 251327.99990844727 174962.78648536018 220682.7864853602 205607.99990844727 182879.99995422363 205607.99990844727 145077.2134230871 205607.99990844727 114432.00000000001 174962.7864853602 114432 137159.99995422363 Z"></path></g><g></g></g></g><g id="editor-gba0784a3a_4_32"><g></g><g id="editor-gba0784a3a_4_33"><g><g></g><g><path fill="#FF0000" fill-opacity="1" stroke="#000000" stroke-opacity="1" stroke-width="381" stroke-linecap="butt" stroke-linejoin="round" stroke-miterlimit="8" d="M 174629 127267.00022029877 C 174629 120725.7395216352 179931.7395216352 115423 186473.00022029877 115423 189614.2243843852 115423 192626.79218479444 116670.84644049799 194847.97309244698 118892.02734815054 197069.15400009954 121113.2082558031 198317.00044059753 124125.77605621234 198317.00044059753 127267.00022029877 198317.00044059753 133808.26091896233 193014.26091896233 139111.00044059753 186473.00022029877 139111.00044059753 179931.7395216352 139111.00044059753 174629 133808.26091896233 174629 127267.00022029877 Z"></path></g><g><path fill="#000" fill-opacity="0" stroke="#000" stroke-opacity="0" stroke-width="3882.8025477707006" stroke-linecap="round" stroke-linejoin="round" stroke-miterlimit="10" pointer-events="visiblePainted" d="M 174629 127267.00022029877 C 174629 120725.7395216352 179931.7395216352 115423 186473.00022029877 115423 189614.2243843852 115423 192626.79218479444 116670.84644049799 194847.97309244698 118892.02734815054 197069.15400009954 121113.2082558031 198317.00044059753 124125.77605621234 198317.00044059753 127267.00022029877 198317.00044059753 133808.26091896233 193014.26091896233 139111.00044059753 186473.00022029877 139111.00044059753 179931.7395216352 139111.00044059753 174629 133808.26091896233 174629 127267.00022029877 Z"></path></g><g></g></g></g><g id="editor-gba0784a3a_4_34"><g><g></g><g><path fill="#0000FF" fill-opacity="1" stroke="#000000" stroke-opacity="1" stroke-width="381" stroke-linecap="butt" stroke-linejoin="round" stroke-miterlimit="8" d="M 180725 133363.00022029877 C 180725 126821.7395216352 186027.7395216352 121519 192569.00022029877 121519 195710.2243843852 121519 198722.79218479444 122766.84644049799 200943.97309244698 124988.02734815054 203165.15400009954 127209.2082558031 204413.00044059753 130221.77605621234 204413.00044059753 133363.00022029877 204413.00044059753 139904.26091896233 199110.26091896233 145207.00044059753 192569.00022029877 145207.00044059753 186027.7395216352 145207.00044059753 180725 139904.26091896233 180725 133363.00022029877 Z"></path></g><g><path fill="#000" fill-opacity="0" stroke="#000" stroke-opacity="0" stroke-width="3882.8025477707006" stroke-linecap="round" stroke-linejoin="round" stroke-miterlimit="10" pointer-events="visiblePainted" d="M 180725 133363.00022029877 C 180725 126821.7395216352 186027.7395216352 121519 192569.00022029877 121519 195710.2243843852 121519 198722.79218479444 122766.84644049799 200943.97309244698 124988.02734815054 203165.15400009954 127209.2082558031 204413.00044059753 130221.77605621234 204413.00044059753 133363.00022029877 204413.00044059753 139904.26091896233 199110.26091896233 145207.00044059753 192569.00022029877 145207.00044059753 186027.7395216352 145207.00044059753 180725 139904.26091896233 180725 133363.00022029877 Z"></path></g><g></g></g></g><g id="editor-gba0784a3a_4_35"><g><g></g><g><path fill="#0000FF" fill-opacity="1" stroke="#000000" stroke-opacity="1" stroke-width="381" stroke-linecap="butt" stroke-linejoin="round" stroke-miterlimit="8" d="M 161347 142013.00022029877 C 161347 135471.7395216352 166649.7395216352 130169 173191.00022029877 130169 176332.2243843852 130169 179344.79218479444 131416.846440498 181565.97309244698 133638.02734815053 183787.15400009954 135859.2082558031 185035.00044059753 138871.77605621234 185035.00044059753 142013.00022029877 185035.00044059753 148554.26091896233 179732.26091896233 153857.00044059753 173191.00022029877 153857.00044059753 166649.7395216352 153857.00044059753 161347 148554.26091896233 161347 142013.00022029877 Z"></path></g><g><path fill="#000" fill-opacity="0" stroke="#000" stroke-opacity="0" stroke-width="3882.8025477707006" stroke-linecap="round" stroke-linejoin="round" stroke-miterlimit="10" pointer-events="visiblePainted" d="M 161347 142013.00022029877 C 161347 135471.7395216352 166649.7395216352 130169 173191.00022029877 130169 176332.2243843852 130169 179344.79218479444 131416.846440498 181565.97309244698 133638.02734815053 183787.15400009954 135859.2082558031 185035.00044059753 138871.77605621234 185035.00044059753 142013.00022029877 185035.00044059753 148554.26091896233 179732.26091896233 153857.00044059753 173191.00022029877 153857.00044059753 166649.7395216352 153857.00044059753 161347 148554.26091896233 161347 142013.00022029877 Z"></path></g><g></g></g></g><g id="editor-gba0784a3a_4_36"><g><g></g><g><path fill="#FF0000" fill-opacity="1" stroke="#000000" stroke-opacity="1" stroke-width="381" stroke-linecap="butt" stroke-linejoin="round" stroke-miterlimit="8" d="M 174629 147053.00022029877 C 174629 140511.7395216352 179931.7395216352 135209 186473.00022029877 135209 189614.2243843852 135209 192626.79218479444 136456.846440498 194847.97309244698 138678.02734815053 197069.15400009954 140899.2082558031 198317.00044059753 143911.77605621234 198317.00044059753 147053.00022029877 198317.00044059753 153594.26091896233 193014.26091896233 158897.00044059753 186473.00022029877 158897.00044059753 179931.7395216352 158897.00044059753 174629 153594.26091896233 174629 147053.00022029877 Z"></path></g><g><path fill="#000" fill-opacity="0" stroke="#000" stroke-opacity="0" stroke-width="3882.8025477707006" stroke-linecap="round" stroke-linejoin="round" stroke-miterlimit="10" pointer-events="visiblePainted" d="M 174629 147053.00022029877 C 174629 140511.7395216352 179931.7395216352 135209 186473.00022029877 135209 189614.2243843852 135209 192626.79218479444 136456.846440498 194847.97309244698 138678.02734815053 197069.15400009954 140899.2082558031 198317.00044059753 143911.77605621234 198317.00044059753 147053.00022029877 198317.00044059753 153594.26091896233 193014.26091896233 158897.00044059753 186473.00022029877 158897.00044059753 179931.7395216352 158897.00044059753 174629 153594.26091896233 174629 147053.00022029877 Z"></path></g><g></g></g></g><g id="editor-gba0784a3a_4_37"><g><g></g><g><path fill="#FF0000" fill-opacity="1" stroke="#000000" stroke-opacity="1" stroke-width="381" stroke-linecap="butt" stroke-linejoin="round" stroke-miterlimit="8" d="M 161347 129172.00022029877 C 161347 122630.7395216352 166649.7395216352 117328 173191.00022029877 117328 176332.2243843852 117328 179344.79218479444 118575.84644049799 181565.97309244698 120797.02734815054 183787.15400009954 123018.2082558031 185035.00044059753 126030.77605621234 185035.00044059753 129172.00022029877 185035.00044059753 135713.26091896233 179732.26091896233 141016.00044059753 173191.00022029877 141016.00044059753 166649.7395216352 141016.00044059753 161347 135713.26091896233 161347 129172.00022029877 Z"></path></g><g><path fill="#000" fill-opacity="0" stroke="#000" stroke-opacity="0" stroke-width="3882.8025477707006" stroke-linecap="round" stroke-linejoin="round" stroke-miterlimit="10" pointer-events="visiblePainted" d="M 161347 129172.00022029877 C 161347 122630.7395216352 166649.7395216352 117328 173191.00022029877 117328 176332.2243843852 117328 179344.79218479444 118575.84644049799 181565.97309244698 120797.02734815054 183787.15400009954 123018.2082558031 185035.00044059753 126030.77605621234 185035.00044059753 129172.00022029877 185035.00044059753 135713.26091896233 179732.26091896233 141016.00044059753 173191.00022029877 141016.00044059753 166649.7395216352 141016.00044059753 161347 135713.26091896233 161347 129172.00022029877 Z"></path></g><g></g></g></g></g><g id="editor-gba0784a3a_4_38"><g><g></g><g><path fill="#00FF00" fill-opacity="1" stroke="#666666" stroke-opacity="1" stroke-width="381" stroke-linecap="butt" stroke-linejoin="round" stroke-miterlimit="8" d="M 180511 39864.0001090765 C 180511 38555.08519173623 181572.08519173623 37494 182881.0001090765 37494 183509.5632189251 37494 184112.3820202397 37743.695723157995 184556.84325761735 38188.15696053565 185001.304494995 38632.6181979133 185251.000218153 39235.436999227895 185251.000218153 39864.0001090765 185251.000218153 41172.91502641677 184189.91502641677 42234.000218153 182881.0001090765 42234.000218153 181572.08519173623 42234.000218153 180511 41172.91502641677 180511 39864.0001090765 Z"></path></g><g><path fill="#000" fill-opacity="0" stroke="#000" stroke-opacity="0" stroke-width="3882.8025477707006" stroke-linecap="round" stroke-linejoin="round" stroke-miterlimit="10" pointer-events="visiblePainted" d="M 180511 39864.0001090765 C 180511 38555.08519173623 181572.08519173623 37494 182881.0001090765 37494 183509.5632189251 37494 184112.3820202397 37743.695723157995 184556.84325761735 38188.15696053565 185001.304494995 38632.6181979133 185251.000218153 39235.436999227895 185251.000218153 39864.0001090765 185251.000218153 41172.91502641677 184189.91502641677 42234.000218153 182881.0001090765 42234.000218153 181572.08519173623 42234.000218153 180511 41172.91502641677 180511 39864.0001090765 Z"></path></g><g></g></g></g><g id="editor-gba0784a3a_4_39"><g><g></g><g><path d="M 183781 19670 L 206652.99914455414 19670 206652.99914455414 55862.00110435486 183781 55862.00110435486 Z"></path></g><g><path fill="#000" fill-opacity="0" stroke="#000" stroke-opacity="0" stroke-width="3882.8025477707006" stroke-linecap="round" stroke-linejoin="round" stroke-miterlimit="10" pointer-events="visiblePainted" d="M 183781 19670 L 206652.99914455414 19670 206652.99914455414 55862.00110435486 183781 55862.00110435486 Z"></path></g><g><g direction="ltr" style="opacity: 1;"><g transform="matrix(381,0,0,381,187438,23327)"><g pointer-events="none"><g id="editor-gba0784a3a_4_39-paragraph-0"><g><g class="sketchy-text-background" visibility="visible"></g><g class="sketchy-text-content" visibility="visible"><g class="sketchy-text-content-text" transform="translate(0 61.44)"><text x="0px" style="font-family:Arial;font-size:64px;fill:#FF9900;" y="0px" text-rendering="geometricPrecision">5</text></g></g></g></g></g><rect style="opacity: 0;"></rect><rect style="opacity: 1;"></rect></g><g><path d="M 187438 23327 L 200999.21875 23327 200999.21875 52587.8 187438 52587.8 Z" pointer-events="visiblePainted" fill="#000000" stroke="#000000" opacity="0"></path></g><g transform="matrix(381,0,0,381,187438,23327)"></g></g></g></g></g></g></g></svg>