<svg xmlns="http://www.w3.org/2000/svg" xmlns:xlink="http://www.w3.org/1999/xlink" version="1.1" fill-rule="evenodd" fill="none" stroke="none" stroke-linecap="square" stroke-miterlimit="10" overflow="hidden" viewBox="6858 13335 358140 268605"><rect fill="#ffffff" fill-opacity="0" width="100%" height="100%"></rect><g transform="translate(6858 13335) scale(0.98125)"><defs cursor="default"></defs><g id="editor-gba0784a3a_2_39"><g></g><path fill="#fff" fill-opacity="1" d="M 0 0 L 365760 0 365760 274320 0 274320 Z"></path><g id="editor-gba0784a3a_2_39-bg"><g><g></g><g><g></g><g><g><g><clipPath id="e135_11"><path d="M 0 0 L 365760 0 365760 274319.99999999994 0 274319.99999999994 Z"></path></clipPath><g clip-path="url(#e135_11)"><image fill="#000000" width="800" height="400" preserveAspectRatio="none" transform="matrix(457.2,0,0,685.7999999999998,0,0)" x="0" y="0" xmlns:xlink="http://www.w3.org/1999/xlink" xlink:href="filesystem:https://docs.google.com/persistent/docs/documents/1XEj6tgt0NbBzzMKIlJ2kuMWH41hY7IkUdCmUWahipdA/image/13lwNgNqXyoA0Rq0FAqfodQ6S-Ef8bNprvq3w_MBr"></image></g></g></g></g></g><g></g></g></g><g id="editor-gb9563dfae_0_1"></g><g id="editor-gb9563dfae_0_2"></g><g id="editor-gb9563dfae_0_3"></g><g id="editor-gb9563dfae_0_9"></g><g id="editor-gb9563dfae_0_10"></g><g id="editor-gb9563dfae_0_11"></g><g id="editor-gba0784a3a_2_43"><g><g></g><g><path d="M 18288 64008 L 347472.0076446533 64008 347472.0076446533 262716.00018310547 18288 262716.00018310547 Z"></path></g><g></g><g><path fill="#000" fill-opacity="0" stroke="#000" stroke-opacity="0" stroke-width="3882.8025477707006" stroke-linecap="round" stroke-linejoin="round" stroke-miterlimit="10" pointer-events="visiblePainted" d="M 18288 64008 L 347472.0076446533 64008 347472.0076446533 262716.00018310547 18288 262716.00018310547 Z"></path></g><g><g direction="ltr" style="opacity: 1;"><g transform="matrix(381,0,0,381,21945,67665)"><g pointer-events="none"><g id="editor-gba0784a3a_2_43-paragraph-0"><g><g class="sketchy-text-background" visibility="visible"></g><g class="sketchy-text-content" visibility="visible"></g></g></g></g><rect style="opacity: 0;"></rect><rect style="opacity: 1;"></rect></g><g><path d="M 21945 70713 L 21945 70713 21945 89001 21945 89001 Z" pointer-events="visiblePainted" fill="#000000" stroke="#000000" opacity="0"></path></g><g transform="matrix(381,0,0,381,21945,67665)"></g></g></g></g></g><g id="editor-gba56ab250_0_24"><g><g></g><g><path d="M 27432 84444.921875 L 338328.00563049316 84444.921875 338328.00563049316 146304.92296218872 27432 146304.92296218872 Z"></path></g><g></g><g><path fill="#000" fill-opacity="0" stroke="#000" stroke-opacity="0" stroke-width="3882.8025477707006" stroke-linecap="round" stroke-linejoin="round" stroke-miterlimit="10" pointer-events="visiblePainted" d="M 27432 84444.921875 L 338328.00563049316 84444.921875 338328.00563049316 146304.92296218872 27432 146304.92296218872 Z"></path></g><g><g direction="ltr" style="opacity: 1;"><g transform="matrix(380.99999999999994,0,0,381,31089,113310.92296218872)"><g pointer-events="none"><g id="editor-gba56ab250_0_24-paragraph-0"><g><g class="sketchy-text-background" visibility="visible"></g><g class="sketchy-text-content" visibility="visible"><g class="sketchy-text-content-text" transform="translate(0 61.44)"><text x="197.43283219224827px" style="font-family:Arial;font-size:64px;fill:#FFFFFF;font-weight:700;" y="0px" text-rendering="geometricPrecision">The</text><text x="328.99533219224827px" style="font-family:Arial;font-size:64px;fill:#FFFFFF;font-weight:700;" y="0px" text-rendering="geometricPrecision">Universe</text></g></g></g></g></g><rect style="opacity: 0;"></rect><rect style="opacity: 1;"></rect></g><g><path d="M 106310.90906524658 113310.92296218872 L 259449.09656524655 113310.92296218872 259449.09656524655 142571.7229621887 106310.90906524658 142571.7229621887 Z" pointer-events="visiblePainted" fill="#000000" stroke="#000000" opacity="0"></path></g><g transform="matrix(380.99999999999994,0,0,381,31089,113310.92296218872)"></g></g></g></g></g><g id="editor-gba56ab250_0_25"><g><g></g><g><path d="M 27432 151469.515625 L 338328.00563049316 151469.515625 338328.00563049316 193325.5160484314 27432 193325.5160484314 Z"></path></g><g></g><g><path fill="#000" fill-opacity="0" stroke="#000" stroke-opacity="0" stroke-width="3882.8025477707006" stroke-linecap="round" stroke-linejoin="round" stroke-miterlimit="10" pointer-events="visiblePainted" d="M 27432 151469.515625 L 338328.00563049316 151469.515625 338328.00563049316 193325.5160484314 27432 193325.5160484314 Z"></path></g><g><g direction="ltr" style="opacity: 1;"><g transform="matrix(381,0,0,381.0000000000005,31089,155126.515625)"><g pointer-events="none"><g id="editor-gba56ab250_0_25-paragraph-0"><g><g class="sketchy-text-background" visibility="visible"></g><g class="sketchy-text-content" visibility="visible"><g class="sketchy-text-content-text" transform="translate(0 46.4)"><text x="168.33322281724827px" style="font-family:Arial;font-size:40px;fill:#CCCCCC;font-style:italic;" y="0px" text-rendering="geometricPrecision">is</text><text x="208.33322281724827px" style="font-family:Arial;font-size:40px;fill:#FFFFFF;font-weight:700;font-style:italic;" y="0px" text-rendering="geometricPrecision">not</text><text x="281.63400406724827px" style="font-family:Arial;font-size:40px;fill:#CCCCCC;font-style:italic;" y="0px" text-rendering="geometricPrecision">Strongly</text><text x="439.48556656724827px" style="font-family:Arial;font-size:40px;fill:#CCCCCC;font-style:italic;" y="0px" text-rendering="geometricPrecision">Consistent</text></g></g></g></g></g><rect style="opacity: 0;"></rect><rect style="opacity: 1;"></rect></g><g><path d="M 95223.95789337158 158174.515625 L 270536.0477371216 158174.515625 270536.0477371216 176462.51562500003 95223.95789337158 176462.51562500003 Z" pointer-events="visiblePainted" fill="#000000" stroke="#000000" opacity="0"></path></g><g transform="matrix(381,0,0,381.0000000000005,31089,155126.515625)"></g></g></g></g></g></g></g></svg>