<svg xmlns="http://www.w3.org/2000/svg" xmlns:xlink="http://www.w3.org/1999/xlink" version="1.1" fill-rule="evenodd" fill="none" stroke="none" stroke-linecap="square" stroke-miterlimit="10" overflow="hidden" viewBox="6858 13335 358140 268605"><rect fill="#ffffff" fill-opacity="0" width="100%" height="100%"></rect><g transform="translate(6858 13335) scale(0.98125)"><defs cursor="default"></defs><g id="editor-gba56ab250_0_16"><g></g><path fill="#fff" fill-opacity="1" d="M 0 0 L 365760 0 365760 274320 0 274320 Z"></path><g id="editor-gba56ab250_0_16-bg"><g><g></g><g><g></g><g><g><g><clipPath id="e136_11"><path d="M 0 0 L 365760 0 365760 274319.99999999994 0 274319.99999999994 Z"></path></clipPath><g clip-path="url(#e136_11)"><image fill="#000000" width="800" height="400" preserveAspectRatio="none" transform="matrix(457.2,0,0,685.7999999999998,0,0)" x="0" y="0" xmlns:xlink="http://www.w3.org/1999/xlink" xlink:href="filesystem:https://docs.google.com/persistent/docs/documents/1XEj6tgt0NbBzzMKIlJ2kuMWH41hY7IkUdCmUWahipdA/image/13lwNgNqXyoA0Rq0FAqfodQ6S-Ef8bNprvq3w_MBr"></image></g></g></g></g></g><g></g></g></g><g id="editor-gb9563dfae_0_1"></g><g id="editor-gb9563dfae_0_2"></g><g id="editor-gb9563dfae_0_3"></g><g id="editor-gb9563dfae_0_9"></g><g id="editor-gb9563dfae_0_10"></g><g id="editor-gb9563dfae_0_11"></g><g id="editor-gba56ab250_0_17"><g><g></g><g><path d="M 18288 64008 L 347472.0076446533 64008 347472.0076446533 262716.00018310547 18288 262716.00018310547 Z"></path></g><g></g><g><path fill="#000" fill-opacity="0" stroke="#000" stroke-opacity="0" stroke-width="3882.8025477707006" stroke-linecap="round" stroke-linejoin="round" stroke-miterlimit="10" pointer-events="visiblePainted" d="M 18288 64008 L 347472.0076446533 64008 347472.0076446533 262716.00018310547 18288 262716.00018310547 Z"></path></g><g><g direction="ltr" style="opacity: 1;"><g transform="matrix(381,0,0,381,21945,67665)"><g pointer-events="none"><g id="editor-gba56ab250_0_17-paragraph-0"><g><g class="sketchy-text-background" visibility="visible"></g><g class="sketchy-text-content" visibility="visible"></g></g></g></g><rect style="opacity: 0;"></rect><rect style="opacity: 1;"></rect></g><g><path d="M 21945 70713 L 21945 70713 21945 89001 21945 89001 Z" pointer-events="visiblePainted" fill="#000000" stroke="#000000" opacity="0"></path></g><g transform="matrix(381,0,0,381,21945,67665)"></g></g></g></g></g><g id="editor-gba56ab250_0_18"><g><g></g><g><g></g><g><g><g><clipPath id="e136_40"><path d="M 39691.703125 80010 L 155536.2801513672 80010 155536.2801513672 194309.98266601562 39691.703125 194309.98266601562 Z"></path></clipPath><g clip-path="url(#e136_40)"><image fill="#000000" width="600" height="592" preserveAspectRatio="none" transform="matrix(193.0742950439453,0,0,193.0742950439453,39691.703125,80010)" x="0" y="0" xmlns:xlink="http://www.w3.org/1999/xlink" xlink:href="filesystem:https://docs.google.com/persistent/docs/documents/1XEj6tgt0NbBzzMKIlJ2kuMWH41hY7IkUdCmUWahipdA/image/1OxjinBzMcBV_XiBpH-ivFKXNsFQLUMyXWvgZtxA9"></image></g></g></g></g><g></g></g><g><path stroke="#000" stroke-opacity="0" stroke-width="3882.8025477707006" stroke-linecap="round" stroke-linejoin="round" stroke-miterlimit="10" pointer-events="visiblePainted" d="M 39691.703125 80010 L 155536.2801513672 80010 155536.2801513672 194309.98266601562 39691.703125 194309.98266601562 Z"></path><path fill="#000" fill-opacity="0" pointer-events="visiblePainted" d="M 39691.703125 80010 L 155536.2801513672 80010 155536.2801513672 194309.98266601562 39691.703125 194309.98266601562 Z"></path></g></g></g><g id="editor-gba56ab250_0_19"><g><g></g><g><g></g><g><g><g><clipPath id="e136_56"><path d="M 211272 80010 L 325572 80010 325572 194310 211272 194310 Z"></path></clipPath><g clip-path="url(#e136_56)"><image fill="#000000" width="300" height="300" preserveAspectRatio="none" transform="matrix(381,0,0,381,211272,80010)" x="0" y="0" xmlns:xlink="http://www.w3.org/1999/xlink" xlink:href="filesystem:https://docs.google.com/persistent/docs/documents/1XEj6tgt0NbBzzMKIlJ2kuMWH41hY7IkUdCmUWahipdA/image/10mgRoVRrqc520vQR8e6g3J5S2u22BlbwgAnqtfag"></image></g></g></g></g><g></g></g><g><path stroke="#000" stroke-opacity="0" stroke-width="3882.8025477707006" stroke-linecap="round" stroke-linejoin="round" stroke-miterlimit="10" pointer-events="visiblePainted" d="M 211272 80010 L 325572 80010 325572 194310 211272 194310 Z"></path><path fill="#000" fill-opacity="0" pointer-events="visiblePainted" d="M 211272 80010 L 325572 80010 325572 194310 211272 194310 Z"></path></g></g></g><g id="editor-gba56ab250_0_20"><g><g></g><g><path stroke="#FFD966" stroke-opacity="1" stroke-width="1524" stroke-linecap="butt" stroke-linejoin="round" stroke-miterlimit="8" d="M 102490.50133201963 202045.12257162054 L 104953.39785000001 203883.24579999998 C 109623.92910000001 206938.4428 116296.11660000001 209789.8975 124302.74160000001 212234.0551 140315.9916 217122.37029999998 161666.9916 220381.49709999998 183017.9916 220382.99709999998 225719.9916 220385.99709999998 268421.9916 207358.4899 268421.9916 194333.9827"></path><path fill="#FFD966" fill-opacity="1" stroke="#FFD966" stroke-opacity="1" stroke-width="1524" stroke-linecap="butt" stroke-linejoin="miter" stroke-miterlimit="10" d="M 104620.0320812372 200702.58997420818 L 98802.22496550222 196194.7633704734 100360.97058280207 203387.6551690329 Z"></path></g><g><path stroke="#000" stroke-opacity="0" stroke-width="3882.8025477707006" stroke-linecap="round" stroke-linejoin="round" stroke-miterlimit="10" pointer-events="visiblePainted" d="M 102490.50133201963 202045.12257162054 L 104953.39785000001 203883.24579999998 C 109623.92910000001 206938.4428 116296.11660000001 209789.8975 124302.74160000001 212234.0551 140315.9916 217122.37029999998 161666.9916 220381.49709999998 183017.9916 220382.99709999998 225719.9916 220385.99709999998 268421.9916 207358.4899 268421.9916 194333.9827"></path></g></g></g><g id="editor-gba56ab250_0_21"><g><g></g><g><path stroke="#FFD966" stroke-opacity="1" stroke-width="1524" stroke-linecap="butt" stroke-linejoin="round" stroke-miterlimit="8" d="M 97613.9916 80010 C 97613.9916 71187.50004 140315.9916 62362.00008 183017.9916 62365.00008 204368.9916 62366.50008 225719.9916 64575.125069999995 241733.2416 67887.687555 249739.8666 69543.9687975 256412.0541 71476.23441375 261082.58535 73546.585966875 L 261655.3236275287 73883.80158447473"></path><path fill="#FFD966" fill-opacity="1" stroke="#FFD966" stroke-opacity="1" stroke-width="1524" stroke-linecap="butt" stroke-linejoin="miter" stroke-miterlimit="10" d="M 259962.13683879288 75746.70616749242 L 266773.1933610938 78535.41364144125 263348.51041626453 72020.89700145704 Z"></path></g><g><path stroke="#000" stroke-opacity="0" stroke-width="3882.8025477707006" stroke-linecap="round" stroke-linejoin="round" stroke-miterlimit="10" pointer-events="visiblePainted" d="M 97613.9916 80010 C 97613.9916 71187.50004 140315.9916 62362.00008 183017.9916 62365.00008 204368.9916 62366.50008 225719.9916 64575.125069999995 241733.2416 67887.687555 249739.8666 69543.9687975 256412.0541 71476.23441375 261082.58535 73546.585966875 L 261655.3236275287 73883.80158447473"></path></g></g></g></g></g></svg>