<svg xmlns="http://www.w3.org/2000/svg" xmlns:xlink="http://www.w3.org/1999/xlink" version="1.1" fill-rule="evenodd" fill="none" stroke="none" stroke-linecap="square" stroke-miterlimit="10" overflow="hidden" viewBox="6858 13335 358140 268605"><rect fill="#ffffff" fill-opacity="0" width="100%" height="100%"></rect><g transform="translate(6858 13335) scale(0.98125)"><defs cursor="default"></defs><g id="editor-gba0784a3a_0_165"><g></g><path fill="#fff" fill-opacity="1" d="M 0 0 L 365760 0 365760 274320 0 274320 Z"></path><g id="editor-gba0784a3a_0_165-bg"><g><g></g><g><g></g><g><g><g><clipPath id="e137_11"><path d="M 0 0 L 365760 0 365760 274319.99999999994 0 274319.99999999994 Z"></path></clipPath><g clip-path="url(#e137_11)"><image fill="#000000" width="800" height="400" preserveAspectRatio="none" transform="matrix(457.2,0,0,685.7999999999998,0,0)" x="0" y="0" xmlns:xlink="http://www.w3.org/1999/xlink" xlink:href="filesystem:https://docs.google.com/persistent/docs/documents/1XEj6tgt0NbBzzMKIlJ2kuMWH41hY7IkUdCmUWahipdA/image/13lwNgNqXyoA0Rq0FAqfodQ6S-Ef8bNprvq3w_MBr"></image></g></g></g></g></g><g></g></g></g><g id="editor-gb9563dfae_0_1"></g><g id="editor-gb9563dfae_0_2"></g><g id="editor-gb9563dfae_0_3"></g><g id="editor-gb9563dfae_0_9"></g><g id="editor-gb9563dfae_0_10"></g><g id="editor-gb9563dfae_0_11"></g><g id="editor-gba0784a3a_0_166"><g><g></g><g><path d="M 18288 10985.51953125 L 347472.0076446533 10985.51953125 347472.0076446533 56705.520990371704 18288 56705.520990371704 Z"></path></g><g></g><g><path fill="#000" fill-opacity="0" stroke="#000" stroke-opacity="0" stroke-width="3882.8025477707006" stroke-linecap="round" stroke-linejoin="round" stroke-miterlimit="10" pointer-events="visiblePainted" d="M 18288 10985.51953125 L 347472.0076446533 10985.51953125 347472.0076446533 56705.520990371704 18288 56705.520990371704 Z"></path></g><g><g direction="ltr" style="opacity: 1;"><g transform="matrix(381,0,0,380.99999999999994,21945,30950.5209903717)"><g pointer-events="none"><g id="editor-gba0784a3a_0_166-paragraph-0"><g><g class="sketchy-text-background" visibility="visible"></g><g class="sketchy-text-content" visibility="visible"><g class="sketchy-text-content-text" transform="translate(0 46.08)"><text x="291.98361608550306px" style="font-family:Arial;font-size:48px;fill:#FFD966;font-weight:700;font-style:italic;" y="0px" text-rendering="geometricPrecision">Who</text><text x="409.26486608550306px" style="font-family:Arial;font-size:48px;fill:#FFD966;font-weight:700;font-style:italic;" y="0px" text-rendering="geometricPrecision">Wins?</text></g></g></g></g></g><rect style="opacity: 0;"></rect><rect style="opacity: 1;"></rect></g><g><path d="M 133190.75772857666 30950.5209903717 L 232569.24991607666 30950.5209903717 232569.24991607666 52896.120990371695 133190.75772857666 52896.120990371695 Z" pointer-events="visiblePainted" fill="#000000" stroke="#000000" opacity="0"></path></g><g transform="matrix(381,0,0,380.99999999999994,21945,30950.5209903717)"></g></g></g></g></g><g id="editor-gba0784a3a_0_167"><g><g></g><g><path d="M 18288 64008 L 347472.0076446533 64008 347472.0076446533 262716.00018310547 18288 262716.00018310547 Z"></path></g><g></g><g><path fill="#000" fill-opacity="0" stroke="#000" stroke-opacity="0" stroke-width="3882.8025477707006" stroke-linecap="round" stroke-linejoin="round" stroke-miterlimit="10" pointer-events="visiblePainted" d="M 18288 64008 L 347472.0076446533 64008 347472.0076446533 262716.00018310547 18288 262716.00018310547 Z"></path></g><g><g direction="ltr" style="opacity: 1;"><g transform="matrix(381,0,0,381,21945,67665)"><g pointer-events="none"><g id="editor-gba0784a3a_0_167-paragraph-0"><g><g class="sketchy-text-background" visibility="visible"></g><g class="sketchy-text-content" visibility="visible"></g></g></g></g><rect style="opacity: 0;"></rect><rect style="opacity: 1;"></rect></g><g><path d="M 21945 70713 L 21945 70713 21945 89001 21945 89001 Z" pointer-events="visiblePainted" fill="#000000" stroke="#000000" opacity="0"></path></g><g transform="matrix(381,0,0,381,21945,67665)"></g></g></g></g></g><g id="editor-gba0784a3a_0_168"><g><g></g><g><g></g><g><g><g><clipPath id="e137_50"><path d="M 39691.703125 80010 L 155536.2801513672 80010 155536.2801513672 194309.98266601562 39691.703125 194309.98266601562 Z"></path></clipPath><g clip-path="url(#e137_50)"><image fill="#000000" width="600" height="592" preserveAspectRatio="none" transform="matrix(193.0742950439453,0,0,193.0742950439453,39691.703125,80010)" x="0" y="0" xmlns:xlink="http://www.w3.org/1999/xlink" xlink:href="filesystem:https://docs.google.com/persistent/docs/documents/1XEj6tgt0NbBzzMKIlJ2kuMWH41hY7IkUdCmUWahipdA/image/1OxjinBzMcBV_XiBpH-ivFKXNsFQLUMyXWvgZtxA9"></image></g></g></g></g><g></g></g><g><path stroke="#000" stroke-opacity="0" stroke-width="3882.8025477707006" stroke-linecap="round" stroke-linejoin="round" stroke-miterlimit="10" pointer-events="visiblePainted" d="M 39691.703125 80010 L 155536.2801513672 80010 155536.2801513672 194309.98266601562 39691.703125 194309.98266601562 Z"></path><path fill="#000" fill-opacity="0" pointer-events="visiblePainted" d="M 39691.703125 80010 L 155536.2801513672 80010 155536.2801513672 194309.98266601562 39691.703125 194309.98266601562 Z"></path></g></g></g><g id="editor-gba0784a3a_0_169"><g><g></g><g><g></g><g><g><g><clipPath id="e137_66"><path d="M 211272 80010 L 325572 80010 325572 194310 211272 194310 Z"></path></clipPath><g clip-path="url(#e137_66)"><image fill="#000000" width="300" height="300" preserveAspectRatio="none" transform="matrix(381,0,0,381,211272,80010)" x="0" y="0" xmlns:xlink="http://www.w3.org/1999/xlink" xlink:href="filesystem:https://docs.google.com/persistent/docs/documents/1XEj6tgt0NbBzzMKIlJ2kuMWH41hY7IkUdCmUWahipdA/image/10mgRoVRrqc520vQR8e6g3J5S2u22BlbwgAnqtfag"></image></g></g></g></g><g></g></g><g><path stroke="#000" stroke-opacity="0" stroke-width="3882.8025477707006" stroke-linecap="round" stroke-linejoin="round" stroke-miterlimit="10" pointer-events="visiblePainted" d="M 211272 80010 L 325572 80010 325572 194310 211272 194310 Z"></path><path fill="#000" fill-opacity="0" pointer-events="visiblePainted" d="M 211272 80010 L 325572 80010 325572 194310 211272 194310 Z"></path></g></g></g><g id="editor-gba0784a3a_0_170"><g><g></g><g><path stroke="#FFD966" stroke-opacity="1" stroke-width="1524" stroke-linecap="butt" stroke-linejoin="round" stroke-miterlimit="8" d="M 102490.50133201963 202045.12257162054 L 104953.39785000001 203883.24579999998 C 109623.92910000001 206938.4428 116296.11660000001 209789.8975 124302.74160000001 212234.0551 140315.9916 217122.37029999998 161666.9916 220381.49709999998 183017.9916 220382.99709999998 225719.9916 220385.99709999998 268421.9916 207358.4899 268421.9916 194333.9827"></path><path fill="#FFD966" fill-opacity="1" stroke="#FFD966" stroke-opacity="1" stroke-width="1524" stroke-linecap="butt" stroke-linejoin="miter" stroke-miterlimit="10" d="M 104620.0320812372 200702.58997420818 L 98802.22496550222 196194.7633704734 100360.97058280207 203387.6551690329 Z"></path></g><g><path stroke="#000" stroke-opacity="0" stroke-width="3882.8025477707006" stroke-linecap="round" stroke-linejoin="round" stroke-miterlimit="10" pointer-events="visiblePainted" d="M 102490.50133201963 202045.12257162054 L 104953.39785000001 203883.24579999998 C 109623.92910000001 206938.4428 116296.11660000001 209789.8975 124302.74160000001 212234.0551 140315.9916 217122.37029999998 161666.9916 220381.49709999998 183017.9916 220382.99709999998 225719.9916 220385.99709999998 268421.9916 207358.4899 268421.9916 194333.9827"></path></g></g></g><g id="editor-gba0784a3a_0_171"><g><g></g><g><path stroke="#FFD966" stroke-opacity="1" stroke-width="1524" stroke-linecap="butt" stroke-linejoin="round" stroke-miterlimit="8" d="M 97613.9916 80010 C 97613.9916 71187.50004 140315.9916 62362.00008 183017.9916 62365.00008 204368.9916 62366.50008 225719.9916 64575.125069999995 241733.2416 67887.687555 249739.8666 69543.9687975 256412.0541 71476.23441375 261082.58535 73546.585966875 L 261655.3236275287 73883.80158447473"></path><path fill="#FFD966" fill-opacity="1" stroke="#FFD966" stroke-opacity="1" stroke-width="1524" stroke-linecap="butt" stroke-linejoin="miter" stroke-miterlimit="10" d="M 259962.13683879288 75746.70616749242 L 266773.1933610938 78535.41364144125 263348.51041626453 72020.89700145704 Z"></path></g><g><path stroke="#000" stroke-opacity="0" stroke-width="3882.8025477707006" stroke-linecap="round" stroke-linejoin="round" stroke-miterlimit="10" pointer-events="visiblePainted" d="M 97613.9916 80010 C 97613.9916 71187.50004 140315.9916 62362.00008 183017.9916 62365.00008 204368.9916 62366.50008 225719.9916 64575.125069999995 241733.2416 67887.687555 249739.8666 69543.9687975 256412.0541 71476.23441375 261082.58535 73546.585966875 L 261655.3236275287 73883.80158447473"></path></g></g></g><g id="editor-gba0784a3a_0_174"><g><g></g><g><path d="M 133998 69528 L 231762.00089263916 69528 231762.00089263916 98604.00045204163 133998 98604.00045204163 Z"></path></g><g><path fill="#000" fill-opacity="0" stroke="#000" stroke-opacity="0" stroke-width="3882.8025477707006" stroke-linecap="round" stroke-linejoin="round" stroke-miterlimit="10" pointer-events="visiblePainted" d="M 133998 69528 L 231762.00089263916 69528 231762.00089263916 98604.00045204163 133998 98604.00045204163 Z"></path></g><g><g direction="ltr" style="opacity: 1;"><g transform="matrix(381,0,0,380.9999999999998,137655,73185)"><g pointer-events="none"><g id="editor-gba0784a3a_0_174-paragraph-0"><g><g class="sketchy-text-background" visibility="visible"></g><g class="sketchy-text-content" visibility="visible"><g class="sketchy-text-content-text" transform="translate(0 38.4)"><text x="0px" style="font-family:Arial;font-size:40px;fill:#FFFFFF;" y="0px" text-rendering="geometricPrecision">Hello:</text><text x="113.37890625px" style="font-family:Arial;font-size:40px;fill:#FFFFFF;" y="0px" text-rendering="geometricPrecision">“Mars”</text></g></g></g></g></g><rect style="opacity: 0;"></rect><rect style="opacity: 1;"></rect></g><g><path d="M 137655 73185 L 224868.28125 73185 224868.28125 91472.99999999999 137655 91472.99999999999 Z" pointer-events="visiblePainted" fill="#000000" stroke="#000000" opacity="0"></path></g><g transform="matrix(381,0,0,380.9999999999998,137655,73185)"></g></g></g></g></g><g id="editor-gba0784a3a_0_175"><g><g></g><g><path d="M 134136 221450 L 231900.00089263916 221450 231900.00089263916 250526.00045204163 134136 250526.00045204163 Z"></path></g><g><path fill="#000" fill-opacity="0" stroke="#000" stroke-opacity="0" stroke-width="3882.8025477707006" stroke-linecap="round" stroke-linejoin="round" stroke-miterlimit="10" pointer-events="visiblePainted" d="M 134136 221450 L 231900.00089263916 221450 231900.00089263916 250526.00045204163 134136 250526.00045204163 Z"></path></g><g><g direction="ltr" style="opacity: 1;"><g transform="matrix(381,0,0,380.99999999999994,137793,225107)"><g pointer-events="none"><g id="editor-gba0784a3a_0_175-paragraph-0"><g><g class="sketchy-text-background" visibility="visible"></g><g class="sketchy-text-content" visibility="visible"><g class="sketchy-text-content-text" transform="translate(0 38.4)"><text x="0px" style="font-family:Arial;font-size:40px;fill:#FFFFFF;" y="0px" text-rendering="geometricPrecision">Hello:</text><text x="113.37890625px" style="font-family:Arial;font-size:40px;fill:#FFFFFF;" y="0px" text-rendering="geometricPrecision">“Earth”</text></g></g></g></g></g><rect style="opacity: 0;"></rect><rect style="opacity: 1;"></rect></g><g><path d="M 137793 225107 L 227566.125 225107 227566.125 243395 137793 243395 Z" pointer-events="visiblePainted" fill="#000000" stroke="#000000" opacity="0"></path></g><g transform="matrix(381,0,0,380.99999999999994,137793,225107)"></g></g></g></g></g></g></g></svg>