<svg xmlns="http://www.w3.org/2000/svg" xmlns:xlink="http://www.w3.org/1999/xlink" version="1.1" fill-rule="evenodd" fill="none" stroke="none" stroke-linecap="square" stroke-miterlimit="10" overflow="hidden" viewBox="6858 13335 358140 268605"><rect fill="#ffffff" fill-opacity="0" width="100%" height="100%"></rect><g transform="translate(6858 13335) scale(0.98125)"><defs cursor="default"></defs><g id="editor-gba0784a3a_2_48"><g></g><path fill="#fff" fill-opacity="1" d="M 0 0 L 365760 0 365760 274320 0 274320 Z"></path><g id="editor-gba0784a3a_2_48-bg"><g><g></g><g><g></g><g><g><g><clipPath id="e138_11"><path d="M 0 0 L 365760 0 365760 274319.99999999994 0 274319.99999999994 Z"></path></clipPath><g clip-path="url(#e138_11)"><image fill="#000000" width="800" height="400" preserveAspectRatio="none" transform="matrix(457.2,0,0,685.7999999999998,0,0)" x="0" y="0" xmlns:xlink="http://www.w3.org/1999/xlink" xlink:href="filesystem:https://docs.google.com/persistent/docs/documents/1XEj6tgt0NbBzzMKIlJ2kuMWH41hY7IkUdCmUWahipdA/image/13lwNgNqXyoA0Rq0FAqfodQ6S-Ef8bNprvq3w_MBr"></image></g></g></g></g></g><g></g></g></g><g id="editor-gb9563dfae_0_1"></g><g id="editor-gb9563dfae_0_2"></g><g id="editor-gb9563dfae_0_3"></g><g id="editor-gb9563dfae_0_9"></g><g id="editor-gb9563dfae_0_10"></g><g id="editor-gb9563dfae_0_11"></g><g id="editor-gba0784a3a_2_51"><g><g></g><g><path d="M 18288 10985.51953125 L 347472.0076446533 10985.51953125 347472.0076446533 56705.520990371704 18288 56705.520990371704 Z"></path></g><g></g><g><path fill="#000" fill-opacity="0" stroke="#000" stroke-opacity="0" stroke-width="3882.8025477707006" stroke-linecap="round" stroke-linejoin="round" stroke-miterlimit="10" pointer-events="visiblePainted" d="M 18288 10985.51953125 L 347472.0076446533 10985.51953125 347472.0076446533 56705.520990371704 18288 56705.520990371704 Z"></path></g><g><g direction="ltr" style="opacity: 1;"><g transform="matrix(381,0,0,380.99999999999994,21945,30950.5209903717)"><g pointer-events="none"><g id="editor-gba0784a3a_2_51-paragraph-0"><g><g class="sketchy-text-background" visibility="visible"></g><g class="sketchy-text-content" visibility="visible"><g class="sketchy-text-content-text" transform="translate(0 46.08)"><text x="293.00314733550306px" style="font-family:Arial;font-size:48px;fill:#FFD966;font-weight:700;font-style:italic;" y="0px" text-rendering="geometricPrecision">Divergence</text></g></g></g></g></g><rect style="opacity: 0;"></rect><rect style="opacity: 1;"></rect></g><g><path d="M 133579.19913482666 30950.5209903717 L 232180.80850982666 30950.5209903717 232180.80850982666 52896.120990371695 133579.19913482666 52896.120990371695 Z" pointer-events="visiblePainted" fill="#000000" stroke="#000000" opacity="0"></path></g><g transform="matrix(381,0,0,380.99999999999994,21945,30950.5209903717)"></g></g></g></g></g><g id="editor-gba0784a3a_2_52"><g><g></g><g><path d="M 18288 64008 L 347472.0076446533 64008 347472.0076446533 262716.00018310547 18288 262716.00018310547 Z"></path></g><g></g><g><path fill="#000" fill-opacity="0" stroke="#000" stroke-opacity="0" stroke-width="3882.8025477707006" stroke-linecap="round" stroke-linejoin="round" stroke-miterlimit="10" pointer-events="visiblePainted" d="M 18288 64008 L 347472.0076446533 64008 347472.0076446533 262716.00018310547 18288 262716.00018310547 Z"></path></g><g><g direction="ltr" style="opacity: 1;"><g transform="matrix(381,0,0,381,21945,67665)"><g pointer-events="none"><g id="editor-gba0784a3a_2_52-paragraph-0"><g><g class="sketchy-text-background" visibility="visible"></g><g class="sketchy-text-content" visibility="visible"></g></g></g></g><rect style="opacity: 0;"></rect><rect style="opacity: 1;"></rect></g><g><path d="M 21945 70713 L 21945 70713 21945 89001 21945 89001 Z" pointer-events="visiblePainted" fill="#000000" stroke="#000000" opacity="0"></path></g><g transform="matrix(381,0,0,381,21945,67665)"></g></g></g></g></g><g id="editor-gba0784a3a_2_53"><g><g></g><g><g></g><g><g><g><clipPath id="e138_50"><path d="M 39691.703125 80010 L 155536.2801513672 80010 155536.2801513672 194309.98266601562 39691.703125 194309.98266601562 Z"></path></clipPath><g clip-path="url(#e138_50)"><image fill="#000000" width="600" height="592" preserveAspectRatio="none" transform="matrix(193.0742950439453,0,0,193.0742950439453,39691.703125,80010)" x="0" y="0" xmlns:xlink="http://www.w3.org/1999/xlink" xlink:href="filesystem:https://docs.google.com/persistent/docs/documents/1XEj6tgt0NbBzzMKIlJ2kuMWH41hY7IkUdCmUWahipdA/image/1OxjinBzMcBV_XiBpH-ivFKXNsFQLUMyXWvgZtxA9"></image></g></g></g></g><g></g></g><g><path stroke="#000" stroke-opacity="0" stroke-width="3882.8025477707006" stroke-linecap="round" stroke-linejoin="round" stroke-miterlimit="10" pointer-events="visiblePainted" d="M 39691.703125 80010 L 155536.2801513672 80010 155536.2801513672 194309.98266601562 39691.703125 194309.98266601562 Z"></path><path fill="#000" fill-opacity="0" pointer-events="visiblePainted" d="M 39691.703125 80010 L 155536.2801513672 80010 155536.2801513672 194309.98266601562 39691.703125 194309.98266601562 Z"></path></g></g></g><g id="editor-gba0784a3a_2_54"><g><g></g><g><g></g><g><g><g><clipPath id="e138_66"><path d="M 211272 80010 L 325572 80010 325572 194310 211272 194310 Z"></path></clipPath><g clip-path="url(#e138_66)"><image fill="#000000" width="300" height="300" preserveAspectRatio="none" transform="matrix(381,0,0,381,211272,80010)" x="0" y="0" xmlns:xlink="http://www.w3.org/1999/xlink" xlink:href="filesystem:https://docs.google.com/persistent/docs/documents/1XEj6tgt0NbBzzMKIlJ2kuMWH41hY7IkUdCmUWahipdA/image/10mgRoVRrqc520vQR8e6g3J5S2u22BlbwgAnqtfag"></image></g></g></g></g><g></g></g><g><path stroke="#000" stroke-opacity="0" stroke-width="3882.8025477707006" stroke-linecap="round" stroke-linejoin="round" stroke-miterlimit="10" pointer-events="visiblePainted" d="M 211272 80010 L 325572 80010 325572 194310 211272 194310 Z"></path><path fill="#000" fill-opacity="0" pointer-events="visiblePainted" d="M 211272 80010 L 325572 80010 325572 194310 211272 194310 Z"></path></g></g></g><g id="editor-gba0784a3a_2_55"><g><g></g><g><path d="M 48732 122622 L 146496.00089263916 122622 146496.00089263916 151698.00045204163 48732 151698.00045204163 Z"></path></g><g><path fill="#000" fill-opacity="0" stroke="#000" stroke-opacity="0" stroke-width="3882.8025477707006" stroke-linecap="round" stroke-linejoin="round" stroke-miterlimit="10" pointer-events="visiblePainted" d="M 48732 122622 L 146496.00089263916 122622 146496.00089263916 151698.00045204163 48732 151698.00045204163 Z"></path></g><g><g direction="ltr" style="opacity: 1;"><g transform="matrix(381,0,0,380.99999999999994,52389,126279)"><g pointer-events="none"><g id="editor-gba0784a3a_2_55-paragraph-0"><g><g class="sketchy-text-background" visibility="visible"></g><g class="sketchy-text-content" visibility="visible"><g class="sketchy-text-content-text" transform="translate(0 38.4)"><text x="0px" style="font-family:Arial;font-size:40px;fill:#FFFFFF;" y="0px" text-rendering="geometricPrecision">Hello:</text><text x="113.37890625px" style="font-family:Arial;font-size:40px;fill:#FFFFFF;" y="0px" text-rendering="geometricPrecision">“Mars”</text></g></g></g></g></g><rect style="opacity: 0;"></rect><rect style="opacity: 1;"></rect></g><g><path d="M 52389 126279 L 139602.28125 126279 139602.28125 144567 52389 144567 Z" pointer-events="visiblePainted" fill="#000000" stroke="#000000" opacity="0"></path></g><g transform="matrix(381,0,0,380.99999999999994,52389,126279)"></g></g></g></g></g><g id="editor-gba0784a3a_2_56"><g><g></g><g><path d="M 219540 122622 L 317304.00089263916 122622 317304.00089263916 151698.00045204163 219540 151698.00045204163 Z"></path></g><g><path fill="#000" fill-opacity="0" stroke="#000" stroke-opacity="0" stroke-width="3882.8025477707006" stroke-linecap="round" stroke-linejoin="round" stroke-miterlimit="10" pointer-events="visiblePainted" d="M 219540 122622 L 317304.00089263916 122622 317304.00089263916 151698.00045204163 219540 151698.00045204163 Z"></path></g><g><g direction="ltr" style="opacity: 1;"><g transform="matrix(381,0,0,380.99999999999994,223197,126279)"><g pointer-events="none"><g id="editor-gba0784a3a_2_56-paragraph-0"><g><g class="sketchy-text-background" visibility="visible"></g><g class="sketchy-text-content" visibility="visible"><g class="sketchy-text-content-text" transform="translate(0 38.4)"><text x="0px" style="font-family:Arial;font-size:40px;fill:#FFFFFF;" y="0px" text-rendering="geometricPrecision">Hello:</text><text x="113.37890625px" style="font-family:Arial;font-size:40px;fill:#FFFFFF;" y="0px" text-rendering="geometricPrecision">“Earth”</text></g></g></g></g></g><rect style="opacity: 0;"></rect><rect style="opacity: 1;"></rect></g><g><path d="M 223197 126279 L 312970.125 126279 312970.125 144567 223197 144567 Z" pointer-events="visiblePainted" fill="#000000" stroke="#000000" opacity="0"></path></g><g transform="matrix(381,0,0,380.99999999999994,223197,126279)"></g></g></g></g></g></g></g></svg>