<svg xmlns="http://www.w3.org/2000/svg" xmlns:xlink="http://www.w3.org/1999/xlink" version="1.1" fill-rule="evenodd" fill="none" stroke="none" stroke-linecap="square" stroke-miterlimit="10" overflow="hidden" viewBox="6858 13335 358140 268605"><rect fill="#ffffff" fill-opacity="0" width="100%" height="100%"></rect><g transform="translate(6858 13335) scale(0.98125)"><defs cursor="default"></defs><g id="editor-gba56ab250_0_48"><g></g><path fill="#fff" fill-opacity="1" d="M 0 0 L 365760 0 365760 274320 0 274320 Z"></path><g id="editor-gba56ab250_0_48-bg"><g><g></g><g><path fill="#000000" fill-opacity="1" d="M 0 0 L 365760 0 365760 274320 0 274320 Z"></path></g><g></g></g></g><g id="editor-gb9563dfae_0_1"></g><g id="editor-gb9563dfae_0_2"></g><g id="editor-gb9563dfae_0_3"></g><g id="editor-gb9563dfae_0_9"></g><g id="editor-gb9563dfae_0_10"></g><g id="editor-gb9563dfae_0_11"></g><g id="editor-gba56ab250_0_49"><g><g></g><g><path d="M 18288 10985.51953125 L 347472.0076446533 10985.51953125 347472.0076446533 56717.51940536499 18288 56717.51940536499 Z"></path></g><g></g><g><path fill="#000" fill-opacity="0" stroke="#000" stroke-opacity="0" stroke-width="3882.8025477707006" stroke-linecap="round" stroke-linejoin="round" stroke-miterlimit="10" pointer-events="visiblePainted" d="M 18288 10985.51953125 L 347472.0076446533 10985.51953125 347472.0076446533 56717.51940536499 18288 56717.51940536499 Z"></path></g><g><g direction="ltr" style="opacity: 1;"><g transform="matrix(381,0,0,380.9999999999995,21945,30962.519405365016)"><g pointer-events="none"><g id="editor-gba56ab250_0_49-paragraph-0"><g><g class="sketchy-text-background" visibility="visible"></g><g class="sketchy-text-content" visibility="visible"></g></g></g></g><rect style="opacity: 0;"></rect><rect style="opacity: 1;"></rect></g><g><path d="M 21945 30962.519405365016 L 21945 30962.519405365016 21945 52908.11940536498 21945 52908.11940536498 Z" pointer-events="visiblePainted" fill="#000000" stroke="#000000" opacity="0"></path></g><g transform="matrix(381,0,0,380.9999999999995,21945,30962.519405365016)"></g></g></g></g></g><g id="editor-gba56ab250_0_50"><g><g></g><g><path d="M 18288 64008 L 347472.0076446533 64008 347472.0076446533 262716.00018310547 18288 262716.00018310547 Z"></path></g><g></g><g><path fill="#000" fill-opacity="0" stroke="#000" stroke-opacity="0" stroke-width="3882.8025477707006" stroke-linecap="round" stroke-linejoin="round" stroke-miterlimit="10" pointer-events="visiblePainted" d="M 18288 64008 L 347472.0076446533 64008 347472.0076446533 262716.00018310547 18288 262716.00018310547 Z"></path></g><g><g direction="ltr" style="opacity: 1;"><g transform="matrix(381,0,0,381,21945,67665)"><g pointer-events="none"><g id="editor-gba56ab250_0_50-paragraph-0"><g><g class="sketchy-text-background" visibility="visible"></g><g class="sketchy-text-content" visibility="visible"><g class="sketchy-text-content-text" transform="translate(0 46.4)"><text x="171.21994421050306px" style="font-family:Arial;font-size:40px;fill:#CCCCCC;font-style:italic;" y="0px" text-rendering="geometricPrecision">Alice</text><text x="269.03244421050306px" style="font-family:Arial;font-size:40px;fill:#CCCCCC;font-style:italic;" y="0px" text-rendering="geometricPrecision">says</text><text x="362.39181921050306px" style="font-family:Arial;font-size:40px;fill:#CCCCCC;font-style:italic;" y="0px" text-rendering="geometricPrecision">“Hello</text><text x="477.97775671050306px" style="font-family:Arial;font-size:40px;fill:#CCCCCC;font-style:italic;" y="0px" text-rendering="geometricPrecision">World”</text><text x="606.8644754605031px" style="font-family:Arial;font-size:40px;fill:#CCCCCC;font-style:italic;" y="0px" text-rendering="geometricPrecision">at</text><text x="651.3371317105031px" style="font-family:Arial;font-size:40px;fill:#CCCCCC;font-style:italic;" y="0px" text-rendering="geometricPrecision">1</text></g></g></g></g><g id="editor-gba56ab250_0_50-paragraph-1" transform="translate(0, 56)"><g><g class="sketchy-text-background" visibility="visible"></g><g class="sketchy-text-content" visibility="visible"><g class="sketchy-text-content-text" transform="translate(0 46.4)"><text x="179.00314733550306px" style="font-family:Arial;font-size:40px;fill:#CCCCCC;font-style:italic;" y="0px" text-rendering="geometricPrecision">Alice</text><text x="276.81564733550306px" style="font-family:Arial;font-size:40px;fill:#CCCCCC;font-style:italic;" y="0px" text-rendering="geometricPrecision">says</text><text x="370.17502233550306px" style="font-family:Arial;font-size:40px;fill:#CCCCCC;font-style:italic;" y="0px" text-rendering="geometricPrecision">“Hello</text><text x="485.76095983550306px" style="font-family:Arial;font-size:40px;fill:#CCCCCC;font-style:italic;" y="0px" text-rendering="geometricPrecision">Mars”</text><text x="599.0812723355031px" style="font-family:Arial;font-size:40px;fill:#CCCCCC;font-style:italic;" y="0px" text-rendering="geometricPrecision">at</text><text x="643.5539285855031px" style="font-family:Arial;font-size:40px;fill:#CCCCCC;font-style:italic;" y="0px" text-rendering="geometricPrecision">2</text></g></g></g></g><g id="editor-gba56ab250_0_50-paragraph-2" transform="translate(0, 112)"><g><g class="sketchy-text-background" visibility="visible"></g><g class="sketchy-text-content" visibility="visible"></g></g></g><g id="editor-gba56ab250_0_50-paragraph-3" transform="translate(0, 168)"><g><g class="sketchy-text-background" visibility="visible"></g><g class="sketchy-text-content" visibility="visible"></g></g></g><g id="editor-gba56ab250_0_50-paragraph-4" transform="translate(0, 224)"><g><g class="sketchy-text-background" visibility="visible"></g><g class="sketchy-text-content" visibility="visible"><g class="sketchy-text-content-text" transform="translate(0 46.4)"><text x="171.18088171050306px" style="font-family:Arial;font-size:40px;fill:#CCCCCC;font-style:italic;" y="0px" text-rendering="geometricPrecision">Bob</text><text x="253.46603796050306px" style="font-family:Arial;font-size:40px;fill:#CCCCCC;font-style:italic;" y="0px" text-rendering="geometricPrecision">says</text><text x="346.82541296050306px" style="font-family:Arial;font-size:40px;fill:#CCCCCC;font-style:italic;" y="0px" text-rendering="geometricPrecision">“Hello</text><text x="462.41135046050306px" style="font-family:Arial;font-size:40px;fill:#CCCCCC;font-style:italic;" y="0px" text-rendering="geometricPrecision">Jupiter”</text><text x="606.9035379605031px" style="font-family:Arial;font-size:40px;fill:#CCCCCC;font-style:italic;" y="0px" text-rendering="geometricPrecision">at</text><text x="651.3761942105031px" style="font-family:Arial;font-size:40px;fill:#CCCCCC;font-style:italic;" y="0px" text-rendering="geometricPrecision">5</text></g></g></g></g><g id="editor-gba56ab250_0_50-paragraph-5" transform="translate(0, 280)"><g><g class="sketchy-text-background" visibility="visible"></g><g class="sketchy-text-content" visibility="visible"><g class="sketchy-text-content-text" transform="translate(0 46.4)"><text x="177.86056921050306px" style="font-family:Arial;font-size:40px;fill:#CCCCCC;font-style:italic;" y="0px" text-rendering="geometricPrecision">Alice</text><text x="275.67306921050306px" style="font-family:Arial;font-size:40px;fill:#CCCCCC;font-style:italic;" y="0px" text-rendering="geometricPrecision">says</text><text x="369.03244421050306px" style="font-family:Arial;font-size:40px;fill:#CCCCCC;font-style:italic;" y="0px" text-rendering="geometricPrecision">“Hello</text><text x="484.61838171050306px" style="font-family:Arial;font-size:40px;fill:#CCCCCC;font-style:italic;" y="0px" text-rendering="geometricPrecision">Pluto”</text><text x="600.2238504605031px" style="font-family:Arial;font-size:40px;fill:#CCCCCC;font-style:italic;" y="0px" text-rendering="geometricPrecision">at</text><text x="644.6965067105031px" style="font-family:Arial;font-size:40px;fill:#CCCCCC;font-style:italic;" y="0px" text-rendering="geometricPrecision">6</text></g></g></g></g></g><rect style="opacity: 0;"></rect><rect style="opacity: 1;"></rect></g><g><path d="M 87164.91593170166 70713 L 278595.09171295166 70713 278595.09171295166 195681 87164.91593170166 195681 Z" pointer-events="visiblePainted" fill="#000000" stroke="#000000" opacity="0"></path></g><g transform="matrix(381,0,0,381,21945,67665)"></g></g></g></g></g><g id="editor-gba5bd53d5_0_0"><g><g></g><g><path stroke="#FFD966" stroke-opacity="1" stroke-width="1524" stroke-linecap="butt" stroke-linejoin="round" stroke-miterlimit="8" d="M 287480.65625 79220.4375 C 293003.49574713473 79220.4375 300009.41899017117 77422.20024017115 303914.65625 81327.4375 306684.921269412 84097.702519412 308319.9683625892 89067.02039297106 306864.65625 92704.4375 304461.1029929766 98711.89504750683 295726.21794295206 99507.78973308954 289587.65625 101553.4375 288097.7429860975 102049.94431929152 284992.3373127451 102136.96894973508 285373.65625 103660.4375 286869.68289807276 109637.45391860353 294125.6464013825 112357.63854784926 298858.65625 116302.4375 307426.1001724174 123443.10377552747 313949.36241826933 134019.58689796552 316134.65625 144956.4375 318331.6662034207 155951.92436902004 315700.20667371375 168853.81134180567 308971.65625 177823.4375 306592.096374051 180995.556480201 303096.81193785346 183313.306480201 299205.0596887419 184838.02673515072 L 296098.4957532171 185711.64451655623"></path><path fill="#FFD966" fill-opacity="1" stroke="#FFD966" stroke-opacity="1" stroke-width="1524" stroke-linecap="butt" stroke-linejoin="miter" stroke-miterlimit="10" d="M 295717.804488816 183223.19738065268 L 289262.10252271284 186757.49963853724 296479.18701761815 188200.09165245979 Z"></path></g><g><path stroke="#000" stroke-opacity="0" stroke-width="3882.8025477707006" stroke-linecap="round" stroke-linejoin="round" stroke-miterlimit="10" pointer-events="visiblePainted" d="M 287480.65625 79220.4375 C 293003.49574713473 79220.4375 300009.41899017117 77422.20024017115 303914.65625 81327.4375 306684.921269412 84097.702519412 308319.9683625892 89067.02039297106 306864.65625 92704.4375 304461.1029929766 98711.89504750683 295726.21794295206 99507.78973308954 289587.65625 101553.4375 288097.7429860975 102049.94431929152 284992.3373127451 102136.96894973508 285373.65625 103660.4375 286869.68289807276 109637.45391860353 294125.6464013825 112357.63854784926 298858.65625 116302.4375 307426.1001724174 123443.10377552747 313949.36241826933 134019.58689796552 316134.65625 144956.4375 318331.6662034207 155951.92436902004 315700.20667371375 168853.81134180567 308971.65625 177823.4375 306592.096374051 180995.556480201 303096.81193785346 183313.306480201 299205.0596887419 184838.02673515072 L 296098.4957532171 185711.64451655623"></path></g></g></g><g id="editor-gba5bd53d5_0_1"><g><g></g><g><path stroke="#FFD966" stroke-opacity="1" stroke-width="1524" stroke-linecap="butt" stroke-linejoin="round" stroke-miterlimit="8" d="M 843 163397.703125 C 13723.991875112413 160821.91231181505 26855.488944236087 161243.41231181505 40050.73951001982 162308.86001511128 46648.364792911685 162841.5838667594 53261.92844996857 163535.2946442316 59868.08651902157 164095.82445879176 L 70508.39095123317 164627.42693409996"></path><path fill="#FFD966" fill-opacity="1" stroke="#FFD966" stroke-opacity="1" stroke-width="1524" stroke-linecap="butt" stroke-linejoin="miter" stroke-miterlimit="10" d="M 70382.77535865385 167141.6893925316 L 77415.70539747397 164972.5247159113 70634.0065438125 162113.1644756683 Z"></path></g><g><path stroke="#000" stroke-opacity="0" stroke-width="3882.8025477707006" stroke-linecap="round" stroke-linejoin="round" stroke-miterlimit="10" pointer-events="visiblePainted" d="M 843 163397.703125 C 13723.991875112413 160821.91231181505 26855.488944236087 161243.41231181505 40050.73951001982 162308.86001511128 46648.364792911685 162841.5838667594 53261.92844996857 163535.2946442316 59868.08651902157 164095.82445879176 L 70508.39095123317 164627.42693409996"></path></g></g></g></g></g></svg>