<svg xmlns="http://www.w3.org/2000/svg" xmlns:xlink="http://www.w3.org/1999/xlink" version="1.1" fill-rule="evenodd" fill="none" stroke="none" stroke-linecap="square" stroke-miterlimit="10" overflow="hidden" viewBox="6858 13335 358140 268605"><rect fill="#ffffff" fill-opacity="0" width="100%" height="100%"></rect><g transform="translate(6858 13335) scale(0.98125)"><defs cursor="default"></defs><g id="editor-gba5bd53d5_0_2"><g></g><path fill="#fff" fill-opacity="1" d="M 0 0 L 365760 0 365760 274320 0 274320 Z"></path><g id="editor-gba5bd53d5_0_2-bg"><g><g></g><g><path fill="#000000" fill-opacity="1" d="M 0 0 L 365760 0 365760 274320 0 274320 Z"></path></g><g></g></g></g><g id="editor-gb9563dfae_0_1"></g><g id="editor-gb9563dfae_0_2"></g><g id="editor-gb9563dfae_0_3"></g><g id="editor-gb9563dfae_0_5"></g><g id="editor-gb9563dfae_0_6"></g><g id="editor-gb9563dfae_0_7"></g><g id="editor-gba5bd53d5_0_9"><g><g></g><g><path stroke="#FFFFFF" stroke-opacity="1" stroke-width="762" stroke-linecap="butt" stroke-linejoin="round" stroke-miterlimit="8" d="M 133812.703125 65381.29296875 L 133812.703125 161993.29581832886"></path></g><g><path stroke="#000" stroke-opacity="0" stroke-width="3882.8025477707006" stroke-linecap="round" stroke-linejoin="round" stroke-miterlimit="10" pointer-events="visiblePainted" d="M 133812.703125 65381.29296875 L 133812.703125 161993.29581832886"></path></g></g></g><g id="editor-gba5bd53d5_0_10"><g><g></g><g><path stroke="#FFFFFF" stroke-opacity="1" stroke-width="762" stroke-linecap="butt" stroke-linejoin="round" stroke-miterlimit="8" d="M 133722.640625 161996.3125 L 154830.64030742645 252080.31213378906"></path></g><g><path stroke="#000" stroke-opacity="0" stroke-width="3882.8025477707006" stroke-linecap="round" stroke-linejoin="round" stroke-miterlimit="10" pointer-events="visiblePainted" d="M 133722.640625 161996.3125 L 154830.64030742645 252080.31213378906"></path></g></g></g><g id="editor-gba5bd53d5_0_11"><g><g></g><g><path stroke="#FFFFFF" stroke-opacity="1" stroke-width="762" stroke-linecap="butt" stroke-linejoin="round" stroke-miterlimit="8" d="M 134025.578125 162690.0625 L 112797.5781993866 253278.05993652344"></path></g><g><path stroke="#000" stroke-opacity="0" stroke-width="3882.8025477707006" stroke-linecap="round" stroke-linejoin="round" stroke-miterlimit="10" pointer-events="visiblePainted" d="M 134025.578125 162690.0625 L 112797.5781993866 253278.05993652344"></path></g></g></g><g id="editor-gba5bd53d5_0_12"><g><g></g><g><path stroke="#FFFFFF" stroke-opacity="1" stroke-width="762" stroke-linecap="butt" stroke-linejoin="round" stroke-miterlimit="8" d="M 133809.640625 72303.59375 L 215433.63831329346 31599.594945907593"></path></g><g><path stroke="#000" stroke-opacity="0" stroke-width="3882.8025477707006" stroke-linecap="round" stroke-linejoin="round" stroke-miterlimit="10" pointer-events="visiblePainted" d="M 133809.640625 72303.59375 L 215433.63831329346 31599.594945907593"></path></g></g></g><g id="editor-gba5bd53d5_0_13"><g><g></g><g><path stroke="#FFFFFF" stroke-opacity="1" stroke-width="762" stroke-linecap="butt" stroke-linejoin="round" stroke-miterlimit="8" d="M 134112.5625 72649.8828125 L 66264.56197357178 28237.883825302117"></path></g><g><path stroke="#000" stroke-opacity="0" stroke-width="3882.8025477707006" stroke-linecap="round" stroke-linejoin="round" stroke-miterlimit="10" pointer-events="visiblePainted" d="M 134112.5625 72649.8828125 L 66264.56197357178 28237.883825302117"></path></g></g></g><g id="editor-gba5bd53d5_0_14"><g><g></g><g><path stroke="#FFFFFF" stroke-opacity="1" stroke-width="762" stroke-linecap="butt" stroke-linejoin="round" stroke-miterlimit="8" d="M 114421.328125 43216.76629734039 C 114421.328125 30972.613022268357 123103.42191811741 21046.765625 133813.32736968994 21046.765624999996 138956.4053403377 21046.765624999996 143888.83622715843 23382.526846736968 147525.5415363746 27540.208483018174 151162.24684559077 31697.890119299387 153205.32661437988 37336.91653928194 153205.32661437988 43216.76629734039 153205.32661437988 55460.91957241242 144523.23282126247 65386.766969680786 133813.32736968994 65386.766969680786 123103.42191811743 65386.766969680786 114421.328125 55460.91957241243 114421.328125 43216.76629734039 Z"></path></g><g><path fill="#000" fill-opacity="0" stroke="#000" stroke-opacity="0" stroke-width="3882.8025477707006" stroke-linecap="round" stroke-linejoin="round" stroke-miterlimit="10" pointer-events="visiblePainted" d="M 114421.328125 43216.76629734039 C 114421.328125 30972.613022268357 123103.42191811741 21046.765625 133813.32736968994 21046.765624999996 138956.4053403377 21046.765624999996 143888.83622715843 23382.526846736968 147525.5415363746 27540.208483018174 151162.24684559077 31697.890119299387 153205.32661437988 37336.91653928194 153205.32661437988 43216.76629734039 153205.32661437988 55460.91957241242 144523.23282126247 65386.766969680786 133813.32736968994 65386.766969680786 123103.42191811743 65386.766969680786 114421.328125 55460.91957241243 114421.328125 43216.76629734039 Z"></path></g><g></g></g></g><g id="editor-gba5bd53d5_0_15"><g><g></g><g><path fill="#FFFFFF" fill-opacity="1" stroke="#FFFFFF" stroke-opacity="1" stroke-width="762" stroke-linecap="butt" stroke-linejoin="round" stroke-miterlimit="8" d="M 140671.00029468536 50929.00025320053 C 140671.00029468536 56025.4837848003 137734.88361810814 60157 134113.00014734268 60157 130491.11667657722 60157 127555 56025.4837848003 127555 50929.00025320053 129103.13383122651 53833.58056866123 131532.7770952985 55543.00012660027 134113.00014734268 55543.00012660027 136693.22319938688 55543.00012660027 139122.86646345886 53833.58056866123 140671.00029468536 50929.00025320054 Z"></path></g><g><path fill="#000" fill-opacity="0" stroke="#000" stroke-opacity="0" stroke-width="3882.8025477707006" stroke-linecap="round" stroke-linejoin="round" stroke-miterlimit="10" pointer-events="visiblePainted" d="M 140671.00029468536 50929.00025320053 C 140671.00029468536 56025.4837848003 137734.88361810814 60157 134113.00014734268 60157 130491.11667657722 60157 127555 56025.4837848003 127555 50929.00025320053 129103.13383122651 53833.58056866123 131532.7770952985 55543.00012660027 134113.00014734268 55543.00012660027 136693.22319938688 55543.00012660027 139122.86646345886 53833.58056866123 140671.00029468536 50929.00025320054 Z"></path></g><g></g></g></g><g id="editor-gba5bd53d5_0_16"><g><g></g><g><path fill="#FFFFFF" fill-opacity="1" stroke="#FFFFFF" stroke-opacity="1" stroke-width="762" stroke-linecap="butt" stroke-linejoin="round" stroke-miterlimit="8" d="M 122059 34531.00005364418 C 122059 33785.415611745746 122663.41561174575 33181 123409.00005364418 33181 123767.04232915488 33181 124110.4201252131 33323.23174014509 124363.59424617818 33576.40586111018 124616.76836714326 33829.57998207526 124759.00010728836 34172.957778133474 124759.00010728836 34531.00005364418 124759.00010728836 35276.584495542615 124154.58449554261 35881.00010728836 123409.00005364418 35881.00010728836 122663.41561174575 35881.00010728836 122059 35276.584495542615 122059 34531.00005364418 Z"></path></g><g><path fill="#000" fill-opacity="0" stroke="#000" stroke-opacity="0" stroke-width="3882.8025477707006" stroke-linecap="round" stroke-linejoin="round" stroke-miterlimit="10" pointer-events="visiblePainted" d="M 122059 34531.00005364418 C 122059 33785.415611745746 122663.41561174575 33181 123409.00005364418 33181 123767.04232915488 33181 124110.4201252131 33323.23174014509 124363.59424617818 33576.40586111018 124616.76836714326 33829.57998207526 124759.00010728836 34172.957778133474 124759.00010728836 34531.00005364418 124759.00010728836 35276.584495542615 124154.58449554261 35881.00010728836 123409.00005364418 35881.00010728836 122663.41561174575 35881.00010728836 122059 35276.584495542615 122059 34531.00005364418 Z"></path></g><g></g></g></g><g id="editor-gba5bd53d5_0_17"><g><g></g><g><path fill="#FFFFFF" fill-opacity="1" stroke="#FFFFFF" stroke-opacity="1" stroke-width="762" stroke-linecap="butt" stroke-linejoin="round" stroke-miterlimit="8" d="M 142928 34531.00005364418 C 142928 33785.415611745746 143532.41561174576 33181 144278.00005364418 33181 144636.04232915488 33181 144979.4201252131 33323.23174014509 145232.5942461782 33576.40586111018 145485.76836714326 33829.57998207526 145628.00010728836 34172.957778133474 145628.00010728836 34531.00005364418 145628.00010728836 35276.584495542615 145023.5844955426 35881.00010728836 144278.00005364418 35881.00010728836 143532.41561174576 35881.00010728836 142928 35276.584495542615 142928 34531.00005364418 Z"></path></g><g><path fill="#000" fill-opacity="0" stroke="#000" stroke-opacity="0" stroke-width="3882.8025477707006" stroke-linecap="round" stroke-linejoin="round" stroke-miterlimit="10" pointer-events="visiblePainted" d="M 142928 34531.00005364418 C 142928 33785.415611745746 143532.41561174576 33181 144278.00005364418 33181 144636.04232915488 33181 144979.4201252131 33323.23174014509 145232.5942461782 33576.40586111018 145485.76836714326 33829.57998207526 145628.00010728836 34172.957778133474 145628.00010728836 34531.00005364418 145628.00010728836 35276.584495542615 145023.5844955426 35881.00010728836 144278.00005364418 35881.00010728836 143532.41561174576 35881.00010728836 142928 35276.584495542615 142928 34531.00005364418 Z"></path></g><g></g></g></g><g id="editor-gba5bd53d5_0_24"><g><g></g><g><path stroke="#FFD966" stroke-opacity="1" stroke-width="762" stroke-linecap="butt" stroke-linejoin="round" stroke-miterlimit="8" d="M 165006.8372071505 69343.89225273134 L 195934.60518737527 76422.87834357763 C 225948.13664555928 57454.18920225069 272766.35558454035 63380.00054818676 304096.25691837096 90112.96646628206 335426.1582522015 116845.93238437735 341014.4523604683 155637.1953838204 317006.596841735 179730.36699618195 292998.7413230017 203823.53860854357 247251.75089224294 205333.68284939055 211319.74760123278 183219.17325886662 175387.74431022262 161104.66366834266 161030.1407552128 122602.88249125578 178150.13648397406 94270.54725225524 Z"></path></g><g><path fill="#000" fill-opacity="0" stroke="#000" stroke-opacity="0" stroke-width="3882.8025477707006" stroke-linecap="round" stroke-linejoin="round" stroke-miterlimit="10" pointer-events="visiblePainted" d="M 165006.8372071505 69343.89225273134 L 195934.60518737527 76422.87834357763 C 225948.13664555928 57454.18920225069 272766.35558454035 63380.00054818676 304096.25691837096 90112.96646628206 335426.1582522015 116845.93238437735 341014.4523604683 155637.1953838204 317006.596841735 179730.36699618195 292998.7413230017 203823.53860854357 247251.75089224294 205333.68284939055 211319.74760123278 183219.17325886662 175387.74431022262 161104.66366834266 161030.1407552128 122602.88249125578 178150.13648397406 94270.54725225524 Z"></path></g><g></g></g></g><g id="editor-gba5bd53d5_0_20"><g><g></g><g><path d="M 192010 94811 L 310833.99797439575 94811 310833.99797439575 169391.0018310547 192010 169391.0018310547 Z"></path></g><g><path fill="#000" fill-opacity="0" stroke="#000" stroke-opacity="0" stroke-width="3882.8025477707006" stroke-linecap="round" stroke-linejoin="round" stroke-miterlimit="10" pointer-events="visiblePainted" d="M 192010 94811 L 310833.99797439575 94811 310833.99797439575 169391.0018310547 192010 169391.0018310547 Z"></path></g><g><g direction="ltr" style="opacity: 1;"><g transform="matrix(381,0,0,381,195667,98468)"><g pointer-events="none"><g id="editor-gba5bd53d5_0_20-paragraph-0"><g><g class="sketchy-text-background" visibility="visible"></g><g class="sketchy-text-content" visibility="visible"><g class="sketchy-text-content-text" transform="translate(0 46.08)"><text x="16.96358001889206px" style="font-family:Arial;font-size:48px;fill:#CCCCCC;" y="0px" text-rendering="geometricPrecision">I’m</text><text x="94.28389251889206px" style="font-family:Arial;font-size:48px;fill:#CCCCCC;" y="0px" text-rendering="geometricPrecision">Carl</text><text x="195.62764251889206px" style="font-family:Arial;font-size:48px;fill:#CCCCCC;" y="0px" text-rendering="geometricPrecision">and</text></g></g></g></g><g id="editor-gba5bd53d5_0_20-paragraph-1" transform="translate(0, 58)"><g><g class="sketchy-text-background" visibility="visible"></g><g class="sketchy-text-content" visibility="visible"><g class="sketchy-text-content-text" transform="translate(0 46.08)"><text x="22.26045501889206px" style="font-family:Arial;font-size:48px;fill:#CCCCCC;" y="0px" text-rendering="geometricPrecision">I</text><text x="48.93233001889206px" style="font-family:Arial;font-size:48px;fill:#CCCCCC;" y="0px" text-rendering="geometricPrecision">want</text><text x="163.65889251889206px" style="font-family:Arial;font-size:48px;fill:#CCCCCC;" y="0px" text-rendering="geometricPrecision">to</text><text x="217.02608001889206px" style="font-family:Arial;font-size:48px;fill:#CCCCCC;" y="0px" text-rendering="geometricPrecision">be</text></g></g></g></g><g id="editor-gba5bd53d5_0_20-paragraph-2" transform="translate(0, 116)"><g><g class="sketchy-text-background" visibility="visible"></g><g class="sketchy-text-content" visibility="visible"><g class="sketchy-text-content-text" transform="translate(0 46.08)"><text x="26.27998626889206px" style="font-family:Arial;font-size:48px;fill:#CCCCCC;" y="0px" text-rendering="geometricPrecision">your</text><text x="132.99092376889206px" style="font-family:Arial;font-size:48px;fill:#CCCCCC;" y="0px" text-rendering="geometricPrecision">friend!</text></g></g></g></g></g><rect style="opacity: 0;"></rect><rect style="opacity: 1;"></rect></g><g><path d="M 202130.12398719788 98468 L 300713.8739871979 98468 300713.8739871979 164609.59999999998 202130.12398719788 164609.59999999998 Z" pointer-events="visiblePainted" fill="#000000" stroke="#000000" opacity="0"></path></g><g transform="matrix(381,0,0,381,195667,98468)"></g></g></g></g></g></g></g></svg>