<svg xmlns="http://www.w3.org/2000/svg" xmlns:xlink="http://www.w3.org/1999/xlink" version="1.1" fill-rule="evenodd" fill="none" stroke="none" stroke-linecap="square" stroke-miterlimit="10" overflow="hidden" viewBox="6858 13335 358140 268605"><rect fill="#ffffff" fill-opacity="0" width="100%" height="100%"></rect><g transform="translate(6858 13335) scale(0.98125)"><defs cursor="default"></defs><g id="editor-gba5bd53d5_0_25"><g></g><path fill="#fff" fill-opacity="1" d="M 0 0 L 365760 0 365760 274320 0 274320 Z"></path><g id="editor-gba5bd53d5_0_25-bg"><g><g></g><g><path fill="#000000" fill-opacity="1" d="M 0 0 L 365760 0 365760 274320 0 274320 Z"></path></g><g></g></g></g><g id="editor-gb9563dfae_0_1"></g><g id="editor-gb9563dfae_0_2"></g><g id="editor-gb9563dfae_0_3"></g><g id="editor-gb9563dfae_0_5"></g><g id="editor-gb9563dfae_0_6"></g><g id="editor-gb9563dfae_0_7"></g><g id="editor-gba5bd53d5_0_26"><g><g></g><g><path stroke="#FFFFFF" stroke-opacity="1" stroke-width="762" stroke-linecap="butt" stroke-linejoin="round" stroke-miterlimit="8" d="M 133812.703125 65381.29296875 L 133812.703125 161993.29581832886"></path></g><g><path stroke="#000" stroke-opacity="0" stroke-width="3882.8025477707006" stroke-linecap="round" stroke-linejoin="round" stroke-miterlimit="10" pointer-events="visiblePainted" d="M 133812.703125 65381.29296875 L 133812.703125 161993.29581832886"></path></g></g></g><g id="editor-gba5bd53d5_0_27"><g><g></g><g><path stroke="#FFFFFF" stroke-opacity="1" stroke-width="762" stroke-linecap="butt" stroke-linejoin="round" stroke-miterlimit="8" d="M 133722.640625 161996.3125 L 154830.64030742645 252080.31213378906"></path></g><g><path stroke="#000" stroke-opacity="0" stroke-width="3882.8025477707006" stroke-linecap="round" stroke-linejoin="round" stroke-miterlimit="10" pointer-events="visiblePainted" d="M 133722.640625 161996.3125 L 154830.64030742645 252080.31213378906"></path></g></g></g><g id="editor-gba5bd53d5_0_28"><g><g></g><g><path stroke="#FFFFFF" stroke-opacity="1" stroke-width="762" stroke-linecap="butt" stroke-linejoin="round" stroke-miterlimit="8" d="M 134025.578125 162690.0625 L 112797.5781993866 253278.05993652344"></path></g><g><path stroke="#000" stroke-opacity="0" stroke-width="3882.8025477707006" stroke-linecap="round" stroke-linejoin="round" stroke-miterlimit="10" pointer-events="visiblePainted" d="M 134025.578125 162690.0625 L 112797.5781993866 253278.05993652344"></path></g></g></g><g id="editor-gba5bd53d5_0_29"><g><g></g><g><path stroke="#FFFFFF" stroke-opacity="1" stroke-width="762" stroke-linecap="butt" stroke-linejoin="round" stroke-miterlimit="8" d="M 133809.640625 72303.59375 L 215433.63831329346 31599.594945907593"></path></g><g><path stroke="#000" stroke-opacity="0" stroke-width="3882.8025477707006" stroke-linecap="round" stroke-linejoin="round" stroke-miterlimit="10" pointer-events="visiblePainted" d="M 133809.640625 72303.59375 L 215433.63831329346 31599.594945907593"></path></g></g></g><g id="editor-gba5bd53d5_0_30"><g><g></g><g><path stroke="#FFFFFF" stroke-opacity="1" stroke-width="762" stroke-linecap="butt" stroke-linejoin="round" stroke-miterlimit="8" d="M 134112.5625 72649.8828125 L 66264.56197357178 28237.883825302117"></path></g><g><path stroke="#000" stroke-opacity="0" stroke-width="3882.8025477707006" stroke-linecap="round" stroke-linejoin="round" stroke-miterlimit="10" pointer-events="visiblePainted" d="M 134112.5625 72649.8828125 L 66264.56197357178 28237.883825302117"></path></g></g></g><g id="editor-gba5bd53d5_0_31"><g><g></g><g><path stroke="#FFFFFF" stroke-opacity="1" stroke-width="762" stroke-linecap="butt" stroke-linejoin="round" stroke-miterlimit="8" d="M 114421.328125 43216.76629734039 C 114421.328125 30972.613022268357 123103.42191811741 21046.765625 133813.32736968994 21046.765624999996 138956.4053403377 21046.765624999996 143888.83622715843 23382.526846736968 147525.5415363746 27540.208483018174 151162.24684559077 31697.890119299387 153205.32661437988 37336.91653928194 153205.32661437988 43216.76629734039 153205.32661437988 55460.91957241242 144523.23282126247 65386.766969680786 133813.32736968994 65386.766969680786 123103.42191811743 65386.766969680786 114421.328125 55460.91957241243 114421.328125 43216.76629734039 Z"></path></g><g><path fill="#000" fill-opacity="0" stroke="#000" stroke-opacity="0" stroke-width="3882.8025477707006" stroke-linecap="round" stroke-linejoin="round" stroke-miterlimit="10" pointer-events="visiblePainted" d="M 114421.328125 43216.76629734039 C 114421.328125 30972.613022268357 123103.42191811741 21046.765625 133813.32736968994 21046.765624999996 138956.4053403377 21046.765624999996 143888.83622715843 23382.526846736968 147525.5415363746 27540.208483018174 151162.24684559077 31697.890119299387 153205.32661437988 37336.91653928194 153205.32661437988 43216.76629734039 153205.32661437988 55460.91957241242 144523.23282126247 65386.766969680786 133813.32736968994 65386.766969680786 123103.42191811743 65386.766969680786 114421.328125 55460.91957241243 114421.328125 43216.76629734039 Z"></path></g><g></g></g></g><g id="editor-gba5bd53d5_0_32"><g><g></g><g><path fill="#FFFFFF" fill-opacity="1" stroke="#FFFFFF" stroke-opacity="1" stroke-width="762" stroke-linecap="butt" stroke-linejoin="round" stroke-miterlimit="8" d="M 140671.00029468536 50929.00025320053 C 140671.00029468536 56025.4837848003 137734.88361810814 60157 134113.00014734268 60157 130491.11667657722 60157 127555 56025.4837848003 127555 50929.00025320053 129103.13383122651 53833.58056866123 131532.7770952985 55543.00012660027 134113.00014734268 55543.00012660027 136693.22319938688 55543.00012660027 139122.86646345886 53833.58056866123 140671.00029468536 50929.00025320054 Z"></path></g><g><path fill="#000" fill-opacity="0" stroke="#000" stroke-opacity="0" stroke-width="3882.8025477707006" stroke-linecap="round" stroke-linejoin="round" stroke-miterlimit="10" pointer-events="visiblePainted" d="M 140671.00029468536 50929.00025320053 C 140671.00029468536 56025.4837848003 137734.88361810814 60157 134113.00014734268 60157 130491.11667657722 60157 127555 56025.4837848003 127555 50929.00025320053 129103.13383122651 53833.58056866123 131532.7770952985 55543.00012660027 134113.00014734268 55543.00012660027 136693.22319938688 55543.00012660027 139122.86646345886 53833.58056866123 140671.00029468536 50929.00025320054 Z"></path></g><g></g></g></g><g id="editor-gba5bd53d5_0_33"><g><g></g><g><path fill="#FFFFFF" fill-opacity="1" stroke="#FFFFFF" stroke-opacity="1" stroke-width="762" stroke-linecap="butt" stroke-linejoin="round" stroke-miterlimit="8" d="M 122059 34531.00005364418 C 122059 33785.415611745746 122663.41561174575 33181 123409.00005364418 33181 123767.04232915488 33181 124110.4201252131 33323.23174014509 124363.59424617818 33576.40586111018 124616.76836714326 33829.57998207526 124759.00010728836 34172.957778133474 124759.00010728836 34531.00005364418 124759.00010728836 35276.584495542615 124154.58449554261 35881.00010728836 123409.00005364418 35881.00010728836 122663.41561174575 35881.00010728836 122059 35276.584495542615 122059 34531.00005364418 Z"></path></g><g><path fill="#000" fill-opacity="0" stroke="#000" stroke-opacity="0" stroke-width="3882.8025477707006" stroke-linecap="round" stroke-linejoin="round" stroke-miterlimit="10" pointer-events="visiblePainted" d="M 122059 34531.00005364418 C 122059 33785.415611745746 122663.41561174575 33181 123409.00005364418 33181 123767.04232915488 33181 124110.4201252131 33323.23174014509 124363.59424617818 33576.40586111018 124616.76836714326 33829.57998207526 124759.00010728836 34172.957778133474 124759.00010728836 34531.00005364418 124759.00010728836 35276.584495542615 124154.58449554261 35881.00010728836 123409.00005364418 35881.00010728836 122663.41561174575 35881.00010728836 122059 35276.584495542615 122059 34531.00005364418 Z"></path></g><g></g></g></g><g id="editor-gba5bd53d5_0_34"><g><g></g><g><path fill="#FFFFFF" fill-opacity="1" stroke="#FFFFFF" stroke-opacity="1" stroke-width="762" stroke-linecap="butt" stroke-linejoin="round" stroke-miterlimit="8" d="M 142928 34531.00005364418 C 142928 33785.415611745746 143532.41561174576 33181 144278.00005364418 33181 144636.04232915488 33181 144979.4201252131 33323.23174014509 145232.5942461782 33576.40586111018 145485.76836714326 33829.57998207526 145628.00010728836 34172.957778133474 145628.00010728836 34531.00005364418 145628.00010728836 35276.584495542615 145023.5844955426 35881.00010728836 144278.00005364418 35881.00010728836 143532.41561174576 35881.00010728836 142928 35276.584495542615 142928 34531.00005364418 Z"></path></g><g><path fill="#000" fill-opacity="0" stroke="#000" stroke-opacity="0" stroke-width="3882.8025477707006" stroke-linecap="round" stroke-linejoin="round" stroke-miterlimit="10" pointer-events="visiblePainted" d="M 142928 34531.00005364418 C 142928 33785.415611745746 143532.41561174576 33181 144278.00005364418 33181 144636.04232915488 33181 144979.4201252131 33323.23174014509 145232.5942461782 33576.40586111018 145485.76836714326 33829.57998207526 145628.00010728836 34172.957778133474 145628.00010728836 34531.00005364418 145628.00010728836 35276.584495542615 145023.5844955426 35881.00010728836 144278.00005364418 35881.00010728836 143532.41561174576 35881.00010728836 142928 35276.584495542615 142928 34531.00005364418 Z"></path></g><g></g></g></g><g id="editor-gba5bd53d5_0_35"><g><g></g><g><path stroke="#FFD966" stroke-opacity="1" stroke-width="762" stroke-linecap="butt" stroke-linejoin="round" stroke-miterlimit="8" d="M 356319.31760931015 113659.11190800666 L 329603.8775037049 130818.95527590644 C 322367.6925525541 166348.38497939112 285391.0029860725 195824.48903911075 244178.58987652118 198916.03743636186 202966.17676696987 202007.58583361295 171005.5644785592 177702.81218091852 170341.67993439143 142766.0060426083 169677.7953902237 107829.19990429806 200527.90708512557 73694.07720342599 241613.05916723228 63905.439856215846 282698.211249339 54116.80250900565 320572.52787921135 71878.16311642952 329112.08706081385 104938.57062935788 Z"></path></g><g><path fill="#000" fill-opacity="0" stroke="#000" stroke-opacity="0" stroke-width="3882.8025477707006" stroke-linecap="round" stroke-linejoin="round" stroke-miterlimit="10" pointer-events="visiblePainted" d="M 356319.31760931015 113659.11190800666 L 329603.8775037049 130818.95527590644 C 322367.6925525541 166348.38497939112 285391.0029860725 195824.48903911075 244178.58987652118 198916.03743636186 202966.17676696987 202007.58583361295 171005.5644785592 177702.81218091852 170341.67993439143 142766.0060426083 169677.7953902237 107829.19990429806 200527.90708512557 73694.07720342599 241613.05916723228 63905.439856215846 282698.211249339 54116.80250900565 320572.52787921135 71878.16311642952 329112.08706081385 104938.57062935788 Z"></path></g><g><g direction="ltr" style="opacity: 1;"><g transform="matrix(-153.62223251468097,-348.65629160708585,348.6616585137801,-153.61005194839967,264084.81414363865,171235.38212942806)"><g pointer-events="none"><g id="editor-gba5bd53d5_0_35-paragraph-0"><g><g class="sketchy-text-background" visibility="visible"></g><g class="sketchy-text-content" visibility="visible"><g class="sketchy-text-content-text" transform="translate(0 17.919999999999998)"><text x="0px" style="font-family:Arial;font-size:18.666666666666664px;fill:#000000;" y="0px" text-rendering="geometricPrecision">c</text></g></g></g></g></g><rect style="opacity: 0;"></rect><rect style="opacity: 1;"></rect></g><g><path d="M 264084.81414363865 171235.38212942806 L 262651.5207770752 167982.42361039802 270461.54192778387 164541.5584467539 271894.8352943473 167794.5169657839 Z" pointer-events="visiblePainted" fill="#000000" stroke="#000000" opacity="0"></path></g><g transform="matrix(-153.62223251468097,-348.65629160708585,348.6616585137801,-153.61005194839967,264084.81414363865,171235.38212942806)"></g></g></g></g></g><g id="editor-gba5bd53d5_0_36"><g><g></g><g><path d="M 192010 94811 L 310833.99797439575 94811 310833.99797439575 169391.0018310547 192010 169391.0018310547 Z"></path></g><g><path fill="#000" fill-opacity="0" stroke="#000" stroke-opacity="0" stroke-width="3882.8025477707006" stroke-linecap="round" stroke-linejoin="round" stroke-miterlimit="10" pointer-events="visiblePainted" d="M 192010 94811 L 310833.99797439575 94811 310833.99797439575 169391.0018310547 192010 169391.0018310547 Z"></path></g><g><g direction="ltr" style="opacity: 1;"><g transform="matrix(381,0,0,381,195667,98468)"><g pointer-events="none"><g id="editor-gba5bd53d5_0_36-paragraph-0"><g><g class="sketchy-text-background" visibility="visible"></g><g class="sketchy-text-content" visibility="visible"><g class="sketchy-text-content-text" transform="translate(0 122.88)"><text x="46.74483001889206px" style="font-family:Arial;font-size:128px;fill:#CCCCCC;" y="0px" text-rendering="geometricPrecision">No.</text></g></g></g></g></g><rect style="opacity: 0;"></rect><rect style="opacity: 1;"></rect></g><g><path d="M 213476.78023719788 98468 L 289367.2177371979 98468 289367.2177371979 156989.6 213476.78023719788 156989.6 Z" pointer-events="visiblePainted" fill="#000000" stroke="#000000" opacity="0"></path></g><g transform="matrix(381,0,0,381,195667,98468)"></g></g></g></g></g></g></g></svg>