<svg xmlns="http://www.w3.org/2000/svg" xmlns:xlink="http://www.w3.org/1999/xlink" version="1.1" fill-rule="evenodd" fill="none" stroke="none" stroke-linecap="square" stroke-miterlimit="10" overflow="hidden" viewBox="6858 13335 358140 268605"><rect fill="#ffffff" fill-opacity="0" width="100%" height="100%"></rect><g transform="translate(6858 13335) scale(0.98125)"><defs cursor="default"></defs><g id="editor-gba5bd53d5_0_39"><g></g><path fill="#fff" fill-opacity="1" d="M 0 0 L 365760 0 365760 274320 0 274320 Z"></path><g id="editor-gba5bd53d5_0_39-bg"><g><g></g><g><path fill="#000000" fill-opacity="1" d="M 0 0 L 365760 0 365760 274320 0 274320 Z"></path></g><g></g></g></g><g id="editor-gb9563dfae_0_1"></g><g id="editor-gb9563dfae_0_2"></g><g id="editor-gb9563dfae_0_3"></g><g id="editor-gb9563dfae_0_5"></g><g id="editor-gb9563dfae_0_6"></g><g id="editor-gb9563dfae_0_7"></g><g id="editor-gba5bd53d5_0_40"><g><g></g><g><path stroke="#FFFFFF" stroke-opacity="1" stroke-width="762" stroke-linecap="butt" stroke-linejoin="round" stroke-miterlimit="8" d="M 133812.703125 65381.29296875 L 133812.703125 161993.29581832886"></path></g><g><path stroke="#000" stroke-opacity="0" stroke-width="3882.8025477707006" stroke-linecap="round" stroke-linejoin="round" stroke-miterlimit="10" pointer-events="visiblePainted" d="M 133812.703125 65381.29296875 L 133812.703125 161993.29581832886"></path></g></g></g><g id="editor-gba5bd53d5_0_41"><g><g></g><g><path stroke="#FFFFFF" stroke-opacity="1" stroke-width="762" stroke-linecap="butt" stroke-linejoin="round" stroke-miterlimit="8" d="M 133722.640625 161996.3125 L 154830.64030742645 252080.31213378906"></path></g><g><path stroke="#000" stroke-opacity="0" stroke-width="3882.8025477707006" stroke-linecap="round" stroke-linejoin="round" stroke-miterlimit="10" pointer-events="visiblePainted" d="M 133722.640625 161996.3125 L 154830.64030742645 252080.31213378906"></path></g></g></g><g id="editor-gba5bd53d5_0_42"><g><g></g><g><path stroke="#FFFFFF" stroke-opacity="1" stroke-width="762" stroke-linecap="butt" stroke-linejoin="round" stroke-miterlimit="8" d="M 134025.578125 162690.0625 L 112797.5781993866 253278.05993652344"></path></g><g><path stroke="#000" stroke-opacity="0" stroke-width="3882.8025477707006" stroke-linecap="round" stroke-linejoin="round" stroke-miterlimit="10" pointer-events="visiblePainted" d="M 134025.578125 162690.0625 L 112797.5781993866 253278.05993652344"></path></g></g></g><g id="editor-gba5bd53d5_0_43"><g><g></g><g><path stroke="#FFFFFF" stroke-opacity="1" stroke-width="762" stroke-linecap="butt" stroke-linejoin="round" stroke-miterlimit="8" d="M 133809.640625 72303.59375 L 215433.63831329346 31599.594945907593"></path></g><g><path stroke="#000" stroke-opacity="0" stroke-width="3882.8025477707006" stroke-linecap="round" stroke-linejoin="round" stroke-miterlimit="10" pointer-events="visiblePainted" d="M 133809.640625 72303.59375 L 215433.63831329346 31599.594945907593"></path></g></g></g><g id="editor-gba5bd53d5_0_44"><g><g></g><g><path stroke="#FFFFFF" stroke-opacity="1" stroke-width="762" stroke-linecap="butt" stroke-linejoin="round" stroke-miterlimit="8" d="M 134112.5625 72649.8828125 L 66264.56197357178 28237.883825302117"></path></g><g><path stroke="#000" stroke-opacity="0" stroke-width="3882.8025477707006" stroke-linecap="round" stroke-linejoin="round" stroke-miterlimit="10" pointer-events="visiblePainted" d="M 134112.5625 72649.8828125 L 66264.56197357178 28237.883825302117"></path></g></g></g><g id="editor-gba5bd53d5_0_45"><g><g></g><g><path stroke="#FFFFFF" stroke-opacity="1" stroke-width="762" stroke-linecap="butt" stroke-linejoin="round" stroke-miterlimit="8" d="M 114421.328125 43216.76629734039 C 114421.328125 30972.613022268357 123103.42191811741 21046.765625 133813.32736968994 21046.765624999996 138956.4053403377 21046.765624999996 143888.83622715843 23382.526846736968 147525.5415363746 27540.208483018174 151162.24684559077 31697.890119299387 153205.32661437988 37336.91653928194 153205.32661437988 43216.76629734039 153205.32661437988 55460.91957241242 144523.23282126247 65386.766969680786 133813.32736968994 65386.766969680786 123103.42191811743 65386.766969680786 114421.328125 55460.91957241243 114421.328125 43216.76629734039 Z"></path></g><g><path fill="#000" fill-opacity="0" stroke="#000" stroke-opacity="0" stroke-width="3882.8025477707006" stroke-linecap="round" stroke-linejoin="round" stroke-miterlimit="10" pointer-events="visiblePainted" d="M 114421.328125 43216.76629734039 C 114421.328125 30972.613022268357 123103.42191811741 21046.765625 133813.32736968994 21046.765624999996 138956.4053403377 21046.765624999996 143888.83622715843 23382.526846736968 147525.5415363746 27540.208483018174 151162.24684559077 31697.890119299387 153205.32661437988 37336.91653928194 153205.32661437988 43216.76629734039 153205.32661437988 55460.91957241242 144523.23282126247 65386.766969680786 133813.32736968994 65386.766969680786 123103.42191811743 65386.766969680786 114421.328125 55460.91957241243 114421.328125 43216.76629734039 Z"></path></g><g></g></g></g><g id="editor-gba5bd53d5_0_46"><g><g></g><g><path fill="#FFFFFF" fill-opacity="1" stroke="#FFFFFF" stroke-opacity="1" stroke-width="762" stroke-linecap="butt" stroke-linejoin="round" stroke-miterlimit="8" d="M 140671.00029468536 55452.99994421005 C 140671.00029468536 58050.94743822604 137734.88361810814 60157 134113.00014734268 60157 130491.11667657722 60157 127555 58050.947438226045 127555 55452.99994421005 129103.13383122651 56933.61831664902 131532.7770952985 57804.999972105026 134113.00014734268 57804.999972105026 136693.22319938685 57804.999972105026 139122.86646345883 56933.61831664903 140671.00029468536 55452.99994421006 Z"></path></g><g><path fill="#000" fill-opacity="0" stroke="#000" stroke-opacity="0" stroke-width="3882.8025477707006" stroke-linecap="round" stroke-linejoin="round" stroke-miterlimit="10" pointer-events="visiblePainted" d="M 140671.00029468536 55452.99994421005 C 140671.00029468536 58050.94743822604 137734.88361810814 60157 134113.00014734268 60157 130491.11667657722 60157 127555 58050.947438226045 127555 55452.99994421005 129103.13383122651 56933.61831664902 131532.7770952985 57804.999972105026 134113.00014734268 57804.999972105026 136693.22319938685 57804.999972105026 139122.86646345883 56933.61831664903 140671.00029468536 55452.99994421006 Z"></path></g><g></g></g></g><g id="editor-gba5bd53d5_0_47"><g><g></g><g><path fill="#FFFFFF" fill-opacity="1" stroke="#FFFFFF" stroke-opacity="1" stroke-width="762" stroke-linecap="butt" stroke-linejoin="round" stroke-miterlimit="8" d="M 122059 34530.99999986589 C 122059 34776.21442886483 122663.41561174575 34975 123409.00005364418 34975 124154.58449554261 34975 124759.00010728836 34776.21442886483 124759.00010728836 34530.99999986589 124759.00010728836 34285.78557086695 124154.58449554261 34086.99999973178 123409.00005364418 34086.99999973178 122663.41561174575 34086.99999973178 122059 34285.78557086695 122059 34530.99999986589 Z"></path></g><g><path fill="#000" fill-opacity="0" stroke="#000" stroke-opacity="0" stroke-width="3882.8025477707006" stroke-linecap="round" stroke-linejoin="round" stroke-miterlimit="10" pointer-events="visiblePainted" d="M 122059 34530.99999986589 C 122059 34776.21442886483 122663.41561174575 34975 123409.00005364418 34975 124154.58449554261 34975 124759.00010728836 34776.21442886483 124759.00010728836 34530.99999986589 124759.00010728836 34285.78557086695 124154.58449554261 34086.99999973178 123409.00005364418 34086.99999973178 122663.41561174575 34086.99999973178 122059 34285.78557086695 122059 34530.99999986589 Z"></path></g><g></g></g></g><g id="editor-gba5bd53d5_0_48"><g><g></g><g><path fill="#FFFFFF" fill-opacity="1" stroke="#FFFFFF" stroke-opacity="1" stroke-width="762" stroke-linecap="butt" stroke-linejoin="round" stroke-miterlimit="8" d="M 142928 34530.99999986589 C 142928 34776.21442886483 143532.41561174576 34975 144278.00005364418 34975 145023.5844955426 34975 145628.00010728836 34776.21442886483 145628.00010728836 34530.99999986589 145628.00010728836 34285.78557086695 145023.5844955426 34086.99999973178 144278.00005364418 34086.99999973178 143532.41561174576 34086.99999973178 142928 34285.78557086695 142928 34530.99999986589 Z"></path></g><g><path fill="#000" fill-opacity="0" stroke="#000" stroke-opacity="0" stroke-width="3882.8025477707006" stroke-linecap="round" stroke-linejoin="round" stroke-miterlimit="10" pointer-events="visiblePainted" d="M 142928 34530.99999986589 C 142928 34776.21442886483 143532.41561174576 34975 144278.00005364418 34975 145023.5844955426 34975 145628.00010728836 34776.21442886483 145628.00010728836 34530.99999986589 145628.00010728836 34285.78557086695 145023.5844955426 34086.99999973178 144278.00005364418 34086.99999973178 143532.41561174576 34086.99999973178 142928 34285.78557086695 142928 34530.99999986589 Z"></path></g><g></g></g></g></g></g></svg>