<svg xmlns="http://www.w3.org/2000/svg" xmlns:xlink="http://www.w3.org/1999/xlink" version="1.1" fill-rule="evenodd" fill="none" stroke="none" stroke-linecap="square" stroke-miterlimit="10" overflow="hidden" viewBox="6858 13335 358140 268605"><rect fill="#ffffff" fill-opacity="0" width="100%" height="100%"></rect><g transform="translate(6858 13335) scale(0.98125)"><defs cursor="default"></defs><g id="editor-gba5bd53d5_0_53"><g></g><path fill="#fff" fill-opacity="1" d="M 0 0 L 365760 0 365760 274320 0 274320 Z"></path><g id="editor-gba5bd53d5_0_53-bg"><g><g></g><g><path fill="#000000" fill-opacity="1" d="M 0 0 L 365760 0 365760 274320 0 274320 Z"></path></g><g></g></g></g><g id="editor-gb9563dfae_0_1"></g><g id="editor-gb9563dfae_0_2"></g><g id="editor-gb9563dfae_0_3"></g><g id="editor-gb9563dfae_0_5"></g><g id="editor-gb9563dfae_0_6"></g><g id="editor-gb9563dfae_0_7"></g><g id="editor-gba5bd53d5_0_55"><g><g></g><g><path stroke="#FFFFFF" stroke-opacity="1" stroke-width="762" stroke-linecap="butt" stroke-linejoin="round" stroke-miterlimit="8" d="M 100530.328125 161179.328125 L 111006.32843399048 242719.3261795044"></path></g><g><path stroke="#000" stroke-opacity="0" stroke-width="3882.8025477707006" stroke-linecap="round" stroke-linejoin="round" stroke-miterlimit="10" pointer-events="visiblePainted" d="M 100530.328125 161179.328125 L 111006.32843399048 242719.3261795044"></path></g></g></g><g id="editor-gba5bd53d5_0_56"><g><g></g><g><path stroke="#FFFFFF" stroke-opacity="1" stroke-width="762" stroke-linecap="butt" stroke-linejoin="round" stroke-miterlimit="8" d="M 100833.265625 161873.078125 L 61197.26523017883 241901.0756187439"></path></g><g><path stroke="#000" stroke-opacity="0" stroke-width="3882.8025477707006" stroke-linecap="round" stroke-linejoin="round" stroke-miterlimit="10" pointer-events="visiblePainted" d="M 100833.265625 161873.078125 L 61197.26523017883 241901.0756187439"></path></g></g></g><g id="editor-gba5bd53d5_0_57"><g><g></g><g><path stroke="#FFFFFF" stroke-opacity="1" stroke-width="762" stroke-linecap="butt" stroke-linejoin="round" stroke-miterlimit="8" d="M 92880.40625 75806.2109375 L 77484.4066991806 147614.21054840088"></path></g><g><path stroke="#000" stroke-opacity="0" stroke-width="3882.8025477707006" stroke-linecap="round" stroke-linejoin="round" stroke-miterlimit="10" pointer-events="visiblePainted" d="M 92880.40625 75806.2109375 L 77484.4066991806 147614.21054840088"></path></g></g></g><g id="editor-gba5bd53d5_0_58"><g><g></g><g><path stroke="#FFFFFF" stroke-opacity="1" stroke-width="762" stroke-linecap="butt" stroke-linejoin="round" stroke-miterlimit="8" d="M 93183.328125 76152.5 L 83439.32769012451 147900.4968070984"></path></g><g><path stroke="#000" stroke-opacity="0" stroke-width="3882.8025477707006" stroke-linecap="round" stroke-linejoin="round" stroke-miterlimit="10" pointer-events="visiblePainted" d="M 93183.328125 76152.5 L 83439.32769012451 147900.4968070984"></path></g></g></g><g id="editor-gba5bd53d5_0_59"><g><g></g><g><path stroke="#FFFFFF" stroke-opacity="1" stroke-width="762" stroke-linecap="butt" stroke-linejoin="round" stroke-miterlimit="8" d="M 51972.31989336014 68797.64454555511 C 46531.210769511716 57829.26940601506 49899.8208939646 45080.12988391471 59496.32119369506 40321.64441537857 64104.72315485444 38036.539108190045 69562.35251664318 37937.41261634451 74668.59311567844 40046.071636566834 79774.83371471368 42154.73065678916 84111.40890901389 46298.44482180495 86724.32165575027 51565.644313812256 92165.4307795987 62534.0194533523 88796.82065514581 75283.15897545266 79200.32035541534 80041.6444439888 69603.82005568489 84800.12991252495 57413.42901720856 79766.01968509518 51972.31989336014 68797.64454555511 Z"></path></g><g><path fill="#000" fill-opacity="0" stroke="#000" stroke-opacity="0" stroke-width="3882.8025477707006" stroke-linecap="round" stroke-linejoin="round" stroke-miterlimit="10" pointer-events="visiblePainted" d="M 51972.31989336014 68797.64454555511 C 46531.210769511716 57829.26940601506 49899.8208939646 45080.12988391471 59496.32119369506 40321.64441537857 64104.72315485444 38036.539108190045 69562.35251664318 37937.41261634451 74668.59311567844 40046.071636566834 79774.83371471368 42154.73065678916 84111.40890901389 46298.44482180495 86724.32165575027 51565.644313812256 92165.4307795987 62534.0194533523 88796.82065514581 75283.15897545266 79200.32035541534 80041.6444439888 69603.82005568489 84800.12991252495 57413.42901720856 79766.01968509518 51972.31989336014 68797.64454555511 Z"></path></g><g></g></g></g><g id="editor-gba5bd53d5_0_61"><g><g></g><g><path fill="#FFFFFF" fill-opacity="1" stroke="#FFFFFF" stroke-opacity="1" stroke-width="762" stroke-linecap="butt" stroke-linejoin="round" stroke-miterlimit="8" d="M 54954.152330338955 63723.28901529312 C 54622.7814878472 63053.91992456984 54896.78320581984 62242.65991840281 55566.15229654312 61911.289075911045 55887.594669708604 61752.159185564145 56259.08570294121 61727.23932678524 56598.90160932098 61842.01158405749 56938.71751570075 61956.783841329736 57219.0223455783 62201.84666894973 57378.1522359252 62523.28904211521 57709.523078416954 63192.65813283849 57435.52136044431 64003.91813900553 56766.15226972103 64335.28898149729 56096.78317899775 64666.659823989045 55285.52317283072 64392.6581060164 54954.152330338955 63723.28901529312 Z"></path></g><g><path fill="#000" fill-opacity="0" stroke="#000" stroke-opacity="0" stroke-width="3882.8025477707006" stroke-linecap="round" stroke-linejoin="round" stroke-miterlimit="10" pointer-events="visiblePainted" d="M 54954.152330338955 63723.28901529312 C 54622.7814878472 63053.91992456984 54896.78320581984 62242.65991840281 55566.15229654312 61911.289075911045 55887.594669708604 61752.159185564145 56259.08570294121 61727.23932678524 56598.90160932098 61842.01158405749 56938.71751570075 61956.783841329736 57219.0223455783 62201.84666894973 57378.1522359252 62523.28904211521 57709.523078416954 63192.65813283849 57435.52136044431 64003.91813900553 56766.15226972103 64335.28898149729 56096.78317899775 64666.659823989045 55285.52317283072 64392.6581060164 54954.152330338955 63723.28901529312 Z"></path></g><g></g></g></g><g id="editor-gba5bd53d5_0_62"><g><g></g><g><path fill="#FFFFFF" fill-opacity="1" stroke="#FFFFFF" stroke-opacity="1" stroke-width="762" stroke-linecap="butt" stroke-linejoin="round" stroke-miterlimit="8" d="M 64138.687486588955 62453.19135904312 C 63807.3166440972 61783.82226831984 64081.31836206984 60972.56226215281 64750.68745279312 60641.191419661045 65072.129825958604 60482.061529314145 65443.62085919121 60457.14167053524 65783.43676557098 60571.91392780749 66123.25267195076 60686.686185079736 66403.5575018283 60931.74901269973 66562.6873921752 61253.19138586521 66894.05823466695 61922.56047658849 66620.05651669431 62733.82048275553 65950.68742597103 63065.19132524729 65281.31833524775 63396.562167739045 64470.05832908072 63122.5604497664 64138.687486588955 62453.19135904312 Z"></path></g><g><path fill="#000" fill-opacity="0" stroke="#000" stroke-opacity="0" stroke-width="3882.8025477707006" stroke-linecap="round" stroke-linejoin="round" stroke-miterlimit="10" pointer-events="visiblePainted" d="M 64138.687486588955 62453.19135904312 C 63807.3166440972 61783.82226831984 64081.31836206984 60972.56226215281 64750.68745279312 60641.191419661045 65072.129825958604 60482.061529314145 65443.62085919121 60457.14167053524 65783.43676557098 60571.91392780749 66123.25267195076 60686.686185079736 66403.5575018283 60931.74901269973 66562.6873921752 61253.19138586521 66894.05823466695 61922.56047658849 66620.05651669431 62733.82048275553 65950.68742597103 63065.19132524729 65281.31833524775 63396.562167739045 64470.05832908072 63122.5604497664 64138.687486588955 62453.19135904312 Z"></path></g><g></g></g></g><g id="editor-gba5bd53d5_0_70"><g><g></g><g><path stroke="#FFFFFF" stroke-opacity="1" stroke-width="762" stroke-linecap="butt" stroke-linejoin="round" stroke-miterlimit="8" d="M 88252 71635 C 92501.97084384963 75886.98887369002 96973.81919969256 80380.37254300382 99207 85962 103913.26339011507 97724.86709723897 101736 111216.58969626272 101736 123886 101736 136390.15778851177 104844.34608594734 149525.57612200134 100893 161389"></path></g><g><path stroke="#000" stroke-opacity="0" stroke-width="3882.8025477707006" stroke-linecap="round" stroke-linejoin="round" stroke-miterlimit="10" pointer-events="visiblePainted" d="M 88252 71635 C 92501.97084384963 75886.98887369002 96973.81919969256 80380.37254300382 99207 85962 103913.26339011507 97724.86709723897 101736 111216.58969626272 101736 123886 101736 136390.15778851177 104844.34608594734 149525.57612200134 100893 161389"></path></g></g></g><g id="editor-gba5bd53d5_0_71"><g><g></g><g><path stroke="#FFFFFF" stroke-opacity="1" stroke-width="762" stroke-linecap="butt" stroke-linejoin="round" stroke-miterlimit="8" d="M 60019 75849.3828125 C 63789.45996806806 73963.03399761491 69678.83577924478 73289.21859174478 72660 76270.3828125"></path></g><g><path stroke="#000" stroke-opacity="0" stroke-width="3882.8025477707006" stroke-linecap="round" stroke-linejoin="round" stroke-miterlimit="10" pointer-events="visiblePainted" d="M 60019 75849.3828125 C 63789.45996806806 73963.03399761491 69678.83577924478 73289.21859174478 72660 76270.3828125"></path></g></g></g></g></g></svg>