<svg xmlns="http://www.w3.org/2000/svg" xmlns:xlink="http://www.w3.org/1999/xlink" version="1.1" fill-rule="evenodd" fill="none" stroke="none" stroke-linecap="square" stroke-miterlimit="10" overflow="hidden" viewBox="6858 13335 358140 268605"><rect fill="#ffffff" fill-opacity="0" width="100%" height="100%"></rect><g transform="translate(6858 13335) scale(0.98125)"><defs cursor="default"><radialGradient gradientUnits="userSpaceOnUse" gradientTransform="matrix(478.1213235152768,0,0,478.1213235152768,0,0)" cx="382.4970588122215" cy="286.87279410916614" r="478.12132351527686" id="gradient-24988"><stop offset="0%" stop-color="#FFFFFF" stop-opacity="1"></stop><stop offset="30%" stop-color="#FFFFFF" stop-opacity="1"></stop><stop offset="100%" stop-color="#CCCCCC" stop-opacity="1"></stop></radialGradient></defs><g id="editor-gba5bd53d5_0_80"><g></g><path fill="#fff" fill-opacity="1" d="M 0 0 L 365760 0 365760 274320 0 274320 Z"></path><g id="editor-gba5bd53d5_0_80-bg"><g><g></g><g><g><path fill="url(#gradient-24988)" d="M 0 0 L 365760 0 365760 274320 0 274320 Z"></path></g><g></g></g><g></g></g></g><g id="editor-gb9563dfae_0_1"></g><g id="editor-gb9563dfae_0_2"></g><g id="editor-gb9563dfae_0_3"></g><g id="editor-gb9563dfae_0_5"></g><g id="editor-gb9563dfae_0_6"></g><g id="editor-gb9563dfae_0_7"></g><g id="editor-gba5bd53d5_0_81"><g><g></g><g><path d="M 27432 194172.921875 L 338328.00563049316 194172.921875 338328.00563049316 256032.92296218872 27432 256032.92296218872 Z"></path></g><g></g><g><path fill="#000" fill-opacity="0" stroke="#000" stroke-opacity="0" stroke-width="3882.8025477707006" stroke-linecap="round" stroke-linejoin="round" stroke-miterlimit="10" pointer-events="visiblePainted" d="M 27432 194172.921875 L 338328.00563049316 194172.921875 338328.00563049316 256032.92296218872 27432 256032.92296218872 Z"></path></g><g><g direction="ltr" style="opacity: 1;"><g transform="matrix(380.99999999999994,0,0,381,31089,223038.92296218872)"><g pointer-events="none"><g id="editor-gba5bd53d5_0_81-paragraph-0"><g><g class="sketchy-text-background" visibility="visible"></g><g class="sketchy-text-content" visibility="visible"><g class="sketchy-text-content-text" transform="translate(0 61.44)"><text x="165.43283219224827px" style="font-family:Arial;font-size:64px;fill:#000000;font-weight:700;" y="0px" text-rendering="geometricPrecision">Historical</text><text x="474.87033219224827px" style="font-family:Arial;font-size:64px;fill:#000000;font-weight:700;" y="0px" text-rendering="geometricPrecision">State</text></g></g></g></g></g><rect style="opacity: 0;"></rect><rect style="opacity: 1;"></rect></g><g><path d="M 94118.90906524658 223038.92296218872 L 271641.0965652466 223038.92296218872 271641.0965652466 252299.7229621887 94118.90906524658 252299.7229621887 Z" pointer-events="visiblePainted" fill="#000000" stroke="#000000" opacity="0"></path></g><g transform="matrix(380.99999999999994,0,0,381,31089,223038.92296218872)"></g></g></g></g></g><g id="editor-gba5bd53d5_0_82"><g><g></g><g><path d="M 27432 151469.515625 L 338328.00563049316 151469.515625 338328.00563049316 193325.5160484314 27432 193325.5160484314 Z"></path></g><g></g><g><path fill="#000" fill-opacity="0" stroke="#000" stroke-opacity="0" stroke-width="3882.8025477707006" stroke-linecap="round" stroke-linejoin="round" stroke-miterlimit="10" pointer-events="visiblePainted" d="M 27432 151469.515625 L 338328.00563049316 151469.515625 338328.00563049316 193325.5160484314 27432 193325.5160484314 Z"></path></g><g><g direction="ltr" style="opacity: 1;"><g transform="matrix(381,0,0,381.0000000000005,31089,155126.515625)"><g pointer-events="none"><g id="editor-gba5bd53d5_0_82-paragraph-0"><g><g class="sketchy-text-background" visibility="visible"></g><g class="sketchy-text-content" visibility="visible"></g></g></g></g><rect style="opacity: 0;"></rect><rect style="opacity: 1;"></rect></g><g><path d="M 182880.00281524658 155126.515625 L 182880.00281524658 155126.515625 182880.00281524658 173414.51562500003 182880.00281524658 173414.51562500003 Z" pointer-events="visiblePainted" fill="#000000" stroke="#000000" opacity="0"></path></g><g transform="matrix(381,0,0,381.0000000000005,31089,155126.515625)"></g></g></g></g></g><g id="editor-gba5bd53d5_0_83"><g><g></g><g><path stroke="#666666" stroke-opacity="1" stroke-width="3048" stroke-linecap="butt" stroke-linejoin="round" stroke-miterlimit="8" d="M 56043.25390625 72020.29890625023 L 56043.25390625 202300.4625454712"></path><path fill="#666666" fill-opacity="1" stroke="#666666" stroke-opacity="1" stroke-width="3048" stroke-linecap="butt" stroke-linejoin="miter" stroke-miterlimit="10" d="M 56043.25390625 72020.29890625023 C 53274.1202619884 72020.29890625023 51029.29390625 69775.47255051184 51029.29390625 67006.33890625022 51029.29390625 64237.20526198862 53274.12026198839 61992.37890625023 56043.25390625 61992.37890625023 58812.3875505116 61992.37890625023 61057.21390625 64237.20526198862 61057.21390625 67006.33890625022 61057.21390625 69775.47255051184 58812.38755051161 72020.29890625023 56043.25390625 72020.29890625023"></path><path stroke="#666666" stroke-opacity="1" stroke-width="3048" stroke-linecap="butt" stroke-linejoin="miter" stroke-miterlimit="10" d="M 56043.25390625 202300.4625454712 C 58812.3875505116 202300.4625454712 61057.21390625 204545.2889012096 61057.21390625 207314.4225454712 61057.21390625 210083.5561897328 58812.38755051161 212328.3825454712 56043.25390625 212328.38254547122 53274.1202619884 212328.38254547122 51029.29390625 210083.5561897328 51029.29390625 207314.4225454712 51029.29390625 204545.2889012096 53274.12026198839 202300.4625454712 56043.25390625 202300.4625454712"></path></g><g><path stroke="#000" stroke-opacity="0" stroke-width="3882.8025477707006" stroke-linecap="round" stroke-linejoin="round" stroke-miterlimit="10" pointer-events="visiblePainted" d="M 56043.25390625 72020.29890625023 L 56043.25390625 202300.4625454712"></path></g></g></g><g id="editor-gba5bd53d5_0_84"><g><g></g><g><path stroke="#666666" stroke-opacity="1" stroke-width="762" stroke-linecap="butt" stroke-linejoin="round" stroke-miterlimit="8" stroke-dasharray="3048,2286" d="M 56043 66802 L 56043 11261.210349099456"></path><path fill="#666666" fill-opacity="1" stroke="#666666" stroke-opacity="1" stroke-width="762" stroke-linecap="butt" stroke-linejoin="miter" stroke-miterlimit="10" d="M 56043 11261.210349099456 L 56899.874409164455 12118.084758263907 56043 9764.034183636293 55186.125590835545 12118.084758263907 Z"></path></g><g><path stroke="#000" stroke-opacity="0" stroke-width="3882.8025477707006" stroke-linecap="round" stroke-linejoin="round" stroke-miterlimit="10" pointer-events="visiblePainted" d="M 56043 66802 L 56043 11261.210349099456"></path></g></g></g><g id="editor-gba5bd53d5_0_85"><g><g></g><g><path stroke="#666666" stroke-opacity="1" stroke-width="762" stroke-linecap="butt" stroke-linejoin="round" stroke-miterlimit="8" stroke-dasharray="3048,2286" d="M 56043 274741 L 56043 215480.20817472076"></path><path fill="#666666" fill-opacity="1" stroke="#666666" stroke-opacity="1" stroke-width="762" stroke-linecap="butt" stroke-linejoin="miter" stroke-miterlimit="10" d="M 56043 215480.20817472076 L 56899.874409164455 216337.0825838852 56043 213983.0320092576 55186.125590835545 216337.0825838852 Z"></path></g><g><path stroke="#000" stroke-opacity="0" stroke-width="3882.8025477707006" stroke-linecap="round" stroke-linejoin="round" stroke-miterlimit="10" pointer-events="visiblePainted" d="M 56043 274741 L 56043 215480.20817472076"></path></g></g></g></g></g></svg>