<svg xmlns="http://www.w3.org/2000/svg" xmlns:xlink="http://www.w3.org/1999/xlink" version="1.1" fill-rule="evenodd" fill="none" stroke="none" stroke-linecap="square" stroke-miterlimit="10" overflow="hidden" viewBox="6858 13335 358140 268605"><rect fill="#ffffff" fill-opacity="0" width="100%" height="100%"></rect><g transform="translate(6858 13335) scale(0.98125)"><defs cursor="default"><radialGradient gradientUnits="userSpaceOnUse" gradientTransform="matrix(478.1213235152768,0,0,478.1213235152768,0,0)" cx="382.4970588122215" cy="286.87279410916614" r="478.12132351527686" id="gradient-25320"><stop offset="0%" stop-color="#FFFFFF" stop-opacity="1"></stop><stop offset="30%" stop-color="#FFFFFF" stop-opacity="1"></stop><stop offset="100%" stop-color="#CCCCCC" stop-opacity="1"></stop></radialGradient></defs><g id="editor-gba5bd53d5_0_115"><g></g><path fill="#fff" fill-opacity="1" d="M 0 0 L 365760 0 365760 274320 0 274320 Z"></path><g id="editor-gba5bd53d5_0_115-bg"><g><g></g><g><g><path fill="url(#gradient-25320)" d="M 0 0 L 365760 0 365760 274320 0 274320 Z"></path></g><g></g></g><g></g></g></g><g id="editor-gb9563dfae_0_1"></g><g id="editor-gb9563dfae_0_2"></g><g id="editor-gb9563dfae_0_3"></g><g id="editor-gb9563dfae_0_5"></g><g id="editor-gb9563dfae_0_6"></g><g id="editor-gb9563dfae_0_7"></g><g id="editor-gba5bd53d5_0_117"><g><g></g><g><path d="M 27432 151469.515625 L 338328.00563049316 151469.515625 338328.00563049316 193325.5160484314 27432 193325.5160484314 Z"></path></g><g></g><g><path fill="#000" fill-opacity="0" stroke="#000" stroke-opacity="0" stroke-width="3882.8025477707006" stroke-linecap="round" stroke-linejoin="round" stroke-miterlimit="10" pointer-events="visiblePainted" d="M 27432 151469.515625 L 338328.00563049316 151469.515625 338328.00563049316 193325.5160484314 27432 193325.5160484314 Z"></path></g><g><g direction="ltr" style="opacity: 1;"><g transform="matrix(381,0,0,381.0000000000005,31089,155126.515625)"><g pointer-events="none"><g id="editor-gba5bd53d5_0_117-paragraph-0"><g><g class="sketchy-text-background" visibility="visible"></g><g class="sketchy-text-content" visibility="visible"></g></g></g></g><rect style="opacity: 0;"></rect><rect style="opacity: 1;"></rect></g><g><path d="M 182880.00281524658 155126.515625 L 182880.00281524658 155126.515625 182880.00281524658 173414.51562500003 182880.00281524658 173414.51562500003 Z" pointer-events="visiblePainted" fill="#000000" stroke="#000000" opacity="0"></path></g><g transform="matrix(381,0,0,381.0000000000005,31089,155126.515625)"></g></g></g></g></g><g id="editor-gba5bd53d5_0_118"><g><g></g><g><path stroke="#666666" stroke-opacity="1" stroke-width="3048" stroke-linecap="butt" stroke-linejoin="round" stroke-miterlimit="8" d="M 56043.25390625 72020.29890625023 L 56043.25390625 202300.4625454712"></path><path fill="#666666" fill-opacity="1" stroke="#666666" stroke-opacity="1" stroke-width="3048" stroke-linecap="butt" stroke-linejoin="miter" stroke-miterlimit="10" d="M 56043.25390625 72020.29890625023 C 53274.1202619884 72020.29890625023 51029.29390625 69775.47255051184 51029.29390625 67006.33890625022 51029.29390625 64237.20526198862 53274.12026198839 61992.37890625023 56043.25390625 61992.37890625023 58812.3875505116 61992.37890625023 61057.21390625 64237.20526198862 61057.21390625 67006.33890625022 61057.21390625 69775.47255051184 58812.38755051161 72020.29890625023 56043.25390625 72020.29890625023"></path><path stroke="#666666" stroke-opacity="1" stroke-width="3048" stroke-linecap="butt" stroke-linejoin="miter" stroke-miterlimit="10" d="M 56043.25390625 202300.4625454712 C 58812.3875505116 202300.4625454712 61057.21390625 204545.2889012096 61057.21390625 207314.4225454712 61057.21390625 210083.5561897328 58812.38755051161 212328.3825454712 56043.25390625 212328.38254547122 53274.1202619884 212328.38254547122 51029.29390625 210083.5561897328 51029.29390625 207314.4225454712 51029.29390625 204545.2889012096 53274.12026198839 202300.4625454712 56043.25390625 202300.4625454712"></path></g><g><path stroke="#000" stroke-opacity="0" stroke-width="3882.8025477707006" stroke-linecap="round" stroke-linejoin="round" stroke-miterlimit="10" pointer-events="visiblePainted" d="M 56043.25390625 72020.29890625023 L 56043.25390625 202300.4625454712"></path></g></g></g><g id="editor-gba5bd53d5_0_119"><g><g></g><g><path stroke="#666666" stroke-opacity="1" stroke-width="762" stroke-linecap="butt" stroke-linejoin="round" stroke-miterlimit="8" stroke-dasharray="3048,2286" d="M 56043 66802 L 56043 11261.210349099456"></path><path fill="#666666" fill-opacity="1" stroke="#666666" stroke-opacity="1" stroke-width="762" stroke-linecap="butt" stroke-linejoin="miter" stroke-miterlimit="10" d="M 56043 11261.210349099456 L 56899.874409164455 12118.084758263907 56043 9764.034183636293 55186.125590835545 12118.084758263907 Z"></path></g><g><path stroke="#000" stroke-opacity="0" stroke-width="3882.8025477707006" stroke-linecap="round" stroke-linejoin="round" stroke-miterlimit="10" pointer-events="visiblePainted" d="M 56043 66802 L 56043 11261.210349099456"></path></g></g></g><g id="editor-gba5bd53d5_0_120"><g><g></g><g><path stroke="#666666" stroke-opacity="1" stroke-width="762" stroke-linecap="butt" stroke-linejoin="round" stroke-miterlimit="8" stroke-dasharray="3048,2286" d="M 56043 274741 L 56043 215480.20817472076"></path><path fill="#666666" fill-opacity="1" stroke="#666666" stroke-opacity="1" stroke-width="762" stroke-linecap="butt" stroke-linejoin="miter" stroke-miterlimit="10" d="M 56043 215480.20817472076 L 56899.874409164455 216337.0825838852 56043 213983.0320092576 55186.125590835545 216337.0825838852 Z"></path></g><g><path stroke="#000" stroke-opacity="0" stroke-width="3882.8025477707006" stroke-linecap="round" stroke-linejoin="round" stroke-miterlimit="10" pointer-events="visiblePainted" d="M 56043 274741 L 56043 215480.20817472076"></path></g></g></g><g id="editor-gba5bd53d5_0_123"><g><g></g><g><path stroke="#980000" stroke-opacity="1" stroke-width="1524" stroke-linecap="butt" stroke-linejoin="round" stroke-miterlimit="8" stroke-dasharray="6096,4572,1524,4572" d="M 93546 67421 L 307194.00453186035 67421"></path></g><g><path stroke="#000" stroke-opacity="0" stroke-width="3882.8025477707006" stroke-linecap="round" stroke-linejoin="round" stroke-miterlimit="10" pointer-events="visiblePainted" d="M 93546 67421 L 307194.00453186035 67421"></path></g></g></g><g id="editor-gba5bd53d5_0_124"><g><g></g><g><path stroke="#FFD966" stroke-opacity="1" stroke-width="1524" stroke-linecap="butt" stroke-linejoin="round" stroke-miterlimit="8" stroke-dasharray="6096,4572,1524,4572" d="M 93546 207629 L 307194.00453186035 207629"></path></g><g><path stroke="#000" stroke-opacity="0" stroke-width="3882.8025477707006" stroke-linecap="round" stroke-linejoin="round" stroke-miterlimit="10" pointer-events="visiblePainted" d="M 93546 207629 L 307194.00453186035 207629"></path></g></g></g><g id="editor-gba5bd53d5_0_125"><g><g></g><g><path d="M 176882 42560 L 195001.99917030334 42560 195001.99917030334 67412.00047492981 176882 67412.00047492981 Z"></path></g><g><path fill="#000" fill-opacity="0" stroke="#000" stroke-opacity="0" stroke-width="3882.8025477707006" stroke-linecap="round" stroke-linejoin="round" stroke-miterlimit="10" pointer-events="visiblePainted" d="M 176882 42560 L 195001.99917030334 42560 195001.99917030334 67412.00047492981 176882 67412.00047492981 Z"></path></g><g><g direction="ltr" style="opacity: 1;"><g transform="matrix(381,0,0,381,180539,46217)"><g pointer-events="none"><g id="editor-gba5bd53d5_0_125-paragraph-0"><g><g class="sketchy-text-background" visibility="visible"></g><g class="sketchy-text-content" visibility="visible"><g class="sketchy-text-content-text" transform="translate(0 46.08)"><text x="0px" style="font-family:Arial;font-size:48px;fill:#980000;" y="0px" text-rendering="geometricPrecision">?</text></g></g></g></g></g><rect style="opacity: 0;"></rect><rect style="opacity: 1;"></rect></g><g><path d="M 180539 46217 L 190709.9140625 46217 190709.9140625 68162.6 180539 68162.6 Z" pointer-events="visiblePainted" fill="#000000" stroke="#000000" opacity="0"></path></g><g transform="matrix(381,0,0,381,180539,46217)"></g></g></g></g></g><g id="editor-gba5bd53d5_0_126"><g><g></g><g><path d="M 176882 182768 L 195001.99917030334 182768 195001.99917030334 207620.0004749298 176882 207620.0004749298 Z"></path></g><g><path fill="#000" fill-opacity="0" stroke="#000" stroke-opacity="0" stroke-width="3882.8025477707006" stroke-linecap="round" stroke-linejoin="round" stroke-miterlimit="10" pointer-events="visiblePainted" d="M 176882 182768 L 195001.99917030334 182768 195001.99917030334 207620.0004749298 176882 207620.0004749298 Z"></path></g><g><g direction="ltr" style="opacity: 1;"><g transform="matrix(381,0,0,381,180539,186425)"><g pointer-events="none"><g id="editor-gba5bd53d5_0_126-paragraph-0"><g><g class="sketchy-text-background" visibility="visible"></g><g class="sketchy-text-content" visibility="visible"><g class="sketchy-text-content-text" transform="translate(0 46.08)"><text x="0px" style="font-family:Arial;font-size:48px;fill:#FFD966;" y="0px" text-rendering="geometricPrecision">?</text></g></g></g></g></g><rect style="opacity: 0;"></rect><rect style="opacity: 1;"></rect></g><g><path d="M 180539 186425 L 190709.9140625 186425 190709.9140625 208370.6 180539 208370.6 Z" pointer-events="visiblePainted" fill="#000000" stroke="#000000" opacity="0"></path></g><g transform="matrix(381,0,0,381,180539,186425)"></g></g></g></g></g></g></g></svg>