<svg xmlns="http://www.w3.org/2000/svg" xmlns:xlink="http://www.w3.org/1999/xlink" version="1.1" fill-rule="evenodd" fill="none" stroke="none" stroke-linecap="square" stroke-miterlimit="10" overflow="hidden" viewBox="6858 13335 358140 268605"><rect fill="#ffffff" fill-opacity="0" width="100%" height="100%"></rect><g transform="translate(6858 13335) scale(0.98125)"><defs cursor="default"><radialGradient gradientUnits="userSpaceOnUse" gradientTransform="matrix(478.1213235152768,0,0,478.1213235152768,0,0)" cx="382.4970588122215" cy="286.87279410916614" r="478.12132351527686" id="gradient-26785"><stop offset="0%" stop-color="#FFFFFF" stop-opacity="1"></stop><stop offset="30%" stop-color="#FFFFFF" stop-opacity="1"></stop><stop offset="100%" stop-color="#CCCCCC" stop-opacity="1"></stop></radialGradient></defs><g id="editor-gba5bd53d5_0_127"><g></g><path fill="#fff" fill-opacity="1" d="M 0 0 L 365760 0 365760 274320 0 274320 Z"></path><g id="editor-gba5bd53d5_0_127-bg"><g><g></g><g><g><path fill="url(#gradient-26785)" d="M 0 0 L 365760 0 365760 274320 0 274320 Z"></path></g><g></g></g><g></g></g></g><g id="editor-gb9563dfae_0_1"></g><g id="editor-gb9563dfae_0_2"></g><g id="editor-gb9563dfae_0_3"></g><g id="editor-gb9563dfae_0_5"></g><g id="editor-gb9563dfae_0_6"></g><g id="editor-gb9563dfae_0_7"></g><g id="editor-gba5bd53d5_0_129"><g><g></g><g><path stroke="#666666" stroke-opacity="1" stroke-width="3048" stroke-linecap="butt" stroke-linejoin="round" stroke-miterlimit="8" d="M 56043.25390625 72020.29890624993 L 56043.25390625 178492.46007354735"></path><path fill="#666666" fill-opacity="1" stroke="#666666" stroke-opacity="1" stroke-width="3048" stroke-linecap="butt" stroke-linejoin="miter" stroke-miterlimit="10" d="M 56043.25390625 72020.29890624993 C 53274.1202619884 72020.29890624993 51029.29390625 69775.47255051153 51029.29390625 67006.33890624993 51029.29390625 64237.20526198832 53274.12026198839 61992.37890624993 56043.25390625 61992.37890624993 58812.3875505116 61992.37890624993 61057.21390625 64237.20526198832 61057.21390625 67006.33890624992 61057.21390625 69775.47255051153 58812.38755051161 72020.29890624993 56043.25390625 72020.29890624993"></path><path stroke="#666666" stroke-opacity="1" stroke-width="3048" stroke-linecap="butt" stroke-linejoin="miter" stroke-miterlimit="10" d="M 56043.25390625 178492.46007354735 C 58812.3875505116 178492.46007354735 61057.21390625 180737.28642928574 61057.21390625 183506.42007354734 61057.21390625 186275.55371780894 58812.38755051161 188520.38007354736 56043.25390625 188520.38007354736 53274.1202619884 188520.38007354736 51029.29390625 186275.55371780894 51029.29390625 183506.42007354734 51029.29390625 180737.28642928574 53274.12026198839 178492.46007354735 56043.25390625 178492.46007354735"></path></g><g><path stroke="#000" stroke-opacity="0" stroke-width="3882.8025477707006" stroke-linecap="round" stroke-linejoin="round" stroke-miterlimit="10" pointer-events="visiblePainted" d="M 56043.25390625 72020.29890624993 L 56043.25390625 178492.46007354735"></path></g></g></g><g id="editor-gba5bd53d5_0_130"><g><g></g><g><path stroke="#666666" stroke-opacity="1" stroke-width="762" stroke-linecap="butt" stroke-linejoin="round" stroke-miterlimit="8" stroke-dasharray="3048,2286" d="M 56043 66802 L 56043 11261.210349099456"></path><path fill="#666666" fill-opacity="1" stroke="#666666" stroke-opacity="1" stroke-width="762" stroke-linecap="butt" stroke-linejoin="miter" stroke-miterlimit="10" d="M 56043 11261.210349099456 L 56899.874409164455 12118.084758263907 56043 9764.034183636293 55186.125590835545 12118.084758263907 Z"></path></g><g><path stroke="#000" stroke-opacity="0" stroke-width="3882.8025477707006" stroke-linecap="round" stroke-linejoin="round" stroke-miterlimit="10" pointer-events="visiblePainted" d="M 56043 66802 L 56043 11261.210349099456"></path></g></g></g><g id="editor-gba5bd53d5_0_131"><g><g></g><g><path stroke="#666666" stroke-opacity="1" stroke-width="762" stroke-linecap="butt" stroke-linejoin="round" stroke-miterlimit="8" stroke-dasharray="3048,2286" d="M 56043 274741 L 56043 192236.21346189312"></path><path fill="#666666" fill-opacity="1" stroke="#666666" stroke-opacity="1" stroke-width="762" stroke-linecap="butt" stroke-linejoin="miter" stroke-miterlimit="10" d="M 56043 192236.21346189312 L 56899.874409164455 193093.08787105756 56043 190739.03729642995 55186.125590835545 193093.08787105756 Z"></path></g><g><path stroke="#000" stroke-opacity="0" stroke-width="3882.8025477707006" stroke-linecap="round" stroke-linejoin="round" stroke-miterlimit="10" pointer-events="visiblePainted" d="M 56043 274741 L 56043 192236.21346189312"></path></g></g></g><g id="editor-gba5bd53d5_0_133"><g><g></g><g><path d="M 61985 56886.99609375 L 116297.0002746582 56886.99609375 116297.0002746582 77058.99602508545 61985 77058.99602508545 Z"></path></g><g></g><g><path fill="#000" fill-opacity="0" stroke="#000" stroke-opacity="0" stroke-width="3882.8025477707006" stroke-linecap="round" stroke-linejoin="round" stroke-miterlimit="10" pointer-events="visiblePainted" d="M 61985 56886.99609375 L 116297.0002746582 56886.99609375 116297.0002746582 77058.99602508545 61985 77058.99602508545 Z"></path></g><g><g direction="ltr" style="opacity: 1;"><g transform="matrix(381,0,0,381,65642,58923.99602508545)"><g pointer-events="none"><g id="editor-gba5bd53d5_0_133-paragraph-0"><g><g class="sketchy-text-background" visibility="visible"></g><g class="sketchy-text-content" visibility="visible"><g class="sketchy-text-content-text" transform="translate(0 30.72)"><text x="0px" style="font-family:Arial;font-size:32px;fill:#980000;font-weight:700;" y="0px" text-rendering="geometricPrecision">state</text><text x="83.59375px" style="font-family:Arial;font-size:32px;fill:#980000;font-weight:700;" y="0px" text-rendering="geometricPrecision">8</text></g></g></g></g></g><rect style="opacity: 0;"></rect><rect style="opacity: 1;"></rect></g><g><path d="M 65642 58923.99602508545 L 104271.828125 58923.99602508545 104271.828125 73554.39602508544 65642 73554.39602508544 Z" pointer-events="visiblePainted" fill="#000000" stroke="#000000" opacity="0"></path></g><g transform="matrix(381,0,0,381,65642,58923.99602508545)"></g></g></g></g></g><g id="editor-gba5bd53d5_0_134"><g><g></g><g><path d="M 61985 173230.703125 L 116297.0002746582 173230.703125 116297.0002746582 193402.70305633545 61985 193402.70305633545 Z"></path></g><g></g><g><path fill="#000" fill-opacity="0" stroke="#000" stroke-opacity="0" stroke-width="3882.8025477707006" stroke-linecap="round" stroke-linejoin="round" stroke-miterlimit="10" pointer-events="visiblePainted" d="M 61985 173230.703125 L 116297.0002746582 173230.703125 116297.0002746582 193402.70305633545 61985 193402.70305633545 Z"></path></g><g><g direction="ltr" style="opacity: 1;"><g transform="matrix(381,0,0,381,65642,175267.70305633545)"><g pointer-events="none"><g id="editor-gba5bd53d5_0_134-paragraph-0"><g><g class="sketchy-text-background" visibility="visible"></g><g class="sketchy-text-content" visibility="visible"><g class="sketchy-text-content-text" transform="translate(0 30.72)"><text x="0px" style="font-family:Arial;font-size:32px;fill:#980000;font-weight:700;" y="0px" text-rendering="geometricPrecision">state</text><text x="83.59375px" style="font-family:Arial;font-size:32px;fill:#980000;font-weight:700;" y="0px" text-rendering="geometricPrecision">5</text></g></g></g></g></g><rect style="opacity: 0;"></rect><rect style="opacity: 1;"></rect></g><g><path d="M 65642 175267.70305633545 L 104271.828125 175267.70305633545 104271.828125 189898.10305633544 65642 189898.10305633544 Z" pointer-events="visiblePainted" fill="#000000" stroke="#000000" opacity="0"></path></g><g transform="matrix(381,0,0,381,65642,175267.70305633545)"></g></g></g></g></g></g></g></svg>