<svg xmlns="http://www.w3.org/2000/svg" xmlns:xlink="http://www.w3.org/1999/xlink" version="1.1" fill-rule="evenodd" fill="none" stroke="none" stroke-linecap="square" stroke-miterlimit="10" overflow="hidden" viewBox="6858 13335 358140 268605"><rect fill="#ffffff" fill-opacity="0" width="100%" height="100%"></rect><g transform="translate(6858 13335) scale(0.98125)"><defs cursor="default"><radialGradient gradientUnits="userSpaceOnUse" gradientTransform="matrix(478.1213235152768,0,0,478.1213235152768,0,0)" cx="382.4970588122215" cy="286.87279410916614" r="478.12132351527686" id="gradient-26913"><stop offset="0%" stop-color="#FFFFFF" stop-opacity="1"></stop><stop offset="30%" stop-color="#FFFFFF" stop-opacity="1"></stop><stop offset="100%" stop-color="#CCCCCC" stop-opacity="1"></stop></radialGradient></defs><g id="editor-gba5bd53d5_0_138"><g></g><path fill="#fff" fill-opacity="1" d="M 0 0 L 365760 0 365760 274320 0 274320 Z"></path><g id="editor-gba5bd53d5_0_138-bg"><g><g></g><g><g><path fill="url(#gradient-26913)" d="M 0 0 L 365760 0 365760 274320 0 274320 Z"></path></g><g></g></g><g></g></g></g><g id="editor-gb9563dfae_0_1"></g><g id="editor-gb9563dfae_0_2"></g><g id="editor-gb9563dfae_0_3"></g><g id="editor-gb9563dfae_0_5"></g><g id="editor-gb9563dfae_0_6"></g><g id="editor-gb9563dfae_0_7"></g><g id="editor-gba5bd53d5_0_139"><g><g></g><g><path stroke="#666666" stroke-opacity="1" stroke-width="3048" stroke-linecap="butt" stroke-linejoin="round" stroke-miterlimit="8" d="M 56043 47369.920000000246 L 56043 178490.07997711177"></path><path fill="#666666" fill-opacity="1" stroke="#666666" stroke-opacity="1" stroke-width="3048" stroke-linecap="butt" stroke-linejoin="miter" stroke-miterlimit="10" d="M 56043 47369.920000000246 C 53273.8663557384 47369.920000000246 51029.04 45125.09364426185 51029.04 42355.96000000025 51029.04 39586.82635573864 53273.86635573839 37342.00000000025 56043 37342.00000000025 58812.1336442616 37342.00000000025 61056.96 39586.82635573864 61056.96 42355.96000000025 61056.96 45125.09364426185 58812.13364426161 47369.920000000246 56043 47369.920000000246"></path><path stroke="#666666" stroke-opacity="1" stroke-width="3048" stroke-linecap="butt" stroke-linejoin="miter" stroke-miterlimit="10" d="M 56043 178490.07997711177 C 58812.1336442616 178490.07997711177 61056.96 180734.90633285017 61056.96 183504.03997711177 61056.96 186273.17362137337 58812.13364426161 188517.99997711176 56043 188517.9999771118 53273.8663557384 188517.9999771118 51029.04 186273.17362137337 51029.04 183504.03997711177 51029.04 180734.90633285017 53273.86635573839 178490.07997711177 56043 178490.07997711177"></path></g><g><path stroke="#000" stroke-opacity="0" stroke-width="3882.8025477707006" stroke-linecap="round" stroke-linejoin="round" stroke-miterlimit="10" pointer-events="visiblePainted" d="M 56043 47369.920000000246 L 56043 178490.07997711177"></path></g></g></g><g id="editor-gba5bd53d5_0_140"><g><g></g><g><path stroke="#666666" stroke-opacity="1" stroke-width="762" stroke-linecap="butt" stroke-linejoin="round" stroke-miterlimit="8" stroke-dasharray="3048,2286" d="M 56039 42560 L 56039 11259.21298124037"></path><path fill="#666666" fill-opacity="1" stroke="#666666" stroke-opacity="1" stroke-width="762" stroke-linecap="butt" stroke-linejoin="miter" stroke-miterlimit="10" d="M 56039 11259.21298124037 L 56895.874409164455 12116.08739040482 56039 9762.036815777206 55182.125590835545 12116.08739040482 Z"></path></g><g><path stroke="#000" stroke-opacity="0" stroke-width="3882.8025477707006" stroke-linecap="round" stroke-linejoin="round" stroke-miterlimit="10" pointer-events="visiblePainted" d="M 56039 42560 L 56039 11259.21298124037"></path></g></g></g><g id="editor-gba5bd53d5_0_142"><g><g></g><g><path d="M 61985 32502.99609375 L 116297.0002746582 32502.99609375 116297.0002746582 52674.99602508545 61985 52674.99602508545 Z"></path></g><g></g><g><path fill="#000" fill-opacity="0" stroke="#000" stroke-opacity="0" stroke-width="3882.8025477707006" stroke-linecap="round" stroke-linejoin="round" stroke-miterlimit="10" pointer-events="visiblePainted" d="M 61985 32502.99609375 L 116297.0002746582 32502.99609375 116297.0002746582 52674.99602508545 61985 52674.99602508545 Z"></path></g><g><g direction="ltr" style="opacity: 1;"><g transform="matrix(381,0,0,381,65642,34539.99602508545)"><g pointer-events="none"><g id="editor-gba5bd53d5_0_142-paragraph-0"><g><g class="sketchy-text-background" visibility="visible"></g><g class="sketchy-text-content" visibility="visible"><g class="sketchy-text-content-text" transform="translate(0 30.72)"><text x="0px" style="font-family:Arial;font-size:32px;fill:#980000;font-weight:700;" y="0px" text-rendering="geometricPrecision">state</text><text x="83.59375px" style="font-family:Arial;font-size:32px;fill:#980000;font-weight:700;" y="0px" text-rendering="geometricPrecision">9</text></g></g></g></g></g><rect style="opacity: 0;"></rect><rect style="opacity: 1;"></rect></g><g><path d="M 65642 34539.99602508545 L 104271.828125 34539.99602508545 104271.828125 49170.39602508545 65642 49170.39602508545 Z" pointer-events="visiblePainted" fill="#000000" stroke="#000000" opacity="0"></path></g><g transform="matrix(381,0,0,381,65642,34539.99602508545)"></g></g></g></g></g><g id="editor-gba5bd53d5_0_143"><g><g></g><g><path d="M 61985 173230.703125 L 116297.0002746582 173230.703125 116297.0002746582 193402.70305633545 61985 193402.70305633545 Z"></path></g><g></g><g><path fill="#000" fill-opacity="0" stroke="#000" stroke-opacity="0" stroke-width="3882.8025477707006" stroke-linecap="round" stroke-linejoin="round" stroke-miterlimit="10" pointer-events="visiblePainted" d="M 61985 173230.703125 L 116297.0002746582 173230.703125 116297.0002746582 193402.70305633545 61985 193402.70305633545 Z"></path></g><g><g direction="ltr" style="opacity: 1;"><g transform="matrix(381,0,0,381,65642,175267.70305633545)"><g pointer-events="none"><g id="editor-gba5bd53d5_0_143-paragraph-0"><g><g class="sketchy-text-background" visibility="visible"></g><g class="sketchy-text-content" visibility="visible"><g class="sketchy-text-content-text" transform="translate(0 30.72)"><text x="0px" style="font-family:Arial;font-size:32px;fill:#980000;font-weight:700;" y="0px" text-rendering="geometricPrecision">state</text><text x="83.59375px" style="font-family:Arial;font-size:32px;fill:#980000;font-weight:700;" y="0px" text-rendering="geometricPrecision">5</text></g></g></g></g></g><rect style="opacity: 0;"></rect><rect style="opacity: 1;"></rect></g><g><path d="M 65642 175267.70305633545 L 104271.828125 175267.70305633545 104271.828125 189898.10305633544 65642 189898.10305633544 Z" pointer-events="visiblePainted" fill="#000000" stroke="#000000" opacity="0"></path></g><g transform="matrix(381,0,0,381,65642,175267.70305633545)"></g></g></g></g></g><g id="editor-gba5bd53d5_0_170"><g><g></g><g><path stroke="#666666" stroke-opacity="1" stroke-width="762" stroke-linecap="butt" stroke-linejoin="round" stroke-miterlimit="8" stroke-dasharray="3048,2286" d="M 56043 274741 L 56043 192236.21346189312"></path><path fill="#666666" fill-opacity="1" stroke="#666666" stroke-opacity="1" stroke-width="762" stroke-linecap="butt" stroke-linejoin="miter" stroke-miterlimit="10" d="M 56043 192236.21346189312 L 56899.874409164455 193093.08787105756 56043 190739.03729642995 55186.125590835545 193093.08787105756 Z"></path></g><g><path stroke="#000" stroke-opacity="0" stroke-width="3882.8025477707006" stroke-linecap="round" stroke-linejoin="round" stroke-miterlimit="10" pointer-events="visiblePainted" d="M 56043 274741 L 56043 192236.21346189312"></path></g></g></g></g></g></svg>