<svg xmlns="http://www.w3.org/2000/svg" xmlns:xlink="http://www.w3.org/1999/xlink" version="1.1" fill-rule="evenodd" fill="none" stroke="none" stroke-linecap="square" stroke-miterlimit="10" overflow="hidden" viewBox="6858 13335 358140 268605"><rect fill="#ffffff" fill-opacity="0" width="100%" height="100%"></rect><g transform="translate(6858 13335) scale(0.98125)"><defs cursor="default"><radialGradient gradientUnits="userSpaceOnUse" gradientTransform="matrix(478.1213235152768,0,0,478.1213235152768,0,0)" cx="382.4970588122215" cy="286.87279410916614" r="478.12132351527686" id="gradient-27382"><stop offset="0%" stop-color="#FFFFFF" stop-opacity="1"></stop><stop offset="30%" stop-color="#FFFFFF" stop-opacity="1"></stop><stop offset="100%" stop-color="#CCCCCC" stop-opacity="1"></stop></radialGradient></defs><g id="editor-gba5bd53d5_0_172"><g></g><path fill="#fff" fill-opacity="1" d="M 0 0 L 365760 0 365760 274320 0 274320 Z"></path><g id="editor-gba5bd53d5_0_172-bg"><g><g></g><g><g><path fill="url(#gradient-27382)" d="M 0 0 L 365760 0 365760 274320 0 274320 Z"></path></g><g></g></g><g></g></g></g><g id="editor-gb9563dfae_0_1"></g><g id="editor-gb9563dfae_0_2"></g><g id="editor-gb9563dfae_0_3"></g><g id="editor-gb9563dfae_0_5"></g><g id="editor-gb9563dfae_0_6"></g><g id="editor-gb9563dfae_0_7"></g><g id="editor-gba5bd53d5_0_173"><g><g></g><g><path stroke="#666666" stroke-opacity="1" stroke-width="3048" stroke-linecap="butt" stroke-linejoin="round" stroke-miterlimit="8" d="M 56043 137124.3965625001 L 56043 137612.55716617583"></path><path fill="#666666" fill-opacity="1" stroke="#666666" stroke-opacity="1" stroke-width="3048" stroke-linecap="butt" stroke-linejoin="miter" stroke-miterlimit="10" d="M 56043 137124.3965625001 C 53273.8663557384 137124.3965625001 51029.04 134879.5702067617 51029.04 132110.4365625001 51029.04 129341.30291823849 53273.86635573839 127096.4765625001 56043 127096.4765625001 58812.1336442616 127096.4765625001 61056.96 129341.30291823849 61056.96 132110.4365625001 61056.96 134879.5702067617 58812.13364426161 137124.3965625001 56043 137124.3965625001"></path><path stroke="#666666" stroke-opacity="1" stroke-width="3048" stroke-linecap="butt" stroke-linejoin="miter" stroke-miterlimit="10" d="M 56043 137612.55716617583 C 58812.1336442616 137612.55716617583 61056.96 139857.38352191422 61056.96 142626.51716617582 61056.96 145395.65081043742 58812.13364426161 147640.47716617584 56043 147640.47716617584 53273.8663557384 147640.47716617584 51029.04 145395.65081043742 51029.04 142626.51716617582 51029.04 139857.38352191422 53273.86635573839 137612.55716617583 56043 137612.55716617583"></path></g><g><path stroke="#000" stroke-opacity="0" stroke-width="3882.8025477707006" stroke-linecap="round" stroke-linejoin="round" stroke-miterlimit="10" pointer-events="visiblePainted" d="M 56043 137124.3965625001 L 56043 137612.55716617583"></path></g></g></g><g id="editor-gba5bd53d5_0_174"><g><g></g><g><path stroke="#666666" stroke-opacity="1" stroke-width="762" stroke-linecap="butt" stroke-linejoin="round" stroke-miterlimit="8" stroke-dasharray="3048,2286" d="M 56039 131893 L 56039 11252.215212838142"></path><path fill="#666666" fill-opacity="1" stroke="#666666" stroke-opacity="1" stroke-width="762" stroke-linecap="butt" stroke-linejoin="miter" stroke-miterlimit="10" d="M 56039 11252.215212838142 L 56895.874409164455 12109.089622002593 56039 9755.03904737498 55182.125590835545 12109.089622002593 Z"></path></g><g><path stroke="#000" stroke-opacity="0" stroke-width="3882.8025477707006" stroke-linecap="round" stroke-linejoin="round" stroke-miterlimit="10" pointer-events="visiblePainted" d="M 56039 131893 L 56039 11252.215212838142"></path></g></g></g><g id="editor-gba5bd53d5_0_175"><g><g></g><g><path stroke="#666666" stroke-opacity="1" stroke-width="762" stroke-linecap="butt" stroke-linejoin="round" stroke-miterlimit="8" stroke-dasharray="3048,2286" d="M 56043 274417.84375 L 56043 151365.0592603853"></path><path fill="#666666" fill-opacity="1" stroke="#666666" stroke-opacity="1" stroke-width="762" stroke-linecap="butt" stroke-linejoin="miter" stroke-miterlimit="10" d="M 56043 151365.0592603853 L 56899.874409164455 152221.93366954973 56043 149867.88309492212 55186.125590835545 152221.93366954973 Z"></path></g><g><path stroke="#000" stroke-opacity="0" stroke-width="3882.8025477707006" stroke-linecap="round" stroke-linejoin="round" stroke-miterlimit="10" pointer-events="visiblePainted" d="M 56043 274417.84375 L 56043 151365.0592603853"></path></g></g></g><g id="editor-gba5bd53d5_0_176"><g><g></g><g><path d="M 61985 127510.6953125 L 116297.0002746582 127510.6953125 116297.0002746582 147682.69524383545 61985 147682.69524383545 Z"></path></g><g></g><g><path fill="#000" fill-opacity="0" stroke="#000" stroke-opacity="0" stroke-width="3882.8025477707006" stroke-linecap="round" stroke-linejoin="round" stroke-miterlimit="10" pointer-events="visiblePainted" d="M 61985 127510.6953125 L 116297.0002746582 127510.6953125 116297.0002746582 147682.69524383545 61985 147682.69524383545 Z"></path></g><g><g direction="ltr" style="opacity: 1;"><g transform="matrix(381,0,0,381,65642,129547.69524383545)"><g pointer-events="none"><g id="editor-gba5bd53d5_0_176-paragraph-0"><g><g class="sketchy-text-background" visibility="visible"></g><g class="sketchy-text-content" visibility="visible"><g class="sketchy-text-content-text" transform="translate(0 30.72)"><text x="0px" style="font-family:Arial;font-size:32px;fill:#980000;font-weight:700;" y="0px" text-rendering="geometricPrecision">state</text><text x="83.59375px" style="font-family:Arial;font-size:32px;fill:#980000;font-weight:700;" y="0px" text-rendering="geometricPrecision">9</text></g></g></g></g></g><rect style="opacity: 0;"></rect><rect style="opacity: 1;"></rect></g><g><path d="M 65642 129547.69524383545 L 104271.828125 129547.69524383545 104271.828125 144178.09524383544 65642 144178.09524383544 Z" pointer-events="visiblePainted" fill="#000000" stroke="#000000" opacity="0"></path></g><g transform="matrix(381,0,0,381,65642,129547.69524383545)"></g></g></g></g></g></g></g></svg>