<svg xmlns="http://www.w3.org/2000/svg" xmlns:xlink="http://www.w3.org/1999/xlink" version="1.1" fill-rule="evenodd" fill="none" stroke="none" stroke-linecap="square" stroke-miterlimit="10" overflow="hidden" viewBox="6858 13335 358140 268605"><rect fill="#ffffff" fill-opacity="0" width="100%" height="100%"></rect><g transform="translate(6858 13335) scale(0.98125)"><defs cursor="default"><radialGradient gradientUnits="userSpaceOnUse" gradientTransform="matrix(478.1213235152768,0,0,478.1213235152768,0,0)" cx="382.4970588122215" cy="286.87279410916614" r="478.12132351527686" id="gradient-9718"><stop offset="0%" stop-color="#FFFFFF" stop-opacity="1"></stop><stop offset="30%" stop-color="#FFFFFF" stop-opacity="1"></stop><stop offset="100%" stop-color="#CCCCCC" stop-opacity="1"></stop></radialGradient></defs><g id="editor-gb96833a12_0_248"><g></g><path fill="#fff" fill-opacity="1" d="M 0 0 L 365760 0 365760 274320 0 274320 Z"></path><g id="editor-gb96833a12_0_248-bg"><g><g></g><g><g><path fill="url(#gradient-9718)" d="M 0 0 L 365760 0 365760 274320 0 274320 Z"></path></g><g></g></g><g></g></g></g><g id="editor-gb9563dfae_0_1"></g><g id="editor-gb9563dfae_0_2"></g><g id="editor-gb9563dfae_0_3"></g><g id="editor-gb9563dfae_0_5"></g><g id="editor-gb9563dfae_0_6"></g><g id="editor-gb9563dfae_0_7"></g><g id="editor-gb96833a12_0_249"><g><g></g><g><path d="M 27432 151469.515625 L 338328.00563049316 151469.515625 338328.00563049316 193325.5160484314 27432 193325.5160484314 Z"></path></g><g></g><g><path fill="#000" fill-opacity="0" stroke="#000" stroke-opacity="0" stroke-width="3882.8025477707006" stroke-linecap="round" stroke-linejoin="round" stroke-miterlimit="10" pointer-events="visiblePainted" d="M 27432 151469.515625 L 338328.00563049316 151469.515625 338328.00563049316 193325.5160484314 27432 193325.5160484314 Z"></path></g><g><g direction="ltr" style="opacity: 1;"><g transform="matrix(381,0,0,381.0000000000005,31089,155126.515625)"><g pointer-events="none"><g id="editor-gb96833a12_0_249-paragraph-0"><g><g class="sketchy-text-background" visibility="visible"></g><g class="sketchy-text-content" visibility="visible"></g></g></g></g><rect style="opacity: 0;"></rect><rect style="opacity: 1;"></rect></g><g><path d="M 182880.00281524658 155126.515625 L 182880.00281524658 155126.515625 182880.00281524658 173414.51562500003 182880.00281524658 173414.51562500003 Z" pointer-events="visiblePainted" fill="#000000" stroke="#000000" opacity="0"></path></g><g transform="matrix(381,0,0,381.0000000000005,31089,155126.515625)"></g></g></g></g></g><g id="editor-gb96833a12_0_250"><g><g></g><g><path d="M 27432 84444.921875 L 338328.00563049316 84444.921875 338328.00563049316 146304.92296218872 27432 146304.92296218872 Z"></path></g><g></g><g><path fill="#000" fill-opacity="0" stroke="#000" stroke-opacity="0" stroke-width="3882.8025477707006" stroke-linecap="round" stroke-linejoin="round" stroke-miterlimit="10" pointer-events="visiblePainted" d="M 27432 84444.921875 L 338328.00563049316 84444.921875 338328.00563049316 146304.92296218872 27432 146304.92296218872 Z"></path></g><g><g direction="ltr" style="opacity: 1;"><g transform="matrix(380.99999999999994,0,0,381,31089,113310.92296218872)"><g pointer-events="none"><g id="editor-gb96833a12_0_250-paragraph-0"><g><g class="sketchy-text-background" visibility="visible"></g><g class="sketchy-text-content" visibility="visible"><g class="sketchy-text-content-text" transform="translate(0 61.44)"><text x="199.32345719224827px" style="font-family:Arial;font-size:64px;fill:#000000;font-weight:700;" y="0px" text-rendering="geometricPrecision">Coordination</text></g></g></g></g></g><rect style="opacity: 0;"></rect><rect style="opacity: 1;"></rect></g><g><path d="M 107031.23719024658 113310.92296218872 L 258728.76844024655 113310.92296218872 258728.76844024655 142571.7229621887 107031.23719024658 142571.7229621887 Z" pointer-events="visiblePainted" fill="#000000" stroke="#000000" opacity="0"></path></g><g transform="matrix(380.99999999999994,0,0,381,31089,113310.92296218872)"></g></g></g></g></g><g id="editor-gb98267064_0_10"><g></g><g id="editor-gb98267064_0_6"><g></g><g id="editor-gb98267064_0_0"><g><g></g><g><path fill="#FFFFFF" fill-opacity="1" stroke="#666666" stroke-opacity="1" stroke-width="762" stroke-linecap="butt" stroke-linejoin="round" stroke-miterlimit="8" d="M 273531.49820458 113286.74206662766 C 273531.49820458 107386.19869556221 277716.78223484004 102602.86319278 282879.59172759106 102602.86319278 285358.86027845583 102602.86319278 287736.58444417926 103728.48291377543 289489.69204887823 105732.09886555429 291242.79965357727 107735.71481733314 292227.68525060214 110453.20121383492 292227.68525060214 113286.74206662766 292227.68525060214 119187.28543769312 288042.40122034214 123970.62094047532 282879.59172759106 123970.62094047532 277716.78223484004 123970.62094047532 273531.49820458 119187.28543769312 273531.49820458 113286.74206662766 Z"></path></g><g><path fill="#000" fill-opacity="0" stroke="#000" stroke-opacity="0" stroke-width="3882.8025477707006" stroke-linecap="round" stroke-linejoin="round" stroke-miterlimit="10" pointer-events="visiblePainted" d="M 273531.49820458 113286.74206662766 C 273531.49820458 107386.19869556221 277716.78223484004 102602.86319278 282879.59172759106 102602.86319278 285358.86027845583 102602.86319278 287736.58444417926 103728.48291377543 289489.69204887823 105732.09886555429 291242.79965357727 107735.71481733314 292227.68525060214 110453.20121383492 292227.68525060214 113286.74206662766 292227.68525060214 119187.28543769312 288042.40122034214 123970.62094047532 282879.59172759106 123970.62094047532 277716.78223484004 123970.62094047532 273531.49820458 119187.28543769312 273531.49820458 113286.74206662766 Z"></path></g><g></g></g></g><g id="editor-gb98267064_0_1"><g><g></g><g><path stroke="#666666" stroke-opacity="1" stroke-width="762" stroke-linecap="butt" stroke-linejoin="round" stroke-miterlimit="8" d="M 282879.5913973 123970.6201855 L 282879.5913973 170535.82061989102"></path></g><g><path stroke="#000" stroke-opacity="0" stroke-width="3882.8025477707006" stroke-linecap="round" stroke-linejoin="round" stroke-miterlimit="10" pointer-events="visiblePainted" d="M 282879.5913973 123970.6201855 L 282879.5913973 170535.82061989102"></path></g></g></g><g id="editor-gb98267064_0_2"><g><g></g><g><path stroke="#666666" stroke-opacity="1" stroke-width="762" stroke-linecap="butt" stroke-linejoin="round" stroke-miterlimit="8" d="M 282836.17614498 170535.82082638 L 293013.10621850105 213954.7261141164"></path></g><g><path stroke="#000" stroke-opacity="0" stroke-width="3882.8025477707006" stroke-linecap="round" stroke-linejoin="round" stroke-miterlimit="10" pointer-events="visiblePainted" d="M 282836.17614498 170535.82082638 L 293013.10621850105 213954.7261141164"></path></g></g></g><g id="editor-gb98267064_0_3"><g><g></g><g><path stroke="#666666" stroke-opacity="1" stroke-width="762" stroke-linecap="butt" stroke-linejoin="round" stroke-miterlimit="8" d="M 282982.20926642 170870.18540039 L 272746.0764561214 214532.67105571748"></path></g><g><path stroke="#000" stroke-opacity="0" stroke-width="3882.8025477707006" stroke-linecap="round" stroke-linejoin="round" stroke-miterlimit="10" pointer-events="visiblePainted" d="M 282982.20926642 170870.18540039 L 272746.0764561214 214532.67105571748"></path></g></g></g><g id="editor-gb98267064_0_4"><g><g></g><g><path stroke="#666666" stroke-opacity="1" stroke-width="762" stroke-linecap="butt" stroke-linejoin="round" stroke-miterlimit="8" d="M 282878.11133188 127306.93584219 L 304783.07983018004 163526.57063858825"></path></g><g><path stroke="#000" stroke-opacity="0" stroke-width="3882.8025477707006" stroke-linecap="round" stroke-linejoin="round" stroke-miterlimit="10" pointer-events="visiblePainted" d="M 282878.11133188 127306.93584219 L 304783.07983018004 163526.57063858825"></path></g></g></g><g id="editor-gb98267064_0_5"><g><g></g><g><path stroke="#666666" stroke-opacity="1" stroke-width="762" stroke-linecap="butt" stroke-linejoin="round" stroke-miterlimit="8" d="M 283024.14445332 127473.83620291 L 261261.2628761611 161859.82064134246"></path></g><g><path stroke="#000" stroke-opacity="0" stroke-width="3882.8025477707006" stroke-linecap="round" stroke-linejoin="round" stroke-miterlimit="10" pointer-events="visiblePainted" d="M 283024.14445332 127473.83620291 L 261261.2628761611 161859.82064134246"></path></g></g></g></g><g id="editor-gb98267064_0_9"><g></g><g id="editor-gb98267064_0_7"><g><g></g><g><path fill="#FFFFFF" fill-opacity="1" stroke="#666666" stroke-opacity="1" stroke-width="762" stroke-linecap="butt" stroke-linejoin="round" stroke-miterlimit="8" d="M 290775.07659572625 90694.06368775637 L 290775.07659572625 107345.42992493136 C 290775.07659572625 105506.17079760354 287303.19663889846 104015.15667749636 283020.415668908 104015.15667749636 278737.63469891757 104015.15667749636 275265.7547420898 105506.17079760354 275265.7547420898 107345.42992493136 L 275265.7547420898 90694.06368775637 C 275265.7547420898 88854.80456042856 278737.63469891757 87363.79044032138 283020.415668908 87363.79044032138 287303.19663889846 87363.79044032138 290775.07659572625 88854.80456042854 290775.07659572625 90694.06368775637 Z"></path></g><g><path fill="#000" fill-opacity="0" stroke="#000" stroke-opacity="0" stroke-width="3882.8025477707006" stroke-linecap="round" stroke-linejoin="round" stroke-miterlimit="10" pointer-events="visiblePainted" d="M 290775.07659572625 90694.06368775637 L 290775.07659572625 107345.42992493136 C 290775.07659572625 105506.17079760354 287303.19663889846 104015.15667749636 283020.415668908 104015.15667749636 278737.63469891757 104015.15667749636 275265.7547420898 105506.17079760354 275265.7547420898 107345.42992493136 L 275265.7547420898 90694.06368775637 C 275265.7547420898 88854.80456042856 278737.63469891757 87363.79044032138 283020.415668908 87363.79044032138 287303.19663889846 87363.79044032138 290775.07659572625 88854.80456042854 290775.07659572625 90694.06368775637 Z"></path></g><g></g></g></g><g id="editor-gb98267064_0_8"><g><g></g><g><path fill="#FFFFFF" fill-opacity="1" stroke="#666666" stroke-opacity="1" stroke-width="762" stroke-linecap="butt" stroke-linejoin="round" stroke-miterlimit="8" d="M 273748.1937580226 88762.18364762294 C 273565.7319370727 87715.31011002105 274164.79038071865 86678.96878051739 275291.1665060428 86092.91749165478 276417.54263136693 85506.86620279215 277873.69443719066 85473.88567034782 279041.7230288621 86007.97075011971 279455.4743166666 85399.27505138017 280212.7601207372 84979.01264222487 281084.516136953 84874.30477038329 281956.2721531689 84769.59689854168 282840.1072237094 84992.74191358795 283468.67833976244 85476.24276577569 283821.1413591193 84924.36007320532 284513.2085563342 84553.56544105706 285299.2985643553 84495.43605291207 286085.3885723764 84437.30666476711 286854.25032670086 84700.06925833234 287333.05176497874 85190.48202530142 287969.8276409334 84605.48781084946 288982.954086022 84359.18091625386 289934.04553952755 84558.13973221718 290885.1369930331 84757.0985481805 291603.3689457726 85365.58829655989 291777.9583569391 86120.31201099248 292558.11677624664 86286.45285715816 293207.97238629026 86708.80489743207 293559.62330318365 87278.24588661209 293911.2742200771 87847.6868757921 293930.2242775802 88508.35593002154 293611.5773875385 89089.55731763935 294379.80580780876 89870.17430578337 294559.5137202923 90910.33695417784 294083.6373337905 91821.87509435066 293607.76094728865 92733.41323452347 292547.79526304 93379.37865406241 291299.30058967945 93518.70856714586 291290.50067537 94374.21967931393 290689.5404447064 95159.22639220799 289728.0562652406 95571.15277118112 288766.57208577485 95983.07915015426 287594.7029029985 95957.60152407382 286664.13837438624 95504.54008478945 286267.76720872446 96529.16264257886 285152.1148261574 97283.0701762826 283799.18430272554 97440.5467586339 282446.2537792936 97598.0233409852 281098.58448739845 97130.83820123126 280338.4193858045 96240.83259204226 279406.61605437426 96679.519250828 278288.52951634006 96805.89096319253 277236.3775595492 96591.44081785946 276184.2256027583 96376.99067252639 275286.6364014656 95839.78290891183 274746.087988493 95101.0007710171 273793.9019299375 95187.99430089103 272873.26960748713 94802.83573292926 272441.09752814285 94136.6778776919 272008.9254487985 93470.52002245453 272157.2127135602 92665.17195723987 272812.364886818 92120.32502725047 271962.9902696984 91730.0227472151 271529.5881375479 90955.53342206657 271738.1606996931 90200.72285125284 271946.7332618382 89445.9122804391 272750.0172067663 88881.8233220168 273729.1314704421 88802.60623830147 Z"></path><path stroke="#666666" stroke-opacity="1" stroke-width="762" stroke-linecap="butt" stroke-linejoin="round" stroke-miterlimit="8" d="M 272812.6053099023 92120.25046036056 C 273213.4277708571 92304.43529146674 273676.4717047018 92387.98588464616 274139.56588872545 92359.68420602231 M 274746.1198463033 95100.9928933524 C 274945.2673729233 95082.79839643587 275140.46980835346 95044.2692962356 275326.6930576685 94986.39922352954 M 280338.17286068434 96240.7768875845 C 280198.105418197 96076.78513208679 280080.8337839982 95901.54573343406 279988.35612274794 95718.04455581935 M 286664.13372266706 95504.45359558058 C 286736.3981038692 95317.64960598966 286783.21917248884 95125.38789583638 286803.81580929813 94930.87598094634 M 291299.12061458686 93518.69392191841 C 291308.4894817004 92607.87028861788 290645.8709103299 91773.9108037643 289595.87908102025 91375.02561365391 M 293611.3756033904 89089.63872240232 C 293441.33268020523 89399.79138981686 293181.74344644096 89674.92343190196 292852.9611576821 89893.46294950414 M 291777.9155986753 86120.3121544028 C 291806.888765052 86245.55878649004 291820.2975671894 86372.68784314563 291817.95615057775 86499.93723494098 M 287333.0847015303 85190.51999252921 C 287174.2407508197 85336.44699082681 287043.37425057596 85499.51849597292 286944.55997686175 85674.65696815071 M 283468.67485730647 85476.21703483674 C 283384.02463945054 85608.76140854784 283320.8134400637 85749.01607168955 283280.49736809765 85893.75017162002 M 279041.65471449296 86007.9560094785 C 279288.80879498104 86120.96806049734 279517.4599032324 86256.990176783 279722.58515608666 86413.03429848068 M 273748.1937580226 88762.18364762294 C 273773.34173287504 88906.46999344694 273813.0767963113 89048.9774686136 273867.02705202566 89188.37228882797"></path></g><g><path fill="#000" fill-opacity="0" stroke="#000" stroke-opacity="0" stroke-width="3882.8025477707006" stroke-linecap="round" stroke-linejoin="round" stroke-miterlimit="10" pointer-events="visiblePainted" d="M 273748.1937580226 88762.18364762294 C 273565.7319370727 87715.31011002105 274164.79038071865 86678.96878051739 275291.1665060428 86092.91749165478 276417.54263136693 85506.86620279215 277873.69443719066 85473.88567034782 279041.7230288621 86007.97075011971 279455.4743166666 85399.27505138017 280212.7601207372 84979.01264222487 281084.516136953 84874.30477038329 281956.2721531689 84769.59689854168 282840.1072237094 84992.74191358795 283468.67833976244 85476.24276577569 283821.1413591193 84924.36007320532 284513.2085563342 84553.56544105706 285299.2985643553 84495.43605291207 286085.3885723764 84437.30666476711 286854.25032670086 84700.06925833234 287333.05176497874 85190.48202530142 287969.8276409334 84605.48781084946 288982.954086022 84359.18091625386 289934.04553952755 84558.13973221718 290885.1369930331 84757.0985481805 291603.3689457726 85365.58829655989 291777.9583569391 86120.31201099248 292558.11677624664 86286.45285715816 293207.97238629026 86708.80489743207 293559.62330318365 87278.24588661209 293911.2742200771 87847.6868757921 293930.2242775802 88508.35593002154 293611.5773875385 89089.55731763935 294379.80580780876 89870.17430578337 294559.5137202923 90910.33695417784 294083.6373337905 91821.87509435066 293607.76094728865 92733.41323452347 292547.79526304 93379.37865406241 291299.30058967945 93518.70856714586 291290.50067537 94374.21967931393 290689.5404447064 95159.22639220799 289728.0562652406 95571.15277118112 288766.57208577485 95983.07915015426 287594.7029029985 95957.60152407382 286664.13837438624 95504.54008478945 286267.76720872446 96529.16264257886 285152.1148261574 97283.0701762826 283799.18430272554 97440.5467586339 282446.2537792936 97598.0233409852 281098.58448739845 97130.83820123126 280338.4193858045 96240.83259204226 279406.61605437426 96679.519250828 278288.52951634006 96805.89096319253 277236.3775595492 96591.44081785946 276184.2256027583 96376.99067252639 275286.6364014656 95839.78290891183 274746.087988493 95101.0007710171 273793.9019299375 95187.99430089103 272873.26960748713 94802.83573292926 272441.09752814285 94136.6778776919 272008.9254487985 93470.52002245453 272157.2127135602 92665.17195723987 272812.364886818 92120.32502725047 271962.9902696984 91730.0227472151 271529.5881375479 90955.53342206657 271738.1606996931 90200.72285125284 271946.7332618382 89445.9122804391 272750.0172067663 88881.8233220168 273729.1314704421 88802.60623830147 Z"></path><path stroke="#000" stroke-opacity="0" stroke-width="3882.8025477707006" stroke-linecap="round" stroke-linejoin="round" stroke-miterlimit="10" pointer-events="visiblePainted" d="M 272812.6053099023 92120.25046036056 C 273213.4277708571 92304.43529146674 273676.4717047018 92387.98588464616 274139.56588872545 92359.68420602231 M 274746.1198463033 95100.9928933524 C 274945.2673729233 95082.79839643587 275140.46980835346 95044.2692962356 275326.6930576685 94986.39922352954 M 280338.17286068434 96240.7768875845 C 280198.105418197 96076.78513208679 280080.8337839982 95901.54573343406 279988.35612274794 95718.04455581935 M 286664.13372266706 95504.45359558058 C 286736.3981038692 95317.64960598966 286783.21917248884 95125.38789583638 286803.81580929813 94930.87598094634 M 291299.12061458686 93518.69392191841 C 291308.4894817004 92607.87028861788 290645.8709103299 91773.9108037643 289595.87908102025 91375.02561365391 M 293611.3756033904 89089.63872240232 C 293441.33268020523 89399.79138981686 293181.74344644096 89674.92343190196 292852.9611576821 89893.46294950414 M 291777.9155986753 86120.3121544028 C 291806.888765052 86245.55878649004 291820.2975671894 86372.68784314563 291817.95615057775 86499.93723494098 M 287333.0847015303 85190.51999252921 C 287174.2407508197 85336.44699082681 287043.37425057596 85499.51849597292 286944.55997686175 85674.65696815071 M 283468.67485730647 85476.21703483674 C 283384.02463945054 85608.76140854784 283320.8134400637 85749.01607168955 283280.49736809765 85893.75017162002 M 279041.65471449296 86007.9560094785 C 279288.80879498104 86120.96806049734 279517.4599032324 86256.990176783 279722.58515608666 86413.03429848068 M 273748.1937580226 88762.18364762294 C 273773.34173287504 88906.46999344694 273813.0767963113 89048.9774686136 273867.02705202566 89188.37228882797"></path></g><g></g></g></g></g></g><g id="editor-gb98267064_0_21"><g></g><g id="editor-gb98267064_0_17"><g></g><g id="editor-gb98267064_0_11"><g><g></g><g><path fill="#FFFFFF" fill-opacity="1" stroke="#666666" stroke-opacity="1" stroke-width="762" stroke-linecap="butt" stroke-linejoin="round" stroke-miterlimit="8" d="M 64356.502704149985 99239.0792699726 C 64356.502704149985 92180.82034661529 69362.98638684148 86458.97095534 75538.79698784789 86458.97095534 78504.52582612303 86458.97095534 81348.78613236938 87805.44278689749 83445.87310507425 90202.1780163973 85542.9600777791 92598.91324589711 86721.0912715458 95849.58380299657 86721.0912715458 99239.0792699726 86721.0912715458 106297.3381933299 81714.6075888543 112019.1875846052 75538.79698784789 112019.1875846052 69362.98638684148 112019.1875846052 64356.502704149985 106297.33819332991 64356.502704149985 99239.0792699726 Z"></path></g><g><path fill="#000" fill-opacity="0" stroke="#000" stroke-opacity="0" stroke-width="3882.8025477707006" stroke-linecap="round" stroke-linejoin="round" stroke-miterlimit="10" pointer-events="visiblePainted" d="M 64356.502704149985 99239.0792699726 C 64356.502704149985 92180.82034661529 69362.98638684148 86458.97095534 75538.79698784789 86458.97095534 78504.52582612303 86458.97095534 81348.78613236938 87805.44278689749 83445.87310507425 90202.1780163973 85542.9600777791 92598.91324589711 86721.0912715458 95849.58380299657 86721.0912715458 99239.0792699726 86721.0912715458 106297.3381933299 81714.6075888543 112019.1875846052 75538.79698784789 112019.1875846052 69362.98638684148 112019.1875846052 64356.502704149985 106297.33819332991 64356.502704149985 99239.0792699726 Z"></path></g><g></g></g></g><g id="editor-gb98267064_0_12"><g><g></g><g><path stroke="#666666" stroke-opacity="1" stroke-width="762" stroke-linecap="butt" stroke-linejoin="round" stroke-miterlimit="8" d="M 75538.79659275 112019.1866815 L 75538.79659275 167720.70784913684"></path></g><g><path stroke="#000" stroke-opacity="0" stroke-width="3882.8025477707006" stroke-linecap="round" stroke-linejoin="round" stroke-miterlimit="10" pointer-events="visiblePainted" d="M 75538.79659275 112019.1866815 L 75538.79659275 167720.70784913684"></path></g></g></g><g id="editor-gb98267064_0_13"><g><g></g><g><path stroke="#666666" stroke-opacity="1" stroke-width="762" stroke-linecap="butt" stroke-linejoin="round" stroke-miterlimit="8" d="M 75486.86278114999 167720.70809614 L 87660.62063954074 219658.6155763851"></path></g><g><path stroke="#000" stroke-opacity="0" stroke-width="3882.8025477707006" stroke-linecap="round" stroke-linejoin="round" stroke-miterlimit="10" pointer-events="visiblePainted" d="M 75486.86278114999 167720.70809614 L 87660.62063954074 219658.6155763851"></path></g></g></g><g id="editor-gb98267064_0_14"><g><g></g><g><path stroke="#666666" stroke-opacity="1" stroke-width="762" stroke-linecap="butt" stroke-linejoin="round" stroke-miterlimit="8" d="M 75661.54923835 168120.67663967 L 63416.97240244078 220349.95615041914"></path></g><g><path stroke="#000" stroke-opacity="0" stroke-width="3882.8025477707006" stroke-linecap="round" stroke-linejoin="round" stroke-miterlimit="10" pointer-events="visiblePainted" d="M 75661.54923835 168120.67663967 L 63416.97240244078 220349.95615041914"></path></g></g></g><g id="editor-gb98267064_0_15"><g><g></g><g><path stroke="#666666" stroke-opacity="1" stroke-width="762" stroke-linecap="butt" stroke-linejoin="round" stroke-miterlimit="8" d="M 75537.0261219 116010.10383507 L 101739.99503959052 159336.2086402718"></path></g><g><path stroke="#000" stroke-opacity="0" stroke-width="3882.8025477707006" stroke-linecap="round" stroke-linejoin="round" stroke-miterlimit="10" pointer-events="visiblePainted" d="M 75537.0261219 116010.10383507 L 101739.99503959052 159336.2086402718"></path></g></g></g><g id="editor-gb98267064_0_16"><g><g></g><g><path stroke="#666666" stroke-opacity="1" stroke-width="762" stroke-linecap="butt" stroke-linejoin="round" stroke-miterlimit="8" d="M 75711.7125791 116209.75086523 L 49678.70962956696 157342.4341179533"></path></g><g><path stroke="#000" stroke-opacity="0" stroke-width="3882.8025477707006" stroke-linecap="round" stroke-linejoin="round" stroke-miterlimit="10" pointer-events="visiblePainted" d="M 75711.7125791 116209.75086523 L 49678.70962956696 157342.4341179533"></path></g></g></g></g><g id="editor-gb98267064_0_20"><g></g><g id="editor-gb98267064_0_18"><g><g></g><g><path fill="#FFFFFF" fill-opacity="1" stroke="#666666" stroke-opacity="1" stroke-width="762" stroke-linecap="butt" stroke-linejoin="round" stroke-miterlimit="8" d="M 84983.46451183436 72213.60657330882 L 84983.46451183436 92132.05254321086 C 84983.46451183436 89931.92175330975 80830.36278051841 88148.36334923045 75707.25216537897 88148.36334923045 70584.14155023955 88148.36334923045 66431.0398189236 89931.92175330975 66431.0398189236 92132.05254321086 L 66431.0398189236 72213.60657330882 C 66431.0398189236 70013.47578340772 70584.14155023955 68229.91737932841 75707.25216537897 68229.91737932841 80830.3627805184 68229.91737932841 84983.46451183436 70013.47578340772 84983.46451183436 72213.60657330882 Z"></path></g><g><path fill="#000" fill-opacity="0" stroke="#000" stroke-opacity="0" stroke-width="3882.8025477707006" stroke-linecap="round" stroke-linejoin="round" stroke-miterlimit="10" pointer-events="visiblePainted" d="M 84983.46451183436 72213.60657330882 L 84983.46451183436 92132.05254321086 C 84983.46451183436 89931.92175330975 80830.36278051841 88148.36334923045 75707.25216537897 88148.36334923045 70584.14155023955 88148.36334923045 66431.0398189236 89931.92175330975 66431.0398189236 92132.05254321086 L 66431.0398189236 72213.60657330882 C 66431.0398189236 70013.47578340772 70584.14155023955 68229.91737932841 75707.25216537897 68229.91737932841 80830.3627805184 68229.91737932841 84983.46451183436 70013.47578340772 84983.46451183436 72213.60657330882 Z"></path></g><g></g></g></g><g id="editor-gb98267064_0_19"><g><g></g><g><path fill="#FFFFFF" fill-opacity="1" stroke="#666666" stroke-opacity="1" stroke-width="762" stroke-linecap="butt" stroke-linejoin="round" stroke-miterlimit="8" d="M 64615.71635478362 69902.6821931927 C 64397.45347878873 68650.40693247024 65114.0539057628 67410.73035073666 66461.43765588266 66709.69292434576 67808.82140600253 66008.65549795485 69550.68652260376 65969.2040232714 70947.8954199786 66608.07921544733 71442.82934945848 65879.95443488806 72348.70311902856 65377.23447961784 73391.50743981483 65251.982409715965 74434.31176060108 65126.730339814094 75491.5651816016 65393.6575013661 76243.46899820719 65972.02359238405 76665.08921380166 65311.85880847908 77492.94775461545 64868.3124507102 78433.27743590591 64798.7777914794 79373.60711719637 64729.2431322486 80293.3281682505 65043.56103555407 80866.0758170734 65630.19519293726 81627.79425946559 64930.42224414145 82839.7074723244 64635.788728660686 83977.41373271104 64873.7842402334 85115.11999309764 65111.77975180611 85974.277107831 65839.65817353435 86183.12291897691 66742.46238275101 87116.35716734287 66941.20087787561 87893.72173430311 67446.42046013981 88314.37050382546 68127.58856457483 88735.0192733478 68808.75666900986 88757.68754460242 69599.05223234183 88376.51856204352 70294.28818307434 89295.48201180107 71228.06605331427 89510.45063161141 72472.31371544907 88941.20196251891 73562.70010993014 88371.95329342644 74653.08650441121 87104.01045751953 75425.7935078033 85610.5471310369 75592.46063326404 85600.02057487465 76615.8272220264 84881.14520894716 77554.85610254445 83731.00705324298 78047.60445762152 82580.8688975388 78540.35281269858 81179.06584202331 78509.87635141029 80065.9141193434 77967.9220354164 79591.77048683778 79193.58056494339 78257.2145980393 80095.40845476871 76638.82393675935 80283.78271501928 75020.43327547939 80472.15697526984 73408.33615835289 79913.3078194958 72499.0181408025 78848.67874419726 71384.38454830211 79373.43787724862 70046.91689544191 79524.60433944782 68788.32092792804 79268.07802369614 67529.72496041415 79011.55170794445 66456.01869399563 78368.94114603876 65809.40862173148 77485.2063288721 64670.392982511345 77589.26841602124 63569.12227620289 77128.53984777536 63052.15318934795 76331.67855375446 62535.184102493 75534.81725973355 62712.56699120803 74571.45595379274 63496.267366470514 73919.70738359842 62480.235926225 73452.82588173957 61961.79543641185 72526.37795203179 62211.292273779916 71623.46984478598 62460.78911114798 70720.56173754018 63421.68637254615 70045.79575854992 64592.91383265209 69951.03589444012 Z"></path><path stroke="#666666" stroke-opacity="1" stroke-width="762" stroke-linecap="butt" stroke-linejoin="round" stroke-miterlimit="8" d="M 63496.554963259594 73919.61818631896 C 63976.02328510294 74139.94098473736 64529.921630448545 74239.88461412447 65083.88008562176 74206.03000733143 M 65809.44673040135 77485.19690557095 C 66047.66923460011 77463.43255911316 66281.17257648485 77417.34386046362 66503.9349152635 77348.11939563285 M 72498.72324468967 78848.61211025166 C 72331.17299954046 78652.44436792562 72190.8913558542 78442.82213968648 72080.26854060066 78223.31713092799 M 80065.90855490474 77967.81857660052 C 80152.35201793202 77744.36272795539 80208.35990517588 77514.37832720276 80232.99783305808 77281.7022205065 M 85610.33184281323 75592.44311457113 C 85621.53898669887 74502.91141671542 84828.90722230019 73505.32499026004 83572.89522349884 73028.17656926921 M 88376.27718558312 70294.3855598511 C 88172.86993433605 70665.39170194924 87862.3463823747 70994.50600024784 87469.0533222316 71255.92404316671 M 86183.07177106236 66742.46255429913 C 86217.72979753133 66892.28318995198 86233.7695569885 67044.355591107 86230.96872818553 67196.57193774648 M 80866.1152161456 65630.24060952137 C 80676.10430133622 65804.79920067478 80519.5603264604 65999.86613501629 80401.357584331 66209.36763451104 M 76243.46483245426 65971.99281290865 C 76142.20529275094 66130.5430428883 76066.59134731602 66298.31635890472 76018.36481000364 66471.44799918006 M 70947.81370156427 66608.06158262001 C 71243.46218375284 66743.24715238671 71516.97720309516 66905.95747509279 71762.35033043794 67092.6182188831 M 64615.71635478362 69902.6821931927 C 64645.7986442629 70075.27822780958 64693.330172657676 70245.74636862059 64757.86607343717 70412.4911363097"></path></g><g><path fill="#000" fill-opacity="0" stroke="#000" stroke-opacity="0" stroke-width="3882.8025477707006" stroke-linecap="round" stroke-linejoin="round" stroke-miterlimit="10" pointer-events="visiblePainted" d="M 64615.71635478362 69902.6821931927 C 64397.45347878873 68650.40693247024 65114.0539057628 67410.73035073666 66461.43765588266 66709.69292434576 67808.82140600253 66008.65549795485 69550.68652260376 65969.2040232714 70947.8954199786 66608.07921544733 71442.82934945848 65879.95443488806 72348.70311902856 65377.23447961784 73391.50743981483 65251.982409715965 74434.31176060108 65126.730339814094 75491.5651816016 65393.6575013661 76243.46899820719 65972.02359238405 76665.08921380166 65311.85880847908 77492.94775461545 64868.3124507102 78433.27743590591 64798.7777914794 79373.60711719637 64729.2431322486 80293.3281682505 65043.56103555407 80866.0758170734 65630.19519293726 81627.79425946559 64930.42224414145 82839.7074723244 64635.788728660686 83977.41373271104 64873.7842402334 85115.11999309764 65111.77975180611 85974.277107831 65839.65817353435 86183.12291897691 66742.46238275101 87116.35716734287 66941.20087787561 87893.72173430311 67446.42046013981 88314.37050382546 68127.58856457483 88735.0192733478 68808.75666900986 88757.68754460242 69599.05223234183 88376.51856204352 70294.28818307434 89295.48201180107 71228.06605331427 89510.45063161141 72472.31371544907 88941.20196251891 73562.70010993014 88371.95329342644 74653.08650441121 87104.01045751953 75425.7935078033 85610.5471310369 75592.46063326404 85600.02057487465 76615.8272220264 84881.14520894716 77554.85610254445 83731.00705324298 78047.60445762152 82580.8688975388 78540.35281269858 81179.06584202331 78509.87635141029 80065.9141193434 77967.9220354164 79591.77048683778 79193.58056494339 78257.2145980393 80095.40845476871 76638.82393675935 80283.78271501928 75020.43327547939 80472.15697526984 73408.33615835289 79913.3078194958 72499.0181408025 78848.67874419726 71384.38454830211 79373.43787724862 70046.91689544191 79524.60433944782 68788.32092792804 79268.07802369614 67529.72496041415 79011.55170794445 66456.01869399563 78368.94114603876 65809.40862173148 77485.2063288721 64670.392982511345 77589.26841602124 63569.12227620289 77128.53984777536 63052.15318934795 76331.67855375446 62535.184102493 75534.81725973355 62712.56699120803 74571.45595379274 63496.267366470514 73919.70738359842 62480.235926225 73452.82588173957 61961.79543641185 72526.37795203179 62211.292273779916 71623.46984478598 62460.78911114798 70720.56173754018 63421.68637254615 70045.79575854992 64592.91383265209 69951.03589444012 Z"></path><path stroke="#000" stroke-opacity="0" stroke-width="3882.8025477707006" stroke-linecap="round" stroke-linejoin="round" stroke-miterlimit="10" pointer-events="visiblePainted" d="M 63496.554963259594 73919.61818631896 C 63976.02328510294 74139.94098473736 64529.921630448545 74239.88461412447 65083.88008562176 74206.03000733143 M 65809.44673040135 77485.19690557095 C 66047.66923460011 77463.43255911316 66281.17257648485 77417.34386046362 66503.9349152635 77348.11939563285 M 72498.72324468967 78848.61211025166 C 72331.17299954046 78652.44436792562 72190.8913558542 78442.82213968648 72080.26854060066 78223.31713092799 M 80065.90855490474 77967.81857660052 C 80152.35201793202 77744.36272795539 80208.35990517588 77514.37832720276 80232.99783305808 77281.7022205065 M 85610.33184281323 75592.44311457113 C 85621.53898669887 74502.91141671542 84828.90722230019 73505.32499026004 83572.89522349884 73028.17656926921 M 88376.27718558312 70294.3855598511 C 88172.86993433605 70665.39170194924 87862.3463823747 70994.50600024784 87469.0533222316 71255.92404316671 M 86183.07177106236 66742.46255429913 C 86217.72979753133 66892.28318995198 86233.7695569885 67044.355591107 86230.96872818553 67196.57193774648 M 80866.1152161456 65630.24060952137 C 80676.10430133622 65804.79920067478 80519.5603264604 65999.86613501629 80401.357584331 66209.36763451104 M 76243.46483245426 65971.99281290865 C 76142.20529275094 66130.5430428883 76066.59134731602 66298.31635890472 76018.36481000364 66471.44799918006 M 70947.81370156427 66608.06158262001 C 71243.46218375284 66743.24715238671 71516.97720309516 66905.95747509279 71762.35033043794 67092.6182188831 M 64615.71635478362 69902.6821931927 C 64645.7986442629 70075.27822780958 64693.330172657676 70245.74636862059 64757.86607343717 70412.4911363097"></path></g><g></g></g></g></g></g></g></g></svg>