<svg xmlns="http://www.w3.org/2000/svg" xmlns:xlink="http://www.w3.org/1999/xlink" version="1.1" fill-rule="evenodd" fill="none" stroke="none" stroke-linecap="square" stroke-miterlimit="10" overflow="hidden" viewBox="6858 13335 358140 268605"><rect fill="#ffffff" fill-opacity="0" width="100%" height="100%"></rect><g transform="translate(6858 13335) scale(0.98125)"><defs cursor="default"><radialGradient gradientUnits="userSpaceOnUse" gradientTransform="matrix(478.1213235152768,0,0,478.1213235152768,0,0)" cx="382.4970588122215" cy="286.87279410916614" r="478.12132351527686" id="gradient-27768"><stop offset="0%" stop-color="#FFFFFF" stop-opacity="1"></stop><stop offset="30%" stop-color="#FFFFFF" stop-opacity="1"></stop><stop offset="100%" stop-color="#CCCCCC" stop-opacity="1"></stop></radialGradient></defs><g id="editor-gbab6d009d_0_22"><g></g><path fill="#fff" fill-opacity="1" d="M 0 0 L 365760 0 365760 274320 0 274320 Z"></path><g id="editor-gbab6d009d_0_22-bg"><g><g></g><g><g><path fill="url(#gradient-27768)" d="M 0 0 L 365760 0 365760 274320 0 274320 Z"></path></g><g></g></g><g></g></g></g><g id="editor-gb9563dfae_0_1"></g><g id="editor-gb9563dfae_0_2"></g><g id="editor-gb9563dfae_0_3"></g><g id="editor-gb9563dfae_0_5"></g><g id="editor-gb9563dfae_0_6"></g><g id="editor-gb9563dfae_0_7"></g><g id="editor-gbab6d009d_0_23"><g><g></g><g><path stroke="#666666" stroke-opacity="1" stroke-width="3048" stroke-linecap="butt" stroke-linejoin="round" stroke-miterlimit="8" d="M 56043 45262.919999999955 L 56043 137611.08347900386"></path><path fill="#666666" fill-opacity="1" stroke="#666666" stroke-opacity="1" stroke-width="3048" stroke-linecap="butt" stroke-linejoin="miter" stroke-miterlimit="10" d="M 56043 45262.919999999955 C 53273.8663557384 45262.919999999955 51029.04 43018.09364426156 51029.04 40248.959999999955 51029.04 37479.82635573835 53273.86635573839 35234.999999999956 56043 35234.999999999956 58812.1336442616 35234.999999999956 61056.96 37479.82635573835 61056.96 40248.959999999955 61056.96 43018.09364426156 58812.13364426161 45262.919999999955 56043 45262.919999999955"></path><path stroke="#666666" stroke-opacity="1" stroke-width="3048" stroke-linecap="butt" stroke-linejoin="miter" stroke-miterlimit="10" d="M 56043 137611.08347900386 C 58812.1336442616 137611.08347900386 61056.96 139855.90983474226 61056.96 142625.04347900386 61056.96 145394.17712326546 58812.13364426161 147639.00347900385 56043 147639.00347900388 53273.8663557384 147639.00347900388 51029.04 145394.17712326546 51029.04 142625.04347900386 51029.04 139855.90983474226 53273.86635573839 137611.08347900386 56043 137611.08347900386"></path></g><g><path stroke="#000" stroke-opacity="0" stroke-width="3882.8025477707006" stroke-linecap="round" stroke-linejoin="round" stroke-miterlimit="10" pointer-events="visiblePainted" d="M 56043 45262.919999999955 L 56043 137611.08347900386"></path></g></g></g><g id="editor-gbab6d009d_0_24"><g><g></g><g><path stroke="#666666" stroke-opacity="1" stroke-width="762" stroke-linecap="butt" stroke-linejoin="round" stroke-miterlimit="8" stroke-dasharray="3048,2286" d="M 56039 34553 L 56039 11256.210783974737"></path><path fill="#666666" fill-opacity="1" stroke="#666666" stroke-opacity="1" stroke-width="762" stroke-linecap="butt" stroke-linejoin="miter" stroke-miterlimit="10" d="M 56039 11256.210783974737 L 56895.874409164455 12113.085193139188 56039 9759.034618511574 55182.125590835545 12113.085193139188 Z"></path></g><g><path stroke="#000" stroke-opacity="0" stroke-width="3882.8025477707006" stroke-linecap="round" stroke-linejoin="round" stroke-miterlimit="10" pointer-events="visiblePainted" d="M 56039 34553 L 56039 11256.210783974737"></path></g></g></g><g id="editor-gbab6d009d_0_25"><g><g></g><g><path stroke="#666666" stroke-opacity="1" stroke-width="762" stroke-linecap="butt" stroke-linejoin="round" stroke-miterlimit="8" stroke-dasharray="3048,2286" d="M 56043 274417.84375 L 56043 151365.0592603853"></path><path fill="#666666" fill-opacity="1" stroke="#666666" stroke-opacity="1" stroke-width="762" stroke-linecap="butt" stroke-linejoin="miter" stroke-miterlimit="10" d="M 56043 151365.0592603853 L 56899.874409164455 152221.93366954973 56043 149867.88309492212 55186.125590835545 152221.93366954973 Z"></path></g><g><path stroke="#000" stroke-opacity="0" stroke-width="3882.8025477707006" stroke-linecap="round" stroke-linejoin="round" stroke-miterlimit="10" pointer-events="visiblePainted" d="M 56043 274417.84375 L 56043 151365.0592603853"></path></g></g></g><g id="editor-gbab6d009d_0_26"><g><g></g><g><path d="M 27432 104965.8515625 L 338328.00563049316 104965.8515625 338328.00563049316 166825.85264968872 27432 166825.85264968872 Z"></path></g><g></g><g><path fill="#000" fill-opacity="0" stroke="#000" stroke-opacity="0" stroke-width="3882.8025477707006" stroke-linecap="round" stroke-linejoin="round" stroke-miterlimit="10" pointer-events="visiblePainted" d="M 27432 104965.8515625 L 338328.00563049316 104965.8515625 338328.00563049316 166825.85264968872 27432 166825.85264968872 Z"></path></g><g><g direction="ltr" style="opacity: 1;"><g transform="matrix(380.99999999999994,0,0,381,31089,119353.85264968872)"><g pointer-events="none"><g id="editor-gbab6d009d_0_26-paragraph-0"><g><g class="sketchy-text-background" visibility="visible"></g><g class="sketchy-text-content" visibility="visible"><g class="sketchy-text-content-text" transform="translate(0 61.44)"><text x="202.80783219224827px" style="font-family:Arial;font-size:64px;fill:#000000;font-weight:700;" y="0px" text-rendering="geometricPrecision">Hello:</text><text x="398.37033219224827px" style="font-family:Arial;font-size:64px;fill:#000000;font-weight:700;" y="0px" text-rendering="geometricPrecision">“Mars”</text></g></g></g></g><g id="editor-gbab6d009d_0_26-paragraph-1" transform="translate(0, 77)"><g><g class="sketchy-text-background" visibility="visible"></g><g class="sketchy-text-content" visibility="visible"><g class="sketchy-text-content-text" transform="translate(0 30.72)"><text x="347.70626969224827px" style="font-family:Arial;font-size:32px;fill:#980000;font-weight:700;" y="0px" text-rendering="geometricPrecision">state</text><text x="431.30001969224827px" style="font-family:Arial;font-size:32px;fill:#980000;font-weight:700;" y="0px" text-rendering="geometricPrecision">9</text></g></g></g></g></g><rect style="opacity: 0;"></rect><rect style="opacity: 1;"></rect></g><g><path d="M 101584.12781524658 119353.85264968872 L 264175.8778152466 119353.85264968872 264175.8778152466 163321.25264968871 101584.12781524658 163321.25264968871 Z" pointer-events="visiblePainted" fill="#000000" stroke="#000000" opacity="0"></path></g><g transform="matrix(380.99999999999994,0,0,381,31089,119353.85264968872)"></g></g></g></g></g><g id="editor-gbab6d009d_0_28"><g><g></g><g><path d="M 61985 29975 L 123880.99990844727 29975 123880.99990844727 50146.99993133545 61985 50146.99993133545 Z"></path></g><g></g><g><path fill="#000" fill-opacity="0" stroke="#000" stroke-opacity="0" stroke-width="3882.8025477707006" stroke-linecap="round" stroke-linejoin="round" stroke-miterlimit="10" pointer-events="visiblePainted" d="M 61985 29975 L 123880.99990844727 29975 123880.99990844727 50146.99993133545 61985 50146.99993133545 Z"></path></g><g><g direction="ltr" style="opacity: 1;"><g transform="matrix(381,0,0,381,65642,32011.99993133545)"><g pointer-events="none"><g id="editor-gbab6d009d_0_28-paragraph-0"><g><g class="sketchy-text-background" visibility="visible"></g><g class="sketchy-text-content" visibility="visible"><g class="sketchy-text-content-text" transform="translate(0 30.72)"><text x="0px" style="font-family:Arial;font-size:32px;fill:#980000;font-weight:700;" y="0px" text-rendering="geometricPrecision">state</text><text x="83.59375px" style="font-family:Arial;font-size:32px;fill:#980000;font-weight:700;" y="0px" text-rendering="geometricPrecision">12</text></g></g></g></g></g><rect style="opacity: 0;"></rect><rect style="opacity: 1;"></rect></g><g><path d="M 65642 32011.99993133545 L 111052.4375 32011.99993133545 111052.4375 46642.39993133545 65642 46642.39993133545 Z" pointer-events="visiblePainted" fill="#000000" stroke="#000000" opacity="0"></path></g><g transform="matrix(381,0,0,381,65642,32011.99993133545)"></g></g></g></g></g><g id="editor-gbab6d009d_0_29"><g><g></g><g><path stroke="#666666" stroke-opacity="1" stroke-width="1524" stroke-linecap="butt" stroke-linejoin="round" stroke-miterlimit="8" d="M 99446 142947 L 76837.99895286566 142947"></path><path fill="#666666" fill-opacity="1" stroke="#666666" stroke-opacity="1" stroke-width="1524" stroke-linecap="butt" stroke-linejoin="miter" stroke-miterlimit="10" d="M 76837.99895286566 140429.60154385964 L 69922.06912830425 142947 76837.99895286566 145464.39845614036 Z"></path></g><g><path stroke="#000" stroke-opacity="0" stroke-width="3882.8025477707006" stroke-linecap="round" stroke-linejoin="round" stroke-miterlimit="10" pointer-events="visiblePainted" d="M 99446 142947 L 76837.99895286566 142947"></path></g></g></g><g id="editor-gbab6d009d_0_32"><g><g></g><g><path d="M 27432 151500.921875 L 338328.00563049316 151500.921875 338328.00563049316 213360.92296218872 27432 213360.92296218872 Z"></path></g><g></g><g><path fill="#000" fill-opacity="0" stroke="#000" stroke-opacity="0" stroke-width="3882.8025477707006" stroke-linecap="round" stroke-linejoin="round" stroke-miterlimit="10" pointer-events="visiblePainted" d="M 27432 151500.921875 L 338328.00563049316 151500.921875 338328.00563049316 213360.92296218872 27432 213360.92296218872 Z"></path></g><g><g direction="ltr" style="opacity: 1;"><g transform="matrix(380.99999999999994,0,0,381,31089,165888.92296218872)"><g pointer-events="none"><g id="editor-gbab6d009d_0_32-paragraph-0"><g><g class="sketchy-text-background" visibility="visible"></g><g class="sketchy-text-content" visibility="visible"><g class="sketchy-text-content-text" transform="translate(0 61.44)"><text x="195.71408219224827px" style="font-family:Arial;font-size:64px;fill:#000000;font-weight:700;" y="0px" text-rendering="geometricPrecision">Hello:</text><text x="391.27658219224827px" style="font-family:Arial;font-size:64px;fill:#000000;font-weight:700;" y="0px" text-rendering="geometricPrecision">“Earth”</text></g></g></g></g><g id="editor-gbab6d009d_0_32-paragraph-1" transform="translate(0, 77)"><g><g class="sketchy-text-background" visibility="visible"></g><g class="sketchy-text-content" visibility="visible"><g class="sketchy-text-content-text" transform="translate(0 30.72)"><text x="347.70626969224827px" style="font-family:Arial;font-size:32px;fill:#980000;font-weight:700;" y="0px" text-rendering="geometricPrecision">state</text><text x="431.30001969224827px" style="font-family:Arial;font-size:32px;fill:#980000;font-weight:700;" y="0px" text-rendering="geometricPrecision">9</text></g></g></g></g></g><rect style="opacity: 0;"></rect><rect style="opacity: 1;"></rect></g><g><path d="M 98881.40906524658 165888.92296218872 L 266878.5965652466 165888.92296218872 266878.5965652466 209856.32296218871 98881.40906524658 209856.32296218871 Z" pointer-events="visiblePainted" fill="#000000" stroke="#000000" opacity="0"></path></g><g transform="matrix(380.99999999999994,0,0,381,31089,165888.92296218872)"></g></g></g></g></g><g id="editor-gbab6d009d_0_34"><g><g></g><g><path stroke="#666666" stroke-opacity="1" stroke-width="1524" stroke-linecap="butt" stroke-linejoin="round" stroke-miterlimit="8" d="M 67787.62672658413 151578.10392618924 L 68603.31093432009 152035.7088370463 C 69491.39886075258 152647.44513477013 70329.59420704842 153337.60916297138 71127.87548923492 154090.51537555456 74321.00061798096 157102.1402258873 76875.50072097778 161117.64002633095 79430.00082397461 165133.1398267746 84539.00102996826 173164.1394276619 89648.00123596191 181195.1390285492 99866.00164794922 181195.1390285492"></path><path fill="#666666" fill-opacity="1" stroke="#666666" stroke-opacity="1" stroke-width="1524" stroke-linecap="butt" stroke-linejoin="miter" stroke-miterlimit="10" d="M 68477.80887269242 149157.16534948573 L 61136.696570805274 149681.99912918845 67097.44458047584 153999.04250289276 Z"></path></g><g><path stroke="#000" stroke-opacity="0" stroke-width="3882.8025477707006" stroke-linecap="round" stroke-linejoin="round" stroke-miterlimit="10" pointer-events="visiblePainted" d="M 67787.62672658413 151578.10392618924 L 68603.31093432009 152035.7088370463 C 69491.39886075258 152647.44513477013 70329.59420704842 153337.60916297138 71127.87548923492 154090.51537555456 74321.00061798096 157102.1402258873 76875.50072097778 161117.64002633095 79430.00082397461 165133.1398267746 84539.00102996826 173164.1394276619 89648.00123596191 181195.1390285492 99866.00164794922 181195.1390285492"></path></g></g></g></g></g></svg>