<svg xmlns="http://www.w3.org/2000/svg" xmlns:xlink="http://www.w3.org/1999/xlink" version="1.1" fill-rule="evenodd" fill="none" stroke="none" stroke-linecap="square" stroke-miterlimit="10" overflow="hidden" viewBox="6858 13335 358140 268605"><rect fill="#ffffff" fill-opacity="0" width="100%" height="100%"></rect><g transform="translate(6858 13335) scale(0.98125)"><defs cursor="default"></defs><g id="editor-gbab6d009d_0_49"><g></g><path fill="#fff" fill-opacity="1" d="M 0 0 L 365760 0 365760 274320 0 274320 Z"></path><g id="editor-gbab6d009d_0_49-bg"><g><g></g><g><g></g><g><g><g><clipPath id="e171_11"><path d="M 0 0 L 365760 0 365760 274319.99999999994 0 274319.99999999994 Z"></path></clipPath><g clip-path="url(#e171_11)"><image fill="#000000" width="800" height="400" preserveAspectRatio="none" transform="matrix(457.2,0,0,685.7999999999998,0,0)" x="0" y="0" xmlns:xlink="http://www.w3.org/1999/xlink" xlink:href="filesystem:https://docs.google.com/persistent/docs/documents/1XEj6tgt0NbBzzMKIlJ2kuMWH41hY7IkUdCmUWahipdA/image/13lwNgNqXyoA0Rq0FAqfodQ6S-Ef8bNprvq3w_MBr"></image></g></g></g></g></g><g></g></g></g><g id="editor-gb9563dfae_0_1"></g><g id="editor-gb9563dfae_0_2"></g><g id="editor-gb9563dfae_0_3"></g><g id="editor-gb9563dfae_0_9"></g><g id="editor-gb9563dfae_0_10"></g><g id="editor-gb9563dfae_0_11"></g><g id="editor-gbab6d009d_0_50"><g><g></g><g><path d="M 18288 10985.51953125 L 347472.0076446533 10985.51953125 347472.0076446533 56705.520990371704 18288 56705.520990371704 Z"></path></g><g></g><g><path fill="#000" fill-opacity="0" stroke="#000" stroke-opacity="0" stroke-width="3882.8025477707006" stroke-linecap="round" stroke-linejoin="round" stroke-miterlimit="10" pointer-events="visiblePainted" d="M 18288 10985.51953125 L 347472.0076446533 10985.51953125 347472.0076446533 56705.520990371704 18288 56705.520990371704 Z"></path></g><g><g direction="ltr" style="opacity: 1;"><g transform="matrix(381,0,0,380.99999999999994,21945,30950.5209903717)"><g pointer-events="none"><g id="editor-gbab6d009d_0_50-paragraph-0"><g><g class="sketchy-text-background" visibility="visible"></g><g class="sketchy-text-content" visibility="visible"><g class="sketchy-text-content-text" transform="translate(0 46.08)"><text x="302.35470983550306px" style="font-family:Arial;font-size:48px;fill:#FFD966;font-weight:700;font-style:italic;" y="0px" text-rendering="geometricPrecision">Eventually</text></g></g></g></g></g><rect style="opacity: 0;"></rect><rect style="opacity: 1;"></rect></g><g><path d="M 137142.14444732666 30950.5209903717 L 228617.86319732666 30950.5209903717 228617.86319732666 52896.120990371695 137142.14444732666 52896.120990371695 Z" pointer-events="visiblePainted" fill="#000000" stroke="#000000" opacity="0"></path></g><g transform="matrix(381,0,0,380.99999999999994,21945,30950.5209903717)"></g></g></g></g></g><g id="editor-gbab6d009d_0_51"><g><g></g><g><path d="M 18288 64008 L 347472.0076446533 64008 347472.0076446533 262716.00018310547 18288 262716.00018310547 Z"></path></g><g></g><g><path fill="#000" fill-opacity="0" stroke="#000" stroke-opacity="0" stroke-width="3882.8025477707006" stroke-linecap="round" stroke-linejoin="round" stroke-miterlimit="10" pointer-events="visiblePainted" d="M 18288 64008 L 347472.0076446533 64008 347472.0076446533 262716.00018310547 18288 262716.00018310547 Z"></path></g><g><g direction="ltr" style="opacity: 1;"><g transform="matrix(381,0,0,381,21945,67665)"><g pointer-events="none"><g id="editor-gbab6d009d_0_51-paragraph-0"><g><g class="sketchy-text-background" visibility="visible"></g><g class="sketchy-text-content" visibility="visible"></g></g></g></g><rect style="opacity: 0;"></rect><rect style="opacity: 1;"></rect></g><g><path d="M 21945 70713 L 21945 70713 21945 89001 21945 89001 Z" pointer-events="visiblePainted" fill="#000000" stroke="#000000" opacity="0"></path></g><g transform="matrix(381,0,0,381,21945,67665)"></g></g></g></g></g><g id="editor-gbab6d009d_0_52"><g><g></g><g><g></g><g><g><g><clipPath id="e171_50"><path d="M 39691.703125 80010 L 155536.2801513672 80010 155536.2801513672 194309.98266601562 39691.703125 194309.98266601562 Z"></path></clipPath><g clip-path="url(#e171_50)"><image fill="#000000" width="600" height="592" preserveAspectRatio="none" transform="matrix(193.0742950439453,0,0,193.0742950439453,39691.703125,80010)" x="0" y="0" xmlns:xlink="http://www.w3.org/1999/xlink" xlink:href="filesystem:https://docs.google.com/persistent/docs/documents/1XEj6tgt0NbBzzMKIlJ2kuMWH41hY7IkUdCmUWahipdA/image/1OxjinBzMcBV_XiBpH-ivFKXNsFQLUMyXWvgZtxA9"></image></g></g></g></g><g></g></g><g><path stroke="#000" stroke-opacity="0" stroke-width="3882.8025477707006" stroke-linecap="round" stroke-linejoin="round" stroke-miterlimit="10" pointer-events="visiblePainted" d="M 39691.703125 80010 L 155536.2801513672 80010 155536.2801513672 194309.98266601562 39691.703125 194309.98266601562 Z"></path><path fill="#000" fill-opacity="0" pointer-events="visiblePainted" d="M 39691.703125 80010 L 155536.2801513672 80010 155536.2801513672 194309.98266601562 39691.703125 194309.98266601562 Z"></path></g></g></g><g id="editor-gbab6d009d_0_53"><g><g></g><g><g></g><g><g><g><clipPath id="e171_66"><path d="M 211272 80010 L 325572 80010 325572 194310 211272 194310 Z"></path></clipPath><g clip-path="url(#e171_66)"><image fill="#000000" width="300" height="300" preserveAspectRatio="none" transform="matrix(381,0,0,381,211272,80010)" x="0" y="0" xmlns:xlink="http://www.w3.org/1999/xlink" xlink:href="filesystem:https://docs.google.com/persistent/docs/documents/1XEj6tgt0NbBzzMKIlJ2kuMWH41hY7IkUdCmUWahipdA/image/10mgRoVRrqc520vQR8e6g3J5S2u22BlbwgAnqtfag"></image></g></g></g></g><g></g></g><g><path stroke="#000" stroke-opacity="0" stroke-width="3882.8025477707006" stroke-linecap="round" stroke-linejoin="round" stroke-miterlimit="10" pointer-events="visiblePainted" d="M 211272 80010 L 325572 80010 325572 194310 211272 194310 Z"></path><path fill="#000" fill-opacity="0" pointer-events="visiblePainted" d="M 211272 80010 L 325572 80010 325572 194310 211272 194310 Z"></path></g></g></g><g id="editor-gbab6d009d_0_58"><g><g></g><g><path fill="#000000" fill-opacity="1" d="M 60159 116512.99958515167 C 60159 111509.29998079909 64215.299980799085 107453 69218.99958515167 107453 71621.86087307332 107453 73926.30721841968 108407.53293000358 75625.38672935973 110106.61244094362 77324.46624029976 111805.69195188365 78278.99917030334 114110.13829723002 78278.99917030334 116512.99958515167 78278.99917030334 121516.69918950426 74222.69918950426 125572.99917030334 69218.99958515167 125572.99917030334 64215.29998079909 125572.99917030334 60159 121516.69918950426 60159 116512.99958515167 Z"></path></g><g><path fill="#000" fill-opacity="0" stroke="#000" stroke-opacity="0" stroke-width="3882.8025477707006" stroke-linecap="round" stroke-linejoin="round" stroke-miterlimit="10" pointer-events="visiblePainted" d="M 60159 116512.99958515167 C 60159 111509.29998079909 64215.299980799085 107453 69218.99958515167 107453 71621.86087307332 107453 73926.30721841968 108407.53293000358 75625.38672935973 110106.61244094362 77324.46624029976 111805.69195188365 78278.99917030334 114110.13829723002 78278.99917030334 116512.99958515167 78278.99917030334 121516.69918950426 74222.69918950426 125572.99917030334 69218.99958515167 125572.99917030334 64215.29998079909 125572.99917030334 60159 121516.69918950426 60159 116512.99958515167 Z"></path></g><g></g></g></g><g id="editor-gbab6d009d_0_59"><g><g></g><g><path fill="#000000" fill-opacity="1" d="M 115023 116512.99958515167 C 115023 111509.29998079909 119079.29998079909 107453 124082.99958515167 107453 126485.86087307332 107453 128790.30721841968 108407.53293000358 130489.38672935973 110106.61244094362 132188.46624029978 111805.69195188365 133142.99917030334 114110.13829723002 133142.99917030334 116512.99958515167 133142.99917030334 121516.69918950426 129086.69918950426 125572.99917030334 124082.99958515167 125572.99917030334 119079.29998079909 125572.99917030334 115023 121516.69918950426 115023 116512.99958515167 Z"></path></g><g><path fill="#000" fill-opacity="0" stroke="#000" stroke-opacity="0" stroke-width="3882.8025477707006" stroke-linecap="round" stroke-linejoin="round" stroke-miterlimit="10" pointer-events="visiblePainted" d="M 115023 116512.99958515167 C 115023 111509.29998079909 119079.29998079909 107453 124082.99958515167 107453 126485.86087307332 107453 128790.30721841968 108407.53293000358 130489.38672935973 110106.61244094362 132188.46624029978 111805.69195188365 133142.99917030334 114110.13829723002 133142.99917030334 116512.99958515167 133142.99917030334 121516.69918950426 129086.69918950426 125572.99917030334 124082.99958515167 125572.99917030334 119079.29998079909 125572.99917030334 115023 121516.69918950426 115023 116512.99958515167 Z"></path></g><g></g></g></g><g id="editor-gbab6d009d_0_60"><g><g></g><g><path fill="#000000" fill-opacity="1" d="M 133996.00155639648 156329.99962234497 C 133996.00155639648 167543.5893914825 117706.32954582885 176634 97612.00077819824 176634 77517.67201056765 176634 61228.00000000001 167543.58939148253 61228 156329.99962234497 69817.09747706003 162720.83202808897 83296.83831643152 166481.99981117249 97612.00077819824 166481.99981117249 111927.16323996498 166481.99981117249 125406.90407933645 162720.83202808897 133996.00155639648 156329.99962234497 Z"></path></g><g><path fill="#000" fill-opacity="0" stroke="#000" stroke-opacity="0" stroke-width="3882.8025477707006" stroke-linecap="round" stroke-linejoin="round" stroke-miterlimit="10" pointer-events="visiblePainted" d="M 133996.00155639648 156329.99962234497 C 133996.00155639648 167543.5893914825 117706.32954582885 176634 97612.00077819824 176634 77517.67201056765 176634 61228.00000000001 167543.58939148253 61228 156329.99962234497 69817.09747706003 162720.83202808897 83296.83831643152 166481.99981117249 97612.00077819824 166481.99981117249 111927.16323996498 166481.99981117249 125406.90407933645 162720.83202808897 133996.00155639648 156329.99962234497 Z"></path></g><g></g></g></g><g id="editor-gbab6d009d_0_61"><g><g></g><g><path fill="#000000" fill-opacity="1" d="M 231503.5 116512.99958515167 C 231503.5 111509.29998079909 235559.7999807991 107453 240563.49958515167 107453 242966.3608730733 107453 245270.80721841968 108407.53293000358 246969.88672935974 110106.61244094362 248668.96624029978 111805.69195188365 249623.49917030334 114110.13829723002 249623.49917030334 116512.99958515167 249623.49917030334 121516.69918950426 245567.19918950426 125572.99917030334 240563.49958515167 125572.99917030334 235559.7999807991 125572.99917030334 231503.5 121516.69918950426 231503.5 116512.99958515167 Z"></path></g><g><path fill="#000" fill-opacity="0" stroke="#000" stroke-opacity="0" stroke-width="3882.8025477707006" stroke-linecap="round" stroke-linejoin="round" stroke-miterlimit="10" pointer-events="visiblePainted" d="M 231503.5 116512.99958515167 C 231503.5 111509.29998079909 235559.7999807991 107453 240563.49958515167 107453 242966.3608730733 107453 245270.80721841968 108407.53293000358 246969.88672935974 110106.61244094362 248668.96624029978 111805.69195188365 249623.49917030334 114110.13829723002 249623.49917030334 116512.99958515167 249623.49917030334 121516.69918950426 245567.19918950426 125572.99917030334 240563.49958515167 125572.99917030334 235559.7999807991 125572.99917030334 231503.5 121516.69918950426 231503.5 116512.99958515167 Z"></path></g><g></g></g></g><g id="editor-gbab6d009d_0_62"><g><g></g><g><path fill="#000000" fill-opacity="1" d="M 286367.5 116512.99958515167 C 286367.5 111509.29998079909 290423.7999807991 107453 295427.4995851517 107453 297830.36087307334 107453 300134.8072184197 108407.53293000358 301833.88672935974 110106.61244094362 303532.96624029975 111805.69195188365 304487.49917030334 114110.13829723002 304487.49917030334 116512.99958515167 304487.49917030334 121516.69918950426 300431.19918950426 125572.99917030334 295427.4995851517 125572.99917030334 290423.7999807991 125572.99917030334 286367.5 121516.69918950426 286367.5 116512.99958515167 Z"></path></g><g><path fill="#000" fill-opacity="0" stroke="#000" stroke-opacity="0" stroke-width="3882.8025477707006" stroke-linecap="round" stroke-linejoin="round" stroke-miterlimit="10" pointer-events="visiblePainted" d="M 286367.5 116512.99958515167 C 286367.5 111509.29998079909 290423.7999807991 107453 295427.4995851517 107453 297830.36087307334 107453 300134.8072184197 108407.53293000358 301833.88672935974 110106.61244094362 303532.96624029975 111805.69195188365 304487.49917030334 114110.13829723002 304487.49917030334 116512.99958515167 304487.49917030334 121516.69918950426 300431.19918950426 125572.99917030334 295427.4995851517 125572.99917030334 290423.7999807991 125572.99917030334 286367.5 121516.69918950426 286367.5 116512.99958515167 Z"></path></g><g></g></g></g><g id="editor-gbab6d009d_0_63"><g><g></g><g><path fill="#000000" fill-opacity="1" d="M 305340.5015563965 156329.99962234497 C 305340.5015563965 167543.5893914825 289050.82954582886 176634 268956.50077819824 176634 248862.17201056765 176634 232572.5 167543.58939148253 232572.5 156329.99962234497 241161.59747706004 162720.83202808897 254641.33831643153 166481.99981117249 268956.50077819824 166481.99981117249 283271.663239965 166481.99981117249 296751.40407933644 162720.83202808897 305340.5015563965 156329.99962234497 Z"></path></g><g><path fill="#000" fill-opacity="0" stroke="#000" stroke-opacity="0" stroke-width="3882.8025477707006" stroke-linecap="round" stroke-linejoin="round" stroke-miterlimit="10" pointer-events="visiblePainted" d="M 305340.5015563965 156329.99962234497 C 305340.5015563965 167543.5893914825 289050.82954582886 176634 268956.50077819824 176634 248862.17201056765 176634 232572.5 167543.58939148253 232572.5 156329.99962234497 241161.59747706004 162720.83202808897 254641.33831643153 166481.99981117249 268956.50077819824 166481.99981117249 283271.663239965 166481.99981117249 296751.40407933644 162720.83202808897 305340.5015563965 156329.99962234497 Z"></path></g><g></g></g></g></g></g></svg>