<svg xmlns="http://www.w3.org/2000/svg" xmlns:xlink="http://www.w3.org/1999/xlink" version="1.1" fill-rule="evenodd" fill="none" stroke="none" stroke-linecap="square" stroke-miterlimit="10" overflow="hidden" viewBox="6858 13335 358140 268605"><rect fill="#ffffff" fill-opacity="0" width="100%" height="100%"></rect><g transform="translate(6858 13335) scale(0.98125)"><defs cursor="default"></defs><g id="editor-gbab6d009d_0_89"><g></g><path fill="#fff" fill-opacity="1" d="M 0 0 L 365760 0 365760 274320 0 274320 Z"></path><g id="editor-gbab6d009d_0_89-bg"><g><g></g><g><path fill="#000000" fill-opacity="1" d="M 0 0 L 365760 0 365760 274320 0 274320 Z"></path></g><g></g></g></g><g id="editor-gb9563dfae_0_1"></g><g id="editor-gb9563dfae_0_2"></g><g id="editor-gb9563dfae_0_3"></g><g id="editor-gb9563dfae_0_5"></g><g id="editor-gb9563dfae_0_6"></g><g id="editor-gb9563dfae_0_7"></g><g id="editor-gbab6d009d_0_90"><g><g></g><g><path d="M 27432 84444.921875 L 338328.00563049316 84444.921875 338328.00563049316 146304.92296218872 27432 146304.92296218872 Z"></path></g><g></g><g><path fill="#000" fill-opacity="0" stroke="#000" stroke-opacity="0" stroke-width="3882.8025477707006" stroke-linecap="round" stroke-linejoin="round" stroke-miterlimit="10" pointer-events="visiblePainted" d="M 27432 84444.921875 L 338328.00563049316 84444.921875 338328.00563049316 146304.92296218872 27432 146304.92296218872 Z"></path></g><g><g direction="ltr" style="opacity: 1;"><g transform="matrix(380.99999999999994,0,0,381,31089,113310.92296218872)"><g pointer-events="none"><g id="editor-gbab6d009d_0_90-paragraph-0"><g><g class="sketchy-text-background" visibility="visible"></g><g class="sketchy-text-content" visibility="visible"><g class="sketchy-text-content-text" transform="translate(0 61.44)"><text x="38.18283219224827px" style="font-family:Arial;font-size:64px;fill:#FFFFFF;font-weight:700;" y="0px" text-rendering="geometricPrecision">What</text><text x="212.37033219224827px" style="font-family:Arial;font-size:64px;fill:#FFFFFF;font-weight:700;" y="0px" text-rendering="geometricPrecision">Could</text><text x="411.43283219224827px" style="font-family:Arial;font-size:64px;fill:#FFFFFF;font-weight:700;" y="0px" text-rendering="geometricPrecision">Go</text><text x="518.0890821922483px" style="font-family:Arial;font-size:64px;fill:#FFFFFF;font-weight:700;" y="0px" text-rendering="geometricPrecision">Wrong?</text></g></g></g></g></g><rect style="opacity: 0;"></rect><rect style="opacity: 1;"></rect></g><g><path d="M 45636.65906524659 113310.92296218872 L 320123.3465652465 113310.92296218872 320123.3465652465 142571.7229621887 45636.65906524659 142571.7229621887 Z" pointer-events="visiblePainted" fill="#000000" stroke="#000000" opacity="0"></path></g><g transform="matrix(380.99999999999994,0,0,381,31089,113310.92296218872)"></g></g></g></g></g><g id="editor-gbab6d009d_0_91"><g><g></g><g><path d="M 27432 151469.515625 L 338328.00563049316 151469.515625 338328.00563049316 193325.5160484314 27432 193325.5160484314 Z"></path></g><g></g><g><path fill="#000" fill-opacity="0" stroke="#000" stroke-opacity="0" stroke-width="3882.8025477707006" stroke-linecap="round" stroke-linejoin="round" stroke-miterlimit="10" pointer-events="visiblePainted" d="M 27432 151469.515625 L 338328.00563049316 151469.515625 338328.00563049316 193325.5160484314 27432 193325.5160484314 Z"></path></g><g><g direction="ltr" style="opacity: 1;"><g transform="matrix(381,0,0,381.0000000000005,31089,155126.515625)"><g pointer-events="none"><g id="editor-gbab6d009d_0_91-paragraph-0"><g><g class="sketchy-text-background" visibility="visible"></g><g class="sketchy-text-content" visibility="visible"></g></g></g></g><rect style="opacity: 0;"></rect><rect style="opacity: 1;"></rect></g><g><path d="M 182880.00281524658 155126.515625 L 182880.00281524658 155126.515625 182880.00281524658 173414.51562500003 182880.00281524658 173414.51562500003 Z" pointer-events="visiblePainted" fill="#000000" stroke="#000000" opacity="0"></path></g><g transform="matrix(381,0,0,381.0000000000005,31089,155126.515625)"></g></g></g></g></g><g id="editor-gbab6d009d_0_94"><g><g></g><g><path stroke="#FFFFFF" stroke-opacity="1" stroke-width="762" stroke-linecap="butt" stroke-linejoin="round" stroke-miterlimit="8" d="M 256201 200365.00155639648 C 256201 176744.88651605905 271859.39282893954 157597 291174.9992618561 157597 300450.6805817363 157597 309346.4541437151 162102.9015127252 315905.35130512784 170123.4576380717 322464.24846654054 178144.0137634182 326148.99852371216 189022.22230615685 326148.99852371216 200365.00155639648 326148.99852371216 223985.1165967339 310490.6056947726 243133.00311279297 291174.9992618561 243133.00311279297 271859.39282893954 243133.00311279297 256201 223985.11659673392 256201 200365.00155639648 Z"></path></g><g><path fill="#000" fill-opacity="0" stroke="#000" stroke-opacity="0" stroke-width="3882.8025477707006" stroke-linecap="round" stroke-linejoin="round" stroke-miterlimit="10" pointer-events="visiblePainted" d="M 256201 200365.00155639648 C 256201 176744.88651605905 271859.39282893954 157597 291174.9992618561 157597 300450.6805817363 157597 309346.4541437151 162102.9015127252 315905.35130512784 170123.4576380717 322464.24846654054 178144.0137634182 326148.99852371216 189022.22230615685 326148.99852371216 200365.00155639648 326148.99852371216 223985.1165967339 310490.6056947726 243133.00311279297 291174.9992618561 243133.00311279297 271859.39282893954 243133.00311279297 256201 223985.11659673392 256201 200365.00155639648 Z"></path></g><g></g></g></g><g id="editor-gbab6d009d_0_96"><g><g></g><g><path fill="#FFFFFF" fill-opacity="1" stroke="#FFFFFF" stroke-opacity="1" stroke-width="762" stroke-linecap="butt" stroke-linejoin="round" stroke-miterlimit="8" d="M 274109.5312615335 187586.10939860344 C 273731.76848627947 185849.7261320996 274833.14800709963 184135.87213872053 276569.53127360344 183758.1093634665 277403.371923919 183576.70128135738 278275.12471210206 183733.96511059656 278993.0139753906 184195.30460384226 279710.9032386791 184656.644097088 280216.12322663126 185384.2687252209 280397.5313087404 186218.10937553644 280775.2940839944 187954.49264204028 279673.91456317424 189668.34663541935 277937.53129667044 190046.10941067338 276201.14803016663 190423.8721859274 274487.2940367875 189322.49266510727 274109.5312615335 187586.10939860344 Z"></path></g><g><path fill="#000" fill-opacity="0" stroke="#000" stroke-opacity="0" stroke-width="3882.8025477707006" stroke-linecap="round" stroke-linejoin="round" stroke-miterlimit="10" pointer-events="visiblePainted" d="M 274109.5312615335 187586.10939860344 C 273731.76848627947 185849.7261320996 274833.14800709963 184135.87213872053 276569.53127360344 183758.1093634665 277403.371923919 183576.70128135738 278275.12471210206 183733.96511059656 278993.0139753906 184195.30460384226 279710.9032386791 184656.644097088 280216.12322663126 185384.2687252209 280397.5313087404 186218.10937553644 280775.2940839944 187954.49264204028 279673.91456317424 189668.34663541935 277937.53129667044 190046.10941067338 276201.14803016663 190423.8721859274 274487.2940367875 189322.49266510727 274109.5312615335 187586.10939860344 Z"></path></g><g></g></g></g><g id="editor-gbab6d009d_0_97"><g><g></g><g><path fill="#FFFFFF" fill-opacity="1" stroke="#FFFFFF" stroke-opacity="1" stroke-width="762" stroke-linecap="butt" stroke-linejoin="round" stroke-miterlimit="8" d="M 296073.8125115335 189991.45314860344 C 295696.04973627947 188255.0698820996 296797.42925709963 186541.21588872053 298533.81252360344 186163.4531134665 299367.653173919 185982.04503135738 300239.40596210206 186139.30886059656 300957.2952253906 186600.64835384226 301675.1844886791 187061.987847088 302180.40447663126 187789.6124752209 302361.8125587404 188623.45312553644 302739.5753339944 190359.83639204028 301638.19581317424 192073.69038541935 299901.81254667044 192451.45316067338 298165.42928016663 192829.2159359274 296451.5752867875 191727.83641510727 296073.8125115335 189991.45314860344 Z"></path></g><g><path fill="#000" fill-opacity="0" stroke="#000" stroke-opacity="0" stroke-width="3882.8025477707006" stroke-linecap="round" stroke-linejoin="round" stroke-miterlimit="10" pointer-events="visiblePainted" d="M 296073.8125115335 189991.45314860344 C 295696.04973627947 188255.0698820996 296797.42925709963 186541.21588872053 298533.81252360344 186163.4531134665 299367.653173919 185982.04503135738 300239.40596210206 186139.30886059656 300957.2952253906 186600.64835384226 301675.1844886791 187061.987847088 302180.40447663126 187789.6124752209 302361.8125587404 188623.45312553644 302739.5753339944 190359.83639204028 301638.19581317424 192073.69038541935 299901.81254667044 192451.45316067338 298165.42928016663 192829.2159359274 296451.5752867875 191727.83641510727 296073.8125115335 189991.45314860344 Z"></path></g><g></g></g></g><g id="editor-gbab6d009d_0_98"><g><g></g><g><path stroke="#FFFFFF" stroke-opacity="1" stroke-width="762" stroke-linecap="butt" stroke-linejoin="round" stroke-miterlimit="8" d="M 278761.2922601104 218560.32598495483 C 288572.11413948797 216393.3076754195 302574.8742669809 218260.72488449208 307731.09593987465 226884.04050916433"></path></g><g><path stroke="#000" stroke-opacity="0" stroke-width="3882.8025477707006" stroke-linecap="round" stroke-linejoin="round" stroke-miterlimit="10" pointer-events="visiblePainted" d="M 278761.2922601104 218560.32598495483 C 288572.11413948797 216393.3076754195 302574.8742669809 218260.72488449208 307731.09593987465 226884.04050916433"></path></g></g></g><g id="editor-gbab6d009d_0_99"><g><g></g><g><path stroke="#FFFFFF" stroke-opacity="1" stroke-width="762" stroke-linecap="butt" stroke-linejoin="round" stroke-miterlimit="8" d="M 291174.9993 243133.0031 L 291174.9993 274321.00310000003"></path></g><g><path stroke="#000" stroke-opacity="0" stroke-width="3882.8025477707006" stroke-linecap="round" stroke-linejoin="round" stroke-miterlimit="10" pointer-events="visiblePainted" d="M 291174.9993 243133.0031 L 291174.9993 274321.00310000003"></path></g></g></g><g id="editor-gbab6d009d_0_100"><g><g></g><g><path stroke="#FFFFFF" stroke-opacity="1" stroke-width="762" stroke-linecap="butt" stroke-linejoin="round" stroke-miterlimit="8" d="M 291597 259572 L 275793.0006952286 275375.9993047714"></path></g><g><path stroke="#000" stroke-opacity="0" stroke-width="3882.8025477707006" stroke-linecap="round" stroke-linejoin="round" stroke-miterlimit="10" pointer-events="visiblePainted" d="M 291597 259572 L 275793.0006952286 275375.9993047714"></path></g></g></g><g id="editor-gbab6d009d_0_101"><g><g></g><g><path stroke="#FFFFFF" stroke-opacity="1" stroke-width="762" stroke-linecap="butt" stroke-linejoin="round" stroke-miterlimit="8" d="M 291597 261257 L 340893.0011959076 210688.9987297058"></path></g><g><path stroke="#000" stroke-opacity="0" stroke-width="3882.8025477707006" stroke-linecap="round" stroke-linejoin="round" stroke-miterlimit="10" pointer-events="visiblePainted" d="M 291597 261257 L 340893.0011959076 210688.9987297058"></path></g></g></g><g id="editor-gbab6d009d_0_102"><g><g></g><g><path stroke="#FFFFFF" stroke-opacity="1" stroke-width="762" stroke-linecap="butt" stroke-linejoin="round" stroke-miterlimit="8" d="M 316037 168132 L 341321.0006351471 211524.00139045715"></path></g><g><path stroke="#000" stroke-opacity="0" stroke-width="3882.8025477707006" stroke-linecap="round" stroke-linejoin="round" stroke-miterlimit="10" pointer-events="visiblePainted" d="M 316037 168132 L 341321.0006351471 211524.00139045715"></path></g></g></g></g></g></svg>