<svg xmlns="http://www.w3.org/2000/svg" xmlns:xlink="http://www.w3.org/1999/xlink" version="1.1" fill-rule="evenodd" fill="none" stroke="none" stroke-linecap="square" stroke-miterlimit="10" overflow="hidden" viewBox="6858 13335 358140 268605"><rect fill="#ffffff" fill-opacity="0" width="100%" height="100%"></rect><g transform="translate(6858 13335) scale(0.98125)"><defs cursor="default"><radialGradient gradientUnits="userSpaceOnUse" gradientTransform="matrix(478.1213235152768,0,0,478.1213235152768,0,0)" cx="382.4970588122215" cy="286.87279410916614" r="478.12132351527686" id="gradient-28371"><stop offset="0%" stop-color="#FFFFFF" stop-opacity="1"></stop><stop offset="30%" stop-color="#FFFFFF" stop-opacity="1"></stop><stop offset="100%" stop-color="#CCCCCC" stop-opacity="1"></stop></radialGradient></defs><g id="editor-gbaee0bd6d_0_0"><g></g><path fill="#fff" fill-opacity="1" d="M 0 0 L 365760 0 365760 274320 0 274320 Z"></path><g id="editor-gbaee0bd6d_0_0-bg"><g><g></g><g><g><path fill="url(#gradient-28371)" d="M 0 0 L 365760 0 365760 274320 0 274320 Z"></path></g><g></g></g><g></g></g></g><g id="editor-gb9563dfae_0_1"></g><g id="editor-gb9563dfae_0_2"></g><g id="editor-gb9563dfae_0_3"></g><g id="editor-gb9563dfae_0_5"></g><g id="editor-gb9563dfae_0_6"></g><g id="editor-gb9563dfae_0_7"></g><g id="editor-gbaee0bd6d_0_1"><g><g></g><g><path stroke="#666666" stroke-opacity="1" stroke-width="3048" stroke-linecap="butt" stroke-linejoin="round" stroke-miterlimit="8" d="M 56043 45262.919999999955 L 56043 137611.08347900386"></path><path fill="#666666" fill-opacity="1" stroke="#666666" stroke-opacity="1" stroke-width="3048" stroke-linecap="butt" stroke-linejoin="miter" stroke-miterlimit="10" d="M 56043 45262.919999999955 C 53273.8663557384 45262.919999999955 51029.04 43018.09364426156 51029.04 40248.959999999955 51029.04 37479.82635573835 53273.86635573839 35234.999999999956 56043 35234.999999999956 58812.1336442616 35234.999999999956 61056.96 37479.82635573835 61056.96 40248.959999999955 61056.96 43018.09364426156 58812.13364426161 45262.919999999955 56043 45262.919999999955"></path><path stroke="#666666" stroke-opacity="1" stroke-width="3048" stroke-linecap="butt" stroke-linejoin="miter" stroke-miterlimit="10" d="M 56043 137611.08347900386 C 58812.1336442616 137611.08347900386 61056.96 139855.90983474226 61056.96 142625.04347900386 61056.96 145394.17712326546 58812.13364426161 147639.00347900385 56043 147639.00347900388 53273.8663557384 147639.00347900388 51029.04 145394.17712326546 51029.04 142625.04347900386 51029.04 139855.90983474226 53273.86635573839 137611.08347900386 56043 137611.08347900386"></path></g><g><path stroke="#000" stroke-opacity="0" stroke-width="3882.8025477707006" stroke-linecap="round" stroke-linejoin="round" stroke-miterlimit="10" pointer-events="visiblePainted" d="M 56043 45262.919999999955 L 56043 137611.08347900386"></path></g></g></g><g id="editor-gbaee0bd6d_0_2"><g><g></g><g><path stroke="#666666" stroke-opacity="1" stroke-width="762" stroke-linecap="butt" stroke-linejoin="round" stroke-miterlimit="8" stroke-dasharray="3048,2286" d="M 56039 34553 L 56039 11256.210783974737"></path><path fill="#666666" fill-opacity="1" stroke="#666666" stroke-opacity="1" stroke-width="762" stroke-linecap="butt" stroke-linejoin="miter" stroke-miterlimit="10" d="M 56039 11256.210783974737 L 56895.874409164455 12113.085193139188 56039 9759.034618511574 55182.125590835545 12113.085193139188 Z"></path></g><g><path stroke="#000" stroke-opacity="0" stroke-width="3882.8025477707006" stroke-linecap="round" stroke-linejoin="round" stroke-miterlimit="10" pointer-events="visiblePainted" d="M 56039 34553 L 56039 11256.210783974737"></path></g></g></g><g id="editor-gbaee0bd6d_0_3"><g><g></g><g><path stroke="#666666" stroke-opacity="1" stroke-width="762" stroke-linecap="butt" stroke-linejoin="round" stroke-miterlimit="8" stroke-dasharray="3048,2286" d="M 56043 274417.84375 L 56043 151365.0592603853"></path><path fill="#666666" fill-opacity="1" stroke="#666666" stroke-opacity="1" stroke-width="762" stroke-linecap="butt" stroke-linejoin="miter" stroke-miterlimit="10" d="M 56043 151365.0592603853 L 56899.874409164455 152221.93366954973 56043 149867.88309492212 55186.125590835545 152221.93366954973 Z"></path></g><g><path stroke="#000" stroke-opacity="0" stroke-width="3882.8025477707006" stroke-linecap="round" stroke-linejoin="round" stroke-miterlimit="10" pointer-events="visiblePainted" d="M 56043 274417.84375 L 56043 151365.0592603853"></path></g></g></g><g id="editor-gbaee0bd6d_0_4"><g><g></g><g><path stroke="#666666" stroke-opacity="1" stroke-width="3048" stroke-linecap="butt" stroke-linejoin="round" stroke-miterlimit="8" d="M 101763 198645.92000000062 L 101763 241242.0817166136"></path><path fill="#666666" fill-opacity="1" stroke="#666666" stroke-opacity="1" stroke-width="3048" stroke-linecap="butt" stroke-linejoin="miter" stroke-miterlimit="10" d="M 101763 198645.92000000062 C 98993.8663557384 198645.92000000062 96749.04 196401.09364426223 96749.04 193631.96000000063 96749.04 190862.82635573903 98993.8663557384 188618.00000000064 101763 188618.0000000006 104532.1336442616 188618.0000000006 106776.95999999999 190862.82635573903 106776.95999999999 193631.96000000063 106776.96 196401.09364426223 104532.1336442616 198645.92000000062 101763 198645.92000000062"></path><path stroke="#666666" stroke-opacity="1" stroke-width="3048" stroke-linecap="butt" stroke-linejoin="miter" stroke-miterlimit="10" d="M 101763 241242.0817166136 C 104532.1336442616 241242.0817166136 106776.96 243486.908072352 106776.96 246256.0417166136 106776.96 249025.1753608752 104532.1336442616 251270.0017166136 101763 251270.00171661362 98993.8663557384 251270.00171661362 96749.04000000001 249025.1753608752 96749.04000000001 246256.0417166136 96749.04 243486.908072352 98993.8663557384 241242.0817166136 101763 241242.0817166136"></path></g><g><path stroke="#000" stroke-opacity="0" stroke-width="3882.8025477707006" stroke-linecap="round" stroke-linejoin="round" stroke-miterlimit="10" pointer-events="visiblePainted" d="M 101763 198645.92000000062 L 101763 241242.0817166136"></path></g></g></g><g id="editor-gbaee0bd6d_0_5"><g><g></g><g><path stroke="#666666" stroke-opacity="1" stroke-width="762" stroke-linecap="butt" stroke-linejoin="round" stroke-miterlimit="8" stroke-dasharray="3048,2286" d="M 101759 193415 L 101759 114882.2145376374"></path><path fill="#666666" fill-opacity="1" stroke="#666666" stroke-opacity="1" stroke-width="762" stroke-linecap="butt" stroke-linejoin="miter" stroke-miterlimit="10" d="M 101759 114882.2145376374 L 102615.87440916445 115739.08894680184 101759 113385.03837217423 100902.12559083555 115739.08894680184 Z"></path></g><g><path stroke="#000" stroke-opacity="0" stroke-width="3882.8025477707006" stroke-linecap="round" stroke-linejoin="round" stroke-miterlimit="10" pointer-events="visiblePainted" d="M 101759 193415 L 101759 114882.2145376374"></path></g></g></g><g id="editor-gbaee0bd6d_0_6"><g><g></g><g><path stroke="#666666" stroke-opacity="1" stroke-width="762" stroke-linecap="butt" stroke-linejoin="round" stroke-miterlimit="8" stroke-dasharray="3048,2286" d="M 101763 274741 L 101763 254996.21190263913"></path><path fill="#666666" fill-opacity="1" stroke="#666666" stroke-opacity="1" stroke-width="762" stroke-linecap="butt" stroke-linejoin="miter" stroke-miterlimit="10" d="M 101763 254996.21190263913 L 102619.87440916445 255853.08631180358 101763 253499.03573717596 100906.12559083555 255853.08631180358 Z"></path></g><g><path stroke="#000" stroke-opacity="0" stroke-width="3882.8025477707006" stroke-linecap="round" stroke-linejoin="round" stroke-miterlimit="10" pointer-events="visiblePainted" d="M 101763 274741 L 101763 254996.21190263913"></path></g></g></g><g id="editor-gbaee0bd6d_0_7"><g><g></g><g><path stroke="#666666" stroke-opacity="1" stroke-width="3048" stroke-linecap="butt" stroke-linejoin="round" stroke-miterlimit="8" d="M 153579 85869.91999999933 L 153579 201246.0852642823"></path><path fill="#666666" fill-opacity="1" stroke="#666666" stroke-opacity="1" stroke-width="3048" stroke-linecap="butt" stroke-linejoin="miter" stroke-miterlimit="10" d="M 153579 85869.91999999933 C 150809.8663557384 85869.91999999933 148565.04 83625.09364426094 148565.04 80855.95999999932 148565.04 78086.82635573772 150809.8663557384 75841.99999999933 153579 75841.99999999933 156348.1336442616 75841.99999999933 158592.96 78086.82635573772 158592.96 80855.95999999932 158592.96 83625.09364426094 156348.1336442616 85869.91999999933 153579 85869.91999999933"></path><path stroke="#666666" stroke-opacity="1" stroke-width="3048" stroke-linecap="butt" stroke-linejoin="miter" stroke-miterlimit="10" d="M 153579 201246.0852642823 C 156348.1336442616 201246.0852642823 158592.96 203490.9116200207 158592.96 206260.0452642823 158592.96 209029.1789085439 156348.1336442616 211274.00526428228 153579 211274.0052642823 150809.8663557384 211274.0052642823 148565.04 209029.1789085439 148565.04 206260.0452642823 148565.04 203490.9116200207 150809.8663557384 201246.0852642823 153579 201246.0852642823"></path></g><g><path stroke="#000" stroke-opacity="0" stroke-width="3882.8025477707006" stroke-linecap="round" stroke-linejoin="round" stroke-miterlimit="10" pointer-events="visiblePainted" d="M 153579 85869.91999999933 L 153579 201246.0852642823"></path></g></g></g><g id="editor-gbaee0bd6d_0_8"><g><g></g><g><path stroke="#666666" stroke-opacity="1" stroke-width="762" stroke-linecap="butt" stroke-linejoin="round" stroke-miterlimit="8" stroke-dasharray="3048,2286" d="M 153575 80639 L 153575 2106.2145376373956"></path><path fill="#666666" fill-opacity="1" stroke="#666666" stroke-opacity="1" stroke-width="762" stroke-linecap="butt" stroke-linejoin="miter" stroke-miterlimit="10" d="M 153575 2106.2145376373956 L 154431.87440916445 2963.0889468018477 153575 609.0383721742323 152718.12559083555 2963.0889468018477 Z"></path></g><g><path stroke="#000" stroke-opacity="0" stroke-width="3882.8025477707006" stroke-linecap="round" stroke-linejoin="round" stroke-miterlimit="10" pointer-events="visiblePainted" d="M 153575 80639 L 153575 2106.2145376373956"></path></g></g></g><g id="editor-gbaee0bd6d_0_9"><g><g></g><g><path stroke="#666666" stroke-opacity="1" stroke-width="762" stroke-linecap="butt" stroke-linejoin="round" stroke-miterlimit="8" stroke-dasharray="3048,2286" d="M 153579 274741 L 153579 214988.21236325963"></path><path fill="#666666" fill-opacity="1" stroke="#666666" stroke-opacity="1" stroke-width="762" stroke-linecap="butt" stroke-linejoin="miter" stroke-miterlimit="10" d="M 153579 214988.21236325963 L 154435.87440916445 215845.08677242408 153579 213491.03619779646 152722.12559083555 215845.08677242408 Z"></path></g><g><path stroke="#000" stroke-opacity="0" stroke-width="3882.8025477707006" stroke-linecap="round" stroke-linejoin="round" stroke-miterlimit="10" pointer-events="visiblePainted" d="M 153579 274741 L 153579 214988.21236325963"></path></g></g></g><g id="editor-gbaee0bd6d_0_10"><g><g></g><g><path stroke="#666666" stroke-opacity="1" stroke-width="3048" stroke-linecap="butt" stroke-linejoin="round" stroke-miterlimit="8" d="M 211491 85869.91999999933 L 211491 201246.0852642823"></path><path fill="#666666" fill-opacity="1" stroke="#666666" stroke-opacity="1" stroke-width="3048" stroke-linecap="butt" stroke-linejoin="miter" stroke-miterlimit="10" d="M 211491 85869.91999999933 C 208721.8663557384 85869.91999999933 206477.04 83625.09364426094 206477.04 80855.95999999932 206477.04 78086.82635573772 208721.8663557384 75841.99999999933 211491 75841.99999999933 214260.1336442616 75841.99999999933 216504.96 78086.82635573772 216504.96 80855.95999999932 216504.96 83625.09364426094 214260.1336442616 85869.91999999933 211491 85869.91999999933"></path><path stroke="#666666" stroke-opacity="1" stroke-width="3048" stroke-linecap="butt" stroke-linejoin="miter" stroke-miterlimit="10" d="M 211491 201246.0852642823 C 214260.1336442616 201246.0852642823 216504.96 203490.9116200207 216504.96 206260.0452642823 216504.96 209029.1789085439 214260.1336442616 211274.00526428228 211491 211274.0052642823 208721.8663557384 211274.0052642823 206477.04 209029.1789085439 206477.04 206260.0452642823 206477.04 203490.9116200207 208721.8663557384 201246.0852642823 211491 201246.0852642823"></path></g><g><path stroke="#000" stroke-opacity="0" stroke-width="3882.8025477707006" stroke-linecap="round" stroke-linejoin="round" stroke-miterlimit="10" pointer-events="visiblePainted" d="M 211491 85869.91999999933 L 211491 201246.0852642823"></path></g></g></g><g id="editor-gbaee0bd6d_0_11"><g><g></g><g><path stroke="#666666" stroke-opacity="1" stroke-width="762" stroke-linecap="butt" stroke-linejoin="round" stroke-miterlimit="8" stroke-dasharray="3048,2286" d="M 211487 80639 L 211487 2106.2145376388216"></path><path fill="#666666" fill-opacity="1" stroke="#666666" stroke-opacity="1" stroke-width="762" stroke-linecap="butt" stroke-linejoin="miter" stroke-miterlimit="10" d="M 211487 2106.2145376388216 L 212343.87440916445 2963.0889468032738 211487 609.0383721756584 210630.12559083555 2963.0889468032738 Z"></path></g><g><path stroke="#000" stroke-opacity="0" stroke-width="3882.8025477707006" stroke-linecap="round" stroke-linejoin="round" stroke-miterlimit="10" pointer-events="visiblePainted" d="M 211487 80639 L 211487 2106.2145376388216"></path></g></g></g><g id="editor-gbaee0bd6d_0_12"><g><g></g><g><path stroke="#666666" stroke-opacity="1" stroke-width="762" stroke-linecap="butt" stroke-linejoin="round" stroke-miterlimit="8" stroke-dasharray="3048,2286" d="M 211491 274741 L 211491 214988.21236325963"></path><path fill="#666666" fill-opacity="1" stroke="#666666" stroke-opacity="1" stroke-width="762" stroke-linecap="butt" stroke-linejoin="miter" stroke-miterlimit="10" d="M 211491 214988.21236325963 L 212347.87440916445 215845.08677242408 211491 213491.03619779646 210634.12559083555 215845.08677242408 Z"></path></g><g><path stroke="#000" stroke-opacity="0" stroke-width="3882.8025477707006" stroke-linecap="round" stroke-linejoin="round" stroke-miterlimit="10" pointer-events="visiblePainted" d="M 211491 274741 L 211491 214988.21236325963"></path></g></g></g><g id="editor-gbaee0bd6d_0_13"><g><g></g><g><path stroke="#666666" stroke-opacity="1" stroke-width="3048" stroke-linecap="butt" stroke-linejoin="round" stroke-miterlimit="8" d="M 260259 123217.91999999998 L 260259 137614.08000000002"></path><path fill="#666666" fill-opacity="1" stroke="#666666" stroke-opacity="1" stroke-width="3048" stroke-linecap="butt" stroke-linejoin="miter" stroke-miterlimit="10" d="M 260259 123217.91999999998 C 257489.8663557384 123217.91999999998 255245.04 120973.0936442616 255245.04 118203.95999999999 255245.04 115434.82635573838 257489.8663557384 113189.99999999999 260259 113189.99999999999 263028.13364426163 113189.99999999999 265272.96 115434.82635573838 265272.96 118203.95999999998 265272.96 120973.0936442616 263028.13364426163 123217.91999999998 260259 123217.91999999998"></path><path stroke="#666666" stroke-opacity="1" stroke-width="3048" stroke-linecap="butt" stroke-linejoin="miter" stroke-miterlimit="10" d="M 260259 137614.08000000002 C 263028.13364426163 137614.08000000002 265272.96 139858.9063557384 265272.96 142628.04 265272.96 145397.1736442616 263028.13364426163 147642 260259 147642.00000000003 257489.8663557384 147642.00000000003 255245.04 145397.1736442616 255245.04 142628.04 255245.04 139858.9063557384 257489.8663557384 137614.08000000002 260259 137614.08000000002"></path></g><g><path stroke="#000" stroke-opacity="0" stroke-width="3882.8025477707006" stroke-linecap="round" stroke-linejoin="round" stroke-miterlimit="10" pointer-events="visiblePainted" d="M 260259 123217.91999999998 L 260259 137614.08000000002"></path></g></g></g><g id="editor-gbaee0bd6d_0_14"><g><g></g><g><path stroke="#666666" stroke-opacity="1" stroke-width="762" stroke-linecap="butt" stroke-linejoin="round" stroke-miterlimit="8" stroke-dasharray="3048,2286" d="M 260255 118408 L 260255 62867.210349099456"></path><path fill="#666666" fill-opacity="1" stroke="#666666" stroke-opacity="1" stroke-width="762" stroke-linecap="butt" stroke-linejoin="miter" stroke-miterlimit="10" d="M 260255 62867.210349099456 L 261111.87440916445 63724.08475826391 260255 61370.03418363629 259398.12559083555 63724.08475826391 Z"></path></g><g><path stroke="#000" stroke-opacity="0" stroke-width="3882.8025477707006" stroke-linecap="round" stroke-linejoin="round" stroke-miterlimit="10" pointer-events="visiblePainted" d="M 260255 118408 L 260255 62867.210349099456"></path></g></g></g><g id="editor-gbaee0bd6d_0_15"><g><g></g><g><path stroke="#666666" stroke-opacity="1" stroke-width="762" stroke-linecap="butt" stroke-linejoin="round" stroke-miterlimit="8" stroke-dasharray="3048,2286" d="M 260259 274417.84375 L 260259 151365.05926038252"></path><path fill="#666666" fill-opacity="1" stroke="#666666" stroke-opacity="1" stroke-width="762" stroke-linecap="butt" stroke-linejoin="miter" stroke-miterlimit="10" d="M 260259 151365.05926038252 L 261115.87440916445 152221.93366954697 260259 149867.88309491935 259402.12559083555 152221.93366954697 Z"></path></g><g><path stroke="#000" stroke-opacity="0" stroke-width="3882.8025477707006" stroke-linecap="round" stroke-linejoin="round" stroke-miterlimit="10" pointer-events="visiblePainted" d="M 260259 274417.84375 L 260259 151365.05926038252"></path></g></g></g><g id="editor-gbaee0bd6d_0_16"><g><g></g><g><path stroke="#666666" stroke-opacity="1" stroke-width="3048" stroke-linecap="butt" stroke-linejoin="round" stroke-miterlimit="8" d="M 309027 122445.91999999931 L 309027 165042.0817166136"></path><path fill="#666666" fill-opacity="1" stroke="#666666" stroke-opacity="1" stroke-width="3048" stroke-linecap="butt" stroke-linejoin="miter" stroke-miterlimit="10" d="M 309027 122445.91999999931 C 306257.86635573837 122445.91999999931 304013.04 120201.09364426092 304013.04 117431.95999999932 304013.04 114662.8263557377 306257.86635573837 112417.99999999932 309027 112417.99999999932 311796.13364426163 112417.99999999932 314040.96 114662.8263557377 314040.96 117431.95999999931 314040.96 120201.09364426092 311796.13364426163 122445.91999999931 309027 122445.91999999931"></path><path stroke="#666666" stroke-opacity="1" stroke-width="3048" stroke-linecap="butt" stroke-linejoin="miter" stroke-miterlimit="10" d="M 309027 165042.0817166136 C 311796.13364426163 165042.0817166136 314040.96 167286.908072352 314040.96 170056.0417166136 314040.96 172825.1753608752 311796.13364426163 175070.0017166136 309027 175070.00171661362 306257.86635573837 175070.00171661362 304013.04 172825.1753608752 304013.04 170056.0417166136 304013.04 167286.908072352 306257.86635573837 165042.0817166136 309027 165042.0817166136"></path></g><g><path stroke="#000" stroke-opacity="0" stroke-width="3882.8025477707006" stroke-linecap="round" stroke-linejoin="round" stroke-miterlimit="10" pointer-events="visiblePainted" d="M 309027 122445.91999999931 L 309027 165042.0817166136"></path></g></g></g><g id="editor-gbaee0bd6d_0_17"><g><g></g><g><path stroke="#666666" stroke-opacity="1" stroke-width="762" stroke-linecap="butt" stroke-linejoin="round" stroke-miterlimit="8" stroke-dasharray="3048,2286" d="M 309023 117215 L 309023 38682.21453763882"></path><path fill="#666666" fill-opacity="1" stroke="#666666" stroke-opacity="1" stroke-width="762" stroke-linecap="butt" stroke-linejoin="miter" stroke-miterlimit="10" d="M 309023 38682.21453763882 L 309879.8744091645 39539.08894680328 309023 37185.03837217566 308166.1255908355 39539.08894680328 Z"></path></g><g><path stroke="#000" stroke-opacity="0" stroke-width="3882.8025477707006" stroke-linecap="round" stroke-linejoin="round" stroke-miterlimit="10" pointer-events="visiblePainted" d="M 309023 117215 L 309023 38682.21453763882"></path></g></g></g><g id="editor-gbaee0bd6d_0_18"><g><g></g><g><path stroke="#666666" stroke-opacity="1" stroke-width="762" stroke-linecap="butt" stroke-linejoin="round" stroke-miterlimit="8" stroke-dasharray="3048,2286" d="M 309027 274741 L 309027 178796.20768262833"></path><path fill="#666666" fill-opacity="1" stroke="#666666" stroke-opacity="1" stroke-width="762" stroke-linecap="butt" stroke-linejoin="miter" stroke-miterlimit="10" d="M 309027 178796.20768262833 L 309883.8744091645 179653.08209179278 309027 177299.03151716516 308170.1255908355 179653.08209179278 Z"></path></g><g><path stroke="#000" stroke-opacity="0" stroke-width="3882.8025477707006" stroke-linecap="round" stroke-linejoin="round" stroke-miterlimit="10" pointer-events="visiblePainted" d="M 309027 274741 L 309027 178796.20768262833"></path></g></g></g></g></g></svg>