<svg xmlns="http://www.w3.org/2000/svg" xmlns:xlink="http://www.w3.org/1999/xlink" version="1.1" fill-rule="evenodd" fill="none" stroke="none" stroke-linecap="square" stroke-miterlimit="10" overflow="hidden" viewBox="6858 13335 358140 268605"><rect fill="#ffffff" fill-opacity="0" width="100%" height="100%"></rect><g transform="translate(6858 13335) scale(0.98125)"><defs cursor="default"><radialGradient gradientUnits="userSpaceOnUse" gradientTransform="matrix(478.1213235152768,0,0,478.1213235152768,0,0)" cx="382.4970588122215" cy="286.87279410916614" r="478.12132351527686" id="gradient-9931"><stop offset="0%" stop-color="#FFFFFF" stop-opacity="1"></stop><stop offset="30%" stop-color="#FFFFFF" stop-opacity="1"></stop><stop offset="100%" stop-color="#CCCCCC" stop-opacity="1"></stop></radialGradient></defs><g id="editor-gb98267064_0_54"><g></g><path fill="#fff" fill-opacity="1" d="M 0 0 L 365760 0 365760 274320 0 274320 Z"></path><g id="editor-gb98267064_0_54-bg"><g><g></g><g><g><path fill="url(#gradient-9931)" d="M 0 0 L 365760 0 365760 274320 0 274320 Z"></path></g><g></g></g><g></g></g></g><g id="editor-gb9563dfae_0_1"></g><g id="editor-gb9563dfae_0_2"></g><g id="editor-gb9563dfae_0_3"></g><g id="editor-gb9563dfae_0_5"></g><g id="editor-gb9563dfae_0_6"></g><g id="editor-gb9563dfae_0_7"></g><g id="editor-gb98267064_0_55"><g><g></g><g><path d="M 27432 151469.515625 L 338328.00563049316 151469.515625 338328.00563049316 193325.5160484314 27432 193325.5160484314 Z"></path></g><g></g><g><path fill="#000" fill-opacity="0" stroke="#000" stroke-opacity="0" stroke-width="3882.8025477707006" stroke-linecap="round" stroke-linejoin="round" stroke-miterlimit="10" pointer-events="visiblePainted" d="M 27432 151469.515625 L 338328.00563049316 151469.515625 338328.00563049316 193325.5160484314 27432 193325.5160484314 Z"></path></g><g><g direction="ltr" style="opacity: 1;"><g transform="matrix(381,0,0,381.0000000000005,31089,155126.515625)"><g pointer-events="none"><g id="editor-gb98267064_0_55-paragraph-0"><g><g class="sketchy-text-background" visibility="visible"></g><g class="sketchy-text-content" visibility="visible"></g></g></g></g><rect style="opacity: 0;"></rect><rect style="opacity: 1;"></rect></g><g><path d="M 182880.00281524658 155126.515625 L 182880.00281524658 155126.515625 182880.00281524658 173414.51562500003 182880.00281524658 173414.51562500003 Z" pointer-events="visiblePainted" fill="#000000" stroke="#000000" opacity="0"></path></g><g transform="matrix(381,0,0,381.0000000000005,31089,155126.515625)"></g></g></g></g></g><g id="editor-gb98267064_0_56"><g><g></g><g><path d="M 27432 84444.921875 L 338328.00563049316 84444.921875 338328.00563049316 146304.92296218872 27432 146304.92296218872 Z"></path></g><g></g><g><path fill="#000" fill-opacity="0" stroke="#000" stroke-opacity="0" stroke-width="3882.8025477707006" stroke-linecap="round" stroke-linejoin="round" stroke-miterlimit="10" pointer-events="visiblePainted" d="M 27432 84444.921875 L 338328.00563049316 84444.921875 338328.00563049316 146304.92296218872 27432 146304.92296218872 Z"></path></g><g><g direction="ltr" style="opacity: 1;"><g transform="matrix(380.99999999999994,0,0,381,31089,113310.92296218872)"><g pointer-events="none"><g id="editor-gb98267064_0_56-paragraph-0"><g><g class="sketchy-text-background" visibility="visible"></g><g class="sketchy-text-content" visibility="visible"><g class="sketchy-text-content-text" transform="translate(0 61.44)"><text x="293.47970719224827px" style="font-family:Arial;font-size:64px;fill:#FF0000;font-weight:700;" y="0px" text-rendering="geometricPrecision">Failure</text></g></g></g></g></g><rect style="opacity: 0;"></rect><rect style="opacity: 1;"></rect></g><g><path d="M 142904.76844024658 113310.92296218872 L 222855.23719024655 113310.92296218872 222855.23719024655 142571.7229621887 142904.76844024658 142571.7229621887 Z" pointer-events="visiblePainted" fill="#000000" stroke="#000000" opacity="0"></path></g><g transform="matrix(380.99999999999994,0,0,381,31089,113310.92296218872)"></g></g></g></g></g><g id="editor-gb98267064_0_57"><g><g></g><g><path fill="#FFFFFF" fill-opacity="1" stroke="#666666" stroke-opacity="1" stroke-width="762" stroke-linecap="butt" stroke-linejoin="round" stroke-miterlimit="8" d="M 273531.5 113286.73803520203 C 273531.5 107386.1947821298 277716.7837841157 102602.859375 282879.59297323227 102602.859375 285358.8613782866 102602.859375 287736.5854041716 103728.4790734864 289489.6929057671 105732.09498519893 291242.80040736264 107735.71089691145 292227.68594646454 110453.19723907163 292227.68594646454 113286.73803520203 292227.68594646454 119187.28128827424 288042.40216234885 123970.61669540405 282879.59297323227 123970.61669540405 277716.7837841157 123970.61669540405 273531.5 119187.28128827426 273531.5 113286.73803520203 Z"></path></g><g><path fill="#000" fill-opacity="0" stroke="#000" stroke-opacity="0" stroke-width="3882.8025477707006" stroke-linecap="round" stroke-linejoin="round" stroke-miterlimit="10" pointer-events="visiblePainted" d="M 273531.5 113286.73803520203 C 273531.5 107386.1947821298 277716.7837841157 102602.859375 282879.59297323227 102602.859375 285358.8613782866 102602.859375 287736.5854041716 103728.4790734864 289489.6929057671 105732.09498519893 291242.80040736264 107735.71089691145 292227.68594646454 110453.19723907163 292227.68594646454 113286.73803520203 292227.68594646454 119187.28128827424 288042.40216234885 123970.61669540405 282879.59297323227 123970.61669540405 277716.7837841157 123970.61669540405 273531.5 119187.28128827426 273531.5 113286.73803520203 Z"></path></g><g></g></g></g><g id="editor-gb98267064_0_58"><g><g></g><g><path stroke="#666666" stroke-opacity="1" stroke-width="762" stroke-linecap="butt" stroke-linejoin="round" stroke-miterlimit="8" d="M 282879.59375 123970.6171875 L 282879.59375 170535.81847000122"></path></g><g><path stroke="#000" stroke-opacity="0" stroke-width="3882.8025477707006" stroke-linecap="round" stroke-linejoin="round" stroke-miterlimit="10" pointer-events="visiblePainted" d="M 282879.59375 123970.6171875 L 282879.59375 170535.81847000122"></path></g></g></g><g id="editor-gb98267064_0_59"><g><g></g><g><path stroke="#666666" stroke-opacity="1" stroke-width="762" stroke-linecap="butt" stroke-linejoin="round" stroke-miterlimit="8" d="M 282836.1875 170535.828125 L 293013.1170334816 213954.73028373718"></path></g><g><path stroke="#000" stroke-opacity="0" stroke-width="3882.8025477707006" stroke-linecap="round" stroke-linejoin="round" stroke-miterlimit="10" pointer-events="visiblePainted" d="M 282836.1875 170535.828125 L 293013.1170334816 213954.73028373718"></path></g></g></g><g id="editor-gb98267064_0_60"><g><g></g><g><path stroke="#666666" stroke-opacity="1" stroke-width="762" stroke-linecap="butt" stroke-linejoin="round" stroke-miterlimit="8" d="M 282982.21875 170870.1875 L 272746.086605072 214532.67357635498"></path></g><g><path stroke="#000" stroke-opacity="0" stroke-width="3882.8025477707006" stroke-linecap="round" stroke-linejoin="round" stroke-miterlimit="10" pointer-events="visiblePainted" d="M 282982.21875 170870.1875 L 272746.086605072 214532.67357635498"></path></g></g></g><g id="editor-gb98267064_0_61"><g><g></g><g><path stroke="#666666" stroke-opacity="1" stroke-width="762" stroke-linecap="butt" stroke-linejoin="round" stroke-miterlimit="8" d="M 282878.125 127306.9375 L 314834.12413597107 109954.93702507019"></path></g><g><path stroke="#000" stroke-opacity="0" stroke-width="3882.8025477707006" stroke-linecap="round" stroke-linejoin="round" stroke-miterlimit="10" pointer-events="visiblePainted" d="M 282878.125 127306.9375 L 314834.12413597107 109954.93702507019"></path></g></g></g><g id="editor-gb98267064_0_62"><g><g></g><g><path stroke="#666666" stroke-opacity="1" stroke-width="762" stroke-linecap="butt" stroke-linejoin="round" stroke-miterlimit="8" d="M 283024.15625 127473.8359375 L 248080.15481376648 105333.83666706085"></path></g><g><path stroke="#000" stroke-opacity="0" stroke-width="3882.8025477707006" stroke-linecap="round" stroke-linejoin="round" stroke-miterlimit="10" pointer-events="visiblePainted" d="M 283024.15625 127473.8359375 L 248080.15481376648 105333.83666706085"></path></g></g></g><g id="editor-gb98267064_0_66"><g></g><g id="editor-gb98267064_0_64"><g><g></g><g><path fill="#FFFFFF" fill-opacity="1" stroke="#666666" stroke-opacity="1" stroke-width="762" stroke-linecap="butt" stroke-linejoin="round" stroke-miterlimit="8" d="M 290772.69076875 90692.94514770508 L 290772.69076875 107343.63575927734 C 290772.69076875 105504.45125949291 287300.9376606867 104013.49763696289 283018.31316657714 104013.49763696289 278735.6886724676 104013.49763696289 275263.9355644043 105504.45125949291 275263.9355644043 107343.63575927734 L 275263.9355644043 90692.94514770508 C 275263.9355644043 88853.76064792064 278735.6886724676 87362.80702539062 283018.31316657714 87362.80702539062 287300.9376606867 87362.80702539062 290772.69076875 88853.76064792064 290772.69076875 90692.94514770506 Z"></path></g><g><path fill="#000" fill-opacity="0" stroke="#000" stroke-opacity="0" stroke-width="3882.8025477707006" stroke-linecap="round" stroke-linejoin="round" stroke-miterlimit="10" pointer-events="visiblePainted" d="M 290772.69076875 90692.94514770508 L 290772.69076875 107343.63575927734 C 290772.69076875 105504.45125949291 287300.9376606867 104013.49763696289 283018.31316657714 104013.49763696289 278735.6886724676 104013.49763696289 275263.9355644043 105504.45125949291 275263.9355644043 107343.63575927734 L 275263.9355644043 90692.94514770508 C 275263.9355644043 88853.76064792064 278735.6886724676 87362.80702539062 283018.31316657714 87362.80702539062 287300.9376606867 87362.80702539062 290772.69076875 88853.76064792064 290772.69076875 90692.94514770506 Z"></path></g><g></g></g></g><g id="editor-gb98267064_0_65"><g><g></g><g><path fill="#FFFFFF" fill-opacity="1" stroke="#666666" stroke-opacity="1" stroke-width="762" stroke-linecap="butt" stroke-linejoin="round" stroke-miterlimit="8" d="M 273746.4300260145 88761.14349318863 C 273563.97487149795 87714.31243225532 274163.0114279173 86678.01315207814 275289.34639991197 86091.98564212049 276415.6813719066 85505.95813216284 277871.7799757015 85472.97893789652 279039.765892227 86007.0423472812 279453.5020631956 85398.37134623868 280210.7601990375 84978.12598914022 281082.4843647358 84873.42236579799 281954.20853043406 84768.71874245578 282838.0113091361 84991.85470344106 283466.5594596862 85475.33593768574 283819.0096014381 84923.47563763689 284511.0515132543 84552.69605040106 285297.112800655 84494.5690208435 286083.17408805573 84436.44199128594 286852.00775121205 84699.19392331547 287330.7916959787 85189.58679189204 287967.54430666094 84604.61631345448 288980.6337361155 84358.31941270814 289931.69044050033 84557.2701559603 290882.7471448852 84756.22089921247 291600.95285626926 85364.68595825121 291775.53588862903 86119.37904993146 292555.665804033 86285.51315496805 293205.49767092237 86707.8480583988 293557.13573988184 87277.2659426332 293908.77380884136 87846.6838268676 293927.7231739843 88507.32607459227 293609.08792603994 89088.50388008883 294377.2882782816 89869.0891948665 294556.9896249486 90909.20963888528 294081.1306250881 91820.71079359416 293605.2716252277 92732.21194830304 292545.34466793365 93378.15115793407 291296.89560963144 93517.47541773626 291288.096016836 94372.95181772501 290687.15774288285 95157.92667914057 289725.70869224693 95569.8363442895 288764.25964161096 95981.74600943843 287592.43327430054 95956.26941710719 286661.9027448364 95503.22636069325 286265.5460610096 96527.80734464282 285149.9344399689 97281.68428871057 283797.0533472683 97439.15448148342 282444.17225456773 97596.62467425627 281096.55220117926 97129.45849043888 280336.41487301217 96239.488993036 279404.645585991 96678.15785220494 278286.59989841754 96804.52443706442 277234.4863830985 96590.08299299986 276182.3728677795 96375.6415489353 275284.8164608469 95838.45558241017 274744.2877973757 95099.70342044174 273792.1365279335 95186.69342057193 272871.5378417477 94801.55048033618 272439.3815522622 94135.41965431048 272007.22526277666 93469.28882828477 272155.5071097081 92663.97343989459 272810.6353462962 92119.14861695215 271961.2917619663 91728.86217334784 271527.9054646159 90954.40427293706 271736.47040634445 90199.62432839983 271945.03534807294 89444.84438386261 272748.28994418215 88880.77831322847 273727.36843489454 88801.56444372925 Z"></path><path stroke="#666666" stroke-opacity="1" stroke-width="762" stroke-linecap="butt" stroke-linejoin="round" stroke-miterlimit="8" d="M 272810.87576059636 92119.0740530878 C 273211.68357708346 92303.25141093407 273674.7105931338 92386.79861406614 274137.78785752726 92358.49808377681 M 274744.31965402205 95099.69554309668 C 274943.459904579 95081.50178441795 275138.65520808403 95042.97424752761 275324.87165353796 94985.10652288733 M 280336.16835689906 96239.43329083844 C 280196.1060319222 96075.44818927092 280078.8386823652 95900.21590091908 279986.36439988296 95716.72216882517 M 286661.89809328713 95503.13987499366 C 286734.15983423457 95316.34346493444 286780.9791921975 95124.08955575869 286801.57507648715 94929.58553314774 M 291296.7156411144 93517.46077310304 C 291306.0841659266 92606.67409627548 290643.48980401846 91772.7484491486 289593.5363372582 91373.87944371896 M 293608.8861492642 89088.58528154882 C 293438.84943877504 89398.72536458561 293179.26968937484 89673.84624324729 292850.49941302073 89892.37689365556 M 291775.49313192745 86119.37919333598 C 291804.4652397392 86244.62074356807 291817.87355197204 86371.74464198953 291815.5322209065 86498.98887066818 M 287330.8246313269 85189.62475757931 C 287171.9864841461 85335.54583492035 287041.1247652468 85498.61072347523 286942.3141018154 85673.74208944719 M 283466.55597735744 85475.31020779081 C 283381.90885228576 85607.84920354247 283318.69996238616 85748.09817588139 283278.38536340994 85892.8264032569 M 279039.6975803538 86007.02760723807 C 279286.8426308092 86120.03507281726 279515.4853850532 86256.05167003482 279720.60314344184 86412.08946027583 M 273746.4300260145 88761.14349318863 C 273771.57708205935 88905.4239846252 273811.3106937335 89047.9256775817 273865.2589783189 89187.31484188125"></path></g><g><path fill="#000" fill-opacity="0" stroke="#000" stroke-opacity="0" stroke-width="3882.8025477707006" stroke-linecap="round" stroke-linejoin="round" stroke-miterlimit="10" pointer-events="visiblePainted" d="M 273746.4300260145 88761.14349318863 C 273563.97487149795 87714.31243225532 274163.0114279173 86678.01315207814 275289.34639991197 86091.98564212049 276415.6813719066 85505.95813216284 277871.7799757015 85472.97893789652 279039.765892227 86007.0423472812 279453.5020631956 85398.37134623868 280210.7601990375 84978.12598914022 281082.4843647358 84873.42236579799 281954.20853043406 84768.71874245578 282838.0113091361 84991.85470344106 283466.5594596862 85475.33593768574 283819.0096014381 84923.47563763689 284511.0515132543 84552.69605040106 285297.112800655 84494.5690208435 286083.17408805573 84436.44199128594 286852.00775121205 84699.19392331547 287330.7916959787 85189.58679189204 287967.54430666094 84604.61631345448 288980.6337361155 84358.31941270814 289931.69044050033 84557.2701559603 290882.7471448852 84756.22089921247 291600.95285626926 85364.68595825121 291775.53588862903 86119.37904993146 292555.665804033 86285.51315496805 293205.49767092237 86707.8480583988 293557.13573988184 87277.2659426332 293908.77380884136 87846.6838268676 293927.7231739843 88507.32607459227 293609.08792603994 89088.50388008883 294377.2882782816 89869.0891948665 294556.9896249486 90909.20963888528 294081.1306250881 91820.71079359416 293605.2716252277 92732.21194830304 292545.34466793365 93378.15115793407 291296.89560963144 93517.47541773626 291288.096016836 94372.95181772501 290687.15774288285 95157.92667914057 289725.70869224693 95569.8363442895 288764.25964161096 95981.74600943843 287592.43327430054 95956.26941710719 286661.9027448364 95503.22636069325 286265.5460610096 96527.80734464282 285149.9344399689 97281.68428871057 283797.0533472683 97439.15448148342 282444.17225456773 97596.62467425627 281096.55220117926 97129.45849043888 280336.41487301217 96239.488993036 279404.645585991 96678.15785220494 278286.59989841754 96804.52443706442 277234.4863830985 96590.08299299986 276182.3728677795 96375.6415489353 275284.8164608469 95838.45558241017 274744.2877973757 95099.70342044174 273792.1365279335 95186.69342057193 272871.5378417477 94801.55048033618 272439.3815522622 94135.41965431048 272007.22526277666 93469.28882828477 272155.5071097081 92663.97343989459 272810.6353462962 92119.14861695215 271961.2917619663 91728.86217334784 271527.9054646159 90954.40427293706 271736.47040634445 90199.62432839983 271945.03534807294 89444.84438386261 272748.28994418215 88880.77831322847 273727.36843489454 88801.56444372925 Z"></path><path stroke="#000" stroke-opacity="0" stroke-width="3882.8025477707006" stroke-linecap="round" stroke-linejoin="round" stroke-miterlimit="10" pointer-events="visiblePainted" d="M 272810.87576059636 92119.0740530878 C 273211.68357708346 92303.25141093407 273674.7105931338 92386.79861406614 274137.78785752726 92358.49808377681 M 274744.31965402205 95099.69554309668 C 274943.459904579 95081.50178441795 275138.65520808403 95042.97424752761 275324.87165353796 94985.10652288733 M 280336.16835689906 96239.43329083844 C 280196.1060319222 96075.44818927092 280078.8386823652 95900.21590091908 279986.36439988296 95716.72216882517 M 286661.89809328713 95503.13987499366 C 286734.15983423457 95316.34346493444 286780.9791921975 95124.08955575869 286801.57507648715 94929.58553314774 M 291296.7156411144 93517.46077310304 C 291306.0841659266 92606.67409627548 290643.48980401846 91772.7484491486 289593.5363372582 91373.87944371896 M 293608.8861492642 89088.58528154882 C 293438.84943877504 89398.72536458561 293179.26968937484 89673.84624324729 292850.49941302073 89892.37689365556 M 291775.49313192745 86119.37919333598 C 291804.4652397392 86244.62074356807 291817.87355197204 86371.74464198953 291815.5322209065 86498.98887066818 M 287330.8246313269 85189.62475757931 C 287171.9864841461 85335.54583492035 287041.1247652468 85498.61072347523 286942.3141018154 85673.74208944719 M 283466.55597735744 85475.31020779081 C 283381.90885228576 85607.84920354247 283318.69996238616 85748.09817588139 283278.38536340994 85892.8264032569 M 279039.6975803538 86007.02760723807 C 279286.8426308092 86120.03507281726 279515.4853850532 86256.05167003482 279720.60314344184 86412.08946027583 M 273746.4300260145 88761.14349318863 C 273771.57708205935 88905.4239846252 273811.3106937335 89047.9256775817 273865.2589783189 89187.31484188125"></path></g><g></g></g></g></g><g id="editor-gb98267064_0_78"><g></g><g id="editor-gb98267064_0_74"><g></g><g id="editor-gb98267064_0_68"><g><g></g><g><path fill="#FFFFFF" fill-opacity="1" stroke="#666666" stroke-opacity="1" stroke-width="762" stroke-linecap="butt" stroke-linejoin="round" stroke-miterlimit="8" d="M 64356.502704149985 99239.0792699726 C 64356.502704149985 92180.82034661529 69362.98638684148 86458.97095534 75538.79698784789 86458.97095534 78504.52582612303 86458.97095534 81348.78613236938 87805.44278689749 83445.87310507425 90202.1780163973 85542.9600777791 92598.91324589711 86721.0912715458 95849.58380299657 86721.0912715458 99239.0792699726 86721.0912715458 106297.3381933299 81714.6075888543 112019.1875846052 75538.79698784789 112019.1875846052 69362.98638684148 112019.1875846052 64356.502704149985 106297.33819332991 64356.502704149985 99239.0792699726 Z"></path></g><g><path fill="#000" fill-opacity="0" stroke="#000" stroke-opacity="0" stroke-width="3882.8025477707006" stroke-linecap="round" stroke-linejoin="round" stroke-miterlimit="10" pointer-events="visiblePainted" d="M 64356.502704149985 99239.0792699726 C 64356.502704149985 92180.82034661529 69362.98638684148 86458.97095534 75538.79698784789 86458.97095534 78504.52582612303 86458.97095534 81348.78613236938 87805.44278689749 83445.87310507425 90202.1780163973 85542.9600777791 92598.91324589711 86721.0912715458 95849.58380299657 86721.0912715458 99239.0792699726 86721.0912715458 106297.3381933299 81714.6075888543 112019.1875846052 75538.79698784789 112019.1875846052 69362.98638684148 112019.1875846052 64356.502704149985 106297.33819332991 64356.502704149985 99239.0792699726 Z"></path></g><g></g></g></g><g id="editor-gb98267064_0_69"><g><g></g><g><path stroke="#666666" stroke-opacity="1" stroke-width="762" stroke-linecap="butt" stroke-linejoin="round" stroke-miterlimit="8" d="M 75538.79659275 112019.1866815 L 75538.79659275 167720.70784913684"></path></g><g><path stroke="#000" stroke-opacity="0" stroke-width="3882.8025477707006" stroke-linecap="round" stroke-linejoin="round" stroke-miterlimit="10" pointer-events="visiblePainted" d="M 75538.79659275 112019.1866815 L 75538.79659275 167720.70784913684"></path></g></g></g><g id="editor-gb98267064_0_70"><g><g></g><g><path stroke="#666666" stroke-opacity="1" stroke-width="762" stroke-linecap="butt" stroke-linejoin="round" stroke-miterlimit="8" d="M 75486.86278114999 167720.70809614 L 87660.62063954074 219658.6155763851"></path></g><g><path stroke="#000" stroke-opacity="0" stroke-width="3882.8025477707006" stroke-linecap="round" stroke-linejoin="round" stroke-miterlimit="10" pointer-events="visiblePainted" d="M 75486.86278114999 167720.70809614 L 87660.62063954074 219658.6155763851"></path></g></g></g><g id="editor-gb98267064_0_71"><g><g></g><g><path stroke="#666666" stroke-opacity="1" stroke-width="762" stroke-linecap="butt" stroke-linejoin="round" stroke-miterlimit="8" d="M 75661.54923835 168120.67663967 L 63416.97240244078 220349.95615041914"></path></g><g><path stroke="#000" stroke-opacity="0" stroke-width="3882.8025477707006" stroke-linecap="round" stroke-linejoin="round" stroke-miterlimit="10" pointer-events="visiblePainted" d="M 75661.54923835 168120.67663967 L 63416.97240244078 220349.95615041914"></path></g></g></g><g id="editor-gb98267064_0_72"><g><g></g><g><path stroke="#666666" stroke-opacity="1" stroke-width="762" stroke-linecap="butt" stroke-linejoin="round" stroke-miterlimit="8" d="M 75537.0261219 116010.10383507 L 101739.99503959052 159336.2086402718"></path></g><g><path stroke="#000" stroke-opacity="0" stroke-width="3882.8025477707006" stroke-linecap="round" stroke-linejoin="round" stroke-miterlimit="10" pointer-events="visiblePainted" d="M 75537.0261219 116010.10383507 L 101739.99503959052 159336.2086402718"></path></g></g></g><g id="editor-gb98267064_0_73"><g><g></g><g><path stroke="#666666" stroke-opacity="1" stroke-width="762" stroke-linecap="butt" stroke-linejoin="round" stroke-miterlimit="8" d="M 75711.7125791 116209.75086523 L 49678.70962956696 157342.4341179533"></path></g><g><path stroke="#000" stroke-opacity="0" stroke-width="3882.8025477707006" stroke-linecap="round" stroke-linejoin="round" stroke-miterlimit="10" pointer-events="visiblePainted" d="M 75711.7125791 116209.75086523 L 49678.70962956696 157342.4341179533"></path></g></g></g></g><g id="editor-gb98267064_0_77"><g></g><g id="editor-gb98267064_0_75"><g><g></g><g><path fill="#FFFFFF" fill-opacity="1" stroke="#666666" stroke-opacity="1" stroke-width="762" stroke-linecap="butt" stroke-linejoin="round" stroke-miterlimit="8" d="M 84983.46451183436 72213.60657330882 L 84983.46451183436 92132.05254321086 C 84983.46451183436 89931.92175330975 80830.36278051841 88148.36334923045 75707.25216537897 88148.36334923045 70584.14155023955 88148.36334923045 66431.0398189236 89931.92175330975 66431.0398189236 92132.05254321086 L 66431.0398189236 72213.60657330882 C 66431.0398189236 70013.47578340772 70584.14155023955 68229.91737932841 75707.25216537897 68229.91737932841 80830.3627805184 68229.91737932841 84983.46451183436 70013.47578340772 84983.46451183436 72213.60657330882 Z"></path></g><g><path fill="#000" fill-opacity="0" stroke="#000" stroke-opacity="0" stroke-width="3882.8025477707006" stroke-linecap="round" stroke-linejoin="round" stroke-miterlimit="10" pointer-events="visiblePainted" d="M 84983.46451183436 72213.60657330882 L 84983.46451183436 92132.05254321086 C 84983.46451183436 89931.92175330975 80830.36278051841 88148.36334923045 75707.25216537897 88148.36334923045 70584.14155023955 88148.36334923045 66431.0398189236 89931.92175330975 66431.0398189236 92132.05254321086 L 66431.0398189236 72213.60657330882 C 66431.0398189236 70013.47578340772 70584.14155023955 68229.91737932841 75707.25216537897 68229.91737932841 80830.3627805184 68229.91737932841 84983.46451183436 70013.47578340772 84983.46451183436 72213.60657330882 Z"></path></g><g></g></g></g><g id="editor-gb98267064_0_76"><g><g></g><g><path fill="#FFFFFF" fill-opacity="1" stroke="#666666" stroke-opacity="1" stroke-width="762" stroke-linecap="butt" stroke-linejoin="round" stroke-miterlimit="8" d="M 64615.71635478362 69902.6821931927 C 64397.45347878873 68650.40693247024 65114.0539057628 67410.73035073666 66461.43765588266 66709.69292434576 67808.82140600253 66008.65549795485 69550.68652260376 65969.2040232714 70947.8954199786 66608.07921544733 71442.82934945848 65879.95443488806 72348.70311902856 65377.23447961784 73391.50743981483 65251.982409715965 74434.31176060108 65126.730339814094 75491.5651816016 65393.6575013661 76243.46899820719 65972.02359238405 76665.08921380166 65311.85880847908 77492.94775461545 64868.3124507102 78433.27743590591 64798.7777914794 79373.60711719637 64729.2431322486 80293.3281682505 65043.56103555407 80866.0758170734 65630.19519293726 81627.79425946559 64930.42224414145 82839.7074723244 64635.788728660686 83977.41373271104 64873.7842402334 85115.11999309764 65111.77975180611 85974.277107831 65839.65817353435 86183.12291897691 66742.46238275101 87116.35716734287 66941.20087787561 87893.72173430311 67446.42046013981 88314.37050382546 68127.58856457483 88735.0192733478 68808.75666900986 88757.68754460242 69599.05223234183 88376.51856204352 70294.28818307434 89295.48201180107 71228.06605331427 89510.45063161141 72472.31371544907 88941.20196251891 73562.70010993014 88371.95329342644 74653.08650441121 87104.01045751953 75425.7935078033 85610.5471310369 75592.46063326404 85600.02057487465 76615.8272220264 84881.14520894716 77554.85610254445 83731.00705324298 78047.60445762152 82580.8688975388 78540.35281269858 81179.06584202331 78509.87635141029 80065.9141193434 77967.9220354164 79591.77048683778 79193.58056494339 78257.2145980393 80095.40845476871 76638.82393675935 80283.78271501928 75020.43327547939 80472.15697526984 73408.33615835289 79913.3078194958 72499.0181408025 78848.67874419726 71384.38454830211 79373.43787724862 70046.91689544191 79524.60433944782 68788.32092792804 79268.07802369614 67529.72496041415 79011.55170794445 66456.01869399563 78368.94114603876 65809.40862173148 77485.2063288721 64670.392982511345 77589.26841602124 63569.12227620289 77128.53984777536 63052.15318934795 76331.67855375446 62535.184102493 75534.81725973355 62712.56699120803 74571.45595379274 63496.267366470514 73919.70738359842 62480.235926225 73452.82588173957 61961.79543641185 72526.37795203179 62211.292273779916 71623.46984478598 62460.78911114798 70720.56173754018 63421.68637254615 70045.79575854992 64592.91383265209 69951.03589444012 Z"></path><path stroke="#666666" stroke-opacity="1" stroke-width="762" stroke-linecap="butt" stroke-linejoin="round" stroke-miterlimit="8" d="M 63496.554963259594 73919.61818631896 C 63976.02328510294 74139.94098473736 64529.921630448545 74239.88461412447 65083.88008562176 74206.03000733143 M 65809.44673040135 77485.19690557095 C 66047.66923460011 77463.43255911316 66281.17257648485 77417.34386046362 66503.9349152635 77348.11939563285 M 72498.72324468967 78848.61211025166 C 72331.17299954046 78652.44436792562 72190.8913558542 78442.82213968648 72080.26854060066 78223.31713092799 M 80065.90855490474 77967.81857660052 C 80152.35201793202 77744.36272795539 80208.35990517588 77514.37832720276 80232.99783305808 77281.7022205065 M 85610.33184281323 75592.44311457113 C 85621.53898669887 74502.91141671542 84828.90722230019 73505.32499026004 83572.89522349884 73028.17656926921 M 88376.27718558312 70294.3855598511 C 88172.86993433605 70665.39170194924 87862.3463823747 70994.50600024784 87469.0533222316 71255.92404316671 M 86183.07177106236 66742.46255429913 C 86217.72979753133 66892.28318995198 86233.7695569885 67044.355591107 86230.96872818553 67196.57193774648 M 80866.1152161456 65630.24060952137 C 80676.10430133622 65804.79920067478 80519.5603264604 65999.86613501629 80401.357584331 66209.36763451104 M 76243.46483245426 65971.99281290865 C 76142.20529275094 66130.5430428883 76066.59134731602 66298.31635890472 76018.36481000364 66471.44799918006 M 70947.81370156427 66608.06158262001 C 71243.46218375284 66743.24715238671 71516.97720309516 66905.95747509279 71762.35033043794 67092.6182188831 M 64615.71635478362 69902.6821931927 C 64645.7986442629 70075.27822780958 64693.330172657676 70245.74636862059 64757.86607343717 70412.4911363097"></path></g><g><path fill="#000" fill-opacity="0" stroke="#000" stroke-opacity="0" stroke-width="3882.8025477707006" stroke-linecap="round" stroke-linejoin="round" stroke-miterlimit="10" pointer-events="visiblePainted" d="M 64615.71635478362 69902.6821931927 C 64397.45347878873 68650.40693247024 65114.0539057628 67410.73035073666 66461.43765588266 66709.69292434576 67808.82140600253 66008.65549795485 69550.68652260376 65969.2040232714 70947.8954199786 66608.07921544733 71442.82934945848 65879.95443488806 72348.70311902856 65377.23447961784 73391.50743981483 65251.982409715965 74434.31176060108 65126.730339814094 75491.5651816016 65393.6575013661 76243.46899820719 65972.02359238405 76665.08921380166 65311.85880847908 77492.94775461545 64868.3124507102 78433.27743590591 64798.7777914794 79373.60711719637 64729.2431322486 80293.3281682505 65043.56103555407 80866.0758170734 65630.19519293726 81627.79425946559 64930.42224414145 82839.7074723244 64635.788728660686 83977.41373271104 64873.7842402334 85115.11999309764 65111.77975180611 85974.277107831 65839.65817353435 86183.12291897691 66742.46238275101 87116.35716734287 66941.20087787561 87893.72173430311 67446.42046013981 88314.37050382546 68127.58856457483 88735.0192733478 68808.75666900986 88757.68754460242 69599.05223234183 88376.51856204352 70294.28818307434 89295.48201180107 71228.06605331427 89510.45063161141 72472.31371544907 88941.20196251891 73562.70010993014 88371.95329342644 74653.08650441121 87104.01045751953 75425.7935078033 85610.5471310369 75592.46063326404 85600.02057487465 76615.8272220264 84881.14520894716 77554.85610254445 83731.00705324298 78047.60445762152 82580.8688975388 78540.35281269858 81179.06584202331 78509.87635141029 80065.9141193434 77967.9220354164 79591.77048683778 79193.58056494339 78257.2145980393 80095.40845476871 76638.82393675935 80283.78271501928 75020.43327547939 80472.15697526984 73408.33615835289 79913.3078194958 72499.0181408025 78848.67874419726 71384.38454830211 79373.43787724862 70046.91689544191 79524.60433944782 68788.32092792804 79268.07802369614 67529.72496041415 79011.55170794445 66456.01869399563 78368.94114603876 65809.40862173148 77485.2063288721 64670.392982511345 77589.26841602124 63569.12227620289 77128.53984777536 63052.15318934795 76331.67855375446 62535.184102493 75534.81725973355 62712.56699120803 74571.45595379274 63496.267366470514 73919.70738359842 62480.235926225 73452.82588173957 61961.79543641185 72526.37795203179 62211.292273779916 71623.46984478598 62460.78911114798 70720.56173754018 63421.68637254615 70045.79575854992 64592.91383265209 69951.03589444012 Z"></path><path stroke="#000" stroke-opacity="0" stroke-width="3882.8025477707006" stroke-linecap="round" stroke-linejoin="round" stroke-miterlimit="10" pointer-events="visiblePainted" d="M 63496.554963259594 73919.61818631896 C 63976.02328510294 74139.94098473736 64529.921630448545 74239.88461412447 65083.88008562176 74206.03000733143 M 65809.44673040135 77485.19690557095 C 66047.66923460011 77463.43255911316 66281.17257648485 77417.34386046362 66503.9349152635 77348.11939563285 M 72498.72324468967 78848.61211025166 C 72331.17299954046 78652.44436792562 72190.8913558542 78442.82213968648 72080.26854060066 78223.31713092799 M 80065.90855490474 77967.81857660052 C 80152.35201793202 77744.36272795539 80208.35990517588 77514.37832720276 80232.99783305808 77281.7022205065 M 85610.33184281323 75592.44311457113 C 85621.53898669887 74502.91141671542 84828.90722230019 73505.32499026004 83572.89522349884 73028.17656926921 M 88376.27718558312 70294.3855598511 C 88172.86993433605 70665.39170194924 87862.3463823747 70994.50600024784 87469.0533222316 71255.92404316671 M 86183.07177106236 66742.46255429913 C 86217.72979753133 66892.28318995198 86233.7695569885 67044.355591107 86230.96872818553 67196.57193774648 M 80866.1152161456 65630.24060952137 C 80676.10430133622 65804.79920067478 80519.5603264604 65999.86613501629 80401.357584331 66209.36763451104 M 76243.46483245426 65971.99281290865 C 76142.20529275094 66130.5430428883 76066.59134731602 66298.31635890472 76018.36481000364 66471.44799918006 M 70947.81370156427 66608.06158262001 C 71243.46218375284 66743.24715238671 71516.97720309516 66905.95747509279 71762.35033043794 67092.6182188831 M 64615.71635478362 69902.6821931927 C 64645.7986442629 70075.27822780958 64693.330172657676 70245.74636862059 64757.86607343717 70412.4911363097"></path></g><g></g></g></g></g></g><g id="editor-gb98267064_0_81"><g><g></g><g><path fill="#000000" fill-opacity="1" d="M 276568.47486872046 110355.0924578463 L 277336.3771746102 109294.26193313996 278950.9998369217 110463.037186731 280565.62249923317 109294.26193313996 281333.5248051229 110355.0924578463 280067.70136287453 111271.38277709484 281333.5248051229 112187.67309634338 280565.62249923317 113248.50362104972 278950.9998369217 112079.72836745868 277336.3771746102 113248.50362104972 276568.47486872046 112187.67309634338 277834.29831096885 111271.38277709484 Z"></path></g><g><path fill="#000" fill-opacity="0" stroke="#000" stroke-opacity="0" stroke-width="3882.8025477707006" stroke-linecap="round" stroke-linejoin="round" stroke-miterlimit="10" pointer-events="visiblePainted" d="M 276568.47486872046 110355.0924578463 L 277336.3771746102 109294.26193313996 278950.9998369217 110463.037186731 280565.62249923317 109294.26193313996 281333.5248051229 110355.0924578463 280067.70136287453 111271.38277709484 281333.5248051229 112187.67309634338 280565.62249923317 113248.50362104972 278950.9998369217 112079.72836745868 277336.3771746102 113248.50362104972 276568.47486872046 112187.67309634338 277834.29831096885 111271.38277709484 Z"></path></g><g></g></g></g><g id="editor-gb98267064_0_83"><g><g></g><g><path fill="#000000" fill-opacity="1" d="M 279175.0311291218 120642.95313823223 C 279539.539062035 119039.11823341415 281409.1979730005 118096.22991711821 283351.03118777275 118536.95313948393 285292.864402545 118977.67636184965 286571.5391864895 120635.11820444629 286207.0312535763 122238.95310926437 285584.7560490713 121136.51566271245 284404.3895621928 120302.92353599219 283021.0311895609 119988.95313161612 281637.672816929 119674.98272724004 280212.78597177507 119917.28017693158 279175.0311291218 120642.95313823223 Z"></path></g><g><path fill="#000" fill-opacity="0" stroke="#000" stroke-opacity="0" stroke-width="3882.8025477707006" stroke-linecap="round" stroke-linejoin="round" stroke-miterlimit="10" pointer-events="visiblePainted" d="M 279175.0311291218 120642.95313823223 C 279539.539062035 119039.11823341415 281409.1979730005 118096.22991711821 283351.03118777275 118536.95313948393 285292.864402545 118977.67636184965 286571.5391864895 120635.11820444629 286207.0312535763 122238.95310926437 285584.7560490713 121136.51566271245 284404.3895621928 120302.92353599219 283021.0311895609 119988.95313161612 281637.672816929 119674.98272724004 280212.78597177507 119917.28017693158 279175.0311291218 120642.95313823223 Z"></path></g><g></g></g></g><g id="editor-gb98267064_0_84"><g><g></g><g><path fill="#000000" fill-opacity="1" d="M 284260.47486872046 110355.0924578463 L 285028.3771746102 109294.26193313996 286642.9998369217 110463.037186731 288257.62249923317 109294.26193313996 289025.5248051229 110355.0924578463 287759.70136287453 111271.38277709484 289025.5248051229 112187.67309634338 288257.62249923317 113248.50362104972 286642.9998369217 112079.72836745868 285028.3771746102 113248.50362104972 284260.47486872046 112187.67309634338 285526.29831096885 111271.38277709484 Z"></path></g><g><path fill="#000" fill-opacity="0" stroke="#000" stroke-opacity="0" stroke-width="3882.8025477707006" stroke-linecap="round" stroke-linejoin="round" stroke-miterlimit="10" pointer-events="visiblePainted" d="M 284260.47486872046 110355.0924578463 L 285028.3771746102 109294.26193313996 286642.9998369217 110463.037186731 288257.62249923317 109294.26193313996 289025.5248051229 110355.0924578463 287759.70136287453 111271.38277709484 289025.5248051229 112187.67309634338 288257.62249923317 113248.50362104972 286642.9998369217 112079.72836745868 285028.3771746102 113248.50362104972 284260.47486872046 112187.67309634338 285526.29831096885 111271.38277709484 Z"></path></g><g></g></g></g></g></g></svg>