<svg xmlns="http://www.w3.org/2000/svg" xmlns:xlink="http://www.w3.org/1999/xlink" version="1.1" fill-rule="evenodd" fill="none" stroke="none" stroke-linecap="square" stroke-miterlimit="10" overflow="hidden" viewBox="6858 13335 358140 268605"><rect fill="#ffffff" fill-opacity="0" width="100%" height="100%"></rect><g transform="translate(6858 13335) scale(0.98125)"><defs cursor="default"><radialGradient gradientUnits="userSpaceOnUse" gradientTransform="matrix(478.1213235152768,0,0,478.1213235152768,0,0)" cx="382.4970588122215" cy="286.87279410916614" r="478.12132351527686" id="gradient-28500"><stop offset="0%" stop-color="#FFFFFF" stop-opacity="1"></stop><stop offset="30%" stop-color="#FFFFFF" stop-opacity="1"></stop><stop offset="100%" stop-color="#CCCCCC" stop-opacity="1"></stop></radialGradient></defs><g id="editor-gbab6d009d_0_131"><g></g><path fill="#fff" fill-opacity="1" d="M 0 0 L 365760 0 365760 274320 0 274320 Z"></path><g id="editor-gbab6d009d_0_131-bg"><g><g></g><g><g><path fill="url(#gradient-28500)" d="M 0 0 L 365760 0 365760 274320 0 274320 Z"></path></g><g></g></g><g></g></g></g><g id="editor-gb9563dfae_0_1"></g><g id="editor-gb9563dfae_0_2"></g><g id="editor-gb9563dfae_0_3"></g><g id="editor-gb9563dfae_0_5"></g><g id="editor-gb9563dfae_0_6"></g><g id="editor-gb9563dfae_0_7"></g><g id="editor-gbab6d009d_0_153"><g><g></g><g><path d="M 27432 84444.921875 L 338328.00563049316 84444.921875 338328.00563049316 146304.92296218872 27432 146304.92296218872 Z"></path></g><g></g><g><path fill="#000" fill-opacity="0" stroke="#000" stroke-opacity="0" stroke-width="3882.8025477707006" stroke-linecap="round" stroke-linejoin="round" stroke-miterlimit="10" pointer-events="visiblePainted" d="M 27432 84444.921875 L 338328.00563049316 84444.921875 338328.00563049316 146304.92296218872 27432 146304.92296218872 Z"></path></g><g><g direction="ltr" style="opacity: 1;"><g transform="matrix(380.99999999999994,0,0,381,31089,113310.92296218872)"><g pointer-events="none"><g id="editor-gbab6d009d_0_153-paragraph-0"><g><g class="sketchy-text-background" visibility="visible"></g><g class="sketchy-text-content" visibility="visible"><g class="sketchy-text-content-text" transform="translate(0 61.44)"><text x="334.40158219224827px" style="font-family:Arial;font-size:64px;fill:#000000;font-weight:700;" y="0px" text-rendering="geometricPrecision">NTP</text></g></g></g></g></g><rect style="opacity: 0;"></rect><rect style="opacity: 1;"></rect></g><g><path d="M 158496.00281524658 113310.92296218872 L 207264.00281524655 113310.92296218872 207264.00281524655 142571.7229621887 158496.00281524658 142571.7229621887 Z" pointer-events="visiblePainted" fill="#000000" stroke="#000000" opacity="0"></path></g><g transform="matrix(380.99999999999994,0,0,381,31089,113310.92296218872)"></g></g></g></g></g><g id="editor-gbab6d009d_0_152"><g><g></g><g><path d="M 27432 151469.515625 L 338328.00563049316 151469.515625 338328.00563049316 193325.5160484314 27432 193325.5160484314 Z"></path></g><g></g><g><path fill="#000" fill-opacity="0" stroke="#000" stroke-opacity="0" stroke-width="3882.8025477707006" stroke-linecap="round" stroke-linejoin="round" stroke-miterlimit="10" pointer-events="visiblePainted" d="M 27432 151469.515625 L 338328.00563049316 151469.515625 338328.00563049316 193325.5160484314 27432 193325.5160484314 Z"></path></g><g><g direction="ltr" style="opacity: 1;"><g transform="matrix(381,0,0,381.0000000000005,31089,155126.515625)"><g pointer-events="none"><g id="editor-gbab6d009d_0_152-paragraph-0"><g><g class="sketchy-text-background" visibility="visible"></g><g class="sketchy-text-content" visibility="visible"></g></g></g></g><rect style="opacity: 0;"></rect><rect style="opacity: 1;"></rect></g><g><path d="M 182880.00281524658 155126.515625 L 182880.00281524658 155126.515625 182880.00281524658 173414.51562500003 182880.00281524658 173414.51562500003 Z" pointer-events="visiblePainted" fill="#000000" stroke="#000000" opacity="0"></path></g><g transform="matrix(381,0,0,381.0000000000005,31089,155126.515625)"></g></g></g></g></g><g id="editor-gbab6d009d_0_132"><g><g></g><g><path stroke="#666666" stroke-opacity="1" stroke-width="3048" stroke-linecap="butt" stroke-linejoin="round" stroke-miterlimit="8" d="M 56043 84886.9199999998 L 56043 177235.0834790041"></path><path fill="#666666" fill-opacity="1" stroke="#666666" stroke-opacity="1" stroke-width="3048" stroke-linecap="butt" stroke-linejoin="miter" stroke-miterlimit="10" d="M 56043 84886.9199999998 C 53273.8663557384 84886.9199999998 51029.04 82642.0936442614 51029.04 79872.95999999979 51029.04 77103.82635573819 53273.86635573839 74858.9999999998 56043 74858.9999999998 58812.1336442616 74858.9999999998 61056.96 77103.82635573819 61056.96 79872.95999999979 61056.96 82642.0936442614 58812.13364426161 84886.9199999998 56043 84886.9199999998"></path><path stroke="#666666" stroke-opacity="1" stroke-width="3048" stroke-linecap="butt" stroke-linejoin="miter" stroke-miterlimit="10" d="M 56043 177235.0834790041 C 58812.1336442616 177235.0834790041 61056.96 179479.9098347425 61056.96 182249.0434790041 61056.96 185018.1771232657 58812.13364426161 187263.00347900408 56043 187263.0034790041 53273.8663557384 187263.0034790041 51029.04 185018.1771232657 51029.04 182249.0434790041 51029.04 179479.9098347425 53273.86635573839 177235.0834790041 56043 177235.0834790041"></path></g><g><path stroke="#000" stroke-opacity="0" stroke-width="3882.8025477707006" stroke-linecap="round" stroke-linejoin="round" stroke-miterlimit="10" pointer-events="visiblePainted" d="M 56043 84886.9199999998 L 56043 177235.0834790041"></path></g></g></g><g id="editor-gbab6d009d_0_133"><g><g></g><g><path stroke="#666666" stroke-opacity="1" stroke-width="762" stroke-linecap="butt" stroke-linejoin="round" stroke-miterlimit="8" stroke-dasharray="3048,2286" d="M 56039 74177 L 56039 50880.21078397473"></path><path fill="#666666" fill-opacity="1" stroke="#666666" stroke-opacity="1" stroke-width="762" stroke-linecap="butt" stroke-linejoin="miter" stroke-miterlimit="10" d="M 56039 50880.21078397473 L 56895.874409164455 51737.08519313919 56039 49383.03461851157 55182.125590835545 51737.08519313919 Z"></path></g><g><path stroke="#000" stroke-opacity="0" stroke-width="3882.8025477707006" stroke-linecap="round" stroke-linejoin="round" stroke-miterlimit="10" pointer-events="visiblePainted" d="M 56039 74177 L 56039 50880.21078397473"></path></g></g></g><g id="editor-gbab6d009d_0_134"><g><g></g><g><path stroke="#666666" stroke-opacity="1" stroke-width="762" stroke-linecap="butt" stroke-linejoin="round" stroke-miterlimit="8" stroke-dasharray="3048,2286" d="M 56043 275163 L 56043 190990.20847226674"></path><path fill="#666666" fill-opacity="1" stroke="#666666" stroke-opacity="1" stroke-width="762" stroke-linecap="butt" stroke-linejoin="miter" stroke-miterlimit="10" d="M 56043 190990.20847226674 L 56899.874409164455 191847.08288143118 56043 189493.03230680357 55186.125590835545 191847.08288143118 Z"></path></g><g><path stroke="#000" stroke-opacity="0" stroke-width="3882.8025477707006" stroke-linecap="round" stroke-linejoin="round" stroke-miterlimit="10" pointer-events="visiblePainted" d="M 56043 275163 L 56043 190990.20847226674"></path></g></g></g><g id="editor-gbab6d009d_0_135"><g><g></g><g><path stroke="#666666" stroke-opacity="1" stroke-width="3048" stroke-linecap="butt" stroke-linejoin="round" stroke-miterlimit="8" d="M 101763 85869.91999999974 L 101763 128466.08171661363"></path><path fill="#666666" fill-opacity="1" stroke="#666666" stroke-opacity="1" stroke-width="3048" stroke-linecap="butt" stroke-linejoin="miter" stroke-miterlimit="10" d="M 101763 85869.91999999974 C 98993.8663557384 85869.91999999974 96749.04 83625.09364426135 96749.04 80855.95999999973 96749.04 78086.82635573813 98993.8663557384 75841.99999999974 101763 75841.99999999974 104532.1336442616 75841.99999999974 106776.95999999999 78086.82635573813 106776.95999999999 80855.95999999973 106776.96 83625.09364426135 104532.1336442616 85869.91999999974 101763 85869.91999999974"></path><path stroke="#666666" stroke-opacity="1" stroke-width="3048" stroke-linecap="butt" stroke-linejoin="miter" stroke-miterlimit="10" d="M 101763 128466.08171661363 C 104532.1336442616 128466.08171661363 106776.96 130710.90807235202 106776.96 133480.04171661363 106776.96 136249.17536087523 104532.1336442616 138494.00171661362 101763 138494.00171661362 98993.8663557384 138494.00171661362 96749.04000000001 136249.17536087523 96749.04000000001 133480.04171661363 96749.04 130710.90807235202 98993.8663557384 128466.08171661363 101763 128466.08171661363"></path></g><g><path stroke="#000" stroke-opacity="0" stroke-width="3882.8025477707006" stroke-linecap="round" stroke-linejoin="round" stroke-miterlimit="10" pointer-events="visiblePainted" d="M 101763 85869.91999999974 L 101763 128466.08171661363"></path></g></g></g><g id="editor-gbab6d009d_0_136"><g><g></g><g><path stroke="#666666" stroke-opacity="1" stroke-width="762" stroke-linecap="butt" stroke-linejoin="round" stroke-miterlimit="8" stroke-dasharray="3048,2286" d="M 101759 80639 L 101759 2106.214537636668"></path><path fill="#666666" fill-opacity="1" stroke="#666666" stroke-opacity="1" stroke-width="762" stroke-linecap="butt" stroke-linejoin="miter" stroke-miterlimit="10" d="M 101759 2106.214537636668 L 102615.87440916445 2963.08894680112 101759 609.0383721735047 100902.12559083555 2963.08894680112 Z"></path></g><g><path stroke="#000" stroke-opacity="0" stroke-width="3882.8025477707006" stroke-linecap="round" stroke-linejoin="round" stroke-miterlimit="10" pointer-events="visiblePainted" d="M 101759 80639 L 101759 2106.214537636668"></path></g></g></g><g id="editor-gbab6d009d_0_137"><g><g></g><g><path stroke="#666666" stroke-opacity="1" stroke-width="762" stroke-linecap="butt" stroke-linejoin="round" stroke-miterlimit="8" stroke-dasharray="3048,2286" d="M 101763 275163 L 101763 142222.20548536087"></path><path fill="#666666" fill-opacity="1" stroke="#666666" stroke-opacity="1" stroke-width="762" stroke-linecap="butt" stroke-linejoin="miter" stroke-miterlimit="10" d="M 101763 142222.20548536087 L 102619.87440916445 143079.07989452532 101763 140725.0293198977 100906.12559083555 143079.07989452532 Z"></path></g><g><path stroke="#000" stroke-opacity="0" stroke-width="3882.8025477707006" stroke-linecap="round" stroke-linejoin="round" stroke-miterlimit="10" pointer-events="visiblePainted" d="M 101763 275163 L 101763 142222.20548536087"></path></g></g></g><g id="editor-gbab6d009d_0_138"><g><g></g><g><path stroke="#666666" stroke-opacity="1" stroke-width="3048" stroke-linecap="butt" stroke-linejoin="round" stroke-miterlimit="8" d="M 153579 85869.91999999933 L 153579 201246.0852642823"></path><path fill="#666666" fill-opacity="1" stroke="#666666" stroke-opacity="1" stroke-width="3048" stroke-linecap="butt" stroke-linejoin="miter" stroke-miterlimit="10" d="M 153579 85869.91999999933 C 150809.8663557384 85869.91999999933 148565.04 83625.09364426094 148565.04 80855.95999999932 148565.04 78086.82635573772 150809.8663557384 75841.99999999933 153579 75841.99999999933 156348.1336442616 75841.99999999933 158592.96 78086.82635573772 158592.96 80855.95999999932 158592.96 83625.09364426094 156348.1336442616 85869.91999999933 153579 85869.91999999933"></path><path stroke="#666666" stroke-opacity="1" stroke-width="3048" stroke-linecap="butt" stroke-linejoin="miter" stroke-miterlimit="10" d="M 153579 201246.0852642823 C 156348.1336442616 201246.0852642823 158592.96 203490.9116200207 158592.96 206260.0452642823 158592.96 209029.1789085439 156348.1336442616 211274.00526428228 153579 211274.0052642823 150809.8663557384 211274.0052642823 148565.04 209029.1789085439 148565.04 206260.0452642823 148565.04 203490.9116200207 150809.8663557384 201246.0852642823 153579 201246.0852642823"></path></g><g><path stroke="#000" stroke-opacity="0" stroke-width="3882.8025477707006" stroke-linecap="round" stroke-linejoin="round" stroke-miterlimit="10" pointer-events="visiblePainted" d="M 153579 85869.91999999933 L 153579 201246.0852642823"></path></g></g></g><g id="editor-gbab6d009d_0_139"><g><g></g><g><path stroke="#666666" stroke-opacity="1" stroke-width="762" stroke-linecap="butt" stroke-linejoin="round" stroke-miterlimit="8" stroke-dasharray="3048,2286" d="M 153575 80639 L 153575 2106.2145376373956"></path><path fill="#666666" fill-opacity="1" stroke="#666666" stroke-opacity="1" stroke-width="762" stroke-linecap="butt" stroke-linejoin="miter" stroke-miterlimit="10" d="M 153575 2106.2145376373956 L 154431.87440916445 2963.0889468018477 153575 609.0383721742323 152718.12559083555 2963.0889468018477 Z"></path></g><g><path stroke="#000" stroke-opacity="0" stroke-width="3882.8025477707006" stroke-linecap="round" stroke-linejoin="round" stroke-miterlimit="10" pointer-events="visiblePainted" d="M 153575 80639 L 153575 2106.2145376373956"></path></g></g></g><g id="editor-gbab6d009d_0_140"><g><g></g><g><path stroke="#666666" stroke-opacity="1" stroke-width="762" stroke-linecap="butt" stroke-linejoin="round" stroke-miterlimit="8" stroke-dasharray="3048,2286" d="M 153579 274741 L 153579 214988.21236325963"></path><path fill="#666666" fill-opacity="1" stroke="#666666" stroke-opacity="1" stroke-width="762" stroke-linecap="butt" stroke-linejoin="miter" stroke-miterlimit="10" d="M 153579 214988.21236325963 L 154435.87440916445 215845.08677242408 153579 213491.03619779646 152722.12559083555 215845.08677242408 Z"></path></g><g><path stroke="#000" stroke-opacity="0" stroke-width="3882.8025477707006" stroke-linecap="round" stroke-linejoin="round" stroke-miterlimit="10" pointer-events="visiblePainted" d="M 153579 274741 L 153579 214988.21236325963"></path></g></g></g><g id="editor-gbab6d009d_0_141"><g><g></g><g><path stroke="#666666" stroke-opacity="1" stroke-width="3048" stroke-linecap="butt" stroke-linejoin="round" stroke-miterlimit="8" d="M 211491 85869.91999999933 L 211491 201246.0852642823"></path><path fill="#666666" fill-opacity="1" stroke="#666666" stroke-opacity="1" stroke-width="3048" stroke-linecap="butt" stroke-linejoin="miter" stroke-miterlimit="10" d="M 211491 85869.91999999933 C 208721.8663557384 85869.91999999933 206477.04 83625.09364426094 206477.04 80855.95999999932 206477.04 78086.82635573772 208721.8663557384 75841.99999999933 211491 75841.99999999933 214260.1336442616 75841.99999999933 216504.96 78086.82635573772 216504.96 80855.95999999932 216504.96 83625.09364426094 214260.1336442616 85869.91999999933 211491 85869.91999999933"></path><path stroke="#666666" stroke-opacity="1" stroke-width="3048" stroke-linecap="butt" stroke-linejoin="miter" stroke-miterlimit="10" d="M 211491 201246.0852642823 C 214260.1336442616 201246.0852642823 216504.96 203490.9116200207 216504.96 206260.0452642823 216504.96 209029.1789085439 214260.1336442616 211274.00526428228 211491 211274.0052642823 208721.8663557384 211274.0052642823 206477.04 209029.1789085439 206477.04 206260.0452642823 206477.04 203490.9116200207 208721.8663557384 201246.0852642823 211491 201246.0852642823"></path></g><g><path stroke="#000" stroke-opacity="0" stroke-width="3882.8025477707006" stroke-linecap="round" stroke-linejoin="round" stroke-miterlimit="10" pointer-events="visiblePainted" d="M 211491 85869.91999999933 L 211491 201246.0852642823"></path></g></g></g><g id="editor-gbab6d009d_0_142"><g><g></g><g><path stroke="#666666" stroke-opacity="1" stroke-width="762" stroke-linecap="butt" stroke-linejoin="round" stroke-miterlimit="8" stroke-dasharray="3048,2286" d="M 211487 80639 L 211487 2106.2145376388216"></path><path fill="#666666" fill-opacity="1" stroke="#666666" stroke-opacity="1" stroke-width="762" stroke-linecap="butt" stroke-linejoin="miter" stroke-miterlimit="10" d="M 211487 2106.2145376388216 L 212343.87440916445 2963.0889468032738 211487 609.0383721756584 210630.12559083555 2963.0889468032738 Z"></path></g><g><path stroke="#000" stroke-opacity="0" stroke-width="3882.8025477707006" stroke-linecap="round" stroke-linejoin="round" stroke-miterlimit="10" pointer-events="visiblePainted" d="M 211487 80639 L 211487 2106.2145376388216"></path></g></g></g><g id="editor-gbab6d009d_0_143"><g><g></g><g><path stroke="#666666" stroke-opacity="1" stroke-width="762" stroke-linecap="butt" stroke-linejoin="round" stroke-miterlimit="8" stroke-dasharray="3048,2286" d="M 211491 274741 L 211491 214988.21236325963"></path><path fill="#666666" fill-opacity="1" stroke="#666666" stroke-opacity="1" stroke-width="762" stroke-linecap="butt" stroke-linejoin="miter" stroke-miterlimit="10" d="M 211491 214988.21236325963 L 212347.87440916445 215845.08677242408 211491 213491.03619779646 210634.12559083555 215845.08677242408 Z"></path></g><g><path stroke="#000" stroke-opacity="0" stroke-width="3882.8025477707006" stroke-linecap="round" stroke-linejoin="round" stroke-miterlimit="10" pointer-events="visiblePainted" d="M 211491 274741 L 211491 214988.21236325963"></path></g></g></g><g id="editor-gbab6d009d_0_144"><g><g></g><g><path stroke="#666666" stroke-opacity="1" stroke-width="3048" stroke-linecap="butt" stroke-linejoin="round" stroke-miterlimit="8" d="M 260259 86641.91999999994 L 260259 101038.08"></path><path fill="#666666" fill-opacity="1" stroke="#666666" stroke-opacity="1" stroke-width="3048" stroke-linecap="butt" stroke-linejoin="miter" stroke-miterlimit="10" d="M 260259 86641.91999999994 C 257489.8663557384 86641.91999999994 255245.04 84397.09364426155 255245.04 81627.95999999993 255245.04 78858.82635573833 257489.8663557384 76613.99999999994 260259 76613.99999999994 263028.13364426163 76613.99999999994 265272.96 78858.82635573833 265272.96 81627.95999999993 265272.96 84397.09364426155 263028.13364426163 86641.91999999994 260259 86641.91999999994"></path><path stroke="#666666" stroke-opacity="1" stroke-width="3048" stroke-linecap="butt" stroke-linejoin="miter" stroke-miterlimit="10" d="M 260259 101038.08 C 263028.13364426163 101038.08 265272.96 103282.90635573839 265272.96 106052.04000000001 265272.96 108821.17364426161 263028.13364426163 111066 260259 111066 257489.8663557384 111066 255245.04 108821.17364426161 255245.04 106052.04000000001 255245.04 103282.90635573839 257489.8663557384 101038.08 260259 101038.08"></path></g><g><path stroke="#000" stroke-opacity="0" stroke-width="3882.8025477707006" stroke-linecap="round" stroke-linejoin="round" stroke-miterlimit="10" pointer-events="visiblePainted" d="M 260259 86641.91999999994 L 260259 101038.08"></path></g></g></g><g id="editor-gbab6d009d_0_145"><g><g></g><g><path stroke="#666666" stroke-opacity="1" stroke-width="762" stroke-linecap="butt" stroke-linejoin="round" stroke-miterlimit="8" stroke-dasharray="3048,2286" d="M 260255 81832 L 260255 26291.210349099456"></path><path fill="#666666" fill-opacity="1" stroke="#666666" stroke-opacity="1" stroke-width="762" stroke-linecap="butt" stroke-linejoin="miter" stroke-miterlimit="10" d="M 260255 26291.210349099456 L 261111.87440916445 27148.084758263907 260255 24794.034183636293 259398.12559083555 27148.084758263907 Z"></path></g><g><path stroke="#000" stroke-opacity="0" stroke-width="3882.8025477707006" stroke-linecap="round" stroke-linejoin="round" stroke-miterlimit="10" pointer-events="visiblePainted" d="M 260255 81832 L 260255 26291.210349099456"></path></g></g></g><g id="editor-gbab6d009d_0_146"><g><g></g><g><path stroke="#666666" stroke-opacity="1" stroke-width="762" stroke-linecap="butt" stroke-linejoin="round" stroke-miterlimit="8" stroke-dasharray="3048,2286" d="M 260259 275163 L 260259 114790.2167692289"></path><path fill="#666666" fill-opacity="1" stroke="#666666" stroke-opacity="1" stroke-width="762" stroke-linecap="butt" stroke-linejoin="miter" stroke-miterlimit="10" d="M 260259 114790.2167692289 L 261115.87440916445 115647.09117839334 260259 113293.04060376572 259402.12559083555 115647.09117839334 Z"></path></g><g><path stroke="#000" stroke-opacity="0" stroke-width="3882.8025477707006" stroke-linecap="round" stroke-linejoin="round" stroke-miterlimit="10" pointer-events="visiblePainted" d="M 260259 275163 L 260259 114790.2167692289"></path></g></g></g><g id="editor-gbab6d009d_0_147"><g><g></g><g><path stroke="#666666" stroke-opacity="1" stroke-width="3048" stroke-linecap="butt" stroke-linejoin="round" stroke-miterlimit="8" d="M 309027 85869.9199999994 L 309027 128466.08171661363"></path><path fill="#666666" fill-opacity="1" stroke="#666666" stroke-opacity="1" stroke-width="3048" stroke-linecap="butt" stroke-linejoin="miter" stroke-miterlimit="10" d="M 309027 85869.9199999994 C 306257.86635573837 85869.9199999994 304013.04 83625.09364426101 304013.04 80855.95999999941 304013.04 78086.8263557378 306257.86635573837 75841.9999999994 309027 75841.9999999994 311796.13364426163 75841.9999999994 314040.96 78086.8263557378 314040.96 80855.9599999994 314040.96 83625.09364426101 311796.13364426163 85869.9199999994 309027 85869.9199999994"></path><path stroke="#666666" stroke-opacity="1" stroke-width="3048" stroke-linecap="butt" stroke-linejoin="miter" stroke-miterlimit="10" d="M 309027 128466.08171661363 C 311796.13364426163 128466.08171661363 314040.96 130710.90807235202 314040.96 133480.04171661363 314040.96 136249.17536087523 311796.13364426163 138494.00171661362 309027 138494.00171661362 306257.86635573837 138494.00171661362 304013.04 136249.17536087523 304013.04 133480.04171661363 304013.04 130710.90807235202 306257.86635573837 128466.08171661363 309027 128466.08171661363"></path></g><g><path stroke="#000" stroke-opacity="0" stroke-width="3882.8025477707006" stroke-linecap="round" stroke-linejoin="round" stroke-miterlimit="10" pointer-events="visiblePainted" d="M 309027 85869.9199999994 L 309027 128466.08171661363"></path></g></g></g><g id="editor-gbab6d009d_0_148"><g><g></g><g><path stroke="#666666" stroke-opacity="1" stroke-width="762" stroke-linecap="butt" stroke-linejoin="round" stroke-miterlimit="8" stroke-dasharray="3048,2286" d="M 309023 80639 L 309023 2106.2145376388216"></path><path fill="#666666" fill-opacity="1" stroke="#666666" stroke-opacity="1" stroke-width="762" stroke-linecap="butt" stroke-linejoin="miter" stroke-miterlimit="10" d="M 309023 2106.2145376388216 L 309879.8744091645 2963.0889468032738 309023 609.0383721756584 308166.1255908355 2963.0889468032738 Z"></path></g><g><path stroke="#000" stroke-opacity="0" stroke-width="3882.8025477707006" stroke-linecap="round" stroke-linejoin="round" stroke-miterlimit="10" pointer-events="visiblePainted" d="M 309023 80639 L 309023 2106.2145376388216"></path></g></g></g><g id="editor-gbab6d009d_0_149"><g><g></g><g><path stroke="#666666" stroke-opacity="1" stroke-width="762" stroke-linecap="butt" stroke-linejoin="round" stroke-miterlimit="8" stroke-dasharray="3048,2286" d="M 309027 274741 L 309027 142220.21795942928"></path><path fill="#666666" fill-opacity="1" stroke="#666666" stroke-opacity="1" stroke-width="762" stroke-linecap="butt" stroke-linejoin="miter" stroke-miterlimit="10" d="M 309027 142220.21795942928 L 309883.8744091645 143077.09236859373 309027 140723.0417939661 308170.1255908355 143077.09236859373 Z"></path></g><g><path stroke="#000" stroke-opacity="0" stroke-width="3882.8025477707006" stroke-linecap="round" stroke-linejoin="round" stroke-miterlimit="10" pointer-events="visiblePainted" d="M 309027 274741 L 309027 142220.21795942928"></path></g></g></g></g></g></svg>