<svg xmlns="http://www.w3.org/2000/svg" xmlns:xlink="http://www.w3.org/1999/xlink" version="1.1" fill-rule="evenodd" fill="none" stroke="none" stroke-linecap="square" stroke-miterlimit="10" overflow="hidden" viewBox="6858 13335 358140 268605"><rect fill="#ffffff" fill-opacity="0" width="100%" height="100%"></rect><g transform="translate(6858 13335) scale(0.98125)"><defs cursor="default"><radialGradient gradientUnits="userSpaceOnUse" gradientTransform="matrix(478.1213235152768,0,0,478.1213235152768,0,0)" cx="382.4970588122215" cy="286.87279410916614" r="478.12132351527686" id="gradient-28665"><stop offset="0%" stop-color="#FFFFFF" stop-opacity="1"></stop><stop offset="30%" stop-color="#FFFFFF" stop-opacity="1"></stop><stop offset="100%" stop-color="#CCCCCC" stop-opacity="1"></stop></radialGradient></defs><g id="editor-gbad6bdde3_1_0"><g></g><path fill="#fff" fill-opacity="1" d="M 0 0 L 365760 0 365760 274320 0 274320 Z"></path><g id="editor-gbad6bdde3_1_0-bg"><g><g></g><g><g><path fill="url(#gradient-28665)" d="M 0 0 L 365760 0 365760 274320 0 274320 Z"></path></g><g></g></g><g></g></g></g><g id="editor-gb9563dfae_0_1"></g><g id="editor-gb9563dfae_0_2"></g><g id="editor-gb9563dfae_0_3"></g><g id="editor-gb9563dfae_0_5"></g><g id="editor-gb9563dfae_0_6"></g><g id="editor-gb9563dfae_0_7"></g><g id="editor-gbad6bdde3_1_3"><g><g></g><g><path stroke="#666666" stroke-opacity="1" stroke-width="3048" stroke-linecap="butt" stroke-linejoin="round" stroke-miterlimit="8" d="M 67594.92000000001 73335 L 136198.15441506554 73335"></path><path fill="#666666" fill-opacity="1" stroke="#666666" stroke-opacity="1" stroke-width="3048" stroke-linecap="butt" stroke-linejoin="miter" stroke-miterlimit="10" d="M 67594.92000000001 73335 C 67594.92000000001 76104.1336442616 65350.09364426162 78348.96 62580.960000000014 78348.96 59811.82635573841 78348.96 57567.000000000015 76104.1336442616 57567.000000000015 73335 57567.000000000015 70565.8663557384 59811.826355738405 68321.04000000001 62580.96000000001 68321.04000000001 65350.093644261615 68321.04 67594.92000000001 70565.8663557384 67594.92000000001 73335"></path><path fill="#666666" fill-opacity="1" stroke="#666666" stroke-opacity="1" stroke-width="3048" stroke-linecap="butt" stroke-linejoin="miter" stroke-miterlimit="10" d="M 136198.15441506554 73335 L 132770.65677840772 76762.4976366578 142186.8590769182 73335 132770.65677840772 69907.5023633422 Z"></path></g><g><path stroke="#000" stroke-opacity="0" stroke-width="3882.8025477707006" stroke-linecap="round" stroke-linejoin="round" stroke-miterlimit="10" pointer-events="visiblePainted" d="M 67594.92000000001 73335 L 136198.15441506554 73335"></path></g></g></g><g id="editor-gbad6bdde3_1_9"><g><g></g><g><path stroke="#666666" stroke-opacity="1" stroke-width="3048" stroke-linecap="butt" stroke-linejoin="round" stroke-miterlimit="8" d="M 165130.91999999987 74318 L 195190.1564120595 74318"></path><path fill="#666666" fill-opacity="1" stroke="#666666" stroke-opacity="1" stroke-width="3048" stroke-linecap="butt" stroke-linejoin="miter" stroke-miterlimit="10" d="M 165130.91999999987 74318 C 165130.91999999987 77087.1336442616 162886.09364426148 79331.96 160116.95999999988 79331.96 157347.82635573827 79331.96 155102.99999999988 77087.1336442616 155102.99999999985 74318 155102.99999999985 71548.8663557384 157347.82635573827 69304.04000000001 160116.95999999988 69304.04000000001 162886.09364426148 69304.04 165130.91999999987 71548.8663557384 165130.91999999987 74318"></path><path fill="#666666" fill-opacity="1" stroke="#666666" stroke-opacity="1" stroke-width="3048" stroke-linecap="butt" stroke-linejoin="miter" stroke-miterlimit="10" d="M 195190.1564120595 74318 L 191762.65877540168 77745.4976366578 201178.86107391215 74318 191762.65877540168 70890.5023633422 Z"></path></g><g><path stroke="#000" stroke-opacity="0" stroke-width="3882.8025477707006" stroke-linecap="round" stroke-linejoin="round" stroke-miterlimit="10" pointer-events="visiblePainted" d="M 165130.91999999987 74318 L 195190.1564120595 74318"></path></g></g></g><g id="editor-gbad6bdde3_1_12"><g><g></g><g><path stroke="#666666" stroke-opacity="1" stroke-width="3048" stroke-linecap="butt" stroke-linejoin="round" stroke-miterlimit="8" d="M 223042.91999999975 74318 L 290842.1568984333 74318"></path><path fill="#666666" fill-opacity="1" stroke="#666666" stroke-opacity="1" stroke-width="3048" stroke-linecap="butt" stroke-linejoin="miter" stroke-miterlimit="10" d="M 223042.91999999975 74318 C 223042.91999999975 77087.1336442616 220798.09364426136 79331.96 218028.95999999976 79331.96 215259.82635573816 79331.96 213014.99999999977 77087.1336442616 213014.99999999974 74318 213014.99999999974 71548.8663557384 215259.82635573816 69304.04000000001 218028.95999999976 69304.04000000001 220798.09364426136 69304.04 223042.91999999975 71548.8663557384 223042.91999999975 74318"></path><path fill="#666666" fill-opacity="1" stroke="#666666" stroke-opacity="1" stroke-width="3048" stroke-linecap="butt" stroke-linejoin="miter" stroke-miterlimit="10" d="M 290842.1568984333 74318 L 287414.6592617755 77745.4976366578 296830.86156028596 74318 287414.6592617755 70890.5023633422 Z"></path></g><g><path stroke="#000" stroke-opacity="0" stroke-width="3882.8025477707006" stroke-linecap="round" stroke-linejoin="round" stroke-miterlimit="10" pointer-events="visiblePainted" d="M 223042.91999999975 74318 L 290842.1568984333 74318"></path></g></g></g><g id="editor-gbad6bdde3_1_18"><g><g></g><g><path stroke="#666666" stroke-opacity="1" stroke-width="3048" stroke-linecap="butt" stroke-linejoin="round" stroke-miterlimit="8" d="M 320578.92000000033 74318 L 321098.99960947037 74318"></path><path fill="#666666" fill-opacity="1" stroke="#666666" stroke-opacity="1" stroke-width="3048" stroke-linecap="butt" stroke-linejoin="miter" stroke-miterlimit="10" d="M 320578.92000000033 74318 C 320578.92000000033 77087.1336442616 318334.09364426194 79331.96 315564.9600000003 79331.96 312795.82635573874 79331.96 310551.00000000035 77087.1336442616 310551.00000000035 74318 310551.00000000035 71548.8663557384 312795.82635573874 69304.04000000001 315564.9600000003 69304.04000000001 318334.09364426194 69304.04 320578.92000000033 71548.8663557384 320578.92000000033 74318"></path></g><g><path stroke="#000" stroke-opacity="0" stroke-width="3882.8025477707006" stroke-linecap="round" stroke-linejoin="round" stroke-miterlimit="10" pointer-events="visiblePainted" d="M 320578.92000000033 74318 L 321098.99960947037 74318"></path></g></g></g><g id="editor-gbad6bdde3_1_24"><g><g></g><g><path d="M 27432 151469.515625 L 338328.00563049316 151469.515625 338328.00563049316 193325.5160484314 27432 193325.5160484314 Z"></path></g><g></g><g><path fill="#000" fill-opacity="0" stroke="#000" stroke-opacity="0" stroke-width="3882.8025477707006" stroke-linecap="round" stroke-linejoin="round" stroke-miterlimit="10" pointer-events="visiblePainted" d="M 27432 151469.515625 L 338328.00563049316 151469.515625 338328.00563049316 193325.5160484314 27432 193325.5160484314 Z"></path></g><g><g direction="ltr" style="opacity: 1;"><g transform="matrix(381,0,0,381.0000000000005,31089,155126.515625)"><g pointer-events="none"><g id="editor-gbad6bdde3_1_24-paragraph-0"><g><g class="sketchy-text-background" visibility="visible"></g><g class="sketchy-text-content" visibility="visible"><g class="sketchy-text-content-text" transform="translate(0 38.4)"><text x="54.93478531724827px" style="font-family:Arial;font-size:40px;fill:#666666;" y="0px" text-rendering="geometricPrecision">Linked</text><text x="183.91916031724827px" style="font-family:Arial;font-size:40px;fill:#666666;" y="0px" text-rendering="geometricPrecision">Lists</text><text x="277.27853531724827px" style="font-family:Arial;font-size:40px;fill:#666666;" y="0px" text-rendering="geometricPrecision">&amp;</text><text x="315.07150406724827px" style="font-family:Arial;font-size:40px;fill:#666666;" y="0px" text-rendering="geometricPrecision">Directed</text><text x="475.13009781724827px" style="font-family:Arial;font-size:40px;fill:#666666;" y="0px" text-rendering="geometricPrecision">Acyclic</text><text x="610.6965040672483px" style="font-family:Arial;font-size:40px;fill:#666666;" y="0px" text-rendering="geometricPrecision">Graphs</text></g></g></g></g></g><rect style="opacity: 0;"></rect><rect style="opacity: 1;"></rect></g><g><path d="M 52019.15320587159 155126.515625 L 313740.8524246216 155126.515625 313740.8524246216 173414.51562500003 52019.15320587159 173414.51562500003 Z" pointer-events="visiblePainted" fill="#000000" stroke="#000000" opacity="0"></path></g><g transform="matrix(381,0,0,381.0000000000005,31089,155126.515625)"></g></g></g></g></g><g id="editor-gbad6bdde3_1_25"><g><g></g><g><path d="M 27432 84444.921875 L 338328.00563049316 84444.921875 338328.00563049316 146304.92296218872 27432 146304.92296218872 Z"></path></g><g></g><g><path fill="#000" fill-opacity="0" stroke="#000" stroke-opacity="0" stroke-width="3882.8025477707006" stroke-linecap="round" stroke-linejoin="round" stroke-miterlimit="10" pointer-events="visiblePainted" d="M 27432 84444.921875 L 338328.00563049316 84444.921875 338328.00563049316 146304.92296218872 27432 146304.92296218872 Z"></path></g><g><g direction="ltr" style="opacity: 1;"><g transform="matrix(380.99999999999994,0,0,381,31089,113310.92296218872)"><g pointer-events="none"><g id="editor-gbad6bdde3_1_25-paragraph-0"><g><g class="sketchy-text-background" visibility="visible"></g><g class="sketchy-text-content" visibility="visible"><g class="sketchy-text-content-text" transform="translate(0 61.44)"><text x="256.12033219224827px" style="font-family:Arial;font-size:64px;fill:#000000;font-weight:700;" y="0px" text-rendering="geometricPrecision">Causality</text></g></g></g></g></g><rect style="opacity: 0;"></rect><rect style="opacity: 1;"></rect></g><g><path d="M 128670.84656524658 113310.92296218872 L 237089.15906524655 113310.92296218872 237089.15906524655 142571.7229621887 128670.84656524658 142571.7229621887 Z" pointer-events="visiblePainted" fill="#000000" stroke="#000000" opacity="0"></path></g><g transform="matrix(380.99999999999994,0,0,381,31089,113310.92296218872)"></g></g></g></g></g></g></g></svg>