<svg xmlns="http://www.w3.org/2000/svg" xmlns:xlink="http://www.w3.org/1999/xlink" version="1.1" fill-rule="evenodd" fill="none" stroke="none" stroke-linecap="square" stroke-miterlimit="10" overflow="hidden" viewBox="6858 13335 358140 268605"><rect fill="#ffffff" fill-opacity="0" width="100%" height="100%"></rect><g transform="translate(6858 13335) scale(0.98125)"><defs cursor="default"><radialGradient gradientUnits="userSpaceOnUse" gradientTransform="matrix(478.1213235152768,0,0,478.1213235152768,0,0)" cx="382.4970588122215" cy="286.87279410916614" r="478.12132351527686" id="gradient-28976"><stop offset="0%" stop-color="#FFFFFF" stop-opacity="1"></stop><stop offset="30%" stop-color="#FFFFFF" stop-opacity="1"></stop><stop offset="100%" stop-color="#CCCCCC" stop-opacity="1"></stop></radialGradient></defs><g id="editor-gbaee0bd6d_0_34"><g></g><path fill="#fff" fill-opacity="1" d="M 0 0 L 365760 0 365760 274320 0 274320 Z"></path><g id="editor-gbaee0bd6d_0_34-bg"><g><g></g><g><g><path fill="url(#gradient-28976)" d="M 0 0 L 365760 0 365760 274320 0 274320 Z"></path></g><g></g></g><g></g></g></g><g id="editor-gb9563dfae_0_1"></g><g id="editor-gb9563dfae_0_2"></g><g id="editor-gb9563dfae_0_3"></g><g id="editor-gb9563dfae_0_5"></g><g id="editor-gb9563dfae_0_6"></g><g id="editor-gb9563dfae_0_7"></g><g id="editor-gbaee0bd6d_0_35"><g><g></g><g><path d="M 68580.00040054321 0 L 68580.00040054321 205740.00120162964 365891.9906616211 205740.00120162964 365891.9906616211 0 Z"></path><path d="M 68580.00040054321 205740.00120162964 L 0 274320.00160217285 297311.9902610779 274320.00160217285 365891.9906616211 205740.00120162964 Z"></path><path d="M 68580.00040054321 0 L 0 68580.00040054321 0 274320.00160217285 68580.00040054321 205740.00120162964 Z"></path><path stroke="#666666" stroke-opacity="1" stroke-width="762" stroke-linecap="butt" stroke-linejoin="round" stroke-miterlimit="8" d="M 68580.00040054321 0 L 0 68580.00040054321 0 274320.00160217285 297311.9902610779 274320.00160217285 365891.9906616211 205740.00120162964 365891.9906616211 0 Z M 68580.00040054321 0 L 68580.00040054321 205740.00120162964 0 274320.00160217285 M 68580.00040054321 205740.00120162964 L 365891.9906616211 205740.00120162964"></path></g><g><path fill="#000" fill-opacity="0" pointer-events="visiblePainted" d="M 68580.00040054321 0 L 68580.00040054321 205740.00120162964 365891.9906616211 205740.00120162964 365891.9906616211 0 Z"></path><path fill="#000" fill-opacity="0" pointer-events="visiblePainted" d="M 68580.00040054321 205740.00120162964 L 0 274320.00160217285 297311.9902610779 274320.00160217285 365891.9906616211 205740.00120162964 Z"></path><path fill="#000" fill-opacity="0" pointer-events="visiblePainted" d="M 68580.00040054321 0 L 0 68580.00040054321 0 274320.00160217285 68580.00040054321 205740.00120162964 Z"></path><path stroke="#000" stroke-opacity="0" stroke-width="3882.8025477707006" stroke-linecap="round" stroke-linejoin="round" stroke-miterlimit="10" pointer-events="visiblePainted" d="M 68580.00040054321 0 L 0 68580.00040054321 0 274320.00160217285 297311.9902610779 274320.00160217285 365891.9906616211 205740.00120162964 365891.9906616211 0 Z M 68580.00040054321 0 L 68580.00040054321 205740.00120162964 0 274320.00160217285 M 68580.00040054321 205740.00120162964 L 365891.9906616211 205740.00120162964"></path></g><g></g></g></g><g id="editor-gbaee0bd6d_0_46"><g></g><g id="editor-gbaee0bd6d_0_42"><g></g><g id="editor-gbaee0bd6d_0_36"><g><g></g><g><path fill="#FFFFFF" fill-opacity="1" stroke="#666666" stroke-opacity="1" stroke-width="762" stroke-linecap="butt" stroke-linejoin="round" stroke-miterlimit="8" d="M 89135.49820458 128494.74206662766 C 89135.49820458 122594.19869556221 93320.78223484005 117810.86319278 98483.59172759109 117810.86319278 100962.86027845586 117810.86319278 103340.58444417924 118936.48291377543 105093.69204887828 120940.09886555429 106846.7996535773 122943.71481733314 107831.68525060218 125661.20121383492 107831.68525060218 128494.74206662766 107831.68525060218 134395.28543769312 103646.40122034213 139178.62094047532 98483.59172759109 139178.62094047532 93320.78223484005 139178.62094047532 89135.49820458 134395.28543769312 89135.49820458 128494.74206662766 Z"></path></g><g><path fill="#000" fill-opacity="0" stroke="#000" stroke-opacity="0" stroke-width="3882.8025477707006" stroke-linecap="round" stroke-linejoin="round" stroke-miterlimit="10" pointer-events="visiblePainted" d="M 89135.49820458 128494.74206662766 C 89135.49820458 122594.19869556221 93320.78223484005 117810.86319278 98483.59172759109 117810.86319278 100962.86027845586 117810.86319278 103340.58444417924 118936.48291377543 105093.69204887828 120940.09886555429 106846.7996535773 122943.71481733314 107831.68525060218 125661.20121383492 107831.68525060218 128494.74206662766 107831.68525060218 134395.28543769312 103646.40122034213 139178.62094047532 98483.59172759109 139178.62094047532 93320.78223484005 139178.62094047532 89135.49820458 134395.28543769312 89135.49820458 128494.74206662766 Z"></path></g><g></g></g></g><g id="editor-gbaee0bd6d_0_37"><g><g></g><g><path stroke="#666666" stroke-opacity="1" stroke-width="762" stroke-linecap="butt" stroke-linejoin="round" stroke-miterlimit="8" d="M 98483.59139730001 139178.6201855 L 98483.59139730001 185743.82061989102"></path></g><g><path stroke="#000" stroke-opacity="0" stroke-width="3882.8025477707006" stroke-linecap="round" stroke-linejoin="round" stroke-miterlimit="10" pointer-events="visiblePainted" d="M 98483.59139730001 139178.6201855 L 98483.59139730001 185743.82061989102"></path></g></g></g><g id="editor-gbaee0bd6d_0_38"><g><g></g><g><path stroke="#666666" stroke-opacity="1" stroke-width="762" stroke-linecap="butt" stroke-linejoin="round" stroke-miterlimit="8" d="M 98440.17614498001 185743.82082638 L 108617.10621850108 229162.7261141164"></path></g><g><path stroke="#000" stroke-opacity="0" stroke-width="3882.8025477707006" stroke-linecap="round" stroke-linejoin="round" stroke-miterlimit="10" pointer-events="visiblePainted" d="M 98440.17614498001 185743.82082638 L 108617.10621850108 229162.7261141164"></path></g></g></g><g id="editor-gbaee0bd6d_0_39"><g><g></g><g><path stroke="#666666" stroke-opacity="1" stroke-width="762" stroke-linecap="butt" stroke-linejoin="round" stroke-miterlimit="8" d="M 98586.20926642 186078.18540039 L 88350.0764561214 229740.67105571748"></path></g><g><path stroke="#000" stroke-opacity="0" stroke-width="3882.8025477707006" stroke-linecap="round" stroke-linejoin="round" stroke-miterlimit="10" pointer-events="visiblePainted" d="M 98586.20926642 186078.18540039 L 88350.0764561214 229740.67105571748"></path></g></g></g><g id="editor-gbaee0bd6d_0_40"><g><g></g><g><path stroke="#666666" stroke-opacity="1" stroke-width="762" stroke-linecap="butt" stroke-linejoin="round" stroke-miterlimit="8" d="M 98482.11133188 142514.93584219 L 120387.07983018008 178734.57063858825"></path></g><g><path stroke="#000" stroke-opacity="0" stroke-width="3882.8025477707006" stroke-linecap="round" stroke-linejoin="round" stroke-miterlimit="10" pointer-events="visiblePainted" d="M 98482.11133188 142514.93584219 L 120387.07983018008 178734.57063858825"></path></g></g></g><g id="editor-gbaee0bd6d_0_41"><g><g></g><g><path stroke="#666666" stroke-opacity="1" stroke-width="762" stroke-linecap="butt" stroke-linejoin="round" stroke-miterlimit="8" d="M 98628.14445332001 142681.83620291 L 76865.26287616111 177067.82064134246"></path></g><g><path stroke="#000" stroke-opacity="0" stroke-width="3882.8025477707006" stroke-linecap="round" stroke-linejoin="round" stroke-miterlimit="10" pointer-events="visiblePainted" d="M 98628.14445332001 142681.83620291 L 76865.26287616111 177067.82064134246"></path></g></g></g></g><g id="editor-gbaee0bd6d_0_45"><g></g><g id="editor-gbaee0bd6d_0_43"><g><g></g><g><path fill="#FFFFFF" fill-opacity="1" stroke="#666666" stroke-opacity="1" stroke-width="762" stroke-linecap="butt" stroke-linejoin="round" stroke-miterlimit="8" d="M 106379.07659572625 105902.06368775637 L 106379.07659572625 122553.42992493136 C 106379.07659572625 120714.17079760354 102907.19663889844 119223.15667749636 98624.41566890801 119223.15667749636 94341.63469891757 119223.15667749636 90869.75474208978 120714.17079760354 90869.75474208978 122553.42992493136 L 90869.75474208978 105902.06368775637 C 90869.75474208978 104062.80456042856 94341.63469891757 102571.79044032138 98624.41566890801 102571.79044032138 102907.19663889844 102571.79044032138 106379.07659572625 104062.80456042854 106379.07659572625 105902.06368775637 Z"></path></g><g><path fill="#000" fill-opacity="0" stroke="#000" stroke-opacity="0" stroke-width="3882.8025477707006" stroke-linecap="round" stroke-linejoin="round" stroke-miterlimit="10" pointer-events="visiblePainted" d="M 106379.07659572625 105902.06368775637 L 106379.07659572625 122553.42992493136 C 106379.07659572625 120714.17079760354 102907.19663889844 119223.15667749636 98624.41566890801 119223.15667749636 94341.63469891757 119223.15667749636 90869.75474208978 120714.17079760354 90869.75474208978 122553.42992493136 L 90869.75474208978 105902.06368775637 C 90869.75474208978 104062.80456042856 94341.63469891757 102571.79044032138 98624.41566890801 102571.79044032138 102907.19663889844 102571.79044032138 106379.07659572625 104062.80456042854 106379.07659572625 105902.06368775637 Z"></path></g><g></g></g></g><g id="editor-gbaee0bd6d_0_44"><g><g></g><g><path fill="#FFFFFF" fill-opacity="1" stroke="#666666" stroke-opacity="1" stroke-width="762" stroke-linecap="butt" stroke-linejoin="round" stroke-miterlimit="8" d="M 89352.19375802264 103970.18364762294 C 89169.7319370727 102923.31011002105 89768.79038071867 101886.96878051739 90895.1665060428 101300.91749165478 92021.54263136694 100714.86620279215 93477.69443719066 100681.88567034782 94645.72302886209 101215.97075011971 95059.47431666663 100607.27505138017 95816.76012073718 100187.01264222487 96688.51613695305 100082.30477038329 97560.27215316892 99977.59689854168 98444.10722370939 100200.74191358795 99072.67833976247 100684.24276577569 99425.14135911934 100132.36007320532 100117.20855633423 99761.56544105706 100903.29856435533 99703.43605291207 101689.38857237643 99645.30666476711 102458.25032670086 99908.06925833234 102937.05176497877 100398.48202530142 103573.8276409334 99813.48781084946 104586.95408602199 99567.18091625386 105538.04553952756 99766.13973221718 106489.13699303314 99965.0985481805 107207.3689457726 100573.58829655989 107381.95835693907 101328.31201099248 108162.11677624665 101494.45285715816 108811.97238629023 101916.80489743207 109163.62330318366 102486.24588661209 109515.27422007707 103055.6868757921 109534.22427758022 103716.35593002154 109215.5773875385 104297.55731763935 109983.80580780876 105078.17430578337 110163.51372029229 106118.33695417784 109687.63733379047 107029.87509435066 109211.76094728864 107941.41323452347 108151.79526304 108587.37865406241 106903.30058967945 108726.70856714586 106894.50067536997 109582.21967931393 106293.54044470639 110367.22639220799 105332.05626524062 110779.15277118112 104370.57208577484 111191.07915015426 103198.7029029985 111165.60152407382 102268.13837438627 110712.54008478945 101871.76720872444 111737.16264257886 100756.11482615741 112491.0701762826 99403.18430272552 112648.5467586339 98050.25377929365 112806.0233409852 96702.58448739843 112338.83820123126 95942.41938580452 111448.83259204226 95010.61605437424 111887.519250828 93892.52951634006 112013.89096319253 92840.37755954918 111799.44081785946 91788.22560275828 111584.99067252639 90890.63640146566 111047.78290891183 90350.08798849297 110309.0007710171 89397.90192993748 110395.99430089103 88477.26960748715 110010.83573292926 88045.09752814284 109344.6778776919 87612.92544879853 108678.52002245453 87761.21271356022 107873.17195723987 88416.364886818 107328.32502725047 87566.99026969839 106938.0227472151 87133.5881375479 106163.53342206657 87342.16069969306 105408.72285125284 87550.73326183824 104653.9122804391 88354.0172067663 104089.8233220168 89333.1314704421 104010.60623830147 Z"></path><path stroke="#666666" stroke-opacity="1" stroke-width="762" stroke-linecap="butt" stroke-linejoin="round" stroke-miterlimit="8" d="M 88416.6053099023 107328.25046036056 C 88817.42777085712 107512.43529146674 89280.47170470175 107595.98588464616 89743.56588872544 107567.68420602231 M 90350.11984630328 110308.9928933524 C 90549.26737292334 110290.79839643587 90744.46980835345 110252.2692962356 90930.69305766851 110194.39922352954 M 95942.17286068434 111448.7768875845 C 95802.105418197 111284.78513208679 95684.83378399823 111109.54573343406 95592.35612274794 110926.04455581935 M 102268.13372266706 110712.45359558058 C 102340.39810386923 110525.64960598966 102387.21917248885 110333.38789583638 102407.81580929816 110138.87598094634 M 106903.12061458683 108726.69392191841 C 106912.48948170041 107815.87028861788 106249.87091032992 106981.9108037643 105199.87908102025 106583.02561365391 M 109215.37560339039 104297.63872240232 C 109045.33268020526 104607.79138981686 108785.74344644095 104882.92343190196 108456.96115768212 105101.46294950414 M 107381.91559867529 101328.3121544028 C 107410.88876505199 101453.55878649004 107424.29756718938 101580.68784314563 107421.95615057775 101707.93723494098 M 102937.08470153026 100398.51999252921 C 102778.24075081966 100544.44699082681 102647.37425057593 100707.51849597292 102548.55997686174 100882.65696815071 M 99072.67485730645 100684.21703483674 C 98988.02463945055 100816.76140854784 98924.81344006369 100957.01607168955 98884.49736809764 101101.75017162002 M 94645.65471449294 101215.9560094785 C 94892.80879498106 101328.96806049734 95121.45990323242 101464.990176783 95326.58515608666 101621.03429848068 M 89352.19375802264 103970.18364762294 C 89377.34173287504 104114.46999344694 89417.07679631133 104256.9774686136 89471.02705202566 104396.37228882797"></path></g><g><path fill="#000" fill-opacity="0" stroke="#000" stroke-opacity="0" stroke-width="3882.8025477707006" stroke-linecap="round" stroke-linejoin="round" stroke-miterlimit="10" pointer-events="visiblePainted" d="M 89352.19375802264 103970.18364762294 C 89169.7319370727 102923.31011002105 89768.79038071867 101886.96878051739 90895.1665060428 101300.91749165478 92021.54263136694 100714.86620279215 93477.69443719066 100681.88567034782 94645.72302886209 101215.97075011971 95059.47431666663 100607.27505138017 95816.76012073718 100187.01264222487 96688.51613695305 100082.30477038329 97560.27215316892 99977.59689854168 98444.10722370939 100200.74191358795 99072.67833976247 100684.24276577569 99425.14135911934 100132.36007320532 100117.20855633423 99761.56544105706 100903.29856435533 99703.43605291207 101689.38857237643 99645.30666476711 102458.25032670086 99908.06925833234 102937.05176497877 100398.48202530142 103573.8276409334 99813.48781084946 104586.95408602199 99567.18091625386 105538.04553952756 99766.13973221718 106489.13699303314 99965.0985481805 107207.3689457726 100573.58829655989 107381.95835693907 101328.31201099248 108162.11677624665 101494.45285715816 108811.97238629023 101916.80489743207 109163.62330318366 102486.24588661209 109515.27422007707 103055.6868757921 109534.22427758022 103716.35593002154 109215.5773875385 104297.55731763935 109983.80580780876 105078.17430578337 110163.51372029229 106118.33695417784 109687.63733379047 107029.87509435066 109211.76094728864 107941.41323452347 108151.79526304 108587.37865406241 106903.30058967945 108726.70856714586 106894.50067536997 109582.21967931393 106293.54044470639 110367.22639220799 105332.05626524062 110779.15277118112 104370.57208577484 111191.07915015426 103198.7029029985 111165.60152407382 102268.13837438627 110712.54008478945 101871.76720872444 111737.16264257886 100756.11482615741 112491.0701762826 99403.18430272552 112648.5467586339 98050.25377929365 112806.0233409852 96702.58448739843 112338.83820123126 95942.41938580452 111448.83259204226 95010.61605437424 111887.519250828 93892.52951634006 112013.89096319253 92840.37755954918 111799.44081785946 91788.22560275828 111584.99067252639 90890.63640146566 111047.78290891183 90350.08798849297 110309.0007710171 89397.90192993748 110395.99430089103 88477.26960748715 110010.83573292926 88045.09752814284 109344.6778776919 87612.92544879853 108678.52002245453 87761.21271356022 107873.17195723987 88416.364886818 107328.32502725047 87566.99026969839 106938.0227472151 87133.5881375479 106163.53342206657 87342.16069969306 105408.72285125284 87550.73326183824 104653.9122804391 88354.0172067663 104089.8233220168 89333.1314704421 104010.60623830147 Z"></path><path stroke="#000" stroke-opacity="0" stroke-width="3882.8025477707006" stroke-linecap="round" stroke-linejoin="round" stroke-miterlimit="10" pointer-events="visiblePainted" d="M 88416.6053099023 107328.25046036056 C 88817.42777085712 107512.43529146674 89280.47170470175 107595.98588464616 89743.56588872544 107567.68420602231 M 90350.11984630328 110308.9928933524 C 90549.26737292334 110290.79839643587 90744.46980835345 110252.2692962356 90930.69305766851 110194.39922352954 M 95942.17286068434 111448.7768875845 C 95802.105418197 111284.78513208679 95684.83378399823 111109.54573343406 95592.35612274794 110926.04455581935 M 102268.13372266706 110712.45359558058 C 102340.39810386923 110525.64960598966 102387.21917248885 110333.38789583638 102407.81580929816 110138.87598094634 M 106903.12061458683 108726.69392191841 C 106912.48948170041 107815.87028861788 106249.87091032992 106981.9108037643 105199.87908102025 106583.02561365391 M 109215.37560339039 104297.63872240232 C 109045.33268020526 104607.79138981686 108785.74344644095 104882.92343190196 108456.96115768212 105101.46294950414 M 107381.91559867529 101328.3121544028 C 107410.88876505199 101453.55878649004 107424.29756718938 101580.68784314563 107421.95615057775 101707.93723494098 M 102937.08470153026 100398.51999252921 C 102778.24075081966 100544.44699082681 102647.37425057593 100707.51849597292 102548.55997686174 100882.65696815071 M 99072.67485730645 100684.21703483674 C 98988.02463945055 100816.76140854784 98924.81344006369 100957.01607168955 98884.49736809764 101101.75017162002 M 94645.65471449294 101215.9560094785 C 94892.80879498106 101328.96806049734 95121.45990323242 101464.990176783 95326.58515608666 101621.03429848068 M 89352.19375802264 103970.18364762294 C 89377.34173287504 104114.46999344694 89417.07679631133 104256.9774686136 89471.02705202566 104396.37228882797"></path></g><g></g></g></g></g></g><g id="editor-gbaee0bd6d_0_53"><g></g><g id="editor-gbaee0bd6d_0_47"><g><g></g><g><path fill="#FFFFFF" fill-opacity="1" stroke="#666666" stroke-opacity="1" stroke-width="762" stroke-linecap="butt" stroke-linejoin="round" stroke-miterlimit="8" d="M 173455.5 137355.8596625328 C 173455.5 131454.14466704096 177640.74215409852 126669.859375 182803.49998998642 126669.859375 185282.74373435072 126669.859375 187660.44410958327 127795.7026014384 189413.5341734376 129799.71639545696 191166.62423729192 131803.73018947552 192151.49997997284 134521.756175849 192151.49997997284 137355.8596625328 192151.49997997284 143257.57465802465 187966.25782587432 148041.8599500656 182803.49998998642 148041.8599500656 177640.74215409852 148041.8599500656 173455.5 143257.57465802465 173455.5 137355.8596625328 Z"></path></g><g><path fill="#000" fill-opacity="0" stroke="#000" stroke-opacity="0" stroke-width="3882.8025477707006" stroke-linecap="round" stroke-linejoin="round" stroke-miterlimit="10" pointer-events="visiblePainted" d="M 173455.5 137355.8596625328 C 173455.5 131454.14466704096 177640.74215409852 126669.859375 182803.49998998642 126669.859375 185282.74373435072 126669.859375 187660.44410958327 127795.7026014384 189413.5341734376 129799.71639545696 191166.62423729192 131803.73018947552 192151.49997997284 134521.756175849 192151.49997997284 137355.8596625328 192151.49997997284 143257.57465802465 187966.25782587432 148041.8599500656 182803.49998998642 148041.8599500656 177640.74215409852 148041.8599500656 173455.5 143257.57465802465 173455.5 137355.8596625328 Z"></path></g><g></g></g></g><g id="editor-gbaee0bd6d_0_48"><g><g></g><g><path stroke="#666666" stroke-opacity="1" stroke-width="762" stroke-linecap="butt" stroke-linejoin="round" stroke-miterlimit="8" d="M 182803.59375 148037.625 L 182803.59375 194597.62637329102"></path></g><g><path stroke="#000" stroke-opacity="0" stroke-width="3882.8025477707006" stroke-linecap="round" stroke-linejoin="round" stroke-miterlimit="10" pointer-events="visiblePainted" d="M 182803.59375 148037.625 L 182803.59375 194597.62637329102"></path></g></g></g><g id="editor-gbaee0bd6d_0_49"><g><g></g><g><path stroke="#666666" stroke-opacity="1" stroke-width="762" stroke-linecap="butt" stroke-linejoin="round" stroke-miterlimit="8" d="M 182760.171875 194602.8125 L 192936.1715760231 238018.81072044373"></path></g><g><path stroke="#000" stroke-opacity="0" stroke-width="3882.8025477707006" stroke-linecap="round" stroke-linejoin="round" stroke-miterlimit="10" pointer-events="visiblePainted" d="M 182760.171875 194602.8125 L 192936.1715760231 238018.81072044373"></path></g></g></g><g id="editor-gbaee0bd6d_0_50"><g><g></g><g><path stroke="#666666" stroke-opacity="1" stroke-width="762" stroke-linecap="butt" stroke-linejoin="round" stroke-miterlimit="8" d="M 182906.203125 194937.1875 L 172670.20330238342 238605.1881980896"></path></g><g><path stroke="#000" stroke-opacity="0" stroke-width="3882.8025477707006" stroke-linecap="round" stroke-linejoin="round" stroke-miterlimit="10" pointer-events="visiblePainted" d="M 182906.203125 194937.1875 L 172670.20330238342 238605.1881980896"></path></g></g></g><g id="editor-gbaee0bd6d_0_51"><g><g></g><g><path stroke="#666666" stroke-opacity="1" stroke-width="762" stroke-linecap="butt" stroke-linejoin="round" stroke-miterlimit="8" d="M 182802.109375 151373.9375 L 189462.1094608307 189461.93851280212"></path></g><g><path stroke="#000" stroke-opacity="0" stroke-width="3882.8025477707006" stroke-linecap="round" stroke-linejoin="round" stroke-miterlimit="10" pointer-events="visiblePainted" d="M 182802.109375 151373.9375 L 189462.1094608307 189461.93851280212"></path></g></g></g><g id="editor-gbaee0bd6d_0_52"><g><g></g><g><path stroke="#666666" stroke-opacity="1" stroke-width="762" stroke-linecap="butt" stroke-linejoin="round" stroke-miterlimit="8" d="M 182948.140625 151540.828125 L 153140.14029884338 144064.82808423042"></path></g><g><path stroke="#000" stroke-opacity="0" stroke-width="3882.8025477707006" stroke-linecap="round" stroke-linejoin="round" stroke-miterlimit="10" pointer-events="visiblePainted" d="M 182948.140625 151540.828125 L 153140.14029884338 144064.82808423042"></path></g></g></g></g><g id="editor-gbaee0bd6d_0_60"><g></g><g id="editor-gbaee0bd6d_0_54"><g><g></g><g><path fill="#FFFFFF" fill-opacity="1" stroke="#666666" stroke-opacity="1" stroke-width="762" stroke-linecap="butt" stroke-linejoin="round" stroke-miterlimit="8" d="M 210338.5 139504.8596625328 C 210338.5 133603.14466704096 214523.74215409852 128818.859375 219686.49998998642 128818.859375 222165.74373435072 128818.859375 224543.44410958327 129944.7026014384 226296.5341734376 131948.71639545696 228049.62423729192 133952.73018947552 229034.49997997284 136670.756175849 229034.49997997284 139504.8596625328 229034.49997997284 145406.57465802465 224849.25782587432 150190.8599500656 219686.49998998642 150190.8599500656 214523.74215409852 150190.8599500656 210338.5 145406.57465802465 210338.5 139504.8596625328 Z"></path></g><g><path fill="#000" fill-opacity="0" stroke="#000" stroke-opacity="0" stroke-width="3882.8025477707006" stroke-linecap="round" stroke-linejoin="round" stroke-miterlimit="10" pointer-events="visiblePainted" d="M 210338.5 139504.8596625328 C 210338.5 133603.14466704096 214523.74215409852 128818.859375 219686.49998998642 128818.859375 222165.74373435072 128818.859375 224543.44410958327 129944.7026014384 226296.5341734376 131948.71639545696 228049.62423729192 133952.73018947552 229034.49997997284 136670.756175849 229034.49997997284 139504.8596625328 229034.49997997284 145406.57465802465 224849.25782587432 150190.8599500656 219686.49998998642 150190.8599500656 214523.74215409852 150190.8599500656 210338.5 145406.57465802465 210338.5 139504.8596625328 Z"></path></g><g></g></g></g><g id="editor-gbaee0bd6d_0_55"><g><g></g><g><path stroke="#666666" stroke-opacity="1" stroke-width="762" stroke-linecap="butt" stroke-linejoin="round" stroke-miterlimit="8" d="M 219686.59375 150186.625 L 219686.59375 196746.62637329102"></path></g><g><path stroke="#000" stroke-opacity="0" stroke-width="3882.8025477707006" stroke-linecap="round" stroke-linejoin="round" stroke-miterlimit="10" pointer-events="visiblePainted" d="M 219686.59375 150186.625 L 219686.59375 196746.62637329102"></path></g></g></g><g id="editor-gbaee0bd6d_0_56"><g><g></g><g><path stroke="#666666" stroke-opacity="1" stroke-width="762" stroke-linecap="butt" stroke-linejoin="round" stroke-miterlimit="8" d="M 219643.171875 196751.8125 L 229819.1715760231 240167.81072044373"></path></g><g><path stroke="#000" stroke-opacity="0" stroke-width="3882.8025477707006" stroke-linecap="round" stroke-linejoin="round" stroke-miterlimit="10" pointer-events="visiblePainted" d="M 219643.171875 196751.8125 L 229819.1715760231 240167.81072044373"></path></g></g></g><g id="editor-gbaee0bd6d_0_57"><g><g></g><g><path stroke="#666666" stroke-opacity="1" stroke-width="762" stroke-linecap="butt" stroke-linejoin="round" stroke-miterlimit="8" d="M 219789.203125 197086.1875 L 209553.20330238342 240754.1881980896"></path></g><g><path stroke="#000" stroke-opacity="0" stroke-width="3882.8025477707006" stroke-linecap="round" stroke-linejoin="round" stroke-miterlimit="10" pointer-events="visiblePainted" d="M 219789.203125 197086.1875 L 209553.20330238342 240754.1881980896"></path></g></g></g><g id="editor-gbaee0bd6d_0_58"><g><g></g><g><path stroke="#666666" stroke-opacity="1" stroke-width="762" stroke-linecap="butt" stroke-linejoin="round" stroke-miterlimit="8" d="M 219685.109375 153522.9375 L 226345.1094608307 191610.93851280212"></path></g><g><path stroke="#000" stroke-opacity="0" stroke-width="3882.8025477707006" stroke-linecap="round" stroke-linejoin="round" stroke-miterlimit="10" pointer-events="visiblePainted" d="M 219685.109375 153522.9375 L 226345.1094608307 191610.93851280212"></path></g></g></g><g id="editor-gbaee0bd6d_0_59"><g><g></g><g><path stroke="#666666" stroke-opacity="1" stroke-width="762" stroke-linecap="butt" stroke-linejoin="round" stroke-miterlimit="8" d="M 219831.140625 153689.828125 L 210771.14103984833 190253.82658576965"></path></g><g><path stroke="#000" stroke-opacity="0" stroke-width="3882.8025477707006" stroke-linecap="round" stroke-linejoin="round" stroke-miterlimit="10" pointer-events="visiblePainted" d="M 219831.140625 153689.828125 L 210771.14103984833 190253.82658576965"></path></g></g></g></g><g id="editor-gbaee0bd6d_0_67"><g></g><g id="editor-gbaee0bd6d_0_61"><g><g></g><g><path fill="#FFFFFF" fill-opacity="1" stroke="#666666" stroke-opacity="1" stroke-width="762" stroke-linecap="butt" stroke-linejoin="round" stroke-miterlimit="8" d="M 247220.5 142442.8596625328 C 247220.5 136541.14466704096 251405.74215409852 131756.859375 256568.49998998642 131756.859375 259047.74373435072 131756.859375 261425.44410958327 132882.7026014384 263178.53417343757 134886.71639545696 264931.6242372919 136890.73018947552 265916.49997997284 139608.756175849 265916.49997997284 142442.8596625328 265916.49997997284 148344.57465802465 261731.25782587432 153128.8599500656 256568.49998998642 153128.8599500656 251405.74215409852 153128.8599500656 247220.5 148344.57465802465 247220.5 142442.8596625328 Z"></path></g><g><path fill="#000" fill-opacity="0" stroke="#000" stroke-opacity="0" stroke-width="3882.8025477707006" stroke-linecap="round" stroke-linejoin="round" stroke-miterlimit="10" pointer-events="visiblePainted" d="M 247220.5 142442.8596625328 C 247220.5 136541.14466704096 251405.74215409852 131756.859375 256568.49998998642 131756.859375 259047.74373435072 131756.859375 261425.44410958327 132882.7026014384 263178.53417343757 134886.71639545696 264931.6242372919 136890.73018947552 265916.49997997284 139608.756175849 265916.49997997284 142442.8596625328 265916.49997997284 148344.57465802465 261731.25782587432 153128.8599500656 256568.49998998642 153128.8599500656 251405.74215409852 153128.8599500656 247220.5 148344.57465802465 247220.5 142442.8596625328 Z"></path></g><g></g></g></g><g id="editor-gbaee0bd6d_0_62"><g><g></g><g><path stroke="#666666" stroke-opacity="1" stroke-width="762" stroke-linecap="butt" stroke-linejoin="round" stroke-miterlimit="8" d="M 256568.59375 153124.625 L 256568.59375 199684.62637329102"></path></g><g><path stroke="#000" stroke-opacity="0" stroke-width="3882.8025477707006" stroke-linecap="round" stroke-linejoin="round" stroke-miterlimit="10" pointer-events="visiblePainted" d="M 256568.59375 153124.625 L 256568.59375 199684.62637329102"></path></g></g></g><g id="editor-gbaee0bd6d_0_63"><g><g></g><g><path stroke="#666666" stroke-opacity="1" stroke-width="762" stroke-linecap="butt" stroke-linejoin="round" stroke-miterlimit="8" d="M 256525.171875 199689.8125 L 266701.1715760231 243105.81072044373"></path></g><g><path stroke="#000" stroke-opacity="0" stroke-width="3882.8025477707006" stroke-linecap="round" stroke-linejoin="round" stroke-miterlimit="10" pointer-events="visiblePainted" d="M 256525.171875 199689.8125 L 266701.1715760231 243105.81072044373"></path></g></g></g><g id="editor-gbaee0bd6d_0_64"><g><g></g><g><path stroke="#666666" stroke-opacity="1" stroke-width="762" stroke-linecap="butt" stroke-linejoin="round" stroke-miterlimit="8" d="M 256671.203125 200024.1875 L 246435.20330238342 243692.1881980896"></path></g><g><path stroke="#000" stroke-opacity="0" stroke-width="3882.8025477707006" stroke-linecap="round" stroke-linejoin="round" stroke-miterlimit="10" pointer-events="visiblePainted" d="M 256671.203125 200024.1875 L 246435.20330238342 243692.1881980896"></path></g></g></g><g id="editor-gbaee0bd6d_0_65"><g><g></g><g><path stroke="#666666" stroke-opacity="1" stroke-width="762" stroke-linecap="butt" stroke-linejoin="round" stroke-miterlimit="8" d="M 256567.109375 156460.9375 L 263227.1094608307 194548.93851280212"></path></g><g><path stroke="#000" stroke-opacity="0" stroke-width="3882.8025477707006" stroke-linecap="round" stroke-linejoin="round" stroke-miterlimit="10" pointer-events="visiblePainted" d="M 256567.109375 156460.9375 L 263227.1094608307 194548.93851280212"></path></g></g></g><g id="editor-gbaee0bd6d_0_66"><g><g></g><g><path stroke="#666666" stroke-opacity="1" stroke-width="762" stroke-linecap="butt" stroke-linejoin="round" stroke-miterlimit="8" d="M 256713.140625 156627.828125 L 247653.14103984833 193191.82658576965"></path></g><g><path stroke="#000" stroke-opacity="0" stroke-width="3882.8025477707006" stroke-linecap="round" stroke-linejoin="round" stroke-miterlimit="10" pointer-events="visiblePainted" d="M 256713.140625 156627.828125 L 247653.14103984833 193191.82658576965"></path></g></g></g></g><g id="editor-gbaee0bd6d_0_74"><g></g><g id="editor-gbaee0bd6d_0_68"><g><g></g><g><path fill="#FFFFFF" fill-opacity="1" stroke="#666666" stroke-opacity="1" stroke-width="762" stroke-linecap="butt" stroke-linejoin="round" stroke-miterlimit="8" d="M 284102.5 144811.8596625328 C 284102.5 138910.14466704096 288287.7421540985 134125.859375 293450.4999899864 134125.859375 295929.7437343507 134125.859375 298307.4441095833 135251.7026014384 300060.53417343757 137255.71639545696 301813.6242372919 139259.73018947552 302798.49997997284 141977.756175849 302798.49997997284 144811.8596625328 302798.49997997284 150713.57465802465 298613.2578258743 155497.8599500656 293450.4999899864 155497.8599500656 288287.7421540985 155497.8599500656 284102.5 150713.57465802465 284102.5 144811.8596625328 Z"></path></g><g><path fill="#000" fill-opacity="0" stroke="#000" stroke-opacity="0" stroke-width="3882.8025477707006" stroke-linecap="round" stroke-linejoin="round" stroke-miterlimit="10" pointer-events="visiblePainted" d="M 284102.5 144811.8596625328 C 284102.5 138910.14466704096 288287.7421540985 134125.859375 293450.4999899864 134125.859375 295929.7437343507 134125.859375 298307.4441095833 135251.7026014384 300060.53417343757 137255.71639545696 301813.6242372919 139259.73018947552 302798.49997997284 141977.756175849 302798.49997997284 144811.8596625328 302798.49997997284 150713.57465802465 298613.2578258743 155497.8599500656 293450.4999899864 155497.8599500656 288287.7421540985 155497.8599500656 284102.5 150713.57465802465 284102.5 144811.8596625328 Z"></path></g><g></g></g></g><g id="editor-gbaee0bd6d_0_69"><g><g></g><g><path stroke="#666666" stroke-opacity="1" stroke-width="762" stroke-linecap="butt" stroke-linejoin="round" stroke-miterlimit="8" d="M 293450.59375 155493.625 L 293450.59375 202053.62637329102"></path></g><g><path stroke="#000" stroke-opacity="0" stroke-width="3882.8025477707006" stroke-linecap="round" stroke-linejoin="round" stroke-miterlimit="10" pointer-events="visiblePainted" d="M 293450.59375 155493.625 L 293450.59375 202053.62637329102"></path></g></g></g><g id="editor-gbaee0bd6d_0_70"><g><g></g><g><path stroke="#666666" stroke-opacity="1" stroke-width="762" stroke-linecap="butt" stroke-linejoin="round" stroke-miterlimit="8" d="M 293407.171875 202058.8125 L 303583.1715760231 245474.81072044373"></path></g><g><path stroke="#000" stroke-opacity="0" stroke-width="3882.8025477707006" stroke-linecap="round" stroke-linejoin="round" stroke-miterlimit="10" pointer-events="visiblePainted" d="M 293407.171875 202058.8125 L 303583.1715760231 245474.81072044373"></path></g></g></g><g id="editor-gbaee0bd6d_0_71"><g><g></g><g><path stroke="#666666" stroke-opacity="1" stroke-width="762" stroke-linecap="butt" stroke-linejoin="round" stroke-miterlimit="8" d="M 293553.203125 202393.1875 L 283317.2033023834 246061.1881980896"></path></g><g><path stroke="#000" stroke-opacity="0" stroke-width="3882.8025477707006" stroke-linecap="round" stroke-linejoin="round" stroke-miterlimit="10" pointer-events="visiblePainted" d="M 293553.203125 202393.1875 L 283317.2033023834 246061.1881980896"></path></g></g></g><g id="editor-gbaee0bd6d_0_72"><g><g></g><g><path stroke="#666666" stroke-opacity="1" stroke-width="762" stroke-linecap="butt" stroke-linejoin="round" stroke-miterlimit="8" d="M 293449.109375 158829.9375 L 300109.1094608307 196917.93851280212"></path></g><g><path stroke="#000" stroke-opacity="0" stroke-width="3882.8025477707006" stroke-linecap="round" stroke-linejoin="round" stroke-miterlimit="10" pointer-events="visiblePainted" d="M 293449.109375 158829.9375 L 300109.1094608307 196917.93851280212"></path></g></g></g><g id="editor-gbaee0bd6d_0_73"><g><g></g><g><path stroke="#666666" stroke-opacity="1" stroke-width="762" stroke-linecap="butt" stroke-linejoin="round" stroke-miterlimit="8" d="M 293595.140625 158996.828125 L 284535.1410398483 195560.82658576965"></path></g><g><path stroke="#000" stroke-opacity="0" stroke-width="3882.8025477707006" stroke-linecap="round" stroke-linejoin="round" stroke-miterlimit="10" pointer-events="visiblePainted" d="M 293595.140625 158996.828125 L 284535.1410398483 195560.82658576965"></path></g></g></g></g><g id="editor-gbaee0bd6d_0_75"><g><g></g><g><path d="M 27432 2148.921875 L 338328.00563049316 2148.921875 338328.00563049316 64008.92296218872 27432 64008.92296218872 Z"></path></g><g></g><g><path fill="#000" fill-opacity="0" stroke="#000" stroke-opacity="0" stroke-width="3882.8025477707006" stroke-linecap="round" stroke-linejoin="round" stroke-miterlimit="10" pointer-events="visiblePainted" d="M 27432 2148.921875 L 338328.00563049316 2148.921875 338328.00563049316 64008.92296218872 27432 64008.92296218872 Z"></path></g><g><g direction="ltr" style="opacity: 1;"><g transform="matrix(380.99999999999994,0,0,381,31089,31014.92296218872)"><g pointer-events="none"><g id="editor-gbaee0bd6d_0_75-paragraph-0"><g><g class="sketchy-text-background" visibility="visible"></g><g class="sketchy-text-content" visibility="visible"><g class="sketchy-text-content-text" transform="translate(0 61.44)"><text x="176.71408219224827px" style="font-family:Arial;font-size:64px;fill:#000000;font-weight:700;" y="0px" text-rendering="geometricPrecision">Your</text><text x="335.52658219224827px" style="font-family:Arial;font-size:64px;fill:#000000;font-weight:700;" y="0px" text-rendering="geometricPrecision">Business</text></g></g></g></g></g><rect style="opacity: 0;"></rect><rect style="opacity: 1;"></rect></g><g><path d="M 98417.06531524658 31014.92296218872 L 267342.9403152466 31014.92296218872 267342.9403152466 60275.72296218872 98417.06531524658 60275.72296218872 Z" pointer-events="visiblePainted" fill="#000000" stroke="#000000" opacity="0"></path></g><g transform="matrix(380.99999999999994,0,0,381,31089,31014.92296218872)"></g></g></g></g></g></g></g></svg>