<svg xmlns="http://www.w3.org/2000/svg" xmlns:xlink="http://www.w3.org/1999/xlink" version="1.1" fill-rule="evenodd" fill="none" stroke="none" stroke-linecap="square" stroke-miterlimit="10" overflow="hidden" viewBox="6858 13335 358140 268605"><rect fill="#ffffff" fill-opacity="0" width="100%" height="100%"></rect><g transform="translate(6858 13335) scale(0.98125)"><defs cursor="default"><radialGradient gradientUnits="userSpaceOnUse" gradientTransform="matrix(478.1213235152768,0,0,478.1213235152768,0,0)" cx="382.4970588122215" cy="286.87279410916614" r="478.12132351527686" id="gradient-29294"><stop offset="0%" stop-color="#FFFFFF" stop-opacity="1"></stop><stop offset="30%" stop-color="#FFFFFF" stop-opacity="1"></stop><stop offset="100%" stop-color="#CCCCCC" stop-opacity="1"></stop></radialGradient></defs><g id="editor-gbaf29e1b5_0_0"><g></g><path fill="#fff" fill-opacity="1" d="M 0 0 L 365760 0 365760 274320 0 274320 Z"></path><g id="editor-gbaf29e1b5_0_0-bg"><g><g></g><g><g><path fill="url(#gradient-29294)" d="M 0 0 L 365760 0 365760 274320 0 274320 Z"></path></g><g></g></g><g></g></g></g><g id="editor-gb9563dfae_0_1"></g><g id="editor-gb9563dfae_0_2"></g><g id="editor-gb9563dfae_0_3"></g><g id="editor-gb9563dfae_0_5"></g><g id="editor-gb9563dfae_0_6"></g><g id="editor-gb9563dfae_0_7"></g><g id="editor-gbaf29e1b5_0_1"><g><g></g><g><path d="M 68580.00040054321 0 L 68580.00040054321 205740.00120162964 365891.9906616211 205740.00120162964 365891.9906616211 0 Z"></path><path d="M 68580.00040054321 205740.00120162964 L 0 274320.00160217285 297311.9902610779 274320.00160217285 365891.9906616211 205740.00120162964 Z"></path><path d="M 68580.00040054321 0 L 0 68580.00040054321 0 274320.00160217285 68580.00040054321 205740.00120162964 Z"></path><path stroke="#666666" stroke-opacity="1" stroke-width="762" stroke-linecap="butt" stroke-linejoin="round" stroke-miterlimit="8" d="M 68580.00040054321 0 L 0 68580.00040054321 0 274320.00160217285 297311.9902610779 274320.00160217285 365891.9906616211 205740.00120162964 365891.9906616211 0 Z M 68580.00040054321 0 L 68580.00040054321 205740.00120162964 0 274320.00160217285 M 68580.00040054321 205740.00120162964 L 365891.9906616211 205740.00120162964"></path></g><g><path fill="#000" fill-opacity="0" pointer-events="visiblePainted" d="M 68580.00040054321 0 L 68580.00040054321 205740.00120162964 365891.9906616211 205740.00120162964 365891.9906616211 0 Z"></path><path fill="#000" fill-opacity="0" pointer-events="visiblePainted" d="M 68580.00040054321 205740.00120162964 L 0 274320.00160217285 297311.9902610779 274320.00160217285 365891.9906616211 205740.00120162964 Z"></path><path fill="#000" fill-opacity="0" pointer-events="visiblePainted" d="M 68580.00040054321 0 L 0 68580.00040054321 0 274320.00160217285 68580.00040054321 205740.00120162964 Z"></path><path stroke="#000" stroke-opacity="0" stroke-width="3882.8025477707006" stroke-linecap="round" stroke-linejoin="round" stroke-miterlimit="10" pointer-events="visiblePainted" d="M 68580.00040054321 0 L 0 68580.00040054321 0 274320.00160217285 297311.9902610779 274320.00160217285 365891.9906616211 205740.00120162964 365891.9906616211 0 Z M 68580.00040054321 0 L 68580.00040054321 205740.00120162964 0 274320.00160217285 M 68580.00040054321 205740.00120162964 L 365891.9906616211 205740.00120162964"></path></g><g></g></g></g><g id="editor-gbaf29e1b5_0_12"><g></g><g id="editor-gbaf29e1b5_0_8"><g></g><g id="editor-gbaf29e1b5_0_2"><g><g></g><g><path fill="#FFFFFF" fill-opacity="1" stroke="#666666" stroke-opacity="1" stroke-width="762" stroke-linecap="butt" stroke-linejoin="round" stroke-miterlimit="8" d="M 112643.49820458 116147.74206662766 C 112643.49820458 110247.19869556221 116828.78223484005 105463.86319278 121991.59172759109 105463.86319278 124470.86027845586 105463.86319278 126848.58444417924 106589.48291377543 128601.69204887828 108593.09886555429 130354.7996535773 110596.71481733314 131339.68525060217 113314.20121383492 131339.68525060217 116147.74206662766 131339.68525060217 122048.28543769312 127154.40122034213 126831.62094047532 121991.59172759109 126831.62094047532 116828.78223484005 126831.62094047532 112643.49820458 122048.28543769312 112643.49820458 116147.74206662766 Z"></path></g><g><path fill="#000" fill-opacity="0" stroke="#000" stroke-opacity="0" stroke-width="3882.8025477707006" stroke-linecap="round" stroke-linejoin="round" stroke-miterlimit="10" pointer-events="visiblePainted" d="M 112643.49820458 116147.74206662766 C 112643.49820458 110247.19869556221 116828.78223484005 105463.86319278 121991.59172759109 105463.86319278 124470.86027845586 105463.86319278 126848.58444417924 106589.48291377543 128601.69204887828 108593.09886555429 130354.7996535773 110596.71481733314 131339.68525060217 113314.20121383492 131339.68525060217 116147.74206662766 131339.68525060217 122048.28543769312 127154.40122034213 126831.62094047532 121991.59172759109 126831.62094047532 116828.78223484005 126831.62094047532 112643.49820458 122048.28543769312 112643.49820458 116147.74206662766 Z"></path></g><g></g></g></g><g id="editor-gbaf29e1b5_0_3"><g><g></g><g><path stroke="#666666" stroke-opacity="1" stroke-width="762" stroke-linecap="butt" stroke-linejoin="round" stroke-miterlimit="8" d="M 121991.59139730001 126831.6201855 L 121991.59139730001 173396.82061989102"></path></g><g><path stroke="#000" stroke-opacity="0" stroke-width="3882.8025477707006" stroke-linecap="round" stroke-linejoin="round" stroke-miterlimit="10" pointer-events="visiblePainted" d="M 121991.59139730001 126831.6201855 L 121991.59139730001 173396.82061989102"></path></g></g></g><g id="editor-gbaf29e1b5_0_4"><g><g></g><g><path stroke="#666666" stroke-opacity="1" stroke-width="762" stroke-linecap="butt" stroke-linejoin="round" stroke-miterlimit="8" d="M 121948.17614498001 173396.82082638 L 132125.10621850108 216815.7261141164"></path></g><g><path stroke="#000" stroke-opacity="0" stroke-width="3882.8025477707006" stroke-linecap="round" stroke-linejoin="round" stroke-miterlimit="10" pointer-events="visiblePainted" d="M 121948.17614498001 173396.82082638 L 132125.10621850108 216815.7261141164"></path></g></g></g><g id="editor-gbaf29e1b5_0_5"><g><g></g><g><path stroke="#666666" stroke-opacity="1" stroke-width="762" stroke-linecap="butt" stroke-linejoin="round" stroke-miterlimit="8" d="M 122094.20926642 173731.18540039 L 111858.0764561214 217393.67105571748"></path></g><g><path stroke="#000" stroke-opacity="0" stroke-width="3882.8025477707006" stroke-linecap="round" stroke-linejoin="round" stroke-miterlimit="10" pointer-events="visiblePainted" d="M 122094.20926642 173731.18540039 L 111858.0764561214 217393.67105571748"></path></g></g></g><g id="editor-gbaf29e1b5_0_6"><g><g></g><g><path stroke="#666666" stroke-opacity="1" stroke-width="762" stroke-linecap="butt" stroke-linejoin="round" stroke-miterlimit="8" d="M 121990.11133188 130167.93584219 L 143895.0798301801 166387.57063858825"></path></g><g><path stroke="#000" stroke-opacity="0" stroke-width="3882.8025477707006" stroke-linecap="round" stroke-linejoin="round" stroke-miterlimit="10" pointer-events="visiblePainted" d="M 121990.11133188 130167.93584219 L 143895.0798301801 166387.57063858825"></path></g></g></g><g id="editor-gbaf29e1b5_0_7"><g><g></g><g><path stroke="#666666" stroke-opacity="1" stroke-width="762" stroke-linecap="butt" stroke-linejoin="round" stroke-miterlimit="8" d="M 122136.14445332001 130334.83620291 L 100373.26287616111 164720.82064134246"></path></g><g><path stroke="#000" stroke-opacity="0" stroke-width="3882.8025477707006" stroke-linecap="round" stroke-linejoin="round" stroke-miterlimit="10" pointer-events="visiblePainted" d="M 122136.14445332001 130334.83620291 L 100373.26287616111 164720.82064134246"></path></g></g></g></g><g id="editor-gbaf29e1b5_0_11"><g></g><g id="editor-gbaf29e1b5_0_9"><g><g></g><g><path fill="#FFFFFF" fill-opacity="1" stroke="#666666" stroke-opacity="1" stroke-width="762" stroke-linecap="butt" stroke-linejoin="round" stroke-miterlimit="8" d="M 129887.07659572625 93555.06368775637 L 129887.07659572625 110206.42992493136 C 129887.07659572625 108367.17079760354 126415.19663889844 106876.15667749636 122132.41566890801 106876.15667749636 117849.63469891757 106876.15667749636 114377.75474208978 108367.17079760354 114377.75474208978 110206.42992493136 L 114377.75474208978 93555.06368775637 C 114377.75474208978 91715.80456042856 117849.63469891757 90224.79044032138 122132.41566890801 90224.79044032138 126415.19663889844 90224.79044032138 129887.07659572625 91715.80456042854 129887.07659572625 93555.06368775637 Z"></path></g><g><path fill="#000" fill-opacity="0" stroke="#000" stroke-opacity="0" stroke-width="3882.8025477707006" stroke-linecap="round" stroke-linejoin="round" stroke-miterlimit="10" pointer-events="visiblePainted" d="M 129887.07659572625 93555.06368775637 L 129887.07659572625 110206.42992493136 C 129887.07659572625 108367.17079760354 126415.19663889844 106876.15667749636 122132.41566890801 106876.15667749636 117849.63469891757 106876.15667749636 114377.75474208978 108367.17079760354 114377.75474208978 110206.42992493136 L 114377.75474208978 93555.06368775637 C 114377.75474208978 91715.80456042856 117849.63469891757 90224.79044032138 122132.41566890801 90224.79044032138 126415.19663889844 90224.79044032138 129887.07659572625 91715.80456042854 129887.07659572625 93555.06368775637 Z"></path></g><g></g></g></g><g id="editor-gbaf29e1b5_0_10"><g><g></g><g><path fill="#FFFFFF" fill-opacity="1" stroke="#666666" stroke-opacity="1" stroke-width="762" stroke-linecap="butt" stroke-linejoin="round" stroke-miterlimit="8" d="M 112860.19375802264 91623.18364762294 C 112677.7319370727 90576.31011002105 113276.79038071867 89539.96878051739 114403.1665060428 88953.91749165478 115529.54263136694 88367.86620279215 116985.69443719066 88334.88567034782 118153.72302886209 88868.97075011971 118567.47431666663 88260.27505138017 119324.76012073718 87840.01264222487 120196.51613695305 87735.30477038329 121068.27215316892 87630.59689854168 121952.10722370939 87853.74191358795 122580.67833976247 88337.24276577569 122933.14135911934 87785.36007320532 123625.20855633423 87414.56544105706 124411.29856435533 87356.43605291207 125197.38857237643 87298.30666476711 125966.25032670086 87561.06925833234 126445.05176497877 88051.48202530142 127081.8276409334 87466.48781084946 128094.95408602199 87220.18091625386 129046.04553952756 87419.13973221718 129997.13699303314 87618.0985481805 130715.3689457726 88226.58829655989 130889.95835693907 88981.31201099248 131670.11677624664 89147.45285715816 132319.97238629023 89569.80489743207 132671.62330318365 90139.24588661209 133023.2742200771 90708.6868757921 133042.22427758022 91369.35593002154 132723.5773875385 91950.55731763935 133491.80580780876 92731.17430578337 133671.51372029228 93771.33695417784 133195.63733379045 94682.87509435066 132719.76094728865 95594.41323452347 131659.79526304 96240.37865406241 130411.30058967945 96379.70856714586 130402.50067536997 97235.21967931393 129801.54044470639 98020.22639220799 128840.05626524062 98432.15277118112 127878.57208577484 98844.07915015426 126706.7029029985 98818.60152407382 125776.13837438627 98365.54008478945 125379.76720872444 99390.16264257886 124264.11482615741 100144.0701762826 122911.18430272552 100301.5467586339 121558.25377929365 100459.0233409852 120210.58448739843 99991.83820123126 119450.41938580452 99101.83259204226 118518.61605437424 99540.519250828 117400.52951634006 99666.89096319253 116348.37755954918 99452.44081785946 115296.22560275828 99237.99067252639 114398.63640146566 98700.78290891183 113858.08798849297 97962.0007710171 112905.90192993748 98048.99430089103 111985.26960748715 97663.83573292926 111553.09752814284 96997.6778776919 111120.92544879853 96331.52002245453 111269.21271356022 95526.17195723987 111924.364886818 94981.32502725047 111074.99026969839 94591.0227472151 110641.5881375479 93816.53342206657 110850.16069969306 93061.72285125284 111058.73326183824 92306.9122804391 111862.0172067663 91742.8233220168 112841.1314704421 91663.60623830147 Z"></path><path stroke="#666666" stroke-opacity="1" stroke-width="762" stroke-linecap="butt" stroke-linejoin="round" stroke-miterlimit="8" d="M 111924.6053099023 94981.25046036056 C 112325.42777085712 95165.43529146674 112788.47170470175 95248.98588464616 113251.56588872544 95220.68420602231 M 113858.11984630328 97961.9928933524 C 114057.26737292334 97943.79839643587 114252.46980835345 97905.2692962356 114438.69305766851 97847.39922352954 M 119450.17286068434 99101.7768875845 C 119310.105418197 98937.78513208679 119192.83378399823 98762.54573343406 119100.35612274794 98579.04455581935 M 125776.13372266706 98365.45359558058 C 125848.39810386923 98178.64960598966 125895.21917248885 97986.38789583638 125915.81580929816 97791.87598094634 M 130411.12061458683 96379.69392191841 C 130420.48948170041 95468.87028861788 129757.87091032992 94634.9108037643 128707.87908102025 94236.02561365391 M 132723.3756033904 91950.63872240232 C 132553.33268020526 92260.79138981686 132293.74344644096 92535.92343190196 131964.96115768212 92754.46294950414 M 130889.91559867529 88981.3121544028 C 130918.88876505199 89106.55878649004 130932.29756718938 89233.68784314563 130929.95615057775 89360.93723494098 M 126445.08470153026 88051.51999252921 C 126286.24075081966 88197.44699082681 126155.37425057593 88360.51849597292 126056.55997686174 88535.65696815071 M 122580.67485730645 88337.21703483674 C 122496.02463945055 88469.76140854784 122432.81344006369 88610.01607168955 122392.49736809764 88754.75017162002 M 118153.65471449294 88868.9560094785 C 118400.80879498106 88981.96806049734 118629.45990323242 89117.990176783 118834.58515608666 89274.03429848068 M 112860.19375802264 91623.18364762294 C 112885.34173287504 91767.46999344694 112925.07679631133 91909.9774686136 112979.02705202566 92049.37228882797"></path></g><g><path fill="#000" fill-opacity="0" stroke="#000" stroke-opacity="0" stroke-width="3882.8025477707006" stroke-linecap="round" stroke-linejoin="round" stroke-miterlimit="10" pointer-events="visiblePainted" d="M 112860.19375802264 91623.18364762294 C 112677.7319370727 90576.31011002105 113276.79038071867 89539.96878051739 114403.1665060428 88953.91749165478 115529.54263136694 88367.86620279215 116985.69443719066 88334.88567034782 118153.72302886209 88868.97075011971 118567.47431666663 88260.27505138017 119324.76012073718 87840.01264222487 120196.51613695305 87735.30477038329 121068.27215316892 87630.59689854168 121952.10722370939 87853.74191358795 122580.67833976247 88337.24276577569 122933.14135911934 87785.36007320532 123625.20855633423 87414.56544105706 124411.29856435533 87356.43605291207 125197.38857237643 87298.30666476711 125966.25032670086 87561.06925833234 126445.05176497877 88051.48202530142 127081.8276409334 87466.48781084946 128094.95408602199 87220.18091625386 129046.04553952756 87419.13973221718 129997.13699303314 87618.0985481805 130715.3689457726 88226.58829655989 130889.95835693907 88981.31201099248 131670.11677624664 89147.45285715816 132319.97238629023 89569.80489743207 132671.62330318365 90139.24588661209 133023.2742200771 90708.6868757921 133042.22427758022 91369.35593002154 132723.5773875385 91950.55731763935 133491.80580780876 92731.17430578337 133671.51372029228 93771.33695417784 133195.63733379045 94682.87509435066 132719.76094728865 95594.41323452347 131659.79526304 96240.37865406241 130411.30058967945 96379.70856714586 130402.50067536997 97235.21967931393 129801.54044470639 98020.22639220799 128840.05626524062 98432.15277118112 127878.57208577484 98844.07915015426 126706.7029029985 98818.60152407382 125776.13837438627 98365.54008478945 125379.76720872444 99390.16264257886 124264.11482615741 100144.0701762826 122911.18430272552 100301.5467586339 121558.25377929365 100459.0233409852 120210.58448739843 99991.83820123126 119450.41938580452 99101.83259204226 118518.61605437424 99540.519250828 117400.52951634006 99666.89096319253 116348.37755954918 99452.44081785946 115296.22560275828 99237.99067252639 114398.63640146566 98700.78290891183 113858.08798849297 97962.0007710171 112905.90192993748 98048.99430089103 111985.26960748715 97663.83573292926 111553.09752814284 96997.6778776919 111120.92544879853 96331.52002245453 111269.21271356022 95526.17195723987 111924.364886818 94981.32502725047 111074.99026969839 94591.0227472151 110641.5881375479 93816.53342206657 110850.16069969306 93061.72285125284 111058.73326183824 92306.9122804391 111862.0172067663 91742.8233220168 112841.1314704421 91663.60623830147 Z"></path><path stroke="#000" stroke-opacity="0" stroke-width="3882.8025477707006" stroke-linecap="round" stroke-linejoin="round" stroke-miterlimit="10" pointer-events="visiblePainted" d="M 111924.6053099023 94981.25046036056 C 112325.42777085712 95165.43529146674 112788.47170470175 95248.98588464616 113251.56588872544 95220.68420602231 M 113858.11984630328 97961.9928933524 C 114057.26737292334 97943.79839643587 114252.46980835345 97905.2692962356 114438.69305766851 97847.39922352954 M 119450.17286068434 99101.7768875845 C 119310.105418197 98937.78513208679 119192.83378399823 98762.54573343406 119100.35612274794 98579.04455581935 M 125776.13372266706 98365.45359558058 C 125848.39810386923 98178.64960598966 125895.21917248885 97986.38789583638 125915.81580929816 97791.87598094634 M 130411.12061458683 96379.69392191841 C 130420.48948170041 95468.87028861788 129757.87091032992 94634.9108037643 128707.87908102025 94236.02561365391 M 132723.3756033904 91950.63872240232 C 132553.33268020526 92260.79138981686 132293.74344644096 92535.92343190196 131964.96115768212 92754.46294950414 M 130889.91559867529 88981.3121544028 C 130918.88876505199 89106.55878649004 130932.29756718938 89233.68784314563 130929.95615057775 89360.93723494098 M 126445.08470153026 88051.51999252921 C 126286.24075081966 88197.44699082681 126155.37425057593 88360.51849597292 126056.55997686174 88535.65696815071 M 122580.67485730645 88337.21703483674 C 122496.02463945055 88469.76140854784 122432.81344006369 88610.01607168955 122392.49736809764 88754.75017162002 M 118153.65471449294 88868.9560094785 C 118400.80879498106 88981.96806049734 118629.45990323242 89117.990176783 118834.58515608666 89274.03429848068 M 112860.19375802264 91623.18364762294 C 112885.34173287504 91767.46999344694 112925.07679631133 91909.9774686136 112979.02705202566 92049.37228882797"></path></g><g></g></g></g></g></g><g id="editor-gbaf29e1b5_0_19"><g></g><g id="editor-gbaf29e1b5_0_13"><g><g></g><g><path fill="#FFFFFF" fill-opacity="1" stroke="#666666" stroke-opacity="1" stroke-width="762" stroke-linecap="butt" stroke-linejoin="round" stroke-miterlimit="8" d="M 196963.5 125008.8596625328 C 196963.5 119107.14466704096 201148.74215409852 114322.859375 206311.49998998642 114322.859375 208790.74373435072 114322.859375 211168.44410958327 115448.7026014384 212921.5341734376 117452.71639545696 214674.62423729192 119456.73018947552 215659.49997997284 122174.75617584899 215659.49997997284 125008.8596625328 215659.49997997284 130910.57465802465 211474.25782587432 135694.8599500656 206311.49998998642 135694.8599500656 201148.74215409852 135694.8599500656 196963.5 130910.57465802465 196963.5 125008.8596625328 Z"></path></g><g><path fill="#000" fill-opacity="0" stroke="#000" stroke-opacity="0" stroke-width="3882.8025477707006" stroke-linecap="round" stroke-linejoin="round" stroke-miterlimit="10" pointer-events="visiblePainted" d="M 196963.5 125008.8596625328 C 196963.5 119107.14466704096 201148.74215409852 114322.859375 206311.49998998642 114322.859375 208790.74373435072 114322.859375 211168.44410958327 115448.7026014384 212921.5341734376 117452.71639545696 214674.62423729192 119456.73018947552 215659.49997997284 122174.75617584899 215659.49997997284 125008.8596625328 215659.49997997284 130910.57465802465 211474.25782587432 135694.8599500656 206311.49998998642 135694.8599500656 201148.74215409852 135694.8599500656 196963.5 130910.57465802465 196963.5 125008.8596625328 Z"></path></g><g></g></g></g><g id="editor-gbaf29e1b5_0_14"><g><g></g><g><path stroke="#666666" stroke-opacity="1" stroke-width="762" stroke-linecap="butt" stroke-linejoin="round" stroke-miterlimit="8" d="M 206311.59375 135690.625 L 206311.59375 182250.62637329102"></path></g><g><path stroke="#000" stroke-opacity="0" stroke-width="3882.8025477707006" stroke-linecap="round" stroke-linejoin="round" stroke-miterlimit="10" pointer-events="visiblePainted" d="M 206311.59375 135690.625 L 206311.59375 182250.62637329102"></path></g></g></g><g id="editor-gbaf29e1b5_0_15"><g><g></g><g><path stroke="#666666" stroke-opacity="1" stroke-width="762" stroke-linecap="butt" stroke-linejoin="round" stroke-miterlimit="8" d="M 206268.171875 182255.8125 L 216444.1715760231 225671.81072044373"></path></g><g><path stroke="#000" stroke-opacity="0" stroke-width="3882.8025477707006" stroke-linecap="round" stroke-linejoin="round" stroke-miterlimit="10" pointer-events="visiblePainted" d="M 206268.171875 182255.8125 L 216444.1715760231 225671.81072044373"></path></g></g></g><g id="editor-gbaf29e1b5_0_16"><g><g></g><g><path stroke="#666666" stroke-opacity="1" stroke-width="762" stroke-linecap="butt" stroke-linejoin="round" stroke-miterlimit="8" d="M 206414.203125 182590.1875 L 196178.20330238342 226258.1881980896"></path></g><g><path stroke="#000" stroke-opacity="0" stroke-width="3882.8025477707006" stroke-linecap="round" stroke-linejoin="round" stroke-miterlimit="10" pointer-events="visiblePainted" d="M 206414.203125 182590.1875 L 196178.20330238342 226258.1881980896"></path></g></g></g><g id="editor-gbaf29e1b5_0_17"><g><g></g><g><path stroke="#666666" stroke-opacity="1" stroke-width="762" stroke-linecap="butt" stroke-linejoin="round" stroke-miterlimit="8" d="M 206310.109375 139026.9375 L 212970.1094608307 177114.93851280212"></path></g><g><path stroke="#000" stroke-opacity="0" stroke-width="3882.8025477707006" stroke-linecap="round" stroke-linejoin="round" stroke-miterlimit="10" pointer-events="visiblePainted" d="M 206310.109375 139026.9375 L 212970.1094608307 177114.93851280212"></path></g></g></g><g id="editor-gbaf29e1b5_0_18"><g><g></g><g><path stroke="#666666" stroke-opacity="1" stroke-width="762" stroke-linecap="butt" stroke-linejoin="round" stroke-miterlimit="8" d="M 206456.140625 139193.828125 L 176648.14029884338 131717.82808423042"></path></g><g><path stroke="#000" stroke-opacity="0" stroke-width="3882.8025477707006" stroke-linecap="round" stroke-linejoin="round" stroke-miterlimit="10" pointer-events="visiblePainted" d="M 206456.140625 139193.828125 L 176648.14029884338 131717.82808423042"></path></g></g></g></g><g id="editor-gbaf29e1b5_0_26"><g></g><g id="editor-gbaf29e1b5_0_20"><g><g></g><g><path fill="#FFFFFF" fill-opacity="1" stroke="#666666" stroke-opacity="1" stroke-width="762" stroke-linecap="butt" stroke-linejoin="round" stroke-miterlimit="8" d="M 245292.5 128341.8596625328 C 245292.5 122440.14466704096 249477.74215409852 117655.859375 254640.49998998642 117655.859375 257119.74373435072 117655.859375 259497.44410958327 118781.7026014384 261250.5341734376 120785.71639545696 263003.6242372919 122789.73018947552 263988.49997997284 125507.75617584899 263988.49997997284 128341.8596625328 263988.49997997284 134243.57465802465 259803.25782587432 139027.8599500656 254640.49998998642 139027.8599500656 249477.74215409852 139027.8599500656 245292.5 134243.57465802465 245292.5 128341.8596625328 Z"></path></g><g><path fill="#000" fill-opacity="0" stroke="#000" stroke-opacity="0" stroke-width="3882.8025477707006" stroke-linecap="round" stroke-linejoin="round" stroke-miterlimit="10" pointer-events="visiblePainted" d="M 245292.5 128341.8596625328 C 245292.5 122440.14466704096 249477.74215409852 117655.859375 254640.49998998642 117655.859375 257119.74373435072 117655.859375 259497.44410958327 118781.7026014384 261250.5341734376 120785.71639545696 263003.6242372919 122789.73018947552 263988.49997997284 125507.75617584899 263988.49997997284 128341.8596625328 263988.49997997284 134243.57465802465 259803.25782587432 139027.8599500656 254640.49998998642 139027.8599500656 249477.74215409852 139027.8599500656 245292.5 134243.57465802465 245292.5 128341.8596625328 Z"></path></g><g></g></g></g><g id="editor-gbaf29e1b5_0_21"><g><g></g><g><path stroke="#666666" stroke-opacity="1" stroke-width="762" stroke-linecap="butt" stroke-linejoin="round" stroke-miterlimit="8" d="M 254640.59375 139023.625 L 254640.59375 185583.62637329102"></path></g><g><path stroke="#000" stroke-opacity="0" stroke-width="3882.8025477707006" stroke-linecap="round" stroke-linejoin="round" stroke-miterlimit="10" pointer-events="visiblePainted" d="M 254640.59375 139023.625 L 254640.59375 185583.62637329102"></path></g></g></g><g id="editor-gbaf29e1b5_0_22"><g><g></g><g><path stroke="#666666" stroke-opacity="1" stroke-width="762" stroke-linecap="butt" stroke-linejoin="round" stroke-miterlimit="8" d="M 254597.171875 185588.8125 L 264773.1715760231 229004.81072044373"></path></g><g><path stroke="#000" stroke-opacity="0" stroke-width="3882.8025477707006" stroke-linecap="round" stroke-linejoin="round" stroke-miterlimit="10" pointer-events="visiblePainted" d="M 254597.171875 185588.8125 L 264773.1715760231 229004.81072044373"></path></g></g></g><g id="editor-gbaf29e1b5_0_23"><g><g></g><g><path stroke="#666666" stroke-opacity="1" stroke-width="762" stroke-linecap="butt" stroke-linejoin="round" stroke-miterlimit="8" d="M 254743.203125 185923.1875 L 244507.20330238342 229591.1881980896"></path></g><g><path stroke="#000" stroke-opacity="0" stroke-width="3882.8025477707006" stroke-linecap="round" stroke-linejoin="round" stroke-miterlimit="10" pointer-events="visiblePainted" d="M 254743.203125 185923.1875 L 244507.20330238342 229591.1881980896"></path></g></g></g><g id="editor-gbaf29e1b5_0_24"><g><g></g><g><path stroke="#666666" stroke-opacity="1" stroke-width="762" stroke-linecap="butt" stroke-linejoin="round" stroke-miterlimit="8" d="M 254639.109375 142359.9375 L 261299.1094608307 180447.93851280212"></path></g><g><path stroke="#000" stroke-opacity="0" stroke-width="3882.8025477707006" stroke-linecap="round" stroke-linejoin="round" stroke-miterlimit="10" pointer-events="visiblePainted" d="M 254639.109375 142359.9375 L 261299.1094608307 180447.93851280212"></path></g></g></g><g id="editor-gbaf29e1b5_0_25"><g><g></g><g><path stroke="#666666" stroke-opacity="1" stroke-width="762" stroke-linecap="butt" stroke-linejoin="round" stroke-miterlimit="8" d="M 254785.140625 142526.828125 L 245725.14103984833 179090.82658576965"></path></g><g><path stroke="#000" stroke-opacity="0" stroke-width="3882.8025477707006" stroke-linecap="round" stroke-linejoin="round" stroke-miterlimit="10" pointer-events="visiblePainted" d="M 254785.140625 142526.828125 L 245725.14103984833 179090.82658576965"></path></g></g></g></g><g id="editor-gbaf29e1b5_0_37"><g></g><g id="editor-gbaf29e1b5_0_33"><g></g><g id="editor-gbaf29e1b5_0_27"><g><g></g><g><path fill="#FFFFFF" fill-opacity="1" stroke="#666666" stroke-opacity="1" stroke-width="762" stroke-linecap="butt" stroke-linejoin="round" stroke-miterlimit="8" d="M 53553.502704149985 132779.07926997257 C 53553.502704149985 125720.82034661528 58559.986386841476 119998.97095533999 64735.79698784788 119998.97095533999 67701.52582612303 119998.97095533999 70545.78613236938 121345.44278689747 72642.87310507425 123742.17801639729 74739.9600777791 126138.9132458971 75918.0912715458 129389.58380299655 75918.0912715458 132779.07926997257 75918.0912715458 139837.3381933299 70911.6075888543 145559.18758460518 64735.79698784789 145559.18758460518 58559.98638684148 145559.18758460518 53553.502704149985 139837.3381933299 53553.502704149985 132779.07926997257 Z"></path></g><g><path fill="#000" fill-opacity="0" stroke="#000" stroke-opacity="0" stroke-width="3882.8025477707006" stroke-linecap="round" stroke-linejoin="round" stroke-miterlimit="10" pointer-events="visiblePainted" d="M 53553.502704149985 132779.07926997257 C 53553.502704149985 125720.82034661528 58559.986386841476 119998.97095533999 64735.79698784788 119998.97095533999 67701.52582612303 119998.97095533999 70545.78613236938 121345.44278689747 72642.87310507425 123742.17801639729 74739.9600777791 126138.9132458971 75918.0912715458 129389.58380299655 75918.0912715458 132779.07926997257 75918.0912715458 139837.3381933299 70911.6075888543 145559.18758460518 64735.79698784789 145559.18758460518 58559.98638684148 145559.18758460518 53553.502704149985 139837.3381933299 53553.502704149985 132779.07926997257 Z"></path></g><g></g></g></g><g id="editor-gbaf29e1b5_0_28"><g><g></g><g><path stroke="#666666" stroke-opacity="1" stroke-width="762" stroke-linecap="butt" stroke-linejoin="round" stroke-miterlimit="8" d="M 64735.796592750004 145559.1866815 L 64735.796592750004 201260.70784913684"></path></g><g><path stroke="#000" stroke-opacity="0" stroke-width="3882.8025477707006" stroke-linecap="round" stroke-linejoin="round" stroke-miterlimit="10" pointer-events="visiblePainted" d="M 64735.796592750004 145559.1866815 L 64735.796592750004 201260.70784913684"></path></g></g></g><g id="editor-gbaf29e1b5_0_29"><g><g></g><g><path stroke="#666666" stroke-opacity="1" stroke-width="762" stroke-linecap="butt" stroke-linejoin="round" stroke-miterlimit="8" d="M 64683.86278114999 201260.70809614 L 76857.62063954074 253198.6155763851"></path></g><g><path stroke="#000" stroke-opacity="0" stroke-width="3882.8025477707006" stroke-linecap="round" stroke-linejoin="round" stroke-miterlimit="10" pointer-events="visiblePainted" d="M 64683.86278114999 201260.70809614 L 76857.62063954074 253198.6155763851"></path></g></g></g><g id="editor-gbaf29e1b5_0_30"><g><g></g><g><path stroke="#666666" stroke-opacity="1" stroke-width="762" stroke-linecap="butt" stroke-linejoin="round" stroke-miterlimit="8" d="M 64858.549238349995 201660.67663967 L 52613.97240244078 253889.95615041914"></path></g><g><path stroke="#000" stroke-opacity="0" stroke-width="3882.8025477707006" stroke-linecap="round" stroke-linejoin="round" stroke-miterlimit="10" pointer-events="visiblePainted" d="M 64858.549238349995 201660.67663967 L 52613.97240244078 253889.95615041914"></path></g></g></g><g id="editor-gbaf29e1b5_0_31"><g><g></g><g><path stroke="#666666" stroke-opacity="1" stroke-width="762" stroke-linecap="butt" stroke-linejoin="round" stroke-miterlimit="8" d="M 64734.026121899995 149550.10383506998 L 90936.99503959052 192876.2086402718"></path></g><g><path stroke="#000" stroke-opacity="0" stroke-width="3882.8025477707006" stroke-linecap="round" stroke-linejoin="round" stroke-miterlimit="10" pointer-events="visiblePainted" d="M 64734.026121899995 149550.10383506998 L 90936.99503959052 192876.2086402718"></path></g></g></g><g id="editor-gbaf29e1b5_0_32"><g><g></g><g><path stroke="#666666" stroke-opacity="1" stroke-width="762" stroke-linecap="butt" stroke-linejoin="round" stroke-miterlimit="8" d="M 64908.7125791 149749.75086523 L 38875.70962956696 190882.4341179533"></path></g><g><path stroke="#000" stroke-opacity="0" stroke-width="3882.8025477707006" stroke-linecap="round" stroke-linejoin="round" stroke-miterlimit="10" pointer-events="visiblePainted" d="M 64908.7125791 149749.75086523 L 38875.70962956696 190882.4341179533"></path></g></g></g></g><g id="editor-gbaf29e1b5_0_36"><g></g><g id="editor-gbaf29e1b5_0_34"><g><g></g><g><path fill="#FFFFFF" fill-opacity="1" stroke="#666666" stroke-opacity="1" stroke-width="762" stroke-linecap="butt" stroke-linejoin="round" stroke-miterlimit="8" d="M 74180.46451183436 105753.60657330882 L 74180.46451183436 125672.05254321086 C 74180.46451183436 123471.92175330975 70027.36278051841 121688.36334923045 64904.25216537897 121688.36334923045 59781.141550239554 121688.36334923045 55628.0398189236 123471.92175330975 55628.0398189236 125672.05254321086 L 55628.0398189236 105753.60657330882 C 55628.03981892359 103553.47578340772 59781.14155023955 101769.91737932841 64904.25216537897 101769.91737932841 70027.3627805184 101769.91737932841 74180.46451183436 103553.47578340772 74180.46451183436 105753.60657330882 Z"></path></g><g><path fill="#000" fill-opacity="0" stroke="#000" stroke-opacity="0" stroke-width="3882.8025477707006" stroke-linecap="round" stroke-linejoin="round" stroke-miterlimit="10" pointer-events="visiblePainted" d="M 74180.46451183436 105753.60657330882 L 74180.46451183436 125672.05254321086 C 74180.46451183436 123471.92175330975 70027.36278051841 121688.36334923045 64904.25216537897 121688.36334923045 59781.141550239554 121688.36334923045 55628.0398189236 123471.92175330975 55628.0398189236 125672.05254321086 L 55628.0398189236 105753.60657330882 C 55628.03981892359 103553.47578340772 59781.14155023955 101769.91737932841 64904.25216537897 101769.91737932841 70027.3627805184 101769.91737932841 74180.46451183436 103553.47578340772 74180.46451183436 105753.60657330882 Z"></path></g><g></g></g></g><g id="editor-gbaf29e1b5_0_35"><g><g></g><g><path fill="#FFFFFF" fill-opacity="1" stroke="#666666" stroke-opacity="1" stroke-width="762" stroke-linecap="butt" stroke-linejoin="round" stroke-miterlimit="8" d="M 53812.71635478362 103442.68219319268 C 53594.45347878873 102190.40693247023 54311.0539057628 100950.73035073665 55658.43765588267 100249.69292434574 57005.821406002535 99548.65549795484 58747.686522603755 99509.20402327139 60144.895419978595 100148.07921544732 60639.82934945848 99419.95443488804 61545.70311902856 98917.23447961782 62588.50743981482 98791.98240971596 63631.31176060108 98666.73033981408 64688.5651816016 98933.65750136608 65440.46899820719 99512.02359238404 65862.08921380166 98851.85880847907 66689.94775461545 98408.31245071019 67630.27743590591 98338.77779147938 68570.60711719637 98269.24313224858 69490.3281682505 98583.56103555406 70063.0758170734 99170.19519293724 70824.79425946559 98470.42224414145 72036.7074723244 98175.78872866067 73174.41373271104 98413.78424023338 74312.11999309764 98651.7797518061 75171.277107831 99379.65817353435 75380.12291897691 100282.462382751 76313.35716734287 100481.2008778756 77090.72173430311 100986.4204601398 77511.37050382546 101667.58856457482 77932.0192733478 102348.75666900985 77954.68754460242 103139.05223234181 77573.51856204352 103834.28818307433 78492.48201180107 104768.06605331425 78707.45063161141 106012.31371544905 78138.20196251891 107102.70010993013 77568.95329342644 108193.0865044112 76301.01045751953 108965.79350780329 74807.5471310369 109132.46063326401 74797.02057487465 110155.82722202639 74078.14520894716 111094.85610254444 72928.00705324298 111587.60445762149 71777.8688975388 112080.35281269856 70376.06584202331 112049.87635141028 69262.9141193434 111507.92203541638 68788.77048683778 112733.58056494338 67454.2145980393 113635.4084547687 65835.82393675935 113823.78271501926 64217.433275479394 114012.15697526983 62605.3361583529 113453.30781949579 61696.018140802495 112388.67874419724 60581.384548302114 112913.43787724861 59243.91689544192 113064.6043394478 57985.32092792804 112808.07802369611 56726.72496041416 112551.55170794444 55653.01869399563 111908.94114603873 55006.40862173147 111025.2063288721 53867.392982511345 111129.26841602122 52766.12227620289 110668.53984777535 52249.15318934795 109871.67855375443 51732.184102493 109074.81725973354 51909.56699120803 108111.45595379273 52693.267366470514 107459.7073835984 51677.235926225 106992.82588173955 51158.79543641185 106066.37795203178 51408.292273779916 105163.46984478597 51657.78911114798 104260.56173754016 52618.68637254615 103585.79575854991 53789.91383265209 103491.03589444011 Z"></path><path stroke="#666666" stroke-opacity="1" stroke-width="762" stroke-linecap="butt" stroke-linejoin="round" stroke-miterlimit="8" d="M 52693.554963259594 107459.61818631894 C 53173.02328510294 107679.94098473735 53726.921630448545 107779.88461412446 54280.88008562176 107746.0300073314 M 55006.446730401345 111025.19690557093 C 55244.669234600115 111003.43255911315 55478.172576484845 110957.3438604636 55700.934915263504 110888.11939563284 M 61695.723244689674 112388.61211025165 C 61528.17299954046 112192.44436792561 61387.8913558542 111982.82213968647 61277.268540600664 111763.31713092797 M 69262.90855490474 111507.8185766005 C 69349.35201793202 111284.36272795538 69405.35990517588 111054.37832720275 69429.99783305808 110821.70222050649 M 74807.33184281323 109132.44311457111 C 74818.53898669887 108042.9114167154 74025.90722230019 107045.32499026002 72769.89522349884 106568.1765692692 M 77573.27718558312 103834.38555985109 C 77369.86993433605 104205.39170194924 77059.3463823747 104534.50600024783 76666.0533222316 104795.9240431667 M 75380.07177106236 100282.46255429911 C 75414.72979753133 100432.28318995197 75430.7695569885 100584.35559110699 75427.96872818553 100736.57193774646 M 70063.1152161456 99170.24060952135 C 69873.10430133622 99344.79920067477 69716.5603264604 99539.86613501627 69598.357584331 99749.36763451103 M 65440.464832454265 99511.99281290863 C 65339.20529275093 99670.54304288828 65263.59134731601 99838.3163589047 65215.36481000363 100011.44799918005 M 60144.81370156428 100148.06158262 C 60440.46218375283 100283.2471523867 60713.977203095164 100445.95747509277 60959.35033043795 100632.61821888309 M 53812.71635478362 103442.68219319268 C 53842.7986442629 103615.27822780957 53890.330172657676 103785.74636862057 53954.86607343717 103952.49113630969"></path></g><g><path fill="#000" fill-opacity="0" stroke="#000" stroke-opacity="0" stroke-width="3882.8025477707006" stroke-linecap="round" stroke-linejoin="round" stroke-miterlimit="10" pointer-events="visiblePainted" d="M 53812.71635478362 103442.68219319268 C 53594.45347878873 102190.40693247023 54311.0539057628 100950.73035073665 55658.43765588267 100249.69292434574 57005.821406002535 99548.65549795484 58747.686522603755 99509.20402327139 60144.895419978595 100148.07921544732 60639.82934945848 99419.95443488804 61545.70311902856 98917.23447961782 62588.50743981482 98791.98240971596 63631.31176060108 98666.73033981408 64688.5651816016 98933.65750136608 65440.46899820719 99512.02359238404 65862.08921380166 98851.85880847907 66689.94775461545 98408.31245071019 67630.27743590591 98338.77779147938 68570.60711719637 98269.24313224858 69490.3281682505 98583.56103555406 70063.0758170734 99170.19519293724 70824.79425946559 98470.42224414145 72036.7074723244 98175.78872866067 73174.41373271104 98413.78424023338 74312.11999309764 98651.7797518061 75171.277107831 99379.65817353435 75380.12291897691 100282.462382751 76313.35716734287 100481.2008778756 77090.72173430311 100986.4204601398 77511.37050382546 101667.58856457482 77932.0192733478 102348.75666900985 77954.68754460242 103139.05223234181 77573.51856204352 103834.28818307433 78492.48201180107 104768.06605331425 78707.45063161141 106012.31371544905 78138.20196251891 107102.70010993013 77568.95329342644 108193.0865044112 76301.01045751953 108965.79350780329 74807.5471310369 109132.46063326401 74797.02057487465 110155.82722202639 74078.14520894716 111094.85610254444 72928.00705324298 111587.60445762149 71777.8688975388 112080.35281269856 70376.06584202331 112049.87635141028 69262.9141193434 111507.92203541638 68788.77048683778 112733.58056494338 67454.2145980393 113635.4084547687 65835.82393675935 113823.78271501926 64217.433275479394 114012.15697526983 62605.3361583529 113453.30781949579 61696.018140802495 112388.67874419724 60581.384548302114 112913.43787724861 59243.91689544192 113064.6043394478 57985.32092792804 112808.07802369611 56726.72496041416 112551.55170794444 55653.01869399563 111908.94114603873 55006.40862173147 111025.2063288721 53867.392982511345 111129.26841602122 52766.12227620289 110668.53984777535 52249.15318934795 109871.67855375443 51732.184102493 109074.81725973354 51909.56699120803 108111.45595379273 52693.267366470514 107459.7073835984 51677.235926225 106992.82588173955 51158.79543641185 106066.37795203178 51408.292273779916 105163.46984478597 51657.78911114798 104260.56173754016 52618.68637254615 103585.79575854991 53789.91383265209 103491.03589444011 Z"></path><path stroke="#000" stroke-opacity="0" stroke-width="3882.8025477707006" stroke-linecap="round" stroke-linejoin="round" stroke-miterlimit="10" pointer-events="visiblePainted" d="M 52693.554963259594 107459.61818631894 C 53173.02328510294 107679.94098473735 53726.921630448545 107779.88461412446 54280.88008562176 107746.0300073314 M 55006.446730401345 111025.19690557093 C 55244.669234600115 111003.43255911315 55478.172576484845 110957.3438604636 55700.934915263504 110888.11939563284 M 61695.723244689674 112388.61211025165 C 61528.17299954046 112192.44436792561 61387.8913558542 111982.82213968647 61277.268540600664 111763.31713092797 M 69262.90855490474 111507.8185766005 C 69349.35201793202 111284.36272795538 69405.35990517588 111054.37832720275 69429.99783305808 110821.70222050649 M 74807.33184281323 109132.44311457111 C 74818.53898669887 108042.9114167154 74025.90722230019 107045.32499026002 72769.89522349884 106568.1765692692 M 77573.27718558312 103834.38555985109 C 77369.86993433605 104205.39170194924 77059.3463823747 104534.50600024783 76666.0533222316 104795.9240431667 M 75380.07177106236 100282.46255429911 C 75414.72979753133 100432.28318995197 75430.7695569885 100584.35559110699 75427.96872818553 100736.57193774646 M 70063.1152161456 99170.24060952135 C 69873.10430133622 99344.79920067477 69716.5603264604 99539.86613501627 69598.357584331 99749.36763451103 M 65440.464832454265 99511.99281290863 C 65339.20529275093 99670.54304288828 65263.59134731601 99838.3163589047 65215.36481000363 100011.44799918005 M 60144.81370156428 100148.06158262 C 60440.46218375283 100283.2471523867 60713.977203095164 100445.95747509277 60959.35033043795 100632.61821888309 M 53812.71635478362 103442.68219319268 C 53842.7986442629 103615.27822780957 53890.330172657676 103785.74636862057 53954.86607343717 103952.49113630969"></path></g><g></g></g></g></g></g><g id="editor-gbaf29e1b5_0_44"><g></g><g id="editor-gbaf29e1b5_0_38"><g><g></g><g><path fill="#FFFFFF" fill-opacity="1" stroke="#666666" stroke-opacity="1" stroke-width="762" stroke-linecap="butt" stroke-linejoin="round" stroke-miterlimit="8" d="M 154416.34375 143375.85934638977 C 154416.34375 136317.66025935323 159423.59100798037 130595.859375 165600.3435268402 130595.859375 168566.52469002 130595.859375 171411.2187951205 131942.31979185576 173508.62560983276 134339.03470305618 175606.032424545 136735.7496142566 176784.34330368042 139986.3926138283 176784.34330368042 143375.85934638977 176784.34330368042 150434.0584334263 171777.09604570005 156155.85931777954 165600.3435268402 156155.85931777954 159423.59100798037 156155.85931777954 154416.34375 150434.0584334263 154416.34375 143375.85934638977 Z"></path></g><g><path fill="#000" fill-opacity="0" stroke="#000" stroke-opacity="0" stroke-width="3882.8025477707006" stroke-linecap="round" stroke-linejoin="round" stroke-miterlimit="10" pointer-events="visiblePainted" d="M 154416.34375 143375.85934638977 C 154416.34375 136317.66025935323 159423.59100798037 130595.859375 165600.3435268402 130595.859375 168566.52469002 130595.859375 171411.2187951205 131942.31979185576 173508.62560983276 134339.03470305618 175606.032424545 136735.7496142566 176784.34330368042 139986.3926138283 176784.34330368042 143375.85934638977 176784.34330368042 150434.0584334263 171777.09604570005 156155.85931777954 165600.3435268402 156155.85931777954 159423.59100798037 156155.85931777954 154416.34375 150434.0584334263 154416.34375 143375.85934638977 Z"></path></g><g></g></g></g><g id="editor-gbaf29e1b5_0_39"><g><g></g><g><path stroke="#666666" stroke-opacity="1" stroke-width="762" stroke-linecap="butt" stroke-linejoin="round" stroke-miterlimit="8" d="M 165598.53125 156155.96875 L 165598.53125 211847.96913909912"></path></g><g><path stroke="#000" stroke-opacity="0" stroke-width="3882.8025477707006" stroke-linecap="round" stroke-linejoin="round" stroke-miterlimit="10" pointer-events="visiblePainted" d="M 165598.53125 156155.96875 L 165598.53125 211847.96913909912"></path></g></g></g><g id="editor-gbaf29e1b5_0_40"><g><g></g><g><path stroke="#666666" stroke-opacity="1" stroke-width="762" stroke-linecap="butt" stroke-linejoin="round" stroke-miterlimit="8" d="M 165546.59375 211857.265625 L 177714.59409046173 263793.26501846313"></path></g><g><path stroke="#000" stroke-opacity="0" stroke-width="3882.8025477707006" stroke-linecap="round" stroke-linejoin="round" stroke-miterlimit="10" pointer-events="visiblePainted" d="M 165546.59375 211857.265625 L 177714.59409046173 263793.26501846313"></path></g></g></g><g id="editor-gbaf29e1b5_0_41"><g><g></g><g><path stroke="#666666" stroke-opacity="1" stroke-width="762" stroke-linecap="butt" stroke-linejoin="round" stroke-miterlimit="8" d="M 165721.28125 212257.234375 L 153481.28147888184 264493.23348236084"></path></g><g><path stroke="#000" stroke-opacity="0" stroke-width="3882.8025477707006" stroke-linecap="round" stroke-linejoin="round" stroke-miterlimit="10" pointer-events="visiblePainted" d="M 165721.28125 212257.234375 L 153481.28147888184 264493.23348236084"></path></g></g></g><g id="editor-gbaf29e1b5_0_42"><g><g></g><g><path stroke="#666666" stroke-opacity="1" stroke-width="762" stroke-linecap="butt" stroke-linejoin="round" stroke-miterlimit="8" d="M 165596.765625 160146.875 L 173564.7655005455 205710.87560653687"></path></g><g><path stroke="#000" stroke-opacity="0" stroke-width="3882.8025477707006" stroke-linecap="round" stroke-linejoin="round" stroke-miterlimit="10" pointer-events="visiblePainted" d="M 165596.765625 160146.875 L 173564.7655005455 205710.87560653687"></path></g></g></g><g id="editor-gbaf29e1b5_0_43"><g><g></g><g><path stroke="#666666" stroke-opacity="1" stroke-width="762" stroke-linecap="butt" stroke-linejoin="round" stroke-miterlimit="8" d="M 165771.4375 160346.515625 L 125511.43727111816 163406.51556777954"></path></g><g><path stroke="#000" stroke-opacity="0" stroke-width="3882.8025477707006" stroke-linecap="round" stroke-linejoin="round" stroke-miterlimit="10" pointer-events="visiblePainted" d="M 165771.4375 160346.515625 L 125511.43727111816 163406.51556777954"></path></g></g></g></g><g id="editor-gbaf29e1b5_0_51"><g></g><g id="editor-gbaf29e1b5_0_45"><g><g></g><g><path fill="#FFFFFF" fill-opacity="1" stroke="#666666" stroke-opacity="1" stroke-width="762" stroke-linecap="butt" stroke-linejoin="round" stroke-miterlimit="8" d="M 217383.78980000003 145554.08522832172 C 217383.78980000003 138494.45375071437 222390.17646473268 132771.49168437498 228565.86738802178 132771.49168437498 231531.53875503034 132771.49168437498 234375.74394388354 134118.2253518406 236472.79027826607 136515.4266522456 238569.83661264862 138912.6279526506 239747.94497604354 142163.93063755054 239747.94497604354 145554.08522832172 239747.94497604354 152613.71670592908 234741.5583113109 158336.67877226847 228565.86738802178 158336.67877226847 222390.17646473268 158336.67877226847 217383.78980000003 152613.71670592905 217383.78980000003 145554.08522832172 Z"></path></g><g><path fill="#000" fill-opacity="0" stroke="#000" stroke-opacity="0" stroke-width="3882.8025477707006" stroke-linecap="round" stroke-linejoin="round" stroke-miterlimit="10" pointer-events="visiblePainted" d="M 217383.78980000003 145554.08522832172 C 217383.78980000003 138494.45375071437 222390.17646473268 132771.49168437498 228565.86738802178 132771.49168437498 231531.53875503034 132771.49168437498 234375.74394388354 134118.2253518406 236472.79027826607 136515.4266522456 238569.83661264862 138912.6279526506 239747.94497604354 142163.93063755054 239747.94497604354 145554.08522832172 239747.94497604354 152613.71670592908 234741.5583113109 158336.67877226847 228565.86738802178 158336.67877226847 222390.17646473268 158336.67877226847 217383.78980000003 152613.71670592905 217383.78980000003 145554.08522832172 Z"></path></g><g></g></g></g><g id="editor-gbaf29e1b5_0_46"><g><g></g><g><path stroke="#666666" stroke-opacity="1" stroke-width="762" stroke-linecap="butt" stroke-linejoin="round" stroke-miterlimit="8" d="M 228565.97954375 158331.612925 L 228565.97954375 214026.6865677307"></path></g><g><path stroke="#000" stroke-opacity="0" stroke-width="3882.8025477707006" stroke-linecap="round" stroke-linejoin="round" stroke-miterlimit="10" pointer-events="visiblePainted" d="M 228565.97954375 158331.612925 L 228565.97954375 214026.6865677307"></path></g></g></g><g id="editor-gbaf29e1b5_0_47"><g><g></g><g><path stroke="#666666" stroke-opacity="1" stroke-width="762" stroke-linecap="butt" stroke-linejoin="round" stroke-miterlimit="8" d="M 228514.03829687502 214032.8902125 L 240686.56913923885 265967.1072837948"></path></g><g><path stroke="#000" stroke-opacity="0" stroke-width="3882.8025477707006" stroke-linecap="round" stroke-linejoin="round" stroke-miterlimit="10" pointer-events="visiblePainted" d="M 228514.03829687502 214032.8902125 L 240686.56913923885 265967.1072837948"></path></g></g></g><g id="editor-gbaf29e1b5_0_48"><g><g></g><g><path stroke="#666666" stroke-opacity="1" stroke-width="762" stroke-linecap="butt" stroke-linejoin="round" stroke-miterlimit="8" d="M 228688.720878125 214432.8695875 L 216444.41789031104 266668.5320225548"></path></g><g><path stroke="#000" stroke-opacity="0" stroke-width="3882.8025477707006" stroke-linecap="round" stroke-linejoin="round" stroke-miterlimit="10" pointer-events="visiblePainted" d="M 228688.720878125 214432.8695875 L 216444.41789031104 266668.5320225548"></path></g></g></g><g id="editor-gbaf29e1b5_0_49"><g><g></g><g><path stroke="#666666" stroke-opacity="1" stroke-width="762" stroke-linecap="butt" stroke-linejoin="round" stroke-miterlimit="8" d="M 228564.20393437502 162322.5099375 L 236530.8960370457 207883.3767490139"></path></g><g><path stroke="#000" stroke-opacity="0" stroke-width="3882.8025477707006" stroke-linecap="round" stroke-linejoin="round" stroke-miterlimit="10" pointer-events="visiblePainted" d="M 228564.20393437502 162322.5099375 L 236530.8960370457 207883.3767490139"></path></g></g></g><g id="editor-gbaf29e1b5_0_50"><g><g></g><g><path stroke="#666666" stroke-opacity="1" stroke-width="762" stroke-linecap="butt" stroke-linejoin="round" stroke-miterlimit="8" d="M 228738.886515625 162522.144503125 L 217901.31501186657 206259.99946189765"></path></g><g><path stroke="#000" stroke-opacity="0" stroke-width="3882.8025477707006" stroke-linecap="round" stroke-linejoin="round" stroke-miterlimit="10" pointer-events="visiblePainted" d="M 228738.886515625 162522.144503125 L 217901.31501186657 206259.99946189765"></path></g></g></g></g><g id="editor-gbaf29e1b5_0_52"><g><g></g><g><path d="M 27432 2148.921875 L 338328.00563049316 2148.921875 338328.00563049316 64008.92296218872 27432 64008.92296218872 Z"></path></g><g></g><g><path fill="#000" fill-opacity="0" stroke="#000" stroke-opacity="0" stroke-width="3882.8025477707006" stroke-linecap="round" stroke-linejoin="round" stroke-miterlimit="10" pointer-events="visiblePainted" d="M 27432 2148.921875 L 338328.00563049316 2148.921875 338328.00563049316 64008.92296218872 27432 64008.92296218872 Z"></path></g><g><g direction="ltr" style="opacity: 1;"><g transform="matrix(380.99999999999994,0,0,381,31089,31014.92296218872)"><g pointer-events="none"><g id="editor-gbaf29e1b5_0_52-paragraph-0"><g><g class="sketchy-text-background" visibility="visible"></g><g class="sketchy-text-content" visibility="visible"><g class="sketchy-text-content-text" transform="translate(0 61.44)"><text x="106.80783219224827px" style="font-family:Arial;font-size:64px;fill:#000000;font-weight:700;" y="0px" text-rendering="geometricPrecision">Distributed</text><text x="462.37033219224827px" style="font-family:Arial;font-size:64px;fill:#000000;font-weight:700;" y="0px" text-rendering="geometricPrecision">Matters</text></g></g></g></g></g><rect style="opacity: 0;"></rect><rect style="opacity: 1;"></rect></g><g><path d="M 71782.78406524658 31014.92296218872 L 293977.2215652465 31014.92296218872 293977.2215652465 60275.72296218872 71782.78406524658 60275.72296218872 Z" pointer-events="visiblePainted" fill="#000000" stroke="#000000" opacity="0"></path></g><g transform="matrix(380.99999999999994,0,0,381,31089,31014.92296218872)"></g></g></g></g></g></g></g></svg>