<svg xmlns="http://www.w3.org/2000/svg" xmlns:xlink="http://www.w3.org/1999/xlink" version="1.1" fill-rule="evenodd" fill="none" stroke="none" stroke-linecap="square" stroke-miterlimit="10" overflow="hidden" viewBox="6858 13335 358140 268605"><rect fill="#ffffff" fill-opacity="0" width="100%" height="100%"></rect><g transform="translate(6858 13335) scale(0.98125)"><defs cursor="default"><radialGradient gradientUnits="userSpaceOnUse" gradientTransform="matrix(478.1213235152768,0,0,478.1213235152768,0,0)" cx="382.4970588122215" cy="286.87279410916614" r="478.12132351527686" id="gradient-10192"><stop offset="0%" stop-color="#FFFFFF" stop-opacity="1"></stop><stop offset="30%" stop-color="#FFFFFF" stop-opacity="1"></stop><stop offset="100%" stop-color="#CCCCCC" stop-opacity="1"></stop></radialGradient></defs><g id="editor-gb98267064_0_179"><g></g><path fill="#fff" fill-opacity="1" d="M 0 0 L 365760 0 365760 274320 0 274320 Z"></path><g id="editor-gb98267064_0_179-bg"><g><g></g><g><g><path fill="url(#gradient-10192)" d="M 0 0 L 365760 0 365760 274320 0 274320 Z"></path></g><g></g></g><g></g></g></g><g id="editor-gb9563dfae_0_1"></g><g id="editor-gb9563dfae_0_2"></g><g id="editor-gb9563dfae_0_3"></g><g id="editor-gb9563dfae_0_5"></g><g id="editor-gb9563dfae_0_6"></g><g id="editor-gb9563dfae_0_7"></g><g id="editor-gb98267064_0_191"><g><g></g><g><path fill="#FFFFFF" fill-opacity="1" stroke="#666666" stroke-opacity="1" stroke-width="762" stroke-linecap="butt" stroke-linejoin="round" stroke-miterlimit="8" d="M 316971.5315718651 183956.51561543345 C 322853.3639798019 183499.223847857 327946.57251986157 187303.0124312033 328347.5312460661 192452.51520872116 328540.0784166463 194925.39364958106 327602.6890404293 197384.22489038354 325741.57808033464 199288.0941245265 323880.46712024004 201191.96335866945 321248.0870954245 202384.91553182583 318423.53156399727 202604.51478287578 312541.6991560605 203061.80655045222 307448.4906160008 199258.01796710593 307047.53188979626 194108.51518958807 306646.57316359173 188959.0124120702 311089.69916392834 184413.8073830099 316971.5315718651 183956.51561543345 Z"></path></g><g><path fill="#000" fill-opacity="0" stroke="#000" stroke-opacity="0" stroke-width="3882.8025477707006" stroke-linecap="round" stroke-linejoin="round" stroke-miterlimit="10" pointer-events="visiblePainted" d="M 316971.5315718651 183956.51561543345 C 322853.3639798019 183499.223847857 327946.57251986157 187303.0124312033 328347.5312460661 192452.51520872116 328540.0784166463 194925.39364958106 327602.6890404293 197384.22489038354 325741.57808033464 199288.0941245265 323880.46712024004 201191.96335866945 321248.0870954245 202384.91553182583 318423.53156399727 202604.51478287578 312541.6991560605 203061.80655045222 307448.4906160008 199258.01796710593 307047.53188979626 194108.51518958807 306646.57316359173 188959.0124120702 311089.69916392834 184413.8073830099 316971.5315718651 183956.51561543345 Z"></path></g><g></g></g></g><g id="editor-gb98267064_0_192"><g><g></g><g><path stroke="#666666" stroke-opacity="1" stroke-width="762" stroke-linecap="butt" stroke-linejoin="round" stroke-miterlimit="8" d="M 307044.59375 194106.21875 L 260628.59481430054 197718.21864914894"></path></g><g><path stroke="#000" stroke-opacity="0" stroke-width="3882.8025477707006" stroke-linecap="round" stroke-linejoin="round" stroke-miterlimit="10" pointer-events="visiblePainted" d="M 307044.59375 194106.21875 L 260628.59481430054 197718.21864914894"></path></g></g></g><g id="editor-gb98267064_0_193"><g><g></g><g><path stroke="#666666" stroke-opacity="1" stroke-width="762" stroke-linecap="butt" stroke-linejoin="round" stroke-miterlimit="8" d="M 260618.53125 197676.53125 L 218126.52989530563 211188.53131902218"></path></g><g><path stroke="#000" stroke-opacity="0" stroke-width="3882.8025477707006" stroke-linecap="round" stroke-linejoin="round" stroke-miterlimit="10" pointer-events="visiblePainted" d="M 260618.53125 197676.53125 L 218126.52989530563 211188.53131902218"></path></g></g></g><g id="editor-gb98267064_0_194"><g><g></g><g><path stroke="#666666" stroke-opacity="1" stroke-width="762" stroke-linecap="butt" stroke-linejoin="round" stroke-miterlimit="8" d="M 260296.53125 197848.078125 L 210664.53151893616 202984.07834100723"></path></g><g><path stroke="#000" stroke-opacity="0" stroke-width="3882.8025477707006" stroke-linecap="round" stroke-linejoin="round" stroke-miterlimit="10" pointer-events="visiblePainted" d="M 260296.53125 197848.078125 L 210664.53151893616 202984.07834100723"></path></g></g></g><g id="editor-gb98267064_0_195"><g><g></g><g><path stroke="#666666" stroke-opacity="1" stroke-width="762" stroke-linecap="butt" stroke-linejoin="round" stroke-miterlimit="8" d="M 303718.375 194363.640625 L 323494.3747099638 224879.64176011086"></path></g><g><path stroke="#000" stroke-opacity="0" stroke-width="3882.8025477707006" stroke-linecap="round" stroke-linejoin="round" stroke-miterlimit="10" pointer-events="visiblePainted" d="M 303718.375 194363.640625 L 323494.3747099638 224879.64176011086"></path></g></g></g><g id="editor-gb98267064_0_196"><g><g></g><g><path stroke="#666666" stroke-opacity="1" stroke-width="762" stroke-linecap="butt" stroke-linejoin="round" stroke-miterlimit="8" d="M 303563.3125 194522.1875 L 319079.31229400635 229598.1858062744"></path></g><g><path stroke="#000" stroke-opacity="0" stroke-width="3882.8025477707006" stroke-linecap="round" stroke-linejoin="round" stroke-miterlimit="10" pointer-events="visiblePainted" d="M 303563.3125 194522.1875 L 319079.31229400635 229598.1858062744"></path></g></g></g><g id="editor-gb98267064_0_199"><g></g><g id="editor-gb98267064_0_197"><g><g></g><g><path fill="#FFFFFF" fill-opacity="1" stroke="#666666" stroke-opacity="1" stroke-width="762" stroke-linecap="butt" stroke-linejoin="round" stroke-miterlimit="8" d="M 340830.6031873779 199387.1941249756 L 324230.6868635254 200679.48164145506 C 326064.2629903516 200536.7395039054 327281.3604436907 196960.19953903637 326949.1501119385 192691.05604389647 326616.9397801863 188421.91254875658 324861.22295763675 185076.80331538 323027.6468308105 185219.54545292968 L 339627.5631546631 183927.2579364502 C 341461.1392814893 183784.5157989005 343216.85610403883 187129.62503227708 343549.066435791 191398.76852741698 343881.2767675432 195667.91202255688 342664.17931420414 199244.4519874259 340830.603187378 199387.1941249756 Z"></path></g><g><path fill="#000" fill-opacity="0" stroke="#000" stroke-opacity="0" stroke-width="3882.8025477707006" stroke-linecap="round" stroke-linejoin="round" stroke-miterlimit="10" pointer-events="visiblePainted" d="M 340830.6031873779 199387.1941249756 L 324230.6868635254 200679.48164145506 C 326064.2629903516 200536.7395039054 327281.3604436907 196960.19953903637 326949.1501119385 192691.05604389647 326616.9397801863 188421.91254875658 324861.22295763675 185076.80331538 323027.6468308105 185219.54545292968 L 339627.5631546631 183927.2579364502 C 341461.1392814893 183784.5157989005 343216.85610403883 187129.62503227708 343549.066435791 191398.76852741698 343881.2767675432 195667.91202255688 342664.17931420414 199244.4519874259 340830.603187378 199387.1941249756 Z"></path></g><g></g></g></g><g id="editor-gb98267064_0_198"><g><g></g><g><path fill="#FFFFFF" fill-opacity="1" stroke="#666666" stroke-opacity="1" stroke-width="762" stroke-linecap="butt" stroke-linejoin="round" stroke-miterlimit="8" d="M 341435.7585732416 182264.59894897832 C 342465.24409723305 182001.47185092108 343544.8515725729 182518.1938450123 344216.46374596213 183595.50073934952 344888.07591935137 184672.80763368672 345033.90654713265 186121.76310850406 344592.07431765145 187327.5219377003 345230.9834548472 187692.71577644383 345708.68910186033 188414.97425380038 345880.69454289443 189275.82815428797 346052.69998392847 190136.68205477553 345898.8025063765 191035.0207167574 345465.5531196618 191699.1140756192 346043.07073369354 192007.62397555902 346466.402519413 192668.71063871135 346585.3283839275 193447.78619972145 346704.2542484421 194226.86176073155 346501.94325777586 195013.66787181972 346050.18585346016 195529.00488135772 346682.7664975068 196118.3525772541 347006.89938371175 197109.13745943483 346882.33037326083 198072.64128820712 346757.7613628099 199036.1451169794 346206.8641611878 199799.3140098386 345468.0151130268 200031.92045704034 345362.9035940021 200822.4885929781 344992.26509309467 201503.0530031116 344451.8607325926 201897.777632783 343911.4563720905 202292.50226245436 343254.2986077026 202362.66551080882 342650.1759662122 202090.139440815 341931.5615367223 202916.5041360807 340908.5525489501 203176.36527279468 339962.9177308392 202772.74730451396 339017.2829127284 202369.12933623325 338291.0931137887 201362.67126073255 338055.3494289281 200128.96530037269 337201.7991027058 200186.58833933756 336372.60214299534 199648.46491201984 335887.3673390843 198722.01133257538 335402.13253517327 197795.5577531309 335336.63091203634 196625.44282260232 335716.1096612147 195662.68003289166 334663.90696464735 195347.090432155 333825.7890221395 194293.50020439617 333563.85377090337 192957.0992802792 333301.91851966723 191620.6983561622 333663.12299877044 190241.06285271482 334491.41351915384 189414.24631391466 333981.80342899484 188519.45589617192 333769.0935133713 187414.73715164457 333901.2668420607 186349.2923633937 334033.4401707501 185283.84757514286 334499.3631040426 184347.42464102939 335193.9328189054 183751.261701302 335033.34812080127 182808.85908492608 335345.9042367413 181861.26671450672 335976.48069170694 181378.7712717852 336607.05714667257 180896.2758290637 337421.41929261206 180981.58905570162 338015.4021285132 181592.3703044791 338338.6134405338 180715.40954078457 339077.0912256758 180223.28051943955 339845.7482898532 180372.60921859925 340614.40535403066 180521.93791775894 341239.0611727438 181278.88590367354 341393.98224210466 182248.73449714977 Z"></path><path stroke="#666666" stroke-opacity="1" stroke-width="762" stroke-linecap="butt" stroke-linejoin="round" stroke-miterlimit="8" d="M 338015.49511434266 181592.60417497024 C 337862.97071476514 182006.4446222594 337815.5960574755 182474.49834127253 337879.73196518153 182933.9214636886 M 335193.9431434027 183751.2928462951 C 335227.5290640881 183948.39418845953 335281.080741434 184139.9848636079 335353.21712593344 184321.1239208585 M 334491.44992882776 189413.9962506545 C 334644.0701090799 189261.64766512602 334809.6714234656 189131.14938748957 334985.4322289142 189024.72494816955 M 335716.19552235806 195662.66868368717 C 335908.0277830114 195720.20537955908 336103.32729266735 195751.95621539894 336298.8358556747 195757.3914897475 M 338055.35006844596 200128.7847617729 C 338964.08614244557 200067.4361422573 339744.07028230367 199342.20517597412 340060.27634116093 198264.5999100756 M 342650.0791608148 202089.9446169008 C 342327.6947813285 201944.51363660835 342033.27681632736 201707.10358607752 341789.9092897653 201396.32874821496 M 345468.01165335084 200031.87784605974 C 345345.3994270044 200070.47895737595 345219.7032828576 200093.71135752962 345092.66544926196 200101.25303070643 M 346050.1505583947 195529.04065961027 C 345892.3531096569 195382.0276839412 345719.63430595305 195264.2336307678 345537.37207399163 195179.32624078222 M 345465.5785009664 191699.10860731272 C 345326.87744820747 191625.01450720467 345182.1529292048 191572.8895422019 345034.73876248597 191543.9344430117 M 344592.08371368056 187327.45269686263 C 344498.59230500605 187582.59047075393 344380.7266742794 187821.06996722025 344241.0760295576 188037.65239841555 M 341435.7585732416 182264.59894897832 C 341293.8687470113 182300.8646927404 341154.88379850006 182351.53302056977 341020.1045432711 182416.12970737874"></path></g><g><path fill="#000" fill-opacity="0" stroke="#000" stroke-opacity="0" stroke-width="3882.8025477707006" stroke-linecap="round" stroke-linejoin="round" stroke-miterlimit="10" pointer-events="visiblePainted" d="M 341435.7585732416 182264.59894897832 C 342465.24409723305 182001.47185092108 343544.8515725729 182518.1938450123 344216.46374596213 183595.50073934952 344888.07591935137 184672.80763368672 345033.90654713265 186121.76310850406 344592.07431765145 187327.5219377003 345230.9834548472 187692.71577644383 345708.68910186033 188414.97425380038 345880.69454289443 189275.82815428797 346052.69998392847 190136.68205477553 345898.8025063765 191035.0207167574 345465.5531196618 191699.1140756192 346043.07073369354 192007.62397555902 346466.402519413 192668.71063871135 346585.3283839275 193447.78619972145 346704.2542484421 194226.86176073155 346501.94325777586 195013.66787181972 346050.18585346016 195529.00488135772 346682.7664975068 196118.3525772541 347006.89938371175 197109.13745943483 346882.33037326083 198072.64128820712 346757.7613628099 199036.1451169794 346206.8641611878 199799.3140098386 345468.0151130268 200031.92045704034 345362.9035940021 200822.4885929781 344992.26509309467 201503.0530031116 344451.8607325926 201897.777632783 343911.4563720905 202292.50226245436 343254.2986077026 202362.66551080882 342650.1759662122 202090.139440815 341931.5615367223 202916.5041360807 340908.5525489501 203176.36527279468 339962.9177308392 202772.74730451396 339017.2829127284 202369.12933623325 338291.0931137887 201362.67126073255 338055.3494289281 200128.96530037269 337201.7991027058 200186.58833933756 336372.60214299534 199648.46491201984 335887.3673390843 198722.01133257538 335402.13253517327 197795.5577531309 335336.63091203634 196625.44282260232 335716.1096612147 195662.68003289166 334663.90696464735 195347.090432155 333825.7890221395 194293.50020439617 333563.85377090337 192957.0992802792 333301.91851966723 191620.6983561622 333663.12299877044 190241.06285271482 334491.41351915384 189414.24631391466 333981.80342899484 188519.45589617192 333769.0935133713 187414.73715164457 333901.2668420607 186349.2923633937 334033.4401707501 185283.84757514286 334499.3631040426 184347.42464102939 335193.9328189054 183751.261701302 335033.34812080127 182808.85908492608 335345.9042367413 181861.26671450672 335976.48069170694 181378.7712717852 336607.05714667257 180896.2758290637 337421.41929261206 180981.58905570162 338015.4021285132 181592.3703044791 338338.6134405338 180715.40954078457 339077.0912256758 180223.28051943955 339845.7482898532 180372.60921859925 340614.40535403066 180521.93791775894 341239.0611727438 181278.88590367354 341393.98224210466 182248.73449714977 Z"></path><path stroke="#000" stroke-opacity="0" stroke-width="3882.8025477707006" stroke-linecap="round" stroke-linejoin="round" stroke-miterlimit="10" pointer-events="visiblePainted" d="M 338015.49511434266 181592.60417497024 C 337862.97071476514 182006.4446222594 337815.5960574755 182474.49834127253 337879.73196518153 182933.9214636886 M 335193.9431434027 183751.2928462951 C 335227.5290640881 183948.39418845953 335281.080741434 184139.9848636079 335353.21712593344 184321.1239208585 M 334491.44992882776 189413.9962506545 C 334644.0701090799 189261.64766512602 334809.6714234656 189131.14938748957 334985.4322289142 189024.72494816955 M 335716.19552235806 195662.66868368717 C 335908.0277830114 195720.20537955908 336103.32729266735 195751.95621539894 336298.8358556747 195757.3914897475 M 338055.35006844596 200128.7847617729 C 338964.08614244557 200067.4361422573 339744.07028230367 199342.20517597412 340060.27634116093 198264.5999100756 M 342650.0791608148 202089.9446169008 C 342327.6947813285 201944.51363660835 342033.27681632736 201707.10358607752 341789.9092897653 201396.32874821496 M 345468.01165335084 200031.87784605974 C 345345.3994270044 200070.47895737595 345219.7032828576 200093.71135752962 345092.66544926196 200101.25303070643 M 346050.1505583947 195529.04065961027 C 345892.3531096569 195382.0276839412 345719.63430595305 195264.2336307678 345537.37207399163 195179.32624078222 M 345465.5785009664 191699.10860731272 C 345326.87744820747 191625.01450720467 345182.1529292048 191572.8895422019 345034.73876248597 191543.9344430117 M 344592.08371368056 187327.45269686263 C 344498.59230500605 187582.59047075393 344380.7266742794 187821.06996722025 344241.0760295576 188037.65239841555 M 341435.7585732416 182264.59894897832 C 341293.8687470113 182300.8646927404 341154.88379850006 182351.53302056977 341020.1045432711 182416.12970737874"></path></g><g></g></g></g></g><g id="editor-gb98267064_0_200"><g><g></g><g><path fill="#000000" fill-opacity="1" d="M 320127.71917127515 186757.07404405627 L 321245.91613913816 187441.47978002668 320205.9863101884 189141.12293133608 321497.71511409484 190659.47081973866 320499.5001823804 191508.43557234484 319486.258962933 190317.43273851633 318670.5306422219 191650.64486017075 317552.3336743589 190966.23912420034 318592.26350330864 189266.59597289094 317300.5346994022 187748.24808448835 318298.7496311167 186899.28333188218 319311.9908505641 188090.28616571068 Z"></path></g><g><path fill="#000" fill-opacity="0" stroke="#000" stroke-opacity="0" stroke-width="3882.8025477707006" stroke-linecap="round" stroke-linejoin="round" stroke-miterlimit="10" pointer-events="visiblePainted" d="M 320127.71917127515 186757.07404405627 L 321245.91613913816 187441.47978002668 320205.9863101884 189141.12293133608 321497.71511409484 190659.47081973866 320499.5001823804 191508.43557234484 319486.258962933 190317.43273851633 318670.5306422219 191650.64486017075 317552.3336743589 190966.23912420034 318592.26350330864 189266.59597289094 317300.5346994022 187748.24808448835 318298.7496311167 186899.28333188218 319311.9908505641 188090.28616571068 Z"></path></g><g></g></g></g><g id="editor-gb98267064_0_201"><g><g></g><g><path fill="#000000" fill-opacity="1" d="M 310091.53132116795 190149.68734291196 C 311715.2484432053 190388.27435074048 312795.1375934695 192180.0308154218 312503.531247139 194151.6874177456 312211.92490080843 196123.34402006937 310659.24844892736 197528.2745152493 309035.53132689 197289.68750742078 310085.56166593195 196582.89996103302 310825.7914665098 195340.29191994245 311033.531285584 193935.68742145598 311241.27110465814 192531.0829229695 310892.2738773209 191128.425194708 310091.53132116795 190149.68734291196 Z"></path></g><g><path fill="#000" fill-opacity="0" stroke="#000" stroke-opacity="0" stroke-width="3882.8025477707006" stroke-linecap="round" stroke-linejoin="round" stroke-miterlimit="10" pointer-events="visiblePainted" d="M 310091.53132116795 190149.68734291196 C 311715.2484432053 190388.27435074048 312795.1375934695 192180.0308154218 312503.531247139 194151.6874177456 312211.92490080843 196123.34402006937 310659.24844892736 197528.2745152493 309035.53132689 197289.68750742078 310085.56166593195 196582.89996103302 310825.7914665098 195340.29191994245 311033.531285584 193935.68742145598 311241.27110465814 192531.0829229695 310892.2738773209 191128.425194708 310091.53132116795 190149.68734291196 Z"></path></g><g></g></g></g><g id="editor-gb98267064_0_202"><g><g></g><g><path fill="#000000" fill-opacity="1" d="M 320724.62542127515 194425.54279405627 L 321842.82238913816 195109.94853002668 320802.8925601884 196809.59168133608 322094.62136409484 198327.93956973866 321096.4064323804 199176.90432234484 320083.165212933 197985.90148851633 319267.4368922219 199319.11361017075 318149.2399243589 198634.70787420034 319189.16975330864 196935.06472289094 317897.4409494022 195416.71683448835 318895.6558811167 194567.75208188218 319908.8971005641 195758.75491571068 Z"></path></g><g><path fill="#000" fill-opacity="0" stroke="#000" stroke-opacity="0" stroke-width="3882.8025477707006" stroke-linecap="round" stroke-linejoin="round" stroke-miterlimit="10" pointer-events="visiblePainted" d="M 320724.62542127515 194425.54279405627 L 321842.82238913816 195109.94853002668 320802.8925601884 196809.59168133608 322094.62136409484 198327.93956973866 321096.4064323804 199176.90432234484 320083.165212933 197985.90148851633 319267.4368922219 199319.11361017075 318149.2399243589 198634.70787420034 319189.16975330864 196935.06472289094 317897.4409494022 195416.71683448835 318895.6558811167 194567.75208188218 319908.8971005641 195758.75491571068 Z"></path></g><g></g></g></g><g id="editor-gb98267064_0_203"><g><g></g><g><path fill="#FFFFFF" fill-opacity="1" stroke="#666666" stroke-opacity="1" stroke-width="762" stroke-linecap="butt" stroke-linejoin="round" stroke-miterlimit="8" d="M 166921.3125 80934.22280216217 C 166921.3125 70953.33272263501 174002.37667635732 62862.22265625 182737.31200790405 62862.22265624999 186931.9758806943 62862.22265624999 190954.83724193787 64766.23149070667 193920.9125111861 68155.38894938338 196886.98778043434 71544.54640806011 198553.3115158081 76141.23035908361 198553.3115158081 80934.22280216217 198553.3115158081 90915.11288168933 191472.2473394508 99006.22294807434 182737.31200790405 99006.22294807434 174002.37667635732 99006.22294807434 166921.3125 90915.11288168933 166921.3125 80934.22280216217 Z"></path></g><g><path fill="#000" fill-opacity="0" stroke="#000" stroke-opacity="0" stroke-width="3882.8025477707006" stroke-linecap="round" stroke-linejoin="round" stroke-miterlimit="10" pointer-events="visiblePainted" d="M 166921.3125 80934.22280216217 C 166921.3125 70953.33272263501 174002.37667635732 62862.22265625 182737.31200790405 62862.22265624999 186931.9758806943 62862.22265624999 190954.83724193787 64766.23149070667 193920.9125111861 68155.38894938338 196886.98778043434 71544.54640806011 198553.3115158081 76141.23035908361 198553.3115158081 80934.22280216217 198553.3115158081 90915.11288168933 191472.2473394508 99006.22294807434 182737.31200790405 99006.22294807434 174002.37667635732 99006.22294807434 166921.3125 90915.11288168933 166921.3125 80934.22280216217 Z"></path></g><g></g></g></g><g id="editor-gb98267064_0_204"><g><g></g><g><path stroke="#666666" stroke-opacity="1" stroke-width="762" stroke-linecap="butt" stroke-linejoin="round" stroke-miterlimit="8" d="M 182735 99009.171875 L 182735 177777.17486190796"></path></g><g><path stroke="#000" stroke-opacity="0" stroke-width="3882.8025477707006" stroke-linecap="round" stroke-linejoin="round" stroke-miterlimit="10" pointer-events="visiblePainted" d="M 182735 99009.171875 L 182735 177777.17486190796"></path></g></g></g><g id="editor-gb98267064_0_205"><g><g></g><g><path stroke="#666666" stroke-opacity="1" stroke-width="762" stroke-linecap="butt" stroke-linejoin="round" stroke-miterlimit="8" d="M 182661.546875 177781.578125 L 199881.54690361023 251233.57874298096"></path></g><g><path stroke="#000" stroke-opacity="0" stroke-width="3882.8025477707006" stroke-linecap="round" stroke-linejoin="round" stroke-miterlimit="10" pointer-events="visiblePainted" d="M 182661.546875 177781.578125 L 199881.54690361023 251233.57874298096"></path></g></g></g><g id="editor-gb98267064_0_206"><g><g></g><g><path stroke="#666666" stroke-opacity="1" stroke-width="762" stroke-linecap="butt" stroke-linejoin="round" stroke-miterlimit="8" d="M 182908.59375 178347.21875 L 165592.59388446808 252207.2155456543"></path></g><g><path stroke="#000" stroke-opacity="0" stroke-width="3882.8025477707006" stroke-linecap="round" stroke-linejoin="round" stroke-miterlimit="10" pointer-events="visiblePainted" d="M 182908.59375 178347.21875 L 165592.59388446808 252207.2155456543"></path></g></g></g><g id="editor-gb98267064_0_207"><g><g></g><g><path stroke="#666666" stroke-opacity="1" stroke-width="762" stroke-linecap="butt" stroke-linejoin="round" stroke-miterlimit="8" d="M 182732.484375 104653.078125 L 244928.48399734497 72361.076877594"></path></g><g><path stroke="#000" stroke-opacity="0" stroke-width="3882.8025477707006" stroke-linecap="round" stroke-linejoin="round" stroke-miterlimit="10" pointer-events="visiblePainted" d="M 182732.484375 104653.078125 L 244928.48399734497 72361.076877594"></path></g></g></g><g id="editor-gb98267064_0_208"><g><g></g><g><path stroke="#666666" stroke-opacity="1" stroke-width="762" stroke-linecap="butt" stroke-linejoin="round" stroke-miterlimit="8" d="M 182979.53125 104935.4140625 L 123159.5325088501 65635.41577911377"></path></g><g><path stroke="#000" stroke-opacity="0" stroke-width="3882.8025477707006" stroke-linecap="round" stroke-linejoin="round" stroke-miterlimit="10" pointer-events="visiblePainted" d="M 182979.53125 104935.4140625 L 123159.5325088501 65635.41577911377"></path></g></g></g><g id="editor-gb98267064_0_213"><g></g><g id="editor-gb98267064_0_209"><g><g></g><g><path fill="#FFD966" fill-opacity="1" stroke="#FFFF00" stroke-opacity="1" stroke-width="762" stroke-linecap="butt" stroke-linejoin="round" stroke-miterlimit="8" d="M 166334.9003 74426.15009999998 L 166334.9003 66600.7281 C 166334.9003 67465.10034631807 173545.33495166563 68165.81249999999 182439.85685205078 68165.81249999999 191334.37875243596 68165.81249999999 198544.8134041016 67465.10034631807 198544.8134041016 66600.7281 L 198544.8134041016 74426.15009999998 C 198544.8134041016 75290.52234631807 191334.37875243596 75991.23449999999 182439.8568520508 75991.23449999999 173545.33495166563 75991.23449999999 166334.9003 75290.52234631807 166334.9003 74426.1501 Z"></path></g><g><path fill="#000" fill-opacity="0" stroke="#000" stroke-opacity="0" stroke-width="3882.8025477707006" stroke-linecap="round" stroke-linejoin="round" stroke-miterlimit="10" pointer-events="visiblePainted" d="M 166334.9003 74426.15009999998 L 166334.9003 66600.7281 C 166334.9003 67465.10034631807 173545.33495166563 68165.81249999999 182439.85685205078 68165.81249999999 191334.37875243596 68165.81249999999 198544.8134041016 67465.10034631807 198544.8134041016 66600.7281 L 198544.8134041016 74426.15009999998 C 198544.8134041016 75290.52234631807 191334.37875243596 75991.23449999999 182439.8568520508 75991.23449999999 173545.33495166563 75991.23449999999 166334.9003 75290.52234631807 166334.9003 74426.1501 Z"></path></g><g></g></g></g><g id="editor-gb98267064_0_210"><g><g></g><g><path fill="#FFD966" fill-opacity="1" stroke="#FFFF00" stroke-opacity="1" stroke-width="762" stroke-linecap="butt" stroke-linejoin="round" stroke-miterlimit="8" d="M 174704.34050000002 68031.8723178503 L 181256.67329759916 66624.84249759914 182663.70311785032 60072.5097 184070.7329381015 66624.84249759914 190623.06573570063 68031.8723178503 184070.7329381015 69438.90213810148 182663.70311785032 75991.2349357006 181256.67329759916 69438.90213810148 Z"></path></g><g><path fill="#000" fill-opacity="0" stroke="#000" stroke-opacity="0" stroke-width="3882.8025477707006" stroke-linecap="round" stroke-linejoin="round" stroke-miterlimit="10" pointer-events="visiblePainted" d="M 174704.34050000002 68031.8723178503 L 181256.67329759916 66624.84249759914 182663.70311785032 60072.5097 184070.7329381015 66624.84249759914 190623.06573570063 68031.8723178503 184070.7329381015 69438.90213810148 182663.70311785032 75991.2349357006 181256.67329759916 69438.90213810148 Z"></path></g><g></g></g></g><g id="editor-gb98267064_0_211"><g><g></g><g><path fill="#FFD966" fill-opacity="1" stroke="#FFFF00" stroke-opacity="1" stroke-width="762" stroke-linecap="butt" stroke-linejoin="round" stroke-miterlimit="8" d="M 190623.06530000002 68031.8722397654 L 194882.5344910563 67118.17860160438 195797.2011228326 62863.2405 196711.8677546089 67118.17860160438 200971.33694566519 68031.8722397654 196711.8677546089 68945.56587792643 195797.2011228326 73200.50397953081 194882.5344910563 68945.56587792643 Z"></path></g><g><path fill="#000" fill-opacity="0" stroke="#000" stroke-opacity="0" stroke-width="3882.8025477707006" stroke-linecap="round" stroke-linejoin="round" stroke-miterlimit="10" pointer-events="visiblePainted" d="M 190623.06530000002 68031.8722397654 L 194882.5344910563 67118.17860160438 195797.2011228326 62863.2405 196711.8677546089 67118.17860160438 200971.33694566519 68031.8722397654 196711.8677546089 68945.56587792643 195797.2011228326 73200.50397953081 194882.5344910563 68945.56587792643 Z"></path></g><g></g></g></g><g id="editor-gb98267064_0_212"><g><g></g><g><path fill="#FFD966" fill-opacity="1" stroke="#FFFF00" stroke-opacity="1" stroke-width="762" stroke-linecap="butt" stroke-linejoin="round" stroke-miterlimit="8" d="M 162731.3531 68031.8722397654 L 166990.8222910563 67118.17860160438 167905.4889228326 62863.2405 168820.15555460888 67118.17860160438 173079.62474566518 68031.8722397654 168820.15555460888 68945.56587792643 167905.4889228326 73200.50397953081 166990.8222910563 68945.56587792643 Z"></path></g><g><path fill="#000" fill-opacity="0" stroke="#000" stroke-opacity="0" stroke-width="3882.8025477707006" stroke-linecap="round" stroke-linejoin="round" stroke-miterlimit="10" pointer-events="visiblePainted" d="M 162731.3531 68031.8722397654 L 166990.8222910563 67118.17860160438 167905.4889228326 62863.2405 168820.15555460888 67118.17860160438 173079.62474566518 68031.8722397654 168820.15555460888 68945.56587792643 167905.4889228326 73200.50397953081 166990.8222910563 68945.56587792643 Z"></path></g><g></g></g></g></g><g id="editor-gb98267064_0_228"><g></g><g id="editor-gb98267064_0_216"><g><g></g><g><path stroke="#666666" stroke-opacity="1" stroke-width="762" stroke-linecap="butt" stroke-linejoin="round" stroke-miterlimit="8" d="M 43212 220305 L 88740.00178527832 224552.99993634224"></path></g><g><path stroke="#000" stroke-opacity="0" stroke-width="3882.8025477707006" stroke-linecap="round" stroke-linejoin="round" stroke-miterlimit="10" pointer-events="visiblePainted" d="M 43212 220305 L 88740.00178527832 224552.99993634224"></path></g></g></g><g id="editor-gb98267064_0_217"><g><g></g><g><path stroke="#666666" stroke-opacity="1" stroke-width="762" stroke-linecap="butt" stroke-linejoin="round" stroke-miterlimit="8" d="M 47070 212974 L 90282.00013160706 219141.99980401993"></path></g><g><path stroke="#000" stroke-opacity="0" stroke-width="3882.8025477707006" stroke-linecap="round" stroke-linejoin="round" stroke-miterlimit="10" pointer-events="visiblePainted" d="M 47070 212974 L 90282.00013160706 219141.99980401993"></path></g></g></g><g id="editor-gb98267064_0_218"><g><g></g><g><path stroke="#666666" stroke-opacity="1" stroke-width="762" stroke-linecap="butt" stroke-linejoin="round" stroke-miterlimit="8" d="M 89511 218762 L 70994.99949073792 195613.99975967407"></path></g><g><path stroke="#000" stroke-opacity="0" stroke-width="3882.8025477707006" stroke-linecap="round" stroke-linejoin="round" stroke-miterlimit="10" pointer-events="visiblePainted" d="M 89511 218762 L 70994.99949073792 195613.99975967407"></path></g></g></g><g id="editor-gb98267064_0_219"><g><g></g><g><path stroke="#666666" stroke-opacity="1" stroke-width="762" stroke-linecap="butt" stroke-linejoin="round" stroke-miterlimit="8" d="M 88739 225706 L 71759.00045776367 196378.0006465912"></path></g><g><path stroke="#000" stroke-opacity="0" stroke-width="3882.8025477707006" stroke-linecap="round" stroke-linejoin="round" stroke-miterlimit="10" pointer-events="visiblePainted" d="M 88739 225706 L 71759.00045776367 196378.0006465912"></path></g></g></g><g id="editor-gb98267064_0_221"><g><g></g><g><path stroke="#666666" stroke-opacity="1" stroke-width="762" stroke-linecap="butt" stroke-linejoin="round" stroke-miterlimit="8" d="M 71763 196384 L 95294.9995880127 152788.00052070618"></path></g><g><path stroke="#000" stroke-opacity="0" stroke-width="3882.8025477707006" stroke-linecap="round" stroke-linejoin="round" stroke-miterlimit="10" pointer-events="visiblePainted" d="M 71763 196384 L 95294.9995880127 152788.00052070618"></path></g></g></g><g id="editor-gb98267064_0_222"><g><g></g><g><path stroke="#666666" stroke-opacity="1" stroke-width="762" stroke-linecap="butt" stroke-linejoin="round" stroke-miterlimit="8" d="M 92212 159345 L 148155.9992904663 155480.99985837936"></path></g><g><path stroke="#000" stroke-opacity="0" stroke-width="3882.8025477707006" stroke-linecap="round" stroke-linejoin="round" stroke-miterlimit="10" pointer-events="visiblePainted" d="M 92212 159345 L 148155.9992904663 155480.99985837936"></path></g></g></g><g id="editor-gb98267064_0_223"><g><g></g><g><path stroke="#666666" stroke-opacity="1" stroke-width="762" stroke-linecap="butt" stroke-linejoin="round" stroke-miterlimit="8" d="M 91826 159731 L 141601.9985923767 141214.99949073792"></path></g><g><path stroke="#000" stroke-opacity="0" stroke-width="3882.8025477707006" stroke-linecap="round" stroke-linejoin="round" stroke-miterlimit="10" pointer-events="visiblePainted" d="M 91826 159731 L 141601.9985923767 141214.99949073792"></path></g></g></g><g id="editor-gb98267064_0_224"><g><g></g><g><path fill="#FFFFFF" fill-opacity="1" stroke="#666666" stroke-opacity="1" stroke-width="762" stroke-linecap="butt" stroke-linejoin="round" stroke-miterlimit="8" d="M 91607.00776708126 141872.8514137268 C 93190.96045468005 134993.5926519996 99355.99963444337 130539.72140383998 105377.00818014145 131924.85154891014 108268.39844987672 132590.01450182346 110739.20147885915 134540.25889983482 112245.86880373913 137346.55323648223 113752.53612861912 140152.84757312963 114171.64940726977 143585.31482856284 113411.00850236416 146888.8513865471 111827.05581476536 153768.11014827428 105662.01663500204 158221.9813964339 99641.00808930397 156836.85125136375 93619.9995436059 155451.72110629358 90023.05507948247 148752.110175454 91607.00776708126 141872.8514137268 Z"></path></g><g><path fill="#000" fill-opacity="0" stroke="#000" stroke-opacity="0" stroke-width="3882.8025477707006" stroke-linecap="round" stroke-linejoin="round" stroke-miterlimit="10" pointer-events="visiblePainted" d="M 91607.00776708126 141872.8514137268 C 93190.96045468005 134993.5926519996 99355.99963444337 130539.72140383998 105377.00818014145 131924.85154891014 108268.39844987672 132590.01450182346 110739.20147885915 134540.25889983482 112245.86880373913 137346.55323648223 113752.53612861912 140152.84757312963 114171.64940726977 143585.31482856284 113411.00850236416 146888.8513865471 111827.05581476536 153768.11014827428 105662.01663500204 158221.9813964339 99641.00808930397 156836.85125136375 93619.9995436059 155451.72110629358 90023.05507948247 148752.110175454 91607.00776708126 141872.8514137268 Z"></path></g><g></g></g></g><g id="editor-gb98267064_0_227"><g></g><g id="editor-gb98267064_0_225"><g><g></g><g><path fill="#FFFFFF" fill-opacity="1" stroke="#666666" stroke-opacity="1" stroke-width="762" stroke-linecap="butt" stroke-linejoin="round" stroke-miterlimit="8" d="M 117772.12555495604 120158.85490705566 L 113305.62611586913 139569.37373823242 C 113798.98202093622 137425.34703087996 110151.47465679314 134756.00488870993 105158.6903955322 133607.2311907959 100165.9061342713 132458.45749288186 95718.51080462764 133265.2694684776 95225.15489956054 135409.29617583007 L 99691.65433864745 115998.77734465332 C 100185.01024371455 113854.75063730085 104632.4055733582 113047.9386617051 109625.18983461913 114196.71235961914 114617.97409588005 115345.48605753317 118265.48146002313 118014.82819970319 117772.12555495604 120158.85490705566 Z"></path></g><g><path fill="#000" fill-opacity="0" stroke="#000" stroke-opacity="0" stroke-width="3882.8025477707006" stroke-linecap="round" stroke-linejoin="round" stroke-miterlimit="10" pointer-events="visiblePainted" d="M 117772.12555495604 120158.85490705566 L 113305.62611586913 139569.37373823242 C 113798.98202093622 137425.34703087996 110151.47465679314 134756.00488870993 105158.6903955322 133607.2311907959 100165.9061342713 132458.45749288186 95718.51080462764 133265.2694684776 95225.15489956054 135409.29617583007 L 99691.65433864745 115998.77734465332 C 100185.01024371455 113854.75063730085 104632.4055733582 113047.9386617051 109625.18983461913 114196.71235961914 114617.97409588005 115345.48605753317 118265.48146002313 118014.82819970319 117772.12555495604 120158.85490705566 Z"></path></g><g></g></g></g><g id="editor-gb98267064_0_226"><g><g></g><g><path fill="#FFFFFF" fill-opacity="1" stroke="#666666" stroke-opacity="1" stroke-width="762" stroke-linecap="butt" stroke-linejoin="round" stroke-miterlimit="8" d="M 98440.7109142218 113339.72574852547 C 98508.80980242693 112070.44205505124 99485.16496981452 111023.0635633718 100955.47292391653 110642.03158084433 102425.78087801854 110260.99959831683 104132.18141648156 110613.13889035427 105350.58588156212 111549.02377314866 105996.20346073578 110950.4472542148 106991.76238586083 110663.67419363279 108036.12534369422 110775.44789387798 109080.48830152761 110887.22159412316 110050.99077304277 111384.41379640624 110654.0745374331 112116.63347897817 111213.0041180616 111567.84455339248 112119.26338765012 111321.24250541574 113051.26451307413 111464.33454287922 113983.26563849815 111607.42658034271 114809.10754448216 112119.96166160074 115235.73865300542 112820.06573392563 116134.99644125477 112308.94012557766 117382.14833092647 112293.5715656386 118437.54462369974 112780.61011718691 119492.94091647299 113267.6486687352 120167.02302358943 114169.61786332524 120168.11179292538 115096.23051317646 121033.04058692277 115499.16361373238 121677.33973371559 116165.81120488564 121934.5429616262 116923.93289244267 122191.74618953679 117682.0545799997 122036.62243878041 118457.28032677922 121509.25072011724 119049.31661940737 122195.44699509852 120165.34534831636 122125.93775651228 121426.06746666654 121326.66261379753 122361.0039413645 120527.38747108278 123295.94041606245 119118.42840128057 123764.62770171602 117625.58382672384 123592.16005361911 117385.84599283445 124587.07003880464 116474.69080449466 125340.95732995952 115243.31733833897 125563.24077918677 114011.94387218324 125785.52422841404 112652.6351814988 125441.49353742696 111689.32831141123 124663.7531873883 110952.40550068702 125751.83805946498 109449.5739574571 126331.41671832754 107830.11246956454 126152.08975575143 106210.65098167198 125972.7627931753 104764.87983245662 125066.67808978303 104117.42560996805 123825.29773628726 102913.4754334551 124086.73699491883 101576.13403119914 123934.14343213713 100407.07866931456 123401.93908016893 99238.02330742999 122869.73472820071 98335.72953563003 122002.7498986194 97903.73664302178 120996.5588948224 96770.36150592535 120842.56175025731 95800.41940296348 120146.63998725305 95475.2891076707 119254.177071202 95150.15881237792 118361.71415515093 95539.0527896598 117462.69409908114 96448.96435875958 117003.2973200013 95563.47285762898 116320.49303545883 95265.96701362365 115301.41804892402 95711.58445308416 114477.47998703571 96157.20189254466 113653.5419251474 97244.96406086088 113211.4481902875 98407.64566072864 113381.73332161947 Z"></path><path stroke="#666666" stroke-opacity="1" stroke-width="762" stroke-linecap="butt" stroke-linejoin="round" stroke-miterlimit="8" d="M 96449.26464093984 117003.2748861552 C 96867.1307691288 117325.49230137408 97384.52724908295 117547.08997173003 97931.98513966339 117638.31478502593 M 97903.77589532356 120996.55825706407 C 98140.81870146148 121028.76640606092 98378.71687263458 121036.21228720671 98611.33522936334 121018.70387793571 M 104117.15315764397 123825.1666759036 C 103997.85373587173 123596.43087771504 103908.14625726007 123360.69822510729 103849.55922710116 123121.98531304684 M 111689.34608806377 124663.65111907308 C 111823.69811849421 124465.27700211438 111929.85277933955 124253.7161336594 112006.03908482028 124032.49799876843 M 117625.37794357844 123592.0947067986 C 117880.61587304187 122532.85945593534 117331.84593231443 121382.9771232549 116214.78096395166 120636.3560173668 M 121508.99364830567 119049.35738832297 C 121227.56667867507 119365.29200113841 120851.14213030154 119616.38394929808 120409.23380439433 119782.94621218852 M 120168.06190769024 115096.21921126742 C 120168.24258929575 115249.99086495205 120149.77369788343 115401.78202172891 120112.91122401253 115549.48875980594 M 115235.76686562269 112820.11882696846 C 115011.44671596463 112947.61927729195 114815.14336613123 113102.6095145625 114652.96909229277 113280.26362452707 M 110654.07737962205 112116.60255028793 C 110519.84057131052 112248.40390122824 110408.5287824363 112394.94375111353 110322.70614868726 112552.8464641501 M 105350.51019594906 111548.9882659476 C 105608.32377806239 111747.02089057605 105838.39481572279 111966.91331084137 106035.66923353307 112203.83504967613 M 98440.7109142218 113339.72574852547 C 98431.32511987237 113514.66598664143 98439.4218323369 113691.44529917573 98464.92527125432 113868.40913803916"></path></g><g><path fill="#000" fill-opacity="0" stroke="#000" stroke-opacity="0" stroke-width="3882.8025477707006" stroke-linecap="round" stroke-linejoin="round" stroke-miterlimit="10" pointer-events="visiblePainted" d="M 98440.7109142218 113339.72574852547 C 98508.80980242693 112070.44205505124 99485.16496981452 111023.0635633718 100955.47292391653 110642.03158084433 102425.78087801854 110260.99959831683 104132.18141648156 110613.13889035427 105350.58588156212 111549.02377314866 105996.20346073578 110950.4472542148 106991.76238586083 110663.67419363279 108036.12534369422 110775.44789387798 109080.48830152761 110887.22159412316 110050.99077304277 111384.41379640624 110654.0745374331 112116.63347897817 111213.0041180616 111567.84455339248 112119.26338765012 111321.24250541574 113051.26451307413 111464.33454287922 113983.26563849815 111607.42658034271 114809.10754448216 112119.96166160074 115235.73865300542 112820.06573392563 116134.99644125477 112308.94012557766 117382.14833092647 112293.5715656386 118437.54462369974 112780.61011718691 119492.94091647299 113267.6486687352 120167.02302358943 114169.61786332524 120168.11179292538 115096.23051317646 121033.04058692277 115499.16361373238 121677.33973371559 116165.81120488564 121934.5429616262 116923.93289244267 122191.74618953679 117682.0545799997 122036.62243878041 118457.28032677922 121509.25072011724 119049.31661940737 122195.44699509852 120165.34534831636 122125.93775651228 121426.06746666654 121326.66261379753 122361.0039413645 120527.38747108278 123295.94041606245 119118.42840128057 123764.62770171602 117625.58382672384 123592.16005361911 117385.84599283445 124587.07003880464 116474.69080449466 125340.95732995952 115243.31733833897 125563.24077918677 114011.94387218324 125785.52422841404 112652.6351814988 125441.49353742696 111689.32831141123 124663.7531873883 110952.40550068702 125751.83805946498 109449.5739574571 126331.41671832754 107830.11246956454 126152.08975575143 106210.65098167198 125972.7627931753 104764.87983245662 125066.67808978303 104117.42560996805 123825.29773628726 102913.4754334551 124086.73699491883 101576.13403119914 123934.14343213713 100407.07866931456 123401.93908016893 99238.02330742999 122869.73472820071 98335.72953563003 122002.7498986194 97903.73664302178 120996.5588948224 96770.36150592535 120842.56175025731 95800.41940296348 120146.63998725305 95475.2891076707 119254.177071202 95150.15881237792 118361.71415515093 95539.0527896598 117462.69409908114 96448.96435875958 117003.2973200013 95563.47285762898 116320.49303545883 95265.96701362365 115301.41804892402 95711.58445308416 114477.47998703571 96157.20189254466 113653.5419251474 97244.96406086088 113211.4481902875 98407.64566072864 113381.73332161947 Z"></path><path stroke="#000" stroke-opacity="0" stroke-width="3882.8025477707006" stroke-linecap="round" stroke-linejoin="round" stroke-miterlimit="10" pointer-events="visiblePainted" d="M 96449.26464093984 117003.2748861552 C 96867.1307691288 117325.49230137408 97384.52724908295 117547.08997173003 97931.98513966339 117638.31478502593 M 97903.77589532356 120996.55825706407 C 98140.81870146148 121028.76640606092 98378.71687263458 121036.21228720671 98611.33522936334 121018.70387793571 M 104117.15315764397 123825.1666759036 C 103997.85373587173 123596.43087771504 103908.14625726007 123360.69822510729 103849.55922710116 123121.98531304684 M 111689.34608806377 124663.65111907308 C 111823.69811849421 124465.27700211438 111929.85277933955 124253.7161336594 112006.03908482028 124032.49799876843 M 117625.37794357844 123592.0947067986 C 117880.61587304187 122532.85945593534 117331.84593231443 121382.9771232549 116214.78096395166 120636.3560173668 M 121508.99364830567 119049.35738832297 C 121227.56667867507 119365.29200113841 120851.14213030154 119616.38394929808 120409.23380439433 119782.94621218852 M 120168.06190769024 115096.21921126742 C 120168.24258929575 115249.99086495205 120149.77369788343 115401.78202172891 120112.91122401253 115549.48875980594 M 115235.76686562269 112820.11882696846 C 115011.44671596463 112947.61927729195 114815.14336613123 113102.6095145625 114652.96909229277 113280.26362452707 M 110654.07737962205 112116.60255028793 C 110519.84057131052 112248.40390122824 110408.5287824363 112394.94375111353 110322.70614868726 112552.8464641501 M 105350.51019594906 111548.9882659476 C 105608.32377806239 111747.02089057605 105838.39481572279 111966.91331084137 106035.66923353307 112203.83504967613 M 98440.7109142218 113339.72574852547 C 98431.32511987237 113514.66598664143 98439.4218323369 113691.44529917573 98464.92527125432 113868.40913803916"></path></g><g></g></g></g></g></g><g id="editor-gb98267064_0_233"><g><g></g><g><path d="M 18288 10985.51953125 L 347472.0076446533 10985.51953125 347472.0076446533 56717.51940536499 18288 56717.51940536499 Z"></path></g><g></g><g><path fill="#000" fill-opacity="0" stroke="#000" stroke-opacity="0" stroke-width="3882.8025477707006" stroke-linecap="round" stroke-linejoin="round" stroke-miterlimit="10" pointer-events="visiblePainted" d="M 18288 10985.51953125 L 347472.0076446533 10985.51953125 347472.0076446533 56717.51940536499 18288 56717.51940536499 Z"></path></g><g><g direction="ltr" style="opacity: 1;"><g transform="matrix(381,0,0,380.9999999999995,21945,30962.519405365016)"><g pointer-events="none"><g id="editor-gb98267064_0_233-paragraph-0"><g><g class="sketchy-text-background" visibility="visible"></g><g class="sketchy-text-content" visibility="visible"><g class="sketchy-text-content-text" transform="translate(0 46.08)"><text x="274.32345983550306px" style="font-family:Arial;font-size:48px;fill:#000000;font-weight:700;" y="0px" text-rendering="geometricPrecision">Master-Slave</text></g></g></g></g></g><rect style="opacity: 0;"></rect><rect style="opacity: 1;"></rect></g><g><path d="M 126462.23819732666 30962.519405365016 L 239297.76944732666 30962.519405365016 239297.76944732666 52908.11940536498 126462.23819732666 52908.11940536498 Z" pointer-events="visiblePainted" fill="#000000" stroke="#000000" opacity="0"></path></g><g transform="matrix(381,0,0,380.9999999999995,21945,30962.519405365016)"></g></g></g></g></g></g></g></svg>