<svg xmlns="http://www.w3.org/2000/svg" xmlns:xlink="http://www.w3.org/1999/xlink" version="1.1" fill-rule="evenodd" fill="none" stroke="none" stroke-linecap="square" stroke-miterlimit="10" overflow="hidden" viewBox="6858 13335 358140 268605"><rect fill="#ffffff" fill-opacity="0" width="100%" height="100%"></rect><g transform="translate(6858 13335) scale(0.98125)"><defs cursor="default"></defs><g id="editor-gbaf29e1b5_0_106"><g></g><path fill="#fff" fill-opacity="1" d="M 0 0 L 365760 0 365760 274320 0 274320 Z"></path><g id="editor-gbaf29e1b5_0_106-bg"><g><g></g><g><path fill="#000000" fill-opacity="1" d="M 0 0 L 365760 0 365760 274320 0 274320 Z"></path></g><g></g></g></g><g id="editor-gb9563dfae_0_1"></g><g id="editor-gb9563dfae_0_2"></g><g id="editor-gb9563dfae_0_3"></g><g id="editor-gb9563dfae_0_5"></g><g id="editor-gb9563dfae_0_6"></g><g id="editor-gb9563dfae_0_7"></g><g id="editor-gbaf29e1b5_0_120"><g><g></g><g><path stroke="#FFD966" stroke-opacity="1" stroke-width="762" stroke-linecap="butt" stroke-linejoin="round" stroke-miterlimit="8" d="M 334654.36967105867 91394.43193805218 L 320266.35932399076 116433.76075560649 C 332674.39572084474 152134.4493804549 315782.92743465543 192152.5767953286 281242.8947112694 208885.52116997604 246702.86198788334 225618.4655446235 205818.1293124726 213590.06137672102 186789.0620587264 181096.93604280683 167759.99480498023 148603.81070889268 176814.20715144376 106279.94039583899 207706.5293334433 83318.33992246568 238598.85151544283 60356.73944909236 281219.199782503 64272.017217548855 306170.0627695111 92363.59879858466 Z"></path></g><g><path fill="#000" fill-opacity="0" stroke="#000" stroke-opacity="0" stroke-width="3882.8025477707006" stroke-linecap="round" stroke-linejoin="round" stroke-miterlimit="10" pointer-events="visiblePainted" d="M 334654.36967105867 91394.43193805218 L 320266.35932399076 116433.76075560649 C 332674.39572084474 152134.4493804549 315782.92743465543 192152.5767953286 281242.8947112694 208885.52116997604 246702.86198788334 225618.4655446235 205818.1293124726 213590.06137672102 186789.0620587264 181096.93604280683 167759.99480498023 148603.81070889268 176814.20715144376 106279.94039583899 207706.5293334433 83318.33992246568 238598.85151544283 60356.73944909236 281219.199782503 64272.017217548855 306170.0627695111 92363.59879858466 Z"></path></g><g><g direction="ltr" style="opacity: 1;"><g transform="matrix(-288.5828256749084,-248.7588244173167,248.76334969501886,-288.57892487880684,284128.42061097,176835.79350106354)"><g pointer-events="none"><g id="editor-gbaf29e1b5_0_120-paragraph-0"><g><g class="sketchy-text-background" visibility="visible"></g><g class="sketchy-text-content" visibility="visible"><g class="sketchy-text-content-text" transform="translate(0 17.919999999999998)"><text x="0px" style="font-family:Arial;font-size:18.666666666666664px;fill:#000000;" y="0px" text-rendering="geometricPrecision">c</text></g></g></g></g></g><rect style="opacity: 0;"></rect><rect style="opacity: 1;"></rect></g><g><path d="M 284128.42061097 176835.79350106354 L 281435.94672243664 174514.8770095174 287008.24575560505 168050.7090922321 289700.7196441384 170371.62558377828 Z" pointer-events="visiblePainted" fill="#000000" stroke="#000000" opacity="0"></path></g><g transform="matrix(-288.5828256749084,-248.7588244173167,248.76334969501886,-288.57892487880684,284128.42061097,176835.79350106354)"></g></g></g></g></g><g id="editor-gbaf29e1b5_0_121"><g><g></g><g><path d="M 192010 107003 L 310833.99797439575 107003 310833.99797439575 181583.0018310547 192010 181583.0018310547 Z"></path></g><g><path fill="#000" fill-opacity="0" stroke="#000" stroke-opacity="0" stroke-width="3882.8025477707006" stroke-linecap="round" stroke-linejoin="round" stroke-miterlimit="10" pointer-events="visiblePainted" d="M 192010 107003 L 310833.99797439575 107003 310833.99797439575 181583.0018310547 192010 181583.0018310547 Z"></path></g><g><g direction="ltr" style="opacity: 1;"><g transform="matrix(381,0,0,381,195667,110660)"><g pointer-events="none"><g id="editor-gbaf29e1b5_0_121-paragraph-0"><g><g class="sketchy-text-background" visibility="visible"></g><g class="sketchy-text-content" visibility="visible"><g class="sketchy-text-content-text" transform="translate(0 122.88)"><text x="14.74483001889206px" style="font-family:Arial;font-size:128px;fill:#CCCCCC;" y="0px" text-rendering="geometricPrecision">Hey!</text></g></g></g></g></g><rect style="opacity: 0;"></rect><rect style="opacity: 1;"></rect></g><g><path d="M 201284.78023719788 110660 L 301559.2177371979 110660 301559.2177371979 169181.6 201284.78023719788 169181.6 Z" pointer-events="visiblePainted" fill="#000000" stroke="#000000" opacity="0"></path></g><g transform="matrix(381,0,0,381,195667,110660)"></g></g></g></g></g><g id="editor-gbaf29e1b5_0_131"><g><g></g><g><path stroke="#FFFFFF" stroke-opacity="1" stroke-width="762" stroke-linecap="butt" stroke-linejoin="round" stroke-miterlimit="8" d="M 91386.328125 161179.328125 L 101862.32843399048 242719.3261795044"></path></g><g><path stroke="#000" stroke-opacity="0" stroke-width="3882.8025477707006" stroke-linecap="round" stroke-linejoin="round" stroke-miterlimit="10" pointer-events="visiblePainted" d="M 91386.328125 161179.328125 L 101862.32843399048 242719.3261795044"></path></g></g></g><g id="editor-gbaf29e1b5_0_132"><g><g></g><g><path stroke="#FFFFFF" stroke-opacity="1" stroke-width="762" stroke-linecap="butt" stroke-linejoin="round" stroke-miterlimit="8" d="M 91689.265625 161873.078125 L 52053.26523017883 241901.0756187439"></path></g><g><path stroke="#000" stroke-opacity="0" stroke-width="3882.8025477707006" stroke-linecap="round" stroke-linejoin="round" stroke-miterlimit="10" pointer-events="visiblePainted" d="M 91689.265625 161873.078125 L 52053.26523017883 241901.0756187439"></path></g></g></g><g id="editor-gbaf29e1b5_0_133"><g><g></g><g><path stroke="#FFFFFF" stroke-opacity="1" stroke-width="762" stroke-linecap="butt" stroke-linejoin="round" stroke-miterlimit="8" d="M 83736.40625 75806.2109375 L 68340.4066991806 147614.21054840088"></path></g><g><path stroke="#000" stroke-opacity="0" stroke-width="3882.8025477707006" stroke-linecap="round" stroke-linejoin="round" stroke-miterlimit="10" pointer-events="visiblePainted" d="M 83736.40625 75806.2109375 L 68340.4066991806 147614.21054840088"></path></g></g></g><g id="editor-gbaf29e1b5_0_134"><g><g></g><g><path stroke="#FFFFFF" stroke-opacity="1" stroke-width="762" stroke-linecap="butt" stroke-linejoin="round" stroke-miterlimit="8" d="M 84039.328125 76152.5 L 74295.32769012451 147900.4968070984"></path></g><g><path stroke="#000" stroke-opacity="0" stroke-width="3882.8025477707006" stroke-linecap="round" stroke-linejoin="round" stroke-miterlimit="10" pointer-events="visiblePainted" d="M 84039.328125 76152.5 L 74295.32769012451 147900.4968070984"></path></g></g></g><g id="editor-gbaf29e1b5_0_135"><g><g></g><g><path stroke="#FFFFFF" stroke-opacity="1" stroke-width="762" stroke-linecap="butt" stroke-linejoin="round" stroke-miterlimit="8" d="M 42828.31989336014 68797.64454555511 C 37387.210769511716 57829.26940601506 40755.8208939646 45080.12988391471 50352.32119369506 40321.64441537857 54960.72315485444 38036.539108190045 60418.35251664319 37937.41261634451 65524.593115678435 40046.071636566834 70630.83371471368 42154.73065678916 74967.40890901389 46298.44482180495 77580.32165575027 51565.644313812256 83021.4307795987 62534.0194533523 79652.82065514581 75283.15897545266 70056.32035541534 80041.6444439888 60459.82005568489 84800.12991252495 48269.42901720856 79766.01968509518 42828.31989336014 68797.64454555511 Z"></path></g><g><path fill="#000" fill-opacity="0" stroke="#000" stroke-opacity="0" stroke-width="3882.8025477707006" stroke-linecap="round" stroke-linejoin="round" stroke-miterlimit="10" pointer-events="visiblePainted" d="M 42828.31989336014 68797.64454555511 C 37387.210769511716 57829.26940601506 40755.8208939646 45080.12988391471 50352.32119369506 40321.64441537857 54960.72315485444 38036.539108190045 60418.35251664319 37937.41261634451 65524.593115678435 40046.071636566834 70630.83371471368 42154.73065678916 74967.40890901389 46298.44482180495 77580.32165575027 51565.644313812256 83021.4307795987 62534.0194533523 79652.82065514581 75283.15897545266 70056.32035541534 80041.6444439888 60459.82005568489 84800.12991252495 48269.42901720856 79766.01968509518 42828.31989336014 68797.64454555511 Z"></path></g><g></g></g></g><g id="editor-gbaf29e1b5_0_136"><g><g></g><g><path fill="#FFFFFF" fill-opacity="1" stroke="#FFFFFF" stroke-opacity="1" stroke-width="762" stroke-linecap="butt" stroke-linejoin="round" stroke-miterlimit="8" d="M 45810.152330338955 63723.28901529312 C 45478.7814878472 63053.91992456984 45752.78320581984 62242.65991840281 46422.15229654312 61911.289075911045 46743.594669708604 61752.159185564145 47115.08570294121 61727.23932678524 47454.90160932098 61842.01158405749 47794.71751570075 61956.783841329736 48075.0223455783 62201.84666894973 48234.1522359252 62523.28904211521 48565.523078416954 63192.65813283849 48291.52136044431 64003.91813900553 47622.15226972103 64335.28898149729 46952.78317899775 64666.659823989045 46141.52317283072 64392.6581060164 45810.152330338955 63723.28901529312 Z"></path></g><g><path fill="#000" fill-opacity="0" stroke="#000" stroke-opacity="0" stroke-width="3882.8025477707006" stroke-linecap="round" stroke-linejoin="round" stroke-miterlimit="10" pointer-events="visiblePainted" d="M 45810.152330338955 63723.28901529312 C 45478.7814878472 63053.91992456984 45752.78320581984 62242.65991840281 46422.15229654312 61911.289075911045 46743.594669708604 61752.159185564145 47115.08570294121 61727.23932678524 47454.90160932098 61842.01158405749 47794.71751570075 61956.783841329736 48075.0223455783 62201.84666894973 48234.1522359252 62523.28904211521 48565.523078416954 63192.65813283849 48291.52136044431 64003.91813900553 47622.15226972103 64335.28898149729 46952.78317899775 64666.659823989045 46141.52317283072 64392.6581060164 45810.152330338955 63723.28901529312 Z"></path></g><g></g></g></g><g id="editor-gbaf29e1b5_0_137"><g><g></g><g><path fill="#FFFFFF" fill-opacity="1" stroke="#FFFFFF" stroke-opacity="1" stroke-width="762" stroke-linecap="butt" stroke-linejoin="round" stroke-miterlimit="8" d="M 54994.687486588955 62453.19135904312 C 54663.3166440972 61783.82226831984 54937.31836206984 60972.56226215281 55606.68745279312 60641.191419661045 55928.129825958604 60482.061529314145 56299.62085919121 60457.14167053524 56639.43676557098 60571.91392780749 56979.25267195075 60686.686185079736 57259.5575018283 60931.74901269973 57418.6873921752 61253.19138586521 57750.058234666954 61922.56047658849 57476.05651669431 62733.82048275553 56806.68742597103 63065.19132524729 56137.31833524775 63396.562167739045 55326.05832908072 63122.5604497664 54994.687486588955 62453.19135904312 Z"></path></g><g><path fill="#000" fill-opacity="0" stroke="#000" stroke-opacity="0" stroke-width="3882.8025477707006" stroke-linecap="round" stroke-linejoin="round" stroke-miterlimit="10" pointer-events="visiblePainted" d="M 54994.687486588955 62453.19135904312 C 54663.3166440972 61783.82226831984 54937.31836206984 60972.56226215281 55606.68745279312 60641.191419661045 55928.129825958604 60482.061529314145 56299.62085919121 60457.14167053524 56639.43676557098 60571.91392780749 56979.25267195075 60686.686185079736 57259.5575018283 60931.74901269973 57418.6873921752 61253.19138586521 57750.058234666954 61922.56047658849 57476.05651669431 62733.82048275553 56806.68742597103 63065.19132524729 56137.31833524775 63396.562167739045 55326.05832908072 63122.5604497664 54994.687486588955 62453.19135904312 Z"></path></g><g></g></g></g><g id="editor-gbaf29e1b5_0_138"><g><g></g><g><path stroke="#FFFFFF" stroke-opacity="1" stroke-width="762" stroke-linecap="butt" stroke-linejoin="round" stroke-miterlimit="8" d="M 79108 71635 C 83357.97084384963 75886.98887369002 87829.81919969256 80380.37254300382 90063 85962 94769.26339011507 97724.86709723897 92592 111216.58969626272 92592 123886 92592 136390.15778851177 95700.34608594734 149525.57612200134 91749 161389"></path></g><g><path stroke="#000" stroke-opacity="0" stroke-width="3882.8025477707006" stroke-linecap="round" stroke-linejoin="round" stroke-miterlimit="10" pointer-events="visiblePainted" d="M 79108 71635 C 83357.97084384963 75886.98887369002 87829.81919969256 80380.37254300382 90063 85962 94769.26339011507 97724.86709723897 92592 111216.58969626272 92592 123886 92592 136390.15778851177 95700.34608594734 149525.57612200134 91749 161389"></path></g></g></g><g id="editor-gbaf29e1b5_0_139"><g><g></g><g><path stroke="#FFFFFF" stroke-opacity="1" stroke-width="762" stroke-linecap="butt" stroke-linejoin="round" stroke-miterlimit="8" d="M 50875 75849.3828125 C 54645.45996806806 73963.03399761491 60534.83577924478 73289.21859174478 63516 76270.3828125"></path></g><g><path stroke="#000" stroke-opacity="0" stroke-width="3882.8025477707006" stroke-linecap="round" stroke-linejoin="round" stroke-miterlimit="10" pointer-events="visiblePainted" d="M 50875 75849.3828125 C 54645.45996806806 73963.03399761491 60534.83577924478 73289.21859174478 63516 76270.3828125"></path></g></g></g></g></g></svg>