<svg xmlns="http://www.w3.org/2000/svg" xmlns:xlink="http://www.w3.org/1999/xlink" version="1.1" fill-rule="evenodd" fill="none" stroke="none" stroke-linecap="square" stroke-miterlimit="10" overflow="hidden" viewBox="6858 13335 358140 268605"><rect fill="#ffffff" fill-opacity="0" width="100%" height="100%"></rect><g transform="translate(6858 13335) scale(0.98125)"><defs cursor="default"></defs><g id="editor-gbaf29e1b5_0_140"><g></g><path fill="#fff" fill-opacity="1" d="M 0 0 L 365760 0 365760 274320 0 274320 Z"></path><g id="editor-gbaf29e1b5_0_140-bg"><g><g></g><g><path fill="#000000" fill-opacity="1" d="M 0 0 L 365760 0 365760 274320 0 274320 Z"></path></g><g></g></g></g><g id="editor-gb9563dfae_0_1"></g><g id="editor-gb9563dfae_0_2"></g><g id="editor-gb9563dfae_0_3"></g><g id="editor-gb9563dfae_0_5"></g><g id="editor-gb9563dfae_0_6"></g><g id="editor-gb9563dfae_0_7"></g><g id="editor-gbaf29e1b5_0_144"><g><g></g><g><path stroke="#FFFFFF" stroke-opacity="1" stroke-width="762" stroke-linecap="butt" stroke-linejoin="round" stroke-miterlimit="8" d="M 71214 163496 L 72054.00002592802 242300.0018081665"></path></g><g><path stroke="#000" stroke-opacity="0" stroke-width="3882.8025477707006" stroke-linecap="round" stroke-linejoin="round" stroke-miterlimit="10" pointer-events="visiblePainted" d="M 71214 163496 L 72054.00002592802 242300.0018081665"></path></g></g></g><g id="editor-gbaf29e1b5_0_145"><g><g></g><g><path stroke="#FFFFFF" stroke-opacity="1" stroke-width="762" stroke-linecap="butt" stroke-linejoin="round" stroke-miterlimit="8" d="M 70371 163496 L 52058.99936771393 241904.00046920776"></path></g><g><path stroke="#000" stroke-opacity="0" stroke-width="3882.8025477707006" stroke-linecap="round" stroke-linejoin="round" stroke-miterlimit="10" pointer-events="visiblePainted" d="M 70371 163496 L 52058.99936771393 241904.00046920776"></path></g></g></g><g id="editor-gbaf29e1b5_0_146"><g><g></g><g><path stroke="#FFFFFF" stroke-opacity="1" stroke-width="762" stroke-linecap="butt" stroke-linejoin="round" stroke-miterlimit="8" d="M 71214 89333 L 68345.99995458126 147617.00135040283"></path></g><g><path stroke="#000" stroke-opacity="0" stroke-width="3882.8025477707006" stroke-linecap="round" stroke-linejoin="round" stroke-miterlimit="10" pointer-events="visiblePainted" d="M 71214 89333 L 68345.99995458126 147617.00135040283"></path></g></g></g><g id="editor-gbaf29e1b5_0_147"><g><g></g><g><path stroke="#FFFFFF" stroke-opacity="1" stroke-width="762" stroke-linecap="butt" stroke-linejoin="round" stroke-miterlimit="8" d="M 71635 89754 L 74298.99994492531 147906.00090408325"></path></g><g><path stroke="#000" stroke-opacity="0" stroke-width="3882.8025477707006" stroke-linecap="round" stroke-linejoin="round" stroke-miterlimit="10" pointer-events="visiblePainted" d="M 71635 89754 L 74298.99994492531 147906.00090408325"></path></g></g></g><g id="editor-gbaf29e1b5_0_148"><g><g></g><g><path stroke="#FFFFFF" stroke-opacity="1" stroke-width="762" stroke-linecap="butt" stroke-linejoin="round" stroke-miterlimit="8" d="M 42828.31989336014 68797.64454555511 C 37387.210769511716 57829.26940601506 40755.8208939646 45080.12988391471 50352.32119369506 40321.64441537857 54960.72315485444 38036.539108190045 60418.35251664319 37937.41261634451 65524.593115678435 40046.071636566834 70630.83371471368 42154.73065678916 74967.40890901389 46298.44482180495 77580.32165575027 51565.644313812256 83021.4307795987 62534.0194533523 79652.82065514581 75283.15897545266 70056.32035541534 80041.6444439888 60459.82005568489 84800.12991252495 48269.42901720856 79766.01968509518 42828.31989336014 68797.64454555511 Z"></path></g><g><path fill="#000" fill-opacity="0" stroke="#000" stroke-opacity="0" stroke-width="3882.8025477707006" stroke-linecap="round" stroke-linejoin="round" stroke-miterlimit="10" pointer-events="visiblePainted" d="M 42828.31989336014 68797.64454555511 C 37387.210769511716 57829.26940601506 40755.8208939646 45080.12988391471 50352.32119369506 40321.64441537857 54960.72315485444 38036.539108190045 60418.35251664319 37937.41261634451 65524.593115678435 40046.071636566834 70630.83371471368 42154.73065678916 74967.40890901389 46298.44482180495 77580.32165575027 51565.644313812256 83021.4307795987 62534.0194533523 79652.82065514581 75283.15897545266 70056.32035541534 80041.6444439888 60459.82005568489 84800.12991252495 48269.42901720856 79766.01968509518 42828.31989336014 68797.64454555511 Z"></path></g><g></g></g></g><g id="editor-gbaf29e1b5_0_149"><g><g></g><g><path fill="#FFFFFF" fill-opacity="1" stroke="#FFFFFF" stroke-opacity="1" stroke-width="762" stroke-linecap="butt" stroke-linejoin="round" stroke-miterlimit="8" d="M 58002.152330338955 57627.28901529312 C 57670.7814878472 56957.91992456984 57944.78320581984 56146.65991840281 58614.15229654312 55815.289075911045 58935.594669708604 55656.159185564145 59307.08570294121 55631.23932678524 59646.90160932098 55746.01158405749 59986.71751570075 55860.783841329736 60267.0223455783 56105.84666894973 60426.1522359252 56427.28904211521 60757.523078416954 57096.65813283849 60483.52136044431 57907.91813900553 59814.15226972103 58239.28898149729 59144.78317899775 58570.659823989045 58333.52317283072 58296.6581060164 58002.152330338955 57627.28901529312 Z"></path></g><g><path fill="#000" fill-opacity="0" stroke="#000" stroke-opacity="0" stroke-width="3882.8025477707006" stroke-linecap="round" stroke-linejoin="round" stroke-miterlimit="10" pointer-events="visiblePainted" d="M 58002.152330338955 57627.28901529312 C 57670.7814878472 56957.91992456984 57944.78320581984 56146.65991840281 58614.15229654312 55815.289075911045 58935.594669708604 55656.159185564145 59307.08570294121 55631.23932678524 59646.90160932098 55746.01158405749 59986.71751570075 55860.783841329736 60267.0223455783 56105.84666894973 60426.1522359252 56427.28904211521 60757.523078416954 57096.65813283849 60483.52136044431 57907.91813900553 59814.15226972103 58239.28898149729 59144.78317899775 58570.659823989045 58333.52317283072 58296.6581060164 58002.152330338955 57627.28901529312 Z"></path></g><g></g></g></g><g id="editor-gbaf29e1b5_0_150"><g><g></g><g><path fill="#FFFFFF" fill-opacity="1" stroke="#FFFFFF" stroke-opacity="1" stroke-width="762" stroke-linecap="butt" stroke-linejoin="round" stroke-miterlimit="8" d="M 67186.68748658895 56357.19135904312 C 66855.3166440972 55687.82226831984 67129.31836206984 54876.56226215281 67798.68745279312 54545.191419661045 68120.1298259586 54386.061529314145 68491.6208591912 54361.14167053524 68831.43676557098 54475.91392780749 69171.25267195076 54590.686185079736 69451.5575018283 54835.74901269973 69610.6873921752 55157.19138586521 69942.05823466695 55826.56047658849 69668.05651669431 56637.82048275553 68998.68742597103 56969.19132524729 68329.31833524775 57300.562167739045 67518.05832908071 57026.5604497664 67186.68748658895 56357.19135904312 Z"></path></g><g><path fill="#000" fill-opacity="0" stroke="#000" stroke-opacity="0" stroke-width="3882.8025477707006" stroke-linecap="round" stroke-linejoin="round" stroke-miterlimit="10" pointer-events="visiblePainted" d="M 67186.68748658895 56357.19135904312 C 66855.3166440972 55687.82226831984 67129.31836206984 54876.56226215281 67798.68745279312 54545.191419661045 68120.1298259586 54386.061529314145 68491.6208591912 54361.14167053524 68831.43676557098 54475.91392780749 69171.25267195076 54590.686185079736 69451.5575018283 54835.74901269973 69610.6873921752 55157.19138586521 69942.05823466695 55826.56047658849 69668.05651669431 56637.82048275553 68998.68742597103 56969.19132524729 68329.31833524775 57300.562167739045 67518.05832908071 57026.5604497664 67186.68748658895 56357.19135904312 Z"></path></g><g></g></g></g><g id="editor-gbaf29e1b5_0_156"><g><g></g><g><path stroke="#FFFFFF" stroke-opacity="1" stroke-width="762" stroke-linecap="butt" stroke-linejoin="round" stroke-miterlimit="8" d="M 74163 65736 C 71186.75504107011 68712.24495892989 62786 67004.9540141368 62786 71214"></path></g><g><path stroke="#000" stroke-opacity="0" stroke-width="3882.8025477707006" stroke-linecap="round" stroke-linejoin="round" stroke-miterlimit="10" pointer-events="visiblePainted" d="M 74163 65736 C 71186.75504107011 68712.24495892989 62786 67004.9540141368 62786 71214"></path></g></g></g><g id="editor-gbaf29e1b5_0_157"><g><g></g><g><path stroke="#FFFFFF" stroke-opacity="1" stroke-width="762" stroke-linecap="butt" stroke-linejoin="round" stroke-miterlimit="8" d="M 71113.49589067698 163492.13594341278 C 71113.49589067698 159360.04542596015 73207.90862397301 155581.43252963247 74081.66145336628 151572.78586435318 76249.47948709628 141627.16252613938 77048.90202628961 131139.8670612995 76307.56550037861 120923.3171467781 75319.08622138207 107300.8291937825 70371.234375 94153.61325823804 70371.234375 80484"></path></g><g><path stroke="#000" stroke-opacity="0" stroke-width="3882.8025477707006" stroke-linecap="round" stroke-linejoin="round" stroke-miterlimit="10" pointer-events="visiblePainted" d="M 71113.49589067698 163492.13594341278 C 71113.49589067698 159360.04542596015 73207.90862397301 155581.43252963247 74081.66145336628 151572.78586435318 76249.47948709628 141627.16252613938 77048.90202628961 131139.8670612995 76307.56550037861 120923.3171467781 75319.08622138207 107300.8291937825 70371.234375 94153.61325823804 70371.234375 80484"></path></g></g></g></g></g></svg>