<svg xmlns="http://www.w3.org/2000/svg" xmlns:xlink="http://www.w3.org/1999/xlink" version="1.1" fill-rule="evenodd" fill="none" stroke="none" stroke-linecap="square" stroke-miterlimit="10" overflow="hidden" viewBox="6858 13335 358140 268605"><rect fill="#ffffff" fill-opacity="0" width="100%" height="100%"></rect><g transform="translate(6858 13335) scale(0.98125)"><defs cursor="default"></defs><g id="editor-gbaf29e1b5_0_158"><g></g><path fill="#fff" fill-opacity="1" d="M 0 0 L 365760 0 365760 274320 0 274320 Z"></path><g id="editor-gbaf29e1b5_0_158-bg"><g><g></g><g><path fill="#000000" fill-opacity="1" d="M 0 0 L 365760 0 365760 274320 0 274320 Z"></path></g><g></g></g></g><g id="editor-gb9563dfae_0_1"></g><g id="editor-gb9563dfae_0_2"></g><g id="editor-gb9563dfae_0_3"></g><g id="editor-gb9563dfae_0_5"></g><g id="editor-gb9563dfae_0_6"></g><g id="editor-gb9563dfae_0_7"></g><g id="editor-gbaf29e1b5_0_159"><g><g></g><g><path stroke="#FFFFFF" stroke-opacity="1" stroke-width="762" stroke-linecap="butt" stroke-linejoin="round" stroke-miterlimit="8" d="M 71214 163496 L 84702.00033330917 242300.0018081665"></path></g><g><path stroke="#000" stroke-opacity="0" stroke-width="3882.8025477707006" stroke-linecap="round" stroke-linejoin="round" stroke-miterlimit="10" pointer-events="visiblePainted" d="M 71214 163496 L 84702.00033330917 242300.0018081665"></path></g></g></g><g id="editor-gbaf29e1b5_0_160"><g><g></g><g><path stroke="#FFFFFF" stroke-opacity="1" stroke-width="762" stroke-linecap="butt" stroke-linejoin="round" stroke-miterlimit="8" d="M 70371 163496 L 65318.999864816666 242300.0018081665"></path></g><g><path stroke="#000" stroke-opacity="0" stroke-width="3882.8025477707006" stroke-linecap="round" stroke-linejoin="round" stroke-miterlimit="10" pointer-events="visiblePainted" d="M 70371 163496 L 65318.999864816666 242300.0018081665"></path></g></g></g><g id="editor-gbaf29e1b5_0_161"><g><g></g><g><path stroke="#FFFFFF" stroke-opacity="1" stroke-width="762" stroke-linecap="butt" stroke-linejoin="round" stroke-miterlimit="8" d="M 69107 88069 L 60262.9996008873 149161.0023918152"></path></g><g><path stroke="#000" stroke-opacity="0" stroke-width="3882.8025477707006" stroke-linecap="round" stroke-linejoin="round" stroke-miterlimit="10" pointer-events="visiblePainted" d="M 69107 88069 L 60262.9996008873 149161.0023918152"></path></g></g></g><g id="editor-gbaf29e1b5_0_162"><g><g></g><g><path stroke="#FFFFFF" stroke-opacity="1" stroke-width="762" stroke-linecap="butt" stroke-linejoin="round" stroke-miterlimit="8" d="M 69528 88069 L 80064.00043058395 147480.99898719788"></path></g><g><path stroke="#000" stroke-opacity="0" stroke-width="3882.8025477707006" stroke-linecap="round" stroke-linejoin="round" stroke-miterlimit="10" pointer-events="visiblePainted" d="M 69528 88069 L 80064.00043058395 147480.99898719788"></path></g></g></g><g id="editor-gbaf29e1b5_0_163"><g><g></g><g><path stroke="#FFFFFF" stroke-opacity="1" stroke-width="762" stroke-linecap="butt" stroke-linejoin="round" stroke-miterlimit="8" d="M 47288.59765267372 54897.36749649048 C 44853.02190789505 42898.42885101593 51388.76908535302 31444.08173441427 61886.597553253174 29313.367147445675 66927.83256480677 28290.161919021648 72227.21538062743 29597.847259202776 76618.94227113717 32948.74731974757 81010.66916164692 36299.647380292365 84134.99272743617 41419.27387617853 85304.59744668007 47181.367416381836 87740.17319145874 59180.306061856376 81204.42601400075 70634.65317845804 70706.59754610062 72765.36776542664 60208.76907820047 74896.08235239523 49724.173397452396 66896.30614196503 47288.59765267372 54897.36749649048 Z"></path></g><g><path fill="#000" fill-opacity="0" stroke="#000" stroke-opacity="0" stroke-width="3882.8025477707006" stroke-linecap="round" stroke-linejoin="round" stroke-miterlimit="10" pointer-events="visiblePainted" d="M 47288.59765267372 54897.36749649048 C 44853.02190789505 42898.42885101593 51388.76908535302 31444.08173441427 61886.597553253174 29313.367147445675 66927.83256480677 28290.161919021648 72227.21538062743 29597.847259202776 76618.94227113717 32948.74731974757 81010.66916164692 36299.647380292365 84134.99272743617 41419.27387617853 85304.59744668007 47181.367416381836 87740.17319145874 59180.306061856376 81204.42601400075 70634.65317845804 70706.59754610062 72765.36776542664 60208.76907820047 74896.08235239523 49724.173397452396 66896.30614196503 47288.59765267372 54897.36749649048 Z"></path></g><g></g></g></g><g id="editor-gbaf29e1b5_0_164"><g><g></g><g><path fill="#FFFFFF" fill-opacity="1" stroke="#FFFFFF" stroke-opacity="1" stroke-width="762" stroke-linecap="butt" stroke-linejoin="round" stroke-miterlimit="8" d="M 64830.761707127094 48003.67185765505 C 64681.64483109194 47271.34228895877 65154.43213270877 46556.78876265806 65886.76170140505 46407.671886622906 66238.43876233211 46336.063437448815 66604.1583920985 46407.09105241956 66903.46644666904 46605.12946698759 67202.77450123958 46803.16788155562 67411.1532232631 47111.99481997379 67482.76167243719 47463.67188090086 67631.87854847235 48196.00144959714 67159.09124685552 48910.554975897845 66426.76167815924 49059.671851933 65694.43210946296 49208.78872796816 64979.87858316225 48736.00142635133 64830.761707127094 48003.67185765505 Z"></path></g><g><path fill="#000" fill-opacity="0" stroke="#000" stroke-opacity="0" stroke-width="3882.8025477707006" stroke-linecap="round" stroke-linejoin="round" stroke-miterlimit="10" pointer-events="visiblePainted" d="M 64830.761707127094 48003.67185765505 C 64681.64483109194 47271.34228895877 65154.43213270877 46556.78876265806 65886.76170140505 46407.671886622906 66238.43876233211 46336.063437448815 66604.1583920985 46407.09105241956 66903.46644666904 46605.12946698759 67202.77450123958 46803.16788155562 67411.1532232631 47111.99481997379 67482.76167243719 47463.67188090086 67631.87854847235 48196.00144959714 67159.09124685552 48910.554975897845 66426.76167815924 49059.671851933 65694.43210946296 49208.78872796816 64979.87858316225 48736.00142635133 64830.761707127094 48003.67185765505 Z"></path></g><g></g></g></g><g id="editor-gbaf29e1b5_0_165"><g><g></g><g><path fill="#FFFFFF" fill-opacity="1" stroke="#FFFFFF" stroke-opacity="1" stroke-width="762" stroke-linecap="butt" stroke-linejoin="round" stroke-miterlimit="8" d="M 74033.0937383771 49137.67185765505 C 73883.97686234194 48405.34228895877 74356.76416395877 47690.78876265806 75089.09373265505 47541.671886622906 75440.77079358211 47470.063437448815 75806.4904233485 47541.09105241956 76105.79847791904 47739.12946698759 76405.10653248958 47937.16788155562 76613.4852545131 48245.99481997379 76685.09370368719 48597.67188090086 76834.21057972235 49330.00144959714 76361.42327810552 50044.554975897845 75629.09370940924 50193.671851933 74896.76414071296 50342.78872796816 74182.21061441225 49870.00142635133 74033.0937383771 49137.67185765505 Z"></path></g><g><path fill="#000" fill-opacity="0" stroke="#000" stroke-opacity="0" stroke-width="3882.8025477707006" stroke-linecap="round" stroke-linejoin="round" stroke-miterlimit="10" pointer-events="visiblePainted" d="M 74033.0937383771 49137.67185765505 C 73883.97686234194 48405.34228895877 74356.76416395877 47690.78876265806 75089.09373265505 47541.671886622906 75440.77079358211 47470.063437448815 75806.4904233485 47541.09105241956 76105.79847791904 47739.12946698759 76405.10653248958 47937.16788155562 76613.4852545131 48245.99481997379 76685.09370368719 48597.67188090086 76834.21057972235 49330.00144959714 76361.42327810552 50044.554975897845 75629.09370940924 50193.671851933 74896.76414071296 50342.78872796816 74182.21061441225 49870.00142635133 74033.0937383771 49137.67185765505 Z"></path></g><g></g></g></g><g id="editor-gbaf29e1b5_0_166"><g><g></g><g><path stroke="#FFFFFF" stroke-opacity="1" stroke-width="762" stroke-linecap="butt" stroke-linejoin="round" stroke-miterlimit="8" d="M 78360.80615901947 59994.29607284069 C 74719.6680859151 62105.04907094367 67040.9628781339 58295.45980866428 65958.81721377373 62362.66098976135"></path></g><g><path stroke="#000" stroke-opacity="0" stroke-width="3882.8025477707006" stroke-linecap="round" stroke-linejoin="round" stroke-miterlimit="10" pointer-events="visiblePainted" d="M 78360.80615901947 59994.29607284069 C 74719.6680859151 62105.04907094367 67040.9628781339 58295.45980866428 65958.81721377373 62362.66098976135"></path></g></g></g><g id="editor-gbaf29e1b5_0_171"><g><g></g><g><path stroke="#FFD966" stroke-opacity="1" stroke-width="762" stroke-linecap="butt" stroke-linejoin="round" stroke-miterlimit="8" d="M 335790.7412866592 88571.2406454325 L 319864.04958215007 111527.0825633849 C 328376.06711563305 146199.98487300036 308709.88455394405 183248.4487389901 274430.309527068 197118.18655356945 240150.7345001919 210987.9243681488 202476.39189526538 197139.8079273448 187393.27103273355 165125.6165339225 172310.15017020173 133111.42514050013 184754.48129654292 93408.39499199734 216142.7501845733 73401.80864655995 247531.0190726037 53395.22230112253 287590.8342403603 59632.60513809376 308690.8196066529 87811.70388423756 Z"></path></g><g><path fill="#000" fill-opacity="0" stroke="#000" stroke-opacity="0" stroke-width="3882.8025477707006" stroke-linecap="round" stroke-linejoin="round" stroke-miterlimit="10" pointer-events="visiblePainted" d="M 335790.7412866592 88571.2406454325 L 319864.04958215007 111527.0825633849 C 328376.06711563305 146199.98487300036 308709.88455394405 183248.4487389901 274430.309527068 197118.18655356945 240150.7345001919 210987.9243681488 202476.39189526538 197139.8079273448 187393.27103273355 165125.6165339225 172310.15017020173 133111.42514050013 184754.48129654292 93408.39499199734 216142.7501845733 73401.80864655995 247531.0190726037 53395.22230112253 287590.8342403603 59632.60513809376 308690.8196066529 87811.70388423756 Z"></path></g><g></g></g></g><g id="editor-gbaf29e1b5_0_172"><g><g></g><g><path d="M 192010 94811 L 310833.99797439575 94811 310833.99797439575 169391.0018310547 192010 169391.0018310547 Z"></path></g><g><path fill="#000" fill-opacity="0" stroke="#000" stroke-opacity="0" stroke-width="3882.8025477707006" stroke-linecap="round" stroke-linejoin="round" stroke-miterlimit="10" pointer-events="visiblePainted" d="M 192010 94811 L 310833.99797439575 94811 310833.99797439575 169391.0018310547 192010 169391.0018310547 Z"></path></g><g><g direction="ltr" style="opacity: 1;"><g transform="matrix(381,0,0,381,195667,98468)"><g pointer-events="none"><g id="editor-gbaf29e1b5_0_172-paragraph-0"><g><g class="sketchy-text-background" visibility="visible"></g><g class="sketchy-text-content" visibility="visible"><g class="sketchy-text-content-text" transform="translate(0 46.08)"><text x="62.32686126889206px" style="font-family:Arial;font-size:48px;fill:#CCCCCC;" y="0px" text-rendering="geometricPrecision">Will</text><text x="152.95967376889206px" style="font-family:Arial;font-size:48px;fill:#CCCCCC;" y="0px" text-rendering="geometricPrecision">you</text></g></g></g></g><g id="editor-gbaf29e1b5_0_172-paragraph-1" transform="translate(0, 58)"><g><g class="sketchy-text-background" visibility="visible"></g><g class="sketchy-text-content" visibility="visible"><g class="sketchy-text-content-text" transform="translate(0 46.08)"><text x="80.98311126889206px" style="font-family:Arial;font-size:48px;fill:#CCCCCC;" y="0px" text-rendering="geometricPrecision">be</text><text x="147.70967376889206px" style="font-family:Arial;font-size:48px;fill:#CCCCCC;" y="0px" text-rendering="geometricPrecision">my</text></g></g></g></g><g id="editor-gbaf29e1b5_0_172-paragraph-2" transform="translate(0, 116)"><g><g class="sketchy-text-background" visibility="visible"></g><g class="sketchy-text-content" visibility="visible"><g class="sketchy-text-content-text" transform="translate(0 46.08)"><text x="72.95576751889206px" style="font-family:Arial;font-size:48px;fill:#CCCCCC;" y="0px" text-rendering="geometricPrecision">friend?</text></g></g></g></g></g><rect style="opacity: 0;"></rect><rect style="opacity: 1;"></rect></g><g><path d="M 219413.53414344788 98468 L 283430.4638309479 98468 283430.4638309479 164609.59999999998 219413.53414344788 164609.59999999998 Z" pointer-events="visiblePainted" fill="#000000" stroke="#000000" opacity="0"></path></g><g transform="matrix(381,0,0,381,195667,98468)"></g></g></g></g></g><g id="editor-gbaf29e1b5_0_174"><g><g></g><g><path stroke="#FFFFFF" stroke-opacity="1" stroke-width="762" stroke-linecap="butt" stroke-linejoin="round" stroke-miterlimit="8" d="M 70792.6171875 163918 C 70792.6171875 133716.05629139446 69527.6171875 103522.94370860554 69527.6171875 73321"></path></g><g><path stroke="#000" stroke-opacity="0" stroke-width="3882.8025477707006" stroke-linecap="round" stroke-linejoin="round" stroke-miterlimit="10" pointer-events="visiblePainted" d="M 70792.6171875 163918 C 70792.6171875 133716.05629139446 69527.6171875 103522.94370860554 69527.6171875 73321"></path></g></g></g></g></g></svg>