<svg xmlns="http://www.w3.org/2000/svg" xmlns:xlink="http://www.w3.org/1999/xlink" version="1.1" fill-rule="evenodd" fill="none" stroke="none" stroke-linecap="square" stroke-miterlimit="10" overflow="hidden" viewBox="6858 13335 358140 268605"><rect fill="#ffffff" fill-opacity="0" width="100%" height="100%"></rect><g transform="translate(6858 13335) scale(0.98125)"><defs cursor="default"></defs><g id="editor-gbaf29e1b5_0_175"><g></g><path fill="#fff" fill-opacity="1" d="M 0 0 L 365760 0 365760 274320 0 274320 Z"></path><g id="editor-gbaf29e1b5_0_175-bg"><g><g></g><g><path fill="#000000" fill-opacity="1" d="M 0 0 L 365760 0 365760 274320 0 274320 Z"></path></g><g></g></g></g><g id="editor-gb9563dfae_0_1"></g><g id="editor-gb9563dfae_0_2"></g><g id="editor-gb9563dfae_0_3"></g><g id="editor-gb9563dfae_0_5"></g><g id="editor-gb9563dfae_0_6"></g><g id="editor-gb9563dfae_0_7"></g><g id="editor-gbaf29e1b5_0_176"><g><g></g><g><path stroke="#FFFFFF" stroke-opacity="1" stroke-width="762" stroke-linecap="butt" stroke-linejoin="round" stroke-miterlimit="8" d="M 71214 163496 L 84702.00033330917 242300.0018081665"></path></g><g><path stroke="#000" stroke-opacity="0" stroke-width="3882.8025477707006" stroke-linecap="round" stroke-linejoin="round" stroke-miterlimit="10" pointer-events="visiblePainted" d="M 71214 163496 L 84702.00033330917 242300.0018081665"></path></g></g></g><g id="editor-gbaf29e1b5_0_177"><g><g></g><g><path stroke="#FFFFFF" stroke-opacity="1" stroke-width="762" stroke-linecap="butt" stroke-linejoin="round" stroke-miterlimit="8" d="M 70371 163496 L 65318.999864816666 242300.0018081665"></path></g><g><path stroke="#000" stroke-opacity="0" stroke-width="3882.8025477707006" stroke-linecap="round" stroke-linejoin="round" stroke-miterlimit="10" pointer-events="visiblePainted" d="M 70371 163496 L 65318.999864816666 242300.0018081665"></path></g></g></g><g id="editor-gbaf29e1b5_0_178"><g><g></g><g><path stroke="#FFFFFF" stroke-opacity="1" stroke-width="762" stroke-linecap="butt" stroke-linejoin="round" stroke-miterlimit="8" d="M 69107 88069 L 60262.9996008873 149161.0023918152"></path></g><g><path stroke="#000" stroke-opacity="0" stroke-width="3882.8025477707006" stroke-linecap="round" stroke-linejoin="round" stroke-miterlimit="10" pointer-events="visiblePainted" d="M 69107 88069 L 60262.9996008873 149161.0023918152"></path></g></g></g><g id="editor-gbaf29e1b5_0_179"><g><g></g><g><path stroke="#FFFFFF" stroke-opacity="1" stroke-width="762" stroke-linecap="butt" stroke-linejoin="round" stroke-miterlimit="8" d="M 69528 88069 L 80064.00043058395 147480.99898719788"></path></g><g><path stroke="#000" stroke-opacity="0" stroke-width="3882.8025477707006" stroke-linecap="round" stroke-linejoin="round" stroke-miterlimit="10" pointer-events="visiblePainted" d="M 69528 88069 L 80064.00043058395 147480.99898719788"></path></g></g></g><g id="editor-gbaf29e1b5_0_180"><g><g></g><g><path stroke="#FFFFFF" stroke-opacity="1" stroke-width="762" stroke-linecap="butt" stroke-linejoin="round" stroke-miterlimit="8" d="M 47288.59765267372 54897.36749649048 C 44853.02190789505 42898.42885101593 51388.76908535302 31444.08173441427 61886.597553253174 29313.367147445675 66927.83256480677 28290.161919021648 72227.21538062743 29597.847259202776 76618.94227113717 32948.74731974757 81010.66916164692 36299.647380292365 84134.99272743617 41419.27387617853 85304.59744668007 47181.367416381836 87740.17319145874 59180.306061856376 81204.42601400075 70634.65317845804 70706.59754610062 72765.36776542664 60208.76907820047 74896.08235239523 49724.173397452396 66896.30614196503 47288.59765267372 54897.36749649048 Z"></path></g><g><path fill="#000" fill-opacity="0" stroke="#000" stroke-opacity="0" stroke-width="3882.8025477707006" stroke-linecap="round" stroke-linejoin="round" stroke-miterlimit="10" pointer-events="visiblePainted" d="M 47288.59765267372 54897.36749649048 C 44853.02190789505 42898.42885101593 51388.76908535302 31444.08173441427 61886.597553253174 29313.367147445675 66927.83256480677 28290.161919021648 72227.21538062743 29597.847259202776 76618.94227113717 32948.74731974757 81010.66916164692 36299.647380292365 84134.99272743617 41419.27387617853 85304.59744668007 47181.367416381836 87740.17319145874 59180.306061856376 81204.42601400075 70634.65317845804 70706.59754610062 72765.36776542664 60208.76907820047 74896.08235239523 49724.173397452396 66896.30614196503 47288.59765267372 54897.36749649048 Z"></path></g><g></g></g></g><g id="editor-gbaf29e1b5_0_181"><g><g></g><g><path fill="#FFFFFF" fill-opacity="1" stroke="#FFFFFF" stroke-opacity="1" stroke-width="762" stroke-linecap="butt" stroke-linejoin="round" stroke-miterlimit="8" d="M 64830.761707127094 48003.67185765505 C 64681.64483109194 47271.34228895877 65154.43213270877 46556.78876265806 65886.76170140505 46407.671886622906 66238.43876233211 46336.063437448815 66604.1583920985 46407.09105241956 66903.46644666904 46605.12946698759 67202.77450123958 46803.16788155562 67411.1532232631 47111.99481997379 67482.76167243719 47463.67188090086 67631.87854847235 48196.00144959714 67159.09124685552 48910.554975897845 66426.76167815924 49059.671851933 65694.43210946296 49208.78872796816 64979.87858316225 48736.00142635133 64830.761707127094 48003.67185765505 Z"></path></g><g><path fill="#000" fill-opacity="0" stroke="#000" stroke-opacity="0" stroke-width="3882.8025477707006" stroke-linecap="round" stroke-linejoin="round" stroke-miterlimit="10" pointer-events="visiblePainted" d="M 64830.761707127094 48003.67185765505 C 64681.64483109194 47271.34228895877 65154.43213270877 46556.78876265806 65886.76170140505 46407.671886622906 66238.43876233211 46336.063437448815 66604.1583920985 46407.09105241956 66903.46644666904 46605.12946698759 67202.77450123958 46803.16788155562 67411.1532232631 47111.99481997379 67482.76167243719 47463.67188090086 67631.87854847235 48196.00144959714 67159.09124685552 48910.554975897845 66426.76167815924 49059.671851933 65694.43210946296 49208.78872796816 64979.87858316225 48736.00142635133 64830.761707127094 48003.67185765505 Z"></path></g><g></g></g></g><g id="editor-gbaf29e1b5_0_182"><g><g></g><g><path fill="#FFFFFF" fill-opacity="1" stroke="#FFFFFF" stroke-opacity="1" stroke-width="762" stroke-linecap="butt" stroke-linejoin="round" stroke-miterlimit="8" d="M 74033.0937383771 48294.90623265505 C 73883.97686234194 47562.57666395877 74356.76416395877 46848.02313765806 75089.09373265505 46698.906261622906 75440.77079358211 46627.297812448815 75806.4904233485 46698.32542741956 76105.79847791904 46896.36384198759 76405.10653248958 47094.40225655562 76613.4852545131 47403.22919497379 76685.09370368719 47754.90625590086 76834.21057972235 48487.23582459714 76361.42327810552 49201.789350897845 75629.09370940924 49350.906226933 74896.76414071296 49500.02310296816 74182.21061441225 49027.23580135133 74033.0937383771 48294.90623265505 Z"></path></g><g><path fill="#000" fill-opacity="0" stroke="#000" stroke-opacity="0" stroke-width="3882.8025477707006" stroke-linecap="round" stroke-linejoin="round" stroke-miterlimit="10" pointer-events="visiblePainted" d="M 74033.0937383771 48294.90623265505 C 73883.97686234194 47562.57666395877 74356.76416395877 46848.02313765806 75089.09373265505 46698.906261622906 75440.77079358211 46627.297812448815 75806.4904233485 46698.32542741956 76105.79847791904 46896.36384198759 76405.10653248958 47094.40225655562 76613.4852545131 47403.22919497379 76685.09370368719 47754.90625590086 76834.21057972235 48487.23582459714 76361.42327810552 49201.789350897845 75629.09370940924 49350.906226933 74896.76414071296 49500.02310296816 74182.21061441225 49027.23580135133 74033.0937383771 48294.90623265505 Z"></path></g><g></g></g></g><g id="editor-gbaf29e1b5_0_186"><g><g></g><g><path stroke="#FFFFFF" stroke-opacity="1" stroke-width="762" stroke-linecap="butt" stroke-linejoin="round" stroke-miterlimit="8" d="M 70792.6171875 163918 C 70792.6171875 133716.05629139446 69527.6171875 103522.94370860554 69527.6171875 73321"></path></g><g><path stroke="#000" stroke-opacity="0" stroke-width="3882.8025477707006" stroke-linecap="round" stroke-linejoin="round" stroke-miterlimit="10" pointer-events="visiblePainted" d="M 70792.6171875 163918 C 70792.6171875 133716.05629139446 69527.6171875 103522.94370860554 69527.6171875 73321"></path></g></g></g><g id="editor-gbaf29e1b5_0_189"><g><g></g><g><path fill="#FFFFFF" fill-opacity="1" stroke="#FFFFFF" stroke-opacity="1" stroke-width="762" stroke-linecap="butt" stroke-linejoin="round" stroke-miterlimit="8" d="M 65734 62867.76554989815 C 65734 61426.30239431738 68092.56403428088 60257.765625 71002.00021529198 60257.765625 73911.43639630308 60257.765625 76270.00043058395 61426.30239431738 76270.00043058395 62867.76554989815 76270.00043058395 64309.22870547891 73911.43639630308 65477.765474796295 71002.00021529198 65477.765474796295 68092.56403428088 65477.765474796295 65734 64309.22870547891 65734 62867.76554989815 Z"></path></g><g><path fill="#000" fill-opacity="0" stroke="#000" stroke-opacity="0" stroke-width="3882.8025477707006" stroke-linecap="round" stroke-linejoin="round" stroke-miterlimit="10" pointer-events="visiblePainted" d="M 65734 62867.76554989815 C 65734 61426.30239431738 68092.56403428088 60257.765625 71002.00021529198 60257.765625 73911.43639630308 60257.765625 76270.00043058395 61426.30239431738 76270.00043058395 62867.76554989815 76270.00043058395 64309.22870547891 73911.43639630308 65477.765474796295 71002.00021529198 65477.765474796295 68092.56403428088 65477.765474796295 65734 64309.22870547891 65734 62867.76554989815 Z"></path></g><g></g></g></g></g></g></svg>