<svg xmlns="http://www.w3.org/2000/svg" xmlns:xlink="http://www.w3.org/1999/xlink" version="1.1" fill-rule="evenodd" fill="none" stroke="none" stroke-linecap="square" stroke-miterlimit="10" overflow="hidden" viewBox="6858 13335 358140 268605"><rect fill="#ffffff" fill-opacity="0" width="100%" height="100%"></rect><g transform="translate(6858 13335) scale(0.98125)"><defs cursor="default"></defs><g id="editor-gbaf29e1b5_0_190"><g></g><path fill="#fff" fill-opacity="1" d="M 0 0 L 365760 0 365760 274320 0 274320 Z"></path><g id="editor-gbaf29e1b5_0_190-bg"><g><g></g><g><path fill="#000000" fill-opacity="1" d="M 0 0 L 365760 0 365760 274320 0 274320 Z"></path></g><g></g></g></g><g id="editor-gb9563dfae_0_1"></g><g id="editor-gb9563dfae_0_2"></g><g id="editor-gb9563dfae_0_3"></g><g id="editor-gb9563dfae_0_5"></g><g id="editor-gb9563dfae_0_6"></g><g id="editor-gb9563dfae_0_7"></g><g id="editor-gbaf29e1b5_0_212"><g></g><g id="editor-gbaf29e1b5_0_202"><g><g></g><g><path stroke="#FFFFFF" stroke-opacity="1" stroke-width="762" stroke-linecap="butt" stroke-linejoin="round" stroke-miterlimit="8" d="M 72675.094375 72167.9140625 L 72675.094375 159647.91074371338"></path></g><g><path stroke="#000" stroke-opacity="0" stroke-width="3882.8025477707006" stroke-linecap="round" stroke-linejoin="round" stroke-miterlimit="10" pointer-events="visiblePainted" d="M 72675.094375 72167.9140625 L 72675.094375 159647.91074371338"></path></g></g></g><g id="editor-gbaf29e1b5_0_203"><g><g></g><g><path stroke="#FFFFFF" stroke-opacity="1" stroke-width="762" stroke-linecap="butt" stroke-linejoin="round" stroke-miterlimit="8" d="M 72593.5475 159648.46875 L 91709.5474370575 241212.47078704834"></path></g><g><path stroke="#000" stroke-opacity="0" stroke-width="3882.8025477707006" stroke-linecap="round" stroke-linejoin="round" stroke-miterlimit="10" pointer-events="visiblePainted" d="M 72593.5475 159648.46875 L 91709.5474370575 241212.47078704834"></path></g></g></g><g id="editor-gbaf29e1b5_0_204"><g><g></g><g><path stroke="#FFFFFF" stroke-opacity="1" stroke-width="762" stroke-linecap="butt" stroke-linejoin="round" stroke-miterlimit="8" d="M 72867.844375 160276.625 L 53643.844397888184 242296.6240272522"></path></g><g><path stroke="#000" stroke-opacity="0" stroke-width="3882.8025477707006" stroke-linecap="round" stroke-linejoin="round" stroke-miterlimit="10" pointer-events="visiblePainted" d="M 72867.844375 160276.625 L 53643.844397888184 242296.6240272522"></path></g></g></g><g id="editor-gbaf29e1b5_0_205"><g><g></g><g><path stroke="#FFFFFF" stroke-opacity="1" stroke-width="762" stroke-linecap="butt" stroke-linejoin="round" stroke-miterlimit="8" d="M 72672.3209375 78435.7421875 L 146580.3185456848 41583.74242782593"></path></g><g><path stroke="#000" stroke-opacity="0" stroke-width="3882.8025477707006" stroke-linecap="round" stroke-linejoin="round" stroke-miterlimit="10" pointer-events="visiblePainted" d="M 72672.3209375 78435.7421875 L 146580.3185456848 41583.74242782593"></path></g></g></g><g id="editor-gbaf29e1b5_0_206"><g><g></g><g><path stroke="#FFFFFF" stroke-opacity="1" stroke-width="762" stroke-linecap="butt" stroke-linejoin="round" stroke-miterlimit="8" d="M 72946.61 78749.296875 L 11518.609073028565 38537.297458648674"></path></g><g><path stroke="#000" stroke-opacity="0" stroke-width="3882.8025477707006" stroke-linecap="round" stroke-linejoin="round" stroke-miterlimit="10" pointer-events="visiblePainted" d="M 72946.61 78749.296875 L 11518.609073028565 38537.297458648674"></path></g></g></g><g id="editor-gbaf29e1b5_0_207"><g><g></g><g><path stroke="#FFFFFF" stroke-opacity="1" stroke-width="762" stroke-linecap="butt" stroke-linejoin="round" stroke-miterlimit="8" d="M 55117.06703125 52100.99228191376 C 55117.06703125 41013.32359216747 62977.15612077419 32024.9921875 72673.06738315582 32024.992187499996 77329.20817211008 32024.992187499996 81794.645556473 34140.136124623255 85087.03428250185 37905.11647605201 88379.42300853069 41670.09682748077 90229.06773506165 46776.50600685498 90229.06773506165 52100.99228191376 90229.06773506165 63188.660971660036 82368.97864553746 72176.99237632751 72673.06738315582 72176.99237632751 62977.1561207742 72176.99237632751 55117.06703125 63188.660971660036 55117.06703125 52100.99228191376 Z"></path></g><g><path fill="#000" fill-opacity="0" stroke="#000" stroke-opacity="0" stroke-width="3882.8025477707006" stroke-linecap="round" stroke-linejoin="round" stroke-miterlimit="10" pointer-events="visiblePainted" d="M 55117.06703125 52100.99228191376 C 55117.06703125 41013.32359216747 62977.15612077419 32024.9921875 72673.06738315582 32024.992187499996 77329.20817211008 32024.992187499996 81794.645556473 34140.136124623255 85087.03428250185 37905.11647605201 88379.42300853069 41670.09682748077 90229.06773506165 46776.50600685498 90229.06773506165 52100.99228191376 90229.06773506165 63188.660971660036 82368.97864553746 72176.99237632751 72673.06738315582 72176.99237632751 62977.1561207742 72176.99237632751 55117.06703125 63188.660971660036 55117.06703125 52100.99228191376 Z"></path></g><g></g></g></g><g id="editor-gbaf29e1b5_0_208"><g><g></g><g><path fill="#FFFFFF" fill-opacity="1" stroke="#FFFFFF" stroke-opacity="1" stroke-width="762" stroke-linecap="butt" stroke-linejoin="round" stroke-miterlimit="8" d="M 78889.02399812698 59085.55457019806 C 78889.02399812698 63698.23686556892 76229.5954265323 67437.5546875 72949.02403031349 67437.5546875 69668.4526340947 67437.5546875 67009.0240625 63698.23686556892 67009.0240625 59085.55457019806 68411.26784125055 61714.40760455736 70611.95106572924 63261.55462884903 72949.02403031349 63261.55462884903 75286.09699489773 63261.55462884904 77486.78021937644 61714.40760455737 78889.02399812698 59085.55457019807 Z"></path></g><g><path fill="#000" fill-opacity="0" stroke="#000" stroke-opacity="0" stroke-width="3882.8025477707006" stroke-linecap="round" stroke-linejoin="round" stroke-miterlimit="10" pointer-events="visiblePainted" d="M 78889.02399812698 59085.55457019806 C 78889.02399812698 63698.23686556892 76229.5954265323 67437.5546875 72949.02403031349 67437.5546875 69668.4526340947 67437.5546875 67009.0240625 63698.23686556892 67009.0240625 59085.55457019806 68411.26784125055 61714.40760455736 70611.95106572924 63261.55462884903 72949.02403031349 63261.55462884903 75286.09699489773 63261.55462884904 77486.78021937644 61714.40760455737 78889.02399812698 59085.55457019807 Z"></path></g><g></g></g></g><g id="editor-gbaf29e1b5_0_209"><g><g></g><g><path fill="#FFFFFF" fill-opacity="1" stroke="#FFFFFF" stroke-opacity="1" stroke-width="762" stroke-linecap="butt" stroke-linejoin="round" stroke-miterlimit="8" d="M 62032.63734375 44235.99613791704 C 62032.63734375 43559.99957973137 62580.64082973137 43011.99609375 63256.63738791704 43011.99609375 63581.26238319447 43011.99609375 63892.59158381687 43140.95287101057 64122.13611932019 43370.497406513896 64351.68065482351 43600.04194201721 64480.637432084084 43911.37114263961 64480.637432084084 44235.99613791704 64480.637432084084 44911.992696102716 63932.63394610272 45459.99618208408 63256.63738791704 45459.99618208408 62580.64082973137 45459.99618208408 62032.63734375 44911.992696102716 62032.63734375 44235.99613791704 Z"></path></g><g><path fill="#000" fill-opacity="0" stroke="#000" stroke-opacity="0" stroke-width="3882.8025477707006" stroke-linecap="round" stroke-linejoin="round" stroke-miterlimit="10" pointer-events="visiblePainted" d="M 62032.63734375 44235.99613791704 C 62032.63734375 43559.99957973137 62580.64082973137 43011.99609375 63256.63738791704 43011.99609375 63581.26238319447 43011.99609375 63892.59158381687 43140.95287101057 64122.13611932019 43370.497406513896 64351.68065482351 43600.04194201721 64480.637432084084 43911.37114263961 64480.637432084084 44235.99613791704 64480.637432084084 44911.992696102716 63932.63394610272 45459.99618208408 63256.63738791704 45459.99618208408 62580.64082973137 45459.99618208408 62032.63734375 44911.992696102716 62032.63734375 44235.99613791704 Z"></path></g><g></g></g></g><g id="editor-gbaf29e1b5_0_210"><g><g></g><g><path fill="#FFFFFF" fill-opacity="1" stroke="#FFFFFF" stroke-opacity="1" stroke-width="762" stroke-linecap="butt" stroke-linejoin="round" stroke-miterlimit="8" d="M 80928.594375 44235.99613791704 C 80928.594375 43559.99957973137 81476.59786098136 43011.99609375 82152.59441916704 43011.99609375 82477.21941444447 43011.99609375 82788.54861506687 43140.95287101057 83018.09315057019 43370.497406513896 83247.63768607352 43600.04194201721 83376.59446333408 43911.37114263961 83376.59446333408 44235.99613791704 83376.59446333408 44911.992696102716 82828.59097735272 45459.99618208408 82152.59441916704 45459.99618208408 81476.59786098136 45459.99618208408 80928.594375 44911.992696102716 80928.594375 44235.99613791704 Z"></path></g><g><path fill="#000" fill-opacity="0" stroke="#000" stroke-opacity="0" stroke-width="3882.8025477707006" stroke-linecap="round" stroke-linejoin="round" stroke-miterlimit="10" pointer-events="visiblePainted" d="M 80928.594375 44235.99613791704 C 80928.594375 43559.99957973137 81476.59786098136 43011.99609375 82152.59441916704 43011.99609375 82477.21941444447 43011.99609375 82788.54861506687 43140.95287101057 83018.09315057019 43370.497406513896 83247.63768607352 43600.04194201721 83376.59446333408 43911.37114263961 83376.59446333408 44235.99613791704 83376.59446333408 44911.992696102716 82828.59097735272 45459.99618208408 82152.59441916704 45459.99618208408 81476.59786098136 45459.99618208408 80928.594375 44911.992696102716 80928.594375 44235.99613791704 Z"></path></g><g></g></g></g></g><g id="editor-gbaf29e1b5_0_211"><g><g></g><g><path d="M 27432 84444.921875 L 338328.00563049316 84444.921875 338328.00563049316 146304.92296218872 27432 146304.92296218872 Z"></path></g><g></g><g><path fill="#000" fill-opacity="0" stroke="#000" stroke-opacity="0" stroke-width="3882.8025477707006" stroke-linecap="round" stroke-linejoin="round" stroke-miterlimit="10" pointer-events="visiblePainted" d="M 27432 84444.921875 L 338328.00563049316 84444.921875 338328.00563049316 146304.92296218872 27432 146304.92296218872 Z"></path></g><g><g direction="ltr" style="opacity: 1;"><g transform="matrix(380.99999999999994,0,0,381,31089,113310.92296218872)"><g pointer-events="none"><g id="editor-gbaf29e1b5_0_211-paragraph-0"><g><g class="sketchy-text-background" visibility="visible"></g><g class="sketchy-text-content" visibility="visible"><g class="sketchy-text-content-text" transform="translate(0 61.44)"><text x="188.57345719224827px" style="font-family:Arial;font-size:64px;fill:#FFFFFF;font-weight:700;" y="0px" text-rendering="geometricPrecision">People</text><text x="416.19845719224827px" style="font-family:Arial;font-size:64px;fill:#FFFFFF;font-weight:700;" y="0px" text-rendering="geometricPrecision">Matter</text></g></g></g></g></g><rect style="opacity: 0;"></rect><rect style="opacity: 1;"></rect></g><g><path d="M 102935.48719024658 113310.92296218872 L 262824.5184402466 113310.92296218872 262824.5184402466 142571.7229621887 102935.48719024658 142571.7229621887 Z" pointer-events="visiblePainted" fill="#000000" stroke="#000000" opacity="0"></path></g><g transform="matrix(380.99999999999994,0,0,381,31089,113310.92296218872)"></g></g></g></g></g><g id="editor-gbaf29e1b5_0_213"><g><g></g><g><path d="M 72056 151470 L 293708.0023345947 151470 293708.0023345947 193326.0004234314 72056 193326.0004234314 Z"></path></g><g></g><g><path fill="#000" fill-opacity="0" stroke="#000" stroke-opacity="0" stroke-width="3882.8025477707006" stroke-linecap="round" stroke-linejoin="round" stroke-miterlimit="10" pointer-events="visiblePainted" d="M 72056 151470 L 293708.0023345947 151470 293708.0023345947 193326.0004234314 72056 193326.0004234314 Z"></path></g><g><g direction="ltr" style="opacity: 1;"><g transform="matrix(380.99999999999994,0,0,380.99999999999994,75713,155127)"><g pointer-events="none"><g id="editor-gbaf29e1b5_0_213-paragraph-0"><g><g class="sketchy-text-background" visibility="visible"></g><g class="sketchy-text-content" visibility="visible"><g class="sketchy-text-content-text" transform="translate(0 38.4)"><text x="268.5239665114035px" style="font-family:Arial;font-size:40px;fill:#CCCCCC;font-style:italic;" y="0px" text-rendering="geometricPrecision">mark@gunDB.io</text></g></g></g></g></g><rect style="opacity: 0;"></rect><rect style="opacity: 1;"></rect></g><g><path d="M 178020.63124084473 155127 L 290051.0023345947 155127 290051.0023345947 173415 178020.63124084473 173415 Z" pointer-events="visiblePainted" fill="#000000" stroke="#000000" opacity="0"></path></g><g transform="matrix(380.99999999999994,0,0,380.99999999999994,75713,155127)"></g></g></g></g></g></g></g></svg>