<svg id="Layer_1" data-name="Layer 1" xmlns="http://www.w3.org/2000/svg" xmlns:xlink="http://www.w3.org/1999/xlink" viewBox="0 0 332.18 1019.67"><defs><style>.cls-1{fill:url(#linear-gradient);}.cls-2{fill:#9b7957;}.cls-3{fill:#c49a6c;}.cls-4{fill:#f1f2f2;}.cls-13,.cls-14,.cls-5{fill:none;}.cls-6{fill:#ed1c24;}.cls-7{fill:#39b54a;}.cls-8{fill:#010101;opacity:0.95;isolation:isolate;}.cls-15,.cls-9{fill:#fff;}.cls-10{fill:#21409a;}.cls-11{fill:#99247d;}.cls-12{fill:#82654b;}.cls-13,.cls-14{stroke:#414042;stroke-linecap:round;}.cls-13,.cls-14,.cls-15{stroke-miterlimit:10;}.cls-13{stroke-width:6px;}.cls-14{stroke-width:6.3px;}.cls-15{stroke:#99247d;stroke-width:1.11px;}</style><linearGradient id="linear-gradient" x1="165.24" y1="185.81" x2="165.24" y2="136.81" gradientUnits="userSpaceOnUse"><stop offset="0" stop-color="#9b7957"/><stop offset="0.58" stop-color="#947453"/><stop offset="1" stop-color="#8c6e4e"/></linearGradient></defs><title>basketball</title><path class="cls-1" d="M250.3,174.51a171.1,171.1,0,0,1-23.86-10L192.56,152.8l-1.82-16h-50L139,152.47l-34.91,12a171.31,171.31,0,0,1-23.86,10.05L50.24,185.81h230Z"/><polygon class="cls-2" points="242.24 391.03 89.24 391.03 69.24 217.75 262.24 217.75 242.24 391.03"/><path class="cls-2" d="M331.27,295.77a165.2,165.2,0,0,0-11.76-44.22c8-23.73,1.22-51.64-19.43-66.5-0.43-.33-0.88-0.65-1.33-1h0a30,30,0,0,0-33.5,49.78l0.81,0.55c-4,18.36-.8,45.12,1.82,68.26,1.73,15.26,11.89,40.48,22,57.6-4.87,16.41-8.16,37.73-11.13,56.61-2.14,13.57-1.68,36.3.38,54.39a52.28,52.28,0,0,1-.92,10.36,22.18,22.18,0,0,1-3.07,7.05L269.32,522l-0.11,0-1,6.29-0.39,2.2h0l-2.35,14.86h0l0.63,18c0.12,3.39,2.56,6.11,5.6,6.21l3.43,0.12c3.19,0.11,5.87-2.69,6-6.26l0.43-14.93h0l3.18-13.66,6.64,1.72L291,564.81h0l-0.51,19h0l-0.47,12c-0.14,3.7,2.42,6.78,5.73,6.94l4.89,0.21a2.88,2.88,0,0,0,2.74-2.73l1.83-16.42h0l2.05-19h0l2-23.7v0h0l-3.66-52.42s0.84-5.55,1.63-9,4-14.22,4-14.22h0a226.53,226.53,0,0,0,10.8-41.59,233,233,0,0,0,1.18-61.51C330.55,346.17,333.95,320.32,331.27,295.77Z"/><path class="cls-2" d="M75.07,192.24a30,30,0,0,0-41.64-8.14h0c-0.46.31-.9,0.63-1.33,1-20.64,14.86-27.46,42.77-19.43,66.5A165.2,165.2,0,0,0,.91,295.77c-2.68,24.54.72,50.39,8,66.55a233,233,0,0,0,1.18,61.51,226.54,226.54,0,0,0,10.8,41.59h0s3.18,10.72,4,14.22,1.63,9.05,1.63,9.05l-3.66,52.43h0v0l2,23.7h0l2.05,19h0l1.84,16.4a2.81,2.81,0,0,0,2.74,2.65l4.89-.21c3.31-.16,5.88-3.16,5.73-6.86l-0.47-12h0l-0.51-19h0l-0.33-28.24,6.43-1.73,3,13.66h0l0.63,14.93c0.1,3.57,2.88,6.38,6.07,6.26l3.48-.12A6.17,6.17,0,0,0,66,563.36l0.65-18h0l-2.35-14.86h0L64,528.25,63,522l-0.11,0L57,488.69a22.18,22.18,0,0,1-3.07-7.05A52.29,52.29,0,0,1,53,471.28c2.06-18.09,2.52-40.82.38-54.39-3-18.88-6.25-40.2-11.13-56.61,10.13-17.12,20.29-42.34,22-57.6,2.62-23.14,5.81-49.9,1.82-68.26l0.81-.55A30,30,0,0,0,75.07,192.24Z"/><path class="cls-2" d="M239.21,257.7H92.27a16.69,16.69,0,0,1-16.19-12.64l-11.64-46.5a16.69,16.69,0,0,1,16.19-20.75l81.69,1.27a5.76,5.76,0,0,1,3.25,1.07h0a5.76,5.76,0,0,1,3.25-1.06l82-1.27A16.69,16.69,0,0,1,267,198.56l-11.64,46.5A16.69,16.69,0,0,1,239.21,257.7Z"/><polygon class="cls-3" points="242.24 390.81 165.74 390.81 89.24 390.81 86.24 446.31 165.74 457.36 245.24 446.28 242.24 390.81"/><path class="cls-2" d="M123.24,432.93h0A38.63,38.63,0,0,0,83,470.36l-1.8,225.43L76,729.63a253.36,253.36,0,0,0-3,38.86L85.85,921.68l36,1.5,18.57-162.47q0.55-8.79.43-17.61l-0.65-44.87,19.95-223.79A38.63,38.63,0,0,0,123.24,432.93Z"/><path class="cls-2" d="M255.93,729.29l-5.47-33.81-3.38-225.41a38.63,38.63,0,0,0-40.47-37.15h0A38.63,38.63,0,0,0,170,474.7L191.5,698.35l-0.33,44.88q-0.07,8.81.55,17.6l19.71,162.33,36-1.75,11.75-153.28A253.36,253.36,0,0,0,255.93,729.29Z"/><rect class="cls-4" x="50.09" y="1001.6" width="104.84" height="18.76"/><polygon class="cls-5" points="118.74 938.75 118.83 938.9 118.75 938.68 118.74 938.75"/><polygon class="cls-5" points="86.2 938.9 86.29 938.75 86.27 938.68 86.2 938.9"/><path class="cls-6" d="M118.75,938.68l5.39-23.86s0-.1,0-0.15l-5.43,24Z"/><path class="cls-6" d="M129.83,942.81l-10.77-3.5h0L129.83,958l10.53-34.6a10.45,10.45,0,0,0,.35-5.23l-1.22-6.5c-0.65-3.46-1.45-5.88-4.08-5.88h-5c-2.52,0-4.74,2.23-5.49,5.51l-0.76,3.35s0,0.1,0,.14l-5.39,23.86-0.27.23-0.24.33v53.58h-32v-54h0l0.09-.15L81.88,919.2l-1-4.42,0-.13-0.76-3.34c-0.74-3.28-3-5.5-5.49-5.5H71.83c-2.74,0-5.1,2.63-5.63,6.29l-0.92,6.29a10.42,10.42,0,0,0,.42,4.81l9.61,19.4-25.22,59s20.63,5.07,52.42,5.07,52.42-5.07,52.42-5.07Z"/><path class="cls-7" d="M119.25,905.81H85.77c-3.41,0-5.74,4.43-4.81,8.86l5.33,24-0.09.14h0.3L76.36,992s12.77,9.62,26.16,9.62S129.08,992,129.08,992l-10.14-53.2h-0.16l0-.15,5.43-24C125.1,910.26,122.66,905.81,119.25,905.81Z"/><path id="path2987" class="cls-8" d="M93.35,924.95s1.45-5.07,1.49-5.13a16,16,0,0,1,2,0s-0.21.81-.48,1.76-0.5,1.75-.49,1.77a1.41,1.41,0,0,0,.69,0c0-.06,1.24-4.21,1.22-4.24s-0.58,0-1.34,0-1.33,0-1.34,0,0.27-1,.62-2.19l0.64-2.17h2.35c1.29,0,2.36,0,2.37,0s-0.37,1.37-.85,3l-1.48,5.07c-0.33,1.14-.62,2.1-0.63,2.13a9.53,9.53,0,0,1-2.37.06c-1.29,0-2.35,0-2.36,0h0Zm4.89-7.5a10.77,10.77,0,0,0,.33-1.14s0-.05-0.34-0.05a0.75,0.75,0,0,0-.37,0,11,11,0,0,0-.33,1.14s0,0.05.34,0.05a0.76,0.76,0,0,0,.37,0h0Zm2.07,1.6s0.27-1,.62-2.2l0.64-2.17h1a9.19,9.19,0,0,1,1,0,13.67,13.67,0,0,1-.36,1.36c-0.21.73-.39,1.35-0.39,1.38s0,0.05.36,0h0.36l0.4-1.36c0.22-.75.42-1.38,0.43-1.4a14.43,14.43,0,0,1,1.94,0s-0.27,1-.62,2.19L105,919.06h-2.35c-1.29,0-2.36,0-2.37,0h0Zm5.18,0s0.27-1,.62-2.2l0.64-2.17h2.34c1.29,0,2.36,0,2.37,0s-0.26,1-.62,2.2l-0.64,2.17h-1a9.19,9.19,0,0,1-1,0,13.67,13.67,0,0,1,.36-1.36c0.21-.73.39-1.35,0.39-1.38s0-.05-0.36,0h-0.36l-0.4,1.36c-0.22.75-.42,1.38-0.43,1.4a14.43,14.43,0,0,1-1.94,0h0Zm5.86-1.44c-0.14-.11-0.14-0.23,0-0.73a1.31,1.31,0,0,1,.21-0.54,0.3,0.3,0,0,1,.5.15,2.86,2.86,0,0,1-.31,1.1,0.29,0.29,0,0,1-.4,0h0Z"/><path id="path2989-1" class="cls-8" d="M101.08,919.54a0.8,0.8,0,0,0-.69.23,1.25,1.25,0,0,0-.25,1.17,1.28,1.28,0,0,0,.79.63,1,1,0,0,1,.19-1.53h0.41c0.91,0,.85-0.08.87,0.55h0c0-.89,0-1-0.8-1h-0.52Zm1.57,1.78c-0.09.58-.45,0.65-1.13,0.64H99.47l-0.19.64h2.11a1.36,1.36,0,0,0,1.26-1.29h0Z"/><rect class="cls-9" x="82.27" y="938.9" width="40.89" height="3.39" rx="1.7" ry="1.7"/><rect class="cls-9" x="80.62" y="949.04" width="44.19" height="3.39" rx="1.7" ry="1.7"/><rect class="cls-9" x="78.6" y="959.18" width="48.22" height="3.39" rx="1.7" ry="1.7"/><rect class="cls-9" x="76.62" y="969.32" width="52.18" height="3.39" rx="1.7" ry="1.7"/><rect class="cls-9" x="74.7" y="979.46" width="56.03" height="3.39" rx="1.7" ry="1.7"/><rect class="cls-9" x="72.76" y="989.6" width="59.91" height="3.39" rx="1.7" ry="1.7"/><polygon class="cls-5" points="190.29 938.75 190.2 938.9 190.27 938.68 190.29 938.75"/><rect class="cls-4" x="179.09" y="1001.6" width="104.84" height="18.76"/><polygon class="cls-5" points="247.83 938.9 247.74 938.75 247.75 938.68 247.83 938.9"/><path class="cls-6" d="M204.19,942.81l10.77-3.5h0L204.19,958l-10.53-34.6a10.45,10.45,0,0,1-.35-5.23l1.22-6.5c0.65-3.46,1.45-5.88,4.08-5.88h5c2.52,0,4.74,2.23,5.49,5.51l0.76,3.35s0,0.1,0,.14l5.39,23.86,0.5,0.23,0.47,0.33v53.58h32v-54h-0.41l-0.09-.15,4.41-19.46,1-4.42,0-.13,0.76-3.34c0.74-3.28,3-5.5,5.49-5.5h2.78c2.74,0,5.1,2.63,5.63,6.29l0.92,6.29a10.42,10.42,0,0,1-.42,4.81l-9.61,19.4,25.22,59s-20.63,5.07-52.42,5.07-52.42-5.07-52.42-5.07Z"/><path class="cls-7" d="M214.77,905.81h33.48c3.41,0,5.74,4.43,4.81,8.86l-5.33,24,0.09,0.14h-0.3L257.67,992s-12.77,9.62-26.16,9.62S204.95,992,204.95,992l10.14-53.2h0.16l0-.15-5.43-24C208.93,910.26,211.37,905.81,214.77,905.81Z"/><path id="path2987-2" data-name="path2987" class="cls-8" d="M221.95,924.95s1.45-5.07,1.49-5.13a16,16,0,0,1,2,0s-0.21.81-.48,1.76-0.5,1.75-.49,1.77a1.41,1.41,0,0,0,.69,0c0-.06,1.24-4.21,1.22-4.24s-0.58,0-1.34,0-1.33,0-1.34,0,0.27-1,.62-2.19l0.64-2.17h2.35c1.29,0,2.36,0,2.37,0s-0.37,1.37-.85,3l-1.48,5.07c-0.33,1.14-.62,2.1-0.63,2.13a9.53,9.53,0,0,1-2.37.06c-1.29,0-2.35,0-2.36,0h0Zm4.89-7.5a10.77,10.77,0,0,0,.33-1.14s0-.05-0.34-0.05a0.75,0.75,0,0,0-.37,0,11,11,0,0,0-.33,1.14s0,0.05.34,0.05a0.76,0.76,0,0,0,.37,0h0Zm2.07,1.6s0.27-1,.62-2.2l0.64-2.17h1a9.19,9.19,0,0,1,1,0,13.67,13.67,0,0,1-.36,1.36c-0.21.73-.39,1.35-0.39,1.38s0,0.05.36,0h0.36l0.4-1.36c0.22-.75.42-1.38,0.43-1.4a14.43,14.43,0,0,1,1.94,0s-0.27,1-.62,2.19l-0.64,2.17h-2.35c-1.29,0-2.36,0-2.37,0h0Zm5.18,0s0.27-1,.62-2.2l0.64-2.17h2.34c1.29,0,2.36,0,2.37,0s-0.26,1-.62,2.2l-0.64,2.17h-1a9.19,9.19,0,0,1-1,0,13.67,13.67,0,0,1,.36-1.36c0.21-.73.39-1.35,0.39-1.38s0-.05-0.36,0h-0.36l-0.4,1.36c-0.22.75-.42,1.38-0.43,1.4a14.43,14.43,0,0,1-1.94,0h0Zm5.86-1.44c-0.14-.11-0.14-0.23,0-0.73a1.31,1.31,0,0,1,.21-0.54,0.3,0.3,0,0,1,.5.15,2.86,2.86,0,0,1-.31,1.1,0.29,0.29,0,0,1-.4,0h0Z"/><path id="path2989-1-2" data-name="path2989-1" class="cls-8" d="M229.67,919.54a0.8,0.8,0,0,0-.69.23,1.25,1.25,0,0,0-.25,1.17,1.28,1.28,0,0,0,.79.63,1,1,0,0,1,.19-1.53h0.41c0.91,0,.85-0.08.87,0.55h0c0-.89,0-1-0.8-1h-0.52Zm1.57,1.78c-0.09.58-.45,0.65-1.13,0.64h-2.05l-0.19.64H230a1.36,1.36,0,0,0,1.26-1.29h0Z"/><rect class="cls-9" x="210.87" y="938.9" width="40.89" height="3.39" rx="1.7" ry="1.7" transform="translate(462.62 1881.2) rotate(-180)"/><rect class="cls-9" x="209.22" y="949.04" width="44.19" height="3.39" rx="1.7" ry="1.7" transform="translate(462.62 1901.47) rotate(-180)"/><rect class="cls-9" x="207.2" y="959.18" width="48.22" height="3.39" rx="1.7" ry="1.7" transform="translate(462.62 1921.75) rotate(-180)"/><rect class="cls-9" x="205.22" y="969.32" width="52.18" height="3.39" rx="1.7" ry="1.7" transform="translate(462.62 1942.03) rotate(-180)"/><rect class="cls-9" x="203.29" y="979.46" width="56.03" height="3.39" rx="1.7" ry="1.7" transform="translate(462.62 1962.31) rotate(180)"/><rect class="cls-9" x="201.35" y="989.6" width="59.91" height="3.39" rx="1.7" ry="1.7" transform="translate(462.62 1982.58) rotate(-180)"/><polygon class="cls-10" points="245.24 402.81 228.24 402.81 83.57 402.81 62.24 673.81 160.57 673.81 164.24 541.27 168.24 673.81 266.57 673.81 245.24 402.81"/><polygon class="cls-11" points="245.41 402.81 266.57 673.81 256.24 673.81 236.24 402.81 245.41 402.81"/><polygon class="cls-11" points="83.41 402.81 62.24 673.81 72.57 673.81 92.57 402.81 83.41 402.81"/><path class="cls-10" d="M258.82,265.81c-9.9-31.79-10.31-62.47-1.18-94.45l-41.05-11.56H213.4l-7,38.41C203.21,216.32,189,231,170.75,233a45.8,45.8,0,0,1-10-.16c-18.28-2-32.47-16.46-35.69-34.57l-7-38.49h-3.19L73.83,171.15a164.11,164.11,0,0,1-1.18,95.75l-2.52,7.34,4.07,34.71-0.38,27.52L73.27,376l-1.6,114.84H256.8l0.47-182.24,4.07-34.23Z"/><path class="cls-11" d="M73.27,376c18.85,30.11,32.36,70,37.81,114.84h18.34c-6.63-62.8-27-117.45-55.6-154.34Z"/><path class="cls-11" d="M257.42,376c-18.85,30.11-32.36,69.84-37.81,114.84H201.27c6.63-63,27-117.45,55.6-154.34Z"/><path class="cls-2" d="M228.24,60.23V57.58c0-4.24-3-7.68-7.23-7.68a7.24,7.24,0,0,0-6.87,4.93l-0.43-5a48,48,0,1,0-96,0l-0.48,5a7.75,7.75,0,0,0-15,2.75v2.65c0,6.86,5.2,22,11.9,23.37l0.11,0.14,0.08-.07,1.37-14.1,4.25,0.16,1.94,39,21.55,13.34,7.91-17.87,28.83-.27,7.9,18.11,21.52-12.2,2.89-40h2.85l1.73,13.86C223.66,82,228.24,67,228.24,60.23Z"/><path class="cls-12" d="M213.78,49.85a48,48,0,1,0-96.07,0l-0.49,5-1.48,14.71h4.33l2.26-19.79,14.56-15.94a14.38,14.38,0,0,1,12.87-4.5l16,2.53L182,29.26a14.38,14.38,0,0,1,12.57,4.19L210.33,49.7,212.5,68h3.06l-1.29-13.13Z"/><line class="cls-13" x1="165.24" y1="31.81" x2="165.24" y2="1.81"/><line class="cls-14" x1="121.95" y1="53.08" x2="117.54" y2="51.47"/><path class="cls-14" d="M154.95,30.13c0-9.22-3.58-26.13-3.58-26.13"/><path class="cls-14" d="M145.62,29.26c0-9.33-4.31-20.78-4.31-20.78"/><path class="cls-14" d="M138.2,32.55c0-7.7-6.23-16.86-6.23-16.86"/><path class="cls-14" d="M132,39.2c0-7.46-7.74-13.54-7.74-13.54"/><line class="cls-14" x1="126.48" y1="45.2" x2="118.55" y2="40.8"/><line class="cls-14" x1="209.6" y1="53.08" x2="214.01" y2="51.47"/><path class="cls-14" d="M176.6,30.13c0-9.22,3.58-26.13,3.58-26.13"/><path class="cls-14" d="M185.93,29.26c0-9.33,4.31-20.78,4.31-20.78"/><path class="cls-14" d="M193.35,32.55c0-7.7,6.23-16.86,6.23-16.86"/><path class="cls-14" d="M199.58,39.2c0-7.46,7.74-13.54,7.74-13.54"/><line class="cls-14" x1="205.07" y1="45.2" x2="213" y2="40.8"/><polygon class="cls-2" points="154.71 110.81 149.99 123.18 156.29 128.25 161.28 125.44 161.01 118.81 169.24 118.81 169.24 124.66 176.19 128.07 181.54 123.44 176.6 110.81 154.71 110.81"/><path class="cls-12" d="M212.5,67.81l-2.89,41.82L188.08,122l-7.9-18.09-28.83.28-7.91,17.88L121.9,108.74l-1.93-39-4.23-.16-1.34,14.1v0.07l-4,41a7.89,7.89,0,0,0,4.37,7.85l25.5,12.47a7.84,7.84,0,0,0,3.48.75h43.82a7.84,7.84,0,0,0,3.46-.74l25.73-12.52a7.87,7.87,0,0,0,4.39-7.85l-3.78-41.25-1.78-15.64H212.5Zm-36.31,60.26-7-3.41v-5.85H161l0.26,6.58-5,2.89-6.3-5,4.72-12.43H176.6l4.94,12.63Z"/><path class="cls-15" d="M96.19,285.1q4.56-1.47,9.16-2.73c5.94-1.63,10.05-2.3,12.26-2.32a9.7,9.7,0,0,1,5.25,1.21,6.55,6.55,0,0,1,2.68,3,43.58,43.58,0,0,1,1.76,7.34l2.5,13.62a31.08,31.08,0,0,1,.77,7.1,5.45,5.45,0,0,1-1.25,3.1,7.85,7.85,0,0,1-2.81,2,34.33,34.33,0,0,1-5.41,1.65q-6.44,1.58-12.79,3.62Zm14,3,6.56,25.17c1.52-.4,2.39-0.91,2.6-1.58s0-2.28-.61-4.84l-3.61-14.93a17.25,17.25,0,0,0-1-3.3,1.66,1.66,0,0,0-1.17-.86A7,7,0,0,0,110.16,288.08Z"/><path class="cls-15" d="M159.18,274.29q4.19,19.66,7.12,39.45-5.34,0-10.67.27-0.47-3.53-1-7.06-1.94.11-3.87,0.26-0.05,3.57-.08,7.14-5.38.43-10.75,1.18-0.07-20,1-40Q150,274.55,159.18,274.29ZM154,300c-0.83-4.44-1.76-9.93-2.82-16.46-0.73,7.64-1,13.22-1,16.73Q152,300.07,154,300Z"/><path class="cls-15" d="M198.53,276.56l-1.14,7.83q-3.59-.52-7.2-0.93l-3.52,31.43q-5.2-.58-10.41-0.87L178,282.45q-3.6-.2-7.21-0.28l0.18-7.91A227.33,227.33,0,0,1,198.53,276.56Z"/><path class="cls-15" d="M228.27,282.95q-1.93,20-5.09,39.77-5.14-1.65-10.35-3,0.62-3.51,1.21-7-1.89-.48-3.79-0.93-1.13,3.39-2.24,6.78-5.29-1.22-10.64-2.13,6-19,13-37.8Q219.4,280.41,228.27,282.95Zm-12.78,22.88q0.82-6.72,2.28-16.55c-3,7.06-5,12.29-6.06,15.63Q213.6,305.35,215.49,305.83Z"/></svg>