<?xml version="1.0" encoding="UTF-8" standalone="no"?>
<svg
   xmlns:dc="http://purl.org/dc/elements/1.1/"
   xmlns:cc="http://creativecommons.org/ns#"
   xmlns:rdf="http://www.w3.org/1999/02/22-rdf-syntax-ns#"
   xmlns:svg="http://www.w3.org/2000/svg"
   xmlns="http://www.w3.org/2000/svg"
   xmlns:sodipodi="http://sodipodi.sourceforge.net/DTD/sodipodi-0.dtd"
   xmlns:inkscape="http://www.inkscape.org/namespaces/inkscape"
   version="1.1"
   viewBox="0 0 744.09448 1052.3622"
   stroke-miterlimit="10"
   id="svg12080"
   inkscape:version="0.91 r13725"
   sodipodi:docname="graph.svg"
   width="210mm"
   height="297mm"
   style="fill:none;stroke:none;stroke-linecap:square;stroke-miterlimit:10">
  <metadata
     id="metadata12159">
    <rdf:RDF>
      <cc:Work
         rdf:about="">
        <dc:format>image/svg+xml</dc:format>
        <dc:type
           rdf:resource="http://purl.org/dc/dcmitype/StillImage" />
        <dc:title></dc:title>
      </cc:Work>
    </rdf:RDF>
  </metadata>
  <defs
     id="defs12157" />
  <sodipodi:namedview
     pagecolor="#ffffff"
     bordercolor="#666666"
     borderopacity="1"
     objecttolerance="10"
     gridtolerance="10"
     guidetolerance="10"
     inkscape:pageopacity="0"
     inkscape:pageshadow="2"
     inkscape:window-width="1280"
     inkscape:window-height="697"
     id="namedview12155"
     showgrid="false"
     units="mm"
     showborder="true"
     inkscape:zoom="3.7426119"
     inkscape:cx="541.00772"
     inkscape:cy="617.94807"
     inkscape:window-x="-8"
     inkscape:window-y="-8"
     inkscape:window-maximized="1"
     inkscape:current-layer="svg12080" />
  <clipPath
     id="p.0">
    <path
       d="M 0,0 960,0 960,720 0,720 0,0 Z"
       id="path12083"
       inkscape:connector-curvature="0"
       style="clip-rule:nonzero" />
  </clipPath>
  <path
     style="fill:#000000;fill-opacity:0;fill-rule:nonzero"
     inkscape:connector-curvature="0"
     id="path12087"
     d="m -179.13631,112.79344 1102.36714,0 0,826.77535 -1102.36714,0 z" />
  <path
     style="fill:#000000;fill-opacity:0;fill-rule:nonzero"
     inkscape:connector-curvature="0"
     id="path12089"
     d="m 313.10424,226.12544 0,0 c 0,-32.55833 26.38565,-58.95205 58.93397,-58.95205 l 0,0 c 15.63027,0 30.62036,6.211 41.67259,17.26665 11.05231,11.05566 17.26136,26.05034 17.26136,41.6854 l 0,0 c 0,32.55832 -26.38562,58.95204 -58.93395,58.95204 l 0,0 c -32.54832,0 -58.93397,-26.39373 -58.93397,-58.95204 z" />
  <path
     style="fill-rule:nonzero;stroke:#000000;stroke-width:50;stroke-linecap:butt;stroke-linejoin:round;stroke-miterlimit:10;stroke-dasharray:none;fill:#000000;fill-opacity:1"
     inkscape:connector-curvature="0"
     id="path12091"
     d="m 313.10424,226.12544 0,0 c 0,-32.55833 26.38565,-58.95205 58.93397,-58.95205 l 0,0 c 15.63027,0 30.62036,6.211 41.67259,17.26665 11.05231,11.05566 17.26136,26.05034 17.26136,41.6854 l 0,0 c 0,32.55832 -26.38562,58.95204 -58.93395,58.95204 l 0,0 c -32.54832,0 -58.93397,-26.39373 -58.93397,-58.95204 z" />
  <path
     style="fill:#000000;fill-opacity:0;fill-rule:nonzero"
     inkscape:connector-curvature="0"
     id="path12093"
     d="m 610.64334,526.18412 0,0 c 0,-25.00799 20.26483,-45.28097 45.26285,-45.28097 l 0,0 c 12.0045,0 23.51728,4.77067 32.00568,13.2625 8.48846,8.49184 13.25722,20.00921 13.25722,32.01847 l 0,0 c 0,25.008 -20.2649,45.28096 -45.26291,45.28096 l 0,0 c -24.99801,0 -45.26284,-20.27296 -45.26284,-45.28096 z" />
  <path
     style="fill-rule:nonzero;stroke:#000000;stroke-width:50;stroke-linecap:butt;stroke-linejoin:round;stroke-miterlimit:10;stroke-dasharray:none;fill:#000000;fill-opacity:1"
     inkscape:connector-curvature="0"
     id="path12095"
     d="m 536.64334,526.18412 0,0 c 0,-25.00799 20.26483,-45.28097 45.26285,-45.28097 l 0,0 c 12.0045,0 23.51728,4.77067 32.00568,13.2625 8.48846,8.49184 13.25722,20.00921 13.25722,32.01847 l 0,0 c 0,25.008 -20.2649,45.28096 -45.26291,45.28096 l 0,0 c -24.99801,0 -45.26284,-20.27296 -45.26284,-45.28096 z" />
  <path
     style="fill:#000000;fill-opacity:0;fill-rule:nonzero"
     inkscape:connector-curvature="0"
     id="path12097"
     d="m 326.78437,526.18412 0,0 c 0,-25.00799 20.26489,-45.28097 45.26289,-45.28097 l 0,0 c 12.00447,0 23.51724,4.77067 32.00568,13.2625 8.48847,8.49184 13.25716,20.00921 13.25716,32.01847 l 0,0 c 0,25.008 -20.26484,45.28096 -45.26284,45.28096 l 0,0 c -24.998,0 -45.26289,-20.27296 -45.26289,-45.28096 z" />
  <path
     style="fill-rule:nonzero;stroke:#000000;stroke-width:50;stroke-linecap:butt;stroke-linejoin:round;stroke-miterlimit:10;stroke-dasharray:none;fill:#000000;fill-opacity:1"
     inkscape:connector-curvature="0"
     id="path12099"
     d="m 326.78437,526.18412 0,0 c 0,-25.00799 20.26489,-45.28097 45.26289,-45.28097 l 0,0 c 12.00447,0 23.51724,4.77067 32.00568,13.2625 8.48847,8.49184 13.25716,20.00921 13.25716,32.01847 l 0,0 c 0,25.008 -20.26484,45.28096 -45.26284,45.28096 l 0,0 c -24.998,0 -45.26289,-20.27296 -45.26289,-45.28096 z" />
  <path
     style="fill:#000000;fill-opacity:0;fill-rule:nonzero"
     inkscape:connector-curvature="0"
     id="path12101"
     d="m 33.739063,526.18412 0,0 c 0,-25.00799 20.264884,-45.28097 45.262862,-45.28097 l 0,0 c 12.004468,0 23.517245,4.77067 32.005695,13.2625 8.48844,8.49184 13.25717,20.00921 13.25717,32.01847 l 0,0 c 0,25.008 -20.26486,45.28096 -45.262865,45.28096 l 0,0 c -24.997989,0 -45.262862,-20.27296 -45.262862,-45.28096 z" />
  <path
     style="fill-rule:nonzero;stroke:#000000;stroke-width:50;stroke-linecap:butt;stroke-linejoin:round;stroke-miterlimit:10;stroke-dasharray:none;fill:#000000;fill-opacity:1"
     inkscape:connector-curvature="0"
     id="path12103"
     d="m 33.739063,526.18412 0,0 c 0,-25.00799 20.264884,-45.28097 45.262862,-45.28097 l 0,0 c 12.004468,0 23.517245,4.77067 32.005695,13.2625 8.48844,8.49184 13.25717,20.00921 13.25717,32.01847 l 0,0 c 0,25.008 -20.26486,45.28096 -45.262865,45.28096 l 0,0 c -24.997989,0 -45.262862,-20.27296 -45.262862,-45.28096 z" />
  <path
     style="fill:#000000;fill-opacity:0;fill-rule:nonzero"
     inkscape:connector-curvature="0"
     id="path12105"
     d="m 326.78437,851.37579 0,0 c 0,-25.00795 20.26489,-45.28092 45.26289,-45.28092 l 0,0 c 12.00447,0 23.51724,4.77065 32.00568,13.26249 8.48847,8.49183 13.25716,20.00916 13.25716,32.01843 l 0,0 c 0,25.00803 -20.26484,45.28101 -45.26284,45.28101 l 0,0 c -24.998,0 -45.26289,-20.27298 -45.26289,-45.28101 z" />
  <path
     style="fill-rule:nonzero;stroke:#000000;stroke-width:50;stroke-linecap:butt;stroke-linejoin:round;stroke-miterlimit:10;stroke-dasharray:none;fill:#000000;fill-opacity:1"
     inkscape:connector-curvature="0"
     id="path12107"
     d="m 326.78437,851.37579 0,0 c 0,-25.00795 20.26489,-45.28092 45.26289,-45.28092 l 0,0 c 12.00447,0 23.51724,4.77065 32.00568,13.26249 8.48847,8.49183 13.25716,20.00916 13.25716,32.01843 l 0,0 c 0,25.00803 -20.26484,45.28101 -45.26284,45.28101 l 0,0 c -24.998,0 -45.26289,-20.27298 -45.26289,-45.28101 z" />
  <path
     style="fill:#000000;fill-opacity:0;fill-rule:nonzero"
     inkscape:connector-curvature="0"
     id="path12109"
     d="m 621.72844,709.915 0,0 c 0,-18.88582 15.30194,-34.19582 34.17774,-34.19582 l 0,0 c 9.06451,0 17.75778,3.60277 24.16734,10.01573 6.40955,6.41296 10.0104,15.11081 10.0104,24.18009 l 0,0 c 0,18.88582 -15.30188,34.19582 -34.17774,34.19582 l 0,0 c -18.8758,0 -34.17774,-15.31 -34.17774,-34.19582 z" />
  <path
     style="fill-rule:nonzero;stroke:#000000;stroke-width:30;stroke-linecap:butt;stroke-linejoin:round;stroke-miterlimit:10;stroke-dasharray:none;fill:#000000;fill-opacity:1"
     inkscape:connector-curvature="0"
     id="path12111"
     d="m 547.72844,709.915 0,0 c 0,-18.88582 15.30194,-34.19582 34.17774,-34.19582 l 0,0 c 9.06451,0 17.75778,3.60277 24.16734,10.01573 6.40955,6.41296 10.0104,15.11081 10.0104,24.18009 l 0,0 c 0,18.88582 -15.30188,34.19582 -34.17774,34.19582 l 0,0 c -18.8758,0 -34.17774,-15.31 -34.17774,-34.19582 z" />
  <path
     style="fill:#000000;fill-opacity:0;fill-rule:nonzero"
     inkscape:connector-curvature="0"
     id="path12113"
     d="m 372.03822,285.07748 0,195.84377" />
  <path
     style="fill-rule:evenodd;stroke:#000000;stroke-width:30;stroke-linecap:round;stroke-linejoin:round;stroke-miterlimit:10;stroke-dasharray:none"
     inkscape:connector-curvature="0"
     id="path12115"
     d="m 372.03822,285.07748 0,131.71189"
     sodipodi:nodetypes="cc" />
  <path
     style="fill:#000000;fill-opacity:0;fill-rule:nonzero"
     inkscape:connector-curvature="0"
     id="path12119"
     d="M 413.71081,267.81082 623.91283,494.17947" />
  <path
     style="fill-rule:evenodd;stroke:#000000;stroke-width:30;stroke-linecap:round;stroke-linejoin:round;stroke-miterlimit:10;stroke-dasharray:none"
     inkscape:connector-curvature="0"
     id="path12121"
     d="m 413.71081,267.81082 137.8134,156.81194"
     sodipodi:nodetypes="cc" />
  <path
     style="fill:#000000;fill-opacity:0;fill-rule:nonzero"
     inkscape:connector-curvature="0"
     id="path12125"
     d="M 330.36563,267.81082 111.01336,494.17947" />
  <path
     style="fill-rule:evenodd;stroke:#000000;stroke-width:30;stroke-linecap:round;stroke-linejoin:round;stroke-miterlimit:10;stroke-dasharray:none"
     inkscape:connector-curvature="0"
     id="path12127"
     d="M 330.36563,267.81082 154.25128,445.62523"
     sodipodi:nodetypes="cc" />
  <path
     style="fill:#000000;fill-opacity:0;fill-rule:nonzero"
     inkscape:connector-curvature="0"
     id="path12131"
     d="m 372.04726,571.46509 0,234.6147" />
  <path
     style="fill-rule:evenodd;stroke:#000000;stroke-width:30;stroke-linecap:round;stroke-linejoin:round;stroke-miterlimit:10;stroke-dasharray:none"
     inkscape:connector-curvature="0"
     id="path12133"
     d="m 372.04726,571.46509 0,167.76197"
     sodipodi:nodetypes="cc" />
  <path
     style="fill:#000000;fill-opacity:0;fill-rule:nonzero"
     inkscape:connector-curvature="0"
     id="path12137"
     d="m 581.90618,571.46509 0,104.26916" />
  <path
     style="fill-rule:evenodd;stroke:#000000;stroke-width:30;stroke-linecap:round;stroke-linejoin:round;stroke-miterlimit:10;stroke-dasharray:none"
     inkscape:connector-curvature="0"
     id="path12139"
     d="m 581.90618,571.46509 0,46.93922"
     sodipodi:nodetypes="cc" />
  <path
     style="fill:#000000;fill-rule:evenodd;stroke:#000000;stroke-width:12.32176208;stroke-linecap:butt"
     inkscape:connector-curvature="0"
     id="path12141"
     d="m 581.90615,634.90672 -19.60204,-9.7955 19.60204,26.91295 19.60214,-26.91295 z" />
  <path
     style="fill:#000000;fill-opacity:0;fill-rule:nonzero"
     inkscape:connector-curvature="0"
     id="path12143"
     d="m 124.26479,526.18412 202.53465,0" />
  <path
     style="fill-rule:evenodd;stroke:#000000;stroke-width:30;stroke-linecap:round;stroke-linejoin:round;stroke-miterlimit:10;stroke-dasharray:none"
     inkscape:connector-curvature="0"
     id="path12145"
     d="m 124.26479,526.18412 139.68714,0"
     sodipodi:nodetypes="cc" />
  <path
     style="fill:#000000;fill-opacity:0;fill-rule:nonzero"
     inkscape:connector-curvature="0"
     id="path12149"
     d="m 690.08392,709.915 c 14.35409,0 61.09569,-120.95117 28.70825,-241.9023 C 686.40472,347.06153 574.88823,226.11036 430.98421,226.11036" />
  <path
     style="fill-rule:evenodd;stroke:#000000;stroke-width:30;stroke-linecap:round;stroke-linejoin:round;stroke-miterlimit:10;stroke-dasharray:none"
     inkscape:connector-curvature="0"
     id="path12151"
     d="M 626.08392,709.915 C 762.95474,602.87002 758.19368,308.38987 489.2692,228.88449"
     sodipodi:nodetypes="cc" />
  <path
     d="m 371.90615,754.90672 -19.60204,-9.7955 19.60204,26.91295 19.60214,-26.91295 z"
     id="path12750"
     inkscape:connector-curvature="0"
     style="fill:#000000;fill-rule:evenodd;stroke:#000000;stroke-width:12.32176208;stroke-linecap:butt" />
  <path
     d="m 371.20828,429.33545 -19.60204,-9.7955 19.60204,26.91295 19.60214,-26.91295 z"
     id="path12752"
     inkscape:connector-curvature="0"
     style="fill:#000000;fill-rule:evenodd;stroke:#000000;stroke-width:12.32176208;stroke-linecap:butt" />
  <path
     style="fill:#000000;fill-rule:evenodd;stroke:#000000;stroke-width:12.32176208;stroke-linecap:butt"
     inkscape:connector-curvature="0"
     id="path12754"
     d="m 561.71616,434.9823 -21.12253,5.83355 32.57435,6.88899 -3.43587,-33.11716 z" />
  <path
     d="m 144.26138,454.90592 20.3362,8.16277 -33.141,3.197 7.12369,-32.52391 z"
     id="path12756"
     inkscape:connector-curvature="0"
     style="fill:#000000;fill-rule:evenodd;stroke:#000000;stroke-width:12.32176208;stroke-linecap:butt" />
  <path
     style="fill:#000000;fill-rule:evenodd;stroke:#000000;stroke-width:12.32176208;stroke-linecap:butt"
     inkscape:connector-curvature="0"
     id="path12758"
     d="m 275.45819,524.70776 -9.7955,19.60204 26.91295,-19.60204 -26.91295,-19.60214 z" />
  <path
     d="m 480.9517,227.20327 4.8021,21.38063 -21.41876,-25.49085 30.83241,-12.56635 z"
     id="path12760"
     inkscape:connector-curvature="0"
     style="fill:#000000;fill-rule:evenodd;stroke:#000000;stroke-width:12.32176208;stroke-linecap:butt" />
</svg>
