<svg id="RAW_ICONS_-_SQUARE_ROUNDED_CIRCLE" data-name="RAW ICONS - SQUARE / ROUNDED / CIRCLE" xmlns="http://www.w3.org/2000/svg" viewBox="0 0 33.24 33.43"><defs><style>.cls-1{fill:#6d6e71;}</style></defs><title>social</title><path class="cls-1" d="M16.62,1.11A16,16,0,0,0,11.56,32.3a0.81,0.81,0,0,0,1.09-.77c0-.38,0-1.39,0-2.72-4.45,1-5.39-2.14-5.39-2.14a4.23,4.23,0,0,0-1.78-2.34c-1.45-1,.11-1,0.11-1A3.36,3.36,0,0,1,8,25a3.41,3.41,0,0,0,4.66,1.33,3.41,3.41,0,0,1,1-2.14c-3.55-.4-7.29-1.78-7.29-7.91A6.19,6.19,0,0,1,8.06,12a5.77,5.77,0,0,1,.16-4.24s1.34-.43,4.4,1.64a15.13,15.13,0,0,1,8,0C23.68,7.32,25,7.75,25,7.75A5.75,5.75,0,0,1,25.18,12a6.18,6.18,0,0,1,1.65,4.29c0,6.15-3.74,7.5-7.31,7.9a3.82,3.82,0,0,1,1.09,3c0,2.14,0,3.86,0,4.39a0.8,0.8,0,0,0,1.1.77A16,16,0,0,0,16.62,1.11"/></svg>