<svg id="RAW_ICONS_-_SQUARE_ROUNDED_CIRCLE" data-name="RAW ICONS - SQUARE / ROUNDED / CIRCLE" xmlns="http://www.w3.org/2000/svg" viewBox="0 0 33.24 33.43"><defs><style>.cls-1{fill:#6d6e71;}</style></defs><title>social</title><path class="cls-1" d="M17.58,15.54v0l0,0h0Z"/><path class="cls-1" d="M16.62,0.72a16,16,0,1,0,16,16A16,16,0,0,0,16.62.72ZM12.25,24.36H8.82V14h3.43V24.36ZM10.54,12.64h0a1.79,1.79,0,1,1,0-3.57A1.79,1.79,0,1,1,10.54,12.64ZM24.62,24.36H21.19V18.84c0-1.39-.5-2.33-1.74-2.33a1.88,1.88,0,0,0-1.76,1.26,2.33,2.33,0,0,0-.11.84v5.76H14.15s0-9.35,0-10.32h3.43v1.46a3.4,3.4,0,0,1,3.09-1.7c2.26,0,3.95,1.47,3.95,4.64v5.92Z"/></svg>