<svg id="RAW_ICONS_-_SQUARE_ROUNDED_CIRCLE" data-name="RAW ICONS - SQUARE / ROUNDED / CIRCLE" xmlns="http://www.w3.org/2000/svg" viewBox="0 0 33.24 33.43"><defs><style>.cls-1{fill:#6d6e71;}</style></defs><title>social</title><path class="cls-1" d="M16.62,0.72a16,16,0,1,0,16,16A16,16,0,0,0,16.62.72ZM23,13.46c0,0.14,0,.28,0,0.42A9.34,9.34,0,0,1,8.62,21.74a6.93,6.93,0,0,0,.78,0,6.58,6.58,0,0,0,4.08-1.4,3.29,3.29,0,0,1-3.07-2.28,3.37,3.37,0,0,0,.62.06A3.31,3.31,0,0,0,11.89,18a3.29,3.29,0,0,1-2.63-3.22v0a3.28,3.28,0,0,0,1.49.41,3.29,3.29,0,0,1-1-4.38,9.32,9.32,0,0,0,6.77,3.43,3.29,3.29,0,0,1,5.59-3,6.55,6.55,0,0,0,2.08-.8,3.29,3.29,0,0,1-1.44,1.82,6.55,6.55,0,0,0,1.88-.52A6.66,6.66,0,0,1,23,13.46Z"/></svg>