<svg id="Layer_1" data-name="Layer 1" xmlns="http://www.w3.org/2000/svg" xmlns:xlink="http://www.w3.org/1999/xlink" viewBox="0 0 724.09 522.08"><defs><style>.cls-1{fill:none;}.cls-2{fill:#e6e7e8;}.cls-3{fill:#e6e6e6;}.cls-4{fill:#dbab7b;}.cls-5{fill:#a97c50;}.cls-6{fill:#bf7064;}.cls-7{fill:#f26222;}.cls-8{fill:#353535;}.cls-9{fill:#bc6258;}.cls-10{fill:#fbb040;}.cls-11{fill:#eda23d;}.cls-12{fill:#be1e2d;}.cls-13{fill:#009444;}.cls-14{fill:#1c75bc;}.cls-15{fill:#414042;}.cls-16{fill:#bebebf;}.cls-17{fill:#d1d3d4;}.cls-18{fill:#c49a6c;}.cls-19{fill:#324458;}.cls-20{fill:#9aa3b6;}.cls-21{fill:#3c72b9;}.cls-22{fill:#2b5388;}.cls-23{fill:#d65e5f;}.cls-24{fill:#94c6b3;}.cls-25{fill:#759c8e;}.cls-26{fill:#657482;}.cls-27{fill:#926b56;}.cls-28{fill:#58595b;}.cls-29{fill:#29ac7b;}.cls-30{fill:#527caa;}.cls-31{fill:#3a4f63;}.cls-32{fill:#283744;}.cls-33{fill:#8b5e3c;}.cls-34{fill:#8362aa;}.cls-35{fill:#54758e;}.cls-36{fill:#7bccc0;}.cls-37{fill:#4c4d4d;}.cls-38{fill:#bcbec0;}.cls-39{fill:#333;}.cls-40{fill:#5c9974;}.cls-41{fill:url(#linear-gradient);}.cls-42{fill:#603913;}.cls-43{fill:url(#linear-gradient-2);}.cls-44{fill:#006838;}.cls-45{fill:#443526;}.cls-46{fill:#303030;}.cls-47{fill:#e2a28f;}.cls-48{fill:url(#linear-gradient-3);}.cls-49{fill:#b53026;}.cls-50{fill:#3db766;}.cls-51{fill:#c93827;}.cls-52{fill:#73c69a;}.cls-53{fill:url(#New_Pattern_Swatch_1);}.cls-54{fill:#193d23;}.cls-55{fill:#9055a2;}.cls-56{fill:#702c90;}.cls-57{fill:#83479c;}.cls-58{fill:#cc9183;}.cls-59{fill:#3260ac;}.cls-60{fill:#dedddd;}.cls-61{fill:#e58e7a;}</style><linearGradient id="linear-gradient" x1="392.15" y1="183.11" x2="395.86" y2="152.89" gradientUnits="userSpaceOnUse"><stop offset="0.47" stop-color="#c49a6c"/><stop offset="0.48" stop-color="#c19669"/><stop offset="0.5" stop-color="#b68b60"/><stop offset="0.51" stop-color="#a47951"/><stop offset="0.52" stop-color="#8c5f3d"/><stop offset="0.52" stop-color="#8b5e3c"/></linearGradient><linearGradient id="linear-gradient-2" x1="395.02" y1="83.2" x2="439.71" y2="83.2" gradientUnits="userSpaceOnUse"><stop offset="0" stop-color="#3c2415"/><stop offset="1" stop-color="#603913"/></linearGradient><linearGradient id="linear-gradient-3" x1="624.6" y1="197.11" x2="628.31" y2="166.89" gradientUnits="userSpaceOnUse"><stop offset="0.41" stop-color="#e2a28f"/><stop offset="0.43" stop-color="#de9f8d"/><stop offset="0.45" stop-color="#d39886"/><stop offset="0.47" stop-color="#c18b7b"/><stop offset="0.48" stop-color="#ac7c6f"/></linearGradient><pattern id="New_Pattern_Swatch_1" data-name="New Pattern Swatch 1" width="10" height="10" patternTransform="translate(-8.97 115.61)" patternUnits="userSpaceOnUse" viewBox="0 0 10 10"><rect class="cls-1" width="10" height="10"/><circle class="cls-2" cx="4.85" cy="4.85" r="1.25"/><path class="cls-3" d="M10,8.73A1.22,1.22,0,0,0,8.8,10l0,0H10V8.73Z"/><path class="cls-3" d="M1.3,10l0,0A1.27,1.27,0,0,0,0,8.73V10H1.3Z"/><path class="cls-3" d="M0,0V1.2A1.26,1.26,0,0,0,1.3,0H0Z"/><path class="cls-3" d="M8.84,0A1.15,1.15,0,0,0,10,1.2V0H8.84Z"/></pattern></defs><title>school</title><path class="cls-4" d="M95.09,377.28a22.28,22.28,0,0,0-22.26,22.29L76.72,440h35.85l4.9-40.44A22.39,22.39,0,0,0,95.09,377.28Z"/><path class="cls-4" d="M155.43,377.28a22.26,22.26,0,0,0-22.23,22.29L137.06,440h35.85l4.92-40.44A22.41,22.41,0,0,0,155.43,377.28Z"/><path class="cls-5" d="M209.64,195c-20.91-16-51-26.08-84.41-26.08S61.74,179,40.83,195H209.64Z"/><path class="cls-4" d="M165.72,132.36L159.91,100h0A34.73,34.73,0,0,0,91,100h0l-6.11,32a62.3,62.3,0,0,0,2.77,33.08L90.43,173h0.17A61.5,61.5,0,0,0,160,173h-0.06l2.91-8.22A62.35,62.35,0,0,0,165.72,132.36Z"/><path class="cls-4" d="M83.75,114.94a4.24,4.24,0,0,0-4.38,4.32A6.88,6.88,0,0,0,86.42,126H88v-6.55A4.3,4.3,0,0,0,83.75,114.94Z"/><path class="cls-4" d="M166.53,114.94a4.36,4.36,0,0,1,4.52,4.32,6.76,6.76,0,0,1-6.92,6.74H162v-6.55A4.53,4.53,0,0,1,166.53,114.94Z"/><path class="cls-2" d="M107.18,113.22h7a1.86,1.86,0,0,1,1.86,1.86v4.71a1.86,1.86,0,0,1-1.86,1.86H99.7a0,0,0,0,1,0,0V120.7A7.48,7.48,0,0,1,107.18,113.22Z"/><path class="cls-2" d="M134.46,113.22h14.46a1.86,1.86,0,0,1,1.86,1.86v4.71a1.86,1.86,0,0,1-1.86,1.86h-7a7.48,7.48,0,0,1-7.48-7.48v-0.94A0,0,0,0,1,134.46,113.22Z" transform="translate(285.23 234.85) rotate(-180)"/><rect class="cls-6" x="118.11" y="127.2" width="14.25" height="8.04" rx="3.02" ry="3.02"/><path class="cls-7" d="M114.73,109.25l-12.37,1.56c-0.61.07-1.22,0.15-1.82,0.26l-0.82.14,0-.15c-0.15-1.32,2.16-2.66,5.12-3l9.65-1.08a1.09,1.09,0,0,1,1.24.39l0.14,1.22A1.09,1.09,0,0,1,114.73,109.25Z"/><path class="cls-7" d="M135.74,109.25l12.37,1.56c0.61,0.07,1.22.15,1.82,0.26l0.82,0.14,0-.15c0.15-1.32-2.16-2.66-5.12-3L136,107a1.09,1.09,0,0,0-1.24.39l-0.14,1.22A1.09,1.09,0,0,0,135.74,109.25Z"/><path class="cls-8" d="M108.39,144c2.58,6,9.63,10.71,16.85,10.71S139.5,150,142.08,144h-33.7Z"/><rect class="cls-9" x="93.36" y="126.01" width="9.18" height="2.95" rx="1.48" ry="1.48"/><rect class="cls-9" x="147.93" y="126.01" width="9.18" height="2.95" rx="1.48" ry="1.48"/><path class="cls-7" d="M87.64,117.39l1.91,0.68a20.41,20.41,0,0,1,.66-4.85c0.58-1.56,2.77-3.09,2.77-4.69s-0.87-2.7-.51-4.66,3.21-7.72,3.21-7.72l-5.18.15Z"/><path class="cls-7" d="M163,117.39l-1.91.68a20.41,20.41,0,0,0-.66-4.85c-0.58-1.56-2.77-3.09-2.77-4.69s0.87-2.7.51-4.66S155,96.14,155,96.14l5,0.15Z"/><path class="cls-10" d="M90.5,96.28l25.67,9.82a28.11,28.11,0,0,0,13.05,1.7l5.22-1.62a70,70,0,0,1,31.44-2.32h0a1.13,1.13,0,0,0,.6-2L155,92.38l-26.2,4.27a41,41,0,0,1-7.77.52Z"/><path class="cls-11" d="M128.35,64.36h-6.23A31.72,31.72,0,0,0,90.5,96v0.29h0a606.26,606.26,0,0,0,68.58.05l0.9-.05V96A31.72,31.72,0,0,0,128.35,64.36Z"/><ellipse class="cls-4" cx="92.98" cy="326.05" rx="26.23" ry="23.72"/><polygon class="cls-4" points="117.47 394.77 72.87 394.77 66.75 326.05 119.22 326.05 117.47 394.77"/><ellipse class="cls-4" cx="157.69" cy="326.05" rx="26.23" ry="23.72"/><polygon class="cls-4" points="133.21 394.77 177.8 394.77 183.93 326.05 131.46 326.05 133.21 394.77"/><path class="cls-12" d="M125,64.73s0,0.27,0,.27h-2.88A30.75,30.75,0,0,0,91,96H90.61c1.94,1,3.83.34,5.77,0.43A14.82,14.82,0,0,1,96,93.31C96,82.18,107,72.29,125,64.73Z"/><path class="cls-13" d="M125.08,64.36H125l0,0Z"/><path class="cls-14" d="M127.87,65a60.7,60.7,0,0,1,6.83,28.54c0,1.34-.05,2.5-0.13,3.82,6.71-.1,13.42-0.41,20.12-0.73a19.74,19.74,0,0,0,.3-3.36c0-11.49-10.29-21.51-26.6-28.56,0,0,0,.3,0,0.3h-0.48Z"/><path class="cls-12" d="M114.91,93.22c0,1.34.07,2.66,0.18,4q9.74,0.16,19.48,0c0.08-1.32.13-2.32,0.13-3.66A60.7,60.7,0,0,0,127.87,65h-2.8S125,64.71,125,64.73A45.24,45.24,0,0,0,114.91,93.22Z"/><rect class="cls-15" x="124.66" y="63.29" width="4.12" height="1.46" rx="0.73" ry="0.73"/><rect class="cls-16" x="126.4" y="59.36" width="0.62" height="4.66"/><path class="cls-17" d="M137.38,57.84l-9.36,1L127,59l-1-.12-9.44-1c-1.65,0-3.64.66-3.64,1.47v0.11c0,0.81,1.67,1.47,3.32,1.47l10.62-1.05,10.71,1.05c1.65,0,3.35-.66,3.35-1.47V59.3C141,58.49,139,57.84,137.38,57.84Z"/><path class="cls-6" d="M118.23,152.79a17.88,17.88,0,0,0,14,0A7.53,7.53,0,0,0,118.23,152.79Z"/><rect class="cls-18" x="77.58" y="189.85" width="95.31" height="38.04"/><polygon class="cls-4" points="183.19 295.61 67.28 295.61 68.16 325.25 182.31 325.25 183.19 295.61"/><circle class="cls-14" cx="108.25" cy="118.3" r="1.43"/><circle class="cls-14" cx="142.62" cy="117.43" r="1.43"/><rect class="cls-19" x="62.73" y="294.35" width="124.17" height="10.93" rx="3.2" ry="3.2"/><rect class="cls-20" x="119.34" y="294.35" width="10.95" height="10.93"/><rect class="cls-20" x="88.5" y="294.35" width="2.86" height="10.93"/><rect class="cls-20" x="158.28" y="294.35" width="2.86" height="10.93"/><polygon class="cls-21" points="124.82 305 65.53 305 66.41 402 120.45 402 124.82 348.44 129.19 402 183.24 402 184.11 305 124.82 305"/><path class="cls-22" d="M124.82,305.28h6.64a0,0,0,0,1,0,0v29.65a6.64,6.64,0,0,1-6.64,6.64h0a0,0,0,0,1,0,0V305.28A0,0,0,0,1,124.82,305.28Z"/><path class="cls-4" d="M55.3,188.68a18.82,18.82,0,0,0-20.75,16.79l-7.33,60.81,33.9,3.7,10.81-60.43A18.82,18.82,0,0,0,55.3,188.68Z"/><path class="cls-4" d="M45.74,249.85A16.75,16.75,0,0,0,27.2,264.75l-0.12,42.82,25.51,2.79,8.89-41.86C62.49,259.26,55.09,250.87,45.74,249.85Z"/><path class="cls-4" d="M195.94,188.68a18.82,18.82,0,0,1,20.75,16.79l9.08,60.81-33.9,3.7L179.3,209.56A18.82,18.82,0,0,1,195.94,188.68Z"/><path class="cls-4" d="M206.57,248.95c9.24-1,18.15,6.48,19.16,15.72L224,308.44l-25.9,2.75L191,267.58C190,258.34,197.33,250,206.57,248.95Z"/><path class="cls-23" d="M204.09,188.6c-18.58-8.12-18.59-8.82-27.34-11.5s-16.84-4.56-16.84-4.56-19.34,10.32-34.21,10.32c-15.41,0-35.26-10.5-35.26-10.5s-7.17,2-15.93,4.72-8.77,3.39-27.34,11.51S31.25,231,31.25,231h37.6L58.36,296H192.9L182.4,231H220S222.67,196.72,204.09,188.6Z"/><rect class="cls-24" x="115.81" y="184.49" width="9.81" height="111.17"/><rect class="cls-25" x="125.63" y="184.49" width="9.81" height="111.17" transform="translate(261.07 480.16) rotate(-180)"/><path class="cls-26" d="M125.66,185.94c-15.56,0-38.56-11.95-39.38-12.38L90,172.48c0.2,0.1,20.73,10.84,35.63,10.84,14.37,0,34.15-10.86,34.35-11l4.21,1.23C163.38,174,140.67,185.94,125.66,185.94Z"/><circle class="cls-10" cx="125.63" cy="224.61" r="12.27"/><polygon class="cls-27" points="129.41 226.98 130.4 232.62 125.32 229.98 120.26 232.66 121.21 227.01 117.1 223.03 122.76 222.19 125.28 217.05 127.83 222.17 133.49 222.97 129.41 226.98"/><path class="cls-4" d="M228.06,317.57c0,18.75-4.42,26.62-18.75,26.62-18.77,0-18.75-16.27-18.75-26.62A18.75,18.75,0,1,1,228.06,317.57Z"/><path class="cls-4" d="M20.56,317.57c0,18.75,4.42,26.62,18.75,26.62,18.77,0,18.75-16.27,18.75-26.62A18.75,18.75,0,1,0,20.56,317.57Z"/><path class="cls-28" d="M118.84,489.66l-17,4.88a4.6,4.6,0,0,1-2,.12l-33.92-5.35A4.6,4.6,0,0,1,62,484.77V474.49h60.14v10.74A4.6,4.6,0,0,1,118.84,489.66Z"/><path class="cls-4" d="M116.47,483.15l-13,4.22a10.4,10.4,0,0,1-5.05.32L69,482.29c-5.86-1.08-8.78-6.66-5.79-11.05L95.1,429.55,121,472.39C123.71,476.39,121.57,481.5,116.47,483.15Z"/><path class="cls-4" d="M112.88,444.55a9.57,9.57,0,0,1-9.82,10.09l-20.81-.58a7.15,7.15,0,0,1-7-8.78l1.45-6.21h35.85Z"/><polygon class="cls-28" points="110.14 485.16 74.01 457.07 76.15 454.3 108.02 479.11 114.61 460.96 117.27 464.85 110.14 485.16"/><rect class="cls-19" x="124.69" y="483.46" width="62.5" height="11.18"/><path class="cls-29" d="M139.66,448.41l6.42-2.09h0l-6.42,11.15-6.28-20.63a6.23,6.23,0,0,1-.21-3.12l0.73-4.05c0.39-2.06.87-3.68,2.43-3.68h3c1.5,0,2.83,1.5,3.27,3.46l0.45,2.09s0,0.1,0,.13l3.21,14.25,0.88,0.15,0.86,0.21V478h18V446h-0.33l-0.05-.08,2.63-11.6,0.6-2.63,0-.08,0.45-2.17c0.44-2,1.77-3.45,3.27-3.45h1.66c1.63,0,3,1.74,3.36,3.92l0.55,3.84a6.4,6.4,0,0,1-.25,2.91l-5.73,11.59,15,35.19s-12.3,3-31.25,3-31.25-3-31.25-3Z"/><path class="cls-30" d="M146,426h20c2,0,3.42,2.82,2.87,5.46l-3.18,14.38,0.05,0.16H165.5l6,31.73s-7.62,5.74-15.6,5.74-15.84-5.74-15.84-5.74l6-31.73h0.1l0-.08L143,431.46C142.48,428.82,143.94,426,146,426Z"/><rect class="cls-19" x="143.64" y="446.08" width="24.38" height="2.02" rx="1.01" ry="1.01" transform="translate(311.65 894.18) rotate(180)"/><rect class="cls-19" x="142.65" y="452.12" width="26.34" height="2.02" rx="1.01" ry="1.01" transform="translate(311.65 906.27) rotate(-180)"/><rect class="cls-19" x="141.45" y="458.17" width="28.75" height="2.02" rx="1.01" ry="1.01" transform="translate(311.65 918.36) rotate(-180)"/><rect class="cls-19" x="140.27" y="464.21" width="31.11" height="2.02" rx="1.01" ry="1.01" transform="translate(311.65 930.45) rotate(-180)"/><rect class="cls-19" x="139.12" y="470.26" width="33.41" height="2.02" rx="1.01" ry="1.01" transform="translate(311.65 942.54) rotate(-180)"/><rect class="cls-19" x="137.96" y="476.3" width="35.72" height="2.02" rx="1.01" ry="1.01" transform="translate(311.65 954.63) rotate(-180)"/><path class="cls-22" d="M65.53,305l0.28,32.85c10.53-.29,18.57-14.65,18.57-32.24,0-.18,0,0.38,0-0.62H65.53Z"/><path class="cls-22" d="M184.07,305l-0.28,32.85c-10.53-.29-18.57-14.65-18.57-32.24,0-.18,0-0.62,0-0.62h18.84Z"/><rect class="cls-18" x="358.84" y="316.54" width="70.33" height="30.79"/><polygon class="cls-31" points="394.01 307 357 307 357 449 386.35 449 394.01 372.27 401.66 449 432 449 432 307 394.01 307"/><path class="cls-32" d="M395.1,307.45h7.66a0,0,0,0,1,0,0V336a7,7,0,0,1-7,7H395.1a0,0,0,0,1,0,0v-35.6A0,0,0,0,1,395.1,307.45Z"/><path class="cls-32" d="M432,307v30.37c-10-.27-17.19-13.55-17.19-29.72a3,3,0,0,0-.22-0.66H432Z"/><path class="cls-32" d="M356.73,307L357,337.29c9.68-.27,17.06-13.51,17.06-29.68,0-.17,0-0.61,0-0.61H356.73Z"/><path class="cls-18" d="M345.69,190.09c4.38,0.51,7.44,5.21,6.8,10.74l-9.16,68L329,267.12,336.61,199C337.26,193.45,341.31,189.58,345.69,190.09Z"/><path class="cls-18" d="M443.87,190.09c-4.38.51-7.44,5.21-6.8,10.74l9.16,68,14.34-1.67L452.95,199C452.31,193.45,448.25,189.58,443.87,190.09Z"/><path class="cls-18" d="M452.66,260.46c-4,.09-6.79,3.67-6.69,8.2l3.26,52.27,9.76-.28,1.5-52.3A8,8,0,0,0,452.66,260.46Z"/><polygon class="cls-18" points="428.1 216.51 359.91 216.51 356.63 188.73 431.38 188.73 428.1 216.51"/><path class="cls-33" d="M447.83,199c-13.21-13-32.2-20-53.31-20s-40.1,7-53.31,20H447.83Z"/><path class="cls-34" d="M452.62,192.41c-4.28-4.28-16.58-6.94-29.52-10.4-12.63-3.38-28.58-2.67-28.58-2.67s-15.94-.57-28.58,2.81c-12.94,3.46-25.24,5.95-29.52,10.23S322.95,252,322.95,252h26.24L354,227.07V314h81V227.07L439.87,252H466.1S456.9,196.7,452.62,192.41Z"/><path class="cls-18" d="M336.9,260.46c4,0.09,6.79,3.67,6.69,8.2l-3.26,52.27-9.76-.28-1.5-52.3A8,8,0,0,1,336.9,260.46Z"/><rect class="cls-35" x="356.31" y="447.35" width="30.21" height="8.81"/><rect class="cls-35" x="401.49" y="447.35" width="30.21" height="8.81"/><polygon class="cls-36" points="380.01 226.73 372.85 226.66 369.33 220.43 372.96 214.26 380.12 214.33 383.64 220.56 380.01 226.73"/><polygon class="cls-36" points="380.01 240.94 372.85 240.87 369.33 234.64 372.96 228.48 380.12 228.54 383.64 234.77 380.01 240.94"/><polygon class="cls-36" points="404.06 226.73 396.9 226.66 393.38 220.43 397.02 214.26 404.17 214.33 407.69 220.56 404.06 226.73"/><polygon class="cls-36" points="404.06 240.94 396.9 240.87 393.38 234.64 397.02 228.48 404.17 228.54 407.69 234.77 404.06 240.94"/><polygon class="cls-36" points="428.11 226.73 420.95 226.66 417.43 220.43 421.07 214.26 428.22 214.33 431.75 220.56 428.11 226.73"/><polygon class="cls-36" points="428.11 240.94 420.95 240.87 417.43 234.64 421.07 228.48 428.22 228.54 431.75 234.77 428.11 240.94"/><polygon class="cls-36" points="367.98 219.07 360.83 219.01 357.3 212.78 360.94 206.61 368.1 206.68 371.62 212.91 367.98 219.07"/><polygon class="cls-36" points="367.98 233.29 360.83 233.22 357.3 226.99 360.94 220.82 368.1 220.89 371.62 227.12 367.98 233.29"/><polygon class="cls-36" points="392.03 219.07 384.88 219.01 381.36 212.78 384.99 206.61 392.15 206.68 395.67 212.91 392.03 219.07"/><polygon class="cls-36" points="392.03 233.29 384.88 233.22 381.36 226.99 384.99 220.82 392.15 220.89 395.67 227.12 392.03 233.29"/><polygon class="cls-36" points="416.08 219.07 408.93 219.01 405.41 212.78 409.04 206.61 416.2 206.68 419.72 212.91 416.08 219.07"/><polygon class="cls-36" points="416.08 233.29 408.93 233.22 405.41 226.99 409.04 220.82 416.2 220.89 419.72 227.12 416.08 233.29"/><path class="cls-18" d="M352.28,330.69c0,15.78-3.72,22.4-15.78,22.4-15.8,0-15.78-13.69-15.78-22.4A15.78,15.78,0,1,1,352.28,330.69Z"/><path class="cls-18" d="M469.28,333.69c0,15.78-3.72,22.4-15.78,22.4-15.8,0-15.78-13.69-15.78-22.4A15.78,15.78,0,1,1,469.28,333.69Z"/><path class="cls-37" d="M366.05,461.55l-0.38-4.6a4,4,0,0,0-4.33-3.95h-3.91c-5.16,0-8.47,2.87-9.75,7.87L337.07,478h0C341.58,470,356.08,462.91,366.05,461.55Z"/><path class="cls-37" d="M391.33,480.9L390.86,472l0.9-10.78c-1.29-5-7-8.19-12.17-8.19h-3.91a4.21,4.21,0,0,0-4.33,4.18l0.68,4.76C382,463.3,386.82,472.45,391.33,480.9Z"/><path class="cls-38" d="M389.29,494.72H338.08a3.65,3.65,0,0,1-3.63-4l0.72-7.24h57l0.72,7.24A3.65,3.65,0,0,1,389.29,494.72Z"/><path class="cls-39" d="M368.89,484.61h0a8.76,8.76,0,0,1-10.42,0h0a9.7,9.7,0,0,1-3.59-10.08l9.33-18.69a2.49,2.49,0,0,1,2.43-2.54h3.73a2.49,2.49,0,0,1,2.43,2.54l-0.32,18.69A9.7,9.7,0,0,1,368.89,484.61Z"/><path class="cls-40" d="M390.3,478.64C385.79,470.19,382,463.38,372,462l-2.65,12a5.44,5.44,0,0,0,3.37,4.17l-0.29-.12a9,9,0,0,1-17.55,0,5.3,5.3,0,0,0,3.08-4L360.66,463c-10,1.36-19.08,7.23-23.59,15.68a26.42,26.42,0,0,0-1.91,4.83l5.79,1.9a71.58,71.58,0,0,0,42.73.62l8.52-2.53A26.42,26.42,0,0,0,390.3,478.64Zm-37-.07a5.54,5.54,0,0,1-.83.07A6,6,0,0,0,353.31,478.57Zm0.64-.13-0.28.07ZM374,478.56a5.76,5.76,0,0,0,.86.07A5.57,5.57,0,0,1,374,478.56Zm-1-.24a5.69,5.69,0,0,0,.73.2A5.89,5.89,0,0,1,373,478.32Z"/><rect class="cls-2" x="352.88" y="475.46" width="21.5" height="2.5" rx="1.25" ry="1.25"/><rect class="cls-2" x="353.81" y="471.23" width="21.5" height="2.5" rx="1.25" ry="1.25"/><rect class="cls-2" x="355.3" y="467" width="21.5" height="2.5" rx="1.25" ry="1.25"/><rect class="cls-2" x="356.31" y="462.78" width="21.5" height="2.5" rx="1.25" ry="1.25"/><rect class="cls-2" x="357.47" y="458.55" width="21.5" height="2.5" rx="1.25" ry="1.25"/><path class="cls-37" d="M424.32,461.55l0.38-4.6A4,4,0,0,1,429,453h3.91c5.16,0,8.47,2.87,9.75,7.87L453.3,478h0C448.79,470,434.29,462.91,424.32,461.55Z"/><path class="cls-37" d="M399,480.9l0.47-8.93-0.9-10.78c1.29-5,7-8.19,12.17-8.19h3.91a4.21,4.21,0,0,1,4.33,4.18l-0.68,4.76C408.37,463.3,403.55,472.45,399,480.9Z"/><path class="cls-38" d="M401.08,494.72h51.21a3.65,3.65,0,0,0,3.63-4l-0.72-7.24h-57l-0.72,7.24A3.65,3.65,0,0,0,401.08,494.72Z"/><path class="cls-39" d="M421.47,484.61h0a8.76,8.76,0,0,0,10.42,0h0a9.7,9.7,0,0,0,3.59-10.08l-9.33-18.69a2.49,2.49,0,0,0-2.43-2.54H420a2.49,2.49,0,0,0-2.43,2.54l0.32,18.69A9.7,9.7,0,0,0,421.47,484.61Z"/><path class="cls-40" d="M398.16,483.46l8.52,2.53a71.58,71.58,0,0,0,42.73-.62l5.79-1.9a26.42,26.42,0,0,0-1.91-4.83c-4.51-8.45-13.61-14.32-23.59-15.68l2.66,11.16a5.3,5.3,0,0,0,3.08,4,9,9,0,0,1-17.55,0l-0.29.12A5.44,5.44,0,0,0,421,474l-2.65-12c-10,1.36-13.76,8.17-18.27,16.62A26.42,26.42,0,0,0,398.16,483.46Zm39.72-4.83a5.54,5.54,0,0,1-.83-0.07A6,6,0,0,0,437.88,478.64Zm-1.19-.13-0.28-.07Zm-21.2.13a5.76,5.76,0,0,0,.86-0.07A5.57,5.57,0,0,1,415.49,478.64Zm1.13-.12a5.69,5.69,0,0,0,.73-0.2A5.89,5.89,0,0,1,416.62,478.52Z"/><rect class="cls-2" x="415.98" y="475.46" width="21.5" height="2.5" rx="1.25" ry="1.25" transform="translate(853.47 953.41) rotate(-180)"/><rect class="cls-2" x="415.05" y="471.23" width="21.5" height="2.5" rx="1.25" ry="1.25" transform="translate(851.61 944.96) rotate(-180)"/><rect class="cls-2" x="413.57" y="467" width="21.5" height="2.5" rx="1.25" ry="1.25" transform="translate(848.63 936.5) rotate(-180)"/><rect class="cls-2" x="412.56" y="462.78" width="21.5" height="2.5" rx="1.25" ry="1.25" transform="translate(846.62 928.05) rotate(180)"/><rect class="cls-2" x="411.39" y="458.55" width="21.5" height="2.5" rx="1.25" ry="1.25" transform="translate(844.29 919.6) rotate(180)"/><path class="cls-41" d="M404.94,154s-0.27-.05-0.65.72a20.77,20.77,0,0,0-1.28,3c-0.22.67-.42,1.26-0.62,2s-0.37,1.51-.51,2.34-0.29,1.66-.37,2.54-0.16,1.75-.22,2.64a29.15,29.15,0,0,0,.14,5.21,15.78,15.78,0,0,0,1.11,3.92,16.76,16.76,0,0,0,1.56,3.22c0.23,0.39.45,1.29,0.6,1.5a3.36,3.36,0,0,1,.25.92H383.07a3.37,3.37,0,0,1,.25-0.92c0.15-.21.38-0.81,0.6-1.2a18.74,18.74,0,0,0,1.56-3.37,16.43,16.43,0,0,0,1.11-4,29.66,29.66,0,0,0,.14-5.26c-0.05-.89-0.11-1.8-0.22-2.67s-0.23-1.74-.37-2.58-0.33-1.64-.51-2.41-0.4-1.49-.62-2.15a16.24,16.24,0,0,0-1.28-2.72c-0.38-.78-0.65-0.72-0.65-0.72h21.86Z"/><ellipse class="cls-18" cx="393.94" cy="182.44" rx="11.29" ry="8.47"/><path class="cls-18" d="M435.91,130.73c-1.09,15.76-18.45,35.75-34.25,35.75h-1.93a10.36,10.36,0,0,1-4.63-1.09h0a10.36,10.36,0,0,1-4.63,1.09h1c-15.8,0-36.17-18.87-37.27-34.63l-1.72-12.57V104.51h84.91v14.58Z"/><circle class="cls-18" cx="394.92" cy="104.51" r="42.45"/><path class="cls-18" d="M440.94,109.46a7,7,0,0,0-6.94,7.15V127h2.9A10.83,10.83,0,0,0,448,116.31,6.81,6.81,0,0,0,440.94,109.46Z"/><path class="cls-18" d="M349.78,109.46a7.21,7.21,0,0,1,7.22,7.15V127h-3.44a10.71,10.71,0,0,1-11-10.69A6.93,6.93,0,0,1,349.78,109.46Z"/><path class="cls-42" d="M352.46,110.53h3.28c0-3.28,1.82-11.11,5.65-12-1.64-4.56.73-12.94,6.38-15.67s19.68,2.37,27.33,2.37c0.18-9.84,0-35.35,0-35.35l-30.56,8.71c-8.28.73-15.9,3.5-13.4,27.64Z"/><path class="cls-43" d="M437.9,110.53h-3.28c0-3.28-1.82-11.11-5.65-12,1.64-4.56-.73-12.94-6.38-15.67S402.75,85.2,395.1,85.2c-0.18-9.84,0-29.33,0-29.33l30.72,2.7c8.28,0.73,15.9,3.5,13.4,27.64Z"/><path class="cls-5" d="M390.63,132.92h9a0.27,0.27,0,0,1,.09.52l-4.51,1.67a0.27,0.27,0,0,1-.19,0l-4.5-1.68A0.27,0.27,0,0,1,390.63,132.92Z"/><path class="cls-42" d="M439.7,51.51L423.54,47.3a22.71,22.71,0,0,0-2.63-1.84c-10.55-6.32-49.28,2.82-55.52,13.24s4.91,17.43,15.46,23.75,24.51,1.85,31.7-7.88C413.57,73.19,439.7,51.51,439.7,51.51Z"/><path class="cls-2" d="M407.16,117.74A6.37,6.37,0,0,0,409.6,123H428v-1.89a8.82,8.82,0,0,0-7.67-8.61c-0.24,0-.7-0.5-0.94-0.5H409.2s0,0.18,0,.2A8.78,8.78,0,0,0,407.16,117.74Z"/><circle class="cls-44" cx="417.53" cy="118.18" r="2.37"/><path class="cls-42" d="M408.84,109.19l9.44-1,6,0.76c0.76,0.09,1.52.19,2.27,0.32l1,0.18,0-.19c0.18-1.65-2.69-3.33-6.4-3.75l-2.85-.32-9.22,1.16c-0.81-.09-1.51.13-1.55,0.49l-0.17,1.52C407.4,108.73,408,109.1,408.84,109.19Z"/><path class="cls-42" d="M380.88,113.77L372,110.5l-6-.73c-0.76-.1-1.52-0.18-2.28-0.24l-1-.08,0-.19c0.22-1.64,3.43-2.57,7.12-2.07l2.84,0.39,8.66,3.37c0.81,0.11,1.43.49,1.38,0.85l-0.21,1.52C382.39,113.68,381.69,113.88,380.88,113.77Z"/><path class="cls-45" d="M410.09,141.28s-0.11.41-.34,1.12a7.3,7.3,0,0,1-.51,1.25l-0.37.77-0.51.79a10.87,10.87,0,0,1-3.18,3.21,7.55,7.55,0,0,1-1.09.66,7.94,7.94,0,0,1-1.19.56c-0.41.15-.83,0.31-1.25,0.45l-1.29.33c-0.43.1-.87,0.13-1.31,0.19a10.17,10.17,0,0,1-1.3.11,17.38,17.38,0,0,1-2.51-.05c-0.81,0-1.58-.2-2.3-0.31s-1.4-.31-2-0.47-1.17-.36-1.66-0.53-0.9-.35-1.25-0.49c-0.68-.29-1.07-0.47-1.07-0.47s0.43,0,1.16.05,1.78,0.1,3,.2c0.62,0,1.29,0,2,.09s1.44,0,2.19,0l1.14,0c0.39,0,.77-0.07,1.16-0.09a17.32,17.32,0,0,0,2.32-.33l1.14-.25,1.09-.35a13.42,13.42,0,0,0,2-.9,17.71,17.71,0,0,0,1.78-1.11c0.5-.45,1-0.81,1.44-1.26l0.62-.61,0.52-.59a11.82,11.82,0,0,0,.84-1C409.82,141.6,410.09,141.28,410.09,141.28Z"/><path class="cls-46" d="M363.59,121.82a7.08,7.08,0,0,1,.81-0.76c0.29-.25.61-0.43,0.92-0.64a17.29,17.29,0,0,1,2-1,20.07,20.07,0,0,1,4.31-1.28l1.12-.17,1.13-.09c0.38,0,.76,0,1.14,0s0.76,0,1.14,0a10,10,0,0,1,1.13.12,10.09,10.09,0,0,1,1.13.19c0.37,0.09.75,0.15,1.11,0.26l1.09,0.35-0.36,1-1.95-.63c-0.66-.18-1.31-0.38-2-0.54s-1.32-.34-2-0.46-1.34-.26-2-0.37a37.69,37.69,0,0,0-4.08-.41c-0.68,0-1.37,0-2.06,0a18.24,18.24,0,0,0-2.06.18,11.88,11.88,0,0,1,2-.46c0.69-.11,1.38-0.18,2.08-0.22,0.35,0,.7,0,1,0s0.7,0,1,0,0.7,0,1,0,0.7,0,1,.08a34,34,0,0,1,4.14.67c1.37,0.3,2.71.71,4,1.14l-0.36,1-1-.32c-0.34-.12-0.69-0.17-1-0.26a16.87,16.87,0,0,0-2.12-.31c-0.36,0-.71-0.08-1.07-0.07s-0.72,0-1.08,0c-0.72,0-1.44.08-2.16,0.16-0.36,0-.72.11-1.07,0.16s-0.71.14-1.07,0.21-0.71.17-1.06,0.25-0.7.21-1,.31a17.05,17.05,0,0,0-2,.78c-0.32.17-.66,0.32-1,0.52A7,7,0,0,0,363.59,121.82Z"/><circle class="cls-2" cx="678.1" cy="240.69" r="1.25"/><path class="cls-3" d="M683.25,244.57a1.22,1.22,0,0,0-1.2,1.25l0,0h1.17v-1.27Z"/><path class="cls-3" d="M674.55,245.84l0,0a1.27,1.27,0,0,0-1.27-1.25v1.27h1.3Z"/><path class="cls-3" d="M673.25,235.84V237a1.26,1.26,0,0,0,1.3-1.2h-1.3Z"/><path class="cls-3" d="M682.09,235.84a1.15,1.15,0,0,0,1.17,1.2v-1.2h-1.17Z"/><path class="cls-47" d="M679.7,211c-13.21-13-32.2-20-53.31-20s-40.1,7-53.31,20H679.7Z"/><path class="cls-48" d="M637.39,168a2.31,2.31,0,0,0-.65.93,23,23,0,0,0-1.28,3.08c-0.22.67-.42,1.32-0.62,2.08s-0.37,1.53-.51,2.37S634,178.13,634,179s-0.16,1.75-.22,2.64a29.19,29.19,0,0,0,.14,5.21,15.79,15.79,0,0,0,1.11,3.92,16.77,16.77,0,0,0,1.56,3.22c0.23,0.39.45,1.08,0.6,1.29a2.56,2.56,0,0,1,.25.71H615.53a2.56,2.56,0,0,1,.25-0.71c0.15-.21.38-0.71,0.6-1.1a18,18,0,0,0,1.56-3.32,16.21,16.21,0,0,0,1.11-4,29.51,29.51,0,0,0,.14-5.24c-0.05-.89-0.11-1.79-0.22-2.66s-0.23-1.74-.37-2.57-0.33-1.64-.51-2.4-0.4-1.49-.62-2.15a20,20,0,0,0-1.28-2.93,2.32,2.32,0,0,0-.65-0.94h21.86Z"/><ellipse class="cls-47" cx="626.39" cy="196.86" rx="11.29" ry="8.47"/><ellipse class="cls-49" cx="633.03" cy="121.55" rx="61.64" ry="58.04"/><path class="cls-47" d="M677.39,130.87a8,8,0,0,0-4.42,1.36c0.08-1.26.09-2.54,0.09-3.82,0-25.65-21.26-46.44-47.45-46.45s-47.45,20.8-47.45,46.45c0,1.34,0,2.67.1,4a7.34,7.34,0,0,0-4.49-1.51c-4.16,0-7.45,2.49-7.45,6.58,0,6.28,5.26,10.55,11.65,10.55h0.15c0.59,10,3.7,15.51,18.52,24,2.68,1.53,14.92,9,29,9,14.81,0,26.28-7.47,29-9C669.39,163.45,672.5,158,673.09,148h0.5C680,148,685,143.73,685,137.45,685,133.37,681.55,130.87,677.39,130.87Z"/><path class="cls-47" d="M671.32,205.51c-4.38.51-7.44,5.21-6.8,10.74l7.16,50,14.14-1.64-5.43-50.16C679.76,208.88,675.71,205,671.32,205.51Z"/><path class="cls-47" d="M647.3,307.28c-5.51.06-9.93,5.5-9.86,12.45l2.43,70.64,18-.18-0.49-70.66C657.34,312.58,652.82,307.23,647.3,307.28Z"/><path class="cls-47" d="M604.3,307.28c-5.51.06-9.93,5.5-9.86,12.45l2.43,70.64,18-.18-0.49-70.66C614.34,312.58,609.82,307.23,604.3,307.28Z"/><path class="cls-47" d="M605.57,377.27c-5,0-9,5.49-8.9,12.44l2.28,69.64,16.3-.16-0.53-69.66C614.64,382.57,610.55,377.22,605.57,377.27Z"/><path class="cls-47" d="M651.34,375.27c5,0,9,5.49,8.9,12.44L658,460.35l-16.3-.16,0.53-72.66C642.27,380.57,646.36,375.22,651.34,375.27Z"/><path class="cls-47" d="M679.25,257.89c4,0.09,6.79,3.67,6.69,8.2l-3.26,50.27-9.76-.28-1.5-50.3A8,8,0,0,1,679.25,257.89Z"/><path class="cls-47" d="M583.12,205.63c4.29,1,6.78,6,5.5,11.46l-12.93,48.78-14-3.32,11.43-49.14C574.35,208,578.83,204.61,583.12,205.63Z"/><path class="cls-47" d="M569,255.55c4-.08,6.94,3.37,7,7.91l-1.11,50.36-9.76.14-3.65-50.19A8,8,0,0,1,569,255.55Z"/><path class="cls-47" d="M585.29,323.63c0,13.34-3.15,18.94-13.34,18.94-13.35,0-13.34-11.57-13.34-18.94A13.34,13.34,0,1,1,585.29,323.63Z"/><path class="cls-47" d="M621.1,154.69a2.15,2.15,0,0,1,.41-1.89,2.28,2.28,0,0,1,.65-0.63,2.18,2.18,0,0,1,.92-0.25,1.85,1.85,0,0,1,.69.07,1.12,1.12,0,0,1,.23.09v0.08s-0.31.17-.62,0.36l-0.5.31a3.31,3.31,0,0,0-.63.33,3,3,0,0,0-.83,1,2.3,2.3,0,0,0-.21.54H621.1Z"/><path class="cls-47" d="M630.33,154.69a2.15,2.15,0,0,0-.41-1.89,2.28,2.28,0,0,0-.65-0.63,2.18,2.18,0,0,0-.92-0.25,0.58,0.58,0,0,0-.4.07c-0.16,0,.05.09,0.05,0.09v0.08a0.64,0.64,0,0,0,.33.36c0.16,0.1.17,0.2,0.35,0.31a2.74,2.74,0,0,1,1.35,1.31,1.8,1.8,0,0,1,.19.54h0.1Z"/><path class="cls-49" d="M574.68,131.05s2.59,22.34,6,28c-1.94-11.13-4.18-23.65-1.06-26.59S584,117.59,584,117.59v-7l-8.7,1.17Z"/><path class="cls-49" d="M672.89,143.35a0.79,0.79,0,0,1,.36.57,36.7,36.7,0,0,0,.65,3.68c1.66-7.91,2.79-16.55,2.79-16.55L676,111.76l-8.81-1.17v7s1.42,12,4.54,14.91C673.31,134,673.42,138.17,672.89,143.35Z"/><path class="cls-50" d="M581,117c15-10,23.57-19.32,44.68-19.32S656.39,105,670.36,117h1.44c-1.61-19-21.64-35.64-46.12-35.64S581.17,98,579.56,117H581Z"/><path class="cls-51" d="M670.36,119c-5.76-17-23.57-31.32-44.68-31.32S586.76,102,581,119h41.3l3.42-2.15,3.33,2.15h41.31Z"/><path class="cls-49" d="M694.81,142.31c-0.09,17.94-2.27,19.62-11.25,19.39-11.16-.29-11.17-2.31-11.25-19.39,0-9.06,4.28-16.4,9.67-16.4S694.87,133.25,694.81,142.31Z"/><path class="cls-49" d="M693.64,166.27c-0.07,16.23-2,17.75-10.08,17.54-10-.26-10-2.09-10.08-17.54,0-8.19,3.84-14.83,8.66-14.83S693.68,158.08,693.64,166.27Z"/><path class="cls-49" d="M692.49,187.24c-0.06,14.51-1.79,15.87-8.94,15.68-8.88-.23-8.88-1.87-8.94-15.68,0-7.33,3.41-13.27,7.68-13.27S692.53,179.91,692.49,187.24Z"/><path class="cls-49" d="M691.37,208.21c0,12.8-1.56,14-7.81,13.83-7.77-.21-7.77-1.65-7.81-13.83,0-6.46,3-11.7,6.71-11.7S691.4,201.75,691.37,208.21Z"/><path class="cls-49" d="M676.11,241.59h0l0,0h0Z"/><path class="cls-49" d="M689.21,222.88a6.55,6.55,0,0,0-8.58-2.5,7,7,0,0,0-3.17,3.38,5.71,5.71,0,0,0,1.42,6.39c1.65,1.65,2.23,4,1,7a10.06,10.06,0,0,1-2.52,3.52h0l9.31-7.08C689.74,232,690.84,225.8,689.21,222.88Z"/><rect class="cls-52" x="675.89" y="219.91" width="15.59" height="2.29" rx="1.15" ry="1.15"/><polygon class="cls-47" points="662.87 296.59 589.91 296.59 586.91 207.34 665.87 207.34 662.87 296.59"/><rect class="cls-47" x="590.02" y="296.59" width="72.75" height="21.83"/><path class="cls-50" d="M661.55,211.52c0-5.33,5.82-9.39,5.82-9.39S663.14,199.31,654,196v9.19c0,7-12.82,12.72-29,12.72s-29-5.69-29-12.72v-8.1c-6.67,2.82-11.53,5.36-11.53,5.36s5.5,3.69,5.5,9-2.41,15.16-2.41,15.16l-3,174.32H667l-1.79-174.32S661.55,216.85,661.55,211.52Z"/><path class="cls-53" d="M661.55,211.52c0-5.33,5.82-9.39,5.82-9.39S663.14,199.31,654,196v9.19c0,7-12.82,12.72-29,12.72s-29-5.69-29-12.72v-8.1c-6.67,2.82-11.53,5.36-11.53,5.36s5.5,3.69,5.5,9-2.41,15.16-2.41,15.16l-3,174.32H667l-1.79-174.32S661.55,216.85,661.55,211.52Z"/><polygon class="cls-54" points="587 258 665.54 258 665.87 277 586.69 277 587 258"/><path class="cls-55" d="M597.14,84.09l-5.78,8.72-0.56,1-1.16.1L578.8,95.58c-1.46.91-1.59,4.32,0.42,7.16l0.27,0.38c2,2.84,5.12,4.22,6.57,3.31l6.79-9.57,12.08-2.25c1.46-.91,1.33-4.16-0.68-7L604,87.23C602,84.39,598.6,83.17,597.14,84.09Z"/><ellipse class="cls-56" cx="591.74" cy="95.59" rx="3.19" ry="3"/><path class="cls-47" d="M688.29,323.63c0,13.34-3.15,18.94-13.34,18.94-13.35,0-13.34-11.57-13.34-18.94A13.34,13.34,0,1,1,688.29,323.63Z"/><path class="cls-57" d="M615.72,466.16a4.09,4.09,0,0,1-.58.51c0,0.18,0,.35,0,0.52,0.32,0.18.63,0.38,0.94,0.58l2.81,5.3,4.72,3.59-0.19-.59A19.27,19.27,0,0,0,615.72,466.16Z"/><path class="cls-57" d="M598.82,468.64a3.07,3.07,0,0,0,.41.31A3.2,3.2,0,0,1,598.82,468.64Z"/><path class="cls-57" d="M623.58,476.65l-8,5.79a13.69,13.69,0,0,1-16.67-.49l-6.57-5.36a21.7,21.7,0,0,1,6.42-8l0.07,0.05a4.33,4.33,0,0,1-.8-1A21.48,21.48,0,0,0,591,484c0,11.11,10.49,10.75,19.81,10.75s13.94,0.36,13.94-10.75A23.47,23.47,0,0,0,623.58,476.65Z"/><path class="cls-47" d="M617.1,463.56c0-.21,0-0.3,0-0.5-0.19-4.24-2.31-7.06-4.9-7.06H610v2.89a8.52,8.52,0,0,0-2.91-.54,8.14,8.14,0,0,0-2.09.28V456h-2.48c-2.92,0-5.3,2.42-5.52,6a2.38,2.38,0,0,0,0,.32,5.2,5.2,0,0,0,2,4.27,8.15,8.15,0,0,0,15.92,2.34C616.19,468.11,617.1,466.09,617.1,463.56Z"/><path class="cls-47" d="M615.11,467.18c0-.17,0-0.34,0-0.52a5,5,0,0,0,2-4.2c0-.17,0-0.29,0-0.46-0.21-3.58-2.6-6-5.52-6H609v2.63a10.58,10.58,0,0,0-2.09-.28,8.52,8.52,0,0,0-2.91.54V456h-2.1c-2.59,0-4.71,2.82-4.9,7.06a3.29,3.29,0,0,0,0,.35c0,2.53.92,4.64,2.24,5.46a2.93,2.93,0,0,1-.47-0.33,21.76,21.76,0,0,0-6.42,8l6.57,5.37a13.69,13.69,0,0,0,16.67.5l8-5.78A21.06,21.06,0,0,0,615.11,467.18Zm-5.76,7.12-0.41.1Zm2.06-1-0.25.15Zm-0.65.38-0.3.14Zm-0.69.32-0.35.13Zm-3.07.6c0.27,0,.54,0,0.81,0C607.54,474.64,607.27,474.65,607,474.65Zm1.59-.16-0.5.08Zm3.83-1.92,0.15-.13Zm-0.61.49,0.2-.14ZM615,468h0Zm-0.17.74v0Zm-0.24.71v0Zm-0.3.68,0,0.05Zm-0.35.65,0,0.07Zm-0.41.61-0.07.1Zm-0.46.57L613,472Z"/><path class="cls-57" d="M641.64,467.18s0.2-.1.2-0.14l1.16,0.17v-1.06l-1.37-.33-0.49.33a19.35,19.35,0,0,0-7.73,9.91A20.88,20.88,0,0,1,641.64,467.18Z"/><path class="cls-57" d="M658.74,467.66a4.33,4.33,0,0,1-.8,1l0.07-.05a21.7,21.7,0,0,1,6.42,8l-6.57,5.36a13.69,13.69,0,0,1-16.67.49l-8-5.79A23.47,23.47,0,0,0,632,484c0,11.11,4.62,10.75,13.94,10.75s19.81,0.36,19.81-10.75A21.48,21.48,0,0,0,658.74,467.66Z"/><path class="cls-57" d="M657.93,468.64a3.2,3.2,0,0,1-.41.31A3.07,3.07,0,0,0,657.93,468.64Z"/><path class="cls-47" d="M658.14,468.62a6.82,6.82,0,0,0,1.81-5.06c0-.21,0-0.3,0-0.5-0.19-4.24-2.31-7.06-4.9-7.06h-2v2.9a8.52,8.52,0,0,0-2.91-.54,10.58,10.58,0,0,0-2.09.28V456h-2.63c-2.92,0-5.3,2.42-5.52,6a2.39,2.39,0,0,0,0,.32,5.2,5.2,0,0,0,2,4.27c0,0.14,0,.31,0,0.45,0,0,0-.07,0-0.12a21.86,21.86,0,0,0-8.63,9.66l8.1,5.85a13.69,13.69,0,0,0,16.67-.49l6.57-5.35A21.71,21.71,0,0,0,658.14,468.62Z"/><path class="cls-2" d="M602.94,146.83c-6.17.39-11.38-2.25-11.64-5.89s4.53-6.92,10.7-7.31,11.38,2.25,11.64,5.89S609.11,146.44,602.94,146.83Z"/><path class="cls-2" d="M648.09,146.83c6.17,0.39,11.38-2.25,11.64-5.89S655.2,134,649,133.63s-11.38,2.25-11.64,5.89S641.92,146.44,648.09,146.83Z"/><path class="cls-58" d="M620.89,154.92l4.41,1,5.16-1a0.27,0.27,0,0,1,.1.52l-4.79,1.67a0.3,0.3,0,0,1-.2,0l-4.78-1.68A0.27,0.27,0,0,1,620.89,154.92Z"/><ellipse class="cls-59" cx="602.64" cy="142.04" rx="4.02" ry="3.79"/><ellipse class="cls-60" cx="604.6" cy="140.98" rx="1.12" ry="1.06"/><ellipse class="cls-59" cx="649.36" cy="142.04" rx="4.02" ry="3.79"/><ellipse class="cls-60" cx="651.33" cy="140.98" rx="1.12" ry="1.06"/><path class="cls-61" d="M615.21,165.21s7.77,0.23,10.95.23,10.8-.26,10.8-0.26a56.64,56.64,0,0,0-11-1.51A53,53,0,0,0,615.21,165.21Z"/><path class="cls-61" d="M614.63,165.72S622.9,169,626.16,169s11.53-3.28,11.53-3.28-6.93,5.95-11.43,5.95S614.63,165.72,614.63,165.72Z"/><path class="cls-2" d="M637.69,165.72a21.89,21.89,0,0,1-23.06,0c0-1.26,5.16-.28,11.53-0.28S637.69,164.46,637.69,165.72Z"/><path class="cls-51" d="M590.17,131.73a1.62,1.62,0,0,1,.32-1,5.55,5.55,0,0,1,2.22-1.66,19,19,0,0,1,3.7-1.29,38.74,38.74,0,0,1,4.39-.83,63.43,63.43,0,0,1,8.32-.53c1.14,0,2.08,0,2.75,0a0.79,0.79,0,0,1,.76.31,2,2,0,0,1,.25.46,2.05,2.05,0,0,1-.29.44,0.77,0.77,0,0,1-.77.25c-0.65,0-1.58-.06-2.7-0.07-2.24,0-5.22,0-8.19.26-0.74.06-1.48,0.13-2.21,0.22s-1.43.18-2.13,0.3a23.87,23.87,0,0,0-3.68.88,5.66,5.66,0,0,0-2.28,1.31,1.82,1.82,0,0,0-.39.63Z"/><path class="cls-51" d="M660.74,131.73l-0.06-.26a1.82,1.82,0,0,0-.39-0.63,5.66,5.66,0,0,0-2.28-1.31,23.87,23.87,0,0,0-3.68-.88c-0.7-.12-1.4-0.2-2.13-0.3s-1.47-.16-2.21-0.22c-3-.24-6-0.28-8.19-0.26-1.12,0-2,0-2.7.07a0.77,0.77,0,0,1-.77-0.25,2.05,2.05,0,0,1-.29-0.44,2,2,0,0,1,.25-0.46,0.79,0.79,0,0,1,.76-0.31c0.66,0,1.61,0,2.75,0a63.43,63.43,0,0,1,8.32.53,38.75,38.75,0,0,1,4.39.83,19,19,0,0,1,3.7,1.29,5.55,5.55,0,0,1,2.22,1.66A1.62,1.62,0,0,1,660.74,131.73Z"/></svg>