<?xml version="1.0" encoding="UTF-8"?><svg width="38px" height="37px" viewBox="0 0 38 37" version="1.1" xmlns="http://www.w3.org/2000/svg" xmlns:xlink="http://www.w3.org/1999/xlink"><g stroke="none" stroke-width="1" fill="none" fill-rule="evenodd"><g transform="translate(-452.000000, -4786.000000)" fill="#FFFFFF" fill-rule="nonzero"><path d="M470.627178,4786.08054 C460.340392,4786.08054 452,4794.37651 452,4804.6085 C452,4812.79591 457.336686,4819.73937 464.739098,4822.18879 C465.670238,4822.35844 466.010184,4821.78621 466.010184,4821.29768 C466.010184,4820.85662 465.993122,4819.39559 465.984026,4817.84858 C460.804252,4818.96811 459.709396,4815.66376 459.709396,4815.66376 C458.861277,4813.52418 457.641343,4812.95423 457.641343,4812.95423 C455.948489,4811.80528 457.769768,4811.8279 457.769768,4811.8279 C459.639981,4811.9568 460.624602,4813.73678 460.624602,4813.73678 C462.286786,4816.56845 464.985799,4815.74971 466.045401,4815.27475 C466.214719,4814.08056 466.69677,4813.26182 467.227791,4812.80043 C463.092848,4812.33228 458.743038,4810.74227 458.743038,4803.64273 C458.743038,4801.61848 459.469535,4799.96746 460.658727,4798.67036 C460.468854,4798.19993 459.827635,4796.31478 460.842889,4793.76472 C460.842889,4793.76472 462.405025,4793.26714 465.965799,4795.66456 C467.450589,4795.25181 469.043431,4795.04825 470.627141,4795.04145 C472.209724,4795.04825 473.803657,4795.25405 475.290775,4795.6668 C478.844783,4793.26714 480.409175,4793.76696 480.409175,4793.76696 C481.427848,4796.3193 480.78663,4798.20217 480.595628,4798.67036 C481.789368,4799.96746 482.510189,4801.61852 482.510189,4803.64273 C482.510189,4810.76037 478.15354,4812.32772 474.003827,4812.78686 C474.674623,4813.36134 475.268074,4814.48767 475.268074,4816.21562 C475.268074,4818.69222 475.243043,4820.68929 475.243043,4821.29996 C475.243043,4821.79301 475.581825,4822.36973 476.525481,4822.18879 C483.922253,4819.73485 489.254355,4812.79139 489.254355,4804.6085 C489.254355,4794.37651 480.913964,4786.08054 470.627178,4786.08054 Z"></path></g></g></svg>