<!-- Generator: Adobe Illustrator 19.1.0, SVG Export Plug-In  -->
<svg version="1.1"
	 xmlns="http://www.w3.org/2000/svg" xmlns:xlink="http://www.w3.org/1999/xlink" xmlns:a="http://ns.adobe.com/AdobeSVGViewerExtensions/3.0/"
	 x="0px" y="0px" width="135.5px" height="101px" viewBox="0 0 135.5 101" style="enable-background:new 0 0 135.5 101;"
	 xml:space="preserve">
<style type="text/css">
	.st0{fill:#E5E5E5;}
	.st1{clip-path:url(#SVGID_2_);fill:#C49A6C;}
	.st2{clip-path:url(#SVGID_2_);fill:#8B5E3C;}
	.st3{clip-path:url(#SVGID_2_);fill:#8362AA;}
	.st4{clip-path:url(#SVGID_2_);}
	.st5{fill:#7BCCC0;}
	.st6{clip-path:url(#SVGID_2_);fill:url(#SVGID_3_);}
	.st7{fill:#C49A6C;}
	.st8{clip-path:url(#SVGID_2_);fill:#603913;}
	.st9{clip-path:url(#SVGID_2_);fill:url(#SVGID_4_);}
	.st10{clip-path:url(#SVGID_2_);fill:#A97C50;}
	.st11{clip-path:url(#SVGID_2_);fill:#E6E7E8;}
	.st12{clip-path:url(#SVGID_2_);fill:#006838;}
	.st13{fill:#443526;}
	.st14{fill:#303030;}
	.st15{clip-path:url(#SVGID_6_);fill:#C49A6C;}
	.st16{clip-path:url(#SVGID_6_);fill:#8B5E3C;}
	.st17{clip-path:url(#SVGID_6_);fill:#8362AA;}
	.st18{clip-path:url(#SVGID_6_);}
	.st19{clip-path:url(#SVGID_6_);fill:url(#SVGID_7_);}
	.st20{clip-path:url(#SVGID_6_);fill:#603913;}
	.st21{clip-path:url(#SVGID_6_);fill:url(#SVGID_8_);}
	.st22{clip-path:url(#SVGID_6_);fill:#A97C50;}
	.st23{clip-path:url(#SVGID_6_);fill:#E6E7E8;}
	.st24{clip-path:url(#SVGID_6_);fill:#006838;}
</style>
<defs>
</defs>
<g>
	<path class="st0" d="M135.5,41.3c0-11.8-9.5-21.3-21.3-21.3c-1,0-2,0.1-3,0.2c-0.8-8.5-8.7-15.1-18.3-15.1c-6.4,0-12.1,3-15.4,7.5
		C72.2,5,63.3,0,53.3,0C38.6,0,26.4,10.7,24.2,24.7C10.6,26.1,0,37.5,0,51.4c0,14.8,12,26.8,26.8,26.8c3.5,0,6.8-0.7,9.9-1.9
		c3.6,10.2,14,17.6,26.2,17.6c9.5,0,17.9-4.5,22.9-11.2c3.5,2.2,7.6,3.5,12,3.5c12.9,0,23.3-10.9,23.3-24.3c0-0.1,0-0.2,0-0.3
		C129.4,58.6,135.5,50.7,135.5,41.3z"/>
	<g>
		<defs>
			<path id="SVGID_1_" d="M135.5,41.3c0-11.8-9.5-21.3-21.3-21.3c-1,0-2,0.1-3,0.2c-0.8-8.5-8.7-15.1-18.3-15.1
				c-6.4,0-12.1,3-15.4,7.5C72.2,5,63.3,0,53.3,0C38.6,0,26.4,10.7,24.2,24.7C10.6,26.1,0,37.5,0,51.4c0,14.8,12,26.8,26.8,26.8
				c3.5,0,6.8-0.7,9.9-1.9c3.6,10.2,14,17.6,26.2,17.6c9.5,0,17.9-4.5,22.9-11.2c3.5,2.2,7.6,3.5,12,3.5c12.9,0,23.3-10.9,23.3-24.3
				c0-0.1,0-0.2,0-0.3C129.4,58.6,135.5,50.7,135.5,41.3z"/>
		</defs>
		<clipPath id="SVGID_2_">
			<use xlink:href="#SVGID_1_"  style="overflow:visible;"/>
		</clipPath>
		<path class="st1" d="M54.6,63.1c1.3,0.1,2.2,1.5,2,3.1l-2.7,19.7l-4.2-0.5l2.2-19.7C52.1,64.1,53.3,63,54.6,63.1z"/>
		<path class="st1" d="M83,63.1c-1.3,0.1-2.2,1.5-2,3.1l2.7,19.7l4.2-0.5l-2.2-19.7C85.4,64.1,84.2,63,83,63.1z"/>
		<path class="st1" d="M85.5,83.5c-1.2,0-2,1.1-1.9,2.4l0.9,15.1l2.8-0.1l0.4-15.1C87.8,84.5,86.7,83.5,85.5,83.5z"/>
		<polygon class="st1" points="78.4,70.8 58.7,70.8 57.7,62.7 79.4,62.7 		"/>
		<path class="st2" d="M84.1,65.7c-3.8-4-9.3-5.8-15.4-5.8c-6.1,0-11.6,1.8-15.4,5.8H84.1z"/>
		<path class="st3" d="M85.5,63.6c-1.2-1.2-4.8-1.9-8.5-2.9c-3.7-1-8.3-0.7-8.3-0.7s-4.6-0.1-8.3,0.8c-3.7,1-7.3,1.6-8.5,2.8
			C50.6,64.9,48,80.7,48,80.7h7.6l1.2-6.9v24.9h12h0.3h11.7V73.8l1,6.9h7.6C89.4,80.7,86.7,64.9,85.5,63.6z"/>
		<path class="st1" d="M52,83.5c1.2,0,2,1.1,1.9,2.4L53,101l-2.8-0.1l-0.4-15.1C49.8,84.5,50.9,83.5,52,83.5z"/>
		<g class="st4">
			<polygon class="st5" points="64.5,73.7 62.4,73.7 61.4,71.9 62.4,70.1 64.5,70.2 65.5,72 			"/>
			<polygon class="st5" points="64.5,77.9 62.4,77.8 61.4,76 62.4,74.3 64.5,74.3 65.5,76.1 			"/>
			<polygon class="st5" points="71.4,73.7 69.4,73.7 68.4,71.9 69.4,70.1 71.5,70.2 72.5,72 			"/>
			<polygon class="st5" points="71.4,77.9 69.4,77.8 68.4,76 69.4,74.3 71.5,74.3 72.5,76.1 			"/>
			<polygon class="st5" points="78.4,73.7 76.3,73.7 75.3,71.9 76.4,70.1 78.4,70.2 79.5,72 			"/>
			<polygon class="st5" points="78.4,77.9 76.3,77.8 75.3,76 76.4,74.3 78.4,74.3 79.5,76.1 			"/>
			<polygon class="st5" points="61,71.5 58.9,71.5 57.9,69.7 59,67.9 61,67.9 62.1,69.7 			"/>
			<polygon class="st5" points="61,75.6 58.9,75.6 57.9,73.8 59,72 61,72.1 62.1,73.9 			"/>
			<polygon class="st5" points="68,71.5 65.9,71.5 64.9,69.7 65.9,67.9 68,67.9 69,69.7 			"/>
			<polygon class="st5" points="68,75.6 65.9,75.6 64.9,73.8 65.9,72 68,72.1 69,73.9 			"/>
			<polygon class="st5" points="74.9,71.5 72.9,71.5 71.8,69.7 72.9,67.9 75,67.9 76,69.7 			"/>
			<polygon class="st5" points="74.9,75.6 72.9,75.6 71.8,73.8 72.9,72 75,72.1 76,73.9 			"/>
		</g>
		<linearGradient id="SVGID_3_" gradientUnits="userSpaceOnUse" x1="68.0088" y1="61.0349" x2="69.0705" y2="52.3879">
			<stop  offset="0.4652" style="stop-color:#C49A6C"/>
			<stop  offset="0.4807" style="stop-color:#BF9568"/>
			<stop  offset="0.4948" style="stop-color:#B4895F"/>
			<stop  offset="0.5084" style="stop-color:#A47851"/>
			<stop  offset="0.5216" style="stop-color:#8E613F"/>
			<stop  offset="0.5236" style="stop-color:#8B5E3C"/>
		</linearGradient>
		<path class="st6" d="M71.7,52.7c0,0-0.1,0-0.2,0.2c-0.1,0.2-0.2,0.5-0.4,0.9C71.1,54,71,54.1,71,54.4c-0.1,0.2-0.1,0.4-0.1,0.7
			c0,0.2-0.1,0.5-0.1,0.7c0,0.3,0,0.5-0.1,0.8c0,0.5,0,1,0,1.5c0.1,0.5,0.2,0.7,0.3,1.1c0.1,0.4,0.3,0.7,0.5,0.9
			c0.1,0.1,0.1,0.3,0.2,0.4c0,0.1,0.1,0.2,0.1,0.2h-6.3c0,0,0-0.2,0.1-0.2c0-0.1,0.1-0.2,0.2-0.3c0.1-0.2,0.3-0.6,0.5-1
			c0.1-0.4,0.3-0.7,0.3-1.2c0.1-0.5,0.1-1,0-1.5c0-0.3,0-0.5-0.1-0.8c0-0.3-0.1-0.5-0.1-0.7c0-0.2-0.1-0.5-0.1-0.7
			c-0.1-0.2-0.1-0.4-0.2-0.6c-0.1-0.4-0.3-0.6-0.4-0.8c-0.1-0.2-0.2-0.2-0.2-0.2H71.7z"/>
		<ellipse class="st1" cx="68.5" cy="60.9" rx="3.3" ry="2.5"/>
		<g class="st4">
			<path class="st7" d="M80.7,46c-0.3,4.6-5.3,10.3-9.9,10.3h-0.6c-0.5,0-0.9-0.1-1.3-0.3l0,0l0,0c-0.4,0.2-0.9,0.3-1.3,0.3l0.3,0
				c-4.6,0-10.5-5.5-10.8-10l-0.5-3.6v-4.3h24.6v4.2L80.7,46z"/>
			<circle class="st7" cx="68.8" cy="38.4" r="12.3"/>
		</g>
		<path class="st1" d="M82,39.8c-1.1,0-2.2,0.9-2.2,2.1v2.8H81c1.8,0,3.1-1.3,3.1-3C84.1,40.6,83.1,39.8,82,39.8z"/>
		<path class="st1" d="M55.7,39.8c1.1,0,2.1,0.9,2.1,2.1v2.8h-1c-1.8,0-3.2-1.3-3.2-3C53.7,40.6,54.6,39.8,55.7,39.8z"/>
		<path class="st8" d="M56.5,40.1h0.9c0-0.9,0.5-3.2,1.6-3.5c-0.5-1.3,0.2-3.7,1.8-4.5c1.6-0.8,5.7,0.7,7.9,0.7
			c0.1-2.8,0-10.2,0-10.2L60,25.1c-2.4,0.2-4.6,1-3.9,8L56.5,40.1z"/>
		<linearGradient id="SVGID_4_" gradientUnits="userSpaceOnUse" x1="68.8326" y1="32.1993" x2="81.7688" y2="32.1993">
			<stop  offset="0" style="stop-color:#3C2415"/>
			<stop  offset="1" style="stop-color:#603913"/>
		</linearGradient>
		<path class="st9" d="M81.2,40.1h-0.9c0-0.9-0.5-3.2-1.6-3.5c0.5-1.3-0.2-3.7-1.8-4.5c-1.6-0.8-5.7,0.7-8,0.7c-0.1-2.8,0-8.5,0-8.5
			l8.9,0.8c2.4,0.2,4.6,1,3.9,8L81.2,40.1z"/>
		<path class="st10" d="M67.6,46.6l2.6,0c0.1,0,0.1,0.1,0,0.2l-1.3,0.5c0,0,0,0-0.1,0l-1.3-0.5C67.5,46.7,67.5,46.6,67.6,46.6z"/>
		<path class="st8" d="M81.8,23l-4.7-1.2c-0.2-0.2-0.5-0.4-0.8-0.5c-3.1-1.8-14.3,0.8-16.1,3.8c-1.8,3,1.4,5,4.5,6.9
			c3.1,1.8,7.1,0.5,9.2-2.3C74.2,29.3,81.8,23,81.8,23z"/>
		<path class="st11" d="M72.3,42.2c0,0.6,0.3,1.5,0.7,1.5h4.8v-0.5c0-1.2-0.7-2.3-1.9-2.4c-0.1,0,0.1-0.1,0-0.1h-2.9c0,0,0,0,0,0
			C72.6,41.1,72.3,41.6,72.3,42.2z"/>
		<circle class="st12" cx="75.3" cy="42.3" r="0.7"/>
		<path class="st8" d="M72.8,39.7l2.7-0.3l1.7,0.2c0.2,0,0.4,0.1,0.7,0.1l0.3,0.1l0-0.1c0.1-0.5-0.8-1-1.9-1.1l-0.8-0.1l-2.7,0.3
			c-0.2,0-0.4,0-0.4,0.1l0,0.4C72.4,39.6,72.6,39.7,72.8,39.7z"/>
		<path class="st8" d="M64.7,41l-2.6-0.9l-1.7-0.2c-0.2,0-0.4-0.1-0.7-0.1l-0.3,0l0-0.1c0.1-0.5,1-0.7,2.1-0.6l0.8,0.1l2.5,1
			c0.2,0,0.4,0.1,0.4,0.2l-0.1,0.4C65.2,41,65,41.1,64.7,41z"/>
		<g class="st4">
			<path class="st13" d="M73.2,49c0,0,0,0.1-0.1,0.3c-0.1,0.2-0.2,0.5-0.4,0.8c-0.2,0.3-0.5,0.7-0.9,0.9c-0.4,0.3-0.9,0.5-1.4,0.6
				c-1,0.2-2,0-2.7-0.2c-0.7-0.2-1.1-0.4-1.1-0.4s0.1,0,0.3,0c0.2,0,0.5,0,0.9,0.1c0.7,0,1.7,0.1,2.5-0.1c0.2,0,0.4-0.1,0.6-0.2
				c0.2-0.1,0.4-0.1,0.6-0.3c0.4-0.2,0.7-0.4,0.9-0.7c0.3-0.2,0.4-0.5,0.6-0.6C73.1,49.1,73.2,49,73.2,49z"/>
		</g>
		<g class="st4">
			<path class="st14" d="M59.7,43.4c0.3-0.3,0.7-0.5,1.1-0.7c0.4-0.2,0.8-0.3,1.2-0.4c0.9-0.2,1.8-0.1,2.6,0.2l-0.1,0.3
				c-0.7-0.3-1.5-0.5-2.3-0.6c-0.8-0.1-1.6-0.2-2.4-0.1c0.8-0.2,1.6-0.2,2.4-0.2c0.8,0.1,1.6,0.3,2.4,0.5l-0.1,0.3
				c-0.8-0.3-1.6-0.3-2.5-0.2c-0.4,0-0.8,0.1-1.2,0.3C60.5,42.9,60.1,43.1,59.7,43.4z"/>
		</g>
	</g>
</g>
</svg>
