<!-- Generator: Adobe Illustrator 19.2.0, SVG Export Plug-In  -->
<svg version="1.1"
	 xmlns="http://www.w3.org/2000/svg" xmlns:xlink="http://www.w3.org/1999/xlink" xmlns:a="http://ns.adobe.com/AdobeSVGViewerExtensions/3.0/"
	 x="0px" y="0px" width="68.5px" height="13.8px" viewBox="0 0 68.5 13.8" style="enable-background:new 0 0 68.5 13.8;"
	 xml:space="preserve">
<style type="text/css">
	.st0{fill:#E2A28F;}
	.st1{fill:#281B19;}
</style>
<defs>
</defs>
<g>
	<path class="st0" d="M11.7,13.2C5.5,13.6,0.3,11,0,7.4S4.5,0.4,10.7,0s11.4,2.2,11.6,5.9C22.6,9.6,17.8,12.9,11.7,13.2z"/>
	<g>
		<path class="st1" d="M22.3,5.9c0,0,0,0.1,0,0.3c0,0.2,0,0.5,0,0.9c-0.1,0.4-0.2,0.9-0.5,1.4c-0.1,0.3-0.3,0.5-0.5,0.8
			c-0.2,0.2-0.4,0.5-0.6,0.8c-0.5,0.5-1.1,1-1.7,1.4c-0.7,0.4-1.4,0.8-2.2,1.1c-0.8,0.3-1.6,0.6-2.5,0.8c-0.9,0.2-1.8,0.3-2.7,0.4
			c-0.9,0-1.8,0-2.7,0c-0.9-0.1-1.8-0.2-2.6-0.4C5.5,13,4.7,12.7,4,12.4c-0.7-0.3-1.3-0.7-1.9-1.2c-0.3-0.2-0.5-0.4-0.7-0.7
			C1.2,10.3,1,10.1,0.8,9.9C0.5,9.4,0.3,9,0.2,8.6C0.1,8.2,0,7.9,0,7.7c0-0.2,0-0.3,0-0.3s0,0.1,0.1,0.3c0,0.1,0.1,0.2,0.1,0.4
			c0.1,0.1,0.1,0.3,0.2,0.5c0.2,0.3,0.4,0.7,0.8,1.1c0.3,0.4,0.8,0.8,1.3,1.1c0.5,0.4,1.2,0.7,1.8,1C5,12,5.8,12.2,6.5,12.4
			c0.8,0.2,1.6,0.3,2.5,0.3c0.8,0.1,1.7,0.1,2.6,0c0.8-0.1,1.7-0.2,2.5-0.3c0.8-0.2,1.6-0.4,2.4-0.6c0.8-0.3,1.5-0.6,2.1-0.9
			c0.7-0.3,1.2-0.8,1.7-1.2c0.5-0.4,0.9-0.9,1.2-1.3c0.3-0.4,0.5-0.9,0.6-1.2c0-0.2,0.1-0.3,0.1-0.5c0-0.1,0-0.3,0-0.4
			C22.3,6,22.3,5.9,22.3,5.9z"/>
	</g>
	<path class="st0" d="M56.8,13.2C63,13.6,68.2,11,68.4,7.4c0.3-3.6-4.5-6.9-10.7-7.3S46.4,2.3,46.1,5.9S50.6,12.9,56.8,13.2z"/>
	<g>
		<path class="st1" d="M46.1,5.9c0,0,0,0.1,0,0.3c0,0.1,0,0.2,0,0.4c0,0.1,0.1,0.3,0.1,0.5c0.1,0.4,0.3,0.8,0.6,1.2
			c0.3,0.4,0.7,0.9,1.2,1.3c0.5,0.4,1.1,0.8,1.7,1.2c0.6,0.4,1.4,0.7,2.1,0.9c0.8,0.3,1.6,0.5,2.4,0.6c0.8,0.2,1.7,0.3,2.5,0.3
			c0.9,0,1.7,0.1,2.6,0c0.8-0.1,1.7-0.2,2.5-0.3c0.8-0.2,1.5-0.4,2.2-0.7c0.7-0.3,1.3-0.6,1.8-1c0.5-0.4,1-0.7,1.3-1.1
			c0.3-0.4,0.6-0.8,0.8-1.1c0.1-0.2,0.1-0.3,0.2-0.5c0-0.1,0.1-0.3,0.1-0.4c0.1-0.2,0.1-0.3,0.1-0.3s0,0.1,0,0.3
			c0,0.2,0,0.5-0.2,0.9c-0.1,0.4-0.3,0.8-0.6,1.3c-0.1,0.2-0.4,0.5-0.6,0.7c-0.2,0.2-0.5,0.5-0.7,0.7c-0.5,0.4-1.2,0.8-1.9,1.2
			c-0.7,0.4-1.5,0.6-2.3,0.9c-0.8,0.2-1.7,0.4-2.6,0.4c-0.9,0.1-1.8,0.1-2.7,0c-0.9-0.1-1.8-0.2-2.7-0.4c-0.9-0.2-1.7-0.5-2.5-0.8
			c-0.8-0.3-1.5-0.7-2.2-1.1c-0.7-0.4-1.2-0.9-1.7-1.4c-0.2-0.2-0.4-0.5-0.6-0.8c-0.2-0.3-0.3-0.5-0.5-0.8c-0.3-0.5-0.4-1-0.5-1.4
			c-0.1-0.4-0.1-0.7,0-0.9C46.1,6,46.1,5.9,46.1,5.9z"/>
	</g>
</g>
</svg>
