<!-- Generator: Adobe Illustrator 19.1.0, SVG Export Plug-In  -->
<svg version="1.1"
	 xmlns="http://www.w3.org/2000/svg" xmlns:xlink="http://www.w3.org/1999/xlink" xmlns:a="http://ns.adobe.com/AdobeSVGViewerExtensions/3.0/"
	 x="0px" y="0px" width="28.3px" height="25.6px" viewBox="0 0 28.3 25.6" style="enable-background:new 0 0 28.3 25.6;"
	 xml:space="preserve">
<style type="text/css">
	.st0{fill:#EDA898;}
</style>
<defs>
</defs>
<path class="st0" d="M2.1,18.9c-0.5-2.4,0.7-5,2.9-6.2c6.8-3.9,11.2-7.2,13.9-10.5c1.8-2.2,5-2.8,7.5-1.4c0,0,0,0,0.1,0
	c1.2,0.6,1.8,1.9,1.8,3.2c-0.2,3.3-1.1,10.1-5.1,13.6c-5.4,4.7-15.4,8.6-17.5,7.3c-0.6,0.5-1.4,0.8-2.2,0.8c-1.9,0-3.5-1.6-3.5-3.5
	C0,20.7,0.9,19.4,2.1,18.9z"/>
</svg>
