<!-- Generator: Adobe Illustrator 19.1.0, SVG Export Plug-In  -->
<svg version="1.1"
	 xmlns="http://www.w3.org/2000/svg" xmlns:xlink="http://www.w3.org/1999/xlink" xmlns:a="http://ns.adobe.com/AdobeSVGViewerExtensions/3.0/"
	 x="0px" y="0px" width="102px" height="77.7px" viewBox="0 0 102 77.7" style="enable-background:new 0 0 102 77.7;"
	 xml:space="preserve">
<style type="text/css">
	.st0{fill:#B53026;}
	.st1{fill:#3DB766;}
</style>
<defs>
</defs>
<g>
	<path class="st0" d="M98.2,62c0.2,0.1,0.3,0.3,0.4,0.6c0.2,1.2,0.4,2.5,0.7,3.7c1.7-7.9,2.8-16.6,2.8-16.6l-0.7-19.3l-8.8-1.2v7
		c0,0,1.4,12,4.5,14.9C98.6,52.7,98.7,56.8,98.2,62z"/>
	<g>
		<path class="st0" d="M0,49.7c0,0,2.6,22.3,6,28C4,66.6,1.8,54.1,4.9,51.1c3.1-2.9,4.5-14.9,4.5-14.9v-7l-8.7,1.2L0,49.7z"/>
		<g>
			<path class="st1" d="M6.3,35.6c15-10,23.6-19.3,44.7-19.3c21.1,0,30.7,7.3,44.7,19.3h1.4C95.5,16.6,75.5,0,51,0
				C26.5,0,6.5,16.6,4.9,35.6H6.3z"/>
		</g>
	</g>
</g>
</svg>
