<!-- Generator: Adobe Illustrator 19.1.0, SVG Export Plug-In  -->
<svg version="1.1"
	 xmlns="http://www.w3.org/2000/svg" xmlns:xlink="http://www.w3.org/1999/xlink" xmlns:a="http://ns.adobe.com/AdobeSVGViewerExtensions/3.0/"
	 x="0px" y="0px" width="128.4px" height="117.4px" viewBox="0 0 128.4 117.4" style="enable-background:new 0 0 128.4 117.4;"
	 xml:space="preserve">
<style type="text/css">
	.st0{fill:#B53026;}
	.st1{fill:#E2A28F;}
</style>
<defs>
</defs>
<g>
	<ellipse class="st0" cx="66.7" cy="58" rx="61.6" ry="58"/>
	<path class="st1" d="M111.1,67.4c-1.6,0-3.1,0.5-4.4,1.4c0.1-1.3,0.1-2.5,0.1-3.8c0-25.6-21.3-46.4-47.4-46.5
		c-26.2,0-47.4,20.8-47.4,46.5c0,1.3,0,2.7,0.1,4c-1.2-0.9-2.8-1.5-4.5-1.5c-4.2,0-7.5,2.5-7.5,6.6c0,6.3,5.3,10.6,11.6,10.6h0.2
		c0.6,10,3.7,15.5,18.5,24c2.7,1.5,14.9,9,29,9c14.8,0,26.3-7.5,29-9c14.8-8.5,17.9-13.9,18.5-23.9h0.5c6.4,0,11.4-4.3,11.4-10.6
		C118.7,69.9,115.2,67.4,111.1,67.4z"/>
</g>
</svg>
