<!-- Generator: Adobe Illustrator 19.1.0, SVG Export Plug-In  -->
<svg version="1.1"
	 xmlns="http://www.w3.org/2000/svg" xmlns:xlink="http://www.w3.org/1999/xlink" xmlns:a="http://ns.adobe.com/AdobeSVGViewerExtensions/3.0/"
	 x="0px" y="0px" width="70px" height="26.2px" viewBox="0 0 70 26.2" style="enable-background:new 0 0 70 26.2;"
	 xml:space="preserve">
<style type="text/css">
	.st0{fill:none;}
	.st1{fill:#E6E7E8;}
	.st2{fill:#E6E6E6;}
	.st3{fill:#3DB766;}
	.st4{fill:url(#SVGID_1_);}
	.st5{fill:url(#SVGID_2_);}
</style>
<defs>
	
		<pattern  x="-171.9" y="-1236.8" width="10" height="10" patternUnits="userSpaceOnUse" id="New_Pattern_Swatch_1" viewBox="0 -10 10 10" style="overflow:visible;">
		<g>
			<polygon class="st0" points="0,0 10,0 10,-10 0,-10 			"/>
			<path class="st1" d="M6.1-5.2c0,0.7-0.6,1.3-1.2,1.3S3.6-4.5,3.6-5.2s0.6-1.3,1.2-1.3S6.1-5.8,6.1-5.2z"/>
			<path class="st2" d="M10-1.3C9.3-1.3,8.8-0.7,8.8,0c0,0,0,0,0,0H10V-1.3z"/>
			<path class="st2" d="M1.3,0C1.3,0,1.3,0,1.3,0c0-0.7-0.6-1.3-1.3-1.3V0H1.3z"/>
			<path class="st2" d="M0-10v1.2c0.7,0,1.3-0.5,1.3-1.2H0z"/>
			<path class="st2" d="M8.8-10c0,0.7,0.5,1.2,1.2,1.2V-10H8.8z"/>
		</g>
	</pattern>
</defs>
<g>
	<path class="st3" d="M70,26.2H0l2.6-23C2.8,1.4,4.4,0,6.2,0h57.6c1.8,0,3.3,1.4,3.5,3.2L70,26.2z"/>
	<pattern  id="SVGID_1_" xlink:href="#New_Pattern_Swatch_1" patternTransform="matrix(1 0 0 1.1656 6.2009 1183.5372)">
	</pattern>
	<path class="st4" d="M70,26.2H0L2.6,3.3C2.8,1.4,4.4,0,6.3,0h57.4c1.9,0,3.5,1.4,3.7,3.3L70,26.2z"/>
</g>
</svg>
