<!-- Generator: Adobe Illustrator 19.1.0, SVG Export Plug-In  -->
<svg version="1.1"
	 xmlns="http://www.w3.org/2000/svg" xmlns:xlink="http://www.w3.org/1999/xlink" xmlns:a="http://ns.adobe.com/AdobeSVGViewerExtensions/3.0/"
	 x="0px" y="0px" width="22.7px" height="5.3px" viewBox="0 0 22.7 5.3" style="enable-background:new 0 0 22.7 5.3;"
	 xml:space="preserve">
<style type="text/css">
	.st0{fill:#C93827;}
</style>
<defs>
</defs>
<g>
	<path class="st0" d="M22.7,5.3c0,0,0-0.1-0.1-0.3c-0.1-0.2-0.2-0.4-0.4-0.6C21.8,3.9,21,3.5,20,3.1c-1-0.4-2.3-0.6-3.7-0.9
		c-0.7-0.1-1.4-0.2-2.1-0.3c-0.7-0.1-1.5-0.2-2.2-0.2C9,1.4,6,1.4,3.8,1.4c-1.1,0-2,0-2.7,0.1c-0.3,0.1-0.6,0-0.8-0.3
		C0.1,1,0,0.8,0,0.8s0.1-0.2,0.3-0.5C0.4,0.1,0.7,0,1,0c0.7,0,1.6,0,2.7,0C6,0,9.1,0.1,12.1,0.5c1.5,0.2,3,0.5,4.4,0.8
		c1.4,0.3,2.7,0.8,3.7,1.3c1,0.5,1.8,1.1,2.2,1.7C22.8,4.9,22.7,5.3,22.7,5.3z"/>
</g>
</svg>
