<!-- Generator: Adobe Illustrator 19.1.0, SVG Export Plug-In  -->
<svg version="1.1"
	 xmlns="http://www.w3.org/2000/svg" xmlns:xlink="http://www.w3.org/1999/xlink" xmlns:a="http://ns.adobe.com/AdobeSVGViewerExtensions/3.0/"
	 x="0px" y="0px" width="33.8px" height="117.5px" viewBox="0 0 33.8 117.5" style="enable-background:new 0 0 33.8 117.5;"
	 xml:space="preserve">
<style type="text/css">
	.st0{fill:#E2A28F;}
	.st1{fill:#83479C;}
</style>
<defs>
</defs>
<g>
	<path class="st0" d="M19.3,0c5,0,9,3.5,8.9,10.4L26,83.1L9.7,82.9l0.5-72.7C10.3,3.3,14.4,0,19.3,0z"/>
	<g>
		<path class="st1" d="M9.6,89.9c0,0,0.5-0.1,0.4-0.1l1.4,0.2v-1.1l-1.6-0.3l-0.6,0.3C5.8,91,3,94.5,1.5,98.8
			C3.3,95.2,6.1,91.9,9.6,89.9z"/>
		<path class="st1" d="M26.7,90.4c-0.2,0.4-0.5,0.7-0.8,1c0,0,0,0,0.1-0.1c2.8,2.1,5,5,6.4,8l-6.6,5.4c-4.8,3.9-11.6,4.1-16.7,0.5
			l-8-5.8c-0.7,2.3-1.2,4.7-1.2,7.3c0,11.1,4.6,10.8,13.9,10.8s19.8,0.4,19.8-10.8C33.8,100,31,94,26.7,90.4z"/>
		<path class="st1" d="M25.9,91.4c-0.1,0.1-0.3,0.2-0.4,0.3C25.7,91.6,25.8,91.5,25.9,91.4z"/>
	</g>
	<path class="st0" d="M26.1,91.4c1.1-1,1.8-2.8,1.8-5.1c0-0.2,0-0.3,0-0.5c-0.2-4.2-2.3-7.1-4.9-7.1h-1.5v2.9
		c-1-0.3-1.9-0.5-2.9-0.5c-0.7,0-1.1,0.1-2.1,0.3v-2.6h-3.1c-2.9,0-5.3,2.4-5.5,6c0,0.2,0,0.1,0,0.3c0,1.8,0.8,3.4,2,4.3
		c0,0.1,0,0.3,0,0.4c0,0,0-0.1,0-0.1c-3.7,2.1-6.9,5.9-8.6,9.7l8.1,5.9c5,3.6,11.9,3.4,16.7-0.5l6.6-5.4
		C31.1,96.3,28.9,93.4,26.1,91.4z"/>
</g>
</svg>
