<!-- Generator: Adobe Illustrator 19.1.0, SVG Export Plug-In  -->
<svg version="1.1"
	 xmlns="http://www.w3.org/2000/svg" xmlns:xlink="http://www.w3.org/1999/xlink" xmlns:a="http://ns.adobe.com/AdobeSVGViewerExtensions/3.0/"
	 x="0px" y="0px" width="33.8px" height="117.5px" viewBox="0 0 33.8 117.5" style="enable-background:new 0 0 33.8 117.5;"
	 xml:space="preserve">
<style type="text/css">
	.st0{fill:#E2A28F;}
	.st1{fill:#83479C;}
</style>
<defs>
</defs>
<g>
	<path class="st0" d="M14.6,0c-5,0-9,5.5-8.9,12.4l2.3,69.6l16.3-0.2l-0.5-69.7C23.6,5.3,19.6,0,14.6,0z"/>
	<g>
		<path class="st1" d="M24.7,88.9c-0.2,0.2-0.4,0.4-0.6,0.5c0,0.2,0,0.3,0,0.5c0.3,0.2,0.6,0.4,0.9,0.6l2.8,5.3l4.7,3.6l-0.2-0.6
			C30.9,94.5,28.1,91,24.7,88.9z"/>
		<path class="st1" d="M7.8,91.4c0.1,0.1,0.3,0.2,0.4,0.3C8.1,91.6,7.9,91.5,7.8,91.4z"/>
		<path class="st1" d="M32.6,99.4l-8,5.8c-5,3.6-11.9,3.4-16.7-0.5l-6.6-5.4c1.4-3,3.7-5.9,6.4-8c0,0,0,0,0.1,0.1
			c-0.3-0.3-0.6-0.6-0.8-1C2.8,94,0,100,0,106.7c0,11.1,10.5,10.8,19.8,10.8s13.9,0.4,13.9-10.8C33.8,104.1,33.3,101.7,32.6,99.4z"
			/>
	</g>
	<path class="st0" d="M26.1,86.3c0-0.2,0-0.3,0-0.5c-0.2-4.2-2.3-7.1-4.9-7.1h-1.7v2.9c-1-0.3-1.9-0.5-2.9-0.5
		c-0.7,0-2.1,0.1-2.1,0.3v-2.6h-3c-2.9,0-5.3,2.4-5.5,6c0,0.2,0,0.1,0,0.3c0,1.8,0.8,3.4,2,4.3c0.1,4.4,3.7,8,8.1,8
		c3.6,0,6.7-2.4,7.8-5.7C25.2,90.8,26.1,88.8,26.1,86.3z"/>
	<path class="st0" d="M24.1,89.9c0-0.2,0-0.3,0-0.5c1.2-0.8,2-2.4,2-4.2c0-0.2,0-0.3,0-0.5c-0.2-3.6-2.6-6-5.5-6h-2.1v2.6
		c-1-0.2-1.4-0.3-2.1-0.3c-1,0-1.9,0.2-2.9,0.5v-2.9h-2.6c-2.6,0-4.7,2.8-4.9,7.1c0,0.2,0,0.1,0,0.4c0,2.5,0.9,4.6,2.2,5.5
		c-0.2-0.1-0.3-0.2-0.5-0.3c-2.8,2.1-5,5-6.4,8l6.6,5.4c4.8,3.9,11.6,4.1,16.7,0.5l8-5.8C30.8,95.6,27.9,92,24.1,89.9z M18.3,97
		c-0.1,0-0.3,0.1-0.4,0.1C18.1,97.1,18.2,97.1,18.3,97z M20.4,96.1c-0.1,0.1-0.2,0.1-0.2,0.1C20.2,96.2,20.3,96.1,20.4,96.1z
		 M19.8,96.5c-0.1,0.1-0.2,0.1-0.3,0.1C19.6,96.6,19.7,96.5,19.8,96.5z M19.1,96.8c-0.1,0-0.2,0.1-0.4,0.1
		C18.8,96.9,19,96.8,19.1,96.8z M16,97.4c0.3,0,0.5,0,0.8,0C16.5,97.4,16.3,97.4,16,97.4z M17.6,97.2c-0.2,0-0.3,0.1-0.5,0.1
		C17.3,97.3,17.4,97.3,17.6,97.2z M21.4,95.3c0.1,0,0.1-0.1,0.2-0.1C21.5,95.2,21.5,95.3,21.4,95.3z M20.8,95.8
		c0.1,0,0.1-0.1,0.2-0.1C20.9,95.7,20.9,95.8,20.8,95.8z M24.5,90.7C24.5,90.7,24.5,90.7,24.5,90.7C24.5,90.7,24.5,90.7,24.5,90.7z
		 M23.8,91.4C23.8,91.4,23.8,91.4,23.8,91.4C23.8,91.4,23.8,91.4,23.8,91.4z M23.6,92.1C23.6,92.2,23.6,92.2,23.6,92.1
		C23.6,92.2,23.6,92.2,23.6,92.1z M23.3,92.8C23.3,92.8,23.3,92.9,23.3,92.8C23.3,92.9,23.3,92.8,23.3,92.8z M22.9,93.5
		C22.9,93.5,22.9,93.5,22.9,93.5C22.9,93.5,22.9,93.5,22.9,93.5z M22.5,94.1C22.5,94.1,22.5,94.1,22.5,94.1
		C22.5,94.1,22.5,94.1,22.5,94.1z M22.1,94.6c0,0-0.1,0.1-0.1,0.1C22,94.7,22,94.7,22.1,94.6z"/>
</g>
</svg>
