<!-- Generator: Adobe Illustrator 19.1.0, SVG Export Plug-In  -->
<svg version="1.1"
	 xmlns="http://www.w3.org/2000/svg" xmlns:xlink="http://www.w3.org/1999/xlink" xmlns:a="http://ns.adobe.com/AdobeSVGViewerExtensions/3.0/"
	 x="0px" y="0px" width="22.7px" height="5.3px" viewBox="0 0 22.7 5.3" style="enable-background:new 0 0 22.7 5.3;"
	 xml:space="preserve">
<style type="text/css">
	.st0{fill:#C93827;}
</style>
<defs>
</defs>
<g>
	<path class="st0" d="M0,5.3c0,0-0.1-0.4,0.3-1c0.4-0.6,1.2-1.2,2.2-1.7c1-0.5,2.3-0.9,3.7-1.3C7.6,1,9.1,0.7,10.6,0.5
		c3-0.4,6-0.5,8.3-0.5c1.1,0,2.1,0,2.7,0c0.3,0,0.6,0.1,0.8,0.3c0.2,0.2,0.3,0.5,0.3,0.5S22.6,1,22.4,1.2c-0.2,0.2-0.4,0.3-0.8,0.3
		c-0.7,0-1.6-0.1-2.7-0.1c-2.2,0-5.2,0-8.2,0.3C10,1.7,9.3,1.8,8.5,1.9C7.8,2,7.1,2.1,6.4,2.2C5,2.4,3.8,2.7,2.7,3.1
		c-1,0.4-1.9,0.8-2.3,1.3C0.2,4.6,0.1,4.9,0.1,5C0,5.2,0,5.3,0,5.3z"/>
</g>
</svg>
