<!-- Generator: Adobe Illustrator 19.1.0, SVG Export Plug-In  -->
<svg version="1.1"
	 xmlns="http://www.w3.org/2000/svg" xmlns:xlink="http://www.w3.org/1999/xlink" xmlns:a="http://ns.adobe.com/AdobeSVGViewerExtensions/3.0/"
	 x="0px" y="0px" width="23.1px" height="8px" viewBox="0 0 23.1 8" style="enable-background:new 0 0 23.1 8;"
	 xml:space="preserve">
<style type="text/css">
	.st0{fill:#E58E7A;}
	.st1{fill:#E6E7E8;}
</style>
<defs>
</defs>
<g>
	<g>
		<path class="st0" d="M0.6,1.5c0,0,7.8,0.2,10.9,0.2s10.8-0.3,10.8-0.3S16.1,0,11.4,0S0.6,1.5,0.6,1.5z"/>
		<path class="st0" d="M0,2.1c0,0,8.3,3.3,11.5,3.3s11.5-3.3,11.5-3.3S16.1,8,11.6,8S0,2.1,0,2.1z"/>
	</g>
	<path class="st1" d="M23.1,2.1c0,0-5.2,3.3-11.5,3.3S0,2.1,0,2.1c0-1.3,5.2-0.3,11.5-0.3S23.1,0.8,23.1,2.1z"/>
</g>
</svg>
