<!-- Generator: Adobe Illustrator 19.2.0, SVG Export Plug-In  -->
<svg version="1.1"
	 xmlns="http://www.w3.org/2000/svg" xmlns:xlink="http://www.w3.org/1999/xlink" xmlns:a="http://ns.adobe.com/AdobeSVGViewerExtensions/3.0/"
	 x="0px" y="0px" width="34.3px" height="31.5px" viewBox="0 0 34.3 31.5" style="enable-background:new 0 0 34.3 31.5;"
	 xml:space="preserve">
<style type="text/css">
	.st0{fill:#F2AA9E;}
	.st1{fill:#C88D85;}
	.st2{fill:#2F3535;}
	.st3{fill:#F2F2F2;}
</style>
<defs>
</defs>
<g>
	<path class="st0" d="M30.3,26.4c3-0.6,5.3-4.1,3.2-5.6c-4.6-3.5-3.8-9.4-10.9-9.4c-2.2,0-6,4.1-8.9,4.7C4.4,18,1.1,20.6,0.1,27.5
		c-0.4,2.5,0.8,4.1,5.1,3.9C16.7,30.9,30.3,26.4,30.3,26.4z"/>
	<path class="st1" d="M20.5,15.6c-0.8-1.6-0.1-2.7,1.4-3.4c1.5-0.7,3.7,1.2,5.6,3.1c1.9,1.9,2.8,3.9,2.8,3.9s-2.5-0.3-3.7,2.2
		c-0.6,1.3,1.1,5.2,0.7,5.9c-0.3,0.6-2.5-2.2-2.7-2.6C23.9,23.6,20.5,15.6,20.5,15.6z"/>
	<g>
		<rect x="25.9" y="2.4" transform="matrix(0.9949 -0.1013 0.1013 0.9949 -1.3349 2.8594)" class="st2" width="3.2" height="24.3"/>
		<polygon class="st3" points="30.3,26.5 29.1,30.3 27.1,26.8 		"/>
		
			<rect x="25.3" y="0.1" transform="matrix(0.9949 -0.1013 0.1013 0.9949 5.076590e-03 2.6516)" class="st3" width="1.5" height="2.4"/>
	</g>
	<path class="st0" d="M28,20.1c1.5,3.8,1.9,7.3,0.7,7.8c-1.2,0.5-3.3-2.3-4.9-6.1s-5.4-8-2-9.6C24.7,10.9,26.5,16.3,28,20.1z"/>
</g>
</svg>
