<!-- Generator: Adobe Illustrator 19.1.0, SVG Export Plug-In  -->
<svg version="1.1"
	 xmlns="http://www.w3.org/2000/svg" xmlns:xlink="http://www.w3.org/1999/xlink" xmlns:a="http://ns.adobe.com/AdobeSVGViewerExtensions/3.0/"
	 x="0px" y="0px" width="198.5px" height="238.2px" viewBox="0 0 198.5 238.2" style="enable-background:new 0 0 198.5 238.2;"
	 xml:space="preserve">
<style type="text/css">
	.st0{fill:#A97C50;}
	.st1{fill:#DBAB7B;}
	.st2{fill:#BF7064;}
	.st3{fill:#BC6258;}
	.st4{fill:#F26222;}
	.st5{fill:#FBB040;}
	.st6{fill:#EDA23D;}
	.st7{fill:#BE1E2D;}
	.st8{fill:#009444;}
	.st9{fill:#1C75BC;}
	.st10{fill:#414042;}
	.st11{fill:#BEBEBF;}
	.st12{fill:#D1D3D4;}
	.st13{fill:#C49A6C;}
	.st14{fill:#D65E5F;}
	.st15{fill:#94C6B3;}
	.st16{fill:#759C8E;}
	.st17{fill:#657482;}
	.st18{fill:#926B56;}
</style>
<defs>
</defs>
<g>
	<path class="st0" d="M182.4,137.2c-20.9-16-51-26.1-84.4-26.1s-63.5,10.1-84.4,26.1H182.4z"/>
	<path class="st1" d="M138.5,74.5l-5.8-32.4h0c-2.2-17.1-16.8-30.4-34.5-30.4S65.9,25.2,63.8,42.2h0l-6.1,32
		c-2.1,10.9-1.1,22.7,2.8,33.1l2.8,7.9h0.2c8.7,6,21,10.7,34.7,10.7c13.6,0,25.9-4.7,34.7-10.7h-0.1l2.9-8.2
		C139.4,96.7,140.4,85.3,138.5,74.5z"/>
	<path class="st1" d="M56.5,57.1c-2.5,0-4.3,1.8-4.3,4.3c0,3.8,3.3,6.7,7.1,6.7h1.4v-6.6C60.6,59.1,58.9,57.1,56.5,57.1z"/>
	<path class="st1" d="M139.2,57.1c2.5,0,4.6,1.8,4.6,4.3c0,3.8-3.1,6.7-6.9,6.7h-2.3v-6.6C134.6,59.1,136.7,57.1,139.2,57.1z"/>
	<path class="st2" d="M102.1,69.4h-8.2c-1.7,0-3,1.4-3,3v2c0,1.7,1.4,3,3,3h8.2c1.7,0,3-1.4,3-3v-2
		C105.1,70.7,103.8,69.4,102.1,69.4z"/>
	<path class="st3" d="M73.8,71.1h-6.2c-0.8,0-1.5-0.7-1.5-1.5l0,0c0-0.8,0.7-1.5,1.5-1.5h6.2c0.8,0,1.5,0.7,1.5,1.5l0,0
		C75.3,70.5,74.7,71.1,73.8,71.1z"/>
	<path class="st3" d="M128.4,71.1h-6.2c-0.8,0-1.5-0.7-1.5-1.5l0,0c0-0.8,0.7-1.5,1.5-1.5h6.2c0.8,0,1.5,0.7,1.5,1.5l0,0
		C129.9,70.5,129.2,71.1,128.4,71.1z"/>
	<path class="st4" d="M60.4,59.6l1.9,0.7c0,0,0.1-3.3,0.7-4.9s2.8-3.1,2.8-4.7S64.9,48,65.2,46c0.4-2,3.2-7.7,3.2-7.7l-5.2,0.1
		L60.4,59.6z"/>
	<path class="st4" d="M135.8,59.6l-1.9,0.7c0,0-0.1-3.3-0.7-4.9s-2.8-3.1-2.8-4.7s0.9-2.7,0.5-4.7c-0.4-2-3.2-7.7-3.2-7.7l5,0.1
		L135.8,59.6z"/>
	<path class="st5" d="M63.3,38.4l25.7,9.8c4.2,1.6,8.6,2.2,13.1,1.7l5.2-1.6c10.2-3.2,20.9-4,31.4-2.3h0c1-0.1,1.4-1.4,0.6-2
		l-11.5-9.5l-26.2,4.3c-2.6,0.4-5.2,0.6-7.8,0.5L63.3,38.4z"/>
	<path class="st6" d="M101.1,6.5h-6.2c-17.4,0-31.6,14.2-31.6,31.6v0.3h0c22.8,1.3,45.7,1.3,68.6,0.1l0.9-0.1v-0.3
		C132.8,20.8,118.5,6.5,101.1,6.5z"/>
	<path class="st7" d="M97.7,6.9c0,0,0,0.3,0,0.3h-2.9c-17.4,0-31.3,13.6-31.3,31v0h-0.3c1.9,1,3.8,0.3,5.8,0.4
		c-0.2-1.1-0.4-2-0.4-3.1C68.8,24.3,79.8,14.5,97.7,6.9z"/>
	<path class="st8" d="M97.9,6.5L97.9,6.5c-0.1,0-0.1,0-0.1,0C97.8,6.6,97.8,6.5,97.9,6.5z"/>
	<path class="st9" d="M100.7,7.2c4.4,8,6.8,18.2,6.8,28.5c0,1.3-0.1,2.5-0.1,3.8c6.7-0.1,13.4-0.4,20.1-0.7c0.2-1.1,0.3-2.2,0.3-3.4
		c0-11.5-10.3-21.5-26.6-28.6c0,0,0,0.3,0,0.3H100.7z"/>
	<path class="st7" d="M87.7,35.4c0,1.3,0.1,2.7,0.2,4c6.5,0.1,13,0.1,19.5,0c0.1-1.3,0.1-2.3,0.1-3.7c0-10.4-2.5-20.5-6.8-28.5h-2.8
		c0,0-0.1-0.3-0.1-0.3C91.5,14.8,87.7,24.5,87.7,35.4z"/>
	<path class="st10" d="M100.8,6.9h-2.7c-0.4,0-0.7-0.3-0.7-0.7v0c0-0.4,0.3-0.7,0.7-0.7h2.7c0.4,0,0.7,0.3,0.7,0.7v0
		C101.5,6.6,101.2,6.9,100.8,6.9z"/>
	<rect x="99.2" y="1.5" class="st11" width="0.6" height="4.7"/>
	<path class="st12" d="M110.1,0l-9.3,1l-1,0.1l-1-0.1l-9.5-1c-1.6,0-3.7,0.7-3.7,1.5v0.1C85.6,2.4,87.4,3,89,3L99.7,2L110.3,3
		c1.6,0,3.3-0.7,3.3-1.5V1.5C113.6,0.7,111.7,0,110.1,0z"/>
	<rect x="50.4" y="132" class="st13" width="95.3" height="38"/>
	<path class="st1" d="M28.1,130.8c-10.4-1.1-19.6,6.4-20.7,16.8L0,208.4l33.9,3.7l10.8-60.4C45.8,141.3,38.5,132,28.1,130.8z"/>
	<path class="st1" d="M168.7,130.8c10.4-1.1,19.6,6.4,20.7,16.8l9.1,60.8l-33.9,3.7l-12.6-60.4C150.9,141.3,158.3,132,168.7,130.8z"
		/>
	<path class="st14" d="M176.9,130.8c-18.6-8.1-18.6-8.8-27.3-11.5c-8.8-2.7-16.8-4.6-16.8-4.6S113.3,125,98.5,125
		c-15.4,0-35.3-10.5-35.3-10.5s-7.2,2-15.9,4.7s-8.8,3.4-27.3,11.5C1.4,138.9,4,173.2,4,173.2h37.6l-10.5,65h67.3h67.2l-10.5-65
		h37.6C192.8,173.2,195.4,138.9,176.9,130.8z"/>
	<g>
		<rect x="88.6" y="126.7" class="st15" width="9.8" height="111.2"/>
		<rect x="98.4" y="126.7" class="st16" width="9.8" height="111.2"/>
	</g>
	<g>
		<path class="st17" d="M98.4,128.1c-15.6,0-38.6-11.9-39.4-12.4l3.7-1.1c0.2,0.1,20.7,10.8,35.6,10.8c14.4,0,34.2-10.9,34.4-11
			l4.2,1.2C136.2,116.2,113.4,128.1,98.4,128.1z"/>
	</g>
	<g>
		<circle class="st5" cx="98.4" cy="166.8" r="12.3"/>
		<polygon class="st18" points="102.2,169.1 103.2,174.8 98.1,172.1 93,174.8 94,169.2 89.9,165.2 95.5,164.4 98.1,159.2 
			100.6,164.3 106.3,165.1 		"/>
	</g>
</g>
</svg>
