<!-- Generator: Adobe Illustrator 19.1.0, SVG Export Plug-In  -->
<svg version="1.1"
	 xmlns="http://www.w3.org/2000/svg" xmlns:xlink="http://www.w3.org/1999/xlink" xmlns:a="http://ns.adobe.com/AdobeSVGViewerExtensions/3.0/"
	 x="0px" y="0px" width="55.1px" height="8.4px" viewBox="0 0 55.1 8.4" style="enable-background:new 0 0 55.1 8.4;"
	 xml:space="preserve">
<style type="text/css">
	.st0{fill:#DBAB7B;}
	.st1{fill:#2B2118;}
</style>
<defs>
</defs>
<g>
	<g>
		<path class="st0" d="M16.2,8.4H1.7V7.5C1.7,3.4,5.1,0,9.2,0h7c1,0,1.9,0.8,1.9,1.9v4.7C18.1,7.6,17.2,8.4,16.2,8.4z"/>
		<g>
			<path class="st1" d="M0,8.4l1-0.7c0.3-0.2,0.7-0.4,1-0.6c0.3-0.2,0.7-0.4,1.1-0.6c0.4-0.2,0.7-0.3,1.1-0.5
				c0.8-0.3,1.5-0.5,2.3-0.7c0.4-0.1,0.8-0.2,1.2-0.3C8,5,8.4,4.9,8.8,4.9C9.2,4.8,9.6,4.7,10,4.7c0.4,0,0.8-0.1,1.2-0.1
				c0.8,0,1.6,0,2.4,0c0.4,0,0.8,0.1,1.2,0.1c0.4,0.1,0.8,0.1,1.2,0.2c0.4,0.1,0.8,0.2,1.2,0.4c0.2,0.1,0.4,0.2,0.6,0.3
				c0.2,0.1,0.4,0.3,0.6,0.4L17.6,7l-0.8-0.7c-0.2-0.2-0.5-0.5-0.8-0.7c-0.3-0.2-0.6-0.4-0.9-0.6l-0.9-0.5C14,4.3,13.6,4.2,13.3,4
				c-0.3-0.2-0.6-0.3-1-0.4l-1-0.4l-1-0.3c-0.3-0.1-0.7-0.2-1-0.3C8.9,2.5,8.6,2.4,8.2,2.4C7.5,2.2,6.8,2.1,6.1,2
				C4.7,1.8,3.2,1.7,1.7,1.7c0.7-0.1,1.5-0.2,2.2-0.3c0.7,0,1.5-0.1,2.2,0c0.4,0,0.7,0,1.1,0.1c0.4,0,0.7,0.1,1.1,0.1
				c0.4,0,0.7,0.1,1.1,0.2c0.4,0.1,0.7,0.1,1.1,0.2l1.1,0.3c0.4,0.1,0.7,0.2,1.1,0.4c0.4,0.1,0.7,0.3,1,0.4c0.3,0.2,0.7,0.3,1,0.5
				l1,0.5c0.3,0.2,0.6,0.4,0.9,0.6c0.3,0.2,0.6,0.4,0.9,0.7l0.9,0.8L17.6,7c-0.1-0.1-0.2-0.2-0.4-0.2l-0.5-0.2
				c-0.3-0.1-0.7-0.2-1-0.3C15.4,6.1,15,6.1,14.7,6c-0.4-0.1-0.8-0.1-1.1-0.1c-0.8-0.1-1.5-0.1-2.3-0.1c-0.4,0-0.8,0-1.2,0
				c-0.4,0-0.8,0-1.2,0.1C8.5,5.9,8.2,5.9,7.8,6C7.4,6,7,6.1,6.6,6.2C5.9,6.3,5.1,6.5,4.4,6.7C4,6.8,3.6,6.9,3.2,7
				C2.9,7.1,2.5,7.3,2.1,7.4C1.8,7.6,1.4,7.7,1.1,7.9L0,8.4z"/>
		</g>
	</g>
	<g>
		<path class="st0" d="M38.4,8.4h14.5V7.5c0-4.1-3.4-7.5-7.5-7.5l-7,0c-1,0-1.9,0.8-1.9,1.9v4.7C36.5,7.6,37.3,8.4,38.4,8.4z"/>
		<g>
			<path class="st1" d="M55.1,8.4c-1.4-0.8-2.9-1.4-4.5-1.8c-1.5-0.4-3.1-0.7-4.7-0.8c-1.6-0.1-3.2-0.1-4.7,0
				c-0.8,0.1-1.6,0.2-2.3,0.4c-0.4,0.1-0.7,0.2-1.1,0.3c-0.3,0.1-0.7,0.3-0.8,0.5l-0.9-0.9c1.1-1.1,2.4-2,3.8-2.7
				c1.4-0.7,2.9-1.2,4.4-1.5c1.5-0.3,3-0.5,4.5-0.5c1.5,0,3,0,4.5,0.3c-3,0-6,0.4-8.8,1.1c-1.4,0.4-2.8,0.9-4.1,1.6
				C39.1,5.2,38,6,36.9,7l-0.9-0.9c0.4-0.4,0.8-0.6,1.3-0.7c0.4-0.2,0.8-0.3,1.2-0.4c0.8-0.2,1.7-0.3,2.5-0.4c1.7-0.1,3.3,0,4.9,0.2
				c1.6,0.2,3.2,0.6,4.8,1.2c0.8,0.3,1.5,0.6,2.2,1C53.7,7.5,54.4,7.9,55.1,8.4z"/>
		</g>
	</g>
</g>
</svg>
