<!-- Generator: Adobe Illustrator 19.1.0, SVG Export Plug-In  -->
<svg version="1.1"
	 xmlns="http://www.w3.org/2000/svg" xmlns:xlink="http://www.w3.org/1999/xlink" xmlns:a="http://ns.adobe.com/AdobeSVGViewerExtensions/3.0/"
	 x="0px" y="0px" width="62.5px" height="117.4px" viewBox="0 0 62.5 117.4" style="enable-background:new 0 0 62.5 117.4;"
	 xml:space="preserve">
<style type="text/css">
	.st0{fill:#DBAB7B;}
	.st1{fill:#324458;}
	.st2{fill:#29AC7B;}
	.st3{fill:#527CAA;}
</style>
<defs>
</defs>
<g>
	<path class="st0" d="M30.7,0C18.4,0,8.5,10,8.5,22.3l3.9,40.4h35.9l4.9-40.4C53.1,10,43,0,30.7,0z"/>
	<g>
		<rect x="0" y="106.2" class="st1" width="62.5" height="11.2"/>
		<path class="st2" d="M15,71.1l6.4-2.1v0L15,80.2L8.7,59.6c-0.3-1-0.4-2.1-0.2-3.1l0.7-4.1c0.4-2.1,0.9-3.7,2.4-3.7h3
			c1.5,0,2.8,1.5,3.3,3.5l0.5,2.1c0,0,0,0.1,0,0.1l3.2,14.2l0.9,0.1l0.8,0.2v31.7h18v-32h-0.4H41l-0.1-0.1l2.6-11.6l0.6-2.6
			c0,0,0,0,0-0.1l0.5-2.2c0.4-2,1.8-3.5,3.3-3.5h1.7c1.6,0,3,1.7,3.4,3.9l0.5,3.8c0.1,1,0.1,2-0.3,2.9L47.5,71l15,35.2
			c0,0-12.3,3-31.3,3s-31.3-3-31.3-3L15,71.1z"/>
		<path class="st3" d="M21.3,48.7h10h10c2,0,3.4,2.8,2.9,5.5l-3.2,14.4l0.1,0.2h-0.2l6,31.7c0,0-7.6,5.7-15.6,5.7
			s-15.8-5.7-15.8-5.7l6-31.7h0.1l0-0.1l-3.2-14.5C17.8,51.5,19.2,48.7,21.3,48.7z"/>
		<path class="st1" d="M20,70.8h22.4c0.6,0,1-0.5,1-1l0,0c0-0.6-0.5-1-1-1H20c-0.6,0-1,0.5-1,1l0,0C18.9,70.4,19.4,70.8,20,70.8z"/>
		<path class="st1" d="M19,76.9h24.3c0.6,0,1-0.5,1-1l0,0c0-0.6-0.5-1-1-1H19c-0.6,0-1,0.5-1,1l0,0C18,76.4,18.4,76.9,19,76.9z"/>
		<path class="st1" d="M17.8,82.9h26.7c0.6,0,1-0.5,1-1l0,0c0-0.6-0.5-1-1-1H17.8c-0.6,0-1,0.5-1,1l0,0
			C16.8,82.5,17.2,82.9,17.8,82.9z"/>
		<path class="st1" d="M16.6,89h29.1c0.6,0,1-0.5,1-1v0c0-0.6-0.5-1-1-1H16.6c-0.6,0-1,0.5-1,1v0C15.6,88.5,16,89,16.6,89z"/>
		<path class="st1" d="M15.4,95h31.4c0.6,0,1-0.5,1-1l0,0c0-0.6-0.5-1-1-1H15.4c-0.6,0-1,0.5-1,1l0,0C14.4,94.6,14.9,95,15.4,95z"/>
		<path class="st1" d="M14.3,101H48c0.6,0,1-0.5,1-1l0,0c0-0.6-0.5-1-1-1H14.3c-0.6,0-1,0.5-1,1l0,0C13.3,100.6,13.7,101,14.3,101z"
			/>
	</g>
</g>
</svg>
