<!-- Generator: Adobe Illustrator 19.1.0, SVG Export Plug-In  -->
<svg version="1.1"
	 xmlns="http://www.w3.org/2000/svg" xmlns:xlink="http://www.w3.org/1999/xlink" xmlns:a="http://ns.adobe.com/AdobeSVGViewerExtensions/3.0/"
	 x="0px" y="0px" width="135.5px" height="17.5px" viewBox="0 0 135.5 17.5" style="enable-background:new 0 0 135.5 17.5;"
	 xml:space="preserve">
<style type="text/css">
	.st0{fill:#E6E7E8;}
	.st1{fill:#C0CE30;}
</style>
<defs>
</defs>
<g>
	<path class="st0" d="M65.5,14.6c5.4-3.2,5.2-8.4-0.6-11.7c-2.7-1.5-6.5-2.5-10.4-2.8c-5.9-0.4-11.4,0.3-14.3,3.1L2.6,11.9l-1.5,2.6
		H65.5z"/>
	<path class="st0" d="M70.3,14.6c-5.4-3.2-5.2-8.4,0.6-11.7c2.7-1.5,6.5-2.5,10.4-2.8c5.9-0.4,11.4,0.3,14.3,3.1l37.6,8.7l1.5,2.6
		H70.3z"/>
	<g>
		<rect y="14.2" class="st1" width="135.5" height="3.3"/>
		<circle class="st1" cx="67.7" cy="14.8" r="2.8"/>
	</g>
</g>
</svg>
