<!-- Generator: Adobe Illustrator 19.1.0, SVG Export Plug-In  -->
<svg version="1.1"
	 xmlns="http://www.w3.org/2000/svg" xmlns:xlink="http://www.w3.org/1999/xlink" xmlns:a="http://ns.adobe.com/AdobeSVGViewerExtensions/3.0/"
	 x="0px" y="0px" width="60.1px" height="117.4px" viewBox="0 0 60.1 117.4" style="enable-background:new 0 0 60.1 117.4;"
	 xml:space="preserve">
<style type="text/css">
	.st0{fill:#DBAB7B;}
	.st1{fill:#58595B;}
</style>
<defs>
</defs>
<g>
	<path class="st0" d="M33.1,0C20.8,0,10.8,10,10.8,22.3l3.9,40.4h35.9l4.9-40.4C55.4,10,45.3,0,33.1,0z"/>
	<g>
		<path class="st1" d="M56.8,112.4l-17,4.9c-0.6,0.2-1.3,0.2-2,0.1L3.9,112c-2.2-0.4-3.9-2.3-3.9-4.5V97.2h60.1V108
			C60.1,110,58.8,111.8,56.8,112.4z"/>
		<path class="st0" d="M54.4,105.9l-13,4.2c-1.6,0.5-3.4,0.6-5.1,0.3L7,105c-5.9-1.1-8.8-6.7-5.8-11.1l31.9-41.7l25.9,42.8
			C61.7,99.1,59.5,104.2,54.4,105.9z"/>
		<path class="st0" d="M50.8,67.3c0.3,5.6-4.2,10.3-9.8,10.1l-20.8-0.6c-4.6,0-8-4.3-7-8.8l1.4-6.2h35.9L50.8,67.3z"/>
		<g>
			<polygon class="st1" points="48.1,107.9 12,79.8 14.1,77 46,101.8 52.6,83.7 55.2,87.6 			"/>
		</g>
	</g>
</g>
</svg>
