<!-- Generator: Adobe Illustrator 19.2.0, SVG Export Plug-In  -->
<svg version="1.1"
	 xmlns="http://www.w3.org/2000/svg" xmlns:xlink="http://www.w3.org/1999/xlink" xmlns:a="http://ns.adobe.com/AdobeSVGViewerExtensions/3.0/"
	 x="0px" y="0px" width="143.2px" height="164px" viewBox="0 0 143.2 164" style="enable-background:new 0 0 143.2 164;"
	 xml:space="preserve">
<style type="text/css">
	.st0{fill:#C49A6C;}
	.st1{fill:#8B5E3C;}
	.st2{fill:#8362AA;}
	.st3{fill:#7BCCC0;}
	.st4{fill:url(#SVGID_1_);}
	.st5{fill:url(#SVGID_2_);}
</style>
<defs>
</defs>
<path class="st0" d="M22.7,36.1c4.4,0.5,7.4,5.2,6.8,10.7l-9.2,68L6,113.1L13.7,45C14.3,39.5,18.4,35.6,22.7,36.1z"/>
<path class="st0" d="M120.9,36.1c-4.4,0.5-7.4,5.2-6.8,10.7l9.2,68l14.3-1.7L130,45C129.4,39.5,125.3,35.6,120.9,36.1z"/>
<polygon class="st0" points="105.2,62.5 37,62.5 33.7,34.7 108.4,34.7 "/>
<path class="st1" d="M124.9,45c-13.2-13-32.2-20-53.3-20s-40.1,7-53.3,20H124.9z"/>
<path class="st2" d="M129.7,38.4c-4.3-4.3-16.6-6.9-29.5-10.4c-12.6-3.4-28.6-2.7-28.6-2.7S55.6,24.8,43,28.2
	c-12.9,3.5-25.2,5.9-29.5,10.2C9.2,42.7,0,98,0,98h26.2l4.5-24.9V164h81V73.1l5.2,24.9h26.2C143.2,98,134,42.7,129.7,38.4z"/>
<g>
	<polygon class="st3" points="57.1,72.7 49.9,72.7 46.4,66.4 50,60.3 57.2,60.3 60.7,66.6 	"/>
	<polygon class="st3" points="57.1,86.9 49.9,86.9 46.4,80.6 50,74.5 57.2,74.5 60.7,80.8 	"/>
	<polygon class="st3" points="81.1,72.7 74,72.7 70.4,66.4 74.1,60.3 81.2,60.3 84.7,66.6 	"/>
	<polygon class="st3" points="81.1,86.9 74,86.9 70.4,80.6 74.1,74.5 81.2,74.5 84.7,80.8 	"/>
	<polygon class="st3" points="105.2,72.7 98,72.7 94.5,66.4 98.1,60.3 105.3,60.3 108.8,66.6 	"/>
	<polygon class="st3" points="105.2,86.9 98,86.9 94.5,80.6 98.1,74.5 105.3,74.5 108.8,80.8 	"/>
	<polygon class="st3" points="45,65.1 37.9,65 34.4,58.8 38,52.6 45.2,52.7 48.7,58.9 	"/>
	<polygon class="st3" points="45,79.3 37.9,79.2 34.4,73 38,66.8 45.2,66.9 48.7,73.1 	"/>
	<polygon class="st3" points="69.1,65.1 61.9,65 58.4,58.8 62,52.6 69.2,52.7 72.7,58.9 	"/>
	<polygon class="st3" points="69.1,79.3 61.9,79.2 58.4,73 62,66.8 69.2,66.9 72.7,73.1 	"/>
	<polygon class="st3" points="93.1,65.1 86,65 82.5,58.8 86.1,52.6 93.3,52.7 96.8,58.9 	"/>
	<polygon class="st3" points="93.1,79.3 86,79.2 82.5,73 86.1,66.8 93.3,66.9 96.8,73.1 	"/>
</g>
<linearGradient id="SVGID_1_" gradientUnits="userSpaceOnUse" x1="69.2042" y1="29.1153" x2="72.9158" y2="-1.1137">
	<stop  offset="0.4652" style="stop-color:#C49A6C"/>
	<stop  offset="0.4807" style="stop-color:#BF9568"/>
	<stop  offset="0.4948" style="stop-color:#B4895F"/>
	<stop  offset="0.5084" style="stop-color:#A47851"/>
	<stop  offset="0.5216" style="stop-color:#8E613F"/>
	<stop  offset="0.5236" style="stop-color:#8B5E3C"/>
</linearGradient>
<path class="st4" d="M82,0c0,0-0.3-0.1-0.7,0.7c-0.4,0.8-0.8,1.6-1.3,3c-0.2,0.7-0.4,1.3-0.6,2c-0.2,0.8-0.4,1.5-0.5,2.3
	c-0.1,0.8-0.3,1.7-0.4,2.5c-0.1,0.9-0.2,1.7-0.2,2.6c-0.1,1.8-0.1,3.5,0.1,5.2c0.2,1.7,0.6,2.6,1.1,3.9c0.5,1.3,1.1,2.4,1.6,3.2
	c0.2,0.4,0.5,1.3,0.6,1.5C81.9,27.3,82,28,82,28H60.1c0,0,0.1-0.7,0.2-0.9c0.2-0.2,0.4-0.8,0.6-1.2c0.5-0.8,1.1-2,1.6-3.4
	c0.5-1.3,0.9-2.3,1.1-4c0.2-1.7,0.2-3.5,0.1-5.3c-0.1-0.9-0.1-1.8-0.2-2.7c-0.1-0.9-0.2-1.7-0.4-2.6c-0.1-0.8-0.3-1.6-0.5-2.4
	c-0.2-0.8-0.4-1.5-0.6-2.2c-0.4-1.3-0.9-1.9-1.3-2.7C60.4-0.1,60.1,0,60.1,0H82z"/>
<ellipse class="st0" cx="71" cy="28.4" rx="11.3" ry="8.5"/>
</svg>
