<!-- Generator: Adobe Illustrator 19.2.0, SVG Export Plug-In  -->
<svg version="1.1"
	 xmlns="http://www.w3.org/2000/svg" xmlns:xlink="http://www.w3.org/1999/xlink" xmlns:a="http://ns.adobe.com/AdobeSVGViewerExtensions/3.0/"
	 x="0px" y="0px" width="156.9px" height="281.3px" viewBox="0 0 156.9 281.3" style="enable-background:new 0 0 156.9 281.3;"
	 xml:space="preserve">
<style type="text/css">
	.st0{fill:#A9C7D3;}
	.st1{fill:#3C2415;}
</style>
<defs>
</defs>
<g>
	<rect x="13.3" y="12.3" class="st0" width="15.9" height="269"/>
	<rect x="127.8" y="12.3" class="st0" width="15.9" height="269"/>
	<path class="st1" d="M153.6,164H3.4c-1.9,0-3.4-1.5-3.4-3.4v-10.9c0-1.9,1.5-3.4,3.4-3.4h150.2c1.9,0,3.4,1.5,3.4,3.4v10.9
		C156.9,162.5,155.4,164,153.6,164z"/>
	<path class="st1" d="M144.5,53.4l-19.9-4.8c-30.9-7.5-63.4-7.3-94.3,0.3l-17.9,4.4c-4.2,1-8.2-1.9-8.2-5.8V16.9
		c0-2.7,2-5.1,4.9-5.8l21.8-5.4c30.9-7.6,63.4-7.7,94.3-0.2l22.8,5.5c2.9,0.7,4.9,3.1,4.9,5.8v30.6
		C152.7,51.5,148.7,54.4,144.5,53.4z"/>
</g>
</svg>
