<!-- Generator: Adobe Illustrator 19.2.0, SVG Export Plug-In  -->
<svg version="1.1"
	 xmlns="http://www.w3.org/2000/svg" xmlns:xlink="http://www.w3.org/1999/xlink" xmlns:a="http://ns.adobe.com/AdobeSVGViewerExtensions/3.0/"
	 x="0px" y="0px" width="64px" height="11px" viewBox="0 0 64 11" style="enable-background:new 0 0 64 11;" xml:space="preserve">
<style type="text/css">
	.st0{fill:#E6E7E8;}
</style>
<defs>
</defs>
<path class="st0" d="M44,5.7c0,2.2,0.9,4.3,2.4,5.3H64V9.1c0-4.3-3.1-8.7-7.3-9.1c-0.2,0-10.8,0-10.8,0C44.7,1.4,44,3.8,44,5.7z"/>
<path class="st0" d="M21.5,5.7c0,2.2-0.9,4.3-2.4,5.3H0V9.1C0,4.8,3.8,0.4,8,0c0.2,0,11.5,0,11.5,0C20.7,1.3,21.5,3.8,21.5,5.7z"/>
</svg>
