<!-- Generator: Adobe Illustrator 19.2.0, SVG Export Plug-In  -->
<svg version="1.1"
	 xmlns="http://www.w3.org/2000/svg" xmlns:xlink="http://www.w3.org/1999/xlink" xmlns:a="http://ns.adobe.com/AdobeSVGViewerExtensions/3.0/"
	 x="0px" y="0px" width="105.4px" height="123.1px" viewBox="0 0 105.4 123.1" style="enable-background:new 0 0 105.4 123.1;"
	 xml:space="preserve">
<style type="text/css">
	.st0{fill:#C49A6C;}
	.st1{fill:#603913;}
	.st2{fill:url(#SVGID_1_);}
	.st3{fill:url(#SVGID_2_);}
</style>
<defs>
</defs>
<g>
	<path class="st0" d="M93.4,87.3c-1.1,15.8-18.4,35.7-34.3,35.7h-1.9c-1.6,0-3.2-0.4-4.6-1.1l0,0l0,0c-1.4,0.7-3,1.1-4.6,1.1l1,0
		c-15.8,0-36.2-18.9-37.3-34.6L9.9,75.9V61.1h84.9v14.6L93.4,87.3z"/>
	<circle class="st0" cx="52.4" cy="61.1" r="42.5"/>
</g>
<path class="st0" d="M98.3,66.1c-3.9,0-7.1,3.2-7.1,7.1v10.4h3.2c6.1,0,11-4.6,11-10.7C105.4,69,102.2,66.1,98.3,66.1z"/>
<path class="st0" d="M7.1,66.1c3.9,0,7.1,3.2,7.1,7.1v10.4H11C5,83.6,0,79,0,72.9C0,69,3.2,66.1,7.1,66.1z"/>
<path class="st1" d="M9.9,67.1h3.3c0-3.3,1.8-11.1,5.6-12c-1.6-4.6,0.7-12.9,6.4-15.7s19.7,2.4,27.3,2.4c0.2-9.8,0-35.3,0-35.3
	L22,15.2c-8.3,0.7-15.9,3.5-13.4,27.6L9.9,67.1z"/>
<linearGradient id="SVGID_1_" gradientUnits="userSpaceOnUse" x1="52.4991" y1="39.8176" x2="97.1879" y2="39.8176">
	<stop  offset="0" style="stop-color:#3C2415"/>
	<stop  offset="1" style="stop-color:#603913"/>
</linearGradient>
<path class="st2" d="M95.4,67.1h-3.3c0-3.3-1.8-11.1-5.6-12c1.6-4.6-0.7-12.9-6.4-15.7c-5.6-2.7-19.8,2.4-27.5,2.4
	c-0.2-9.8,0-29.3,0-29.3l30.7,2.7c8.3,0.7,15.9,3.5,13.4,27.6L95.4,67.1z"/>
<path class="st1" d="M97.2,8.1L81,3.9c-0.8-0.7-1.7-1.3-2.6-1.8C67.8-4.2,29.1,4.9,22.9,15.3c-6.2,10.4,4.9,17.4,15.5,23.7
	c10.6,6.3,24.5,1.8,31.7-7.9C71.1,29.8,97.2,8.1,97.2,8.1z"/>
</svg>
