<!-- Generator: Adobe Illustrator 19.2.0, SVG Export Plug-In  -->
<svg version="1.1"
	 xmlns="http://www.w3.org/2000/svg" xmlns:xlink="http://www.w3.org/1999/xlink" xmlns:a="http://ns.adobe.com/AdobeSVGViewerExtensions/3.0/"
	 x="0px" y="0px" width="24.3px" height="39.5px" viewBox="0 0 24.3 39.5" style="enable-background:new 0 0 24.3 39.5;"
	 xml:space="preserve">
<style type="text/css">
	.st0{fill:#C49A6C;}
</style>
<defs>
</defs>
<path class="st0" d="M15.1,3.7c-3,0.3-5.6,2.5-6.3,5.5C6.6,18.5,4.2,24.6,1.3,29c-2,2.9-1.6,6.7,0.9,9.2c0,0,0,0,0.1,0.1
	c1.1,1.1,2.8,1.5,4.3,1c3.8-1.3,11.4-4.7,14.1-10.6c3.6-7.9,4.8-20.8,2.6-22.8C23.6,5,23.7,4,23.4,3.1c-0.7-2.3-3-3.5-5.3-2.9
	C16.4,0.7,15.3,2.1,15.1,3.7z"/>
</svg>
