<!-- Generator: Adobe Illustrator 19.2.0, SVG Export Plug-In  -->
<svg version="1.1"
	 xmlns="http://www.w3.org/2000/svg" xmlns:xlink="http://www.w3.org/1999/xlink" xmlns:a="http://ns.adobe.com/AdobeSVGViewerExtensions/3.0/"
	 x="0px" y="0px" width="59.3px" height="110.4px" viewBox="0 0 59.3 110.4" style="enable-background:new 0 0 59.3 110.4;"
	 xml:space="preserve">
<style type="text/css">
	.st0{fill:#54758E;}
	.st1{fill:#4C4D4D;}
	.st2{fill:#BCBEC0;}
	.st3{fill:#333333;}
	.st4{fill:#5C9974;}
	.st5{fill:#E6E7E8;}
	.st6{fill:#3A4F63;}
</style>
<defs>
</defs>
<rect x="4.8" y="63.1" class="st0" width="30.2" height="8.8"/>
<path class="st1" d="M27.7,77.3l0.4-4.6c0-2.4,1.9-3.9,4.3-3.9h3.9c5.2,0,8.5,2.9,9.8,7.9l10.6,17.1h0
	C52.1,85.7,37.6,78.6,27.7,77.3z"/>
<path class="st1" d="M2.4,96.6l0.5-8.9L1.9,76.9c1.3-5,7-8.2,12.2-8.2H18c2.4,0,4.3,1.8,4.3,4.2l-0.7,4.8C11.7,79,6.9,88.2,2.4,96.6
	z"/>
<path class="st2" d="M4.4,110.4h51.2c2.2,0,3.8-1.9,3.6-4l-0.7-7.2h-57l-0.7,7.2C0.6,108.6,2.3,110.4,4.4,110.4z"/>
<path class="st3" d="M24.8,100.3L24.8,100.3c3.1,2.3,7.3,2.3,10.4,0l0,0c3.1-2.3,4.5-6.3,3.6-10.1l-9.3-18.7c0-1.4-1.1-2.5-2.4-2.5
	h-3.7c-1.3,0-2.4,1.1-2.4,2.5l0.3,18.7C20.3,94.1,21.7,98.1,24.8,100.3z"/>
<path class="st4" d="M1.5,99.2l8.5,2.5c14,4.1,28.9,3.9,42.7-0.6l5.8-1.9c-0.5-1.6-1.2-3.6-1.9-4.8C52.1,85.9,43,80,33.1,78.7
	l2.7,11.2c0.3,1.8,1.5,3.3,3.1,4c-0.5,2.1-1.7,3.9-3.6,5.2c-3.1,2.2-7.3,2.2-10.4,0c-1.8-1.3-3-3.1-3.6-5.2c-0.1,0-0.2,0.1-0.3,0.1
	c1.7-0.7,3.1-2.2,3.4-4.2l-2.7-12c-10,1.4-13.8,8.2-18.3,16.6C2.7,95.6,2,97.6,1.5,99.2z M41.2,94.4c-0.3,0-0.6,0-0.8-0.1
	C40.7,94.3,40.9,94.4,41.2,94.4z M40,94.2c-0.1,0-0.2,0-0.3-0.1C39.8,94.2,39.9,94.2,40,94.2z M18.8,94.4c0.3,0,0.6,0,0.9-0.1
	C19.4,94.3,19.1,94.4,18.8,94.4z M20,94.2c0.3-0.1,0.5-0.1,0.7-0.2C20.5,94.1,20.2,94.2,20,94.2z"/>
<path class="st5" d="M20.6,93.7h19c0.7,0,1.2-0.6,1.2-1.2l0,0c0-0.7-0.6-1.2-1.2-1.2h-19c-0.7,0-1.2,0.6-1.2,1.2l0,0
	C19.3,93.1,19.9,93.7,20.6,93.7z"/>
<path class="st5" d="M19.6,89.5h19c0.7,0,1.2-0.6,1.2-1.2l0,0c0-0.7-0.6-1.2-1.2-1.2h-19c-0.7,0-1.2,0.6-1.2,1.2l0,0
	C18.4,88.9,19,89.5,19.6,89.5z"/>
<path class="st5" d="M18.2,85.2h19c0.7,0,1.2-0.6,1.2-1.2l0,0c0-0.7-0.6-1.2-1.2-1.2h-19c-0.7,0-1.2,0.6-1.2,1.2l0,0
	C16.9,84.7,17.5,85.2,18.2,85.2z"/>
<path class="st5" d="M17.2,81h19c0.7,0,1.2-0.6,1.2-1.2v0c0-0.7-0.6-1.2-1.2-1.2h-19c-0.7,0-1.2,0.6-1.2,1.2v0
	C15.9,80.4,16.5,81,17.2,81z"/>
<path class="st5" d="M16,76.8h19c0.7,0,1.2-0.6,1.2-1.2l0,0c0-0.7-0.6-1.2-1.2-1.2H16c-0.7,0-1.2,0.6-1.2,1.2l0,0
	C14.7,76.2,15.3,76.8,16,76.8z"/>
<path class="st6" d="M17.4,0C7.8,0,0,6.7,0,14.7h0l0.2,2.5L5,64.7h29.7V17v-3.8C33.7,5.9,26.4,0,17.4,0z"/>
</svg>
