<!-- Generator: Adobe Illustrator 19.2.0, SVG Export Plug-In  -->
<svg version="1.1"
	 xmlns="http://www.w3.org/2000/svg" xmlns:xlink="http://www.w3.org/1999/xlink" xmlns:a="http://ns.adobe.com/AdobeSVGViewerExtensions/3.0/"
	 x="0px" y="0px" width="23.2px" height="3.2px" viewBox="0 0 23.2 3.2" style="enable-background:new 0 0 23.2 3.2;"
	 xml:space="preserve">
<style type="text/css">
	.st0{fill:#443526;}
</style>
<defs>
</defs>
<path class="st0" d="M0,3.2c0,0,0-0.1,0-0.3c0.1-0.2,0.2-0.4,0.5-0.6c0.6-0.4,1.5-0.8,2.6-1.1c1.1-0.3,2.4-0.6,3.8-0.8
	C8.3,0.2,9.8,0.1,11.3,0c1.5-0.1,3-0.1,4.4,0c1.4,0.1,2.7,0.2,3.8,0.3c2.2,0.2,3.7,0.6,3.7,0.6s-0.4,0.1-1,0.2
	c-0.6,0.1-1.6,0.3-2.7,0.4c-2.2,0.3-5.2,0.5-8.1,0.6c-2.9,0.1-5.9,0.1-8,0.2c-1.1,0-2,0.1-2.6,0.3C0.5,2.7,0.2,2.8,0.1,2.9
	C0,3.1,0,3.2,0,3.2z"/>
</svg>
