<!-- Generator: Adobe Illustrator 19.2.0, SVG Export Plug-In  -->
<svg version="1.1"
	 xmlns="http://www.w3.org/2000/svg" xmlns:xlink="http://www.w3.org/1999/xlink" xmlns:a="http://ns.adobe.com/AdobeSVGViewerExtensions/3.0/"
	 x="0px" y="0px" width="58.5px" height="110.2px" viewBox="0 0 58.5 110.2" style="enable-background:new 0 0 58.5 110.2;"
	 xml:space="preserve">
<style type="text/css">
	.st0{fill:#54758E;}
	.st1{fill:#4C4D4D;}
	.st2{fill:#BCBEC0;}
	.st3{fill:#333333;}
	.st4{fill:#5C9974;}
	.st5{fill:#E6E7E8;}
	.st6{fill:#3A4F63;}
</style>
<defs>
</defs>
<g>
	<rect x="21.9" y="62.9" class="st0" width="30.2" height="8.8"/>
	<path class="st1" d="M31.6,77.1l-0.4-4.6c0-2.4-1.9-3.9-4.3-3.9H23c-5.2,0-8.5,2.9-9.8,7.9L2.6,93.5h0
		C7.2,85.5,21.7,78.4,31.6,77.1z"/>
	<path class="st1" d="M56.9,96.4l-0.5-8.9l0.9-10.8c-1.3-5-7-8.2-12.2-8.2h-3.9c-2.4,0-4.3,1.8-4.3,4.2l0.7,4.8
		C47.6,78.8,52.4,88,56.9,96.4z"/>
	<path class="st2" d="M54.9,110.2H3.7c-2.2,0-3.8-1.9-3.6-4L0.7,99h57l0.7,7.2C58.7,108.4,57,110.2,54.9,110.2z"/>
	<path class="st3" d="M34.5,100.1L34.5,100.1c-3.1,2.3-7.3,2.3-10.4,0l0,0c-3.1-2.3-4.5-6.3-3.6-10.1l9.3-18.7
		c0-1.4,1.1-2.5,2.4-2.5h3.7c1.3,0,2.4,1.1,2.4,2.5L38.1,90C39,93.9,37.6,97.9,34.5,100.1z"/>
	<path class="st4" d="M55.9,94.2c-4.5-8.4-8.3-15.3-18.3-16.6l-2.7,12c0.3,2,1.6,3.5,3.4,4.2c-0.1,0-0.2-0.1-0.3-0.1
		c-0.5,2.1-1.7,3.9-3.6,5.2c-3.1,2.2-7.3,2.2-10.4,0c-1.8-1.3-3-3.1-3.6-5.2c1.6-0.7,2.8-2.1,3.1-4l2.7-11.2
		c-10,1.4-19.1,7.2-23.6,15.7c-0.7,1.2-1.4,3.3-1.9,4.8l5.8,1.9c13.8,4.6,28.8,4.8,42.7,0.6l8.5-2.5C57.3,97.4,56.6,95.4,55.9,94.2z
		 M18.9,94.1c-0.3,0-0.5,0.1-0.8,0.1C18.3,94.2,18.6,94.1,18.9,94.1z M19.5,94c-0.1,0-0.2,0.1-0.3,0.1C19.3,94,19.4,94,19.5,94z
		 M39.6,94.1c0.3,0,0.6,0.1,0.9,0.1C40.2,94.2,39.9,94.1,39.6,94.1z M38.6,93.8c0.2,0.1,0.5,0.1,0.7,0.2
		C39.1,94,38.8,93.9,38.6,93.8z"/>
	<path class="st5" d="M38.7,93.5h-19c-0.7,0-1.2-0.6-1.2-1.2l0,0c0-0.7,0.6-1.2,1.2-1.2h19c0.7,0,1.2,0.6,1.2,1.2l0,0
		C40,92.9,39.4,93.5,38.7,93.5z"/>
	<path class="st5" d="M39.6,89.2h-19c-0.7,0-1.2-0.6-1.2-1.2l0,0c0-0.7,0.6-1.2,1.2-1.2h19c0.7,0,1.2,0.6,1.2,1.2l0,0
		C40.9,88.7,40.3,89.2,39.6,89.2z"/>
	<path class="st5" d="M41.1,85h-19c-0.7,0-1.2-0.6-1.2-1.2l0,0c0-0.7,0.6-1.2,1.2-1.2h19c0.7,0,1.2,0.6,1.2,1.2l0,0
		C42.4,84.5,41.8,85,41.1,85z"/>
	<path class="st5" d="M42.1,80.8h-19c-0.7,0-1.2-0.6-1.2-1.2v0c0-0.7,0.6-1.2,1.2-1.2h19c0.7,0,1.2,0.6,1.2,1.2v0
		C43.4,80.2,42.8,80.8,42.1,80.8z"/>
	<path class="st5" d="M43.3,76.6h-19c-0.7,0-1.2-0.6-1.2-1.2l0,0c0-0.7,0.6-1.2,1.2-1.2h19c0.7,0,1.2,0.6,1.2,1.2l0,0
		C44.5,76,44,76.6,43.3,76.6z"/>
	<path class="st6" d="M39.6,0c-9.7,0-17.7,6.7-17.7,14.9v49.6h30l4.5-45l0.6-6.7C55.8,5.6,48.5,0,39.6,0z"/>
</g>
</svg>
