<!-- Generator: Adobe Illustrator 19.2.0, SVG Export Plug-In  -->
<svg version="1.1"
	 xmlns="http://www.w3.org/2000/svg" xmlns:xlink="http://www.w3.org/1999/xlink" xmlns:a="http://ns.adobe.com/AdobeSVGViewerExtensions/3.0/"
	 x="0px" y="0px" width="24.3px" height="39.5px" viewBox="0 0 24.3 39.5" style="enable-background:new 0 0 24.3 39.5;"
	 xml:space="preserve">
<style type="text/css">
	.st0{fill:#C49A6C;}
</style>
<defs>
</defs>
<path class="st0" d="M9.2,3.7c3,0.3,5.6,2.5,6.3,5.5c2.2,9.3,4.6,15.4,7.6,19.8c2,2.9,1.6,6.7-0.9,9.2c0,0,0,0-0.1,0.1
	c-1.1,1.1-2.8,1.5-4.3,1C14,37.9,6.4,34.6,3.7,28.7C0.1,20.8-1.1,7.9,1.1,5.9C0.8,5,0.6,4,0.9,3.1c0.7-2.3,3-3.5,5.3-2.9
	C7.9,0.7,9,2.1,9.2,3.7z"/>
</svg>
