<!-- Generator: Adobe Illustrator 19.2.0, SVG Export Plug-In  -->
<svg version="1.1"
	 xmlns="http://www.w3.org/2000/svg" xmlns:xlink="http://www.w3.org/1999/xlink" xmlns:a="http://ns.adobe.com/AdobeSVGViewerExtensions/3.0/"
	 x="0px" y="0px" width="346.2px" height="229.4px" viewBox="0 0 346.2 229.4" style="enable-background:new 0 0 346.2 229.4;"
	 xml:space="preserve">
<style type="text/css">
	.st0{fill:#3C2415;}
	.st1{fill:#99664B;}
	.st2{fill:#7BCCC0;}
	.st3{fill:#E1E5E4;}
</style>
<defs>
</defs>
<g>
	<g>
		<path class="st0" d="M338.2,32.3H8c-3.3,0-6.1-2.5-6.5-5.8L0,14.7c-0.5-3.9,2.6-7.4,6.5-7.4h333c3.9,0,7,3.5,6.5,7.4l-1.4,11.9
			C344.4,29.8,341.5,32.3,338.2,32.3z"/>
		<rect x="28.6" y="32.3" class="st1" width="289" height="37"/>
		<rect x="28.6" y="62.6" class="st1" width="30.9" height="166.8"/>
		<rect x="286.7" y="62.6" class="st1" width="30.9" height="166.8"/>
	</g>
	<g>
		<rect x="142.9" y="5.1" class="st2" width="62.4" height="2.4"/>
		<polygon class="st3" points="202.2,0 144.1,0 144.1,5.1 204.2,5.1 		"/>
	</g>
</g>
</svg>
