<!-- Generator: Adobe Illustrator 19.2.0, SVG Export Plug-In  -->
<svg version="1.1"
	 xmlns="http://www.w3.org/2000/svg" xmlns:xlink="http://www.w3.org/1999/xlink" xmlns:a="http://ns.adobe.com/AdobeSVGViewerExtensions/3.0/"
	 x="0px" y="0px" width="6.1px" height="5.1px" viewBox="0 0 6.1 5.1" style="enable-background:new 0 0 6.1 5.1;"
	 xml:space="preserve">
<style type="text/css">
	.st0{fill:#C49A6C;}
	.st1{fill:#E6E7E8;}
	.st2{fill:#006838;}
	.st3{fill:#603913;}
</style>
<defs>
</defs>
<g>
	<rect class="st0" width="6.1" height="5.1"/>
	<g>
		<path class="st1" d="M6,3.6c0,0.6-0.3,1.5-0.7,1.5H0.6V4.6c0-1.2,0.7-2.3,1.9-2.4c0.1,0-0.1-0.1,0-0.1h2.9c0,0,0,0,0,0
			C5.8,2.5,6,3.1,6,3.6z"/>
		<circle class="st2" cx="3" cy="3.8" r="0.7"/>
		<path class="st3" d="M5.5,1.2L2.8,0.9L1.1,1.1c-0.2,0-0.4,0.1-0.7,0.1L0.1,1.2l0-0.1C0.1,0.7,0.9,0.2,2,0.1L2.8,0l2.7,0.3
			c0.2,0,0.4,0,0.4,0.1l0,0.4C6,1,5.8,1.1,5.5,1.2z"/>
	</g>
</g>
</svg>
