<!-- Generator: Adobe Illustrator 19.2.1, SVG Export Plug-In  -->
<svg version="1.1"
	 xmlns="http://www.w3.org/2000/svg" xmlns:xlink="http://www.w3.org/1999/xlink" xmlns:a="http://ns.adobe.com/AdobeSVGViewerExtensions/3.0/"
	 x="0px" y="0px" width="177.1px" height="226.4px" viewBox="0 0 177.1 226.4" style="enable-background:new 0 0 177.1 226.4;"
	 xml:space="preserve">
<style type="text/css">
	.st0{fill:#E81F49;stroke:#E0DB21;stroke-width:7;stroke-miterlimit:10;}
</style>
<defs>
</defs>
<g>
	<g>
		<path class="st0" d="M149.9,191.8c-16.6,18.6-39.5,29.6-64.4,31c-1.5,0.1-2.9,0.1-4.4,0.1c-19.1,0-37.3-6.9-51.7-19.8
			c-15.5-13.8-24.6-32.9-25.8-53.6c-2-35.9,25.6-66.7,61.4-68.7l1.7,30c-19.3,1.1-34.2,17.7-33.2,37c0.7,12.7,6.3,24.4,15.8,32.9
			s21.7,12.8,34.4,12.1c16.9-0.9,32.4-8.4,43.7-21c11.3-12.6,17-28.9,16-45.8c-2.3-41.4-34.8-74.2-75-78l5.4,8.2l-61-21L71.3,7.6
			L66,17.8c57.1,2.6,104.2,48.3,107.5,106.6C174.9,149.3,166.5,173.2,149.9,191.8z"/>
	</g>
</g>
</svg>
