<!-- Generator: Adobe Illustrator 19.1.0, SVG Export Plug-In  -->
<svg version="1.1"
	 xmlns="http://www.w3.org/2000/svg" xmlns:xlink="http://www.w3.org/1999/xlink" xmlns:a="http://ns.adobe.com/AdobeSVGViewerExtensions/3.0/"
	 x="0px" y="0px" width="22.5px" height="115.7px" viewBox="0 0 22.5 115.7" style="enable-background:new 0 0 22.5 115.7;"
	 xml:space="preserve">
<style type="text/css">
	.st0{fill:#B53026;}
	.st1{fill:#3DB766;}
</style>
<defs>
</defs>
<g>
	<g>
		<g>
			<path class="st0" d="M22.5,16.4C22.4,34.3,20.2,36,11.3,35.8C0.1,35.5,0.1,33.5,0,16.4C0,7.3,4.3,0,9.7,0
				C15.1,0,22.6,7.3,22.5,16.4z"/>
			<path class="st0" d="M21.3,40.4c-0.1,16.2-2,17.7-10.1,17.5c-10-0.3-10-2.1-10.1-17.5c0-8.2,3.8-14.8,8.7-14.8
				C14.7,25.5,21.4,32.2,21.3,40.4z"/>
			<path class="st0" d="M20.2,61.3c-0.1,14.5-1.8,15.9-8.9,15.7c-8.9-0.2-8.9-1.9-8.9-15.7c0-7.3,3.4-13.3,7.7-13.3
				C14.3,48.1,20.2,54,20.2,61.3z"/>
			<path class="st0" d="M19.1,82.3c0,12.8-1.6,14-7.8,13.8c-7.8-0.2-7.8-1.7-7.8-13.8c0-6.5,3-11.7,6.7-11.7
				C13.9,70.6,19.1,75.8,19.1,82.3z"/>
		</g>
	</g>
	<g>
		<path class="st0" d="M3.8,115.7L3.8,115.7L3.8,115.7C3.8,115.7,3.8,115.7,3.8,115.7z"/>
		<path class="st0" d="M16.9,97c-1.6-2.9-5.5-4-8.6-2.5c-1.4,0.7-2.5,1.9-3.2,3.4c-1,2.2-0.3,4.7,1.4,6.4c1.7,1.7,2.2,4,1,7
			c-0.6,1.4-1.5,2.6-2.5,3.5l0,0l9.3-7.1C17.4,106.1,18.5,99.9,16.9,97z"/>
	</g>
	<path class="st1" d="M18,96.3H4.7c-0.6,0-1.1-0.5-1.1-1.1v0c0-0.6,0.5-1.1,1.1-1.1H18c0.6,0,1.1,0.5,1.1,1.1v0
		C19.2,95.8,18.7,96.3,18,96.3z"/>
</g>
</svg>
