<svg id="Layer_1" data-name="Layer 1" xmlns="http://www.w3.org/2000/svg" xmlns:xlink="http://www.w3.org/1999/xlink" viewBox="0 0 1025.11 636.28"><defs><style>.cls-1,.cls-10{fill:none;}.cls-2{fill:url(#linear-gradient);}.cls-3{fill:#666;}.cls-4{fill:#b64921;}.cls-5{fill:#999;}.cls-6{fill:#ccc;}.cls-7{clip-path:url(#clip-path);}.cls-8{fill:#624373;}.cls-9{fill:#f3622c;}.cls-10{stroke:#624373;stroke-miterlimit:10;stroke-width:5.83px;}.cls-11{fill:#563c66;}.cls-12{fill:#fff;opacity:0.95;isolation:isolate;}.cls-13{fill:#f2e9d6;}.cls-14{fill:#ef7752;}.cls-15{fill:#e6eded;}.cls-16{fill:#f15a24;}</style><linearGradient id="linear-gradient" x1="512.56" x2="512.56" y2="389.97" gradientUnits="userSpaceOnUse"><stop offset="0" stop-color="#666"/><stop offset="1" stop-color="#999"/></linearGradient><clipPath id="clip-path"><rect class="cls-1" y="389.97" width="1025.11" height="246.3"/></clipPath></defs><title>court</title><rect class="cls-2" width="1025.11" height="389.97"/><path class="cls-3" d="M66.46,207.43H64.53a9.31,9.31,0,0,1-.22-1.76,5.84,5.84,0,0,1,.21-2l0-.05a7.91,7.91,0,1,0-8.62,0l0,0.05a5.84,5.84,0,0,1,.21,2,9.31,9.31,0,0,1-.22,1.76H54a8.21,8.21,0,0,0-8.21,8.21V229.5H74.67V215.64A8.21,8.21,0,0,0,66.46,207.43Z"/><path class="cls-3" d="M16.28,207.43H14.35a9.31,9.31,0,0,1-.22-1.76,5.84,5.84,0,0,1,.21-2l0-.05a7.91,7.91,0,1,0-8.62,0l0,0.05a5.84,5.84,0,0,1,.21,2,9.31,9.31,0,0,1-.22,1.76H3.8a8.21,8.21,0,0,0-8.21,8.21V229.5H24.49V215.64A8.21,8.21,0,0,0,16.28,207.43Z"/><path class="cls-3" d="M116.64,207.43h-1.93a9.31,9.31,0,0,1-.22-1.76,5.84,5.84,0,0,1,.21-2l0-.05a7.91,7.91,0,1,0-8.62,0l0,0.05a5.84,5.84,0,0,1,.21,2,9.31,9.31,0,0,1-.22,1.76h-1.93A8.21,8.21,0,0,0,96,215.64V229.5h28.89V215.64A8.21,8.21,0,0,0,116.64,207.43Z"/><path class="cls-3" d="M166.82,207.43h-1.93a9.31,9.31,0,0,1-.22-1.76,5.84,5.84,0,0,1,.21-2l0-.05a7.91,7.91,0,1,0-8.62,0l0,0.05a5.84,5.84,0,0,1,.21,2,9.31,9.31,0,0,1-.22,1.76h-1.93a8.21,8.21,0,0,0-8.21,8.21V229.5H175V215.64A8.21,8.21,0,0,0,166.82,207.43Z"/><path class="cls-3" d="M217,207.43h-1.93a9.31,9.31,0,0,1-.22-1.76,5.84,5.84,0,0,1,.21-2l0-.05a7.91,7.91,0,1,0-8.62,0l0,0.05a5.84,5.84,0,0,1,.21,2,9.31,9.31,0,0,1-.22,1.76h-1.93a8.21,8.21,0,0,0-8.21,8.21V229.5h28.89V215.64A8.21,8.21,0,0,0,217,207.43Z"/><path class="cls-3" d="M267.18,207.43h-1.93a9.31,9.31,0,0,1-.22-1.76,5.84,5.84,0,0,1,.21-2l0-.05a7.91,7.91,0,1,0-8.62,0l0,0.05a5.84,5.84,0,0,1,.21,2,9.31,9.31,0,0,1-.22,1.76h-1.93a8.21,8.21,0,0,0-8.21,8.21V229.5h28.89V215.64A8.21,8.21,0,0,0,267.18,207.43Z"/><path class="cls-3" d="M317.37,207.43h-1.93a9.31,9.31,0,0,1-.22-1.76,5.84,5.84,0,0,1,.21-2l0-.05a7.91,7.91,0,1,0-8.62,0l0,0.05a5.84,5.84,0,0,1,.21,2,9.31,9.31,0,0,1-.22,1.76h-1.93a8.21,8.21,0,0,0-8.21,8.21V229.5h28.89V215.64A8.21,8.21,0,0,0,317.37,207.43Z"/><path class="cls-3" d="M367.55,207.43h-1.93a9.31,9.31,0,0,1-.22-1.76,5.84,5.84,0,0,1,.21-2l0-.05a7.91,7.91,0,1,0-8.62,0l0,0.05a5.84,5.84,0,0,1,.21,2,9.31,9.31,0,0,1-.22,1.76h-1.93a8.21,8.21,0,0,0-8.21,8.21V229.5h28.89V215.64A8.21,8.21,0,0,0,367.55,207.43Z"/><path class="cls-3" d="M417.73,207.43H415.8a9.31,9.31,0,0,1-.22-1.76,5.84,5.84,0,0,1,.21-2l0-.05a7.91,7.91,0,1,0-8.62,0l0,0.05a5.84,5.84,0,0,1,.21,2,9.31,9.31,0,0,1-.22,1.76h-1.93a8.21,8.21,0,0,0-8.21,8.21V229.5h28.89V215.64A8.21,8.21,0,0,0,417.73,207.43Z"/><path class="cls-3" d="M467.91,207.43H466a9.31,9.31,0,0,1-.22-1.76,5.84,5.84,0,0,1,.21-2l0-.05a7.91,7.91,0,1,0-8.62,0l0,0.05a5.84,5.84,0,0,1,.21,2,9.31,9.31,0,0,1-.22,1.76h-1.93a8.21,8.21,0,0,0-8.21,8.21V229.5h28.89V215.64A8.21,8.21,0,0,0,467.91,207.43Z"/><path class="cls-3" d="M518.09,207.43h-1.93a9.31,9.31,0,0,1-.22-1.76,5.84,5.84,0,0,1,.21-2l0-.05a7.91,7.91,0,1,0-8.62,0l0,0.05a5.84,5.84,0,0,1,.21,2,9.31,9.31,0,0,1-.22,1.76h-1.93a8.21,8.21,0,0,0-8.21,8.21V229.5H526.3V215.64A8.21,8.21,0,0,0,518.09,207.43Z"/><path class="cls-3" d="M568.27,207.43h-1.93a9.31,9.31,0,0,1-.22-1.76,5.84,5.84,0,0,1,.21-2l0-.05a7.91,7.91,0,1,0-8.62,0l0,0.05a5.84,5.84,0,0,1,.21,2,9.31,9.31,0,0,1-.22,1.76H555.8a8.21,8.21,0,0,0-8.21,8.21V229.5h28.89V215.64A8.21,8.21,0,0,0,568.27,207.43Z"/><path class="cls-3" d="M618.45,207.43h-1.93a9.31,9.31,0,0,1-.22-1.76,5.84,5.84,0,0,1,.21-2l0-.05a7.91,7.91,0,1,0-8.62,0l0,0.05a5.84,5.84,0,0,1,.21,2,9.31,9.31,0,0,1-.22,1.76H606a8.21,8.21,0,0,0-8.21,8.21V229.5h28.89V215.64A8.21,8.21,0,0,0,618.45,207.43Z"/><path class="cls-3" d="M668.63,207.43H666.7a9.31,9.31,0,0,1-.22-1.76,5.84,5.84,0,0,1,.21-2l0-.05a7.91,7.91,0,1,0-8.62,0l0,0.05a5.84,5.84,0,0,1,.21,2,9.31,9.31,0,0,1-.22,1.76h-1.93a8.21,8.21,0,0,0-8.21,8.21V229.5h28.89V215.64A8.21,8.21,0,0,0,668.63,207.43Z"/><path class="cls-3" d="M718.81,208.63h-1.93a9.31,9.31,0,0,1-.22-1.76,5.84,5.84,0,0,1,.21-2l0-.05a7.91,7.91,0,1,0-8.62,0l0,0.05a5.84,5.84,0,0,1,.21,2,9.31,9.31,0,0,1-.22,1.76h-1.93a8.21,8.21,0,0,0-8.21,8.21v13.85H727V216.84A8.21,8.21,0,0,0,718.81,208.63Z"/><path class="cls-3" d="M769,208.63h-1.93a9.31,9.31,0,0,1-.22-1.76,5.84,5.84,0,0,1,.21-2l0-.05a7.91,7.91,0,1,0-8.62,0l0,0.05a5.84,5.84,0,0,1,.21,2,9.31,9.31,0,0,1-.22,1.76h-1.93a8.21,8.21,0,0,0-8.21,8.21v13.85h28.89V216.84A8.21,8.21,0,0,0,769,208.63Z"/><path class="cls-3" d="M819.18,208.63h-1.93a9.31,9.31,0,0,1-.22-1.76,5.84,5.84,0,0,1,.21-2l0-.05a7.91,7.91,0,1,0-8.62,0l0,0.05a5.84,5.84,0,0,1,.21,2,9.31,9.31,0,0,1-.22,1.76H806.7a8.21,8.21,0,0,0-8.21,8.21v13.85h28.89V216.84A8.21,8.21,0,0,0,819.18,208.63Z"/><path class="cls-3" d="M869.36,208.63h-1.93a9.31,9.31,0,0,1-.22-1.76,5.84,5.84,0,0,1,.21-2l0-.05a7.91,7.91,0,1,0-8.62,0l0,0.05a5.84,5.84,0,0,1,.21,2,9.31,9.31,0,0,1-.22,1.76h-1.93a8.21,8.21,0,0,0-8.21,8.21v13.85h28.89V216.84A8.21,8.21,0,0,0,869.36,208.63Z"/><path class="cls-3" d="M919.54,208.63h-1.93a9.31,9.31,0,0,1-.22-1.76,5.84,5.84,0,0,1,.21-2l0-.05a7.91,7.91,0,1,0-8.62,0l0,0.05a5.84,5.84,0,0,1,.21,2,9.31,9.31,0,0,1-.22,1.76h-1.93a8.21,8.21,0,0,0-8.21,8.21v13.85h28.89V216.84A8.21,8.21,0,0,0,919.54,208.63Z"/><path class="cls-3" d="M969.72,208.63h-1.93a9.31,9.31,0,0,1-.22-1.76,5.84,5.84,0,0,1,.21-2l0-.05a7.91,7.91,0,1,0-8.62,0l0,0.05a5.84,5.84,0,0,1,.21,2,9.31,9.31,0,0,1-.22,1.76h-1.93a8.21,8.21,0,0,0-8.21,8.21v13.85h28.89V216.84A8.21,8.21,0,0,0,969.72,208.63Z"/><path class="cls-3" d="M1019.9,208.63H1018a9.31,9.31,0,0,1-.22-1.76,5.84,5.84,0,0,1,.21-2l0-.05a7.91,7.91,0,1,0-8.62,0l0,0.05a5.84,5.84,0,0,1,.21,2,9.31,9.31,0,0,1-.22,1.76h-1.93a8.21,8.21,0,0,0-8.21,8.21v13.85h28.89V216.84A8.21,8.21,0,0,0,1019.9,208.63Z"/><path class="cls-3" d="M66.46,47.43H64.53a9.31,9.31,0,0,1-.22-1.76,5.84,5.84,0,0,1,.21-2l0-.05a7.91,7.91,0,1,0-8.62,0l0,0.05a5.84,5.84,0,0,1,.21,2,9.31,9.31,0,0,1-.22,1.76H54a8.21,8.21,0,0,0-8.21,8.21V69.5H74.67V55.64A8.21,8.21,0,0,0,66.46,47.43Z"/><path class="cls-3" d="M16.28,47.43H14.35a9.31,9.31,0,0,1-.22-1.76,5.84,5.84,0,0,1,.21-2l0-.05a7.91,7.91,0,1,0-8.62,0l0,0.05a5.84,5.84,0,0,1,.21,2,9.31,9.31,0,0,1-.22,1.76H3.8a8.21,8.21,0,0,0-8.21,8.21V69.5H24.49V55.64A8.21,8.21,0,0,0,16.28,47.43Z"/><path class="cls-3" d="M116.64,47.43h-1.93a9.31,9.31,0,0,1-.22-1.76,5.84,5.84,0,0,1,.21-2l0-.05a7.91,7.91,0,1,0-8.62,0l0,0.05a5.84,5.84,0,0,1,.21,2,9.31,9.31,0,0,1-.22,1.76h-1.93A8.21,8.21,0,0,0,96,55.64V69.5h28.89V55.64A8.21,8.21,0,0,0,116.64,47.43Z"/><path class="cls-3" d="M166.82,47.43h-1.93a9.31,9.31,0,0,1-.22-1.76,5.84,5.84,0,0,1,.21-2l0-.05a7.91,7.91,0,1,0-8.62,0l0,0.05a5.84,5.84,0,0,1,.21,2,9.31,9.31,0,0,1-.22,1.76h-1.93a8.21,8.21,0,0,0-8.21,8.21V69.5H175V55.64A8.21,8.21,0,0,0,166.82,47.43Z"/><path class="cls-3" d="M217,47.43h-1.93a9.31,9.31,0,0,1-.22-1.76,5.84,5.84,0,0,1,.21-2l0-.05a7.91,7.91,0,1,0-8.62,0l0,0.05a5.84,5.84,0,0,1,.21,2,9.31,9.31,0,0,1-.22,1.76h-1.93a8.21,8.21,0,0,0-8.21,8.21V69.5h28.89V55.64A8.21,8.21,0,0,0,217,47.43Z"/><path class="cls-3" d="M267.18,47.43h-1.93a9.31,9.31,0,0,1-.22-1.76,5.84,5.84,0,0,1,.21-2l0-.05a7.91,7.91,0,1,0-8.62,0l0,0.05a5.84,5.84,0,0,1,.21,2,9.31,9.31,0,0,1-.22,1.76h-1.93a8.21,8.21,0,0,0-8.21,8.21V69.5h28.89V55.64A8.21,8.21,0,0,0,267.18,47.43Z"/><path class="cls-3" d="M317.37,47.43h-1.93a9.31,9.31,0,0,1-.22-1.76,5.84,5.84,0,0,1,.21-2l0-.05a7.91,7.91,0,1,0-8.62,0l0,0.05a5.84,5.84,0,0,1,.21,2,9.31,9.31,0,0,1-.22,1.76h-1.93a8.21,8.21,0,0,0-8.21,8.21V69.5h28.89V55.64A8.21,8.21,0,0,0,317.37,47.43Z"/><path class="cls-3" d="M367.55,47.43h-1.93a9.31,9.31,0,0,1-.22-1.76,5.84,5.84,0,0,1,.21-2l0-.05a7.91,7.91,0,1,0-8.62,0l0,0.05a5.84,5.84,0,0,1,.21,2,9.31,9.31,0,0,1-.22,1.76h-1.93a8.21,8.21,0,0,0-8.21,8.21V69.5h28.89V55.64A8.21,8.21,0,0,0,367.55,47.43Z"/><path class="cls-3" d="M417.73,47.43H415.8a9.31,9.31,0,0,1-.22-1.76,5.84,5.84,0,0,1,.21-2l0-.05a7.91,7.91,0,1,0-8.62,0l0,0.05a5.84,5.84,0,0,1,.21,2,9.31,9.31,0,0,1-.22,1.76h-1.93A8.21,8.21,0,0,0,397,55.64V69.5h28.89V55.64A8.21,8.21,0,0,0,417.73,47.43Z"/><path class="cls-3" d="M467.91,47.43H466a9.31,9.31,0,0,1-.22-1.76,5.84,5.84,0,0,1,.21-2l0-.05a7.91,7.91,0,1,0-8.62,0l0,0.05a5.84,5.84,0,0,1,.21,2,9.31,9.31,0,0,1-.22,1.76h-1.93a8.21,8.21,0,0,0-8.21,8.21V69.5h28.89V55.64A8.21,8.21,0,0,0,467.91,47.43Z"/><path class="cls-3" d="M518.09,47.43h-1.93a9.31,9.31,0,0,1-.22-1.76,5.84,5.84,0,0,1,.21-2l0-.05a7.91,7.91,0,1,0-8.62,0l0,0.05a5.84,5.84,0,0,1,.21,2,9.31,9.31,0,0,1-.22,1.76h-1.93a8.21,8.21,0,0,0-8.21,8.21V69.5H526.3V55.64A8.21,8.21,0,0,0,518.09,47.43Z"/><path class="cls-3" d="M568.27,47.43h-1.93a9.31,9.31,0,0,1-.22-1.76,5.84,5.84,0,0,1,.21-2l0-.05a7.91,7.91,0,1,0-8.62,0l0,0.05a5.84,5.84,0,0,1,.21,2,9.31,9.31,0,0,1-.22,1.76H555.8a8.21,8.21,0,0,0-8.21,8.21V69.5h28.89V55.64A8.21,8.21,0,0,0,568.27,47.43Z"/><path class="cls-3" d="M618.45,47.43h-1.93a9.31,9.31,0,0,1-.22-1.76,5.84,5.84,0,0,1,.21-2l0-.05a7.91,7.91,0,1,0-8.62,0l0,0.05a5.84,5.84,0,0,1,.21,2,9.31,9.31,0,0,1-.22,1.76H606a8.21,8.21,0,0,0-8.21,8.21V69.5h28.89V55.64A8.21,8.21,0,0,0,618.45,47.43Z"/><path class="cls-3" d="M668.63,47.43H666.7a9.31,9.31,0,0,1-.22-1.76,5.84,5.84,0,0,1,.21-2l0-.05a7.91,7.91,0,1,0-8.62,0l0,0.05a5.84,5.84,0,0,1,.21,2,9.31,9.31,0,0,1-.22,1.76h-1.93a8.21,8.21,0,0,0-8.21,8.21V69.5h28.89V55.64A8.21,8.21,0,0,0,668.63,47.43Z"/><path class="cls-3" d="M718.81,48.63h-1.93a9.31,9.31,0,0,1-.22-1.76,5.84,5.84,0,0,1,.21-2l0-.05a7.91,7.91,0,1,0-8.62,0l0,0.05a5.84,5.84,0,0,1,.21,2,9.31,9.31,0,0,1-.22,1.76h-1.93a8.21,8.21,0,0,0-8.21,8.21V70.69H727V56.84A8.21,8.21,0,0,0,718.81,48.63Z"/><path class="cls-3" d="M769,48.63h-1.93a9.31,9.31,0,0,1-.22-1.76,5.84,5.84,0,0,1,.21-2l0-.05a7.91,7.91,0,1,0-8.62,0l0,0.05a5.84,5.84,0,0,1,.21,2,9.31,9.31,0,0,1-.22,1.76h-1.93a8.21,8.21,0,0,0-8.21,8.21V70.69h28.89V56.84A8.21,8.21,0,0,0,769,48.63Z"/><path class="cls-3" d="M819.18,48.63h-1.93a9.31,9.31,0,0,1-.22-1.76,5.84,5.84,0,0,1,.21-2l0-.05a7.91,7.91,0,1,0-8.62,0l0,0.05a5.84,5.84,0,0,1,.21,2,9.31,9.31,0,0,1-.22,1.76H806.7a8.21,8.21,0,0,0-8.21,8.21V70.69h28.89V56.84A8.21,8.21,0,0,0,819.18,48.63Z"/><path class="cls-3" d="M869.36,48.63h-1.93a9.31,9.31,0,0,1-.22-1.76,5.84,5.84,0,0,1,.21-2l0-.05a7.91,7.91,0,1,0-8.62,0l0,0.05a5.84,5.84,0,0,1,.21,2,9.31,9.31,0,0,1-.22,1.76h-1.93a8.21,8.21,0,0,0-8.21,8.21V70.69h28.89V56.84A8.21,8.21,0,0,0,869.36,48.63Z"/><path class="cls-3" d="M919.54,48.63h-1.93a9.31,9.31,0,0,1-.22-1.76,5.84,5.84,0,0,1,.21-2l0-.05a7.91,7.91,0,1,0-8.62,0l0,0.05a5.84,5.84,0,0,1,.21,2,9.31,9.31,0,0,1-.22,1.76h-1.93a8.21,8.21,0,0,0-8.21,8.21V70.69h28.89V56.84A8.21,8.21,0,0,0,919.54,48.63Z"/><path class="cls-3" d="M969.72,48.63h-1.93a9.31,9.31,0,0,1-.22-1.76,5.84,5.84,0,0,1,.21-2l0-.05a7.91,7.91,0,1,0-8.62,0l0,0.05a5.84,5.84,0,0,1,.21,2,9.31,9.31,0,0,1-.22,1.76h-1.93A8.21,8.21,0,0,0,949,56.84V70.69h28.89V56.84A8.21,8.21,0,0,0,969.72,48.63Z"/><path class="cls-3" d="M1019.9,48.63H1018a9.31,9.31,0,0,1-.22-1.76,5.84,5.84,0,0,1,.21-2l0-.05a7.91,7.91,0,1,0-8.62,0l0,0.05a5.84,5.84,0,0,1,.21,2,9.31,9.31,0,0,1-.22,1.76h-1.93a8.21,8.21,0,0,0-8.21,8.21V70.69h28.89V56.84A8.21,8.21,0,0,0,1019.9,48.63Z"/><path class="cls-1" d="M66.46,249.43H64.53a9.31,9.31,0,0,1-.22-1.76,5.84,5.84,0,0,1,.21-2l0-.05a7.91,7.91,0,1,0-8.62,0l0,0.05a5.84,5.84,0,0,1,.21,2,9.31,9.31,0,0,1-.22,1.76H54a8.21,8.21,0,0,0-8.21,8.21V271.5H74.67V257.64A8.21,8.21,0,0,0,66.46,249.43Z"/><path class="cls-1" d="M16.28,249.43H14.35a9.31,9.31,0,0,1-.22-1.76,5.84,5.84,0,0,1,.21-2l0-.05a7.91,7.91,0,1,0-8.62,0l0,0.05a5.84,5.84,0,0,1,.21,2,9.31,9.31,0,0,1-.22,1.76H3.8a8.21,8.21,0,0,0-8.21,8.21V271.5H24.49V257.64A8.21,8.21,0,0,0,16.28,249.43Z"/><path class="cls-1" d="M116.64,249.43h-1.93a9.31,9.31,0,0,1-.22-1.76,5.84,5.84,0,0,1,.21-2l0-.05a7.91,7.91,0,1,0-8.62,0l0,0.05a5.84,5.84,0,0,1,.21,2,9.31,9.31,0,0,1-.22,1.76h-1.93A8.21,8.21,0,0,0,96,257.64V271.5h28.89V257.64A8.21,8.21,0,0,0,116.64,249.43Z"/><path class="cls-1" d="M166.82,249.43h-1.93a9.31,9.31,0,0,1-.22-1.76,5.84,5.84,0,0,1,.21-2l0-.05a7.91,7.91,0,1,0-8.62,0l0,0.05a5.84,5.84,0,0,1,.21,2,9.31,9.31,0,0,1-.22,1.76h-1.93a8.21,8.21,0,0,0-8.21,8.21V271.5H175V257.64A8.21,8.21,0,0,0,166.82,249.43Z"/><path class="cls-1" d="M217,249.43h-1.93a9.31,9.31,0,0,1-.22-1.76,5.84,5.84,0,0,1,.21-2l0-.05a7.91,7.91,0,1,0-8.62,0l0,0.05a5.84,5.84,0,0,1,.21,2,9.31,9.31,0,0,1-.22,1.76h-1.93a8.21,8.21,0,0,0-8.21,8.21V271.5h28.89V257.64A8.21,8.21,0,0,0,217,249.43Z"/><path class="cls-1" d="M267.18,249.43h-1.93a9.31,9.31,0,0,1-.22-1.76,5.84,5.84,0,0,1,.21-2l0-.05a7.91,7.91,0,1,0-8.62,0l0,0.05a5.84,5.84,0,0,1,.21,2,9.31,9.31,0,0,1-.22,1.76h-1.93a8.21,8.21,0,0,0-8.21,8.21V271.5h28.89V257.64A8.21,8.21,0,0,0,267.18,249.43Z"/><path class="cls-1" d="M317.37,249.43h-1.93a9.31,9.31,0,0,1-.22-1.76,5.84,5.84,0,0,1,.21-2l0-.05a7.91,7.91,0,1,0-8.62,0l0,0.05a5.84,5.84,0,0,1,.21,2,9.31,9.31,0,0,1-.22,1.76h-1.93a8.21,8.21,0,0,0-8.21,8.21V271.5h28.89V257.64A8.21,8.21,0,0,0,317.37,249.43Z"/><path class="cls-1" d="M367.55,249.43h-1.93a9.31,9.31,0,0,1-.22-1.76,5.84,5.84,0,0,1,.21-2l0-.05a7.91,7.91,0,1,0-8.62,0l0,0.05a5.84,5.84,0,0,1,.21,2,9.31,9.31,0,0,1-.22,1.76h-1.93a8.21,8.21,0,0,0-8.21,8.21V271.5h28.89V257.64A8.21,8.21,0,0,0,367.55,249.43Z"/><path class="cls-1" d="M417.73,249.43H415.8a9.31,9.31,0,0,1-.22-1.76,5.84,5.84,0,0,1,.21-2l0-.05a7.91,7.91,0,1,0-8.62,0l0,0.05a5.84,5.84,0,0,1,.21,2,9.31,9.31,0,0,1-.22,1.76h-1.93a8.21,8.21,0,0,0-8.21,8.21V271.5h28.89V257.64A8.21,8.21,0,0,0,417.73,249.43Z"/><path class="cls-1" d="M467.91,249.43H466a9.31,9.31,0,0,1-.22-1.76,5.84,5.84,0,0,1,.21-2l0-.05a7.91,7.91,0,1,0-8.62,0l0,0.05a5.84,5.84,0,0,1,.21,2,9.31,9.31,0,0,1-.22,1.76h-1.93a8.21,8.21,0,0,0-8.21,8.21V271.5h28.89V257.64A8.21,8.21,0,0,0,467.91,249.43Z"/><path class="cls-1" d="M518.09,249.43h-1.93a9.31,9.31,0,0,1-.22-1.76,5.84,5.84,0,0,1,.21-2l0-.05a7.91,7.91,0,1,0-8.62,0l0,0.05a5.84,5.84,0,0,1,.21,2,9.31,9.31,0,0,1-.22,1.76h-1.93a8.21,8.21,0,0,0-8.21,8.21V271.5H526.3V257.64A8.21,8.21,0,0,0,518.09,249.43Z"/><path class="cls-1" d="M568.27,249.43h-1.93a9.31,9.31,0,0,1-.22-1.76,5.84,5.84,0,0,1,.21-2l0-.05a7.91,7.91,0,1,0-8.62,0l0,0.05a5.84,5.84,0,0,1,.21,2,9.31,9.31,0,0,1-.22,1.76H555.8a8.21,8.21,0,0,0-8.21,8.21V271.5h28.89V257.64A8.21,8.21,0,0,0,568.27,249.43Z"/><path class="cls-1" d="M618.45,249.43h-1.93a9.31,9.31,0,0,1-.22-1.76,5.84,5.84,0,0,1,.21-2l0-.05a7.91,7.91,0,1,0-8.62,0l0,0.05a5.84,5.84,0,0,1,.21,2,9.31,9.31,0,0,1-.22,1.76H606a8.21,8.21,0,0,0-8.21,8.21V271.5h28.89V257.64A8.21,8.21,0,0,0,618.45,249.43Z"/><path class="cls-1" d="M668.63,249.43H666.7a9.31,9.31,0,0,1-.22-1.76,5.84,5.84,0,0,1,.21-2l0-.05a7.91,7.91,0,1,0-8.62,0l0,0.05a5.84,5.84,0,0,1,.21,2,9.31,9.31,0,0,1-.22,1.76h-1.93a8.21,8.21,0,0,0-8.21,8.21V271.5h28.89V257.64A8.21,8.21,0,0,0,668.63,249.43Z"/><path class="cls-1" d="M718.81,250.63h-1.93a9.31,9.31,0,0,1-.22-1.76,5.84,5.84,0,0,1,.21-2l0-.05a7.91,7.91,0,1,0-8.62,0l0,0.05a5.84,5.84,0,0,1,.21,2,9.31,9.31,0,0,1-.22,1.76h-1.93a8.21,8.21,0,0,0-8.21,8.21v13.85H727V258.84A8.21,8.21,0,0,0,718.81,250.63Z"/><path class="cls-1" d="M769,250.63h-1.93a9.31,9.31,0,0,1-.22-1.76,5.84,5.84,0,0,1,.21-2l0-.05a7.91,7.91,0,1,0-8.62,0l0,0.05a5.84,5.84,0,0,1,.21,2,9.31,9.31,0,0,1-.22,1.76h-1.93a8.21,8.21,0,0,0-8.21,8.21v13.85h28.89V258.84A8.21,8.21,0,0,0,769,250.63Z"/><path class="cls-1" d="M819.18,250.63h-1.93a9.31,9.31,0,0,1-.22-1.76,5.84,5.84,0,0,1,.21-2l0-.05a7.91,7.91,0,1,0-8.62,0l0,0.05a5.84,5.84,0,0,1,.21,2,9.31,9.31,0,0,1-.22,1.76H806.7a8.21,8.21,0,0,0-8.21,8.21v13.85h28.89V258.84A8.21,8.21,0,0,0,819.18,250.63Z"/><path class="cls-1" d="M869.36,250.63h-1.93a9.31,9.31,0,0,1-.22-1.76,5.84,5.84,0,0,1,.21-2l0-.05a7.91,7.91,0,1,0-8.62,0l0,0.05a5.84,5.84,0,0,1,.21,2,9.31,9.31,0,0,1-.22,1.76h-1.93a8.21,8.21,0,0,0-8.21,8.21v13.85h28.89V258.84A8.21,8.21,0,0,0,869.36,250.63Z"/><path class="cls-1" d="M919.54,250.63h-1.93a9.31,9.31,0,0,1-.22-1.76,5.84,5.84,0,0,1,.21-2l0-.05a7.91,7.91,0,1,0-8.62,0l0,0.05a5.84,5.84,0,0,1,.21,2,9.31,9.31,0,0,1-.22,1.76h-1.93a8.21,8.21,0,0,0-8.21,8.21v13.85h28.89V258.84A8.21,8.21,0,0,0,919.54,250.63Z"/><path class="cls-1" d="M969.72,250.63h-1.93a9.31,9.31,0,0,1-.22-1.76,5.84,5.84,0,0,1,.21-2l0-.05a7.91,7.91,0,1,0-8.62,0l0,0.05a5.84,5.84,0,0,1,.21,2,9.31,9.31,0,0,1-.22,1.76h-1.93a8.21,8.21,0,0,0-8.21,8.21v13.85h28.89V258.84A8.21,8.21,0,0,0,969.72,250.63Z"/><path class="cls-1" d="M1019.9,250.63H1018a9.31,9.31,0,0,1-.22-1.76,5.84,5.84,0,0,1,.21-2l0-.05a7.91,7.91,0,1,0-8.62,0l0,0.05a5.84,5.84,0,0,1,.21,2,9.31,9.31,0,0,1-.22,1.76h-1.93a8.21,8.21,0,0,0-8.21,8.21v13.85h28.89V258.84A8.21,8.21,0,0,0,1019.9,250.63Z"/><rect class="cls-4" y="348.08" width="1025.11" height="41.89"/><path class="cls-5" d="M66.46,251.43H64.53a9.31,9.31,0,0,1-.22-1.76,5.84,5.84,0,0,1,.21-2l0-.05a7.91,7.91,0,1,0-8.62,0l0,0.05a5.84,5.84,0,0,1,.21,2,9.31,9.31,0,0,1-.22,1.76H54a8.21,8.21,0,0,0-8.21,8.21V273.5H74.67V259.64A8.21,8.21,0,0,0,66.46,251.43Z"/><path class="cls-5" d="M16.28,251.43H14.35a9.31,9.31,0,0,1-.22-1.76,5.84,5.84,0,0,1,.21-2l0-.05a7.91,7.91,0,1,0-8.62,0l0,0.05a5.84,5.84,0,0,1,.21,2,9.31,9.31,0,0,1-.22,1.76H3.8a8.21,8.21,0,0,0-8.21,8.21V273.5H24.49V259.64A8.21,8.21,0,0,0,16.28,251.43Z"/><path class="cls-5" d="M116.64,251.43h-1.93a9.31,9.31,0,0,1-.22-1.76,5.84,5.84,0,0,1,.21-2l0-.05a7.91,7.91,0,1,0-8.62,0l0,0.05a5.84,5.84,0,0,1,.21,2,9.31,9.31,0,0,1-.22,1.76h-1.93A8.21,8.21,0,0,0,96,259.64V273.5h28.89V259.64A8.21,8.21,0,0,0,116.64,251.43Z"/><path class="cls-5" d="M166.82,251.43h-1.93a9.31,9.31,0,0,1-.22-1.76,5.84,5.84,0,0,1,.21-2l0-.05a7.91,7.91,0,1,0-8.62,0l0,0.05a5.84,5.84,0,0,1,.21,2,9.31,9.31,0,0,1-.22,1.76h-1.93a8.21,8.21,0,0,0-8.21,8.21V273.5H175V259.64A8.21,8.21,0,0,0,166.82,251.43Z"/><path class="cls-5" d="M217,251.43h-1.93a9.31,9.31,0,0,1-.22-1.76,5.84,5.84,0,0,1,.21-2l0-.05a7.91,7.91,0,1,0-8.62,0l0,0.05a5.84,5.84,0,0,1,.21,2,9.31,9.31,0,0,1-.22,1.76h-1.93a8.21,8.21,0,0,0-8.21,8.21V273.5h28.89V259.64A8.21,8.21,0,0,0,217,251.43Z"/><path class="cls-5" d="M267.18,251.43h-1.93a9.31,9.31,0,0,1-.22-1.76,5.84,5.84,0,0,1,.21-2l0-.05a7.91,7.91,0,1,0-8.62,0l0,0.05a5.84,5.84,0,0,1,.21,2,9.31,9.31,0,0,1-.22,1.76h-1.93a8.21,8.21,0,0,0-8.21,8.21V273.5h28.89V259.64A8.21,8.21,0,0,0,267.18,251.43Z"/><path class="cls-5" d="M317.37,251.43h-1.93a9.31,9.31,0,0,1-.22-1.76,5.84,5.84,0,0,1,.21-2l0-.05a7.91,7.91,0,1,0-8.62,0l0,0.05a5.84,5.84,0,0,1,.21,2,9.31,9.31,0,0,1-.22,1.76h-1.93a8.21,8.21,0,0,0-8.21,8.21V273.5h28.89V259.64A8.21,8.21,0,0,0,317.37,251.43Z"/><path class="cls-5" d="M367.55,251.43h-1.93a9.31,9.31,0,0,1-.22-1.76,5.84,5.84,0,0,1,.21-2l0-.05a7.91,7.91,0,1,0-8.62,0l0,0.05a5.84,5.84,0,0,1,.21,2,9.31,9.31,0,0,1-.22,1.76h-1.93a8.21,8.21,0,0,0-8.21,8.21V273.5h28.89V259.64A8.21,8.21,0,0,0,367.55,251.43Z"/><path class="cls-5" d="M417.73,251.43H415.8a9.31,9.31,0,0,1-.22-1.76,5.84,5.84,0,0,1,.21-2l0-.05a7.91,7.91,0,1,0-8.62,0l0,0.05a5.84,5.84,0,0,1,.21,2,9.31,9.31,0,0,1-.22,1.76h-1.93a8.21,8.21,0,0,0-8.21,8.21V273.5h28.89V259.64A8.21,8.21,0,0,0,417.73,251.43Z"/><path class="cls-5" d="M467.91,251.43H466a9.31,9.31,0,0,1-.22-1.76,5.84,5.84,0,0,1,.21-2l0-.05a7.91,7.91,0,1,0-8.62,0l0,0.05a5.84,5.84,0,0,1,.21,2,9.31,9.31,0,0,1-.22,1.76h-1.93a8.21,8.21,0,0,0-8.21,8.21V273.5h28.89V259.64A8.21,8.21,0,0,0,467.91,251.43Z"/><path class="cls-5" d="M518.09,251.43h-1.93a9.31,9.31,0,0,1-.22-1.76,5.84,5.84,0,0,1,.21-2l0-.05a7.91,7.91,0,1,0-8.62,0l0,0.05a5.84,5.84,0,0,1,.21,2,9.31,9.31,0,0,1-.22,1.76h-1.93a8.21,8.21,0,0,0-8.21,8.21V273.5H526.3V259.64A8.21,8.21,0,0,0,518.09,251.43Z"/><path class="cls-5" d="M568.27,251.43h-1.93a9.31,9.31,0,0,1-.22-1.76,5.84,5.84,0,0,1,.21-2l0-.05a7.91,7.91,0,1,0-8.62,0l0,0.05a5.84,5.84,0,0,1,.21,2,9.31,9.31,0,0,1-.22,1.76H555.8a8.21,8.21,0,0,0-8.21,8.21V273.5h28.89V259.64A8.21,8.21,0,0,0,568.27,251.43Z"/><path class="cls-5" d="M618.45,251.43h-1.93a9.31,9.31,0,0,1-.22-1.76,5.84,5.84,0,0,1,.21-2l0-.05a7.91,7.91,0,1,0-8.62,0l0,0.05a5.84,5.84,0,0,1,.21,2,9.31,9.31,0,0,1-.22,1.76H606a8.21,8.21,0,0,0-8.21,8.21V273.5h28.89V259.64A8.21,8.21,0,0,0,618.45,251.43Z"/><path class="cls-5" d="M668.63,251.43H666.7a9.31,9.31,0,0,1-.22-1.76,5.84,5.84,0,0,1,.21-2l0-.05a7.91,7.91,0,1,0-8.62,0l0,0.05a5.84,5.84,0,0,1,.21,2,9.31,9.31,0,0,1-.22,1.76h-1.93a8.21,8.21,0,0,0-8.21,8.21V273.5h28.89V259.64A8.21,8.21,0,0,0,668.63,251.43Z"/><path class="cls-5" d="M718.81,252.63h-1.93a9.31,9.31,0,0,1-.22-1.76,5.84,5.84,0,0,1,.21-2l0-.05a7.91,7.91,0,1,0-8.62,0l0,0.05a5.84,5.84,0,0,1,.21,2,9.31,9.31,0,0,1-.22,1.76h-1.93a8.21,8.21,0,0,0-8.21,8.21v13.85H727V260.84A8.21,8.21,0,0,0,718.81,252.63Z"/><path class="cls-5" d="M769,252.63h-1.93a9.31,9.31,0,0,1-.22-1.76,5.84,5.84,0,0,1,.21-2l0-.05a7.91,7.91,0,1,0-8.62,0l0,0.05a5.84,5.84,0,0,1,.21,2,9.31,9.31,0,0,1-.22,1.76h-1.93a8.21,8.21,0,0,0-8.21,8.21v13.85h28.89V260.84A8.21,8.21,0,0,0,769,252.63Z"/><path class="cls-5" d="M819.18,252.63h-1.93a9.31,9.31,0,0,1-.22-1.76,5.84,5.84,0,0,1,.21-2l0-.05a7.91,7.91,0,1,0-8.62,0l0,0.05a5.84,5.84,0,0,1,.21,2,9.31,9.31,0,0,1-.22,1.76H806.7a8.21,8.21,0,0,0-8.21,8.21v13.85h28.89V260.84A8.21,8.21,0,0,0,819.18,252.63Z"/><path class="cls-5" d="M869.36,252.63h-1.93a9.31,9.31,0,0,1-.22-1.76,5.84,5.84,0,0,1,.21-2l0-.05a7.91,7.91,0,1,0-8.62,0l0,0.05a5.84,5.84,0,0,1,.21,2,9.31,9.31,0,0,1-.22,1.76h-1.93a8.21,8.21,0,0,0-8.21,8.21v13.85h28.89V260.84A8.21,8.21,0,0,0,869.36,252.63Z"/><path class="cls-5" d="M919.54,252.63h-1.93a9.31,9.31,0,0,1-.22-1.76,5.84,5.84,0,0,1,.21-2l0-.05a7.91,7.91,0,1,0-8.62,0l0,0.05a5.84,5.84,0,0,1,.21,2,9.31,9.31,0,0,1-.22,1.76h-1.93a8.21,8.21,0,0,0-8.21,8.21v13.85h28.89V260.84A8.21,8.21,0,0,0,919.54,252.63Z"/><path class="cls-5" d="M969.72,252.63h-1.93a9.31,9.31,0,0,1-.22-1.76,5.84,5.84,0,0,1,.21-2l0-.05a7.91,7.91,0,1,0-8.62,0l0,0.05a5.84,5.84,0,0,1,.21,2,9.31,9.31,0,0,1-.22,1.76h-1.93a8.21,8.21,0,0,0-8.21,8.21v13.85h28.89V260.84A8.21,8.21,0,0,0,969.72,252.63Z"/><path class="cls-5" d="M1019.9,252.63H1018a9.31,9.31,0,0,1-.22-1.76,5.84,5.84,0,0,1,.21-2l0-.05a7.91,7.91,0,1,0-8.62,0l0,0.05a5.84,5.84,0,0,1,.21,2,9.31,9.31,0,0,1-.22,1.76h-1.93a8.21,8.21,0,0,0-8.21,8.21v13.85h28.89V260.84A8.21,8.21,0,0,0,1019.9,252.63Z"/><path class="cls-5" d="M66.46,91.43H64.53a9.31,9.31,0,0,1-.22-1.76,5.84,5.84,0,0,1,.21-2l0-.05a7.91,7.91,0,1,0-8.62,0l0,0.05a5.84,5.84,0,0,1,.21,2,9.31,9.31,0,0,1-.22,1.76H54a8.21,8.21,0,0,0-8.21,8.21V113.5H74.67V99.64A8.21,8.21,0,0,0,66.46,91.43Z"/><path class="cls-5" d="M16.28,91.43H14.35a9.31,9.31,0,0,1-.22-1.76,5.84,5.84,0,0,1,.21-2l0-.05a7.91,7.91,0,1,0-8.62,0l0,0.05a5.84,5.84,0,0,1,.21,2,9.31,9.31,0,0,1-.22,1.76H3.8a8.21,8.21,0,0,0-8.21,8.21V113.5H24.49V99.64A8.21,8.21,0,0,0,16.28,91.43Z"/><path class="cls-5" d="M116.64,91.43h-1.93a9.31,9.31,0,0,1-.22-1.76,5.84,5.84,0,0,1,.21-2l0-.05a7.91,7.91,0,1,0-8.62,0l0,0.05a5.84,5.84,0,0,1,.21,2,9.31,9.31,0,0,1-.22,1.76h-1.93A8.21,8.21,0,0,0,96,99.64V113.5h28.89V99.64A8.21,8.21,0,0,0,116.64,91.43Z"/><path class="cls-5" d="M166.82,91.43h-1.93a9.31,9.31,0,0,1-.22-1.76,5.84,5.84,0,0,1,.21-2l0-.05a7.91,7.91,0,1,0-8.62,0l0,0.05a5.84,5.84,0,0,1,.21,2,9.31,9.31,0,0,1-.22,1.76h-1.93a8.21,8.21,0,0,0-8.21,8.21V113.5H175V99.64A8.21,8.21,0,0,0,166.82,91.43Z"/><path class="cls-5" d="M217,91.43h-1.93a9.31,9.31,0,0,1-.22-1.76,5.84,5.84,0,0,1,.21-2l0-.05a7.91,7.91,0,1,0-8.62,0l0,0.05a5.84,5.84,0,0,1,.21,2,9.31,9.31,0,0,1-.22,1.76h-1.93a8.21,8.21,0,0,0-8.21,8.21V113.5h28.89V99.64A8.21,8.21,0,0,0,217,91.43Z"/><path class="cls-5" d="M267.18,91.43h-1.93a9.31,9.31,0,0,1-.22-1.76,5.84,5.84,0,0,1,.21-2l0-.05a7.91,7.91,0,1,0-8.62,0l0,0.05a5.84,5.84,0,0,1,.21,2,9.31,9.31,0,0,1-.22,1.76h-1.93a8.21,8.21,0,0,0-8.21,8.21V113.5h28.89V99.64A8.21,8.21,0,0,0,267.18,91.43Z"/><path class="cls-5" d="M317.37,91.43h-1.93a9.31,9.31,0,0,1-.22-1.76,5.84,5.84,0,0,1,.21-2l0-.05a7.91,7.91,0,1,0-8.62,0l0,0.05a5.84,5.84,0,0,1,.21,2,9.31,9.31,0,0,1-.22,1.76h-1.93a8.21,8.21,0,0,0-8.21,8.21V113.5h28.89V99.64A8.21,8.21,0,0,0,317.37,91.43Z"/><path class="cls-5" d="M367.55,91.43h-1.93a9.31,9.31,0,0,1-.22-1.76,5.84,5.84,0,0,1,.21-2l0-.05a7.91,7.91,0,1,0-8.62,0l0,0.05a5.84,5.84,0,0,1,.21,2,9.31,9.31,0,0,1-.22,1.76h-1.93a8.21,8.21,0,0,0-8.21,8.21V113.5h28.89V99.64A8.21,8.21,0,0,0,367.55,91.43Z"/><path class="cls-5" d="M417.73,91.43H415.8a9.31,9.31,0,0,1-.22-1.76,5.84,5.84,0,0,1,.21-2l0-.05a7.91,7.91,0,1,0-8.62,0l0,0.05a5.84,5.84,0,0,1,.21,2,9.31,9.31,0,0,1-.22,1.76h-1.93A8.21,8.21,0,0,0,397,99.64V113.5h28.89V99.64A8.21,8.21,0,0,0,417.73,91.43Z"/><path class="cls-5" d="M467.91,91.43H466a9.31,9.31,0,0,1-.22-1.76,5.84,5.84,0,0,1,.21-2l0-.05a7.91,7.91,0,1,0-8.62,0l0,0.05a5.84,5.84,0,0,1,.21,2,9.31,9.31,0,0,1-.22,1.76h-1.93a8.21,8.21,0,0,0-8.21,8.21V113.5h28.89V99.64A8.21,8.21,0,0,0,467.91,91.43Z"/><path class="cls-5" d="M518.09,91.43h-1.93a9.31,9.31,0,0,1-.22-1.76,5.84,5.84,0,0,1,.21-2l0-.05a7.91,7.91,0,1,0-8.62,0l0,0.05a5.84,5.84,0,0,1,.21,2,9.31,9.31,0,0,1-.22,1.76h-1.93a8.21,8.21,0,0,0-8.21,8.21V113.5H526.3V99.64A8.21,8.21,0,0,0,518.09,91.43Z"/><path class="cls-5" d="M568.27,91.43h-1.93a9.31,9.31,0,0,1-.22-1.76,5.84,5.84,0,0,1,.21-2l0-.05a7.91,7.91,0,1,0-8.62,0l0,0.05a5.84,5.84,0,0,1,.21,2,9.31,9.31,0,0,1-.22,1.76H555.8a8.21,8.21,0,0,0-8.21,8.21V113.5h28.89V99.64A8.21,8.21,0,0,0,568.27,91.43Z"/><path class="cls-5" d="M618.45,91.43h-1.93a9.31,9.31,0,0,1-.22-1.76,5.84,5.84,0,0,1,.21-2l0-.05a7.91,7.91,0,1,0-8.62,0l0,0.05a5.84,5.84,0,0,1,.21,2,9.31,9.31,0,0,1-.22,1.76H606a8.21,8.21,0,0,0-8.21,8.21V113.5h28.89V99.64A8.21,8.21,0,0,0,618.45,91.43Z"/><path class="cls-5" d="M668.63,91.43H666.7a9.31,9.31,0,0,1-.22-1.76,5.84,5.84,0,0,1,.21-2l0-.05a7.91,7.91,0,1,0-8.62,0l0,0.05a5.84,5.84,0,0,1,.21,2,9.31,9.31,0,0,1-.22,1.76h-1.93a8.21,8.21,0,0,0-8.21,8.21V113.5h28.89V99.64A8.21,8.21,0,0,0,668.63,91.43Z"/><path class="cls-5" d="M718.81,92.63h-1.93a9.31,9.31,0,0,1-.22-1.76,5.84,5.84,0,0,1,.21-2l0-.05a7.91,7.91,0,1,0-8.62,0l0,0.05a5.84,5.84,0,0,1,.21,2,9.31,9.31,0,0,1-.22,1.76h-1.93a8.21,8.21,0,0,0-8.21,8.21v13.85H727V100.84A8.21,8.21,0,0,0,718.81,92.63Z"/><path class="cls-5" d="M769,92.63h-1.93a9.31,9.31,0,0,1-.22-1.76,5.84,5.84,0,0,1,.21-2l0-.05a7.91,7.91,0,1,0-8.62,0l0,0.05a5.84,5.84,0,0,1,.21,2,9.31,9.31,0,0,1-.22,1.76h-1.93a8.21,8.21,0,0,0-8.21,8.21v13.85h28.89V100.84A8.21,8.21,0,0,0,769,92.63Z"/><path class="cls-5" d="M819.18,92.63h-1.93a9.31,9.31,0,0,1-.22-1.76,5.84,5.84,0,0,1,.21-2l0-.05a7.91,7.91,0,1,0-8.62,0l0,0.05a5.84,5.84,0,0,1,.21,2,9.31,9.31,0,0,1-.22,1.76H806.7a8.21,8.21,0,0,0-8.21,8.21v13.85h28.89V100.84A8.21,8.21,0,0,0,819.18,92.63Z"/><path class="cls-5" d="M869.36,92.63h-1.93a9.31,9.31,0,0,1-.22-1.76,5.84,5.84,0,0,1,.21-2l0-.05a7.91,7.91,0,1,0-8.62,0l0,0.05a5.84,5.84,0,0,1,.21,2,9.31,9.31,0,0,1-.22,1.76h-1.93a8.21,8.21,0,0,0-8.21,8.21v13.85h28.89V100.84A8.21,8.21,0,0,0,869.36,92.63Z"/><path class="cls-5" d="M919.54,92.63h-1.93a9.31,9.31,0,0,1-.22-1.76,5.84,5.84,0,0,1,.21-2l0-.05a7.91,7.91,0,1,0-8.62,0l0,0.05a5.84,5.84,0,0,1,.21,2,9.31,9.31,0,0,1-.22,1.76h-1.93a8.21,8.21,0,0,0-8.21,8.21v13.85h28.89V100.84A8.21,8.21,0,0,0,919.54,92.63Z"/><path class="cls-5" d="M969.72,92.63h-1.93a9.31,9.31,0,0,1-.22-1.76,5.84,5.84,0,0,1,.21-2l0-.05a7.91,7.91,0,1,0-8.62,0l0,0.05a5.84,5.84,0,0,1,.21,2,9.31,9.31,0,0,1-.22,1.76h-1.93a8.21,8.21,0,0,0-8.21,8.21v13.85h28.89V100.84A8.21,8.21,0,0,0,969.72,92.63Z"/><path class="cls-5" d="M1019.9,92.63H1018a9.31,9.31,0,0,1-.22-1.76,5.84,5.84,0,0,1,.21-2l0-.05a7.91,7.91,0,1,0-8.62,0l0,0.05a5.84,5.84,0,0,1,.21,2,9.31,9.31,0,0,1-.22,1.76h-1.93a8.21,8.21,0,0,0-8.21,8.21v13.85h28.89V100.84A8.21,8.21,0,0,0,1019.9,92.63Z"/><path class="cls-6" d="M66.46,130.43H64.53a9.31,9.31,0,0,1-.22-1.76,5.84,5.84,0,0,1,.21-2l0-.05a7.91,7.91,0,1,0-8.62,0l0,0.05a5.84,5.84,0,0,1,.21,2,9.31,9.31,0,0,1-.22,1.76H54a8.21,8.21,0,0,0-8.21,8.21V152.5H74.67V138.64A8.21,8.21,0,0,0,66.46,130.43Z"/><path class="cls-6" d="M16.28,130.43H14.35a9.31,9.31,0,0,1-.22-1.76,5.84,5.84,0,0,1,.21-2l0-.05a7.91,7.91,0,1,0-8.62,0l0,0.05a5.84,5.84,0,0,1,.21,2,9.31,9.31,0,0,1-.22,1.76H3.8a8.21,8.21,0,0,0-8.21,8.21V152.5H24.49V138.64A8.21,8.21,0,0,0,16.28,130.43Z"/><path class="cls-6" d="M116.64,130.43h-1.93a9.31,9.31,0,0,1-.22-1.76,5.84,5.84,0,0,1,.21-2l0-.05a7.91,7.91,0,1,0-8.62,0l0,0.05a5.84,5.84,0,0,1,.21,2,9.31,9.31,0,0,1-.22,1.76h-1.93A8.21,8.21,0,0,0,96,138.64V152.5h28.89V138.64A8.21,8.21,0,0,0,116.64,130.43Z"/><path class="cls-6" d="M166.82,130.43h-1.93a9.31,9.31,0,0,1-.22-1.76,5.84,5.84,0,0,1,.21-2l0-.05a7.91,7.91,0,1,0-8.62,0l0,0.05a5.84,5.84,0,0,1,.21,2,9.31,9.31,0,0,1-.22,1.76h-1.93a8.21,8.21,0,0,0-8.21,8.21V152.5H175V138.64A8.21,8.21,0,0,0,166.82,130.43Z"/><path class="cls-6" d="M217,130.43h-1.93a9.31,9.31,0,0,1-.22-1.76,5.84,5.84,0,0,1,.21-2l0-.05a7.91,7.91,0,1,0-8.62,0l0,0.05a5.84,5.84,0,0,1,.21,2,9.31,9.31,0,0,1-.22,1.76h-1.93a8.21,8.21,0,0,0-8.21,8.21V152.5h28.89V138.64A8.21,8.21,0,0,0,217,130.43Z"/><path class="cls-6" d="M267.18,130.43h-1.93a9.31,9.31,0,0,1-.22-1.76,5.84,5.84,0,0,1,.21-2l0-.05a7.91,7.91,0,1,0-8.62,0l0,0.05a5.84,5.84,0,0,1,.21,2,9.31,9.31,0,0,1-.22,1.76h-1.93a8.21,8.21,0,0,0-8.21,8.21V152.5h28.89V138.64A8.21,8.21,0,0,0,267.18,130.43Z"/><path class="cls-6" d="M317.37,130.43h-1.93a9.31,9.31,0,0,1-.22-1.76,5.84,5.84,0,0,1,.21-2l0-.05a7.91,7.91,0,1,0-8.62,0l0,0.05a5.84,5.84,0,0,1,.21,2,9.31,9.31,0,0,1-.22,1.76h-1.93a8.21,8.21,0,0,0-8.21,8.21V152.5h28.89V138.64A8.21,8.21,0,0,0,317.37,130.43Z"/><path class="cls-6" d="M367.55,130.43h-1.93a9.31,9.31,0,0,1-.22-1.76,5.84,5.84,0,0,1,.21-2l0-.05a7.91,7.91,0,1,0-8.62,0l0,0.05a5.84,5.84,0,0,1,.21,2,9.31,9.31,0,0,1-.22,1.76h-1.93a8.21,8.21,0,0,0-8.21,8.21V152.5h28.89V138.64A8.21,8.21,0,0,0,367.55,130.43Z"/><path class="cls-6" d="M417.73,130.43H415.8a9.31,9.31,0,0,1-.22-1.76,5.84,5.84,0,0,1,.21-2l0-.05a7.91,7.91,0,1,0-8.62,0l0,0.05a5.84,5.84,0,0,1,.21,2,9.31,9.31,0,0,1-.22,1.76h-1.93a8.21,8.21,0,0,0-8.21,8.21V152.5h28.89V138.64A8.21,8.21,0,0,0,417.73,130.43Z"/><path class="cls-6" d="M467.91,130.43H466a9.31,9.31,0,0,1-.22-1.76,5.84,5.84,0,0,1,.21-2l0-.05a7.91,7.91,0,1,0-8.62,0l0,0.05a5.84,5.84,0,0,1,.21,2,9.31,9.31,0,0,1-.22,1.76h-1.93a8.21,8.21,0,0,0-8.21,8.21V152.5h28.89V138.64A8.21,8.21,0,0,0,467.91,130.43Z"/><path class="cls-6" d="M518.09,130.43h-1.93a9.31,9.31,0,0,1-.22-1.76,5.84,5.84,0,0,1,.21-2l0-.05a7.91,7.91,0,1,0-8.62,0l0,0.05a5.84,5.84,0,0,1,.21,2,9.31,9.31,0,0,1-.22,1.76h-1.93a8.21,8.21,0,0,0-8.21,8.21V152.5H526.3V138.64A8.21,8.21,0,0,0,518.09,130.43Z"/><path class="cls-6" d="M568.27,130.43h-1.93a9.31,9.31,0,0,1-.22-1.76,5.84,5.84,0,0,1,.21-2l0-.05a7.91,7.91,0,1,0-8.62,0l0,0.05a5.84,5.84,0,0,1,.21,2,9.31,9.31,0,0,1-.22,1.76H555.8a8.21,8.21,0,0,0-8.21,8.21V152.5h28.89V138.64A8.21,8.21,0,0,0,568.27,130.43Z"/><path class="cls-6" d="M618.45,130.43h-1.93a9.31,9.31,0,0,1-.22-1.76,5.84,5.84,0,0,1,.21-2l0-.05a7.91,7.91,0,1,0-8.62,0l0,0.05a5.84,5.84,0,0,1,.21,2,9.31,9.31,0,0,1-.22,1.76H606a8.21,8.21,0,0,0-8.21,8.21V152.5h28.89V138.64A8.21,8.21,0,0,0,618.45,130.43Z"/><path class="cls-6" d="M668.63,130.43H666.7a9.31,9.31,0,0,1-.22-1.76,5.84,5.84,0,0,1,.21-2l0-.05a7.91,7.91,0,1,0-8.62,0l0,0.05a5.84,5.84,0,0,1,.21,2,9.31,9.31,0,0,1-.22,1.76h-1.93a8.21,8.21,0,0,0-8.21,8.21V152.5h28.89V138.64A8.21,8.21,0,0,0,668.63,130.43Z"/><path class="cls-6" d="M718.81,131.63h-1.93a9.31,9.31,0,0,1-.22-1.76,5.84,5.84,0,0,1,.21-2l0-.05a7.91,7.91,0,1,0-8.62,0l0,0.05a5.84,5.84,0,0,1,.21,2,9.31,9.31,0,0,1-.22,1.76h-1.93a8.21,8.21,0,0,0-8.21,8.21v13.85H727V139.84A8.21,8.21,0,0,0,718.81,131.63Z"/><path class="cls-6" d="M769,131.63h-1.93a9.31,9.31,0,0,1-.22-1.76,5.84,5.84,0,0,1,.21-2l0-.05a7.91,7.91,0,1,0-8.62,0l0,0.05a5.84,5.84,0,0,1,.21,2,9.31,9.31,0,0,1-.22,1.76h-1.93a8.21,8.21,0,0,0-8.21,8.21v13.85h28.89V139.84A8.21,8.21,0,0,0,769,131.63Z"/><path class="cls-6" d="M819.18,131.63h-1.93a9.31,9.31,0,0,1-.22-1.76,5.84,5.84,0,0,1,.21-2l0-.05a7.91,7.91,0,1,0-8.62,0l0,0.05a5.84,5.84,0,0,1,.21,2,9.31,9.31,0,0,1-.22,1.76H806.7a8.21,8.21,0,0,0-8.21,8.21v13.85h28.89V139.84A8.21,8.21,0,0,0,819.18,131.63Z"/><path class="cls-6" d="M869.36,131.63h-1.93a9.31,9.31,0,0,1-.22-1.76,5.84,5.84,0,0,1,.21-2l0-.05a7.91,7.91,0,1,0-8.62,0l0,0.05a5.84,5.84,0,0,1,.21,2,9.31,9.31,0,0,1-.22,1.76h-1.93a8.21,8.21,0,0,0-8.21,8.21v13.85h28.89V139.84A8.21,8.21,0,0,0,869.36,131.63Z"/><path class="cls-6" d="M919.54,131.63h-1.93a9.31,9.31,0,0,1-.22-1.76,5.84,5.84,0,0,1,.21-2l0-.05a7.91,7.91,0,1,0-8.62,0l0,0.05a5.84,5.84,0,0,1,.21,2,9.31,9.31,0,0,1-.22,1.76h-1.93a8.21,8.21,0,0,0-8.21,8.21v13.85h28.89V139.84A8.21,8.21,0,0,0,919.54,131.63Z"/><path class="cls-6" d="M969.72,131.63h-1.93a9.31,9.31,0,0,1-.22-1.76,5.84,5.84,0,0,1,.21-2l0-.05a7.91,7.91,0,1,0-8.62,0l0,0.05a5.84,5.84,0,0,1,.21,2,9.31,9.31,0,0,1-.22,1.76h-1.93a8.21,8.21,0,0,0-8.21,8.21v13.85h28.89V139.84A8.21,8.21,0,0,0,969.72,131.63Z"/><path class="cls-6" d="M1019.9,131.63H1018a9.31,9.31,0,0,1-.22-1.76,5.84,5.84,0,0,1,.21-2l0-.05a7.91,7.91,0,1,0-8.62,0l0,0.05a5.84,5.84,0,0,1,.21,2,9.31,9.31,0,0,1-.22,1.76h-1.93a8.21,8.21,0,0,0-8.21,8.21v13.85h28.89V139.84A8.21,8.21,0,0,0,1019.9,131.63Z"/><g class="cls-7"><rect class="cls-8" y="389.97" width="1025.11" height="180.21"/><polygon class="cls-9" points="789.21 389.98 743.21 389.98 697.21 389.98 651.21 389.98 605.21 389.98 559.21 389.98 513.21 389.98 467.2 389.98 421.2 389.98 375.2 389.98 329.2 389.98 283.2 389.98 237.2 389.98 191.19 389.98 -321.85 505.43 -1833.9 845.71 -1498.6 845.71 -1163.3 845.71 -827.99 845.71 -492.69 845.71 -157.4 845.71 177.91 845.71 513.21 845.71 848.5 845.71 1183.81 845.71 1519.11 845.71 1854.41 845.71 2189.7 845.71 2525.01 845.71 2860.3 845.71 1385.71 513.86 835.22 389.98 789.21 389.98"/><path class="cls-8" d="M834.29,398.31l1951,439.07H-1758.93l1951-439.07H834.29m0.93-8.33h-644L-1833.9,845.71H2860.3L835.21,390h0Z"/><path class="cls-8" d="M586,390.12l48.19,48.09h0C651.35,455.65,599.46,474,512.9,474S374.53,455.65,391.79,438.2h0l48.43-48.14L223.94,390c-116.32,30.85-50,84.32,289.27,84.32,338.08,0,405.27-53.23,290.13-84.09Z"/><line class="cls-10" x1="387.68" y1="438.2" x2="641.27" y2="438.2"/></g><path class="cls-6" d="M66.46,295.43H64.53a9.31,9.31,0,0,1-.22-1.76,5.84,5.84,0,0,1,.21-2l0-.05a7.91,7.91,0,1,0-8.62,0l0,0.05a5.84,5.84,0,0,1,.21,2,9.31,9.31,0,0,1-.22,1.76H54a8.21,8.21,0,0,0-8.21,8.21V317.5H74.67V303.64A8.21,8.21,0,0,0,66.46,295.43Z"/><path class="cls-6" d="M16.28,295.43H14.35a9.31,9.31,0,0,1-.22-1.76,5.84,5.84,0,0,1,.21-2l0-.05a7.91,7.91,0,1,0-8.62,0l0,0.05a5.84,5.84,0,0,1,.21,2,9.31,9.31,0,0,1-.22,1.76H3.8a8.21,8.21,0,0,0-8.21,8.21V317.5H24.49V303.64A8.21,8.21,0,0,0,16.28,295.43Z"/><path class="cls-6" d="M116.64,295.43h-1.93a9.31,9.31,0,0,1-.22-1.76,5.84,5.84,0,0,1,.21-2l0-.05a7.91,7.91,0,1,0-8.62,0l0,0.05a5.84,5.84,0,0,1,.21,2,9.31,9.31,0,0,1-.22,1.76h-1.93A8.21,8.21,0,0,0,96,303.64V317.5h28.89V303.64A8.21,8.21,0,0,0,116.64,295.43Z"/><path class="cls-6" d="M166.82,295.43h-1.93a9.31,9.31,0,0,1-.22-1.76,5.84,5.84,0,0,1,.21-2l0-.05a7.91,7.91,0,1,0-8.62,0l0,0.05a5.84,5.84,0,0,1,.21,2,9.31,9.31,0,0,1-.22,1.76h-1.93a8.21,8.21,0,0,0-8.21,8.21V317.5H175V303.64A8.21,8.21,0,0,0,166.82,295.43Z"/><path class="cls-6" d="M217,295.43h-1.93a9.31,9.31,0,0,1-.22-1.76,5.84,5.84,0,0,1,.21-2l0-.05a7.91,7.91,0,1,0-8.62,0l0,0.05a5.84,5.84,0,0,1,.21,2,9.31,9.31,0,0,1-.22,1.76h-1.93a8.21,8.21,0,0,0-8.21,8.21V317.5h28.89V303.64A8.21,8.21,0,0,0,217,295.43Z"/><path class="cls-6" d="M267.18,295.43h-1.93a9.31,9.31,0,0,1-.22-1.76,5.84,5.84,0,0,1,.21-2l0-.05a7.91,7.91,0,1,0-8.62,0l0,0.05a5.84,5.84,0,0,1,.21,2,9.31,9.31,0,0,1-.22,1.76h-1.93a8.21,8.21,0,0,0-8.21,8.21V317.5h28.89V303.64A8.21,8.21,0,0,0,267.18,295.43Z"/><path class="cls-6" d="M317.37,295.43h-1.93a9.31,9.31,0,0,1-.22-1.76,5.84,5.84,0,0,1,.21-2l0-.05a7.91,7.91,0,1,0-8.62,0l0,0.05a5.84,5.84,0,0,1,.21,2,9.31,9.31,0,0,1-.22,1.76h-1.93a8.21,8.21,0,0,0-8.21,8.21V317.5h28.89V303.64A8.21,8.21,0,0,0,317.37,295.43Z"/><path class="cls-6" d="M367.55,295.43h-1.93a9.31,9.31,0,0,1-.22-1.76,5.84,5.84,0,0,1,.21-2l0-.05a7.91,7.91,0,1,0-8.62,0l0,0.05a5.84,5.84,0,0,1,.21,2,9.31,9.31,0,0,1-.22,1.76h-1.93a8.21,8.21,0,0,0-8.21,8.21V317.5h28.89V303.64A8.21,8.21,0,0,0,367.55,295.43Z"/><path class="cls-6" d="M417.73,295.43H415.8a9.31,9.31,0,0,1-.22-1.76,5.84,5.84,0,0,1,.21-2l0-.05a7.91,7.91,0,1,0-8.62,0l0,0.05a5.84,5.84,0,0,1,.21,2,9.31,9.31,0,0,1-.22,1.76h-1.93a8.21,8.21,0,0,0-8.21,8.21V317.5h28.89V303.64A8.21,8.21,0,0,0,417.73,295.43Z"/><path class="cls-6" d="M467.91,295.43H466a9.31,9.31,0,0,1-.22-1.76,5.84,5.84,0,0,1,.21-2l0-.05a7.91,7.91,0,1,0-8.62,0l0,0.05a5.84,5.84,0,0,1,.21,2,9.31,9.31,0,0,1-.22,1.76h-1.93a8.21,8.21,0,0,0-8.21,8.21V317.5h28.89V303.64A8.21,8.21,0,0,0,467.91,295.43Z"/><path class="cls-6" d="M518.09,295.43h-1.93a9.31,9.31,0,0,1-.22-1.76,5.84,5.84,0,0,1,.21-2l0-.05a7.91,7.91,0,1,0-8.62,0l0,0.05a5.84,5.84,0,0,1,.21,2,9.31,9.31,0,0,1-.22,1.76h-1.93a8.21,8.21,0,0,0-8.21,8.21V317.5H526.3V303.64A8.21,8.21,0,0,0,518.09,295.43Z"/><path class="cls-6" d="M568.27,295.43h-1.93a9.31,9.31,0,0,1-.22-1.76,5.84,5.84,0,0,1,.21-2l0-.05a7.91,7.91,0,1,0-8.62,0l0,0.05a5.84,5.84,0,0,1,.21,2,9.31,9.31,0,0,1-.22,1.76H555.8a8.21,8.21,0,0,0-8.21,8.21V317.5h28.89V303.64A8.21,8.21,0,0,0,568.27,295.43Z"/><path class="cls-6" d="M618.45,295.43h-1.93a9.31,9.31,0,0,1-.22-1.76,5.84,5.84,0,0,1,.21-2l0-.05a7.91,7.91,0,1,0-8.62,0l0,0.05a5.84,5.84,0,0,1,.21,2,9.31,9.31,0,0,1-.22,1.76H606a8.21,8.21,0,0,0-8.21,8.21V317.5h28.89V303.64A8.21,8.21,0,0,0,618.45,295.43Z"/><path class="cls-6" d="M668.63,295.43H666.7a9.31,9.31,0,0,1-.22-1.76,5.84,5.84,0,0,1,.21-2l0-.05a7.91,7.91,0,1,0-8.62,0l0,0.05a5.84,5.84,0,0,1,.21,2,9.31,9.31,0,0,1-.22,1.76h-1.93a8.21,8.21,0,0,0-8.21,8.21V317.5h28.89V303.64A8.21,8.21,0,0,0,668.63,295.43Z"/><path class="cls-6" d="M718.81,296.63h-1.93a9.31,9.31,0,0,1-.22-1.76,5.84,5.84,0,0,1,.21-2l0-.05a7.91,7.91,0,1,0-8.62,0l0,0.05a5.84,5.84,0,0,1,.21,2,9.31,9.31,0,0,1-.22,1.76h-1.93a8.21,8.21,0,0,0-8.21,8.21v13.85H727V304.84A8.21,8.21,0,0,0,718.81,296.63Z"/><path class="cls-6" d="M769,296.63h-1.93a9.31,9.31,0,0,1-.22-1.76,5.84,5.84,0,0,1,.21-2l0-.05a7.91,7.91,0,1,0-8.62,0l0,0.05a5.84,5.84,0,0,1,.21,2,9.31,9.31,0,0,1-.22,1.76h-1.93a8.21,8.21,0,0,0-8.21,8.21v13.85h28.89V304.84A8.21,8.21,0,0,0,769,296.63Z"/><path class="cls-6" d="M819.18,296.63h-1.93a9.31,9.31,0,0,1-.22-1.76,5.84,5.84,0,0,1,.21-2l0-.05a7.91,7.91,0,1,0-8.62,0l0,0.05a5.84,5.84,0,0,1,.21,2,9.31,9.31,0,0,1-.22,1.76H806.7a8.21,8.21,0,0,0-8.21,8.21v13.85h28.89V304.84A8.21,8.21,0,0,0,819.18,296.63Z"/><path class="cls-6" d="M869.36,296.63h-1.93a9.31,9.31,0,0,1-.22-1.76,5.84,5.84,0,0,1,.21-2l0-.05a7.91,7.91,0,1,0-8.62,0l0,0.05a5.84,5.84,0,0,1,.21,2,9.31,9.31,0,0,1-.22,1.76h-1.93a8.21,8.21,0,0,0-8.21,8.21v13.85h28.89V304.84A8.21,8.21,0,0,0,869.36,296.63Z"/><path class="cls-6" d="M919.54,296.63h-1.93a9.31,9.31,0,0,1-.22-1.76,5.84,5.84,0,0,1,.21-2l0-.05a7.91,7.91,0,1,0-8.62,0l0,0.05a5.84,5.84,0,0,1,.21,2,9.31,9.31,0,0,1-.22,1.76h-1.93a8.21,8.21,0,0,0-8.21,8.21v13.85h28.89V304.84A8.21,8.21,0,0,0,919.54,296.63Z"/><path class="cls-6" d="M969.72,296.63h-1.93a9.31,9.31,0,0,1-.22-1.76,5.84,5.84,0,0,1,.21-2l0-.05a7.91,7.91,0,1,0-8.62,0l0,0.05a5.84,5.84,0,0,1,.21,2,9.31,9.31,0,0,1-.22,1.76h-1.93a8.21,8.21,0,0,0-8.21,8.21v13.85h28.89V304.84A8.21,8.21,0,0,0,969.72,296.63Z"/><path class="cls-6" d="M1019.9,296.63H1018a9.31,9.31,0,0,1-.22-1.76,5.84,5.84,0,0,1,.21-2l0-.05a7.91,7.91,0,1,0-8.62,0l0,0.05a5.84,5.84,0,0,1,.21,2,9.31,9.31,0,0,1-.22,1.76h-1.93a8.21,8.21,0,0,0-8.21,8.21v13.85h28.89V304.84A8.21,8.21,0,0,0,1019.9,296.63Z"/><rect class="cls-11" x="-16.39" y="310.59" width="1051.34" height="37.5"/><rect class="cls-11" x="-16.39" y="146.59" width="1051.34" height="37.5"/><path id="path2987" class="cls-12" d="M239.9,177.13c0-.05,3.33-11.64,3.41-11.79a36.85,36.85,0,0,1,4.54,0s-0.48,1.86-1.11,4-1.14,4-1.12,4.06a3.23,3.23,0,0,0,1.58,0c0.11-.14,2.86-9.67,2.81-9.74s-1.34-.07-3.09-0.07-3.06,0-3.08-.06,0.62-2.3,1.43-5l1.47-5,5.39,0c3,0,5.42,0,5.45,0s-0.85,3.16-2,6.94l-3.39,11.65c-0.76,2.62-1.42,4.82-1.45,4.9s-0.4.13-5.46,0.13c-3,0-5.41,0-5.42-.06h0Zm11.25-17.24a24.74,24.74,0,0,0,.77-2.62c0-.1-0.11-0.12-0.77-0.12a1.73,1.73,0,0,0-.84.09,25.17,25.17,0,0,0-.77,2.62c0,0.1.11,0.12,0.77,0.12a1.75,1.75,0,0,0,.84-0.09h0Zm4.76,3.69s0.63-2.3,1.43-5l1.47-5,2.22,0a21.12,21.12,0,0,1,2.29,0,31.41,31.41,0,0,1-.83,3.12c-0.49,1.68-.9,3.11-0.9,3.18s0.09,0.12.84,0.1l0.84,0,0.93-3.13c0.51-1.72,1-3.17,1-3.22a33.17,33.17,0,0,1,4.47,0s-0.63,2.3-1.43,5l-1.47,5-5.41,0c-3,0-5.42,0-5.44,0h0Zm11.91,0s0.63-2.3,1.43-5l1.47-5,5.39,0c3,0,5.41,0,5.44,0s-0.61,2.3-1.42,5l-1.47,5-2.22,0a21.12,21.12,0,0,1-2.29,0,31.4,31.4,0,0,1,.83-3.12c0.49-1.68.9-3.11,0.9-3.18s-0.09-.12-0.84-0.1l-0.84,0-0.93,3.13c-0.51,1.72-1,3.17-1,3.22a33.17,33.17,0,0,1-4.47,0h0Zm13.48-3.3c-0.32-.25-0.32-0.53,0-1.68a3,3,0,0,1,.48-1.24,0.68,0.68,0,0,1,1.15.34,6.56,6.56,0,0,1-.72,2.52,0.67,0.67,0,0,1-.91.05h0Z"/><path id="path2989-1" class="cls-12" d="M257.66,164.72a1.84,1.84,0,0,0-1.59.54,2.87,2.87,0,0,0-.57,2.68,2.93,2.93,0,0,0,1.81,1.44c-1.09-.88-0.7-2.67.44-3.51h0.93c2.09,0,2-.19,2,1.26h0c0-2,0-2.36-1.83-2.4-0.48,0-.86,0-1.19,0h0Zm3.61,4.09c-0.21,1.33-1,1.48-2.59,1.48H254l-0.44,1.48h4.86c1.76,0,2.63-1.48,2.89-3h0Z"/><path id="path2987-2" data-name="path2987" class="cls-12" d="M579.9,177.13c0-.05,3.33-11.64,3.41-11.79a36.85,36.85,0,0,1,4.54,0s-0.48,1.86-1.11,4-1.14,4-1.12,4.06a3.23,3.23,0,0,0,1.58,0c0.11-.14,2.86-9.67,2.81-9.74s-1.34-.07-3.09-0.07-3.06,0-3.08-.06,0.62-2.3,1.43-5l1.47-5,5.39,0c3,0,5.42,0,5.45,0s-0.85,3.16-2,6.94l-3.39,11.65c-0.76,2.62-1.42,4.82-1.45,4.9s-0.4.13-5.46,0.13c-3,0-5.41,0-5.42-.06h0Zm11.25-17.24a24.74,24.74,0,0,0,.77-2.62c0-.1-0.11-0.12-0.77-0.12a1.73,1.73,0,0,0-.84.09,25.17,25.17,0,0,0-.77,2.62c0,0.1.11,0.12,0.77,0.12a1.75,1.75,0,0,0,.84-0.09h0Zm4.76,3.69s0.63-2.3,1.43-5l1.47-5,2.22,0a21.12,21.12,0,0,1,2.29,0,31.41,31.41,0,0,1-.83,3.12c-0.49,1.68-.9,3.11-0.9,3.18s0.09,0.12.84,0.1l0.84,0,0.93-3.13c0.51-1.72,1-3.17,1-3.22a33.17,33.17,0,0,1,4.47,0s-0.63,2.3-1.43,5l-1.47,5-5.41,0c-3,0-5.42,0-5.44,0h0Zm11.91,0s0.63-2.3,1.43-5l1.47-5,5.39,0c3,0,5.41,0,5.44,0s-0.61,2.3-1.42,5l-1.47,5-2.22,0a21.12,21.12,0,0,1-2.29,0,31.4,31.4,0,0,1,.83-3.12c0.49-1.68.9-3.11,0.9-3.18s-0.09-.12-0.84-0.1l-0.84,0-0.93,3.13c-0.51,1.72-1,3.17-1,3.22a33.17,33.17,0,0,1-4.47,0h0Zm13.48-3.3c-0.32-.25-0.32-0.53,0-1.68a3,3,0,0,1,.48-1.24,0.68,0.68,0,0,1,1.15.34,6.56,6.56,0,0,1-.72,2.52,0.67,0.67,0,0,1-.91.05h0Z"/><path id="path2989-1-2" data-name="path2989-1" class="cls-12" d="M597.66,164.72a1.84,1.84,0,0,0-1.59.54,2.87,2.87,0,0,0-.57,2.68,2.93,2.93,0,0,0,1.81,1.44c-1.09-.88-0.7-2.67.44-3.51h0.93c2.09,0,2-.19,2,1.26h0c0-2,0-2.36-1.83-2.4-0.48,0-.86,0-1.19,0h0Zm3.61,4.09c-0.21,1.33-1,1.48-2.59,1.48H594l-0.44,1.48h4.86c1.76,0,2.63-1.48,2.89-3h0Z"/><path id="path2987-3" data-name="path2987" class="cls-12" d="M959.9,177.13c0-.05,3.33-11.64,3.41-11.79a36.85,36.85,0,0,1,4.54,0s-0.48,1.86-1.11,4-1.14,4-1.12,4.06a3.23,3.23,0,0,0,1.58,0c0.11-.14,2.86-9.67,2.81-9.74s-1.34-.07-3.09-0.07-3.06,0-3.08-.06,0.62-2.3,1.43-5l1.47-5,5.39,0c3,0,5.42,0,5.45,0s-0.85,3.16-2,6.94l-3.39,11.65c-0.76,2.62-1.42,4.82-1.45,4.9s-0.4.13-5.46,0.13c-3,0-5.41,0-5.42-.06h0Zm11.25-17.24a24.74,24.74,0,0,0,.77-2.62c0-.1-0.11-0.12-0.77-0.12a1.73,1.73,0,0,0-.84.09,25.17,25.17,0,0,0-.77,2.62c0,0.1.11,0.12,0.77,0.12a1.75,1.75,0,0,0,.84-0.09h0Zm4.76,3.69s0.63-2.3,1.43-5l1.47-5,2.22,0a21.12,21.12,0,0,1,2.29,0,31.41,31.41,0,0,1-.83,3.12c-0.49,1.68-.9,3.11-0.9,3.18s0.09,0.12.84,0.1l0.84,0,0.93-3.13c0.51-1.72,1-3.17,1-3.22a33.17,33.17,0,0,1,4.47,0s-0.63,2.3-1.43,5l-1.47,5-5.41,0c-3,0-5.42,0-5.44,0h0Zm11.91,0s0.63-2.3,1.43-5l1.47-5,5.39,0c3,0,5.41,0,5.44,0s-0.61,2.3-1.42,5l-1.47,5-2.22,0a21.12,21.12,0,0,1-2.29,0,31.4,31.4,0,0,1,.83-3.12c0.49-1.68.9-3.11,0.9-3.18s-0.09-.12-0.84-0.1l-0.84,0-0.93,3.13c-0.51,1.72-1,3.17-1,3.22a33.17,33.17,0,0,1-4.47,0h0Zm13.48-3.3c-0.32-.25-0.32-0.53,0-1.68a3,3,0,0,1,.48-1.24,0.68,0.68,0,0,1,1.15.34,6.56,6.56,0,0,1-.72,2.52,0.67,0.67,0,0,1-.91.05h0Z"/><path id="path2989-1-3" data-name="path2989-1" class="cls-12" d="M977.66,164.72a1.84,1.84,0,0,0-1.59.54,2.87,2.87,0,0,0-.57,2.68,2.93,2.93,0,0,0,1.81,1.44c-1.09-.88-0.7-2.67.44-3.51h0.93c2.09,0,2-.19,2,1.26h0c0-2,0-2.36-1.83-2.4-0.48,0-.86,0-1.19,0h0Zm3.61,4.09c-0.21,1.33-1,1.48-2.59,1.48H974l-0.44,1.48h4.86c1.76,0,2.63-1.48,2.89-3h0Z"/><rect class="cls-6" x="505.21" y="139.35" width="14.77" height="267.16"/><rect class="cls-13" x="433.4" y="68.3" width="156.67" height="104.31"/><path class="cls-14" d="M549.25,158.08H475.86V110.44h73.39v47.65ZM480,154h65.14v-39.4H480V154Z"/><path class="cls-8" d="M427.83,63.14v114.2H597.28V63.14H427.83Zm11.34,102.45V74.89H585.94v90.7H439.17Z"/><path id="path2987-4" data-name="path2987" class="cls-12" d="M99.9,341.12c0-.05,3.33-11.64,3.41-11.79a36.85,36.85,0,0,1,4.54,0s-0.48,1.86-1.11,4-1.14,4-1.12,4.06a3.23,3.23,0,0,0,1.58,0c0.11-.14,2.86-9.67,2.81-9.74s-1.34-.07-3.09-0.07-3.06,0-3.08-.06,0.62-2.3,1.43-5l1.47-5,5.39,0c3,0,5.42,0,5.45,0s-0.85,3.16-2,6.94l-3.39,11.65c-0.76,2.62-1.42,4.82-1.45,4.9s-0.4.13-5.46,0.13c-3,0-5.41,0-5.42-.06h0Zm11.25-17.24a24.74,24.74,0,0,0,.77-2.62c0-.1-0.11-0.12-0.77-0.12a1.73,1.73,0,0,0-.84.09,25.17,25.17,0,0,0-.77,2.62c0,0.1.11,0.12,0.77,0.12a1.75,1.75,0,0,0,.84-0.09h0Zm4.76,3.69s0.63-2.3,1.43-5l1.47-5,2.22,0a21.12,21.12,0,0,1,2.29,0,31.41,31.41,0,0,1-.83,3.12c-0.49,1.68-.9,3.11-0.9,3.18s0.09,0.12.84,0.1l0.84,0,0.93-3.13c0.51-1.72,1-3.17,1-3.22a33.17,33.17,0,0,1,4.47,0s-0.63,2.3-1.43,5l-1.47,5-5.41,0c-3,0-5.42,0-5.44,0h0Zm11.91,0s0.63-2.3,1.43-5l1.47-5,5.39,0c3,0,5.41,0,5.44,0s-0.61,2.3-1.42,5l-1.47,5-2.22,0a21.12,21.12,0,0,1-2.29,0,31.4,31.4,0,0,1,.83-3.12c0.49-1.68.9-3.11,0.9-3.18s-0.09-.12-0.84-0.1l-0.84,0-0.93,3.13c-0.51,1.72-1,3.17-1,3.22a33.17,33.17,0,0,1-4.47,0h0Zm13.48-3.3c-0.32-.25-0.32-0.53,0-1.68a3,3,0,0,1,.48-1.24,0.68,0.68,0,0,1,1.15.34,6.56,6.56,0,0,1-.72,2.52,0.67,0.67,0,0,1-.91.05h0Z"/><path id="path2989-1-4" data-name="path2989-1" class="cls-12" d="M117.66,328.71a1.84,1.84,0,0,0-1.59.54,2.87,2.87,0,0,0-.57,2.68,2.93,2.93,0,0,0,1.81,1.44c-1.09-.88-0.7-2.67.44-3.51h0.93c2.09,0,2-.19,2,1.26h0c0-2,0-2.36-1.83-2.4-0.48,0-.86,0-1.19,0h0Zm3.61,4.09c-0.21,1.33-1,1.48-2.59,1.48H114l-0.44,1.48h4.86c1.76,0,2.63-1.48,2.89-3h0Z"/><path id="path2987-5" data-name="path2987" class="cls-12" d="M439.9,341.12c0-.05,3.33-11.64,3.41-11.79a36.85,36.85,0,0,1,4.54,0s-0.48,1.86-1.11,4-1.14,4-1.12,4.06a3.23,3.23,0,0,0,1.58,0c0.11-.14,2.86-9.67,2.81-9.74s-1.34-.07-3.09-0.07-3.06,0-3.08-.06,0.62-2.3,1.43-5l1.47-5,5.39,0c3,0,5.42,0,5.45,0s-0.85,3.16-2,6.94l-3.39,11.65c-0.76,2.62-1.42,4.82-1.45,4.9s-0.4.13-5.46,0.13c-3,0-5.41,0-5.42-.06h0Zm11.25-17.24a24.74,24.74,0,0,0,.77-2.62c0-.1-0.11-0.12-0.77-0.12a1.73,1.73,0,0,0-.84.09,25.17,25.17,0,0,0-.77,2.62c0,0.1.11,0.12,0.77,0.12a1.75,1.75,0,0,0,.84-0.09h0Zm4.76,3.69s0.63-2.3,1.43-5l1.47-5,2.22,0a21.12,21.12,0,0,1,2.29,0,31.41,31.41,0,0,1-.83,3.12c-0.49,1.68-.9,3.11-0.9,3.18s0.09,0.12.84,0.1l0.84,0,0.93-3.13c0.51-1.72,1-3.17,1-3.22a33.17,33.17,0,0,1,4.47,0s-0.63,2.3-1.43,5l-1.47,5-5.41,0c-3,0-5.42,0-5.44,0h0Zm11.91,0s0.63-2.3,1.43-5l1.47-5,5.39,0c3,0,5.41,0,5.44,0s-0.61,2.3-1.42,5l-1.47,5-2.22,0a21.12,21.12,0,0,1-2.29,0,31.4,31.4,0,0,1,.83-3.12c0.49-1.68.9-3.11,0.9-3.18s-0.09-.12-0.84-0.1l-0.84,0-0.93,3.13c-0.51,1.72-1,3.17-1,3.22a33.17,33.17,0,0,1-4.47,0h0Zm13.48-3.3c-0.32-.25-0.32-0.53,0-1.68a3,3,0,0,1,.48-1.24,0.68,0.68,0,0,1,1.15.34,6.56,6.56,0,0,1-.72,2.52,0.67,0.67,0,0,1-.91.05h0Z"/><path id="path2989-1-5" data-name="path2989-1" class="cls-12" d="M457.66,328.71a1.84,1.84,0,0,0-1.59.54,2.87,2.87,0,0,0-.57,2.68,2.93,2.93,0,0,0,1.81,1.44c-1.09-.88-0.7-2.67.44-3.51h0.93c2.09,0,2-.19,2,1.26h0c0-2,0-2.36-1.83-2.4-0.48,0-.86,0-1.19,0h0Zm3.61,4.09c-0.21,1.33-1,1.48-2.59,1.48H454l-0.44,1.48h4.86c1.76,0,2.63-1.48,2.89-3h0Z"/><path id="path2987-6" data-name="path2987" class="cls-12" d="M819.9,341.12c0-.05,3.33-11.64,3.41-11.79a36.85,36.85,0,0,1,4.54,0s-0.48,1.86-1.11,4-1.14,4-1.12,4.06a3.23,3.23,0,0,0,1.58,0c0.11-.14,2.86-9.67,2.81-9.74s-1.34-.07-3.09-0.07-3.06,0-3.08-.06,0.62-2.3,1.43-5l1.47-5,5.39,0c3,0,5.42,0,5.45,0s-0.85,3.16-2,6.94l-3.39,11.65c-0.76,2.62-1.42,4.82-1.45,4.9s-0.4.13-5.46,0.13c-3,0-5.41,0-5.42-.06h0Zm11.25-17.24a24.74,24.74,0,0,0,.77-2.62c0-.1-0.11-0.12-0.77-0.12a1.73,1.73,0,0,0-.84.09,25.17,25.17,0,0,0-.77,2.62c0,0.1.11,0.12,0.77,0.12a1.75,1.75,0,0,0,.84-0.09h0Zm4.76,3.69s0.63-2.3,1.43-5l1.47-5,2.22,0a21.12,21.12,0,0,1,2.29,0,31.41,31.41,0,0,1-.83,3.12c-0.49,1.68-.9,3.11-0.9,3.18s0.09,0.12.84,0.1l0.84,0,0.93-3.13c0.51-1.72,1-3.17,1-3.22a33.17,33.17,0,0,1,4.47,0s-0.63,2.3-1.43,5l-1.47,5-5.41,0c-3,0-5.42,0-5.44,0h0Zm11.91,0s0.63-2.3,1.43-5l1.47-5,5.39,0c3,0,5.41,0,5.44,0s-0.61,2.3-1.42,5l-1.47,5-2.22,0a21.12,21.12,0,0,1-2.29,0,31.4,31.4,0,0,1,.83-3.12c0.49-1.68.9-3.11,0.9-3.18s-0.09-.12-0.84-0.1l-0.84,0-0.93,3.13c-0.51,1.72-1,3.17-1,3.22a33.17,33.17,0,0,1-4.47,0h0Zm13.48-3.3c-0.32-.25-0.32-0.53,0-1.68a3,3,0,0,1,.48-1.24,0.68,0.68,0,0,1,1.15.34,6.56,6.56,0,0,1-.72,2.52,0.67,0.67,0,0,1-.91.05h0Z"/><path id="path2989-1-6" data-name="path2989-1" class="cls-12" d="M837.66,328.71a1.84,1.84,0,0,0-1.59.54,2.87,2.87,0,0,0-.57,2.68,2.93,2.93,0,0,0,1.81,1.44c-1.09-.88-0.7-2.67.44-3.51h0.93c2.09,0,2-.19,2,1.26h0c0-2,0-2.36-1.83-2.4-0.48,0-.86,0-1.19,0h0Zm3.61,4.09c-0.21,1.33-1,1.48-2.59,1.48H834l-0.44,1.48h4.86c1.76,0,2.63-1.48,2.89-3h0Z"/><path class="cls-15" d="M487.61,224.59l-2.47-.09s0-.91,0-2.46-0.07-3.91-.18-6.56c-0.26-5.7-.93-13-1.84-20-0.22-1.72-.46-3.43-0.7-5.12l0-.31c-0.25-1.67-.54-3.43-0.86-5.23s-0.65-3.38-1-4.89-0.7-3.09-1-4.37-0.66-2.55-1-3.68l-0.07-.24c-0.3-1-.56-1.88-0.81-2.59-0.5-1.55-.87-2.44-0.87-2.44l2.29-.94s0.4,1,.93,2.6c0.26,0.74.53,1.64,0.84,2.68l0.07,0.23c0.36,1.17.71,2.51,1,3.78s0.68,2.77,1.05,4.46c0.33,1.54.67,3.21,1,5s0.62,3.62.87,5.32l0,0.32c0.24,1.7.49,3.43,0.71,5.15,0.91,7,1.59,14.39,1.85,20.17,0.12,2.69.18,5,.18,6.67S487.61,224.59,487.61,224.59Z"/><path class="cls-15" d="M537.5,224.59s0-.93,0-2.55,0.07-4,.18-6.67c0.26-5.78.94-13.13,1.85-20.17,0.22-1.72.46-3.45,0.71-5.15l0-.31c0.25-1.7.54-3.49,0.87-5.32s0.66-3.44,1-5c0.38-1.71.72-3.17,1.05-4.46s0.68-2.61,1-3.79l0.07-.22c0.31-1,.58-1.93.84-2.7,0.52-1.6.9-2.53,0.92-2.57l2.29,0.94s-0.37.9-.86,2.42c-0.26.74-.52,1.61-0.82,2.62l-0.07.23c-0.35,1.14-.69,2.45-1,3.69s-0.66,2.7-1,4.38c-0.33,1.51-.65,3.15-1,4.89s-0.61,3.56-.86,5.23l0,0.31c-0.24,1.69-.48,3.4-0.7,5.11-0.91,7-1.58,14.26-1.84,20-0.11,2.65-.18,4.92-0.18,6.56s0,2.45,0,2.46Z"/><polygon class="cls-15" points="538.49 225.76 485.49 215.18 485.55 212.9 532.38 204.68 483.9 196.53 483.69 194.23 536.64 184.44 503.59 175.86 504.21 173.47 542.72 183.46 542.24 185.92 491.5 195.3 539.77 203.41 539.45 205.95 492.86 214.13 538.98 223.34 538.49 225.76"/><polygon class="cls-15" points="486.27 225.76 539.27 215.18 539.21 212.9 492.38 204.68 540.86 196.53 541.07 194.23 488.12 184.44 521.17 175.86 520.55 173.47 482.04 183.46 482.52 185.92 533.26 195.3 484.99 203.41 485.31 205.95 531.9 214.13 485.78 223.34 486.27 225.76"/><path class="cls-15" d="M495.24,235c-5.6,0-10.1-6-10.1-10.88h2.47c0,3.78,3.52,8.41,7.63,8.41a7.18,7.18,0,0,0,7.42-6.9h2.47A9.65,9.65,0,0,1,495.24,235Z"/><path class="cls-15" d="M512.56,235a9.65,9.65,0,0,1-9.89-9.37h2.47a7.44,7.44,0,0,0,14.84,0h2.47A9.65,9.65,0,0,1,512.56,235Z"/><path class="cls-15" d="M529.87,235a9.65,9.65,0,0,1-9.89-9.37h2.47a7.18,7.18,0,0,0,7.42,6.9c4.1,0,7.62-4.56,7.62-8.29H540C540,229.23,535.56,235,529.87,235Z"/><rect class="cls-15" x="502.74" y="174.37" width="2.47" height="53.27"/><rect class="cls-15" x="519.98" y="174.66" width="2.47" height="51.64"/><path class="cls-16" d="M512.56,176.73a100.63,100.63,0,0,1-25-2.8c-7.74-2.08-11.67-5-11.67-8.58s3.93-6.5,11.67-8.58a113.2,113.2,0,0,1,50,0c7.74,2.08,11.67,5,11.67,8.58s-3.93,6.5-11.67,8.58A100.63,100.63,0,0,1,512.56,176.73Zm0-18.64c-21.07,0-32.57,4.8-32.57,7.26s11.5,7.26,32.57,7.26,32.57-4.8,32.57-7.26S533.63,158.08,512.56,158.08Z"/></svg>