<?xml version="1.0" encoding="utf-8"?>
<!-- Generator: Adobe Illustrator 19.1.0, SVG Export Plug-In . SVG Version: 6.00 Build 0)  -->
<!DOCTYPE svg PUBLIC "-//W3C//DTD SVG 1.1//EN" "http://www.w3.org/Graphics/SVG/1.1/DTD/svg11.dtd">
<svg version="1.1" id="Layer_1" xmlns="http://www.w3.org/2000/svg" xmlns:xlink="http://www.w3.org/1999/xlink" x="0px" y="0px"
	 viewBox="0 0 141.9 205.1" style="enable-background:new 0 0 141.9 205.1;" xml:space="preserve">
<style type="text/css">
	.st0{fill:#E2AE83;}
	.st1{fill:#A77E67;}
	.st2{fill:#BE9173;}
	.st3{fill:#D19F7D;}
	.st4{fill:#ED1C24;}
	.st5{fill:#39B54A;}
	.st6{fill:#F1F2F2;}
	.st7{fill:#FFFFFF;}
	.st8{fill:#21409A;}
	.st9{fill:#383838;}
	.st10{fill:#F3BA91;}
	.st11{fill:#BE9271;}
	.st12{fill:#243D82;}
	.st13{fill:#99247D;}
	.st14{fill:#FFFFFF;stroke:#99247D;stroke-width:1.1116;stroke-miterlimit:10;}
	.st15{fill:#2D8A42;}
	.st16{fill:#CCCCCC;}
	.st17{fill:#C42128;}
</style>
<path class="st0" d="M124.7,206.4l-96.9-2.3l0,0c6.1-14.1,10.8-28.6,14.1-43.3l7-34l46.9,6l-2.1,36.6c-0.5,8.7,2.5,15.3,8.5,22.6
	L124.7,206.4z"/>
<g>
	<ellipse class="st1" cx="202.9" cy="492.2" rx="37" ry="65.6"/>
	<path class="st1" d="M176.8,408.2c-14.4,11.3-14.4,29.7,0,41.1l26.1,20.5l26.1-20.5c14.4-11.3,14.4-29.7,0-41.1
		C214.6,396.9,191.2,396.9,176.8,408.2z"/>
</g>
<g>
	<path class="st1" d="M355.6,629.6c0,35.6-6.7,65.4-21.7,65.4c-18.3,0-33-29.8-33-65.4c0-19,4.9-35.8,3.8-51.3
		c-1.5-21.3,19.7-12.1,29.2-12.1c10.6,0,22.7,4.7,22.7,19.6C356.6,597.5,355.6,612.5,355.6,629.6z"/>
	<path class="st1" d="M305.1,728.7l8.7-33.8h37l12.6,37.7c0.9,2.6,1.3,5.3,1.3,8v5.4l-1.6,9.6c-0.3,1.6-2.1,2.9-4.3,2.9h-3.8
		c-2.5,0-4.5-1.6-4.5-3.4l0.4-13.1l0,0c-0.1-1-2.2-1-2.3,0l-4.9,34.6c-0.1,1-0.8,2-1.9,2.7l-5.7,3.6c-2.4,1.5-5.8,1.8-8.5,0.7
		l-10.6-4.1c-1.8-0.7-3.1-2-3.5-3.5l-8-31.4C303.8,739.2,303.8,733.9,305.1,728.7z"/>
	<path class="st1" d="M353.5,660.8H305l4.8,12.9c2.6,6.9,3.9,14,4,21.2v0h36.6l0,0c-1-7-0.8-14,0.5-21L353.5,660.8z"/>
</g>
<path class="st2" d="M-958.7,604.5h-88.9l0-62.8l80.8,2.3c4.5,0.1,8.1,3.1,8.1,6.6V604.5z"/>
<polygon class="st3" points="-1047.8,761.5 -974.3,761.5 -972.5,765 -965.6,754.4 -962.7,750.5 -962.7,709.1 -1047.8,709.1 "/>
<path class="st0" d="M-966.8,543.9l-96.9-2.3l0,0c6.1-14.1,10.8-28.6,14.1-43.3l7-34l46.9,6l-2.1,36.6c-0.5,8.7,2.5,15.3,8.5,22.6
	L-966.8,543.9z"/>
<g>
	<path class="st3" d="M-275.7,1077.6l-42,0l-25.4-135.1c-0.3-16.9,12-61.2,44.4-61.2h0c21.8,0,40.6,18,38.6,41.6L-275.7,1077.6z"/>
	<g>
		<path class="st4" d="M-200.8,1121.2L-200.8,1121.2l-0.2,0.5l-6.7-1.4l-6.7-1.5l-13.4-3c-2.2-0.5-4.4-1-6.7-1.5l-6.7-1.6
			c-4.4-1-8.9-2.1-13.3-3.2l0.9,0.2c-1.7-0.2-3.3-0.6-5-1.2c-1.6-0.6-3.2-1.4-4.6-2.3c-1.5-0.9-2.8-2.1-4-3.4
			c-1.2-1.3-2.3-2.7-3.2-4.3c-0.9-1.5-1.6-3.2-2.2-4.9c-0.5-1.7-0.8-3.5-1-5.4l-0.6-7.4c-0.4-4.8-0.7-10.4-1.1-13.1l-0.3-3.2
			c-0.2-2.6-2.4-4.5-5-4.5h-41.9c-3.3,0-5.9,2.7-5.9,5.9l-7,84.1c0,3.3,2.7,5.9,5.9,5.9h64.2h70.2c4.2,0,7.6-3.4,7.6-7.6v-8.2
			C-187.1,1131.7-192.6,1124-200.8,1121.2z"/>
		<path class="st5" d="M-252.1,1103.1L-252.1,1103.1L-252.1,1103.1c-1.2-0.3-2.3-0.6-3.4-1.1c-1.1-0.5-2.1-1.1-3-1.8
			c-0.9-0.7-1.8-1.5-2.5-2.4c-0.7-0.9-1.4-1.9-1.9-2.9c-0.5-1-0.9-2.1-1.2-3.3c-0.3-1.1-0.4-2.3-0.4-3.4l0-7.2l0-14.5
			c0-1.2-0.1-2.6-0.7-3.8c-0.6-1.2-1.8-2.2-3.1-2.6c-1.2-0.5-2.5-0.7-3.8-0.7c-0.6-0.1-1.2,0-1.9,0c-0.3,0-0.6,0-0.9,0.1l-0.5,0
			c-0.2,0-0.3,0-0.4,0.2l0,0.5l0.7,7.7c0.4,2.7,0.7,8.3,1.1,13.1l0.6,7.4c0.1,1.8,0.4,3.6,1,5.4c0.5,1.7,1.2,3.4,2.2,4.9
			c0.9,1.6,2,3,3.2,4.3c1.2,1.3,2.6,2.4,4,3.4c1.5,1,3,1.7,4.6,2.3c1.6,0.6,3.3,1,5,1.2l-0.9-0.2c4.4,1.1,8.8,2.2,13.3,3.2l6.7,1.6
			c2.2,0.5,4.4,1.1,6.7,1.5l13.4,3l6.7,1.5l6.7,1.4l0.2-0.5l0,0L-252.1,1103.1z"/>
		<path class="st6" d="M-187.1,1150.6l-0.9,1c-2.6,2.8-6.3,4.4-10.1,4.4h-127.8c-3.8,0-7.3-2.1-9.2-5.4h-1v19.2l1.1,0.2
			c1.9,3.3,5.3,5.3,9.1,5.3h127.1c4.3,0,8.4-2,11-5.4l0.7-1V1150.6z"/>
		<g>
			<path class="st7" d="M-210.8,1129.7c-0.3,0-0.5-0.1-0.8-0.2c-1-0.4-1.5-1.6-1.1-2.6l3.7-9.7c0.4-1,1.6-1.5,2.6-1.1
				c1,0.4,1.5,1.6,1.1,2.6l-3.7,9.7C-209.2,1129.2-210,1129.7-210.8,1129.7z"/>
		</g>
		<g>
			<path class="st7" d="M-220.8,1125.7c-0.3,0-0.5-0.1-0.8-0.2c-1-0.4-1.5-1.6-1.1-2.6l4.7-9.7c0.4-1,1.6-1.5,2.6-1.1
				c1,0.4,1.5,1.6,1.1,2.6l-4.7,9.7C-219.2,1125.2-220,1125.7-220.8,1125.7z"/>
		</g>
		<g>
			<path class="st7" d="M-230.3,1122.7c-0.3,0-0.5-0.1-0.8-0.2c-1-0.4-1.5-1.6-1.1-2.6l4.7-9.7c0.4-1,1.6-1.5,2.6-1.1
				c1,0.4,1.5,1.6,1.1,2.6l-4.7,9.7C-228.7,1122.2-229.5,1122.7-230.3,1122.7z"/>
		</g>
		<g>
			<path class="st7" d="M-241.8,1118.7c-0.3,0-0.5-0.1-0.8-0.2c-1-0.4-1.5-1.6-1.1-2.6l4.7-9.7c0.4-1,1.6-1.5,2.6-1.1
				c1,0.4,1.5,1.6,1.1,2.6l-4.7,9.7C-240.2,1118.2-241,1118.7-241.8,1118.7z"/>
		</g>
		<g>
			<path class="st7" d="M-252.3,1115.7c-0.3,0-0.5-0.1-0.8-0.2c-1-0.4-1.5-1.6-1.1-2.6l4.7-9.7c0.4-1,1.6-1.5,2.6-1.1
				c1,0.4,1.5,1.6,1.1,2.6l-4.7,9.7C-250.7,1115.2-251.5,1115.7-252.3,1115.7z"/>
		</g>
		<g>
			<path class="st7" d="M-263.8,1110.7c-0.3,0-0.5-0.1-0.8-0.2c-1-0.4-1.5-1.6-1.1-2.6l4.7-9.7c0.4-1,1.6-1.5,2.6-1.1
				c1,0.4,1.5,1.6,1.1,2.6l-4.7,9.7C-262.2,1110.2-263,1110.7-263.8,1110.7z"/>
		</g>
	</g>
</g>
<path class="st8" d="M-1067.3,772.7c-0.3-16.9,21.3-30.7,48.1-30.7h0c27.2,0,49,14.2,48.1,31.4l-0.1,1.4c8,8.4,13.7,19.2,15.8,31
	l-1.8-79.7h-0.2h-91.3h-30.2l2.6,80.4c1.5-9.1,5.1-17.6,10.3-24.8L-1067.3,772.7z"/>
<g>
	<path class="st0" d="M-1032.8,469.9l0.5-26.2l4.2-7.3v64l67.9,12.7l0.4,1.2c0.1-0.5,0.1-1.1,0.1-1.7l-11.9-62.8l-0.1,0
		c1.2-6.1,1.8-13.7,1.8-23.2c0-25.6-8-46.3-46.3-46.3c-25.6,0-46.3,20.7-46.3,46.3c0,19.7,12.3,36.5,29.6,43.2V469.9L-1032.8,469.9z
		"/>
	<path class="st9" d="M-1032.1,443.6l4.7-7l5.7-17.6l51.8,3.3c0,0,18.5-9.7,18.5-20.3c0-10.7-2.7-46.7-14.7-52
		c-12-5.3-11.7,3.7-15.3,0c4-13.3-44.7-20.7-64-16.7s-36,36.7-36,47c0,10.3-22.8,52-5.3,69.5c17.4,17.4,25.5,24.4,37.7,20.6
		s13-11.2,13-11.2L-1032.1,443.6z"/>
	<path class="st10" d="M-1032.1,437.7c0-6.5-4.6-10.1-10.6-10.1c-6,0-10.5,4.5-10.6,11.5h0.2v1.4c0,10.3,11,18.7,21,18.7V437.7z"/>
	<path class="st11" d="M-1028.1,496.3v-60l-4.2,7.3l-0.5,26.2l0,0l-1.5,20.9c-1.6,6,2,12.1,8,13.6l58.9,14.8
		c3.6,0.9,7.1-1.5,7.7-4.9l-0.4-1.2L-1028.1,496.3z"/>
</g>
<g>
	<path class="st0" d="M60.5,137.6l0.3-26.2l4.1-7.3v64l68.1,12.7l0.5,1.2c0.1-0.5,0.2-1.1,0.1-1.7l-11.9-62.8l-0.1,0
		c1.2-6.1,1.8-13.7,1.8-23.2c0-25.6-8-46.3-46.3-46.3c-25.6,0-46.3,20.7-46.3,46.3c0,19.7,12.3,36.5,29.6,43.2L60.5,137.6
		L60.5,137.6z"/>
	<path class="st9" d="M61.2,111.4l4.7-7l5.7-17.6l51.8,3.3c0,0,18.5-9.7,18.5-20.3s-2.7-46.7-14.7-52s-11.7,3.7-15.3,0
		c4-13.3-44.7-20.7-64-16.7s-36,36.7-36,47s-22.8,52-5.3,69.5S32,142,44.2,138.2c12.2-3.8,13-11.2,13-11.2L61.2,111.4z"/>
	<path class="st10" d="M60.9,105.4c0-6.5-4.4-10-10.4-10s-10.4,4.6-10.4,11.6h-0.1v1.2c0,10.3,11,18.7,21,18.7V105.4z"/>
	<path class="st11" d="M64.9,164.1v-60l-4.1,7.3l-0.4,26.2l0,0l-1.5,20.9c-1.6,6,2,12.1,8,13.6l58.9,14.8c3.6,0.9,7.1-1.5,7.7-4.9
		l-0.6-1.2L64.9,164.1z"/>
</g>
<g>
	<path class="st3" d="M-106.3,879.6l0.4-5.5h-5.8C-109.7,875.1-107.9,877.6-106.3,879.6z"/>
	<path class="st3" d="M-165.6,880.1c1.7-2.2,3.5-5,5.5-6h-6.3L-165.6,880.1z"/>
	<path class="st8" d="M-77.8,739.4c-0.3-1.4-0.6-2.8-0.9-4.1c0-0.3,0-0.5,0-0.8c0-32.4-26.9-58.7-60.1-58.7c-0.4,0-0.7,0-1.1,0
		c-0.6,0-1.1,0-1.7,0h0c-24.8,0-45.1,11.8-47.8,27c-6,9.1-9.5,20-9.5,31.7c0,1.8,0.1,3.5,0.3,5.2c0,0.1,0,0.2-0.1,0.3l0.8,23.7
		l2.4,110.4h28.9h6.3h48.5h5.8h29.5L-77.3,758L-77.8,739.4z"/>
</g>
<path class="st2" d="M215.7,879.6l0.4-5.5h-5.8C212.3,875.1,214.1,877.6,215.7,879.6z"/>
<path class="st2" d="M156.4,880.1c1.7-2.2,3.5-5,5.5-6h-6.3L156.4,880.1z"/>
<path class="st12" d="M244.2,739.4c-0.3-1.4-0.6-2.8-0.9-4.1c0-0.3,0-0.5,0-0.8c0-32.4-26.9-58.7-60.1-58.7c-0.4,0-0.7,0-1.1,0
	c-0.6,0-1.1,0-1.7,0h0c-24.8,0-45.1,11.8-47.8,27c-6,9.1-9.5,20-9.5,31.7c0,1.8,0.1,3.5,0.3,5.2c0,0.1,0,0.2-0.1,0.3l0.8,23.7
	l2.4,110.4h28.9h6.3h48.5h5.8h29.5L244.7,758L244.2,739.4z"/>
<polygon class="st3" points="-1056.6,709.1 -962.7,709.1 -958.7,604.5 -1056.6,604.5 "/>
<path class="st3" d="M-967.7,604.5h-88.9l0-62.8l80.8,2.3c4.5,0.1,8.1,3.1,8.1,6.6V604.5z"/>
<g>
	<g>
		<path class="st8" d="M-964.9,601.7c-18.3-2-30-43-33.2-61.1l-61.8-12l-3.9,11.3c86,14.7,50.9,100.7,11.1,95.8l0,0.6
			c-1.8,0.2-3.4,0.3-5.1,0.3c-14.7,0-27.8-7.4-36-18.9l-6.3,48.8l6,146.6h46.4h1.6h37.8h18.3h35.8l-4.6-210.8
			C-959.7,602.2-963.2,601.9-964.9,601.7z"/>
		<path class="st8" d="M-1063.6,541l-0.1-1l-0.7,1.2C-1064.2,541.1-1063.9,541.1-1063.6,541z"/>
	</g>
	<path class="st13" d="M-989.9,813.1c-6.6-63-27.2-117.8-55.2-154.7v-0.1c0,0,0,0,0,0c0,0,0,0,0,0v0.1c-29,36.9-42.3,91.7-49,154.7
		h18.3c5.4-45,11.8-83.9,30.2-113.9c18.5,30,31.8,68.9,37.2,113.9H-989.9z"/>
</g>
<g>
	<g>
		<path class="st14" d="M-1029,632.3c3-1,6.1-1.9,9.2-2.7c5.9-1.6,10.1-2.3,12.3-2.3c2.2,0,4,0.4,5.3,1.2c1.3,0.8,2.2,1.8,2.7,3
			c0.5,1.2,1.1,3.7,1.8,7.3c0.8,4.5,1.7,9.1,2.5,13.6c0.6,3.5,0.9,5.9,0.8,7.1c-0.1,1.2-0.5,2.3-1.3,3.1c-0.7,0.8-1.6,1.5-2.8,2
			c-1.2,0.5-3,1.1-5.4,1.7c-4.3,1.1-8.6,2.3-12.8,3.6C-1021,657.4-1025,644.9-1029,632.3z M-1015.1,635.3c2.2,8.4,4.4,16.8,6.6,25.2
			c1.5-0.4,2.4-0.9,2.6-1.6c0.2-0.7,0-2.3-0.6-4.8c-1.2-5-2.4-10-3.6-14.9c-0.4-1.7-0.8-2.8-1-3.3c-0.3-0.5-0.6-0.7-1.2-0.9
			C-1012.8,634.8-1013.7,634.9-1015.1,635.3z"/>
		<path class="st14" d="M-966,621.5c2.8,13.1,5.1,26.3,7.1,39.5c-3.6,0-7.1,0.1-10.7,0.3c-0.3-2.4-0.6-4.7-1-7.1
			c-1.3,0.1-2.6,0.2-3.9,0.3c0,2.4-0.1,4.8-0.1,7.1c-3.6,0.3-7.2,0.7-10.7,1.2c0-13.3,0.3-26.6,1-40
			C-978.2,622.1-972.1,621.7-966,621.5z M-971.2,647.2c-0.8-4.4-1.7-9.9-2.8-16.5c-0.7,7.6-1,13.2-1.1,16.7
			C-973.8,647.4-972.5,647.3-971.2,647.2z"/>
	</g>
</g>
<path class="st2" d="M95.3,488.5H6.4l0-62.8l80.8,2.3c4.5,0.1,8.1,3.1,8.1,6.6V488.5z"/>
<polygon class="st3" points="6.2,645.5 79.7,645.5 81.5,649 88.4,638.4 91.3,634.5 91.3,593.1 6.2,593.1 "/>
<path class="st8" d="M-13.3,656.7C-13.6,639.8,8,626,34.8,626h0c27.2,0,49,14.2,48.1,31.4l-0.1,1.4c8,8.4,13.7,19.2,15.8,31
	l-1.8-79.7h-0.2H5.2h-30.2l2.6,80.4c1.5-9.1,5.1-17.6,10.3-24.8L-13.3,656.7z"/>
<polygon class="st3" points="-2.6,593.1 91.3,593.1 95.3,488.5 -2.6,488.5 "/>
<path class="st3" d="M86.3,488.5H-2.6l0-62.8l80.8,2.3c4.5,0.1,8.1,3.1,8.1,6.6V488.5z"/>
<g>
	<g>
		<path class="st8" d="M89.1,485.7c-18.3-2-30-43-33.2-61.1l-61.8-12L-9.7,424c86,14.7,50.9,100.7,11.1,95.8l0,0.6
			c-1.8,0.2-3.4,0.3-5.1,0.3c-14.7,0-27.8-7.4-36-18.9l-6.3,48.8l6,146.6H6.3h1.6h37.8h18.3h35.8l-4.6-210.8
			C94.3,486.2,90.8,485.9,89.1,485.7z"/>
		<path class="st8" d="M-9.6,425l-0.1-1l-0.7,1.2C-10.2,425.1-9.9,425.1-9.6,425z"/>
	</g>
	<path class="st13" d="M64.1,697.1c-6.6-63-27.2-117.8-55.2-154.7v-0.1c0,0,0,0,0,0c0,0,0,0,0,0v0.1c-29,36.9-42.3,91.7-49,154.7
		h18.3c5.4-45,11.8-83.9,30.2-113.9c18.5,30,31.8,68.9,37.2,113.9H64.1z"/>
</g>
<g>
	<g>
		<path class="st14" d="M25,516.3c3-1,6.1-1.9,9.2-2.7c5.9-1.6,10.1-2.3,12.3-2.3c2.2,0,4,0.4,5.3,1.2c1.3,0.8,2.2,1.8,2.7,3
			c0.5,1.2,1.1,3.7,1.8,7.3c0.8,4.5,1.7,9.1,2.5,13.6c0.6,3.5,0.9,5.9,0.8,7.1c-0.1,1.2-0.5,2.3-1.3,3.1c-0.7,0.8-1.6,1.5-2.8,2
			c-1.2,0.5-3,1.1-5.4,1.7c-4.3,1.1-8.6,2.3-12.8,3.6C33,541.4,29,528.9,25,516.3z M38.9,519.3c2.2,8.4,4.4,16.8,6.6,25.2
			c1.5-0.4,2.4-0.9,2.6-1.6c0.2-0.7,0-2.3-0.6-4.8c-1.2-5-2.4-10-3.6-14.9c-0.4-1.7-0.8-2.8-1-3.3c-0.3-0.5-0.6-0.7-1.2-0.9
			C41.2,518.8,40.3,518.9,38.9,519.3z"/>
		<path class="st14" d="M88,505.5c2.8,13.1,5.1,26.3,7.1,39.5c-3.6,0-7.1,0.1-10.7,0.3c-0.3-2.4-0.6-4.7-1-7.1
			c-1.3,0.1-2.6,0.2-3.9,0.3c0,2.4-0.1,4.8-0.1,7.1c-3.6,0.3-7.2,0.7-10.7,1.2c0-13.3,0.3-26.6,1-40C75.8,506.1,81.9,505.7,88,505.5
			z M82.8,531.2c-0.8-4.4-1.7-9.9-2.8-16.5c-0.7,7.6-1,13.2-1.1,16.7C80.2,531.4,81.5,531.3,82.8,531.2z"/>
	</g>
</g>
<g>
	<ellipse class="st0" cx="-1266.1" cy="633.2" rx="37" ry="65.6"/>
	<path class="st0" d="M-1292.2,549.2c-14.4,11.3-14.4,29.7,0,41.1l26.1,20.5l26.1-20.5c14.4-11.3,14.4-29.7,0-41.1
		C-1254.4,537.9-1277.8,537.9-1292.2,549.2z"/>
</g>
<g>
	<ellipse class="st0" cx="-188.1" cy="485.2" rx="37" ry="65.6"/>
	<path class="st0" d="M-214.3,401.2c-14.4,11.3-14.4,29.7,0,41.1l26.1,20.5l26.1-20.5c14.4-11.3,14.4-29.7,0-41.1
		C-176.4,389.9-199.8,389.9-214.3,401.2z"/>
</g>
<g>
	<path class="st0" d="M-1244.4,727.6c0,35.6-6.7,65.4-21.7,65.4c-18.3,0-33-29.8-33-65.4c0-19,4.9-35.8,3.8-51.3
		c-1.5-21.3,19.7-12.1,29.2-12.1c10.6,0,22.7,4.7,22.7,19.6C-1243.4,695.5-1244.4,710.5-1244.4,727.6z"/>
	<path class="st0" d="M-1294.9,826.7l8.7-33.8h37l12.6,37.7c0.9,2.6,1.3,5.3,1.3,8v5.4l-1.6,9.6c-0.3,1.6-2.1,2.9-4.3,2.9h-3.8
		c-2.5,0-4.5-1.6-4.5-3.4l0.4-13.1l0,0c-0.1-1-2.2-1-2.3,0l-4.9,34.6c-0.1,1-0.8,2-1.9,2.7l-5.7,3.6c-2.4,1.5-5.8,1.8-8.5,0.7
		l-10.6-4.1c-1.8-0.7-3.1-2-3.5-3.5l-8-31.4C-1296.2,837.2-1296.2,831.9-1294.9,826.7z"/>
	<path class="st0" d="M-1246.5,758.8h-48.5l4.8,12.9c2.6,6.9,3.9,14,4,21.2v0h36.6l0,0c-1-7-0.8-14,0.5-21L-1246.5,758.8z"/>
</g>
<g>
	<path class="st0" d="M-263.4,625.6c0,35.6-6.7,65.4-21.7,65.4c-18.3,0-33-29.8-33-65.4c0-19,4.9-35.8,3.8-51.3
		c-1.5-21.3,19.7-12.1,29.2-12.1c10.6,0,22.7,4.7,22.7,19.6C-262.4,593.5-263.4,608.5-263.4,625.6z"/>
	<path class="st0" d="M-313.9,724.7l8.7-33.8h37l12.6,37.7c0.9,2.6,1.3,5.3,1.3,8v5.4l-1.6,9.6c-0.3,1.6-2.1,2.9-4.3,2.9h-3.8
		c-2.5,0-4.5-1.6-4.5-3.4l0.4-13.1l0,0c-0.1-1-2.2-1-2.3,0l-4.9,34.6c-0.1,1-0.8,2-1.9,2.7l-5.7,3.6c-2.4,1.5-5.8,1.8-8.5,0.7
		l-10.6-4.1c-1.8-0.7-3.1-2-3.5-3.5l-8-31.4C-315.2,735.2-315.2,729.9-313.9,724.7z"/>
	<path class="st0" d="M-265.5,656.8H-314l4.8,12.9c2.6,6.9,3.9,14,4,21.2v0h36.6l0,0c-1-7-0.8-14,0.5-21L-265.5,656.8z"/>
</g>
<g>
	<path class="st15" d="M400.9,1104.1L400.9,1104.1L400.9,1104.1c-1.2-0.3-2.3-0.6-3.4-1.1c-1.1-0.5-2.1-1.1-3-1.8
		c-0.9-0.7-1.8-1.5-2.5-2.4c-0.7-0.9-1.4-1.9-1.9-2.9c-0.5-1-0.9-2.1-1.2-3.3c-0.3-1.1-0.4-2.3-0.4-3.4l0-7.2l0-14.5
		c0-1.2-0.1-2.6-0.7-3.8c-0.6-1.2-1.8-2.2-3.1-2.6c-1.2-0.5-2.5-0.7-3.8-0.7c-0.6-0.1-1.2,0-1.9,0c-0.3,0-0.6,0-0.9,0.1l-0.5,0
		c-0.2,0-0.3,0-0.4,0.2l0,0.5l0.7,7.7c0.4,2.7,0.7,8.3,1.1,13.1l0.6,7.4c0.1,1.8,0.4,3.6,1,5.4c0.5,1.7,1.2,3.4,2.2,4.9
		c0.9,1.6,2,3,3.2,4.3c1.2,1.3,2.6,2.4,4,3.4c1.5,1,3,1.7,4.6,2.3c1.6,0.6,3.3,1,5,1.2l-0.9-0.2c4.4,1.1,8.8,2.2,13.3,3.2l6.7,1.6
		c2.2,0.5,4.4,1.1,6.7,1.5l13.4,3l6.7,1.5l6.7,1.4l0.2-0.5l0,0L400.9,1104.1z"/>
	<path class="st16" d="M465.9,1151.6l-0.9,1c-2.6,2.8-6.3,4.4-10.1,4.4H327.1c-3.8,0-7.3-2.1-9.2-5.4h-1v19.2l1.1,0.2
		c1.9,3.3,5.3,5.3,9.1,5.3h127.1c4.3,0,8.4-2,11-5.4l0.7-1V1151.6z"/>
	<g>
		<path class="st16" d="M442.2,1130.7c-0.3,0-0.5-0.1-0.8-0.2c-1-0.4-1.5-1.6-1.1-2.6l3.7-9.7c0.4-1,1.6-1.5,2.6-1.1
			c1,0.4,1.5,1.6,1.1,2.6l-3.7,9.7C443.8,1130.2,443,1130.7,442.2,1130.7z"/>
	</g>
	<g>
		<path class="st16" d="M432.2,1126.7c-0.3,0-0.5-0.1-0.8-0.2c-1-0.4-1.5-1.6-1.1-2.6l4.7-9.7c0.4-1,1.6-1.5,2.6-1.1
			c1,0.4,1.5,1.6,1.1,2.6l-4.7,9.7C433.8,1126.2,433,1126.7,432.2,1126.7z"/>
	</g>
	<g>
		<path class="st16" d="M422.7,1123.7c-0.3,0-0.5-0.1-0.8-0.2c-1-0.4-1.5-1.6-1.1-2.6l4.7-9.7c0.4-1,1.6-1.5,2.6-1.1
			c1,0.4,1.5,1.6,1.1,2.6l-4.7,9.7C424.3,1123.2,423.5,1123.7,422.7,1123.7z"/>
	</g>
	<g>
		<path class="st16" d="M411.2,1119.7c-0.3,0-0.5-0.1-0.8-0.2c-1-0.4-1.5-1.6-1.1-2.6l4.7-9.7c0.4-1,1.6-1.5,2.6-1.1
			c1,0.4,1.5,1.6,1.1,2.6l-4.7,9.7C412.8,1119.2,412,1119.7,411.2,1119.7z"/>
	</g>
	<g>
		<path class="st16" d="M400.7,1116.7c-0.3,0-0.5-0.1-0.8-0.2c-1-0.4-1.5-1.6-1.1-2.6l4.7-9.7c0.4-1,1.6-1.5,2.6-1.1
			c1,0.4,1.5,1.6,1.1,2.6l-4.7,9.7C402.3,1116.2,401.5,1116.7,400.7,1116.7z"/>
	</g>
	<g>
		<path class="st16" d="M389.2,1111.7c-0.3,0-0.5-0.1-0.8-0.2c-1-0.4-1.5-1.6-1.1-2.6l4.7-9.7c0.4-1,1.6-1.5,2.6-1.1
			c1,0.4,1.5,1.6,1.1,2.6l-4.7,9.7C390.8,1111.2,390,1111.7,389.2,1111.7z"/>
	</g>
	<path class="st2" d="M376.1,1078.6l-42,0l-25.4-135.1c-0.3-16.9,12-61.2,44.4-61.2h0c21.8,0,40.6,18,38.6,41.6L376.1,1078.6z"/>
	<path class="st17" d="M452.2,1122.2L452.2,1122.2l-0.2,0.5l-6.7-1.4l-6.7-1.5l-13.4-3c-2.2-0.5-4.4-1-6.7-1.5l-6.7-1.6
		c-4.4-1-8.9-2.1-13.3-3.2l0.9,0.2c-1.7-0.2-3.3-0.6-5-1.2c-1.6-0.6-3.2-1.4-4.6-2.3c-1.5-0.9-2.8-2.1-4-3.4
		c-1.2-1.3-2.3-2.7-3.2-4.3c-0.9-1.5-1.6-3.2-2.2-4.9c-0.5-1.7-0.8-3.5-1-5.4l-0.6-7.4c-0.4-4.8-0.7-10.4-1.1-13.1l-0.3-3.2
		c-0.2-2.6-2.4-4.5-5-4.5h-41.9c-3.3,0-5.9,2.7-5.9,5.9l-7,84.1c0,3.3,2.7,5.9,5.9,5.9H388h70.2c4.2,0,7.6-3.4,7.6-7.6v-8.2
		C465.9,1132.7,460.4,1125,452.2,1122.2z"/>
</g>
</svg>
