<?xml version="1.0" encoding="utf-8"?>
<!-- Generator: Adobe Illustrator 19.1.0, SVG Export Plug-In . SVG Version: 6.00 Build 0)  -->
<!DOCTYPE svg PUBLIC "-//W3C//DTD SVG 1.1//EN" "http://www.w3.org/Graphics/SVG/1.1/DTD/svg11.dtd">
<svg version="1.1" id="Layer_1" xmlns="http://www.w3.org/2000/svg" xmlns:xlink="http://www.w3.org/1999/xlink" x="0px" y="0px"
	 viewBox="0 0 157.2 293.8" style="enable-background:new 0 0 157.2 293.8;" xml:space="preserve">
<style type="text/css">
	.st0{fill:#A77E67;}
	.st1{fill:#D19F7D;}
	.st2{fill:#ED1C24;}
	.st3{fill:#39B54A;}
	.st4{fill:#F1F2F2;}
	.st5{fill:#FFFFFF;}
	.st6{fill:#E2AE83;}
	.st7{fill:#383838;}
	.st8{fill:#F3BA91;}
	.st9{fill:#BE9271;}
	.st10{fill:#21409A;}
	.st11{fill:#BE9173;}
	.st12{fill:#243D82;}
	.st13{fill:#99247D;}
	.st14{fill:#FFFFFF;stroke:#99247D;stroke-width:1.1116;stroke-miterlimit:10;}
	.st15{fill:#2D8A42;}
	.st16{fill:#CCCCCC;}
	.st17{fill:#C42128;}
</style>
<g>
	<path class="st15" d="M92.2,221.8L92.2,221.8L92.2,221.8c-1.2-0.3-2.3-0.6-3.4-1.1c-1.1-0.5-2.1-1.1-3-1.8
		c-0.9-0.7-1.8-1.5-2.5-2.4c-0.7-0.9-1.4-1.9-1.9-2.9c-0.5-1-0.9-2.1-1.2-3.3c-0.3-1.1-0.4-2.3-0.4-3.4l0-7.2l0-14.5
		c0-1.2-0.1-2.6-0.7-3.8c-0.6-1.2-1.8-2.2-3.1-2.6c-1.2-0.5-2.5-0.7-3.8-0.7c-0.6-0.1-1.2,0-1.9,0c-0.3,0-0.6,0-0.9,0.1l-0.5,0
		c-0.2,0-0.3,0-0.4,0.2l0,0.5l0.7,7.7c0.4,2.7,0.7,8.3,1.1,13.1l0.6,7.4c0.1,1.8,0.4,3.6,1,5.4c0.5,1.7,1.2,3.4,2.2,4.9
		c0.9,1.6,2,3,3.2,4.3c1.2,1.3,2.6,2.4,4,3.4c1.5,1,3,1.7,4.6,2.3c1.6,0.6,3.3,1,5,1.2l-0.9-0.2c4.4,1.1,8.8,2.2,13.3,3.2l6.7,1.6
		c2.2,0.5,4.4,1.1,6.7,1.5l13.4,3l6.7,1.5l6.7,1.4l0.2-0.5l0,0L92.2,221.8z"/>
	<path class="st16" d="M157.2,269.2l-0.9,1c-2.6,2.8-6.3,4.4-10.1,4.4H18.4c-3.8,0-7.3-2.1-9.2-5.4h-1v19.2l1.1,0.2
		c1.9,3.3,5.3,5.3,9.1,5.3h127.1c4.3,0,8.4-2,11-5.4l0.7-1V269.2z"/>
	<g>
		<path class="st16" d="M133.6,248.3c-0.3,0-0.5-0.1-0.8-0.2c-1-0.4-1.5-1.6-1.1-2.6l3.7-9.7c0.4-1,1.6-1.5,2.6-1.1
			c1,0.4,1.5,1.6,1.1,2.6l-3.7,9.7C135.1,247.9,134.3,248.3,133.6,248.3z"/>
	</g>
	<g>
		<path class="st16" d="M123.6,244.3c-0.3,0-0.5-0.1-0.8-0.2c-1-0.4-1.5-1.6-1.1-2.6l4.7-9.7c0.4-1,1.6-1.5,2.6-1.1
			c1,0.4,1.5,1.6,1.1,2.6l-4.7,9.7C125.1,243.9,124.3,244.3,123.6,244.3z"/>
	</g>
	<g>
		<path class="st16" d="M114.1,241.3c-0.3,0-0.5-0.1-0.8-0.2c-1-0.4-1.5-1.6-1.1-2.6l4.7-9.7c0.4-1,1.6-1.5,2.6-1.1
			c1,0.4,1.5,1.6,1.1,2.6l-4.7,9.7C115.6,240.9,114.8,241.3,114.1,241.3z"/>
	</g>
	<g>
		<path class="st16" d="M102.6,237.3c-0.3,0-0.5-0.1-0.8-0.2c-1-0.4-1.5-1.6-1.1-2.6l4.7-9.7c0.4-1,1.6-1.5,2.6-1.1
			c1,0.4,1.5,1.6,1.1,2.6l-4.7,9.7C104.1,236.9,103.3,237.3,102.6,237.3z"/>
	</g>
	<g>
		<path class="st16" d="M92.1,234.3c-0.3,0-0.5-0.1-0.8-0.2c-1-0.4-1.5-1.6-1.1-2.6l4.7-9.7c0.4-1,1.6-1.5,2.6-1.1
			c1,0.4,1.5,1.6,1.1,2.6l-4.7,9.7C93.6,233.9,92.8,234.3,92.1,234.3z"/>
	</g>
	<g>
		<path class="st16" d="M80.6,229.3c-0.3,0-0.5-0.1-0.8-0.2c-1-0.4-1.5-1.6-1.1-2.6l4.7-9.7c0.4-1,1.6-1.5,2.6-1.1
			c1,0.4,1.5,1.6,1.1,2.6l-4.7,9.7C82.1,228.9,81.3,229.3,80.6,229.3z"/>
	</g>
	<path class="st11" d="M67.4,196.3l-42,0L0,61.2C-0.2,44.4,12,0,44.4,0l0,0C66.2,0,85,18,83,41.6L67.4,196.3z"/>
	<path class="st17" d="M143.5,239.9L143.5,239.9l-0.2,0.5l-6.7-1.4l-6.7-1.5l-13.4-3c-2.2-0.5-4.4-1-6.7-1.5l-6.7-1.6
		c-4.4-1-8.9-2.1-13.3-3.2l0.9,0.2c-1.7-0.2-3.3-0.6-5-1.2c-1.6-0.6-3.2-1.4-4.6-2.3c-1.5-0.9-2.8-2.1-4-3.4
		c-1.2-1.3-2.3-2.7-3.2-4.3c-0.9-1.5-1.6-3.2-2.2-4.9c-0.5-1.7-0.8-3.5-1-5.4l-0.6-7.4c-0.4-4.8-0.7-10.4-1.1-13.1l-0.3-3.2
		c-0.2-2.6-2.4-4.5-5-4.5H22.2c-3.3,0-5.9,2.7-5.9,5.9l-7,84.1c0,3.3,2.7,5.9,5.9,5.9h64.2h70.2c4.2,0,7.6-3.4,7.6-7.6v-8.2
		C157.2,250.4,151.7,242.7,143.5,239.9z"/>
</g>
</svg>
