<!-- Generator: Adobe Illustrator 19.1.0, SVG Export Plug-In  -->
<svg version="1.1"
	 xmlns="http://www.w3.org/2000/svg" xmlns:xlink="http://www.w3.org/1999/xlink" xmlns:a="http://ns.adobe.com/AdobeSVGViewerExtensions/3.0/"
	 x="0px" y="0px" width="63.7px" height="321px" viewBox="0 0 63.7 321" style="enable-background:new 0 0 63.7 321;"
	 xml:space="preserve">
<style type="text/css">
	.st0{fill:#99745D;}
</style>
<defs>
</defs>
<g>
	<path class="st0" d="M54.7,95.4c0,51.9-6.7,95.4-21.7,95.4c-18.3,0-33-43.5-33-95.4c0-27.8,4.9-52.3,3.8-74.9
		C2.3-10.5,23.5,2.9,33,2.9c10.6,0,22.7,6.9,22.7,28.7C55.7,48.6,54.7,70.5,54.7,95.4z"/>
	<path class="st0" d="M4.2,240.1l8.7-49.3h37l12.6,55c0.9,3.8,1.3,7.7,1.3,11.6v7.9l-1.6,14c-0.3,2.3-2.1,4.3-4.3,4.3H54
		c-2.5,0-4.5-2.3-4.5-5l0.4-19.1v0c-0.1-1.5-2.2-1.5-2.3,0L42.6,310c-0.1,1.5-0.8,2.9-1.9,3.9l-5.7,5.2c-2.4,2.2-5.8,2.6-8.5,1
		L15.8,314c-1.8-1-3.1-2.9-3.5-5.1l-8-45.8C2.9,255.5,2.9,247.7,4.2,240.1z"/>
	<path class="st0" d="M52.6,141H4.1l4.8,18.9c2.6,10,3.9,20.4,4,30.9v0l36.6,0v0c-1-10.2-0.8-20.5,0.5-30.6L52.6,141z"/>
</g>
</svg>
