<!-- Generator: Adobe Illustrator 19.1.0, SVG Export Plug-In  -->
<svg version="1.1"
	 xmlns="http://www.w3.org/2000/svg" xmlns:xlink="http://www.w3.org/1999/xlink" xmlns:a="http://ns.adobe.com/AdobeSVGViewerExtensions/3.0/"
	 x="0px" y="0px" width="111.2px" height="191.1px" viewBox="0 0 111.2 191.1" style="enable-background:new 0 0 111.2 191.1;"
	 xml:space="preserve">
<style type="text/css">
	.st0{fill:url(#SVGID_1_);}
	.st1{fill:#E8B582;}
	.st2{fill:#00AEEF;}
	.st3{fill:#F3BD8B;}
	.st4{fill:#E8D525;}
	.st5{fill:url(#SVGID_2_);}
</style>
<defs>
</defs>
<linearGradient id="SVGID_1_" gradientUnits="userSpaceOnUse" x1="50.1471" y1="191.0654" x2="50.1471" y2="83.7882">
	<stop  offset="0" style="stop-color:#E8B582"/>
	<stop  offset="0.1477" style="stop-color:#E0B07E"/>
	<stop  offset="0.3555" style="stop-color:#D2A577"/>
	<stop  offset="0.5989" style="stop-color:#BC946B"/>
	<stop  offset="0.8671" style="stop-color:#9D7C59"/>
	<stop  offset="1" style="stop-color:#8C6E4E"/>
</linearGradient>
<path class="st0" d="M98.6,191.1l-96.9-3.3l3-10.9c6.1-20.6,7.8-30.8,11.1-52.3L22,83.8h47.7l-2.1,53.4c-0.5,12.8,2.5,22.3,8.5,33
	L98.6,191.1z"/>
<g>
	<path class="st1" d="M111.2,140.4L98.5,73.7l-0.1,0c1.3-6.4,1.9-14.5,1.9-24.6C100.4,22,91.9,0,51.2,0C24.1,0,2.1,22,2.1,49.1
		c0,18.7,10.5,35,25.9,43.3l-1.8,24.8c-1.7,6.3,2.1,12.9,8.5,14.4l68.2,15.7C107.3,148.5,111.5,145,111.2,140.4z"/>
	<path class="st2" d="M97.4,54.1H4.3c-2.4,0-4.3-1.9-4.3-4.3v-9.2c0-2.4,1.9-4.3,4.3-4.3h93.1c2.4,0,4.3,1.9,4.3,4.3v9.2
		C101.7,52.2,99.8,54.1,97.4,54.1z"/>
	<path class="st3" d="M28.3,60.9c0-6.9-5.1-11.5-11.5-11.5S5.3,54,5.3,61v2.9c0,11,12,19.9,23,19.9V60.9z"/>
	<polygon class="st4" points="110,115.1 96,115.1 110,132.8 106.7,115.1 	"/>
</g>
</svg>
