<!-- Generator: Adobe Illustrator 19.1.0, SVG Export Plug-In  -->
<svg version="1.1"
	 xmlns="http://www.w3.org/2000/svg" xmlns:xlink="http://www.w3.org/1999/xlink" xmlns:a="http://ns.adobe.com/AdobeSVGViewerExtensions/3.0/"
	 x="0px" y="0px" width="159px" height="384.1px" viewBox="0 0 159 384.1" style="enable-background:new 0 0 159 384.1;"
	 xml:space="preserve">
<style type="text/css">
	.st0{fill:#CC9D76;}
	.st1{fill:#39B54A;}
	.st2{fill:#ED1C24;}
	.st3{fill:#F1F2F2;}
</style>
<defs>
</defs>
<path class="st0" d="M67.4,286.5l-42,0L0,89.4C-0.2,64.7,12,0,44.4,0l0,0C66.2,0,85,26.3,83,60.7L67.4,286.5z"/>
<g>
	<g>
		<path class="st1" d="M94,312L94,312L94,312c-1.2-0.3-2.3-0.6-3.4-1.1c-1.1-0.5-2.1-1.1-3-1.8c-0.9-0.7-1.8-1.5-2.5-2.4
			c-0.7-0.9-1.4-1.9-1.9-2.9c-0.5-1-0.9-2.1-1.2-3.3c-0.3-1.1-0.4-2.3-0.4-3.4l0-7.2l0-14.5c0-1.2-0.1-2.6-0.7-3.8
			c-0.6-1.2-1.8-2.2-3.1-2.6c-1.2-0.5-2.5-0.7-3.8-0.7c-0.6-0.1-1.2,0-1.9,0c-0.3,0-0.6,0-0.9,0.1l-0.5,0c-0.2,0-0.3,0-0.4,0.2
			l0,0.5l0.7,7.7c0.4,2.7,0.7,8.3,1.1,13.1l0.6,7.4c0.1,1.8,0.4,3.6,1,5.4c0.5,1.7,1.2,3.4,2.2,4.9c0.9,1.6,2,3,3.2,4.3
			c1.2,1.3,2.6,2.4,4,3.4c1.5,1,3,1.7,4.6,2.3c1.6,0.6,3.3,1,5,1.2l-0.9-0.2c4.4,1.1,8.8,2.2,13.3,3.2l6.7,1.6
			c2.2,0.5,4.4,1.1,6.7,1.5l13.4,3l6.7,1.5l6.7,1.4l0.2-0.5l0,0L94,312z"/>
		<g>
			<path class="st2" d="M145.3,330.1L145.3,330.1l-0.2,0.5l-6.7-1.4l-6.7-1.5l-13.4-3c-2.2-0.5-4.4-1-6.7-1.5l-6.7-1.6
				c-4.4-1-8.9-2.1-13.3-3.2l0.9,0.2c-1.7-0.2-3.3-0.6-5-1.2c-1.6-0.6-3.2-1.4-4.6-2.3c-1.5-0.9-2.8-2.1-4-3.4
				c-1.2-1.3-2.3-2.7-3.2-4.3c-0.9-1.5-1.6-3.2-2.2-4.9c-0.5-1.7-0.8-3.5-1-5.4l-0.6-7.4c-0.4-4.8-0.7-10.4-1.1-13.1l-0.3-3.2
				c-0.2-2.6-2.4-4.5-5-4.5H24c-3.3,0-5.9,2.7-5.9,5.9l-7,84.1c0,3.3,2.7,5.9,5.9,5.9h64.2h70.2c4.2,0,7.6-3.4,7.6-7.6v-8.2
				C159,340.6,153.5,332.9,145.3,330.1z"/>
			<path class="st3" d="M159,359.4l-0.9,1c-2.6,2.8-6.3,4.4-10.1,4.4H20.2c-3.8,0-7.3-2.1-9.2-5.4h-1v19.2l1.1,0.2
				c1.9,3.3,5.3,5.3,9.1,5.3h127.1c4.3,0,8.4-2,11-5.4l0.7-1V359.4z"/>
		</g>
		<g>
			<path class="st3" d="M135.3,338.6c-0.3,0-0.5-0.1-0.8-0.2c-1-0.4-1.5-1.6-1.1-2.6l3.7-9.7c0.4-1,1.6-1.5,2.6-1.1
				c1,0.4,1.5,1.6,1.1,2.6l-3.7,9.7C136.9,338.1,136.1,338.6,135.3,338.6z"/>
		</g>
		<g>
			<path class="st3" d="M125.3,334.6c-0.3,0-0.5-0.1-0.8-0.2c-1-0.4-1.5-1.6-1.1-2.6l4.7-9.7c0.4-1,1.6-1.5,2.6-1.1
				c1,0.4,1.5,1.6,1.1,2.6l-4.7,9.7C126.9,334.1,126.1,334.6,125.3,334.6z"/>
		</g>
		<g>
			<path class="st3" d="M115.8,331.6c-0.3,0-0.5-0.1-0.8-0.2c-1-0.4-1.5-1.6-1.1-2.6l4.7-9.7c0.4-1,1.6-1.5,2.6-1.1
				c1,0.4,1.5,1.6,1.1,2.6l-4.7,9.7C117.4,331.1,116.6,331.6,115.8,331.6z"/>
		</g>
		<g>
			<path class="st3" d="M104.3,327.6c-0.3,0-0.5-0.1-0.8-0.2c-1-0.4-1.5-1.6-1.1-2.6l4.7-9.7c0.4-1,1.6-1.5,2.6-1.1
				c1,0.4,1.5,1.6,1.1,2.6l-4.7,9.7C105.9,327.1,105.1,327.6,104.3,327.6z"/>
		</g>
		<g>
			<path class="st3" d="M93.8,324.6c-0.3,0-0.5-0.1-0.8-0.2c-1-0.4-1.5-1.6-1.1-2.6l4.7-9.7c0.4-1,1.6-1.5,2.6-1.1
				c1,0.4,1.5,1.6,1.1,2.6l-4.7,9.7C95.4,324.1,94.6,324.6,93.8,324.6z"/>
		</g>
	</g>
	<g>
		<path class="st3" d="M82.3,319.6c-0.3,0-0.5-0.1-0.8-0.2c-1-0.4-1.5-1.6-1.1-2.6l4.7-9.7c0.4-1,1.6-1.5,2.6-1.1
			c1,0.4,1.5,1.6,1.1,2.6l-4.7,9.7C83.9,319.1,83.1,319.6,82.3,319.6z"/>
	</g>
</g>
</svg>
