<svg id="Layer_1" data-name="Layer 1" xmlns="http://www.w3.org/2000/svg" xmlns:xlink="http://www.w3.org/1999/xlink" viewBox="0 0 332.18 1139.55"><defs><style>.cls-1{fill:url(#linear-gradient);}.cls-2{fill:#e8b582;}.cls-3{fill:#c49a6c;}.cls-4{fill:#f1f2f2;}.cls-5{fill:none;}.cls-6{fill:#ed1c24;}.cls-7{fill:#39b54a;}.cls-8{fill:#010101;opacity:0.95;isolation:isolate;}.cls-14,.cls-9{fill:#fff;}.cls-10{fill:#21409a;}.cls-11{fill:#99247d;}.cls-12{fill:#e8d525;}.cls-13{fill:#00aeef;}.cls-14{stroke:#99247d;stroke-miterlimit:10;stroke-width:1.11px;}</style><linearGradient id="linear-gradient" x1="165.24" y1="195" x2="165.24" y2="139" gradientUnits="userSpaceOnUse"><stop offset="0" stop-color="#e8b582"/><stop offset="0.26" stop-color="#e1b07e"/><stop offset="0.62" stop-color="#cfa275"/><stop offset="1" stop-color="#b48e66"/></linearGradient></defs><title>basketball</title><path class="cls-1" d="M250.3,182a159.91,159.91,0,0,1-23.86-11.53l-33.87-13.26L190.74,139h-50L139,156.78,104,170.42A160,160,0,0,1,80.18,182L50.24,195h230Z"/><polygon class="cls-2" points="242.24 430.76 89.24 430.76 69.24 231.61 262.24 231.61 242.24 430.76"/><path class="cls-2" d="M331.27,321.28a212.76,212.76,0,0,0-11.76-50.83c8-27.27,1.22-59.35-19.43-76.43-0.43-.38-0.88-0.74-1.33-1.09h0c-13.75-10.63-32.39-6.44-41.64,9.36s-5.6,37.22,8.14,47.85l0.81,0.63c-4,21.1-.8,51.85,1.82,78.45,1.73,17.54,11.89,46.52,22,66.2-4.87,18.86-8.16,43.36-11.13,65.06-2.14,15.59-1.68,41.72.38,62.51a68.86,68.86,0,0,1-.92,11.91,27.39,27.39,0,0,1-3.07,8.1l-5.86,38.26-0.11,0-1,7.23L267.83,591h0l-2.35,17.07h0l0.63,20.74c0.12,3.9,2.56,7,5.6,7.14l3.43,0.14c3.19,0.13,5.87-3.09,6-7.2l0.43-17.16h0l3.18-15.7,6.64,2.23L291,631h0l-0.51,21h0L290,666c-0.14,4.25,2.42,7.87,5.73,8.06l4.89,0.28a2.76,2.76,0,0,0,2.74-2.78L305.24,653h0l2.05-22h0l2-27.49v-0.23h0L305.66,543s0.84-6.38,1.63-10.4,4-16.35,4-16.35h0a292.17,292.17,0,0,0,10.8-47.8,307.43,307.43,0,0,0,1.18-70.69C330.55,379.2,333.95,349.49,331.27,321.28Z"/><path class="cls-2" d="M75.07,202.29c-9.25-15.8-27.89-20-41.64-9.36h0c-0.46.35-.9,0.72-1.33,1.09C11.46,211.1,4.64,243.18,12.67,270.46A212.77,212.77,0,0,0,.91,321.28c-2.68,28.21.72,57.92,8,76.49a307.43,307.43,0,0,0,1.18,70.69,292.17,292.17,0,0,0,10.8,47.8h0s3.18,12.33,4,16.35S26.53,543,26.53,543l-3.66,60.26h0v0.24l2,27.49h0L27,653h0l1.84,18.52c0.17,1.76,1.36,3,2.74,2.88l4.89-.32c3.31-.19,5.88-3.84,5.73-8.1l-0.47-14h0l-0.51-21h0l-0.33-32.71,6.43-2.11,3,15.64v0l0.63,17.14c0.1,4.11,2.88,7.32,6.07,7.19l3.48-.14c3-.12,5.5-3.25,5.62-7.14l0.65-20.74h0L64.31,591h0L64,588.47l-1-7.23-0.11,0L57,543a27.39,27.39,0,0,1-3.07-8.1A68.89,68.89,0,0,1,53,523h0c2.06-20.79,2.52-46.92.38-62.51-3-21.7-6.25-46.2-11.13-65.06,10.13-19.68,20.29-48.66,22-66.2,2.62-26.6,5.81-57.35,1.82-78.45l0.81-.63C80.67,239.51,84.32,218.09,75.07,202.29Z"/><path class="cls-2" d="M239.21,277.52H92.27c-7.66,0-14.34-6-16.19-14.53L64.43,209.55c-2.64-12.11,5.33-23.85,16.19-23.85l81.69,1.45a5.27,5.27,0,0,1,3.25,1.23h0a5.27,5.27,0,0,1,3.25-1.22l82-1.45c10.86,0,18.83,11.74,16.19,23.85L255.4,263C253.54,271.53,246.87,277.52,239.21,277.52Z"/><polygon class="cls-3" points="242.24 430 165.74 430 89.24 430 86.24 494.04 165.74 506.87 245.24 493.94 242.24 430"/><path class="cls-2" d="M123.24,478.92h0c-21.49-1-39.56,18.31-40.21,43L81.22,781,76,819.92a333.87,333.87,0,0,0-3,44.67l12.83,176.07,36,1.72,18.57-186.72q0.55-10.1.43-20.23l-0.65-51.57,19.95-257.21C161.8,501.59,145.07,480,123.24,478.92Z"/><path class="cls-2" d="M255.93,819.53l-5.47-38.86-3.38-259.06c-0.8-24.7-19-43.89-40.47-42.69h0c-21.82,1.22-38.42,23-36.62,48L191.5,784l-0.33,51.58q-0.07,10.12.55,20.23l19.71,186.57,36-2,11.75-176.16A333.71,333.71,0,0,0,255.93,819.53Z"/><rect class="cls-4" x="50.09" y="1120.79" width="104.84" height="18.76"/><polygon class="cls-5" points="118.74 1057.93 118.83 1058.09 118.75 1057.87 118.74 1057.93"/><polygon class="cls-5" points="86.2 1058.09 86.29 1057.93 86.27 1057.87 86.2 1058.09"/><path class="cls-6" d="M118.75,1057.87l5.39-23.86s0-.1,0-0.15l-5.43,24Z"/><path class="cls-6" d="M129.83,1062l-10.77-3.5h0l10.77,18.71,10.53-34.6a10.45,10.45,0,0,0,.35-5.23l-1.22-6.5c-0.65-3.46-1.45-5.88-4.08-5.88h-5c-2.52,0-4.74,2.23-5.49,5.51l-0.76,3.35s0,0.1,0,.14l-5.39,23.86-0.27.23-0.24.33V1112h-32v-54h0l0.09-.15-4.41-19.46-1-4.42,0-.13-0.76-3.34c-0.74-3.28-3-5.5-5.49-5.5H71.83c-2.74,0-5.1,2.63-5.63,6.29l-0.92,6.29a10.42,10.42,0,0,0,.42,4.81l9.61,19.4-25.22,59s20.63,5.07,52.42,5.07,52.42-5.07,52.42-5.07Z"/><path class="cls-7" d="M119.25,1025H85.77c-3.41,0-5.74,4.43-4.81,8.86l5.33,24-0.09.14h0.3l-10.14,53.2s12.77,9.62,26.16,9.62,26.56-9.61,26.56-9.61L118.94,1058h-0.16l0-.15,5.43-24C125.1,1029.45,122.66,1025,119.25,1025Z"/><path id="path2987" class="cls-8" d="M93.35,1044.14s1.45-5.07,1.49-5.13a16,16,0,0,1,2,0s-0.21.81-.48,1.76-0.5,1.75-.49,1.77a1.41,1.41,0,0,0,.69,0c0-.06,1.24-4.21,1.22-4.24s-0.58,0-1.34,0-1.33,0-1.34,0,0.27-1,.62-2.19l0.64-2.17h2.35c1.29,0,2.36,0,2.37,0s-0.37,1.37-.85,3L98.72,1042c-0.33,1.14-.62,2.1-0.63,2.13a9.53,9.53,0,0,1-2.37.06c-1.29,0-2.35,0-2.36,0h0Zm4.89-7.5a10.77,10.77,0,0,0,.33-1.14s0-.05-0.34-0.05a0.75,0.75,0,0,0-.37,0,11,11,0,0,0-.33,1.14s0,0.05.34,0.05a0.76,0.76,0,0,0,.37,0h0Zm2.07,1.6s0.27-1,.62-2.2l0.64-2.17h1a9.19,9.19,0,0,1,1,0,13.67,13.67,0,0,1-.36,1.36c-0.21.73-.39,1.35-0.39,1.38s0,0.05.36,0h0.36l0.4-1.36c0.22-.75.42-1.38,0.43-1.4a14.43,14.43,0,0,1,1.94,0s-0.27,1-.62,2.2l-0.64,2.17h-2.35c-1.29,0-2.36,0-2.37,0h0Zm5.18,0s0.27-1,.62-2.19l0.64-2.17h2.34c1.29,0,2.36,0,2.37,0s-0.26,1-.62,2.2l-0.64,2.17h-1a9.19,9.19,0,0,1-1,0,13.67,13.67,0,0,1,.36-1.36c0.21-.73.39-1.35,0.39-1.38s0-.05-0.36,0h-0.36l-0.4,1.36c-0.22.75-.42,1.38-0.43,1.4a14.43,14.43,0,0,1-1.94,0h0Zm5.86-1.44c-0.14-.11-0.14-0.23,0-0.73a1.31,1.31,0,0,1,.21-0.54,0.3,0.3,0,0,1,.5.15,2.86,2.86,0,0,1-.31,1.1,0.29,0.29,0,0,1-.4,0h0Z"/><path id="path2989-1" class="cls-8" d="M101.08,1038.73a0.8,0.8,0,0,0-.69.23,1.25,1.25,0,0,0-.25,1.17,1.28,1.28,0,0,0,.79.63,1,1,0,0,1,.19-1.53h0.41c0.91,0,.85-0.08.87,0.55h0c0-.89,0-1-0.8-1h-0.52Zm1.57,1.78c-0.09.58-.45,0.65-1.13,0.64H99.47l-0.19.64h2.11a1.36,1.36,0,0,0,1.26-1.29h0Z"/><rect class="cls-9" x="82.27" y="1058.09" width="40.89" height="3.39" rx="1.7" ry="1.7"/><rect class="cls-9" x="80.62" y="1068.23" width="44.19" height="3.39" rx="1.7" ry="1.7"/><rect class="cls-9" x="78.6" y="1078.37" width="48.22" height="3.39" rx="1.7" ry="1.7"/><rect class="cls-9" x="76.62" y="1088.51" width="52.18" height="3.39" rx="1.7" ry="1.7"/><rect class="cls-9" x="74.7" y="1098.65" width="56.03" height="3.39" rx="1.7" ry="1.7"/><rect class="cls-9" x="72.76" y="1108.79" width="59.91" height="3.39" rx="1.7" ry="1.7"/><polygon class="cls-5" points="190.29 1057.93 190.2 1058.09 190.27 1057.87 190.29 1057.93"/><rect class="cls-4" x="179.09" y="1120.79" width="104.84" height="18.76"/><polygon class="cls-5" points="247.83 1058.09 247.74 1057.93 247.75 1057.87 247.83 1058.09"/><path class="cls-6" d="M204.19,1062l10.77-3.5h0l-10.77,18.71-10.53-34.6a10.45,10.45,0,0,1-.35-5.23l1.22-6.5c0.65-3.46,1.45-5.88,4.08-5.88h5c2.52,0,4.74,2.23,5.49,5.51l0.76,3.35s0,0.1,0,.14l5.39,23.86,0.5,0.23,0.47,0.33V1112h32v-54h-0.41l-0.09-.15,4.41-19.46,1-4.42,0-.13,0.76-3.34c0.74-3.28,3-5.5,5.49-5.5h2.78c2.74,0,5.1,2.63,5.63,6.29l0.92,6.29a10.42,10.42,0,0,1-.42,4.81l-9.61,19.4,25.22,59s-20.63,5.07-52.42,5.07-52.42-5.07-52.42-5.07Z"/><path class="cls-7" d="M214.77,1025h33.48c3.41,0,5.74,4.43,4.81,8.86l-5.33,24,0.09,0.14h-0.3l10.14,53.2s-12.77,9.62-26.16,9.62-26.56-9.61-26.56-9.61l10.14-53.2h0.16l0-.15-5.43-24C208.93,1029.45,211.37,1025,214.77,1025Z"/><path id="path2987-2" data-name="path2987" class="cls-8" d="M221.95,1044.14s1.45-5.07,1.49-5.13a16,16,0,0,1,2,0s-0.21.81-.48,1.76-0.5,1.75-.49,1.77a1.41,1.41,0,0,0,.69,0c0-.06,1.24-4.21,1.22-4.24s-0.58,0-1.34,0-1.33,0-1.34,0,0.27-1,.62-2.19l0.64-2.17h2.35c1.29,0,2.36,0,2.37,0s-0.37,1.37-.85,3l-1.48,5.07c-0.33,1.14-.62,2.1-0.63,2.13a9.53,9.53,0,0,1-2.37.06c-1.29,0-2.35,0-2.36,0h0Zm4.89-7.5a10.77,10.77,0,0,0,.33-1.14s0-.05-0.34-0.05a0.75,0.75,0,0,0-.37,0,11,11,0,0,0-.33,1.14s0,0.05.34,0.05a0.76,0.76,0,0,0,.37,0h0Zm2.07,1.6s0.27-1,.62-2.2l0.64-2.17h1a9.19,9.19,0,0,1,1,0,13.67,13.67,0,0,1-.36,1.36c-0.21.73-.39,1.35-0.39,1.38s0,0.05.36,0h0.36l0.4-1.36c0.22-.75.42-1.38,0.43-1.4a14.43,14.43,0,0,1,1.94,0s-0.27,1-.62,2.2l-0.64,2.17h-2.35c-1.29,0-2.36,0-2.37,0h0Zm5.18,0s0.27-1,.62-2.19l0.64-2.17h2.34c1.29,0,2.36,0,2.37,0s-0.26,1-.62,2.2l-0.64,2.17h-1a9.19,9.19,0,0,1-1,0,13.67,13.67,0,0,1,.36-1.36c0.21-.73.39-1.35,0.39-1.38s0-.05-0.36,0h-0.36l-0.4,1.36c-0.22.75-.42,1.38-0.43,1.4a14.43,14.43,0,0,1-1.94,0h0Zm5.86-1.44c-0.14-.11-0.14-0.23,0-0.73a1.31,1.31,0,0,1,.21-0.54,0.3,0.3,0,0,1,.5.15,2.86,2.86,0,0,1-.31,1.1,0.29,0.29,0,0,1-.4,0h0Z"/><path id="path2989-1-2" data-name="path2989-1" class="cls-8" d="M229.67,1038.73a0.8,0.8,0,0,0-.69.23,1.25,1.25,0,0,0-.25,1.17,1.28,1.28,0,0,0,.79.63,1,1,0,0,1,.19-1.53h0.41c0.91,0,.85-0.08.87,0.55h0c0-.89,0-1-0.8-1h-0.52Zm1.57,1.78c-0.09.58-.45,0.65-1.13,0.64h-2.05l-0.19.64H230a1.36,1.36,0,0,0,1.26-1.29h0Z"/><rect class="cls-9" x="210.87" y="1058.09" width="40.89" height="3.39" rx="1.7" ry="1.7" transform="translate(462.62 2119.57) rotate(-180)"/><rect class="cls-9" x="209.22" y="1068.23" width="44.19" height="3.39" rx="1.7" ry="1.7" transform="translate(462.62 2139.85) rotate(-180)"/><rect class="cls-9" x="207.2" y="1078.37" width="48.22" height="3.39" rx="1.7" ry="1.7" transform="translate(462.62 2160.13) rotate(-180)"/><rect class="cls-9" x="205.22" y="1088.51" width="52.18" height="3.39" rx="1.7" ry="1.7" transform="translate(462.62 2180.41) rotate(-180)"/><rect class="cls-9" x="203.29" y="1098.65" width="56.03" height="3.39" rx="1.7" ry="1.7" transform="translate(462.62 2200.68) rotate(180)"/><rect class="cls-9" x="201.35" y="1108.79" width="59.91" height="3.39" rx="1.7" ry="1.7" transform="translate(462.62 2220.96) rotate(-180)"/><polygon class="cls-10" points="246.07 442 229.07 442 84.41 442 63.07 746 161.41 746 165.07 580.46 169.07 746 267.4 746 246.07 442"/><polygon class="cls-11" points="246.24 442 267.4 746 257.07 746 237.07 442 246.24 442"/><polygon class="cls-11" points="84.24 442 63.07 746 73.41 746 93.41 442 84.24 442"/><path class="cls-10" d="M258.32,272c-9.9-31.79-10.31-62.47-1.18-94.45L216.09,166H212.9l-7,38.41c-3.23,18.1-17.41,32.8-35.69,34.81a45.8,45.8,0,0,1-10-.16c-18.28-2-32.47-16.46-35.69-34.57l-7-38.49h-3.19L73.33,177.34a164.11,164.11,0,0,1-1.18,95.75l-2.52,7.34,4.07,34.71-0.38,27.52-0.55,39.5L71.17,497H256.3l0.47-182.24,4.07-34.23Z"/><path class="cls-11" d="M72.77,382.16c18.85,30.11,32.36,70,37.81,114.84h18.34c-6.63-62.8-27-117.45-55.6-154.34Z"/><path class="cls-11" d="M256.92,382.16C238.07,412.28,224.55,452,219.11,497H200.77c6.63-63,27-117.45,55.6-154.34Z"/><path class="cls-2" d="M228.24,58.42V55.76a7.51,7.51,0,0,0-7.48-7.68,7.4,7.4,0,0,0-7,4.93l-0.49-5a48,48,0,1,0-96.07,0l-0.49,5a7.4,7.4,0,0,0-7-4.93,7.51,7.51,0,0,0-7.48,7.68v2.65c0,6.86,5,22,11.65,23.37l-4,41.13a7.89,7.89,0,0,0,4.37,7.85l25.5,12.47a7.84,7.84,0,0,0,3.48.75H187a7.84,7.84,0,0,0,3.46-.74l25.73-12.52a7.87,7.87,0,0,0,4.39-7.85l-4-41.11C223.29,80.42,228.24,65.28,228.24,58.42Z"/><polygon class="cls-12" points="165.24 114 157.36 114 165.24 131.32 173.11 114 165.24 114"/><rect class="cls-13" x="115.25" y="35.63" width="99.68" height="17.38" rx="4.28" ry="4.28"/><path class="cls-14" d="M95.69,296.23q4.56-1.47,9.16-2.73c5.94-1.63,10.06-2.3,12.26-2.32a9.7,9.7,0,0,1,5.25,1.21,6.56,6.56,0,0,1,2.68,3,43.44,43.44,0,0,1,1.76,7.34l2.5,13.62a31.06,31.06,0,0,1,.77,7.1,5.46,5.46,0,0,1-1.25,3.1,7.87,7.87,0,0,1-2.81,2,34.45,34.45,0,0,1-5.41,1.65q-6.44,1.58-12.79,3.62Zm14,3,6.56,25.17c1.52-.4,2.39-0.91,2.6-1.58s0-2.28-.61-4.84L114.6,303a17.37,17.37,0,0,0-1-3.3,1.67,1.67,0,0,0-1.17-.86A7,7,0,0,0,109.66,299.21Z"/><path class="cls-14" d="M158.68,285.41q4.19,19.66,7.12,39.45-5.34,0-10.67.27-0.47-3.53-1-7.07-1.94.11-3.87,0.26-0.05,3.57-.08,7.14-5.39.43-10.75,1.18-0.07-20,1-40Q149.54,285.68,158.68,285.41Zm-5.21,25.68q-1.24-6.66-2.82-16.46c-0.72,7.64-1,13.22-1,16.73Q151.54,311.2,153.47,311.09Z"/><path class="cls-14" d="M198,287.69l-1.14,7.83q-3.59-.52-7.2-0.93L186.17,326q-5.2-.58-10.41-0.87l1.76-31.58q-3.6-.2-7.21-0.28l0.18-7.91A227.31,227.31,0,0,1,198,287.69Z"/><path class="cls-14" d="M227.77,294.07q-1.93,20-5.09,39.77-5.14-1.65-10.35-3,0.62-3.51,1.21-7-1.89-.48-3.79-0.93-1.13,3.39-2.24,6.78-5.29-1.22-10.64-2.13,6-19,13-37.8Q218.9,291.54,227.77,294.07ZM215,317q0.82-6.72,2.28-16.55c-3,7.06-5,12.29-6.06,15.63Q213.1,316.48,215,317Z"/></svg>