<!-- Generator: Adobe Illustrator 19.2.1, SVG Export Plug-In  -->
<svg version="1.1"
	 xmlns="http://www.w3.org/2000/svg" xmlns:xlink="http://www.w3.org/1999/xlink" xmlns:a="http://ns.adobe.com/AdobeSVGViewerExtensions/3.0/"
	 x="0px" y="0px" width="332.2px" height="891.9px" viewBox="0 0 332.2 891.9" style="enable-background:new 0 0 332.2 891.9;"
	 xml:space="preserve">
<style type="text/css">
	.st0{fill:url(#SVGID_1_);}
	.st1{fill:#E2AE83;}
	.st2{fill:#C49A6C;}
	.st3{fill:#F1F2F2;}
	.st4{fill:none;}
	.st5{fill:#ED1C24;}
	.st6{fill:#39B54A;}
	.st7{opacity:0.95;fill:#010101;enable-background:new    ;}
	.st8{fill:#FFFFFF;}
	.st9{fill:#21409A;}
	.st10{fill:#99247D;}
	.st11{fill:#BE9271;}
	.st12{fill:#383838;}
	.st13{fill:#FFFFFF;stroke:#99247D;stroke-width:1.1116;stroke-miterlimit:10;}
	.st14{fill:url(#SVGID_2_);}
</style>
<defs>
</defs>
<g>
	<linearGradient id="SVGID_1_" gradientUnits="userSpaceOnUse" x1="165.2389" y1="215.3941" x2="165.2389" y2="181.3941">
		<stop  offset="0" style="stop-color:#E2AE83"/>
		<stop  offset="0.3212" style="stop-color:#D6A67B"/>
		<stop  offset="0.7716" style="stop-color:#BD946A"/>
		<stop  offset="1" style="stop-color:#AD895F"/>
	</linearGradient>
	<path class="st0" d="M250.3,206.6c-8.2-2.1-16.2-4.7-23.9-7.8l-33.9-9l-1.8-8.4h-50l-1.8,8.2l-34.9,9.3c-7.7,3.1-15.7,5.6-23.9,7.8
		l-29.9,8.8h115h115L250.3,206.6z"/>
	<polygon class="st1" points="242.2,376.7 89.2,376.7 69.2,240.6 262.2,240.6 	"/>
	<path class="st1" d="M331.3,301.9c-1.6-11.5-6-23.9-11.8-34.7c8-18.6,1.2-40.6-19.4-52.2c-0.4-0.3-0.9-0.5-1.3-0.7h0h0
		c-13.7-7.3-32.4-4.4-41.6,6.4s-5.6,25.4,8.1,32.7l0.8,0.4c-4,14.4-0.8,35.4,1.8,53.6c1.7,12,11.9,31.8,22,45.2
		c-4.9,12.9-8.2,29.6-11.1,44.5c-2.1,10.7-1.7,28.5,0.4,42.7c0,0,0.1,4.9-0.9,8.1c-1,3.3-3.1,5.5-3.1,5.5l-5.9,26.1l-0.1,0l-1,4.9
		l-0.4,1.7l0,0l-2.4,11.7l0,0l0.6,14.2c0.1,2.7,2.6,4.8,5.6,4.9l3.4,0.1c3.2,0.1,5.9-2.1,6-4.9l0.4-11.7h0l3.2-10.7l6.6,1.4
		l-0.3,22.3h0l-0.5,15h0l-0.5,9.3c-0.1,2.9,2.4,5.3,5.7,5.4l4.9,0.1c1.4,0.1,2.6-0.9,2.7-2.1l1.8-12.8h0l2.1-15h0l2-18.7l0,0l0,0
		l0,0l0,0l-3.7-41.2c0,0,0.8-4.3,1.6-7c0.8-2.7,4-11.1,4-11.1h0c4.6-10,8.5-21.3,10.8-32.8c3.2-15.8,3.4-34.2,1.2-48.4
		C330.5,341.5,333.9,321.2,331.3,301.9z"/>
	<g>
		<path class="st1" d="M33.4,214.2L33.4,214.2c13.7-7.3,32.4-4.4,41.6,6.4s5.6,25.4-8.1,32.7l-47.3,25C2.4,258.1,7.2,229,32.1,214.9
			C32.5,214.7,33,214.4,33.4,214.2C33.4,214.2,33.4,214.2,33.4,214.2z"/>
		<path class="st1" d="M0.9,301.9c-4.2,30.3,6.6,63.1,24,65c10.8,1.1,36.5-39.8,39.4-59.5c4.4-30.3,10.3-68.4-18-70.9
			C28.8,235,5.1,271.6,0.9,301.9z"/>
		<path class="st1" d="M10.1,402.5c6.1,30.1,22.9,60.1,34.9,58.9c7.4-0.7,12.3-44.8,8.4-64.4c-6-30.1-13.3-68.1-32.7-65.7
			C8.8,332.9,4,372.4,10.1,402.5z"/>
		<g>
			<polygon class="st1" points="22.9,494.8 64.4,486.3 57,453.5 26.5,453.5 			"/>
			<polygon class="st1" points="24.9,513.5 41.2,513.3 40.8,491.1 22.9,494.6 			"/>
			<polygon class="st1" points="50.7,500.4 66.7,498 63,479.6 45.2,482.1 			"/>
			<polygon class="st1" points="27,528.4 41.7,528 41.2,513.2 24.9,513.5 			"/>
			<path class="st1" d="M31.5,543.2l4.9-0.2c3.3-0.1,5.9-2.6,5.7-5.5l-0.5-9.5l-14.7,0.4l1.8,12.8C29,542.4,30.1,543.3,31.5,543.2z"
				/>
			<path class="st1" d="M60.5,517l-3.4,0.1c-3.2,0.1-5.9-2.1-6-4.9l-0.5-13.6l16.1-0.7l-0.6,14.2C66,514.8,63.5,516.9,60.5,517z"/>
		</g>
		<path class="st1" d="M53,439.8c0,0-0.1,4.9,0.9,8.1c1,3.3,3.1,5.5,3.1,5.5l-13.4,8l-17.1-8c0,0-0.8-4.4-1.6-7.1
			c-0.8-2.7-4-11.2-4-11.2L53,439.8z"/>
	</g>
	<path class="st1" d="M239.2,272H92.3c-7.7,0-14.3-4.1-16.2-9.9l-11.6-36.5c-2.6-8.3,5.3-16.3,16.2-16.3l81.7,1
		c1.2,0,2.3,0.3,3.3,0.8l0,0l0,0c0.9-0.5,2.1-0.8,3.2-0.8l82-1c10.9,0,18.8,8,16.2,16.3l-11.6,36.5C253.5,267.9,246.9,272,239.2,272
		z"/>
	<polygon class="st2" points="242.2,376.4 165.7,376.4 89.2,376.4 86.2,420.1 165.7,428.8 245.2,420 	"/>
	<g>
		<path class="st1" d="M123.2,409.7L123.2,409.7c-21.5-0.7-39.6,12.5-40.2,29.4l-1.8,177.1L76,642.7c-2,10.1-3,20.3-3,30.5
			l12.8,120.3l36,1.2l18.6-127.6c0.4-4.6,0.5-9.2,0.4-13.8l-0.6-35.2l19.9-175.8C161.8,425.2,145.1,410.4,123.2,409.7z"/>
		<path class="st1" d="M255.9,642.5l-5.5-26.6l-3.4-177.1c-0.8-16.9-19-30-40.5-29.2h0c-21.8,0.8-38.4,15.7-36.6,32.8l21.5,175.7
			l-0.3,35.3c0,4.6,0.1,9.2,0.5,13.8l19.7,127.5l36-1.4L259.2,673C259.1,662.7,258,652.5,255.9,642.5z"/>
	</g>
	<g>
		<rect x="50.1" y="873.2" class="st3" width="104.8" height="18.8"/>
		<polygon class="st4" points="118.7,810.3 118.8,810.5 118.8,810.3 		"/>
		<polygon class="st4" points="86.2,810.5 86.3,810.3 86.3,810.3 		"/>
		<path class="st5" d="M118.8,810.3l5.4-23.9c0,0,0-0.1,0-0.1L118.8,810.3L118.8,810.3z"/>
		<path class="st5" d="M129.8,814.4l-10.8-3.5v0l10.8,18.7l10.5-34.6c0.6-1.6,0.7-3.5,0.4-5.2l-1.2-6.5c-0.7-3.5-1.5-5.9-4.1-5.9h-5
			c-2.5,0-4.7,2.2-5.5,5.5l-0.8,3.4c0,0,0,0.1,0,0.1l-5.4,23.9l-0.3,0.2l-0.2,0.3v53.6h-32v-54h0.1h-0.1l0.1-0.1l-4.4-19.5l-1-4.4
			c0,0,0-0.1,0-0.1l-0.8-3.3c-0.7-3.3-3-5.5-5.5-5.5h-2.8c-2.7,0-5.1,2.6-5.6,6.3l-0.9,6.3c-0.2,1.6-0.1,3.3,0.4,4.8l9.6,19.4
			l-25.2,59c0,0,20.6,5.1,52.4,5.1s52.4-5.1,52.4-5.1L129.8,814.4z"/>
		<path class="st6" d="M119.3,777.4h-16.7H85.8c-3.4,0-5.7,4.4-4.8,8.9l5.3,24l-0.1,0.1h0.3l-10.1,53.2c0,0,12.8,9.6,26.2,9.6
			s26.6-9.6,26.6-9.6l-10.1-53.2h-0.2l0-0.1l5.4-24C125.1,781.8,122.7,777.4,119.3,777.4z"/>
		<g>
			<path id="path2987_4_" inkscape:connector-curvature="0" class="st7" d="M93.4,796.5c0,0,1.4-5.1,1.5-5.1c0,0,1.9,0,2,0
				c0,0-0.2,0.8-0.5,1.8c-0.3,0.9-0.5,1.7-0.5,1.8c0,0.1,0.6,0.1,0.7,0c0-0.1,1.2-4.2,1.2-4.2c0,0-0.6,0-1.3,0c-0.7,0-1.3,0-1.3,0
				s0.3-1,0.6-2.2l0.6-2.2l2.3,0c1.3,0,2.4,0,2.4,0c0,0-0.4,1.4-0.8,3c-0.5,1.6-1.1,3.9-1.5,5.1c-0.3,1.1-0.6,2.1-0.6,2.1
				c0,0.1-0.2,0.1-2.4,0.1C94.4,796.6,93.4,796.5,93.4,796.5L93.4,796.5z M98.2,789c0,0,0.3-1.1,0.3-1.1c0,0,0-0.1-0.3-0.1
				c-0.2,0-0.3,0-0.4,0c0,0-0.3,1.1-0.3,1.1c0,0,0,0.1,0.3,0.1C98.1,789.1,98.2,789.1,98.2,789L98.2,789z M100.3,790.6
				c0,0,0.3-1,0.6-2.2l0.6-2.2l1,0c0.5,0,1,0,1,0c0,0-0.1,0.6-0.4,1.4c-0.2,0.7-0.4,1.4-0.4,1.4c0,0,0,0.1,0.4,0l0.4,0l0.4-1.4
				c0.2-0.7,0.4-1.4,0.4-1.4c0,0,1.9-0.1,1.9,0c0,0-0.3,1-0.6,2.2l-0.6,2.2l-2.4,0C101.4,790.7,100.3,790.6,100.3,790.6L100.3,790.6
				z M105.5,790.6c0,0,0.3-1,0.6-2.2l0.6-2.2l2.3,0c1.3,0,2.4,0,2.4,0c0,0-0.3,1-0.6,2.2l-0.6,2.2l-1,0c-0.5,0-1,0-1,0
				c0,0,0.1-0.6,0.4-1.4c0.2-0.7,0.4-1.4,0.4-1.4c0,0,0-0.1-0.4,0l-0.4,0l-0.4,1.4c-0.2,0.7-0.4,1.4-0.4,1.4
				C107.4,790.7,105.5,790.7,105.5,790.6L105.5,790.6z M111.4,789.2c-0.1-0.1-0.1-0.2,0-0.7c0.1-0.3,0.1-0.5,0.2-0.5
				c0.2-0.2,0.5-0.1,0.5,0.1c0,0.2-0.2,1-0.3,1.1C111.7,789.3,111.5,789.3,111.4,789.2L111.4,789.2z"/>
			<path id="path2989-1_4_" inkscape:connector-curvature="0" class="st7" d="M101.1,791.1c-0.3,0-0.5,0-0.7,0.2
				c-0.3,0.3-0.4,0.8-0.2,1.2c0.2,0.4,0.6,0.5,0.8,0.6c-0.5-0.4-0.3-1.2,0.2-1.5h0.4c0.9,0,0.9-0.1,0.9,0.5h0c0-0.9,0-1-0.8-1
				C101.4,791.1,101.2,791.1,101.1,791.1L101.1,791.1z M102.7,792.9c-0.1,0.6-0.4,0.6-1.1,0.6c0,0,0,0,0,0h-2.1l-0.2,0.6h2.1h0
				C102.2,794.2,102.5,793.6,102.7,792.9L102.7,792.9z"/>
		</g>
		<path class="st8" d="M121.5,813.9H84c-0.9,0-1.7-0.8-1.7-1.7l0,0c0-0.9,0.8-1.7,1.7-1.7h37.5c0.9,0,1.7,0.8,1.7,1.7l0,0
			C123.2,813.1,122.4,813.9,121.5,813.9z"/>
		<path class="st8" d="M123.1,824H82.3c-0.9,0-1.7-0.8-1.7-1.7l0,0c0-0.9,0.8-1.7,1.7-1.7h40.8c0.9,0,1.7,0.8,1.7,1.7l0,0
			C124.8,823.3,124.1,824,123.1,824z"/>
		<path class="st8" d="M125.1,834.2H80.3c-0.9,0-1.7-0.8-1.7-1.7l0,0c0-0.9,0.8-1.7,1.7-1.7h44.8c0.9,0,1.7,0.8,1.7,1.7l0,0
			C126.8,833.4,126.1,834.2,125.1,834.2z"/>
		<path class="st8" d="M127.1,844.3H78.3c-0.9,0-1.7-0.8-1.7-1.7l0,0c0-0.9,0.8-1.7,1.7-1.7h48.8c0.9,0,1.7,0.8,1.7,1.7l0,0
			C128.8,843.5,128,844.3,127.1,844.3z"/>
		<path class="st8" d="M129,854.4H76.4c-0.9,0-1.7-0.8-1.7-1.7l0,0c0-0.9,0.8-1.7,1.7-1.7H129c0.9,0,1.7,0.8,1.7,1.7l0,0
			C130.7,853.7,130,854.4,129,854.4z"/>
		<path class="st8" d="M131,864.6H74.5c-0.9,0-1.7-0.8-1.7-1.7l0,0c0-0.9,0.8-1.7,1.7-1.7H131c0.9,0,1.7,0.8,1.7,1.7l0,0
			C132.7,863.8,131.9,864.6,131,864.6z"/>
	</g>
	<polygon class="st4" points="190.3,810.3 190.2,810.5 190.3,810.3 	"/>
	<g>
		<rect x="179.1" y="873.2" class="st3" width="104.8" height="18.8"/>
		<polygon class="st4" points="247.8,810.5 247.7,810.3 247.8,810.3 		"/>
		<path class="st5" d="M204.2,814.4l10.8-3.5v0l-10.8,18.7L193.7,795c-0.6-1.6-0.7-3.5-0.4-5.2l1.2-6.5c0.7-3.5,1.5-5.9,4.1-5.9h5
			c2.5,0,4.7,2.2,5.5,5.5l0.8,3.4c0,0,0,0.1,0,0.1l5.4,23.9l0.5,0.2l0.5,0.3v53.6h32v-54h-0.5h0.1l-0.1-0.1l4.4-19.5l1-4.4
			c0,0,0-0.1,0-0.1l0.8-3.3c0.7-3.3,3-5.5,5.5-5.5h2.8c2.7,0,5.1,2.6,5.6,6.3l0.9,6.3c0.2,1.6,0.1,3.3-0.4,4.8l-9.6,19.4l25.2,59
			c0,0-20.6,5.1-52.4,5.1s-52.4-5.1-52.4-5.1L204.2,814.4z"/>
		<path class="st6" d="M214.8,777.4h16.7h16.7c3.4,0,5.7,4.4,4.8,8.9l-5.3,24l0.1,0.1h-0.3l10.1,53.2c0,0-12.8,9.6-26.2,9.6
			s-26.6-9.6-26.6-9.6l10.1-53.2h0.2l0-0.1l-5.4-24C208.9,781.8,211.4,777.4,214.8,777.4z"/>
		<g>
			<path id="path2987_1_" inkscape:connector-curvature="0" class="st7" d="M221.9,796.5c0,0,1.4-5.1,1.5-5.1c0,0,1.9,0,2,0
				c0,0-0.2,0.8-0.5,1.8s-0.5,1.7-0.5,1.8c0,0.1,0.6,0.1,0.7,0c0-0.1,1.2-4.2,1.2-4.2c0,0-0.6,0-1.3,0c-0.7,0-1.3,0-1.3,0
				c0,0,0.3-1,0.6-2.2l0.6-2.2l2.3,0c1.3,0,2.4,0,2.4,0c0,0-0.4,1.4-0.8,3c-0.5,1.6-1.1,3.9-1.5,5.1c-0.3,1.1-0.6,2.1-0.6,2.1
				c0,0.1-0.2,0.1-2.4,0.1C223,796.6,222,796.5,221.9,796.5L221.9,796.5z M226.8,789c0,0,0.3-1.1,0.3-1.1c0,0,0-0.1-0.3-0.1
				c-0.2,0-0.3,0-0.4,0c0,0-0.3,1.1-0.3,1.1c0,0,0,0.1,0.3,0.1C226.7,789.1,226.8,789.1,226.8,789L226.8,789z M228.9,790.6
				c0,0,0.3-1,0.6-2.2l0.6-2.2l1,0c0.5,0,1,0,1,0c0,0-0.1,0.6-0.4,1.4c-0.2,0.7-0.4,1.4-0.4,1.4c0,0,0,0.1,0.4,0l0.4,0l0.4-1.4
				c0.2-0.7,0.4-1.4,0.4-1.4c0,0,1.9-0.1,1.9,0c0,0-0.3,1-0.6,2.2l-0.6,2.2l-2.4,0C230,790.7,228.9,790.6,228.9,790.6L228.9,790.6z
				 M234.1,790.6c0,0,0.3-1,0.6-2.2l0.6-2.2l2.3,0c1.3,0,2.4,0,2.4,0c0,0-0.3,1-0.6,2.2l-0.6,2.2l-1,0c-0.5,0-1,0-1,0
				c0,0,0.1-0.6,0.4-1.4c0.2-0.7,0.4-1.4,0.4-1.4c0,0,0-0.1-0.4,0l-0.4,0l-0.4,1.4c-0.2,0.7-0.4,1.4-0.4,1.4
				C236,790.7,234.1,790.7,234.1,790.6L234.1,790.6z M240,789.2c-0.1-0.1-0.1-0.2,0-0.7c0.1-0.3,0.1-0.5,0.2-0.5
				c0.2-0.2,0.5-0.1,0.5,0.1c0,0.2-0.2,1-0.3,1.1C240.2,789.3,240.1,789.3,240,789.2L240,789.2z"/>
			<path id="path2989-1_1_" inkscape:connector-curvature="0" class="st7" d="M229.7,791.1c-0.3,0-0.5,0-0.7,0.2
				c-0.3,0.3-0.4,0.8-0.2,1.2c0.2,0.4,0.6,0.5,0.8,0.6c-0.5-0.4-0.3-1.2,0.2-1.5h0.4c0.9,0,0.9-0.1,0.9,0.5h0c0-0.9,0-1-0.8-1
				C230,791.1,229.8,791.1,229.7,791.1L229.7,791.1z M231.2,792.9c-0.1,0.6-0.4,0.6-1.1,0.6c0,0,0,0,0,0h-2.1l-0.2,0.6h2.1h0
				C230.8,794.2,231.1,793.6,231.2,792.9L231.2,792.9z"/>
		</g>
		<path class="st8" d="M212.6,813.9h37.5c0.9,0,1.7-0.8,1.7-1.7l0,0c0-0.9-0.8-1.7-1.7-1.7h-37.5c-0.9,0-1.7,0.8-1.7,1.7l0,0
			C210.9,813.1,211.6,813.9,212.6,813.9z"/>
		<path class="st8" d="M210.9,824h40.8c0.9,0,1.7-0.8,1.7-1.7l0,0c0-0.9-0.8-1.7-1.7-1.7h-40.8c-0.9,0-1.7,0.8-1.7,1.7l0,0
			C209.2,823.3,210,824,210.9,824z"/>
		<path class="st8" d="M208.9,834.2h44.8c0.9,0,1.7-0.8,1.7-1.7l0,0c0-0.9-0.8-1.7-1.7-1.7h-44.8c-0.9,0-1.7,0.8-1.7,1.7l0,0
			C207.2,833.4,208,834.2,208.9,834.2z"/>
		<path class="st8" d="M206.9,844.3h48.8c0.9,0,1.7-0.8,1.7-1.7l0,0c0-0.9-0.8-1.7-1.7-1.7h-48.8c-0.9,0-1.7,0.8-1.7,1.7l0,0
			C205.2,843.5,206,844.3,206.9,844.3z"/>
		<path class="st8" d="M205,854.4h52.6c0.9,0,1.7-0.8,1.7-1.7l0,0c0-0.9-0.8-1.7-1.7-1.7H205c-0.9,0-1.7,0.8-1.7,1.7l0,0
			C203.3,853.7,204.1,854.4,205,854.4z"/>
		<path class="st8" d="M203,864.6h56.5c0.9,0,1.7-0.8,1.7-1.7l0,0c0-0.9-0.8-1.7-1.7-1.7H203c-0.9,0-1.7,0.8-1.7,1.7l0,0
			C201.4,863.8,202.1,864.6,203,864.6z"/>
	</g>
	<g>
		<polygon class="st9" points="229.2,393.4 93.6,393.4 73.6,607.4 161.6,607.4 165.2,531.9 169.2,607.4 257.2,607.4 237.2,393.4 		
			"/>
		<polygon class="st10" points="246.4,393.4 246.2,393.4 267.6,607.4 		"/>
		<polygon class="st10" points="246.2,393.4 237.2,393.4 257.2,607.4 267.6,607.4 		"/>
		<polygon class="st10" points="84.4,393.4 63.2,607.4 84.6,393.4 		"/>
		<polygon class="st10" points="84.6,393.4 63.2,607.4 73.6,607.4 93.6,393.4 		"/>
	</g>
	<path class="st9" d="M258.8,254.4c-9.9-31.8-10.3-19.5-1.2-51.4l-41.1-11.6h-3.2l-7,38.4c-3.2,18.1-17.4,32.8-35.7,34.8
		c-3.3,0.4-6.7,0.2-10-0.2c-18.3-2-32.5-16.5-35.7-34.6l-7-38.5h-3.2l-41.1,11.3c9.1,32,8.7,21-1.2,52.8l-2.5,7.3l4.1,34.7
		l-0.4,70.5l-0.5,39.5l-1.6,71.8h39.4h18.3h36.3h91.1l0.5-182.2l4.1-34.2L258.8,254.4z"/>
	<path class="st10" d="M73.3,364.6c18.8,30.1,32.4,69.8,37.8,114.8h18.3c-6.6-63-27-117.4-55.6-154.3L73.3,364.6z"/>
	<path class="st10" d="M257.4,364.6c-18.8,30.1-32.4,69.8-37.8,114.8h-18.3c6.6-63,27-117.4,55.6-154.3L257.4,364.6z"/>
	<g>
		<path class="st11" d="M217.7,125.3l-3.2-15.6l-3.8-7l5.3,64l-25.8,12.8h-44.4l-25.9-12.6l6.9-63.7l-5,6.6l-3.3,15.6
			c0.1,0,0.1,0,0.2,0l-3.9,39.7c-0.3,3.2,1.4,6.2,4.2,7.6l24.6,12.1c1,0.5,2.2,0.8,3.4,0.8h42.3c1.2,0,2.3-0.3,3.3-0.8l24.8-12.1
			c1.9-0.9,3.3-2.6,3.9-4.5l0.3-3.1L217.7,125.3z"/>
		<path class="st12" d="M234.2,61.3c-4.6-10.4-10.1-35.7-19.5-38.2c-9.4-2.5-22.3-23-41.3-23s-44.3,12.9-46.3,19
			c-2,6.1-9.4,4.1-16,12.7c-6.6,8.6-19.2,32.7-14.9,41.8c2.9,6.2,8.2,16.4,12.1,23c1.2-2.2,3.5-3.7,6.3-3.7c3.2,0,5.7,2,6.7,4.8
			l0.5,12.1l5-7.1l1.3-17l40,2.5l40.3-2.5l2.3,17l3.8,7.1c0,0,0,0,0.1-0.1l0.3-12c1-2.8,3.6-4.8,6.7-4.8c1.1,0,2.1,0.2,3.1,0.7
			C224.8,88.4,238.8,71.7,234.2,61.3z"/>
		<path class="st1" d="M228.2,102.7v-2.6c0-4.1-2.8-7.4-6.9-7.4c-3.2,0-5.6,2-6.6,4.8l-0.4-4.8c0-25.6-20.7-46.3-46.3-46.3
			s-46.3,20.8-46.3,46.3l-0.5,4.8c-1-2.8-4.1-4.8-7.3-4.8c-4.1,0-7.8,3.3-7.8,7.4v2.6c0,6.6,5.2,21,11.6,22.5c0.1,0,0.4,0,0.5,0
			l-3.8,39.7c-0.3,3.2,1.4,6.2,4.3,7.6l24.6,12.1c1,0.5,2.2,0.8,3.4,0.8h42.3c1.2,0,2.3-0.3,3.3-0.8l24.8-12.1
			c1.9-0.9,3.3-2.6,3.9-4.5c0.3-1,0.4-2,0.3-3.1l-4.2-39.7C223.8,123.9,228.2,109.3,228.2,102.7z"/>
	</g>
	<g>
		<g>
			<path class="st13" d="M96.2,300.1c3-1,6.1-1.9,9.2-2.7c5.9-1.6,10.1-2.3,12.3-2.3c2.2,0,4,0.4,5.2,1.2c1.3,0.8,2.2,1.8,2.7,3
				c0.5,1.2,1.1,3.7,1.8,7.3c0.8,4.5,1.7,9.1,2.5,13.6c0.6,3.5,0.9,5.9,0.8,7.1c-0.1,1.2-0.5,2.3-1.3,3.1c-0.7,0.8-1.6,1.5-2.8,2
				c-1.2,0.5-3,1.1-5.4,1.7c-4.3,1.1-8.6,2.3-12.8,3.6C104.3,325.2,100.2,312.6,96.2,300.1z M110.2,303c2.2,8.4,4.4,16.8,6.6,25.2
				c1.5-0.4,2.4-0.9,2.6-1.6c0.2-0.7,0-2.3-0.6-4.8c-1.2-5-2.4-10-3.6-14.9c-0.4-1.7-0.8-2.8-1-3.3c-0.3-0.5-0.6-0.7-1.2-0.9
				C112.4,302.6,111.5,302.7,110.2,303z"/>
			<path class="st13" d="M159.2,289.2c2.8,13.1,5.2,26.3,7.1,39.4c-3.6,0-7.1,0.1-10.7,0.3c-0.3-2.4-0.6-4.7-1-7.1
				c-1.3,0.1-2.6,0.2-3.9,0.3c0,2.4-0.1,4.8-0.1,7.1c-3.6,0.3-7.2,0.7-10.7,1.2c0-13.3,0.3-26.6,1-40
				C147,289.8,153.1,289.4,159.2,289.2z M154,314.9c-0.8-4.4-1.8-9.9-2.8-16.5c-0.7,7.6-1,13.2-1,16.7
				C151.4,315.1,152.7,315,154,314.9z"/>
			<path class="st13" d="M198.5,291.5c-0.4,2.6-0.8,5.2-1.1,7.8c-2.4-0.3-4.8-0.7-7.2-0.9c-1.2,10.5-2.3,21-3.5,31.4
				c-3.5-0.4-6.9-0.7-10.4-0.9c0.6-10.5,1.2-21.1,1.8-31.6c-2.4-0.1-4.8-0.2-7.2-0.3c0.1-2.6,0.1-5.3,0.2-7.9
				C180.2,289.4,189.4,290.2,198.5,291.5z"/>
			<path class="st13" d="M228.3,297.9c-1.3,13.3-3,26.6-5.1,39.8c-3.4-1.1-6.9-2.1-10.4-3c0.4-2.3,0.8-4.7,1.2-7
				c-1.3-0.3-2.5-0.6-3.8-0.9c-0.8,2.3-1.5,4.5-2.2,6.8c-3.5-0.8-7.1-1.5-10.6-2.1c4-12.7,8.3-25.3,13-37.8
				C216.4,294.8,222.4,296.2,228.3,297.9z M215.5,320.8c0.5-4.5,1.3-10,2.3-16.5c-3,7.1-5,12.3-6.1,15.6
				C213,320.2,214.2,320.5,215.5,320.8z"/>
		</g>
	</g>
</g>
</svg>
