<!-- Generator: Adobe Illustrator 19.2.1, SVG Export Plug-In  -->
<svg version="1.1"
	 xmlns="http://www.w3.org/2000/svg" xmlns:xlink="http://www.w3.org/1999/xlink" xmlns:a="http://ns.adobe.com/AdobeSVGViewerExtensions/3.0/"
	 x="0px" y="0px" width="4694.2px" height="816.6px" viewBox="0 0 4694.2 816.6" style="enable-background:new 0 0 4694.2 816.6;"
	 xml:space="preserve">
<style type="text/css">
	.st0{fill:#666666;}
	.st1{fill:none;}
	.st2{fill:#B64921;}
	.st3{fill:#999999;}
	.st4{fill:#CCCCCC;}
	.st5{clip-path:url(#SVGID_2_);fill:#624373;}
	.st6{clip-path:url(#SVGID_2_);}
	.st7{fill:#F3622C;}
	.st8{fill:#624373;}
	.st9{fill:none;stroke:#624373;stroke-width:5.8319;stroke-miterlimit:10;}
	.st10{opacity:0.95;fill:#FFFFFF;enable-background:new    ;}
	.st11{fill:#F2E9D6;}
	.st12{fill:#EF7752;}
	.st13{fill:#E6EDED;}
	.st14{fill:#F15A24;}
	.st15{clip-path:url(#SVGID_4_);fill:#624373;}
	.st16{clip-path:url(#SVGID_4_);}
</style>
<defs>
</defs>
<g>
	<path class="st0" d="M1900.4,178.4h-1.9c-0.1-0.5-0.2-1.1-0.2-1.8c0-0.7,0-1.5,0.2-2c0,0,0,0,0-0.1c2.2-1.4,3.6-3.8,3.6-6.6
		c0-4.4-3.5-7.9-7.9-7.9c-4.4,0-7.9,3.5-7.9,7.9c0,2.8,1.4,5.2,3.6,6.6c0,0,0,0,0,0.1c0.2,0.5,0.3,1.3,0.2,2c0,0.6-0.1,1.2-0.2,1.8
		h-1.9c-4.5,0-8.2,3.7-8.2,8.2v13.9h28.9v-13.9C1908.6,182,1904.9,178.4,1900.4,178.4z"/>
	<path class="st0" d="M1850.2,178.4h-1.9c-0.1-0.5-0.2-1.1-0.2-1.8c0-0.7,0-1.5,0.2-2c0,0,0,0,0-0.1c2.2-1.4,3.6-3.8,3.6-6.6
		c0-4.4-3.5-7.9-7.9-7.9s-7.9,3.5-7.9,7.9c0,2.8,1.4,5.2,3.6,6.6c0,0,0,0,0,0.1c0.2,0.5,0.3,1.3,0.2,2c0,0.6-0.1,1.2-0.2,1.8h-1.9
		c-4.5,0-8.2,3.7-8.2,8.2v13.9h28.9v-13.9C1858.4,182,1854.7,178.4,1850.2,178.4z"/>
	<path class="st0" d="M1950.5,178.4h-1.9c-0.1-0.5-0.2-1.1-0.2-1.8c0-0.7,0-1.5,0.2-2c0,0,0,0,0-0.1c2.2-1.4,3.6-3.8,3.6-6.6
		c0-4.4-3.5-7.9-7.9-7.9c-4.4,0-7.9,3.5-7.9,7.9c0,2.8,1.4,5.2,3.6,6.6c0,0,0,0,0,0.1c0.2,0.5,0.3,1.3,0.2,2c0,0.6-0.1,1.2-0.2,1.8
		h-1.9c-4.5,0-8.2,3.7-8.2,8.2v13.9h28.9v-13.9C1958.7,182,1955.1,178.4,1950.5,178.4z"/>
	<path class="st0" d="M2000.7,178.4h-1.9c-0.1-0.5-0.2-1.1-0.2-1.8c0-0.7,0-1.5,0.2-2c0,0,0,0,0-0.1c2.2-1.4,3.6-3.8,3.6-6.6
		c0-4.4-3.5-7.9-7.9-7.9c-4.4,0-7.9,3.5-7.9,7.9c0,2.8,1.4,5.2,3.6,6.6c0,0,0,0,0,0.1c0.2,0.5,0.3,1.3,0.2,2c0,0.6-0.1,1.2-0.2,1.8
		h-1.9c-4.5,0-8.2,3.7-8.2,8.2v13.9h28.9v-13.9C2008.9,182,2005.3,178.4,2000.7,178.4z"/>
	<path class="st0" d="M2050.9,178.4h-1.9c-0.1-0.5-0.2-1.1-0.2-1.8c0-0.7,0-1.5,0.2-2c0,0,0,0,0-0.1c2.2-1.4,3.6-3.8,3.6-6.6
		c0-4.4-3.5-7.9-7.9-7.9c-4.4,0-7.9,3.5-7.9,7.9c0,2.8,1.4,5.2,3.6,6.6c0,0,0,0,0,0.1c0.2,0.5,0.3,1.3,0.2,2c0,0.6-0.1,1.2-0.2,1.8
		h-1.9c-4.5,0-8.2,3.7-8.2,8.2v13.9h28.9v-13.9C2059.1,182,2055.4,178.4,2050.9,178.4z"/>
	<path class="st0" d="M2101.1,178.4h-1.9c-0.1-0.5-0.2-1.1-0.2-1.8c0-0.7,0-1.5,0.2-2c0,0,0,0,0-0.1c2.2-1.4,3.6-3.8,3.6-6.6
		c0-4.4-3.5-7.9-7.9-7.9c-4.4,0-7.9,3.5-7.9,7.9c0,2.8,1.4,5.2,3.6,6.6c0,0,0,0,0,0.1c0.2,0.5,0.3,1.3,0.2,2c0,0.6-0.1,1.2-0.2,1.8
		h-1.9c-4.5,0-8.2,3.7-8.2,8.2v13.9h28.9v-13.9C2109.3,182,2105.6,178.4,2101.1,178.4z"/>
	<path class="st0" d="M2151.3,178.4h-1.9c-0.1-0.5-0.2-1.1-0.2-1.8c0-0.7,0-1.5,0.2-2c0,0,0,0,0-0.1c2.2-1.4,3.6-3.8,3.6-6.6
		c0-4.4-3.5-7.9-7.9-7.9c-4.4,0-7.9,3.5-7.9,7.9c0,2.8,1.4,5.2,3.6,6.6c0,0,0,0,0,0.1c0.2,0.5,0.3,1.3,0.2,2c0,0.6-0.1,1.2-0.2,1.8
		h-1.9c-4.5,0-8.2,3.7-8.2,8.2v13.9h28.9v-13.9C2159.5,182,2155.8,178.4,2151.3,178.4z"/>
	<path class="st0" d="M2201.4,178.4h-1.9c-0.1-0.5-0.2-1.1-0.2-1.8c0-0.7,0-1.5,0.2-2c0,0,0,0,0-0.1c2.2-1.4,3.6-3.8,3.6-6.6
		c0-4.4-3.5-7.9-7.9-7.9s-7.9,3.5-7.9,7.9c0,2.8,1.4,5.2,3.6,6.6c0,0,0,0,0,0.1c0.2,0.5,0.3,1.3,0.2,2c0,0.6-0.1,1.2-0.2,1.8h-1.9
		c-4.5,0-8.2,3.7-8.2,8.2v13.9h28.9v-13.9C2209.7,182,2206,178.4,2201.4,178.4z"/>
	<path class="st0" d="M2251.6,178.4h-1.9c-0.1-0.5-0.2-1.1-0.2-1.8c0-0.7,0-1.5,0.2-2c0,0,0,0,0-0.1c2.2-1.4,3.6-3.8,3.6-6.6
		c0-4.4-3.5-7.9-7.9-7.9c-4.4,0-7.9,3.5-7.9,7.9c0,2.8,1.4,5.2,3.6,6.6c0,0,0,0,0,0.1c0.2,0.5,0.3,1.3,0.2,2c0,0.6-0.1,1.2-0.2,1.8
		h-1.9c-4.5,0-8.2,3.7-8.2,8.2v13.9h28.9v-13.9C2259.8,182,2256.2,178.4,2251.6,178.4z"/>
	<path class="st0" d="M2301.8,178.4h-1.9c-0.1-0.5-0.2-1.1-0.2-1.8c0-0.7,0-1.5,0.2-2c0,0,0,0,0-0.1c2.2-1.4,3.6-3.8,3.6-6.6
		c0-4.4-3.5-7.9-7.9-7.9c-4.4,0-7.9,3.5-7.9,7.9c0,2.8,1.4,5.2,3.6,6.6c0,0,0,0,0,0.1c0.2,0.5,0.3,1.3,0.2,2c0,0.6-0.1,1.2-0.2,1.8
		h-1.9c-4.5,0-8.2,3.7-8.2,8.2v13.9h28.9v-13.9C2310,182,2306.3,178.4,2301.8,178.4z"/>
	<path class="st0" d="M2352,178.4h-1.9c-0.1-0.5-0.2-1.1-0.2-1.8c0-0.7,0-1.5,0.2-2c0,0,0,0,0-0.1c2.2-1.4,3.6-3.8,3.6-6.6
		c0-4.4-3.5-7.9-7.9-7.9c-4.4,0-7.9,3.5-7.9,7.9c0,2.8,1.4,5.2,3.6,6.6c0,0,0,0,0,0.1c0.2,0.5,0.3,1.3,0.2,2c0,0.6-0.1,1.2-0.2,1.8
		h-1.9c-4.5,0-8.2,3.7-8.2,8.2v13.9h28.9v-13.9C2360.2,182,2356.5,178.4,2352,178.4z"/>
	<path class="st0" d="M2402.2,178.4h-1.9c-0.1-0.5-0.2-1.1-0.2-1.8c0-0.7,0-1.5,0.2-2c0,0,0,0,0-0.1c2.2-1.4,3.6-3.8,3.6-6.6
		c0-4.4-3.5-7.9-7.9-7.9s-7.9,3.5-7.9,7.9c0,2.8,1.4,5.2,3.6,6.6c0,0,0,0,0,0.1c0.2,0.5,0.3,1.3,0.2,2c0,0.6-0.1,1.2-0.2,1.8h-1.9
		c-4.5,0-8.2,3.7-8.2,8.2v13.9h28.9v-13.9C2410.4,182,2406.7,178.4,2402.2,178.4z"/>
	<path class="st0" d="M2452.3,178.4h-1.9c-0.1-0.5-0.2-1.1-0.2-1.8c0-0.7,0-1.5,0.2-2c0,0,0,0,0-0.1c2.2-1.4,3.6-3.8,3.6-6.6
		c0-4.4-3.5-7.9-7.9-7.9s-7.9,3.5-7.9,7.9c0,2.8,1.4,5.2,3.6,6.6c0,0,0,0,0,0.1c0.2,0.5,0.3,1.3,0.2,2c0,0.6-0.1,1.2-0.2,1.8h-1.9
		c-4.5,0-8.2,3.7-8.2,8.2v13.9h28.9v-13.9C2460.6,182,2456.9,178.4,2452.3,178.4z"/>
	<path class="st0" d="M2502.5,178.4h-1.9c-0.1-0.5-0.2-1.1-0.2-1.8c0-0.7,0-1.5,0.2-2c0,0,0,0,0-0.1c2.2-1.4,3.6-3.8,3.6-6.6
		c0-4.4-3.5-7.9-7.9-7.9c-4.4,0-7.9,3.5-7.9,7.9c0,2.8,1.4,5.2,3.6,6.6c0,0,0,0,0,0.1c0.2,0.5,0.3,1.3,0.2,2c0,0.6-0.1,1.2-0.2,1.8
		h-1.9c-4.5,0-8.2,3.7-8.2,8.2v13.9h28.9v-13.9C2510.7,182,2507.1,178.4,2502.5,178.4z"/>
	<path class="st0" d="M2552.7,179.6h-1.9c-0.1-0.5-0.2-1.1-0.2-1.8c0-0.7,0-1.5,0.2-2c0,0,0,0,0-0.1c2.2-1.4,3.6-3.8,3.6-6.6
		c0-4.4-3.5-7.9-7.9-7.9c-4.4,0-7.9,3.5-7.9,7.9c0,2.8,1.4,5.2,3.6,6.6c0,0,0,0,0,0.1c0.2,0.5,0.3,1.3,0.2,2c0,0.6-0.1,1.2-0.2,1.8
		h-1.9c-4.5,0-8.2,3.7-8.2,8.2v13.9h28.9v-13.9C2560.9,183.2,2557.2,179.6,2552.7,179.6z"/>
	<path class="st0" d="M2602.9,179.6h-1.9c-0.1-0.5-0.2-1.1-0.2-1.8c0-0.7,0-1.5,0.2-2c0,0,0,0,0-0.1c2.2-1.4,3.6-3.8,3.6-6.6
		c0-4.4-3.5-7.9-7.9-7.9c-4.4,0-7.9,3.5-7.9,7.9c0,2.8,1.4,5.2,3.6,6.6c0,0,0,0,0,0.1c0.2,0.5,0.3,1.3,0.2,2c0,0.6-0.1,1.2-0.2,1.8
		h-1.9c-4.5,0-8.2,3.7-8.2,8.2v13.9h28.9v-13.9C2611.1,183.2,2607.4,179.6,2602.9,179.6z"/>
	<path class="st0" d="M2653.1,179.6h-1.9c-0.1-0.5-0.2-1.1-0.2-1.8c0-0.7,0-1.5,0.2-2c0,0,0,0,0-0.1c2.2-1.4,3.6-3.8,3.6-6.6
		c0-4.4-3.5-7.9-7.9-7.9s-7.9,3.5-7.9,7.9c0,2.8,1.4,5.2,3.6,6.6c0,0,0,0,0,0.1c0.2,0.5,0.3,1.3,0.2,2c0,0.6-0.1,1.2-0.2,1.8h-1.9
		c-4.5,0-8.2,3.7-8.2,8.2v13.9h28.9v-13.9C2661.3,183.2,2657.6,179.6,2653.1,179.6z"/>
	<path class="st0" d="M2703.3,179.6h-1.9c-0.1-0.5-0.2-1.1-0.2-1.8c0-0.7,0-1.5,0.2-2c0,0,0,0,0-0.1c2.2-1.4,3.6-3.8,3.6-6.6
		c0-4.4-3.5-7.9-7.9-7.9s-7.9,3.5-7.9,7.9c0,2.8,1.4,5.2,3.6,6.6c0,0,0,0,0,0.1c0.2,0.5,0.3,1.3,0.2,2c0,0.6-0.1,1.2-0.2,1.8h-1.9
		c-4.5,0-8.2,3.7-8.2,8.2v13.9h28.9v-13.9C2711.5,183.2,2707.8,179.6,2703.3,179.6z"/>
	<path class="st0" d="M2753.4,179.6h-1.9c-0.1-0.5-0.2-1.1-0.2-1.8c0-0.7,0-1.5,0.2-2c0,0,0,0,0-0.1c2.2-1.4,3.6-3.8,3.6-6.6
		c0-4.4-3.5-7.9-7.9-7.9c-4.4,0-7.9,3.5-7.9,7.9c0,2.8,1.4,5.2,3.6,6.6c0,0,0,0,0,0.1c0.2,0.5,0.3,1.3,0.2,2c0,0.6-0.1,1.2-0.2,1.8
		h-1.9c-4.5,0-8.2,3.7-8.2,8.2v13.9h28.9v-13.9C2761.6,183.2,2758,179.6,2753.4,179.6z"/>
	<path class="st0" d="M2803.6,179.6h-1.9c-0.1-0.5-0.2-1.1-0.2-1.8c0-0.7,0-1.5,0.2-2c0,0,0,0,0-0.1c2.2-1.4,3.6-3.8,3.6-6.6
		c0-4.4-3.5-7.9-7.9-7.9c-4.4,0-7.9,3.5-7.9,7.9c0,2.8,1.4,5.2,3.6,6.6c0,0,0,0,0,0.1c0.2,0.5,0.3,1.3,0.2,2c0,0.6-0.1,1.2-0.2,1.8
		h-1.9c-4.5,0-8.2,3.7-8.2,8.2v13.9h28.9v-13.9C2811.8,183.2,2808.2,179.6,2803.6,179.6z"/>
	<path class="st0" d="M2853.8,179.6h-1.9c-0.1-0.5-0.2-1.1-0.2-1.8c0-0.7,0-1.5,0.2-2c0,0,0,0,0-0.1c2.2-1.4,3.6-3.8,3.6-6.6
		c0-4.4-3.5-7.9-7.9-7.9c-4.4,0-7.9,3.5-7.9,7.9c0,2.8,1.4,5.2,3.6,6.6c0,0,0,0,0,0.1c0.2,0.5,0.3,1.3,0.2,2c0,0.6-0.1,1.2-0.2,1.8
		h-1.9c-4.5,0-8.2,3.7-8.2,8.2v13.9h28.9v-13.9C2862,183.2,2858.3,179.6,2853.8,179.6z"/>
</g>
<g>
	<path class="st0" d="M1900.4,18.4h-1.9c-0.1-0.5-0.2-1.1-0.2-1.8c0-0.7,0-1.5,0.2-2c0,0,0,0,0-0.1c2.2-1.4,3.6-3.8,3.6-6.6
		c0-4.4-3.5-7.9-7.9-7.9c-4.4,0-7.9,3.5-7.9,7.9c0,2.8,1.4,5.2,3.6,6.6c0,0,0,0,0,0.1c0.2,0.5,0.3,1.3,0.2,2c0,0.6-0.1,1.2-0.2,1.8
		h-1.9c-4.5,0-8.2,3.7-8.2,8.2v13.9h28.9V26.6C1908.6,22,1904.9,18.4,1900.4,18.4z"/>
	<path class="st0" d="M1850.2,18.4h-1.9c-0.1-0.5-0.2-1.1-0.2-1.8c0-0.7,0-1.5,0.2-2c0,0,0,0,0-0.1c2.2-1.4,3.6-3.8,3.6-6.6
		c0-4.4-3.5-7.9-7.9-7.9s-7.9,3.5-7.9,7.9c0,2.8,1.4,5.2,3.6,6.6c0,0,0,0,0,0.1c0.2,0.5,0.3,1.3,0.2,2c0,0.6-0.1,1.2-0.2,1.8h-1.9
		c-4.5,0-8.2,3.7-8.2,8.2v13.9h28.9V26.6C1858.4,22,1854.7,18.4,1850.2,18.4z"/>
	<path class="st0" d="M1950.5,18.4h-1.9c-0.1-0.5-0.2-1.1-0.2-1.8c0-0.7,0-1.5,0.2-2c0,0,0,0,0-0.1c2.2-1.4,3.6-3.8,3.6-6.6
		c0-4.4-3.5-7.9-7.9-7.9c-4.4,0-7.9,3.5-7.9,7.9c0,2.8,1.4,5.2,3.6,6.6c0,0,0,0,0,0.1c0.2,0.5,0.3,1.3,0.2,2c0,0.6-0.1,1.2-0.2,1.8
		h-1.9c-4.5,0-8.2,3.7-8.2,8.2v13.9h28.9V26.6C1958.7,22,1955.1,18.4,1950.5,18.4z"/>
	<path class="st0" d="M2000.7,18.4h-1.9c-0.1-0.5-0.2-1.1-0.2-1.8c0-0.7,0-1.5,0.2-2c0,0,0,0,0-0.1c2.2-1.4,3.6-3.8,3.6-6.6
		c0-4.4-3.5-7.9-7.9-7.9c-4.4,0-7.9,3.5-7.9,7.9c0,2.8,1.4,5.2,3.6,6.6c0,0,0,0,0,0.1c0.2,0.5,0.3,1.3,0.2,2c0,0.6-0.1,1.2-0.2,1.8
		h-1.9c-4.5,0-8.2,3.7-8.2,8.2v13.9h28.9V26.6C2008.9,22,2005.3,18.4,2000.7,18.4z"/>
	<path class="st0" d="M2050.9,18.4h-1.9c-0.1-0.5-0.2-1.1-0.2-1.8c0-0.7,0-1.5,0.2-2c0,0,0,0,0-0.1c2.2-1.4,3.6-3.8,3.6-6.6
		c0-4.4-3.5-7.9-7.9-7.9c-4.4,0-7.9,3.5-7.9,7.9c0,2.8,1.4,5.2,3.6,6.6c0,0,0,0,0,0.1c0.2,0.5,0.3,1.3,0.2,2c0,0.6-0.1,1.2-0.2,1.8
		h-1.9c-4.5,0-8.2,3.7-8.2,8.2v13.9h28.9V26.6C2059.1,22,2055.4,18.4,2050.9,18.4z"/>
	<path class="st0" d="M2101.1,18.4h-1.9c-0.1-0.5-0.2-1.1-0.2-1.8c0-0.7,0-1.5,0.2-2c0,0,0,0,0-0.1c2.2-1.4,3.6-3.8,3.6-6.6
		c0-4.4-3.5-7.9-7.9-7.9c-4.4,0-7.9,3.5-7.9,7.9c0,2.8,1.4,5.2,3.6,6.6c0,0,0,0,0,0.1c0.2,0.5,0.3,1.3,0.2,2c0,0.6-0.1,1.2-0.2,1.8
		h-1.9c-4.5,0-8.2,3.7-8.2,8.2v13.9h28.9V26.6C2109.3,22,2105.6,18.4,2101.1,18.4z"/>
	<path class="st0" d="M2151.3,18.4h-1.9c-0.1-0.5-0.2-1.1-0.2-1.8c0-0.7,0-1.5,0.2-2c0,0,0,0,0-0.1c2.2-1.4,3.6-3.8,3.6-6.6
		c0-4.4-3.5-7.9-7.9-7.9c-4.4,0-7.9,3.5-7.9,7.9c0,2.8,1.4,5.2,3.6,6.6c0,0,0,0,0,0.1c0.2,0.5,0.3,1.3,0.2,2c0,0.6-0.1,1.2-0.2,1.8
		h-1.9c-4.5,0-8.2,3.7-8.2,8.2v13.9h28.9V26.6C2159.5,22,2155.8,18.4,2151.3,18.4z"/>
	<path class="st0" d="M2201.4,18.4h-1.9c-0.1-0.5-0.2-1.1-0.2-1.8c0-0.7,0-1.5,0.2-2c0,0,0,0,0-0.1c2.2-1.4,3.6-3.8,3.6-6.6
		c0-4.4-3.5-7.9-7.9-7.9s-7.9,3.5-7.9,7.9c0,2.8,1.4,5.2,3.6,6.6c0,0,0,0,0,0.1c0.2,0.5,0.3,1.3,0.2,2c0,0.6-0.1,1.2-0.2,1.8h-1.9
		c-4.5,0-8.2,3.7-8.2,8.2v13.9h28.9V26.6C2209.7,22,2206,18.4,2201.4,18.4z"/>
	<path class="st0" d="M2251.6,18.4h-1.9c-0.1-0.5-0.2-1.1-0.2-1.8c0-0.7,0-1.5,0.2-2c0,0,0,0,0-0.1c2.2-1.4,3.6-3.8,3.6-6.6
		c0-4.4-3.5-7.9-7.9-7.9c-4.4,0-7.9,3.5-7.9,7.9c0,2.8,1.4,5.2,3.6,6.6c0,0,0,0,0,0.1c0.2,0.5,0.3,1.3,0.2,2c0,0.6-0.1,1.2-0.2,1.8
		h-1.9c-4.5,0-8.2,3.7-8.2,8.2v13.9h28.9V26.6C2259.8,22,2256.2,18.4,2251.6,18.4z"/>
	<path class="st0" d="M2301.8,18.4h-1.9c-0.1-0.5-0.2-1.1-0.2-1.8c0-0.7,0-1.5,0.2-2c0,0,0,0,0-0.1c2.2-1.4,3.6-3.8,3.6-6.6
		c0-4.4-3.5-7.9-7.9-7.9c-4.4,0-7.9,3.5-7.9,7.9c0,2.8,1.4,5.2,3.6,6.6c0,0,0,0,0,0.1c0.2,0.5,0.3,1.3,0.2,2c0,0.6-0.1,1.2-0.2,1.8
		h-1.9c-4.5,0-8.2,3.7-8.2,8.2v13.9h28.9V26.6C2310,22,2306.3,18.4,2301.8,18.4z"/>
	<path class="st0" d="M2352,18.4h-1.9c-0.1-0.5-0.2-1.1-0.2-1.8c0-0.7,0-1.5,0.2-2c0,0,0,0,0-0.1c2.2-1.4,3.6-3.8,3.6-6.6
		c0-4.4-3.5-7.9-7.9-7.9c-4.4,0-7.9,3.5-7.9,7.9c0,2.8,1.4,5.2,3.6,6.6c0,0,0,0,0,0.1c0.2,0.5,0.3,1.3,0.2,2c0,0.6-0.1,1.2-0.2,1.8
		h-1.9c-4.5,0-8.2,3.7-8.2,8.2v13.9h28.9V26.6C2360.2,22,2356.5,18.4,2352,18.4z"/>
	<path class="st0" d="M2402.2,18.4h-1.9c-0.1-0.5-0.2-1.1-0.2-1.8c0-0.7,0-1.5,0.2-2c0,0,0,0,0-0.1c2.2-1.4,3.6-3.8,3.6-6.6
		c0-4.4-3.5-7.9-7.9-7.9s-7.9,3.5-7.9,7.9c0,2.8,1.4,5.2,3.6,6.6c0,0,0,0,0,0.1c0.2,0.5,0.3,1.3,0.2,2c0,0.6-0.1,1.2-0.2,1.8h-1.9
		c-4.5,0-8.2,3.7-8.2,8.2v13.9h28.9V26.6C2410.4,22,2406.7,18.4,2402.2,18.4z"/>
	<path class="st0" d="M2452.3,18.4h-1.9c-0.1-0.5-0.2-1.1-0.2-1.8c0-0.7,0-1.5,0.2-2c0,0,0,0,0-0.1c2.2-1.4,3.6-3.8,3.6-6.6
		c0-4.4-3.5-7.9-7.9-7.9s-7.9,3.5-7.9,7.9c0,2.8,1.4,5.2,3.6,6.6c0,0,0,0,0,0.1c0.2,0.5,0.3,1.3,0.2,2c0,0.6-0.1,1.2-0.2,1.8h-1.9
		c-4.5,0-8.2,3.7-8.2,8.2v13.9h28.9V26.6C2460.6,22,2456.9,18.4,2452.3,18.4z"/>
	<path class="st0" d="M2502.5,18.4h-1.9c-0.1-0.5-0.2-1.1-0.2-1.8c0-0.7,0-1.5,0.2-2c0,0,0,0,0-0.1c2.2-1.4,3.6-3.8,3.6-6.6
		c0-4.4-3.5-7.9-7.9-7.9c-4.4,0-7.9,3.5-7.9,7.9c0,2.8,1.4,5.2,3.6,6.6c0,0,0,0,0,0.1c0.2,0.5,0.3,1.3,0.2,2c0,0.6-0.1,1.2-0.2,1.8
		h-1.9c-4.5,0-8.2,3.7-8.2,8.2v13.9h28.9V26.6C2510.7,22,2507.1,18.4,2502.5,18.4z"/>
	<path class="st0" d="M2552.7,19.6h-1.9c-0.1-0.5-0.2-1.1-0.2-1.8c0-0.7,0-1.5,0.2-2c0,0,0,0,0-0.1c2.2-1.4,3.6-3.8,3.6-6.6
		c0-4.4-3.5-7.9-7.9-7.9c-4.4,0-7.9,3.5-7.9,7.9c0,2.8,1.4,5.2,3.6,6.6c0,0,0,0,0,0.1c0.2,0.5,0.3,1.3,0.2,2c0,0.6-0.1,1.2-0.2,1.8
		h-1.9c-4.5,0-8.2,3.7-8.2,8.2v13.9h28.9V27.8C2560.9,23.2,2557.2,19.6,2552.7,19.6z"/>
	<path class="st0" d="M2602.9,19.6h-1.9c-0.1-0.5-0.2-1.1-0.2-1.8c0-0.7,0-1.5,0.2-2c0,0,0,0,0-0.1c2.2-1.4,3.6-3.8,3.6-6.6
		c0-4.4-3.5-7.9-7.9-7.9c-4.4,0-7.9,3.5-7.9,7.9c0,2.8,1.4,5.2,3.6,6.6c0,0,0,0,0,0.1c0.2,0.5,0.3,1.3,0.2,2c0,0.6-0.1,1.2-0.2,1.8
		h-1.9c-4.5,0-8.2,3.7-8.2,8.2v13.9h28.9V27.8C2611.1,23.2,2607.4,19.6,2602.9,19.6z"/>
	<path class="st0" d="M2653.1,19.6h-1.9c-0.1-0.5-0.2-1.1-0.2-1.8c0-0.7,0-1.5,0.2-2c0,0,0,0,0-0.1c2.2-1.4,3.6-3.8,3.6-6.6
		c0-4.4-3.5-7.9-7.9-7.9s-7.9,3.5-7.9,7.9c0,2.8,1.4,5.2,3.6,6.6c0,0,0,0,0,0.1c0.2,0.5,0.3,1.3,0.2,2c0,0.6-0.1,1.2-0.2,1.8h-1.9
		c-4.5,0-8.2,3.7-8.2,8.2v13.9h28.9V27.8C2661.3,23.2,2657.6,19.6,2653.1,19.6z"/>
	<path class="st0" d="M2703.3,19.6h-1.9c-0.1-0.5-0.2-1.1-0.2-1.8c0-0.7,0-1.5,0.2-2c0,0,0,0,0-0.1c2.2-1.4,3.6-3.8,3.6-6.6
		c0-4.4-3.5-7.9-7.9-7.9s-7.9,3.5-7.9,7.9c0,2.8,1.4,5.2,3.6,6.6c0,0,0,0,0,0.1c0.2,0.5,0.3,1.3,0.2,2c0,0.6-0.1,1.2-0.2,1.8h-1.9
		c-4.5,0-8.2,3.7-8.2,8.2v13.9h28.9V27.8C2711.5,23.2,2707.8,19.6,2703.3,19.6z"/>
	<path class="st0" d="M2753.4,19.6h-1.9c-0.1-0.5-0.2-1.1-0.2-1.8c0-0.7,0-1.5,0.2-2c0,0,0,0,0-0.1c2.2-1.4,3.6-3.8,3.6-6.6
		c0-4.4-3.5-7.9-7.9-7.9c-4.4,0-7.9,3.5-7.9,7.9c0,2.8,1.4,5.2,3.6,6.6c0,0,0,0,0,0.1c0.2,0.5,0.3,1.3,0.2,2c0,0.6-0.1,1.2-0.2,1.8
		h-1.9c-4.5,0-8.2,3.7-8.2,8.2v13.9h28.9V27.8C2761.6,23.2,2758,19.6,2753.4,19.6z"/>
	<path class="st0" d="M2803.6,19.6h-1.9c-0.1-0.5-0.2-1.1-0.2-1.8c0-0.7,0-1.5,0.2-2c0,0,0,0,0-0.1c2.2-1.4,3.6-3.8,3.6-6.6
		c0-4.4-3.5-7.9-7.9-7.9c-4.4,0-7.9,3.5-7.9,7.9c0,2.8,1.4,5.2,3.6,6.6c0,0,0,0,0,0.1c0.2,0.5,0.3,1.3,0.2,2c0,0.6-0.1,1.2-0.2,1.8
		h-1.9c-4.5,0-8.2,3.7-8.2,8.2v13.9h28.9V27.8C2811.8,23.2,2808.2,19.6,2803.6,19.6z"/>
	<path class="st0" d="M2853.8,19.6h-1.9c-0.1-0.5-0.2-1.1-0.2-1.8c0-0.7,0-1.5,0.2-2c0,0,0,0,0-0.1c2.2-1.4,3.6-3.8,3.6-6.6
		c0-4.4-3.5-7.9-7.9-7.9c-4.4,0-7.9,3.5-7.9,7.9c0,2.8,1.4,5.2,3.6,6.6c0,0,0,0,0,0.1c0.2,0.5,0.3,1.3,0.2,2c0,0.6-0.1,1.2-0.2,1.8
		h-1.9c-4.5,0-8.2,3.7-8.2,8.2v13.9h28.9V27.8C2862,23.2,2858.3,19.6,2853.8,19.6z"/>
</g>
<g>
	<path class="st1" d="M1900.4,220.4h-1.9c-0.1-0.5-0.2-1.1-0.2-1.8c0-0.7,0-1.5,0.2-2c0,0,0,0,0-0.1c2.2-1.4,3.6-3.8,3.6-6.6
		c0-4.4-3.5-7.9-7.9-7.9c-4.4,0-7.9,3.5-7.9,7.9c0,2.8,1.4,5.2,3.6,6.6c0,0,0,0,0,0.1c0.2,0.5,0.3,1.3,0.2,2c0,0.6-0.1,1.2-0.2,1.8
		h-1.9c-4.5,0-8.2,3.7-8.2,8.2v13.9h28.9v-13.9C1908.6,224,1904.9,220.4,1900.4,220.4z"/>
	<path class="st1" d="M1850.2,220.4h-1.9c-0.1-0.5-0.2-1.1-0.2-1.8c0-0.7,0-1.5,0.2-2c0,0,0,0,0-0.1c2.2-1.4,3.6-3.8,3.6-6.6
		c0-4.4-3.5-7.9-7.9-7.9s-7.9,3.5-7.9,7.9c0,2.8,1.4,5.2,3.6,6.6c0,0,0,0,0,0.1c0.2,0.5,0.3,1.3,0.2,2c0,0.6-0.1,1.2-0.2,1.8h-1.9
		c-4.5,0-8.2,3.7-8.2,8.2v13.9h28.9v-13.9C1858.4,224,1854.7,220.4,1850.2,220.4z"/>
	<path class="st1" d="M1950.5,220.4h-1.9c-0.1-0.5-0.2-1.1-0.2-1.8c0-0.7,0-1.5,0.2-2c0,0,0,0,0-0.1c2.2-1.4,3.6-3.8,3.6-6.6
		c0-4.4-3.5-7.9-7.9-7.9c-4.4,0-7.9,3.5-7.9,7.9c0,2.8,1.4,5.2,3.6,6.6c0,0,0,0,0,0.1c0.2,0.5,0.3,1.3,0.2,2c0,0.6-0.1,1.2-0.2,1.8
		h-1.9c-4.5,0-8.2,3.7-8.2,8.2v13.9h28.9v-13.9C1958.7,224,1955.1,220.4,1950.5,220.4z"/>
	<path class="st1" d="M2000.7,220.4h-1.9c-0.1-0.5-0.2-1.1-0.2-1.8c0-0.7,0-1.5,0.2-2c0,0,0,0,0-0.1c2.2-1.4,3.6-3.8,3.6-6.6
		c0-4.4-3.5-7.9-7.9-7.9c-4.4,0-7.9,3.5-7.9,7.9c0,2.8,1.4,5.2,3.6,6.6c0,0,0,0,0,0.1c0.2,0.5,0.3,1.3,0.2,2c0,0.6-0.1,1.2-0.2,1.8
		h-1.9c-4.5,0-8.2,3.7-8.2,8.2v13.9h28.9v-13.9C2008.9,224,2005.3,220.4,2000.7,220.4z"/>
	<path class="st1" d="M2050.9,220.4h-1.9c-0.1-0.5-0.2-1.1-0.2-1.8c0-0.7,0-1.5,0.2-2c0,0,0,0,0-0.1c2.2-1.4,3.6-3.8,3.6-6.6
		c0-4.4-3.5-7.9-7.9-7.9c-4.4,0-7.9,3.5-7.9,7.9c0,2.8,1.4,5.2,3.6,6.6c0,0,0,0,0,0.1c0.2,0.5,0.3,1.3,0.2,2c0,0.6-0.1,1.2-0.2,1.8
		h-1.9c-4.5,0-8.2,3.7-8.2,8.2v13.9h28.9v-13.9C2059.1,224,2055.4,220.4,2050.9,220.4z"/>
	<path class="st1" d="M2101.1,220.4h-1.9c-0.1-0.5-0.2-1.1-0.2-1.8c0-0.7,0-1.5,0.2-2c0,0,0,0,0-0.1c2.2-1.4,3.6-3.8,3.6-6.6
		c0-4.4-3.5-7.9-7.9-7.9c-4.4,0-7.9,3.5-7.9,7.9c0,2.8,1.4,5.2,3.6,6.6c0,0,0,0,0,0.1c0.2,0.5,0.3,1.3,0.2,2c0,0.6-0.1,1.2-0.2,1.8
		h-1.9c-4.5,0-8.2,3.7-8.2,8.2v13.9h28.9v-13.9C2109.3,224,2105.6,220.4,2101.1,220.4z"/>
	<path class="st1" d="M2151.3,220.4h-1.9c-0.1-0.5-0.2-1.1-0.2-1.8c0-0.7,0-1.5,0.2-2c0,0,0,0,0-0.1c2.2-1.4,3.6-3.8,3.6-6.6
		c0-4.4-3.5-7.9-7.9-7.9c-4.4,0-7.9,3.5-7.9,7.9c0,2.8,1.4,5.2,3.6,6.6c0,0,0,0,0,0.1c0.2,0.5,0.3,1.3,0.2,2c0,0.6-0.1,1.2-0.2,1.8
		h-1.9c-4.5,0-8.2,3.7-8.2,8.2v13.9h28.9v-13.9C2159.5,224,2155.8,220.4,2151.3,220.4z"/>
	<path class="st1" d="M2201.4,220.4h-1.9c-0.1-0.5-0.2-1.1-0.2-1.8c0-0.7,0-1.5,0.2-2c0,0,0,0,0-0.1c2.2-1.4,3.6-3.8,3.6-6.6
		c0-4.4-3.5-7.9-7.9-7.9s-7.9,3.5-7.9,7.9c0,2.8,1.4,5.2,3.6,6.6c0,0,0,0,0,0.1c0.2,0.5,0.3,1.3,0.2,2c0,0.6-0.1,1.2-0.2,1.8h-1.9
		c-4.5,0-8.2,3.7-8.2,8.2v13.9h28.9v-13.9C2209.7,224,2206,220.4,2201.4,220.4z"/>
	<path class="st1" d="M2251.6,220.4h-1.9c-0.1-0.5-0.2-1.1-0.2-1.8c0-0.7,0-1.5,0.2-2c0,0,0,0,0-0.1c2.2-1.4,3.6-3.8,3.6-6.6
		c0-4.4-3.5-7.9-7.9-7.9c-4.4,0-7.9,3.5-7.9,7.9c0,2.8,1.4,5.2,3.6,6.6c0,0,0,0,0,0.1c0.2,0.5,0.3,1.3,0.2,2c0,0.6-0.1,1.2-0.2,1.8
		h-1.9c-4.5,0-8.2,3.7-8.2,8.2v13.9h28.9v-13.9C2259.8,224,2256.2,220.4,2251.6,220.4z"/>
	<path class="st1" d="M2301.8,220.4h-1.9c-0.1-0.5-0.2-1.1-0.2-1.8c0-0.7,0-1.5,0.2-2c0,0,0,0,0-0.1c2.2-1.4,3.6-3.8,3.6-6.6
		c0-4.4-3.5-7.9-7.9-7.9c-4.4,0-7.9,3.5-7.9,7.9c0,2.8,1.4,5.2,3.6,6.6c0,0,0,0,0,0.1c0.2,0.5,0.3,1.3,0.2,2c0,0.6-0.1,1.2-0.2,1.8
		h-1.9c-4.5,0-8.2,3.7-8.2,8.2v13.9h28.9v-13.9C2310,224,2306.3,220.4,2301.8,220.4z"/>
	<path class="st1" d="M2352,220.4h-1.9c-0.1-0.5-0.2-1.1-0.2-1.8c0-0.7,0-1.5,0.2-2c0,0,0,0,0-0.1c2.2-1.4,3.6-3.8,3.6-6.6
		c0-4.4-3.5-7.9-7.9-7.9c-4.4,0-7.9,3.5-7.9,7.9c0,2.8,1.4,5.2,3.6,6.6c0,0,0,0,0,0.1c0.2,0.5,0.3,1.3,0.2,2c0,0.6-0.1,1.2-0.2,1.8
		h-1.9c-4.5,0-8.2,3.7-8.2,8.2v13.9h28.9v-13.9C2360.2,224,2356.5,220.4,2352,220.4z"/>
	<path class="st1" d="M2402.2,220.4h-1.9c-0.1-0.5-0.2-1.1-0.2-1.8c0-0.7,0-1.5,0.2-2c0,0,0,0,0-0.1c2.2-1.4,3.6-3.8,3.6-6.6
		c0-4.4-3.5-7.9-7.9-7.9s-7.9,3.5-7.9,7.9c0,2.8,1.4,5.2,3.6,6.6c0,0,0,0,0,0.1c0.2,0.5,0.3,1.3,0.2,2c0,0.6-0.1,1.2-0.2,1.8h-1.9
		c-4.5,0-8.2,3.7-8.2,8.2v13.9h28.9v-13.9C2410.4,224,2406.7,220.4,2402.2,220.4z"/>
	<path class="st1" d="M2452.3,220.4h-1.9c-0.1-0.5-0.2-1.1-0.2-1.8c0-0.7,0-1.5,0.2-2c0,0,0,0,0-0.1c2.2-1.4,3.6-3.8,3.6-6.6
		c0-4.4-3.5-7.9-7.9-7.9s-7.9,3.5-7.9,7.9c0,2.8,1.4,5.2,3.6,6.6c0,0,0,0,0,0.1c0.2,0.5,0.3,1.3,0.2,2c0,0.6-0.1,1.2-0.2,1.8h-1.9
		c-4.5,0-8.2,3.7-8.2,8.2v13.9h28.9v-13.9C2460.6,224,2456.9,220.4,2452.3,220.4z"/>
	<path class="st1" d="M2502.5,220.4h-1.9c-0.1-0.5-0.2-1.1-0.2-1.8c0-0.7,0-1.5,0.2-2c0,0,0,0,0-0.1c2.2-1.4,3.6-3.8,3.6-6.6
		c0-4.4-3.5-7.9-7.9-7.9c-4.4,0-7.9,3.5-7.9,7.9c0,2.8,1.4,5.2,3.6,6.6c0,0,0,0,0,0.1c0.2,0.5,0.3,1.3,0.2,2c0,0.6-0.1,1.2-0.2,1.8
		h-1.9c-4.5,0-8.2,3.7-8.2,8.2v13.9h28.9v-13.9C2510.7,224,2507.1,220.4,2502.5,220.4z"/>
	<path class="st1" d="M2552.7,221.6h-1.9c-0.1-0.5-0.2-1.1-0.2-1.8c0-0.7,0-1.5,0.2-2c0,0,0,0,0-0.1c2.2-1.4,3.6-3.8,3.6-6.6
		c0-4.4-3.5-7.9-7.9-7.9c-4.4,0-7.9,3.5-7.9,7.9c0,2.8,1.4,5.2,3.6,6.6c0,0,0,0,0,0.1c0.2,0.5,0.3,1.3,0.2,2c0,0.6-0.1,1.2-0.2,1.8
		h-1.9c-4.5,0-8.2,3.7-8.2,8.2v13.9h28.9v-13.9C2560.9,225.2,2557.2,221.6,2552.7,221.6z"/>
	<path class="st1" d="M2602.9,221.6h-1.9c-0.1-0.5-0.2-1.1-0.2-1.8c0-0.7,0-1.5,0.2-2c0,0,0,0,0-0.1c2.2-1.4,3.6-3.8,3.6-6.6
		c0-4.4-3.5-7.9-7.9-7.9c-4.4,0-7.9,3.5-7.9,7.9c0,2.8,1.4,5.2,3.6,6.6c0,0,0,0,0,0.1c0.2,0.5,0.3,1.3,0.2,2c0,0.6-0.1,1.2-0.2,1.8
		h-1.9c-4.5,0-8.2,3.7-8.2,8.2v13.9h28.9v-13.9C2611.1,225.2,2607.4,221.6,2602.9,221.6z"/>
	<path class="st1" d="M2653.1,221.6h-1.9c-0.1-0.5-0.2-1.1-0.2-1.8c0-0.7,0-1.5,0.2-2c0,0,0,0,0-0.1c2.2-1.4,3.6-3.8,3.6-6.6
		c0-4.4-3.5-7.9-7.9-7.9s-7.9,3.5-7.9,7.9c0,2.8,1.4,5.2,3.6,6.6c0,0,0,0,0,0.1c0.2,0.5,0.3,1.3,0.2,2c0,0.6-0.1,1.2-0.2,1.8h-1.9
		c-4.5,0-8.2,3.7-8.2,8.2v13.9h28.9v-13.9C2661.3,225.2,2657.6,221.6,2653.1,221.6z"/>
	<path class="st1" d="M2703.3,221.6h-1.9c-0.1-0.5-0.2-1.1-0.2-1.8c0-0.7,0-1.5,0.2-2c0,0,0,0,0-0.1c2.2-1.4,3.6-3.8,3.6-6.6
		c0-4.4-3.5-7.9-7.9-7.9s-7.9,3.5-7.9,7.9c0,2.8,1.4,5.2,3.6,6.6c0,0,0,0,0,0.1c0.2,0.5,0.3,1.3,0.2,2c0,0.6-0.1,1.2-0.2,1.8h-1.9
		c-4.5,0-8.2,3.7-8.2,8.2v13.9h28.9v-13.9C2711.5,225.2,2707.8,221.6,2703.3,221.6z"/>
	<path class="st1" d="M2753.4,221.6h-1.9c-0.1-0.5-0.2-1.1-0.2-1.8c0-0.7,0-1.5,0.2-2c0,0,0,0,0-0.1c2.2-1.4,3.6-3.8,3.6-6.6
		c0-4.4-3.5-7.9-7.9-7.9c-4.4,0-7.9,3.5-7.9,7.9c0,2.8,1.4,5.2,3.6,6.6c0,0,0,0,0,0.1c0.2,0.5,0.3,1.3,0.2,2c0,0.6-0.1,1.2-0.2,1.8
		h-1.9c-4.5,0-8.2,3.7-8.2,8.2v13.9h28.9v-13.9C2761.6,225.2,2758,221.6,2753.4,221.6z"/>
	<path class="st1" d="M2803.6,221.6h-1.9c-0.1-0.5-0.2-1.1-0.2-1.8c0-0.7,0-1.5,0.2-2c0,0,0,0,0-0.1c2.2-1.4,3.6-3.8,3.6-6.6
		c0-4.4-3.5-7.9-7.9-7.9c-4.4,0-7.9,3.5-7.9,7.9c0,2.8,1.4,5.2,3.6,6.6c0,0,0,0,0,0.1c0.2,0.5,0.3,1.3,0.2,2c0,0.6-0.1,1.2-0.2,1.8
		h-1.9c-4.5,0-8.2,3.7-8.2,8.2v13.9h28.9v-13.9C2811.8,225.2,2808.2,221.6,2803.6,221.6z"/>
	<path class="st1" d="M2853.8,221.6h-1.9c-0.1-0.5-0.2-1.1-0.2-1.8c0-0.7,0-1.5,0.2-2c0,0,0,0,0-0.1c2.2-1.4,3.6-3.8,3.6-6.6
		c0-4.4-3.5-7.9-7.9-7.9c-4.4,0-7.9,3.5-7.9,7.9c0,2.8,1.4,5.2,3.6,6.6c0,0,0,0,0,0.1c0.2,0.5,0.3,1.3,0.2,2c0,0.6-0.1,1.2-0.2,1.8
		h-1.9c-4.5,0-8.2,3.7-8.2,8.2v13.9h28.9v-13.9C2862,225.2,2858.3,221.6,2853.8,221.6z"/>
</g>
<rect x="1833.9" y="319" class="st2" width="1025.1" height="41.9"/>
<g>
	<path class="st3" d="M1900.4,222.4h-1.9c-0.1-0.5-0.2-1.1-0.2-1.8c0-0.7,0-1.5,0.2-2c0,0,0,0,0-0.1c2.2-1.4,3.6-3.8,3.6-6.6
		c0-4.4-3.5-7.9-7.9-7.9c-4.4,0-7.9,3.5-7.9,7.9c0,2.8,1.4,5.2,3.6,6.6c0,0,0,0,0,0.1c0.2,0.5,0.3,1.3,0.2,2c0,0.6-0.1,1.2-0.2,1.8
		h-1.9c-4.5,0-8.2,3.7-8.2,8.2v13.9h28.9v-13.9C1908.6,226,1904.9,222.4,1900.4,222.4z"/>
	<path class="st3" d="M1850.2,222.4h-1.9c-0.1-0.5-0.2-1.1-0.2-1.8c0-0.7,0-1.5,0.2-2c0,0,0,0,0-0.1c2.2-1.4,3.6-3.8,3.6-6.6
		c0-4.4-3.5-7.9-7.9-7.9s-7.9,3.5-7.9,7.9c0,2.8,1.4,5.2,3.6,6.6c0,0,0,0,0,0.1c0.2,0.5,0.3,1.3,0.2,2c0,0.6-0.1,1.2-0.2,1.8h-1.9
		c-4.5,0-8.2,3.7-8.2,8.2v13.9h28.9v-13.9C1858.4,226,1854.7,222.4,1850.2,222.4z"/>
	<path class="st3" d="M1950.5,222.4h-1.9c-0.1-0.5-0.2-1.1-0.2-1.8c0-0.7,0-1.5,0.2-2c0,0,0,0,0-0.1c2.2-1.4,3.6-3.8,3.6-6.6
		c0-4.4-3.5-7.9-7.9-7.9c-4.4,0-7.9,3.5-7.9,7.9c0,2.8,1.4,5.2,3.6,6.6c0,0,0,0,0,0.1c0.2,0.5,0.3,1.3,0.2,2c0,0.6-0.1,1.2-0.2,1.8
		h-1.9c-4.5,0-8.2,3.7-8.2,8.2v13.9h28.9v-13.9C1958.7,226,1955.1,222.4,1950.5,222.4z"/>
	<path class="st3" d="M2000.7,222.4h-1.9c-0.1-0.5-0.2-1.1-0.2-1.8c0-0.7,0-1.5,0.2-2c0,0,0,0,0-0.1c2.2-1.4,3.6-3.8,3.6-6.6
		c0-4.4-3.5-7.9-7.9-7.9c-4.4,0-7.9,3.5-7.9,7.9c0,2.8,1.4,5.2,3.6,6.6c0,0,0,0,0,0.1c0.2,0.5,0.3,1.3,0.2,2c0,0.6-0.1,1.2-0.2,1.8
		h-1.9c-4.5,0-8.2,3.7-8.2,8.2v13.9h28.9v-13.9C2008.9,226,2005.3,222.4,2000.7,222.4z"/>
	<path class="st3" d="M2050.9,222.4h-1.9c-0.1-0.5-0.2-1.1-0.2-1.8c0-0.7,0-1.5,0.2-2c0,0,0,0,0-0.1c2.2-1.4,3.6-3.8,3.6-6.6
		c0-4.4-3.5-7.9-7.9-7.9c-4.4,0-7.9,3.5-7.9,7.9c0,2.8,1.4,5.2,3.6,6.6c0,0,0,0,0,0.1c0.2,0.5,0.3,1.3,0.2,2c0,0.6-0.1,1.2-0.2,1.8
		h-1.9c-4.5,0-8.2,3.7-8.2,8.2v13.9h28.9v-13.9C2059.1,226,2055.4,222.4,2050.9,222.4z"/>
	<path class="st3" d="M2101.1,222.4h-1.9c-0.1-0.5-0.2-1.1-0.2-1.8c0-0.7,0-1.5,0.2-2c0,0,0,0,0-0.1c2.2-1.4,3.6-3.8,3.6-6.6
		c0-4.4-3.5-7.9-7.9-7.9c-4.4,0-7.9,3.5-7.9,7.9c0,2.8,1.4,5.2,3.6,6.6c0,0,0,0,0,0.1c0.2,0.5,0.3,1.3,0.2,2c0,0.6-0.1,1.2-0.2,1.8
		h-1.9c-4.5,0-8.2,3.7-8.2,8.2v13.9h28.9v-13.9C2109.3,226,2105.6,222.4,2101.1,222.4z"/>
	<path class="st3" d="M2151.3,222.4h-1.9c-0.1-0.5-0.2-1.1-0.2-1.8c0-0.7,0-1.5,0.2-2c0,0,0,0,0-0.1c2.2-1.4,3.6-3.8,3.6-6.6
		c0-4.4-3.5-7.9-7.9-7.9c-4.4,0-7.9,3.5-7.9,7.9c0,2.8,1.4,5.2,3.6,6.6c0,0,0,0,0,0.1c0.2,0.5,0.3,1.3,0.2,2c0,0.6-0.1,1.2-0.2,1.8
		h-1.9c-4.5,0-8.2,3.7-8.2,8.2v13.9h28.9v-13.9C2159.5,226,2155.8,222.4,2151.3,222.4z"/>
	<path class="st3" d="M2201.4,222.4h-1.9c-0.1-0.5-0.2-1.1-0.2-1.8c0-0.7,0-1.5,0.2-2c0,0,0,0,0-0.1c2.2-1.4,3.6-3.8,3.6-6.6
		c0-4.4-3.5-7.9-7.9-7.9s-7.9,3.5-7.9,7.9c0,2.8,1.4,5.2,3.6,6.6c0,0,0,0,0,0.1c0.2,0.5,0.3,1.3,0.2,2c0,0.6-0.1,1.2-0.2,1.8h-1.9
		c-4.5,0-8.2,3.7-8.2,8.2v13.9h28.9v-13.9C2209.7,226,2206,222.4,2201.4,222.4z"/>
	<path class="st3" d="M2251.6,222.4h-1.9c-0.1-0.5-0.2-1.1-0.2-1.8c0-0.7,0-1.5,0.2-2c0,0,0,0,0-0.1c2.2-1.4,3.6-3.8,3.6-6.6
		c0-4.4-3.5-7.9-7.9-7.9c-4.4,0-7.9,3.5-7.9,7.9c0,2.8,1.4,5.2,3.6,6.6c0,0,0,0,0,0.1c0.2,0.5,0.3,1.3,0.2,2c0,0.6-0.1,1.2-0.2,1.8
		h-1.9c-4.5,0-8.2,3.7-8.2,8.2v13.9h28.9v-13.9C2259.8,226,2256.2,222.4,2251.6,222.4z"/>
	<path class="st3" d="M2301.8,222.4h-1.9c-0.1-0.5-0.2-1.1-0.2-1.8c0-0.7,0-1.5,0.2-2c0,0,0,0,0-0.1c2.2-1.4,3.6-3.8,3.6-6.6
		c0-4.4-3.5-7.9-7.9-7.9c-4.4,0-7.9,3.5-7.9,7.9c0,2.8,1.4,5.2,3.6,6.6c0,0,0,0,0,0.1c0.2,0.5,0.3,1.3,0.2,2c0,0.6-0.1,1.2-0.2,1.8
		h-1.9c-4.5,0-8.2,3.7-8.2,8.2v13.9h28.9v-13.9C2310,226,2306.3,222.4,2301.8,222.4z"/>
	<path class="st3" d="M2352,222.4h-1.9c-0.1-0.5-0.2-1.1-0.2-1.8c0-0.7,0-1.5,0.2-2c0,0,0,0,0-0.1c2.2-1.4,3.6-3.8,3.6-6.6
		c0-4.4-3.5-7.9-7.9-7.9c-4.4,0-7.9,3.5-7.9,7.9c0,2.8,1.4,5.2,3.6,6.6c0,0,0,0,0,0.1c0.2,0.5,0.3,1.3,0.2,2c0,0.6-0.1,1.2-0.2,1.8
		h-1.9c-4.5,0-8.2,3.7-8.2,8.2v13.9h28.9v-13.9C2360.2,226,2356.5,222.4,2352,222.4z"/>
	<path class="st3" d="M2402.2,222.4h-1.9c-0.1-0.5-0.2-1.1-0.2-1.8c0-0.7,0-1.5,0.2-2c0,0,0,0,0-0.1c2.2-1.4,3.6-3.8,3.6-6.6
		c0-4.4-3.5-7.9-7.9-7.9s-7.9,3.5-7.9,7.9c0,2.8,1.4,5.2,3.6,6.6c0,0,0,0,0,0.1c0.2,0.5,0.3,1.3,0.2,2c0,0.6-0.1,1.2-0.2,1.8h-1.9
		c-4.5,0-8.2,3.7-8.2,8.2v13.9h28.9v-13.9C2410.4,226,2406.7,222.4,2402.2,222.4z"/>
	<path class="st3" d="M2452.3,222.4h-1.9c-0.1-0.5-0.2-1.1-0.2-1.8c0-0.7,0-1.5,0.2-2c0,0,0,0,0-0.1c2.2-1.4,3.6-3.8,3.6-6.6
		c0-4.4-3.5-7.9-7.9-7.9s-7.9,3.5-7.9,7.9c0,2.8,1.4,5.2,3.6,6.6c0,0,0,0,0,0.1c0.2,0.5,0.3,1.3,0.2,2c0,0.6-0.1,1.2-0.2,1.8h-1.9
		c-4.5,0-8.2,3.7-8.2,8.2v13.9h28.9v-13.9C2460.6,226,2456.9,222.4,2452.3,222.4z"/>
	<path class="st3" d="M2502.5,222.4h-1.9c-0.1-0.5-0.2-1.1-0.2-1.8c0-0.7,0-1.5,0.2-2c0,0,0,0,0-0.1c2.2-1.4,3.6-3.8,3.6-6.6
		c0-4.4-3.5-7.9-7.9-7.9c-4.4,0-7.9,3.5-7.9,7.9c0,2.8,1.4,5.2,3.6,6.6c0,0,0,0,0,0.1c0.2,0.5,0.3,1.3,0.2,2c0,0.6-0.1,1.2-0.2,1.8
		h-1.9c-4.5,0-8.2,3.7-8.2,8.2v13.9h28.9v-13.9C2510.7,226,2507.1,222.4,2502.5,222.4z"/>
	<path class="st3" d="M2552.7,223.6h-1.9c-0.1-0.5-0.2-1.1-0.2-1.8c0-0.7,0-1.5,0.2-2c0,0,0,0,0-0.1c2.2-1.4,3.6-3.8,3.6-6.6
		c0-4.4-3.5-7.9-7.9-7.9c-4.4,0-7.9,3.5-7.9,7.9c0,2.8,1.4,5.2,3.6,6.6c0,0,0,0,0,0.1c0.2,0.5,0.3,1.3,0.2,2c0,0.6-0.1,1.2-0.2,1.8
		h-1.9c-4.5,0-8.2,3.7-8.2,8.2v13.9h28.9v-13.9C2560.9,227.2,2557.2,223.6,2552.7,223.6z"/>
	<path class="st3" d="M2602.9,223.6h-1.9c-0.1-0.5-0.2-1.1-0.2-1.8c0-0.7,0-1.5,0.2-2c0,0,0,0,0-0.1c2.2-1.4,3.6-3.8,3.6-6.6
		c0-4.4-3.5-7.9-7.9-7.9c-4.4,0-7.9,3.5-7.9,7.9c0,2.8,1.4,5.2,3.6,6.6c0,0,0,0,0,0.1c0.2,0.5,0.3,1.3,0.2,2c0,0.6-0.1,1.2-0.2,1.8
		h-1.9c-4.5,0-8.2,3.7-8.2,8.2v13.9h28.9v-13.9C2611.1,227.2,2607.4,223.6,2602.9,223.6z"/>
	<path class="st3" d="M2653.1,223.6h-1.9c-0.1-0.5-0.2-1.1-0.2-1.8c0-0.7,0-1.5,0.2-2c0,0,0,0,0-0.1c2.2-1.4,3.6-3.8,3.6-6.6
		c0-4.4-3.5-7.9-7.9-7.9s-7.9,3.5-7.9,7.9c0,2.8,1.4,5.2,3.6,6.6c0,0,0,0,0,0.1c0.2,0.5,0.3,1.3,0.2,2c0,0.6-0.1,1.2-0.2,1.8h-1.9
		c-4.5,0-8.2,3.7-8.2,8.2v13.9h28.9v-13.9C2661.3,227.2,2657.6,223.6,2653.1,223.6z"/>
	<path class="st3" d="M2703.3,223.6h-1.9c-0.1-0.5-0.2-1.1-0.2-1.8c0-0.7,0-1.5,0.2-2c0,0,0,0,0-0.1c2.2-1.4,3.6-3.8,3.6-6.6
		c0-4.4-3.5-7.9-7.9-7.9s-7.9,3.5-7.9,7.9c0,2.8,1.4,5.2,3.6,6.6c0,0,0,0,0,0.1c0.2,0.5,0.3,1.3,0.2,2c0,0.6-0.1,1.2-0.2,1.8h-1.9
		c-4.5,0-8.2,3.7-8.2,8.2v13.9h28.9v-13.9C2711.5,227.2,2707.8,223.6,2703.3,223.6z"/>
	<path class="st3" d="M2753.4,223.6h-1.9c-0.1-0.5-0.2-1.1-0.2-1.8c0-0.7,0-1.5,0.2-2c0,0,0,0,0-0.1c2.2-1.4,3.6-3.8,3.6-6.6
		c0-4.4-3.5-7.9-7.9-7.9c-4.4,0-7.9,3.5-7.9,7.9c0,2.8,1.4,5.2,3.6,6.6c0,0,0,0,0,0.1c0.2,0.5,0.3,1.3,0.2,2c0,0.6-0.1,1.2-0.2,1.8
		h-1.9c-4.5,0-8.2,3.7-8.2,8.2v13.9h28.9v-13.9C2761.6,227.2,2758,223.6,2753.4,223.6z"/>
	<path class="st3" d="M2803.6,223.6h-1.9c-0.1-0.5-0.2-1.1-0.2-1.8c0-0.7,0-1.5,0.2-2c0,0,0,0,0-0.1c2.2-1.4,3.6-3.8,3.6-6.6
		c0-4.4-3.5-7.9-7.9-7.9c-4.4,0-7.9,3.5-7.9,7.9c0,2.8,1.4,5.2,3.6,6.6c0,0,0,0,0,0.1c0.2,0.5,0.3,1.3,0.2,2c0,0.6-0.1,1.2-0.2,1.8
		h-1.9c-4.5,0-8.2,3.7-8.2,8.2v13.9h28.9v-13.9C2811.8,227.2,2808.2,223.6,2803.6,223.6z"/>
	<path class="st3" d="M2853.8,223.6h-1.9c-0.1-0.5-0.2-1.1-0.2-1.8c0-0.7,0-1.5,0.2-2c0,0,0,0,0-0.1c2.2-1.4,3.6-3.8,3.6-6.6
		c0-4.4-3.5-7.9-7.9-7.9c-4.4,0-7.9,3.5-7.9,7.9c0,2.8,1.4,5.2,3.6,6.6c0,0,0,0,0,0.1c0.2,0.5,0.3,1.3,0.2,2c0,0.6-0.1,1.2-0.2,1.8
		h-1.9c-4.5,0-8.2,3.7-8.2,8.2v13.9h28.9v-13.9C2862,227.2,2858.3,223.6,2853.8,223.6z"/>
</g>
<g>
	<path class="st3" d="M1900.4,62.4h-1.9c-0.1-0.5-0.2-1.1-0.2-1.8c0-0.7,0-1.5,0.2-2c0,0,0,0,0-0.1c2.2-1.4,3.6-3.8,3.6-6.6
		c0-4.4-3.5-7.9-7.9-7.9c-4.4,0-7.9,3.5-7.9,7.9c0,2.8,1.4,5.2,3.6,6.6c0,0,0,0,0,0.1c0.2,0.5,0.3,1.3,0.2,2c0,0.6-0.1,1.2-0.2,1.8
		h-1.9c-4.5,0-8.2,3.7-8.2,8.2v13.9h28.9V70.6C1908.6,66,1904.9,62.4,1900.4,62.4z"/>
	<path class="st3" d="M1850.2,62.4h-1.9c-0.1-0.5-0.2-1.1-0.2-1.8c0-0.7,0-1.5,0.2-2c0,0,0,0,0-0.1c2.2-1.4,3.6-3.8,3.6-6.6
		c0-4.4-3.5-7.9-7.9-7.9s-7.9,3.5-7.9,7.9c0,2.8,1.4,5.2,3.6,6.6c0,0,0,0,0,0.1c0.2,0.5,0.3,1.3,0.2,2c0,0.6-0.1,1.2-0.2,1.8h-1.9
		c-4.5,0-8.2,3.7-8.2,8.2v13.9h28.9V70.6C1858.4,66,1854.7,62.4,1850.2,62.4z"/>
	<path class="st3" d="M1950.5,62.4h-1.9c-0.1-0.5-0.2-1.1-0.2-1.8c0-0.7,0-1.5,0.2-2c0,0,0,0,0-0.1c2.2-1.4,3.6-3.8,3.6-6.6
		c0-4.4-3.5-7.9-7.9-7.9c-4.4,0-7.9,3.5-7.9,7.9c0,2.8,1.4,5.2,3.6,6.6c0,0,0,0,0,0.1c0.2,0.5,0.3,1.3,0.2,2c0,0.6-0.1,1.2-0.2,1.8
		h-1.9c-4.5,0-8.2,3.7-8.2,8.2v13.9h28.9V70.6C1958.7,66,1955.1,62.4,1950.5,62.4z"/>
	<path class="st3" d="M2000.7,62.4h-1.9c-0.1-0.5-0.2-1.1-0.2-1.8c0-0.7,0-1.5,0.2-2c0,0,0,0,0-0.1c2.2-1.4,3.6-3.8,3.6-6.6
		c0-4.4-3.5-7.9-7.9-7.9c-4.4,0-7.9,3.5-7.9,7.9c0,2.8,1.4,5.2,3.6,6.6c0,0,0,0,0,0.1c0.2,0.5,0.3,1.3,0.2,2c0,0.6-0.1,1.2-0.2,1.8
		h-1.9c-4.5,0-8.2,3.7-8.2,8.2v13.9h28.9V70.6C2008.9,66,2005.3,62.4,2000.7,62.4z"/>
	<path class="st3" d="M2050.9,62.4h-1.9c-0.1-0.5-0.2-1.1-0.2-1.8c0-0.7,0-1.5,0.2-2c0,0,0,0,0-0.1c2.2-1.4,3.6-3.8,3.6-6.6
		c0-4.4-3.5-7.9-7.9-7.9c-4.4,0-7.9,3.5-7.9,7.9c0,2.8,1.4,5.2,3.6,6.6c0,0,0,0,0,0.1c0.2,0.5,0.3,1.3,0.2,2c0,0.6-0.1,1.2-0.2,1.8
		h-1.9c-4.5,0-8.2,3.7-8.2,8.2v13.9h28.9V70.6C2059.1,66,2055.4,62.4,2050.9,62.4z"/>
	<path class="st3" d="M2101.1,62.4h-1.9c-0.1-0.5-0.2-1.1-0.2-1.8c0-0.7,0-1.5,0.2-2c0,0,0,0,0-0.1c2.2-1.4,3.6-3.8,3.6-6.6
		c0-4.4-3.5-7.9-7.9-7.9c-4.4,0-7.9,3.5-7.9,7.9c0,2.8,1.4,5.2,3.6,6.6c0,0,0,0,0,0.1c0.2,0.5,0.3,1.3,0.2,2c0,0.6-0.1,1.2-0.2,1.8
		h-1.9c-4.5,0-8.2,3.7-8.2,8.2v13.9h28.9V70.6C2109.3,66,2105.6,62.4,2101.1,62.4z"/>
	<path class="st3" d="M2151.3,62.4h-1.9c-0.1-0.5-0.2-1.1-0.2-1.8c0-0.7,0-1.5,0.2-2c0,0,0,0,0-0.1c2.2-1.4,3.6-3.8,3.6-6.6
		c0-4.4-3.5-7.9-7.9-7.9c-4.4,0-7.9,3.5-7.9,7.9c0,2.8,1.4,5.2,3.6,6.6c0,0,0,0,0,0.1c0.2,0.5,0.3,1.3,0.2,2c0,0.6-0.1,1.2-0.2,1.8
		h-1.9c-4.5,0-8.2,3.7-8.2,8.2v13.9h28.9V70.6C2159.5,66,2155.8,62.4,2151.3,62.4z"/>
	<path class="st3" d="M2201.4,62.4h-1.9c-0.1-0.5-0.2-1.1-0.2-1.8c0-0.7,0-1.5,0.2-2c0,0,0,0,0-0.1c2.2-1.4,3.6-3.8,3.6-6.6
		c0-4.4-3.5-7.9-7.9-7.9s-7.9,3.5-7.9,7.9c0,2.8,1.4,5.2,3.6,6.6c0,0,0,0,0,0.1c0.2,0.5,0.3,1.3,0.2,2c0,0.6-0.1,1.2-0.2,1.8h-1.9
		c-4.5,0-8.2,3.7-8.2,8.2v13.9h28.9V70.6C2209.7,66,2206,62.4,2201.4,62.4z"/>
	<path class="st3" d="M2251.6,62.4h-1.9c-0.1-0.5-0.2-1.1-0.2-1.8c0-0.7,0-1.5,0.2-2c0,0,0,0,0-0.1c2.2-1.4,3.6-3.8,3.6-6.6
		c0-4.4-3.5-7.9-7.9-7.9c-4.4,0-7.9,3.5-7.9,7.9c0,2.8,1.4,5.2,3.6,6.6c0,0,0,0,0,0.1c0.2,0.5,0.3,1.3,0.2,2c0,0.6-0.1,1.2-0.2,1.8
		h-1.9c-4.5,0-8.2,3.7-8.2,8.2v13.9h28.9V70.6C2259.8,66,2256.2,62.4,2251.6,62.4z"/>
	<path class="st3" d="M2301.8,62.4h-1.9c-0.1-0.5-0.2-1.1-0.2-1.8c0-0.7,0-1.5,0.2-2c0,0,0,0,0-0.1c2.2-1.4,3.6-3.8,3.6-6.6
		c0-4.4-3.5-7.9-7.9-7.9c-4.4,0-7.9,3.5-7.9,7.9c0,2.8,1.4,5.2,3.6,6.6c0,0,0,0,0,0.1c0.2,0.5,0.3,1.3,0.2,2c0,0.6-0.1,1.2-0.2,1.8
		h-1.9c-4.5,0-8.2,3.7-8.2,8.2v13.9h28.9V70.6C2310,66,2306.3,62.4,2301.8,62.4z"/>
	<path class="st3" d="M2352,62.4h-1.9c-0.1-0.5-0.2-1.1-0.2-1.8c0-0.7,0-1.5,0.2-2c0,0,0,0,0-0.1c2.2-1.4,3.6-3.8,3.6-6.6
		c0-4.4-3.5-7.9-7.9-7.9c-4.4,0-7.9,3.5-7.9,7.9c0,2.8,1.4,5.2,3.6,6.6c0,0,0,0,0,0.1c0.2,0.5,0.3,1.3,0.2,2c0,0.6-0.1,1.2-0.2,1.8
		h-1.9c-4.5,0-8.2,3.7-8.2,8.2v13.9h28.9V70.6C2360.2,66,2356.5,62.4,2352,62.4z"/>
	<path class="st3" d="M2402.2,62.4h-1.9c-0.1-0.5-0.2-1.1-0.2-1.8c0-0.7,0-1.5,0.2-2c0,0,0,0,0-0.1c2.2-1.4,3.6-3.8,3.6-6.6
		c0-4.4-3.5-7.9-7.9-7.9s-7.9,3.5-7.9,7.9c0,2.8,1.4,5.2,3.6,6.6c0,0,0,0,0,0.1c0.2,0.5,0.3,1.3,0.2,2c0,0.6-0.1,1.2-0.2,1.8h-1.9
		c-4.5,0-8.2,3.7-8.2,8.2v13.9h28.9V70.6C2410.4,66,2406.7,62.4,2402.2,62.4z"/>
	<path class="st3" d="M2452.3,62.4h-1.9c-0.1-0.5-0.2-1.1-0.2-1.8c0-0.7,0-1.5,0.2-2c0,0,0,0,0-0.1c2.2-1.4,3.6-3.8,3.6-6.6
		c0-4.4-3.5-7.9-7.9-7.9s-7.9,3.5-7.9,7.9c0,2.8,1.4,5.2,3.6,6.6c0,0,0,0,0,0.1c0.2,0.5,0.3,1.3,0.2,2c0,0.6-0.1,1.2-0.2,1.8h-1.9
		c-4.5,0-8.2,3.7-8.2,8.2v13.9h28.9V70.6C2460.6,66,2456.9,62.4,2452.3,62.4z"/>
	<path class="st3" d="M2502.5,62.4h-1.9c-0.1-0.5-0.2-1.1-0.2-1.8c0-0.7,0-1.5,0.2-2c0,0,0,0,0-0.1c2.2-1.4,3.6-3.8,3.6-6.6
		c0-4.4-3.5-7.9-7.9-7.9c-4.4,0-7.9,3.5-7.9,7.9c0,2.8,1.4,5.2,3.6,6.6c0,0,0,0,0,0.1c0.2,0.5,0.3,1.3,0.2,2c0,0.6-0.1,1.2-0.2,1.8
		h-1.9c-4.5,0-8.2,3.7-8.2,8.2v13.9h28.9V70.6C2510.7,66,2507.1,62.4,2502.5,62.4z"/>
	<path class="st3" d="M2552.7,63.6h-1.9c-0.1-0.5-0.2-1.1-0.2-1.8c0-0.7,0-1.5,0.2-2c0,0,0,0,0-0.1c2.2-1.4,3.6-3.8,3.6-6.6
		c0-4.4-3.5-7.9-7.9-7.9c-4.4,0-7.9,3.5-7.9,7.9c0,2.8,1.4,5.2,3.6,6.6c0,0,0,0,0,0.1c0.2,0.5,0.3,1.3,0.2,2c0,0.6-0.1,1.2-0.2,1.8
		h-1.9c-4.5,0-8.2,3.7-8.2,8.2v13.9h28.9V71.8C2560.9,67.2,2557.2,63.6,2552.7,63.6z"/>
	<path class="st3" d="M2602.9,63.6h-1.9c-0.1-0.5-0.2-1.1-0.2-1.8c0-0.7,0-1.5,0.2-2c0,0,0,0,0-0.1c2.2-1.4,3.6-3.8,3.6-6.6
		c0-4.4-3.5-7.9-7.9-7.9c-4.4,0-7.9,3.5-7.9,7.9c0,2.8,1.4,5.2,3.6,6.6c0,0,0,0,0,0.1c0.2,0.5,0.3,1.3,0.2,2c0,0.6-0.1,1.2-0.2,1.8
		h-1.9c-4.5,0-8.2,3.7-8.2,8.2v13.9h28.9V71.8C2611.1,67.2,2607.4,63.6,2602.9,63.6z"/>
	<path class="st3" d="M2653.1,63.6h-1.9c-0.1-0.5-0.2-1.1-0.2-1.8c0-0.7,0-1.5,0.2-2c0,0,0,0,0-0.1c2.2-1.4,3.6-3.8,3.6-6.6
		c0-4.4-3.5-7.9-7.9-7.9s-7.9,3.5-7.9,7.9c0,2.8,1.4,5.2,3.6,6.6c0,0,0,0,0,0.1c0.2,0.5,0.3,1.3,0.2,2c0,0.6-0.1,1.2-0.2,1.8h-1.9
		c-4.5,0-8.2,3.7-8.2,8.2v13.9h28.9V71.8C2661.3,67.2,2657.6,63.6,2653.1,63.6z"/>
	<path class="st3" d="M2703.3,63.6h-1.9c-0.1-0.5-0.2-1.1-0.2-1.8c0-0.7,0-1.5,0.2-2c0,0,0,0,0-0.1c2.2-1.4,3.6-3.8,3.6-6.6
		c0-4.4-3.5-7.9-7.9-7.9s-7.9,3.5-7.9,7.9c0,2.8,1.4,5.2,3.6,6.6c0,0,0,0,0,0.1c0.2,0.5,0.3,1.3,0.2,2c0,0.6-0.1,1.2-0.2,1.8h-1.9
		c-4.5,0-8.2,3.7-8.2,8.2v13.9h28.9V71.8C2711.5,67.2,2707.8,63.6,2703.3,63.6z"/>
	<path class="st3" d="M2753.4,63.6h-1.9c-0.1-0.5-0.2-1.1-0.2-1.8c0-0.7,0-1.5,0.2-2c0,0,0,0,0-0.1c2.2-1.4,3.6-3.8,3.6-6.6
		c0-4.4-3.5-7.9-7.9-7.9c-4.4,0-7.9,3.5-7.9,7.9c0,2.8,1.4,5.2,3.6,6.6c0,0,0,0,0,0.1c0.2,0.5,0.3,1.3,0.2,2c0,0.6-0.1,1.2-0.2,1.8
		h-1.9c-4.5,0-8.2,3.7-8.2,8.2v13.9h28.9V71.8C2761.6,67.2,2758,63.6,2753.4,63.6z"/>
	<path class="st3" d="M2803.6,63.6h-1.9c-0.1-0.5-0.2-1.1-0.2-1.8c0-0.7,0-1.5,0.2-2c0,0,0,0,0-0.1c2.2-1.4,3.6-3.8,3.6-6.6
		c0-4.4-3.5-7.9-7.9-7.9c-4.4,0-7.9,3.5-7.9,7.9c0,2.8,1.4,5.2,3.6,6.6c0,0,0,0,0,0.1c0.2,0.5,0.3,1.3,0.2,2c0,0.6-0.1,1.2-0.2,1.8
		h-1.9c-4.5,0-8.2,3.7-8.2,8.2v13.9h28.9V71.8C2811.8,67.2,2808.2,63.6,2803.6,63.6z"/>
	<path class="st3" d="M2853.8,63.6h-1.9c-0.1-0.5-0.2-1.1-0.2-1.8c0-0.7,0-1.5,0.2-2c0,0,0,0,0-0.1c2.2-1.4,3.6-3.8,3.6-6.6
		c0-4.4-3.5-7.9-7.9-7.9c-4.4,0-7.9,3.5-7.9,7.9c0,2.8,1.4,5.2,3.6,6.6c0,0,0,0,0,0.1c0.2,0.5,0.3,1.3,0.2,2c0,0.6-0.1,1.2-0.2,1.8
		h-1.9c-4.5,0-8.2,3.7-8.2,8.2v13.9h28.9V71.8C2862,67.2,2858.3,63.6,2853.8,63.6z"/>
</g>
<g>
	<path class="st4" d="M1900.4,101.4h-1.9c-0.1-0.5-0.2-1.1-0.2-1.8c0-0.7,0-1.5,0.2-2c0,0,0,0,0-0.1c2.2-1.4,3.6-3.8,3.6-6.6
		c0-4.4-3.5-7.9-7.9-7.9c-4.4,0-7.9,3.5-7.9,7.9c0,2.8,1.4,5.2,3.6,6.6c0,0,0,0,0,0.1c0.2,0.5,0.3,1.3,0.2,2c0,0.6-0.1,1.2-0.2,1.8
		h-1.9c-4.5,0-8.2,3.7-8.2,8.2v13.9h28.9v-13.9C1908.6,105,1904.9,101.4,1900.4,101.4z"/>
	<path class="st4" d="M1850.2,101.4h-1.9c-0.1-0.5-0.2-1.1-0.2-1.8c0-0.7,0-1.5,0.2-2c0,0,0,0,0-0.1c2.2-1.4,3.6-3.8,3.6-6.6
		c0-4.4-3.5-7.9-7.9-7.9s-7.9,3.5-7.9,7.9c0,2.8,1.4,5.2,3.6,6.6c0,0,0,0,0,0.1c0.2,0.5,0.3,1.3,0.2,2c0,0.6-0.1,1.2-0.2,1.8h-1.9
		c-4.5,0-8.2,3.7-8.2,8.2v13.9h28.9v-13.9C1858.4,105,1854.7,101.4,1850.2,101.4z"/>
	<path class="st4" d="M1950.5,101.4h-1.9c-0.1-0.5-0.2-1.1-0.2-1.8c0-0.7,0-1.5,0.2-2c0,0,0,0,0-0.1c2.2-1.4,3.6-3.8,3.6-6.6
		c0-4.4-3.5-7.9-7.9-7.9c-4.4,0-7.9,3.5-7.9,7.9c0,2.8,1.4,5.2,3.6,6.6c0,0,0,0,0,0.1c0.2,0.5,0.3,1.3,0.2,2c0,0.6-0.1,1.2-0.2,1.8
		h-1.9c-4.5,0-8.2,3.7-8.2,8.2v13.9h28.9v-13.9C1958.7,105,1955.1,101.4,1950.5,101.4z"/>
	<path class="st4" d="M2000.7,101.4h-1.9c-0.1-0.5-0.2-1.1-0.2-1.8c0-0.7,0-1.5,0.2-2c0,0,0,0,0-0.1c2.2-1.4,3.6-3.8,3.6-6.6
		c0-4.4-3.5-7.9-7.9-7.9c-4.4,0-7.9,3.5-7.9,7.9c0,2.8,1.4,5.2,3.6,6.6c0,0,0,0,0,0.1c0.2,0.5,0.3,1.3,0.2,2c0,0.6-0.1,1.2-0.2,1.8
		h-1.9c-4.5,0-8.2,3.7-8.2,8.2v13.9h28.9v-13.9C2008.9,105,2005.3,101.4,2000.7,101.4z"/>
	<path class="st4" d="M2050.9,101.4h-1.9c-0.1-0.5-0.2-1.1-0.2-1.8c0-0.7,0-1.5,0.2-2c0,0,0,0,0-0.1c2.2-1.4,3.6-3.8,3.6-6.6
		c0-4.4-3.5-7.9-7.9-7.9c-4.4,0-7.9,3.5-7.9,7.9c0,2.8,1.4,5.2,3.6,6.6c0,0,0,0,0,0.1c0.2,0.5,0.3,1.3,0.2,2c0,0.6-0.1,1.2-0.2,1.8
		h-1.9c-4.5,0-8.2,3.7-8.2,8.2v13.9h28.9v-13.9C2059.1,105,2055.4,101.4,2050.9,101.4z"/>
	<path class="st4" d="M2101.1,101.4h-1.9c-0.1-0.5-0.2-1.1-0.2-1.8c0-0.7,0-1.5,0.2-2c0,0,0,0,0-0.1c2.2-1.4,3.6-3.8,3.6-6.6
		c0-4.4-3.5-7.9-7.9-7.9c-4.4,0-7.9,3.5-7.9,7.9c0,2.8,1.4,5.2,3.6,6.6c0,0,0,0,0,0.1c0.2,0.5,0.3,1.3,0.2,2c0,0.6-0.1,1.2-0.2,1.8
		h-1.9c-4.5,0-8.2,3.7-8.2,8.2v13.9h28.9v-13.9C2109.3,105,2105.6,101.4,2101.1,101.4z"/>
	<path class="st4" d="M2151.3,101.4h-1.9c-0.1-0.5-0.2-1.1-0.2-1.8c0-0.7,0-1.5,0.2-2c0,0,0,0,0-0.1c2.2-1.4,3.6-3.8,3.6-6.6
		c0-4.4-3.5-7.9-7.9-7.9c-4.4,0-7.9,3.5-7.9,7.9c0,2.8,1.4,5.2,3.6,6.6c0,0,0,0,0,0.1c0.2,0.5,0.3,1.3,0.2,2c0,0.6-0.1,1.2-0.2,1.8
		h-1.9c-4.5,0-8.2,3.7-8.2,8.2v13.9h28.9v-13.9C2159.5,105,2155.8,101.4,2151.3,101.4z"/>
	<path class="st4" d="M2201.4,101.4h-1.9c-0.1-0.5-0.2-1.1-0.2-1.8c0-0.7,0-1.5,0.2-2c0,0,0,0,0-0.1c2.2-1.4,3.6-3.8,3.6-6.6
		c0-4.4-3.5-7.9-7.9-7.9s-7.9,3.5-7.9,7.9c0,2.8,1.4,5.2,3.6,6.6c0,0,0,0,0,0.1c0.2,0.5,0.3,1.3,0.2,2c0,0.6-0.1,1.2-0.2,1.8h-1.9
		c-4.5,0-8.2,3.7-8.2,8.2v13.9h28.9v-13.9C2209.7,105,2206,101.4,2201.4,101.4z"/>
	<path class="st4" d="M2251.6,101.4h-1.9c-0.1-0.5-0.2-1.1-0.2-1.8c0-0.7,0-1.5,0.2-2c0,0,0,0,0-0.1c2.2-1.4,3.6-3.8,3.6-6.6
		c0-4.4-3.5-7.9-7.9-7.9c-4.4,0-7.9,3.5-7.9,7.9c0,2.8,1.4,5.2,3.6,6.6c0,0,0,0,0,0.1c0.2,0.5,0.3,1.3,0.2,2c0,0.6-0.1,1.2-0.2,1.8
		h-1.9c-4.5,0-8.2,3.7-8.2,8.2v13.9h28.9v-13.9C2259.8,105,2256.2,101.4,2251.6,101.4z"/>
	<path class="st4" d="M2301.8,101.4h-1.9c-0.1-0.5-0.2-1.1-0.2-1.8c0-0.7,0-1.5,0.2-2c0,0,0,0,0-0.1c2.2-1.4,3.6-3.8,3.6-6.6
		c0-4.4-3.5-7.9-7.9-7.9c-4.4,0-7.9,3.5-7.9,7.9c0,2.8,1.4,5.2,3.6,6.6c0,0,0,0,0,0.1c0.2,0.5,0.3,1.3,0.2,2c0,0.6-0.1,1.2-0.2,1.8
		h-1.9c-4.5,0-8.2,3.7-8.2,8.2v13.9h28.9v-13.9C2310,105,2306.3,101.4,2301.8,101.4z"/>
	<path class="st4" d="M2352,101.4h-1.9c-0.1-0.5-0.2-1.1-0.2-1.8c0-0.7,0-1.5,0.2-2c0,0,0,0,0-0.1c2.2-1.4,3.6-3.8,3.6-6.6
		c0-4.4-3.5-7.9-7.9-7.9c-4.4,0-7.9,3.5-7.9,7.9c0,2.8,1.4,5.2,3.6,6.6c0,0,0,0,0,0.1c0.2,0.5,0.3,1.3,0.2,2c0,0.6-0.1,1.2-0.2,1.8
		h-1.9c-4.5,0-8.2,3.7-8.2,8.2v13.9h28.9v-13.9C2360.2,105,2356.5,101.4,2352,101.4z"/>
	<path class="st4" d="M2402.2,101.4h-1.9c-0.1-0.5-0.2-1.1-0.2-1.8c0-0.7,0-1.5,0.2-2c0,0,0,0,0-0.1c2.2-1.4,3.6-3.8,3.6-6.6
		c0-4.4-3.5-7.9-7.9-7.9s-7.9,3.5-7.9,7.9c0,2.8,1.4,5.2,3.6,6.6c0,0,0,0,0,0.1c0.2,0.5,0.3,1.3,0.2,2c0,0.6-0.1,1.2-0.2,1.8h-1.9
		c-4.5,0-8.2,3.7-8.2,8.2v13.9h28.9v-13.9C2410.4,105,2406.7,101.4,2402.2,101.4z"/>
	<path class="st4" d="M2452.3,101.4h-1.9c-0.1-0.5-0.2-1.1-0.2-1.8c0-0.7,0-1.5,0.2-2c0,0,0,0,0-0.1c2.2-1.4,3.6-3.8,3.6-6.6
		c0-4.4-3.5-7.9-7.9-7.9s-7.9,3.5-7.9,7.9c0,2.8,1.4,5.2,3.6,6.6c0,0,0,0,0,0.1c0.2,0.5,0.3,1.3,0.2,2c0,0.6-0.1,1.2-0.2,1.8h-1.9
		c-4.5,0-8.2,3.7-8.2,8.2v13.9h28.9v-13.9C2460.6,105,2456.9,101.4,2452.3,101.4z"/>
	<path class="st4" d="M2502.5,101.4h-1.9c-0.1-0.5-0.2-1.1-0.2-1.8c0-0.7,0-1.5,0.2-2c0,0,0,0,0-0.1c2.2-1.4,3.6-3.8,3.6-6.6
		c0-4.4-3.5-7.9-7.9-7.9c-4.4,0-7.9,3.5-7.9,7.9c0,2.8,1.4,5.2,3.6,6.6c0,0,0,0,0,0.1c0.2,0.5,0.3,1.3,0.2,2c0,0.6-0.1,1.2-0.2,1.8
		h-1.9c-4.5,0-8.2,3.7-8.2,8.2v13.9h28.9v-13.9C2510.7,105,2507.1,101.4,2502.5,101.4z"/>
	<path class="st4" d="M2552.7,102.6h-1.9c-0.1-0.5-0.2-1.1-0.2-1.8c0-0.7,0-1.5,0.2-2c0,0,0,0,0-0.1c2.2-1.4,3.6-3.8,3.6-6.6
		c0-4.4-3.5-7.9-7.9-7.9c-4.4,0-7.9,3.5-7.9,7.9c0,2.8,1.4,5.2,3.6,6.6c0,0,0,0,0,0.1c0.2,0.5,0.3,1.3,0.2,2c0,0.6-0.1,1.2-0.2,1.8
		h-1.9c-4.5,0-8.2,3.7-8.2,8.2v13.9h28.9v-13.9C2560.9,106.2,2557.2,102.6,2552.7,102.6z"/>
	<path class="st4" d="M2602.9,102.6h-1.9c-0.1-0.5-0.2-1.1-0.2-1.8c0-0.7,0-1.5,0.2-2c0,0,0,0,0-0.1c2.2-1.4,3.6-3.8,3.6-6.6
		c0-4.4-3.5-7.9-7.9-7.9c-4.4,0-7.9,3.5-7.9,7.9c0,2.8,1.4,5.2,3.6,6.6c0,0,0,0,0,0.1c0.2,0.5,0.3,1.3,0.2,2c0,0.6-0.1,1.2-0.2,1.8
		h-1.9c-4.5,0-8.2,3.7-8.2,8.2v13.9h28.9v-13.9C2611.1,106.2,2607.4,102.6,2602.9,102.6z"/>
	<path class="st4" d="M2653.1,102.6h-1.9c-0.1-0.5-0.2-1.1-0.2-1.8c0-0.7,0-1.5,0.2-2c0,0,0,0,0-0.1c2.2-1.4,3.6-3.8,3.6-6.6
		c0-4.4-3.5-7.9-7.9-7.9s-7.9,3.5-7.9,7.9c0,2.8,1.4,5.2,3.6,6.6c0,0,0,0,0,0.1c0.2,0.5,0.3,1.3,0.2,2c0,0.6-0.1,1.2-0.2,1.8h-1.9
		c-4.5,0-8.2,3.7-8.2,8.2v13.9h28.9v-13.9C2661.3,106.2,2657.6,102.6,2653.1,102.6z"/>
	<path class="st4" d="M2703.3,102.6h-1.9c-0.1-0.5-0.2-1.1-0.2-1.8c0-0.7,0-1.5,0.2-2c0,0,0,0,0-0.1c2.2-1.4,3.6-3.8,3.6-6.6
		c0-4.4-3.5-7.9-7.9-7.9s-7.9,3.5-7.9,7.9c0,2.8,1.4,5.2,3.6,6.6c0,0,0,0,0,0.1c0.2,0.5,0.3,1.3,0.2,2c0,0.6-0.1,1.2-0.2,1.8h-1.9
		c-4.5,0-8.2,3.7-8.2,8.2v13.9h28.9v-13.9C2711.5,106.2,2707.8,102.6,2703.3,102.6z"/>
	<path class="st4" d="M2753.4,102.6h-1.9c-0.1-0.5-0.2-1.1-0.2-1.8c0-0.7,0-1.5,0.2-2c0,0,0,0,0-0.1c2.2-1.4,3.6-3.8,3.6-6.6
		c0-4.4-3.5-7.9-7.9-7.9c-4.4,0-7.9,3.5-7.9,7.9c0,2.8,1.4,5.2,3.6,6.6c0,0,0,0,0,0.1c0.2,0.5,0.3,1.3,0.2,2c0,0.6-0.1,1.2-0.2,1.8
		h-1.9c-4.5,0-8.2,3.7-8.2,8.2v13.9h28.9v-13.9C2761.6,106.2,2758,102.6,2753.4,102.6z"/>
	<path class="st4" d="M2803.6,102.6h-1.9c-0.1-0.5-0.2-1.1-0.2-1.8c0-0.7,0-1.5,0.2-2c0,0,0,0,0-0.1c2.2-1.4,3.6-3.8,3.6-6.6
		c0-4.4-3.5-7.9-7.9-7.9c-4.4,0-7.9,3.5-7.9,7.9c0,2.8,1.4,5.2,3.6,6.6c0,0,0,0,0,0.1c0.2,0.5,0.3,1.3,0.2,2c0,0.6-0.1,1.2-0.2,1.8
		h-1.9c-4.5,0-8.2,3.7-8.2,8.2v13.9h28.9v-13.9C2811.8,106.2,2808.2,102.6,2803.6,102.6z"/>
	<path class="st4" d="M2853.8,102.6h-1.9c-0.1-0.5-0.2-1.1-0.2-1.8c0-0.7,0-1.5,0.2-2c0,0,0,0,0-0.1c2.2-1.4,3.6-3.8,3.6-6.6
		c0-4.4-3.5-7.9-7.9-7.9c-4.4,0-7.9,3.5-7.9,7.9c0,2.8,1.4,5.2,3.6,6.6c0,0,0,0,0,0.1c0.2,0.5,0.3,1.3,0.2,2c0,0.6-0.1,1.2-0.2,1.8
		h-1.9c-4.5,0-8.2,3.7-8.2,8.2v13.9h28.9v-13.9C2862,106.2,2858.3,102.6,2853.8,102.6z"/>
</g>
<g>
	<defs>
		<rect id="SVGID_1_" x="1833.9" y="360.9" width="1025.1" height="246.3"/>
	</defs>
	<clipPath id="SVGID_2_">
		<use xlink:href="#SVGID_1_"  style="overflow:visible;"/>
	</clipPath>
	<rect x="1833.9" y="360.9" class="st5" width="1025.1" height="180.2"/>
	<g class="st6">
		<polygon class="st7" points="2623.1,360.9 2577.1,360.9 2531.1,360.9 2485.1,360.9 2439.1,360.9 2393.1,360.9 2347.1,360.9 
			2301.1,360.9 2255.1,360.9 2209.1,360.9 2163.1,360.9 2117.1,360.9 2071.1,360.9 2025.1,360.9 1512,476.4 0,816.6 335.3,816.6 
			670.6,816.6 1005.9,816.6 1341.2,816.6 1676.5,816.6 2011.8,816.6 2347.1,816.6 2682.4,816.6 3017.7,816.6 3353,816.6 
			3688.3,816.6 4023.6,816.6 4358.9,816.6 4694.2,816.6 3219.6,484.8 2669.1,360.9 		"/>
		<g>
			<path class="st8" d="M2668.2,369.2l1951,439.1H75l1951-439.1H2668.2 M2669.1,360.9h-644L0,816.6h4694.2L2669.1,360.9
				L2669.1,360.9z"/>
		</g>
		<path class="st8" d="M2419.9,361l48.2,48.1h0c17.2,17.4-34.7,35.8-121.2,35.8s-138.4-18.3-121.1-35.8h0l48.4-48.1l-216.3-0.1
			c-116.3,30.8-50,84.3,289.3,84.3c338.1,0,405.3-53.2,290.1-84.1L2419.9,361z"/>
		<line class="st9" x1="2221.6" y1="409.1" x2="2475.2" y2="409.1"/>
	</g>
</g>
<g>
	<path class="st4" d="M1900.4,266.4h-1.9c-0.1-0.5-0.2-1.1-0.2-1.8c0-0.7,0-1.5,0.2-2c0,0,0,0,0-0.1c2.2-1.4,3.6-3.8,3.6-6.6
		c0-4.4-3.5-7.9-7.9-7.9c-4.4,0-7.9,3.5-7.9,7.9c0,2.8,1.4,5.2,3.6,6.6c0,0,0,0,0,0.1c0.2,0.5,0.3,1.3,0.2,2c0,0.6-0.1,1.2-0.2,1.8
		h-1.9c-4.5,0-8.2,3.7-8.2,8.2v13.9h28.9v-13.9C1908.6,270,1904.9,266.4,1900.4,266.4z"/>
	<path class="st4" d="M1850.2,266.4h-1.9c-0.1-0.5-0.2-1.1-0.2-1.8c0-0.7,0-1.5,0.2-2c0,0,0,0,0-0.1c2.2-1.4,3.6-3.8,3.6-6.6
		c0-4.4-3.5-7.9-7.9-7.9s-7.9,3.5-7.9,7.9c0,2.8,1.4,5.2,3.6,6.6c0,0,0,0,0,0.1c0.2,0.5,0.3,1.3,0.2,2c0,0.6-0.1,1.2-0.2,1.8h-1.9
		c-4.5,0-8.2,3.7-8.2,8.2v13.9h28.9v-13.9C1858.4,270,1854.7,266.4,1850.2,266.4z"/>
	<path class="st4" d="M1950.5,266.4h-1.9c-0.1-0.5-0.2-1.1-0.2-1.8c0-0.7,0-1.5,0.2-2c0,0,0,0,0-0.1c2.2-1.4,3.6-3.8,3.6-6.6
		c0-4.4-3.5-7.9-7.9-7.9c-4.4,0-7.9,3.5-7.9,7.9c0,2.8,1.4,5.2,3.6,6.6c0,0,0,0,0,0.1c0.2,0.5,0.3,1.3,0.2,2c0,0.6-0.1,1.2-0.2,1.8
		h-1.9c-4.5,0-8.2,3.7-8.2,8.2v13.9h28.9v-13.9C1958.7,270,1955.1,266.4,1950.5,266.4z"/>
	<path class="st4" d="M2000.7,266.4h-1.9c-0.1-0.5-0.2-1.1-0.2-1.8c0-0.7,0-1.5,0.2-2c0,0,0,0,0-0.1c2.2-1.4,3.6-3.8,3.6-6.6
		c0-4.4-3.5-7.9-7.9-7.9c-4.4,0-7.9,3.5-7.9,7.9c0,2.8,1.4,5.2,3.6,6.6c0,0,0,0,0,0.1c0.2,0.5,0.3,1.3,0.2,2c0,0.6-0.1,1.2-0.2,1.8
		h-1.9c-4.5,0-8.2,3.7-8.2,8.2v13.9h28.9v-13.9C2008.9,270,2005.3,266.4,2000.7,266.4z"/>
	<path class="st4" d="M2050.9,266.4h-1.9c-0.1-0.5-0.2-1.1-0.2-1.8c0-0.7,0-1.5,0.2-2c0,0,0,0,0-0.1c2.2-1.4,3.6-3.8,3.6-6.6
		c0-4.4-3.5-7.9-7.9-7.9c-4.4,0-7.9,3.5-7.9,7.9c0,2.8,1.4,5.2,3.6,6.6c0,0,0,0,0,0.1c0.2,0.5,0.3,1.3,0.2,2c0,0.6-0.1,1.2-0.2,1.8
		h-1.9c-4.5,0-8.2,3.7-8.2,8.2v13.9h28.9v-13.9C2059.1,270,2055.4,266.4,2050.9,266.4z"/>
	<path class="st4" d="M2101.1,266.4h-1.9c-0.1-0.5-0.2-1.1-0.2-1.8c0-0.7,0-1.5,0.2-2c0,0,0,0,0-0.1c2.2-1.4,3.6-3.8,3.6-6.6
		c0-4.4-3.5-7.9-7.9-7.9c-4.4,0-7.9,3.5-7.9,7.9c0,2.8,1.4,5.2,3.6,6.6c0,0,0,0,0,0.1c0.2,0.5,0.3,1.3,0.2,2c0,0.6-0.1,1.2-0.2,1.8
		h-1.9c-4.5,0-8.2,3.7-8.2,8.2v13.9h28.9v-13.9C2109.3,270,2105.6,266.4,2101.1,266.4z"/>
	<path class="st4" d="M2151.3,266.4h-1.9c-0.1-0.5-0.2-1.1-0.2-1.8c0-0.7,0-1.5,0.2-2c0,0,0,0,0-0.1c2.2-1.4,3.6-3.8,3.6-6.6
		c0-4.4-3.5-7.9-7.9-7.9c-4.4,0-7.9,3.5-7.9,7.9c0,2.8,1.4,5.2,3.6,6.6c0,0,0,0,0,0.1c0.2,0.5,0.3,1.3,0.2,2c0,0.6-0.1,1.2-0.2,1.8
		h-1.9c-4.5,0-8.2,3.7-8.2,8.2v13.9h28.9v-13.9C2159.5,270,2155.8,266.4,2151.3,266.4z"/>
	<path class="st4" d="M2201.4,266.4h-1.9c-0.1-0.5-0.2-1.1-0.2-1.8c0-0.7,0-1.5,0.2-2c0,0,0,0,0-0.1c2.2-1.4,3.6-3.8,3.6-6.6
		c0-4.4-3.5-7.9-7.9-7.9s-7.9,3.5-7.9,7.9c0,2.8,1.4,5.2,3.6,6.6c0,0,0,0,0,0.1c0.2,0.5,0.3,1.3,0.2,2c0,0.6-0.1,1.2-0.2,1.8h-1.9
		c-4.5,0-8.2,3.7-8.2,8.2v13.9h28.9v-13.9C2209.7,270,2206,266.4,2201.4,266.4z"/>
	<path class="st4" d="M2251.6,266.4h-1.9c-0.1-0.5-0.2-1.1-0.2-1.8c0-0.7,0-1.5,0.2-2c0,0,0,0,0-0.1c2.2-1.4,3.6-3.8,3.6-6.6
		c0-4.4-3.5-7.9-7.9-7.9c-4.4,0-7.9,3.5-7.9,7.9c0,2.8,1.4,5.2,3.6,6.6c0,0,0,0,0,0.1c0.2,0.5,0.3,1.3,0.2,2c0,0.6-0.1,1.2-0.2,1.8
		h-1.9c-4.5,0-8.2,3.7-8.2,8.2v13.9h28.9v-13.9C2259.8,270,2256.2,266.4,2251.6,266.4z"/>
	<path class="st4" d="M2301.8,266.4h-1.9c-0.1-0.5-0.2-1.1-0.2-1.8c0-0.7,0-1.5,0.2-2c0,0,0,0,0-0.1c2.2-1.4,3.6-3.8,3.6-6.6
		c0-4.4-3.5-7.9-7.9-7.9c-4.4,0-7.9,3.5-7.9,7.9c0,2.8,1.4,5.2,3.6,6.6c0,0,0,0,0,0.1c0.2,0.5,0.3,1.3,0.2,2c0,0.6-0.1,1.2-0.2,1.8
		h-1.9c-4.5,0-8.2,3.7-8.2,8.2v13.9h28.9v-13.9C2310,270,2306.3,266.4,2301.8,266.4z"/>
	<path class="st4" d="M2352,266.4h-1.9c-0.1-0.5-0.2-1.1-0.2-1.8c0-0.7,0-1.5,0.2-2c0,0,0,0,0-0.1c2.2-1.4,3.6-3.8,3.6-6.6
		c0-4.4-3.5-7.9-7.9-7.9c-4.4,0-7.9,3.5-7.9,7.9c0,2.8,1.4,5.2,3.6,6.6c0,0,0,0,0,0.1c0.2,0.5,0.3,1.3,0.2,2c0,0.6-0.1,1.2-0.2,1.8
		h-1.9c-4.5,0-8.2,3.7-8.2,8.2v13.9h28.9v-13.9C2360.2,270,2356.5,266.4,2352,266.4z"/>
	<path class="st4" d="M2402.2,266.4h-1.9c-0.1-0.5-0.2-1.1-0.2-1.8c0-0.7,0-1.5,0.2-2c0,0,0,0,0-0.1c2.2-1.4,3.6-3.8,3.6-6.6
		c0-4.4-3.5-7.9-7.9-7.9s-7.9,3.5-7.9,7.9c0,2.8,1.4,5.2,3.6,6.6c0,0,0,0,0,0.1c0.2,0.5,0.3,1.3,0.2,2c0,0.6-0.1,1.2-0.2,1.8h-1.9
		c-4.5,0-8.2,3.7-8.2,8.2v13.9h28.9v-13.9C2410.4,270,2406.7,266.4,2402.2,266.4z"/>
	<path class="st4" d="M2452.3,266.4h-1.9c-0.1-0.5-0.2-1.1-0.2-1.8c0-0.7,0-1.5,0.2-2c0,0,0,0,0-0.1c2.2-1.4,3.6-3.8,3.6-6.6
		c0-4.4-3.5-7.9-7.9-7.9s-7.9,3.5-7.9,7.9c0,2.8,1.4,5.2,3.6,6.6c0,0,0,0,0,0.1c0.2,0.5,0.3,1.3,0.2,2c0,0.6-0.1,1.2-0.2,1.8h-1.9
		c-4.5,0-8.2,3.7-8.2,8.2v13.9h28.9v-13.9C2460.6,270,2456.9,266.4,2452.3,266.4z"/>
	<path class="st4" d="M2502.5,266.4h-1.9c-0.1-0.5-0.2-1.1-0.2-1.8c0-0.7,0-1.5,0.2-2c0,0,0,0,0-0.1c2.2-1.4,3.6-3.8,3.6-6.6
		c0-4.4-3.5-7.9-7.9-7.9c-4.4,0-7.9,3.5-7.9,7.9c0,2.8,1.4,5.2,3.6,6.6c0,0,0,0,0,0.1c0.2,0.5,0.3,1.3,0.2,2c0,0.6-0.1,1.2-0.2,1.8
		h-1.9c-4.5,0-8.2,3.7-8.2,8.2v13.9h28.9v-13.9C2510.7,270,2507.1,266.4,2502.5,266.4z"/>
	<path class="st4" d="M2552.7,267.6h-1.9c-0.1-0.5-0.2-1.1-0.2-1.8c0-0.7,0-1.5,0.2-2c0,0,0,0,0-0.1c2.2-1.4,3.6-3.8,3.6-6.6
		c0-4.4-3.5-7.9-7.9-7.9c-4.4,0-7.9,3.5-7.9,7.9c0,2.8,1.4,5.2,3.6,6.6c0,0,0,0,0,0.1c0.2,0.5,0.3,1.3,0.2,2c0,0.6-0.1,1.2-0.2,1.8
		h-1.9c-4.5,0-8.2,3.7-8.2,8.2v13.9h28.9v-13.9C2560.9,271.2,2557.2,267.6,2552.7,267.6z"/>
	<path class="st4" d="M2602.9,267.6h-1.9c-0.1-0.5-0.2-1.1-0.2-1.8c0-0.7,0-1.5,0.2-2c0,0,0,0,0-0.1c2.2-1.4,3.6-3.8,3.6-6.6
		c0-4.4-3.5-7.9-7.9-7.9c-4.4,0-7.9,3.5-7.9,7.9c0,2.8,1.4,5.2,3.6,6.6c0,0,0,0,0,0.1c0.2,0.5,0.3,1.3,0.2,2c0,0.6-0.1,1.2-0.2,1.8
		h-1.9c-4.5,0-8.2,3.7-8.2,8.2v13.9h28.9v-13.9C2611.1,271.2,2607.4,267.6,2602.9,267.6z"/>
	<path class="st4" d="M2653.1,267.6h-1.9c-0.1-0.5-0.2-1.1-0.2-1.8c0-0.7,0-1.5,0.2-2c0,0,0,0,0-0.1c2.2-1.4,3.6-3.8,3.6-6.6
		c0-4.4-3.5-7.9-7.9-7.9s-7.9,3.5-7.9,7.9c0,2.8,1.4,5.2,3.6,6.6c0,0,0,0,0,0.1c0.2,0.5,0.3,1.3,0.2,2c0,0.6-0.1,1.2-0.2,1.8h-1.9
		c-4.5,0-8.2,3.7-8.2,8.2v13.9h28.9v-13.9C2661.3,271.2,2657.6,267.6,2653.1,267.6z"/>
	<path class="st4" d="M2703.3,267.6h-1.9c-0.1-0.5-0.2-1.1-0.2-1.8c0-0.7,0-1.5,0.2-2c0,0,0,0,0-0.1c2.2-1.4,3.6-3.8,3.6-6.6
		c0-4.4-3.5-7.9-7.9-7.9s-7.9,3.5-7.9,7.9c0,2.8,1.4,5.2,3.6,6.6c0,0,0,0,0,0.1c0.2,0.5,0.3,1.3,0.2,2c0,0.6-0.1,1.2-0.2,1.8h-1.9
		c-4.5,0-8.2,3.7-8.2,8.2v13.9h28.9v-13.9C2711.5,271.2,2707.8,267.6,2703.3,267.6z"/>
	<path class="st4" d="M2753.4,267.6h-1.9c-0.1-0.5-0.2-1.1-0.2-1.8c0-0.7,0-1.5,0.2-2c0,0,0,0,0-0.1c2.2-1.4,3.6-3.8,3.6-6.6
		c0-4.4-3.5-7.9-7.9-7.9c-4.4,0-7.9,3.5-7.9,7.9c0,2.8,1.4,5.2,3.6,6.6c0,0,0,0,0,0.1c0.2,0.5,0.3,1.3,0.2,2c0,0.6-0.1,1.2-0.2,1.8
		h-1.9c-4.5,0-8.2,3.7-8.2,8.2v13.9h28.9v-13.9C2761.6,271.2,2758,267.6,2753.4,267.6z"/>
	<path class="st4" d="M2803.6,267.6h-1.9c-0.1-0.5-0.2-1.1-0.2-1.8c0-0.7,0-1.5,0.2-2c0,0,0,0,0-0.1c2.2-1.4,3.6-3.8,3.6-6.6
		c0-4.4-3.5-7.9-7.9-7.9c-4.4,0-7.9,3.5-7.9,7.9c0,2.8,1.4,5.2,3.6,6.6c0,0,0,0,0,0.1c0.2,0.5,0.3,1.3,0.2,2c0,0.6-0.1,1.2-0.2,1.8
		h-1.9c-4.5,0-8.2,3.7-8.2,8.2v13.9h28.9v-13.9C2811.8,271.2,2808.2,267.6,2803.6,267.6z"/>
	<path class="st4" d="M2853.8,267.6h-1.9c-0.1-0.5-0.2-1.1-0.2-1.8c0-0.7,0-1.5,0.2-2c0,0,0,0,0-0.1c2.2-1.4,3.6-3.8,3.6-6.6
		c0-4.4-3.5-7.9-7.9-7.9c-4.4,0-7.9,3.5-7.9,7.9c0,2.8,1.4,5.2,3.6,6.6c0,0,0,0,0,0.1c0.2,0.5,0.3,1.3,0.2,2c0,0.6-0.1,1.2-0.2,1.8
		h-1.9c-4.5,0-8.2,3.7-8.2,8.2v13.9h28.9v-13.9C2862,271.2,2858.3,267.6,2853.8,267.6z"/>
</g>
<rect x="1817.5" y="281.5" class="st8" width="1051.3" height="37.5"/>
<rect x="1817.5" y="117.5" class="st8" width="1051.3" height="37.5"/>
<g>
	<g>
		<path id="path2987_11_" inkscape:connector-curvature="0" class="st10" d="M2073.8,148c0-0.1,3.3-11.6,3.4-11.8
			c0.1-0.1,4.5-0.1,4.5,0c0,0-0.5,1.9-1.1,4c-0.6,2.2-1.1,4-1.1,4.1c0.1,0.1,1.5,0.1,1.6,0c0.1-0.1,2.9-9.7,2.8-9.7
			c0,0-1.3-0.1-3.1-0.1c-1.7,0-3.1,0-3.1-0.1c0,0,0.6-2.3,1.4-5l1.5-5l5.4,0c3,0,5.4,0,5.4,0s-0.8,3.2-2,6.9
			c-1.1,3.8-2.6,9-3.4,11.7s-1.4,4.8-1.5,4.9c-0.1,0.1-0.4,0.1-5.5,0.1C2076.3,148.1,2073.8,148.1,2073.8,148L2073.8,148z
			 M2085,130.8c0.1-0.1,0.8-2.4,0.8-2.6c0-0.1-0.1-0.1-0.8-0.1c-0.5,0-0.8,0-0.8,0.1c-0.1,0.1-0.8,2.4-0.8,2.6
			c0,0.1,0.1,0.1,0.8,0.1C2084.7,130.9,2085,130.9,2085,130.8L2085,130.8z M2089.8,134.5c0,0,0.6-2.3,1.4-5l1.5-5l2.2,0
			c1.2,0,2.3,0,2.3,0c0,0-0.3,1.4-0.8,3.1c-0.5,1.7-0.9,3.1-0.9,3.2c0,0.1,0.1,0.1,0.8,0.1l0.8,0l0.9-3.1c0.5-1.7,1-3.2,1-3.2
			c0.1-0.1,4.4-0.1,4.5,0c0,0-0.6,2.3-1.4,5l-1.5,5l-5.4,0C2092.3,134.5,2089.8,134.5,2089.8,134.5L2089.8,134.5z M2101.7,134.5
			c0,0,0.6-2.3,1.4-5l1.5-5l5.4,0c3,0,5.4,0,5.4,0c0,0-0.6,2.3-1.4,5l-1.5,5l-2.2,0c-1.2,0-2.3,0-2.3,0c0,0,0.3-1.4,0.8-3.1
			c0.5-1.7,0.9-3.1,0.9-3.2c0-0.1-0.1-0.1-0.8-0.1l-0.8,0l-0.9,3.1c-0.5,1.7-1,3.2-1,3.2C2106.1,134.6,2101.8,134.6,2101.7,134.5
			L2101.7,134.5z M2115.2,131.2c-0.3-0.2-0.3-0.5,0-1.7c0.2-0.8,0.3-1.1,0.5-1.2c0.4-0.4,1-0.2,1.1,0.3c0.1,0.4-0.5,2.3-0.7,2.5
			C2115.9,131.4,2115.5,131.4,2115.2,131.2L2115.2,131.2z"/>
		<path id="path2989-1_11_" inkscape:connector-curvature="0" class="st10" d="M2091.6,135.6c-0.7,0-1.1,0.1-1.6,0.5
			c-0.7,0.7-0.8,1.9-0.6,2.7c0.4,0.9,1.4,1.2,1.8,1.4c-1.1-0.9-0.7-2.7,0.4-3.5h0.9c2.1,0,2-0.2,2,1.3h0c0-2,0-2.4-1.8-2.4
			C2092.3,135.6,2091.9,135.6,2091.6,135.6L2091.6,135.6z M2095.2,139.7c-0.2,1.3-1,1.5-2.6,1.5l0,0h-4.7l-0.4,1.5l4.8,0h0
			C2094,142.6,2094.9,141.2,2095.2,139.7L2095.2,139.7z"/>
	</g>
	<g>
		<path id="path2987_10_" inkscape:connector-curvature="0" class="st10" d="M2413.8,148c0-0.1,3.3-11.6,3.4-11.8
			c0.1-0.1,4.5-0.1,4.5,0c0,0-0.5,1.9-1.1,4c-0.6,2.2-1.1,4-1.1,4.1c0.1,0.1,1.5,0.1,1.6,0c0.1-0.1,2.9-9.7,2.8-9.7
			c0,0-1.3-0.1-3.1-0.1c-1.7,0-3.1,0-3.1-0.1c0,0,0.6-2.3,1.4-5l1.5-5l5.4,0c3,0,5.4,0,5.4,0s-0.8,3.2-2,6.9
			c-1.1,3.8-2.6,9-3.4,11.7s-1.4,4.8-1.5,4.9c-0.1,0.1-0.4,0.1-5.5,0.1C2416.3,148.1,2413.8,148.1,2413.8,148L2413.8,148z
			 M2425,130.8c0.1-0.1,0.8-2.4,0.8-2.6c0-0.1-0.1-0.1-0.8-0.1c-0.5,0-0.8,0-0.8,0.1c-0.1,0.1-0.8,2.4-0.8,2.6
			c0,0.1,0.1,0.1,0.8,0.1C2424.7,130.9,2425,130.9,2425,130.8L2425,130.8z M2429.8,134.5c0,0,0.6-2.3,1.4-5l1.5-5l2.2,0
			c1.2,0,2.3,0,2.3,0c0,0-0.3,1.4-0.8,3.1c-0.5,1.7-0.9,3.1-0.9,3.2c0,0.1,0.1,0.1,0.8,0.1l0.8,0l0.9-3.1c0.5-1.7,1-3.2,1-3.2
			c0.1-0.1,4.4-0.1,4.5,0c0,0-0.6,2.3-1.4,5l-1.5,5l-5.4,0C2432.3,134.5,2429.8,134.5,2429.8,134.5L2429.8,134.5z M2441.7,134.5
			c0,0,0.6-2.3,1.4-5l1.5-5l5.4,0c3,0,5.4,0,5.4,0c0,0-0.6,2.3-1.4,5l-1.5,5l-2.2,0c-1.2,0-2.3,0-2.3,0c0,0,0.3-1.4,0.8-3.1
			c0.5-1.7,0.9-3.1,0.9-3.2c0-0.1-0.1-0.1-0.8-0.1l-0.8,0l-0.9,3.1c-0.5,1.7-1,3.2-1,3.2C2446.1,134.6,2441.8,134.6,2441.7,134.5
			L2441.7,134.5z M2455.2,131.2c-0.3-0.2-0.3-0.5,0-1.7c0.2-0.8,0.3-1.1,0.5-1.2c0.4-0.4,1-0.2,1.1,0.3c0.1,0.4-0.5,2.3-0.7,2.5
			C2455.9,131.4,2455.5,131.4,2455.2,131.2L2455.2,131.2z"/>
		<path id="path2989-1_10_" inkscape:connector-curvature="0" class="st10" d="M2431.6,135.6c-0.7,0-1.1,0.1-1.6,0.5
			c-0.7,0.7-0.8,1.9-0.6,2.7c0.4,0.9,1.4,1.2,1.8,1.4c-1.1-0.9-0.7-2.7,0.4-3.5h0.9c2.1,0,2-0.2,2,1.3h0c0-2,0-2.4-1.8-2.4
			C2432.3,135.6,2431.9,135.6,2431.6,135.6L2431.6,135.6z M2435.2,139.7c-0.2,1.3-1,1.5-2.6,1.5l0,0h-4.7l-0.4,1.5l4.8,0h0
			C2434,142.6,2434.9,141.2,2435.2,139.7L2435.2,139.7z"/>
	</g>
	<g>
		<path id="path2987_9_" inkscape:connector-curvature="0" class="st10" d="M2793.8,148c0-0.1,3.3-11.6,3.4-11.8
			c0.1-0.1,4.5-0.1,4.5,0c0,0-0.5,1.9-1.1,4c-0.6,2.2-1.1,4-1.1,4.1c0.1,0.1,1.5,0.1,1.6,0c0.1-0.1,2.9-9.7,2.8-9.7
			c0,0-1.3-0.1-3.1-0.1c-1.7,0-3.1,0-3.1-0.1c0,0,0.6-2.3,1.4-5l1.5-5l5.4,0c3,0,5.4,0,5.4,0s-0.8,3.2-2,6.9
			c-1.1,3.8-2.6,9-3.4,11.7s-1.4,4.8-1.5,4.9c-0.1,0.1-0.4,0.1-5.5,0.1C2796.3,148.1,2793.8,148.1,2793.8,148L2793.8,148z
			 M2805,130.8c0.1-0.1,0.8-2.4,0.8-2.6c0-0.1-0.1-0.1-0.8-0.1c-0.5,0-0.8,0-0.8,0.1c-0.1,0.1-0.8,2.4-0.8,2.6
			c0,0.1,0.1,0.1,0.8,0.1C2804.7,130.9,2805,130.9,2805,130.8L2805,130.8z M2809.8,134.5c0,0,0.6-2.3,1.4-5l1.5-5l2.2,0
			c1.2,0,2.3,0,2.3,0c0,0-0.3,1.4-0.8,3.1c-0.5,1.7-0.9,3.1-0.9,3.2c0,0.1,0.1,0.1,0.8,0.1l0.8,0l0.9-3.1c0.5-1.7,1-3.2,1-3.2
			c0.1-0.1,4.4-0.1,4.5,0c0,0-0.6,2.3-1.4,5l-1.5,5l-5.4,0C2812.3,134.5,2809.8,134.5,2809.8,134.5L2809.8,134.5z M2821.7,134.5
			c0,0,0.6-2.3,1.4-5l1.5-5l5.4,0c3,0,5.4,0,5.4,0c0,0-0.6,2.3-1.4,5l-1.5,5l-2.2,0c-1.2,0-2.3,0-2.3,0c0,0,0.3-1.4,0.8-3.1
			c0.5-1.7,0.9-3.1,0.9-3.2c0-0.1-0.1-0.1-0.8-0.1l-0.8,0l-0.9,3.1c-0.5,1.7-1,3.2-1,3.2C2826.1,134.6,2821.8,134.6,2821.7,134.5
			L2821.7,134.5z M2835.2,131.2c-0.3-0.2-0.3-0.5,0-1.7c0.2-0.8,0.3-1.1,0.5-1.2c0.4-0.4,1-0.2,1.1,0.3c0.1,0.4-0.5,2.3-0.7,2.5
			C2835.9,131.4,2835.5,131.4,2835.2,131.2L2835.2,131.2z"/>
		<path id="path2989-1_9_" inkscape:connector-curvature="0" class="st10" d="M2811.6,135.6c-0.7,0-1.1,0.1-1.6,0.5
			c-0.7,0.7-0.8,1.9-0.6,2.7c0.4,0.9,1.4,1.2,1.8,1.4c-1.1-0.9-0.7-2.7,0.4-3.5h0.9c2.1,0,2-0.2,2,1.3h0c0-2,0-2.4-1.8-2.4
			C2812.3,135.6,2811.9,135.6,2811.6,135.6L2811.6,135.6z M2815.2,139.7c-0.2,1.3-1,1.5-2.6,1.5l0,0h-4.7l-0.4,1.5l4.8,0h0
			C2814,142.6,2814.9,141.2,2815.2,139.7L2815.2,139.7z"/>
	</g>
</g>
<rect x="2267.3" y="39.2" class="st11" width="156.7" height="104.3"/>
<g>
	<path class="st12" d="M2383.1,129h-73.4V81.4h73.4V129z M2313.9,124.9h65.1V85.5h-65.1V124.9z"/>
</g>
<path class="st8" d="M2261.7,34.1v114.2h169.4V34.1H2261.7z M2273.1,136.5V45.8h146.8v90.7H2273.1z"/>
<g>
	<g>
		<path class="st13" d="M2321.5,195.5l-2.5-0.1c0,0,0-0.9,0-2.5c0-1.6-0.1-3.9-0.2-6.6c-0.3-5.7-0.9-13-1.8-20
			c-0.2-1.7-0.5-3.4-0.7-5.1l0-0.3c-0.2-1.7-0.5-3.4-0.9-5.2c-0.3-1.7-0.6-3.4-1-4.9c-0.4-1.7-0.7-3.1-1-4.4c-0.3-1.2-0.7-2.5-1-3.7
			l-0.1-0.2c-0.3-1-0.6-1.9-0.8-2.6c-0.5-1.5-0.9-2.4-0.9-2.4l2.3-0.9c0,0,0.4,1,0.9,2.6c0.3,0.7,0.5,1.6,0.8,2.7l0.1,0.2
			c0.4,1.2,0.7,2.5,1,3.8c0.3,1.3,0.7,2.8,1.1,4.5c0.3,1.5,0.7,3.2,1,5c0.3,1.8,0.6,3.6,0.9,5.3l0,0.3c0.2,1.7,0.5,3.4,0.7,5.2
			c0.9,7,1.6,14.4,1.9,20.2c0.1,2.7,0.2,5,0.2,6.7C2321.5,194.6,2321.5,195.5,2321.5,195.5z"/>
	</g>
	<g>
		<path class="st13" d="M2371.4,195.5c0,0,0-0.9,0-2.6c0-1.7,0.1-4,0.2-6.7c0.3-5.8,0.9-13.1,1.9-20.2c0.2-1.7,0.5-3.4,0.7-5.1
			l0-0.3c0.3-1.7,0.5-3.5,0.9-5.3c0.3-1.8,0.7-3.4,1-5c0.4-1.7,0.7-3.2,1.1-4.5c0.3-1.3,0.7-2.6,1-3.8l0.1-0.2
			c0.3-1,0.6-1.9,0.8-2.7c0.5-1.6,0.9-2.5,0.9-2.6l2.3,0.9c0,0-0.4,0.9-0.9,2.4c-0.3,0.7-0.5,1.6-0.8,2.6l-0.1,0.2
			c-0.4,1.1-0.7,2.4-1,3.7c-0.3,1.3-0.7,2.7-1,4.4c-0.3,1.5-0.7,3.2-1,4.9c-0.3,1.8-0.6,3.6-0.9,5.2l0,0.3c-0.2,1.7-0.5,3.4-0.7,5.1
			c-0.9,7-1.6,14.3-1.8,20c-0.1,2.6-0.2,4.9-0.2,6.6c0,1.6,0,2.4,0,2.5L2371.4,195.5z"/>
	</g>
	<g>
		<polygon class="st13" points="2372.4,196.7 2319.4,186.1 2319.4,183.8 2366.3,175.6 2317.8,167.5 2317.6,165.1 2370.5,155.4 
			2337.5,146.8 2338.1,144.4 2376.6,154.4 2376.1,156.8 2325.4,166.2 2373.7,174.3 2373.3,176.9 2326.8,185 2372.9,194.3 		"/>
	</g>
	<g>
		<polygon class="st13" points="2320.2,196.7 2373.2,186.1 2373.1,183.8 2326.3,175.6 2374.8,167.5 2375,165.1 2322,155.4 
			2355.1,146.8 2354.4,144.4 2315.9,154.4 2316.4,156.8 2367.2,166.2 2318.9,174.3 2319.2,176.9 2365.8,185 2319.7,194.3 		"/>
	</g>
	<g>
		<path class="st13" d="M2329.1,205.9c-5.6,0-10.1-6-10.1-10.9h2.5c0,3.8,3.5,8.4,7.6,8.4c4.1,0,7.4-3.1,7.4-6.9h2.5
			C2339,201.7,2334.6,205.9,2329.1,205.9z"/>
	</g>
	<g>
		<path class="st13" d="M2346.5,205.9c-5.5,0-9.9-4.2-9.9-9.4h2.5c0,3.8,3.3,6.9,7.4,6.9c4.1,0,7.4-3.1,7.4-6.9h2.5
			C2356.3,201.7,2351.9,205.9,2346.5,205.9z"/>
	</g>
	<g>
		<path class="st13" d="M2363.8,205.9c-5.5,0-9.9-4.2-9.9-9.4h2.5c0,3.8,3.3,6.9,7.4,6.9c4.1,0,7.6-4.6,7.6-8.3h2.5
			C2373.9,200.1,2369.5,205.9,2363.8,205.9z"/>
	</g>
	<g>
		<rect x="2336.6" y="145.3" class="st13" width="2.5" height="53.3"/>
	</g>
	<g>
		<rect x="2353.9" y="145.6" class="st13" width="2.5" height="51.6"/>
	</g>
</g>
<g>
	<path class="st14" d="M2346.5,147.6c-9.4,0-18.3-1-25-2.8c-7.7-2.1-11.7-5-11.7-8.6c0-3.6,3.9-6.5,11.7-8.6
		c6.7-1.8,15.6-2.8,25-2.8c9.4,0,18.3,1,25,2.8c7.7,2.1,11.7,5,11.7,8.6c0,3.6-3.9,6.5-11.7,8.6
		C2364.8,146.6,2355.9,147.6,2346.5,147.6z M2346.5,129c-21.1,0-32.6,4.8-32.6,7.3c0,2.5,11.5,7.3,32.6,7.3
		c21.1,0,32.6-4.8,32.6-7.3C2379,133.8,2367.5,129,2346.5,129z"/>
</g>
<g>
	<g>
		<path id="path2987_8_" inkscape:connector-curvature="0" class="st10" d="M1933.8,312c0-0.1,3.3-11.6,3.4-11.8
			c0.1-0.1,4.5-0.1,4.5,0c0,0-0.5,1.9-1.1,4c-0.6,2.2-1.1,4-1.1,4.1c0.1,0.1,1.5,0.1,1.6,0c0.1-0.1,2.9-9.7,2.8-9.7
			c0,0-1.3-0.1-3.1-0.1c-1.7,0-3.1,0-3.1-0.1c0,0,0.6-2.3,1.4-5l1.5-5l5.4,0c3,0,5.4,0,5.4,0c0,0-0.8,3.2-2,6.9
			c-1.1,3.8-2.6,9-3.4,11.7c-0.8,2.6-1.4,4.8-1.5,4.9c-0.1,0.1-0.4,0.1-5.5,0.1C1936.3,312.1,1933.8,312.1,1933.8,312L1933.8,312z
			 M1945,294.8c0.1-0.1,0.8-2.4,0.8-2.6c0-0.1-0.1-0.1-0.8-0.1c-0.5,0-0.8,0-0.8,0.1c-0.1,0.1-0.8,2.4-0.8,2.6
			c0,0.1,0.1,0.1,0.8,0.1C1944.7,294.9,1945,294.9,1945,294.8L1945,294.8z M1949.8,298.5c0,0,0.6-2.3,1.4-5l1.5-5l2.2,0
			c1.2,0,2.3,0,2.3,0c0,0-0.3,1.4-0.8,3.1c-0.5,1.7-0.9,3.1-0.9,3.2c0,0.1,0.1,0.1,0.8,0.1l0.8,0l0.9-3.1c0.5-1.7,1-3.2,1-3.2
			c0.1-0.1,4.4-0.1,4.5,0c0,0-0.6,2.3-1.4,5l-1.5,5l-5.4,0C1952.3,298.5,1949.8,298.5,1949.8,298.5L1949.8,298.5z M1961.7,298.5
			c0,0,0.6-2.3,1.4-5l1.5-5l5.4,0c3,0,5.4,0,5.4,0c0,0-0.6,2.3-1.4,5l-1.5,5l-2.2,0c-1.2,0-2.3,0-2.3,0c0,0,0.3-1.4,0.8-3.1
			c0.5-1.7,0.9-3.1,0.9-3.2c0-0.1-0.1-0.1-0.8-0.1l-0.8,0l-0.9,3.1c-0.5,1.7-1,3.2-1,3.2C1966.1,298.6,1961.8,298.6,1961.7,298.5
			L1961.7,298.5z M1975.2,295.2c-0.3-0.2-0.3-0.5,0-1.7c0.2-0.8,0.3-1.1,0.5-1.2c0.4-0.4,1-0.2,1.1,0.3c0.1,0.4-0.5,2.3-0.7,2.5
			C1975.9,295.4,1975.5,295.4,1975.2,295.2L1975.2,295.2z"/>
		<path id="path2989-1_8_" inkscape:connector-curvature="0" class="st10" d="M1951.6,299.6c-0.7,0-1.1,0.1-1.6,0.5
			c-0.7,0.7-0.8,1.9-0.6,2.7c0.4,0.9,1.4,1.2,1.8,1.4c-1.1-0.9-0.7-2.7,0.4-3.5h0.9c2.1,0,2-0.2,2,1.3h0c0-2,0-2.4-1.8-2.4
			C1952.3,299.6,1951.9,299.6,1951.6,299.6L1951.6,299.6z M1955.2,303.7c-0.2,1.3-1,1.5-2.6,1.5l0,0h-4.7l-0.4,1.5h4.8h0
			C1954,306.6,1954.9,305.2,1955.2,303.7L1955.2,303.7z"/>
	</g>
	<g>
		<path id="path2987_7_" inkscape:connector-curvature="0" class="st10" d="M2273.8,312c0-0.1,3.3-11.6,3.4-11.8
			c0.1-0.1,4.5-0.1,4.5,0c0,0-0.5,1.9-1.1,4c-0.6,2.2-1.1,4-1.1,4.1c0.1,0.1,1.5,0.1,1.6,0c0.1-0.1,2.9-9.7,2.8-9.7
			c0,0-1.3-0.1-3.1-0.1c-1.7,0-3.1,0-3.1-0.1c0,0,0.6-2.3,1.4-5l1.5-5l5.4,0c3,0,5.4,0,5.4,0s-0.8,3.2-2,6.9
			c-1.1,3.8-2.6,9-3.4,11.7c-0.8,2.6-1.4,4.8-1.5,4.9c-0.1,0.1-0.4,0.1-5.5,0.1C2276.3,312.1,2273.8,312.1,2273.8,312L2273.8,312z
			 M2285,294.8c0.1-0.1,0.8-2.4,0.8-2.6c0-0.1-0.1-0.1-0.8-0.1c-0.5,0-0.8,0-0.8,0.1c-0.1,0.1-0.8,2.4-0.8,2.6
			c0,0.1,0.1,0.1,0.8,0.1C2284.7,294.9,2285,294.9,2285,294.8L2285,294.8z M2289.8,298.5c0,0,0.6-2.3,1.4-5l1.5-5l2.2,0
			c1.2,0,2.3,0,2.3,0c0,0-0.3,1.4-0.8,3.1c-0.5,1.7-0.9,3.1-0.9,3.2c0,0.1,0.1,0.1,0.8,0.1l0.8,0l0.9-3.1c0.5-1.7,1-3.2,1-3.2
			c0.1-0.1,4.4-0.1,4.5,0c0,0-0.6,2.3-1.4,5l-1.5,5l-5.4,0C2292.3,298.5,2289.8,298.5,2289.8,298.5L2289.8,298.5z M2301.7,298.5
			c0,0,0.6-2.3,1.4-5l1.5-5l5.4,0c3,0,5.4,0,5.4,0s-0.6,2.3-1.4,5l-1.5,5l-2.2,0c-1.2,0-2.3,0-2.3,0c0,0,0.3-1.4,0.8-3.1
			c0.5-1.7,0.9-3.1,0.9-3.2c0-0.1-0.1-0.1-0.8-0.1l-0.8,0l-0.9,3.1c-0.5,1.7-1,3.2-1,3.2C2306.1,298.6,2301.8,298.6,2301.7,298.5
			L2301.7,298.5z M2315.2,295.2c-0.3-0.2-0.3-0.5,0-1.7c0.2-0.8,0.3-1.1,0.5-1.2c0.4-0.4,1-0.2,1.1,0.3c0.1,0.4-0.5,2.3-0.7,2.5
			C2315.9,295.4,2315.5,295.4,2315.2,295.2L2315.2,295.2z"/>
		<path id="path2989-1_7_" inkscape:connector-curvature="0" class="st10" d="M2291.6,299.6c-0.7,0-1.1,0.1-1.6,0.5
			c-0.7,0.7-0.8,1.9-0.6,2.7c0.4,0.9,1.4,1.2,1.8,1.4c-1.1-0.9-0.7-2.7,0.4-3.5h0.9c2.1,0,2-0.2,2,1.3h0c0-2,0-2.4-1.8-2.4
			C2292.3,299.6,2291.9,299.6,2291.6,299.6L2291.6,299.6z M2295.2,303.7c-0.2,1.3-1,1.5-2.6,1.5l0,0h-4.7l-0.4,1.5h4.8h0
			C2294,306.6,2294.9,305.2,2295.2,303.7L2295.2,303.7z"/>
	</g>
	<g>
		<path id="path2987_6_" inkscape:connector-curvature="0" class="st10" d="M2653.8,312c0-0.1,3.3-11.6,3.4-11.8
			c0.1-0.1,4.5-0.1,4.5,0c0,0-0.5,1.9-1.1,4c-0.6,2.2-1.1,4-1.1,4.1c0.1,0.1,1.5,0.1,1.6,0c0.1-0.1,2.9-9.7,2.8-9.7
			c0,0-1.3-0.1-3.1-0.1c-1.7,0-3.1,0-3.1-0.1c0,0,0.6-2.3,1.4-5l1.5-5l5.4,0c3,0,5.4,0,5.4,0s-0.8,3.2-2,6.9
			c-1.1,3.8-2.6,9-3.4,11.7c-0.8,2.6-1.4,4.8-1.5,4.9c-0.1,0.1-0.4,0.1-5.5,0.1C2656.3,312.1,2653.8,312.1,2653.8,312L2653.8,312z
			 M2665,294.8c0.1-0.1,0.8-2.4,0.8-2.6c0-0.1-0.1-0.1-0.8-0.1c-0.5,0-0.8,0-0.8,0.1c-0.1,0.1-0.8,2.4-0.8,2.6
			c0,0.1,0.1,0.1,0.8,0.1C2664.7,294.9,2665,294.9,2665,294.8L2665,294.8z M2669.8,298.5c0,0,0.6-2.3,1.4-5l1.5-5l2.2,0
			c1.2,0,2.3,0,2.3,0c0,0-0.3,1.4-0.8,3.1c-0.5,1.7-0.9,3.1-0.9,3.2c0,0.1,0.1,0.1,0.8,0.1l0.8,0l0.9-3.1c0.5-1.7,1-3.2,1-3.2
			c0.1-0.1,4.4-0.1,4.5,0c0,0-0.6,2.3-1.4,5l-1.5,5l-5.4,0C2672.3,298.5,2669.8,298.5,2669.8,298.5L2669.8,298.5z M2681.7,298.5
			c0,0,0.6-2.3,1.4-5l1.5-5l5.4,0c3,0,5.4,0,5.4,0s-0.6,2.3-1.4,5l-1.5,5l-2.2,0c-1.2,0-2.3,0-2.3,0c0,0,0.3-1.4,0.8-3.1
			c0.5-1.7,0.9-3.1,0.9-3.2c0-0.1-0.1-0.1-0.8-0.1l-0.8,0l-0.9,3.1c-0.5,1.7-1,3.2-1,3.2C2686.1,298.6,2681.8,298.6,2681.7,298.5
			L2681.7,298.5z M2695.2,295.2c-0.3-0.2-0.3-0.5,0-1.7c0.2-0.8,0.3-1.1,0.5-1.2c0.4-0.4,1-0.2,1.1,0.3c0.1,0.4-0.5,2.3-0.7,2.5
			C2695.9,295.4,2695.5,295.4,2695.2,295.2L2695.2,295.2z"/>
		<path id="path2989-1_6_" inkscape:connector-curvature="0" class="st10" d="M2671.6,299.6c-0.7,0-1.1,0.1-1.6,0.5
			c-0.7,0.7-0.8,1.9-0.6,2.7c0.4,0.9,1.4,1.2,1.8,1.4c-1.1-0.9-0.7-2.7,0.4-3.5h0.9c2.1,0,2-0.2,2,1.3h0c0-2,0-2.4-1.8-2.4
			C2672.3,299.6,2671.9,299.6,2671.6,299.6L2671.6,299.6z M2675.2,303.7c-0.2,1.3-1,1.5-2.6,1.5l0,0h-4.7l-0.4,1.5h4.8h0
			C2674,306.6,2674.9,305.2,2675.2,303.7L2675.2,303.7z"/>
	</g>
</g>
</svg>
