<!-- Generator: Adobe Illustrator 19.2.1, SVG Export Plug-In  -->
<svg version="1.1"
	 xmlns="http://www.w3.org/2000/svg" xmlns:xlink="http://www.w3.org/1999/xlink" xmlns:a="http://ns.adobe.com/AdobeSVGViewerExtensions/3.0/"
	 x="0px" y="0px" width="4694.2px" height="845.7px" viewBox="0 0 4694.2 845.7" style="enable-background:new 0 0 4694.2 845.7;"
	 xml:space="preserve">
<style type="text/css">
	.st0{fill:url(#SVGID_1_);}
	.st1{fill:#CCCCCC;}
	.st2{fill:#666666;}
	.st3{fill:none;}
	.st4{fill:#B64921;}
	.st5{fill:#999999;}
	.st6{clip-path:url(#SVGID_3_);fill:#624373;}
	.st7{clip-path:url(#SVGID_3_);}
	.st8{fill:#F3622C;}
	.st9{fill:#624373;}
	.st10{fill:none;stroke:#624373;stroke-width:5.8319;stroke-miterlimit:10;}
	.st11{opacity:0.95;fill:#FFFFFF;enable-background:new    ;}
	.st12{fill:#F2E9D6;}
	.st13{fill:#EF7752;}
	.st14{fill:#E6EDED;}
	.st15{fill:#F15A24;}
	.st16{fill:url(#SVGID_4_);}
	.st17{clip-path:url(#SVGID_6_);fill:#624373;}
	.st18{clip-path:url(#SVGID_6_);}
</style>
<defs>
</defs>
<g>
	<linearGradient id="SVGID_1_" gradientUnits="userSpaceOnUse" x1="2346.4512" y1="-2.301203e-08" x2="2346.4512" y2="389.9749">
		<stop  offset="0" style="stop-color:#666666"/>
		<stop  offset="1" style="stop-color:#999999"/>
	</linearGradient>
	<rect x="1833.9" class="st0" width="1025.1" height="390"/>
	<rect x="2339.1" y="139.3" class="st1" width="14.8" height="267.2"/>
	<g>
		<g>
			<path class="st2" d="M1900.4,207.4h-1.9c-0.1-0.5-0.2-1.1-0.2-1.8c0-0.7,0-1.5,0.2-2c0,0,0,0,0-0.1c2.2-1.4,3.6-3.8,3.6-6.6
				c0-4.4-3.5-7.9-7.9-7.9c-4.4,0-7.9,3.5-7.9,7.9c0,2.8,1.4,5.2,3.6,6.6c0,0,0,0,0,0.1c0.2,0.5,0.3,1.3,0.2,2
				c0,0.6-0.1,1.2-0.2,1.8h-1.9c-4.5,0-8.2,3.7-8.2,8.2v13.9h28.9v-13.9C1908.6,211.1,1904.9,207.4,1900.4,207.4z"/>
			<path class="st2" d="M1850.2,207.4h-1.9c-0.1-0.5-0.2-1.1-0.2-1.8c0-0.7,0-1.5,0.2-2c0,0,0,0,0-0.1c2.2-1.4,3.6-3.8,3.6-6.6
				c0-4.4-3.5-7.9-7.9-7.9s-7.9,3.5-7.9,7.9c0,2.8,1.4,5.2,3.6,6.6c0,0,0,0,0,0.1c0.2,0.5,0.3,1.3,0.2,2c0,0.6-0.1,1.2-0.2,1.8h-1.9
				c-4.5,0-8.2,3.7-8.2,8.2v13.9h28.9v-13.9C1858.4,211.1,1854.7,207.4,1850.2,207.4z"/>
			<path class="st2" d="M1950.5,207.4h-1.9c-0.1-0.5-0.2-1.1-0.2-1.8c0-0.7,0-1.5,0.2-2c0,0,0,0,0-0.1c2.2-1.4,3.6-3.8,3.6-6.6
				c0-4.4-3.5-7.9-7.9-7.9c-4.4,0-7.9,3.5-7.9,7.9c0,2.8,1.4,5.2,3.6,6.6c0,0,0,0,0,0.1c0.2,0.5,0.3,1.3,0.2,2
				c0,0.6-0.1,1.2-0.2,1.8h-1.9c-4.5,0-8.2,3.7-8.2,8.2v13.9h28.9v-13.9C1958.7,211.1,1955.1,207.4,1950.5,207.4z"/>
			<path class="st2" d="M2000.7,207.4h-1.9c-0.1-0.5-0.2-1.1-0.2-1.8c0-0.7,0-1.5,0.2-2c0,0,0,0,0-0.1c2.2-1.4,3.6-3.8,3.6-6.6
				c0-4.4-3.5-7.9-7.9-7.9c-4.4,0-7.9,3.5-7.9,7.9c0,2.8,1.4,5.2,3.6,6.6c0,0,0,0,0,0.1c0.2,0.5,0.3,1.3,0.2,2
				c0,0.6-0.1,1.2-0.2,1.8h-1.9c-4.5,0-8.2,3.7-8.2,8.2v13.9h28.9v-13.9C2008.9,211.1,2005.3,207.4,2000.7,207.4z"/>
			<path class="st2" d="M2050.9,207.4h-1.9c-0.1-0.5-0.2-1.1-0.2-1.8c0-0.7,0-1.5,0.2-2c0,0,0,0,0-0.1c2.2-1.4,3.6-3.8,3.6-6.6
				c0-4.4-3.5-7.9-7.9-7.9c-4.4,0-7.9,3.5-7.9,7.9c0,2.8,1.4,5.2,3.6,6.6c0,0,0,0,0,0.1c0.2,0.5,0.3,1.3,0.2,2
				c0,0.6-0.1,1.2-0.2,1.8h-1.9c-4.5,0-8.2,3.7-8.2,8.2v13.9h28.9v-13.9C2059.1,211.1,2055.4,207.4,2050.9,207.4z"/>
			<path class="st2" d="M2101.1,207.4h-1.9c-0.1-0.5-0.2-1.1-0.2-1.8c0-0.7,0-1.5,0.2-2c0,0,0,0,0-0.1c2.2-1.4,3.6-3.8,3.6-6.6
				c0-4.4-3.5-7.9-7.9-7.9c-4.4,0-7.9,3.5-7.9,7.9c0,2.8,1.4,5.2,3.6,6.6c0,0,0,0,0,0.1c0.2,0.5,0.3,1.3,0.2,2
				c0,0.6-0.1,1.2-0.2,1.8h-1.9c-4.5,0-8.2,3.7-8.2,8.2v13.9h28.9v-13.9C2109.3,211.1,2105.6,207.4,2101.1,207.4z"/>
			<path class="st2" d="M2151.3,207.4h-1.9c-0.1-0.5-0.2-1.1-0.2-1.8c0-0.7,0-1.5,0.2-2c0,0,0,0,0-0.1c2.2-1.4,3.6-3.8,3.6-6.6
				c0-4.4-3.5-7.9-7.9-7.9c-4.4,0-7.9,3.5-7.9,7.9c0,2.8,1.4,5.2,3.6,6.6c0,0,0,0,0,0.1c0.2,0.5,0.3,1.3,0.2,2
				c0,0.6-0.1,1.2-0.2,1.8h-1.9c-4.5,0-8.2,3.7-8.2,8.2v13.9h28.9v-13.9C2159.5,211.1,2155.8,207.4,2151.3,207.4z"/>
			<path class="st2" d="M2201.4,207.4h-1.9c-0.1-0.5-0.2-1.1-0.2-1.8c0-0.7,0-1.5,0.2-2c0,0,0,0,0-0.1c2.2-1.4,3.6-3.8,3.6-6.6
				c0-4.4-3.5-7.9-7.9-7.9s-7.9,3.5-7.9,7.9c0,2.8,1.4,5.2,3.6,6.6c0,0,0,0,0,0.1c0.2,0.5,0.3,1.3,0.2,2c0,0.6-0.1,1.2-0.2,1.8h-1.9
				c-4.5,0-8.2,3.7-8.2,8.2v13.9h28.9v-13.9C2209.7,211.1,2206,207.4,2201.4,207.4z"/>
			<path class="st2" d="M2251.6,207.4h-1.9c-0.1-0.5-0.2-1.1-0.2-1.8c0-0.7,0-1.5,0.2-2c0,0,0,0,0-0.1c2.2-1.4,3.6-3.8,3.6-6.6
				c0-4.4-3.5-7.9-7.9-7.9c-4.4,0-7.9,3.5-7.9,7.9c0,2.8,1.4,5.2,3.6,6.6c0,0,0,0,0,0.1c0.2,0.5,0.3,1.3,0.2,2
				c0,0.6-0.1,1.2-0.2,1.8h-1.9c-4.5,0-8.2,3.7-8.2,8.2v13.9h28.9v-13.9C2259.8,211.1,2256.2,207.4,2251.6,207.4z"/>
			<path class="st2" d="M2301.8,207.4h-1.9c-0.1-0.5-0.2-1.1-0.2-1.8c0-0.7,0-1.5,0.2-2c0,0,0,0,0-0.1c2.2-1.4,3.6-3.8,3.6-6.6
				c0-4.4-3.5-7.9-7.9-7.9c-4.4,0-7.9,3.5-7.9,7.9c0,2.8,1.4,5.2,3.6,6.6c0,0,0,0,0,0.1c0.2,0.5,0.3,1.3,0.2,2
				c0,0.6-0.1,1.2-0.2,1.8h-1.9c-4.5,0-8.2,3.7-8.2,8.2v13.9h28.9v-13.9C2310,211.1,2306.3,207.4,2301.8,207.4z"/>
			<path class="st2" d="M2352,207.4h-1.9c-0.1-0.5-0.2-1.1-0.2-1.8c0-0.7,0-1.5,0.2-2c0,0,0,0,0-0.1c2.2-1.4,3.6-3.8,3.6-6.6
				c0-4.4-3.5-7.9-7.9-7.9c-4.4,0-7.9,3.5-7.9,7.9c0,2.8,1.4,5.2,3.6,6.6c0,0,0,0,0,0.1c0.2,0.5,0.3,1.3,0.2,2
				c0,0.6-0.1,1.2-0.2,1.8h-1.9c-4.5,0-8.2,3.7-8.2,8.2v13.9h28.9v-13.9C2360.2,211.1,2356.5,207.4,2352,207.4z"/>
			<path class="st2" d="M2402.2,207.4h-1.9c-0.1-0.5-0.2-1.1-0.2-1.8c0-0.7,0-1.5,0.2-2c0,0,0,0,0-0.1c2.2-1.4,3.6-3.8,3.6-6.6
				c0-4.4-3.5-7.9-7.9-7.9s-7.9,3.5-7.9,7.9c0,2.8,1.4,5.2,3.6,6.6c0,0,0,0,0,0.1c0.2,0.5,0.3,1.3,0.2,2c0,0.6-0.1,1.2-0.2,1.8h-1.9
				c-4.5,0-8.2,3.7-8.2,8.2v13.9h28.9v-13.9C2410.4,211.1,2406.7,207.4,2402.2,207.4z"/>
			<path class="st2" d="M2452.3,207.4h-1.9c-0.1-0.5-0.2-1.1-0.2-1.8c0-0.7,0-1.5,0.2-2c0,0,0,0,0-0.1c2.2-1.4,3.6-3.8,3.6-6.6
				c0-4.4-3.5-7.9-7.9-7.9s-7.9,3.5-7.9,7.9c0,2.8,1.4,5.2,3.6,6.6c0,0,0,0,0,0.1c0.2,0.5,0.3,1.3,0.2,2c0,0.6-0.1,1.2-0.2,1.8h-1.9
				c-4.5,0-8.2,3.7-8.2,8.2v13.9h28.9v-13.9C2460.6,211.1,2456.9,207.4,2452.3,207.4z"/>
			<path class="st2" d="M2502.5,207.4h-1.9c-0.1-0.5-0.2-1.1-0.2-1.8c0-0.7,0-1.5,0.2-2c0,0,0,0,0-0.1c2.2-1.4,3.6-3.8,3.6-6.6
				c0-4.4-3.5-7.9-7.9-7.9c-4.4,0-7.9,3.5-7.9,7.9c0,2.8,1.4,5.2,3.6,6.6c0,0,0,0,0,0.1c0.2,0.5,0.3,1.3,0.2,2
				c0,0.6-0.1,1.2-0.2,1.8h-1.9c-4.5,0-8.2,3.7-8.2,8.2v13.9h28.9v-13.9C2510.7,211.1,2507.1,207.4,2502.5,207.4z"/>
			<path class="st2" d="M2552.7,208.6h-1.9c-0.1-0.5-0.2-1.1-0.2-1.8c0-0.7,0-1.5,0.2-2c0,0,0,0,0-0.1c2.2-1.4,3.6-3.8,3.6-6.6
				c0-4.4-3.5-7.9-7.9-7.9c-4.4,0-7.9,3.5-7.9,7.9c0,2.8,1.4,5.2,3.6,6.6c0,0,0,0,0,0.1c0.2,0.5,0.3,1.3,0.2,2
				c0,0.6-0.1,1.2-0.2,1.8h-1.9c-4.5,0-8.2,3.7-8.2,8.2v13.9h28.9v-13.9C2560.9,212.3,2557.2,208.6,2552.7,208.6z"/>
			<path class="st2" d="M2602.9,208.6h-1.9c-0.1-0.5-0.2-1.1-0.2-1.8c0-0.7,0-1.5,0.2-2c0,0,0,0,0-0.1c2.2-1.4,3.6-3.8,3.6-6.6
				c0-4.4-3.5-7.9-7.9-7.9c-4.4,0-7.9,3.5-7.9,7.9c0,2.8,1.4,5.2,3.6,6.6c0,0,0,0,0,0.1c0.2,0.5,0.3,1.3,0.2,2
				c0,0.6-0.1,1.2-0.2,1.8h-1.9c-4.5,0-8.2,3.7-8.2,8.2v13.9h28.9v-13.9C2611.1,212.3,2607.4,208.6,2602.9,208.6z"/>
			<path class="st2" d="M2653.1,208.6h-1.9c-0.1-0.5-0.2-1.1-0.2-1.8c0-0.7,0-1.5,0.2-2c0,0,0,0,0-0.1c2.2-1.4,3.6-3.8,3.6-6.6
				c0-4.4-3.5-7.9-7.9-7.9s-7.9,3.5-7.9,7.9c0,2.8,1.4,5.2,3.6,6.6c0,0,0,0,0,0.1c0.2,0.5,0.3,1.3,0.2,2c0,0.6-0.1,1.2-0.2,1.8h-1.9
				c-4.5,0-8.2,3.7-8.2,8.2v13.9h28.9v-13.9C2661.3,212.3,2657.6,208.6,2653.1,208.6z"/>
			<path class="st2" d="M2703.3,208.6h-1.9c-0.1-0.5-0.2-1.1-0.2-1.8c0-0.7,0-1.5,0.2-2c0,0,0,0,0-0.1c2.2-1.4,3.6-3.8,3.6-6.6
				c0-4.4-3.5-7.9-7.9-7.9s-7.9,3.5-7.9,7.9c0,2.8,1.4,5.2,3.6,6.6c0,0,0,0,0,0.1c0.2,0.5,0.3,1.3,0.2,2c0,0.6-0.1,1.2-0.2,1.8h-1.9
				c-4.5,0-8.2,3.7-8.2,8.2v13.9h28.9v-13.9C2711.5,212.3,2707.8,208.6,2703.3,208.6z"/>
			<path class="st2" d="M2753.4,208.6h-1.9c-0.1-0.5-0.2-1.1-0.2-1.8c0-0.7,0-1.5,0.2-2c0,0,0,0,0-0.1c2.2-1.4,3.6-3.8,3.6-6.6
				c0-4.4-3.5-7.9-7.9-7.9c-4.4,0-7.9,3.5-7.9,7.9c0,2.8,1.4,5.2,3.6,6.6c0,0,0,0,0,0.1c0.2,0.5,0.3,1.3,0.2,2
				c0,0.6-0.1,1.2-0.2,1.8h-1.9c-4.5,0-8.2,3.7-8.2,8.2v13.9h28.9v-13.9C2761.6,212.3,2758,208.6,2753.4,208.6z"/>
			<path class="st2" d="M2803.6,208.6h-1.9c-0.1-0.5-0.2-1.1-0.2-1.8c0-0.7,0-1.5,0.2-2c0,0,0,0,0-0.1c2.2-1.4,3.6-3.8,3.6-6.6
				c0-4.4-3.5-7.9-7.9-7.9c-4.4,0-7.9,3.5-7.9,7.9c0,2.8,1.4,5.2,3.6,6.6c0,0,0,0,0,0.1c0.2,0.5,0.3,1.3,0.2,2
				c0,0.6-0.1,1.2-0.2,1.8h-1.9c-4.5,0-8.2,3.7-8.2,8.2v13.9h28.9v-13.9C2811.8,212.3,2808.2,208.6,2803.6,208.6z"/>
			<path class="st2" d="M2853.8,208.6h-1.9c-0.1-0.5-0.2-1.1-0.2-1.8c0-0.7,0-1.5,0.2-2c0,0,0,0,0-0.1c2.2-1.4,3.6-3.8,3.6-6.6
				c0-4.4-3.5-7.9-7.9-7.9c-4.4,0-7.9,3.5-7.9,7.9c0,2.8,1.4,5.2,3.6,6.6c0,0,0,0,0,0.1c0.2,0.5,0.3,1.3,0.2,2
				c0,0.6-0.1,1.2-0.2,1.8h-1.9c-4.5,0-8.2,3.7-8.2,8.2v13.9h28.9v-13.9C2862,212.3,2858.3,208.6,2853.8,208.6z"/>
		</g>
		<g>
			<path class="st2" d="M1900.4,47.4h-1.9c-0.1-0.5-0.2-1.1-0.2-1.8c0-0.7,0-1.5,0.2-2c0,0,0,0,0-0.1c2.2-1.4,3.6-3.8,3.6-6.6
				c0-4.4-3.5-7.9-7.9-7.9c-4.4,0-7.9,3.5-7.9,7.9c0,2.8,1.4,5.2,3.6,6.6c0,0,0,0,0,0.1c0.2,0.5,0.3,1.3,0.2,2
				c0,0.6-0.1,1.2-0.2,1.8h-1.9c-4.5,0-8.2,3.7-8.2,8.2v13.9h28.9V55.6C1908.6,51.1,1904.9,47.4,1900.4,47.4z"/>
			<path class="st2" d="M1850.2,47.4h-1.9c-0.1-0.5-0.2-1.1-0.2-1.8c0-0.7,0-1.5,0.2-2c0,0,0,0,0-0.1c2.2-1.4,3.6-3.8,3.6-6.6
				c0-4.4-3.5-7.9-7.9-7.9s-7.9,3.5-7.9,7.9c0,2.8,1.4,5.2,3.6,6.6c0,0,0,0,0,0.1c0.2,0.5,0.3,1.3,0.2,2c0,0.6-0.1,1.2-0.2,1.8h-1.9
				c-4.5,0-8.2,3.7-8.2,8.2v13.9h28.9V55.6C1858.4,51.1,1854.7,47.4,1850.2,47.4z"/>
			<path class="st2" d="M1950.5,47.4h-1.9c-0.1-0.5-0.2-1.1-0.2-1.8c0-0.7,0-1.5,0.2-2c0,0,0,0,0-0.1c2.2-1.4,3.6-3.8,3.6-6.6
				c0-4.4-3.5-7.9-7.9-7.9c-4.4,0-7.9,3.5-7.9,7.9c0,2.8,1.4,5.2,3.6,6.6c0,0,0,0,0,0.1c0.2,0.5,0.3,1.3,0.2,2
				c0,0.6-0.1,1.2-0.2,1.8h-1.9c-4.5,0-8.2,3.7-8.2,8.2v13.9h28.9V55.6C1958.7,51.1,1955.1,47.4,1950.5,47.4z"/>
			<path class="st2" d="M2000.7,47.4h-1.9c-0.1-0.5-0.2-1.1-0.2-1.8c0-0.7,0-1.5,0.2-2c0,0,0,0,0-0.1c2.2-1.4,3.6-3.8,3.6-6.6
				c0-4.4-3.5-7.9-7.9-7.9c-4.4,0-7.9,3.5-7.9,7.9c0,2.8,1.4,5.2,3.6,6.6c0,0,0,0,0,0.1c0.2,0.5,0.3,1.3,0.2,2
				c0,0.6-0.1,1.2-0.2,1.8h-1.9c-4.5,0-8.2,3.7-8.2,8.2v13.9h28.9V55.6C2008.9,51.1,2005.3,47.4,2000.7,47.4z"/>
			<path class="st2" d="M2050.9,47.4h-1.9c-0.1-0.5-0.2-1.1-0.2-1.8c0-0.7,0-1.5,0.2-2c0,0,0,0,0-0.1c2.2-1.4,3.6-3.8,3.6-6.6
				c0-4.4-3.5-7.9-7.9-7.9c-4.4,0-7.9,3.5-7.9,7.9c0,2.8,1.4,5.2,3.6,6.6c0,0,0,0,0,0.1c0.2,0.5,0.3,1.3,0.2,2
				c0,0.6-0.1,1.2-0.2,1.8h-1.9c-4.5,0-8.2,3.7-8.2,8.2v13.9h28.9V55.6C2059.1,51.1,2055.4,47.4,2050.9,47.4z"/>
			<path class="st2" d="M2101.1,47.4h-1.9c-0.1-0.5-0.2-1.1-0.2-1.8c0-0.7,0-1.5,0.2-2c0,0,0,0,0-0.1c2.2-1.4,3.6-3.8,3.6-6.6
				c0-4.4-3.5-7.9-7.9-7.9c-4.4,0-7.9,3.5-7.9,7.9c0,2.8,1.4,5.2,3.6,6.6c0,0,0,0,0,0.1c0.2,0.5,0.3,1.3,0.2,2
				c0,0.6-0.1,1.2-0.2,1.8h-1.9c-4.5,0-8.2,3.7-8.2,8.2v13.9h28.9V55.6C2109.3,51.1,2105.6,47.4,2101.1,47.4z"/>
			<path class="st2" d="M2151.3,47.4h-1.9c-0.1-0.5-0.2-1.1-0.2-1.8c0-0.7,0-1.5,0.2-2c0,0,0,0,0-0.1c2.2-1.4,3.6-3.8,3.6-6.6
				c0-4.4-3.5-7.9-7.9-7.9c-4.4,0-7.9,3.5-7.9,7.9c0,2.8,1.4,5.2,3.6,6.6c0,0,0,0,0,0.1c0.2,0.5,0.3,1.3,0.2,2
				c0,0.6-0.1,1.2-0.2,1.8h-1.9c-4.5,0-8.2,3.7-8.2,8.2v13.9h28.9V55.6C2159.5,51.1,2155.8,47.4,2151.3,47.4z"/>
			<path class="st2" d="M2201.4,47.4h-1.9c-0.1-0.5-0.2-1.1-0.2-1.8c0-0.7,0-1.5,0.2-2c0,0,0,0,0-0.1c2.2-1.4,3.6-3.8,3.6-6.6
				c0-4.4-3.5-7.9-7.9-7.9s-7.9,3.5-7.9,7.9c0,2.8,1.4,5.2,3.6,6.6c0,0,0,0,0,0.1c0.2,0.5,0.3,1.3,0.2,2c0,0.6-0.1,1.2-0.2,1.8h-1.9
				c-4.5,0-8.2,3.7-8.2,8.2v13.9h28.9V55.6C2209.7,51.1,2206,47.4,2201.4,47.4z"/>
			<path class="st2" d="M2251.6,47.4h-1.9c-0.1-0.5-0.2-1.1-0.2-1.8c0-0.7,0-1.5,0.2-2c0,0,0,0,0-0.1c2.2-1.4,3.6-3.8,3.6-6.6
				c0-4.4-3.5-7.9-7.9-7.9c-4.4,0-7.9,3.5-7.9,7.9c0,2.8,1.4,5.2,3.6,6.6c0,0,0,0,0,0.1c0.2,0.5,0.3,1.3,0.2,2
				c0,0.6-0.1,1.2-0.2,1.8h-1.9c-4.5,0-8.2,3.7-8.2,8.2v13.9h28.9V55.6C2259.8,51.1,2256.2,47.4,2251.6,47.4z"/>
			<path class="st2" d="M2301.8,47.4h-1.9c-0.1-0.5-0.2-1.1-0.2-1.8c0-0.7,0-1.5,0.2-2c0,0,0,0,0-0.1c2.2-1.4,3.6-3.8,3.6-6.6
				c0-4.4-3.5-7.9-7.9-7.9c-4.4,0-7.9,3.5-7.9,7.9c0,2.8,1.4,5.2,3.6,6.6c0,0,0,0,0,0.1c0.2,0.5,0.3,1.3,0.2,2
				c0,0.6-0.1,1.2-0.2,1.8h-1.9c-4.5,0-8.2,3.7-8.2,8.2v13.9h28.9V55.6C2310,51.1,2306.3,47.4,2301.8,47.4z"/>
			<path class="st2" d="M2352,47.4h-1.9c-0.1-0.5-0.2-1.1-0.2-1.8c0-0.7,0-1.5,0.2-2c0,0,0,0,0-0.1c2.2-1.4,3.6-3.8,3.6-6.6
				c0-4.4-3.5-7.9-7.9-7.9c-4.4,0-7.9,3.5-7.9,7.9c0,2.8,1.4,5.2,3.6,6.6c0,0,0,0,0,0.1c0.2,0.5,0.3,1.3,0.2,2
				c0,0.6-0.1,1.2-0.2,1.8h-1.9c-4.5,0-8.2,3.7-8.2,8.2v13.9h28.9V55.6C2360.2,51.1,2356.5,47.4,2352,47.4z"/>
			<path class="st2" d="M2402.2,47.4h-1.9c-0.1-0.5-0.2-1.1-0.2-1.8c0-0.7,0-1.5,0.2-2c0,0,0,0,0-0.1c2.2-1.4,3.6-3.8,3.6-6.6
				c0-4.4-3.5-7.9-7.9-7.9s-7.9,3.5-7.9,7.9c0,2.8,1.4,5.2,3.6,6.6c0,0,0,0,0,0.1c0.2,0.5,0.3,1.3,0.2,2c0,0.6-0.1,1.2-0.2,1.8h-1.9
				c-4.5,0-8.2,3.7-8.2,8.2v13.9h28.9V55.6C2410.4,51.1,2406.7,47.4,2402.2,47.4z"/>
			<path class="st2" d="M2452.3,47.4h-1.9c-0.1-0.5-0.2-1.1-0.2-1.8c0-0.7,0-1.5,0.2-2c0,0,0,0,0-0.1c2.2-1.4,3.6-3.8,3.6-6.6
				c0-4.4-3.5-7.9-7.9-7.9s-7.9,3.5-7.9,7.9c0,2.8,1.4,5.2,3.6,6.6c0,0,0,0,0,0.1c0.2,0.5,0.3,1.3,0.2,2c0,0.6-0.1,1.2-0.2,1.8h-1.9
				c-4.5,0-8.2,3.7-8.2,8.2v13.9h28.9V55.6C2460.6,51.1,2456.9,47.4,2452.3,47.4z"/>
			<path class="st2" d="M2502.5,47.4h-1.9c-0.1-0.5-0.2-1.1-0.2-1.8c0-0.7,0-1.5,0.2-2c0,0,0,0,0-0.1c2.2-1.4,3.6-3.8,3.6-6.6
				c0-4.4-3.5-7.9-7.9-7.9c-4.4,0-7.9,3.5-7.9,7.9c0,2.8,1.4,5.2,3.6,6.6c0,0,0,0,0,0.1c0.2,0.5,0.3,1.3,0.2,2
				c0,0.6-0.1,1.2-0.2,1.8h-1.9c-4.5,0-8.2,3.7-8.2,8.2v13.9h28.9V55.6C2510.7,51.1,2507.1,47.4,2502.5,47.4z"/>
			<path class="st2" d="M2552.7,48.6h-1.9c-0.1-0.5-0.2-1.1-0.2-1.8c0-0.7,0-1.5,0.2-2c0,0,0,0,0-0.1c2.2-1.4,3.6-3.8,3.6-6.6
				c0-4.4-3.5-7.9-7.9-7.9c-4.4,0-7.9,3.5-7.9,7.9c0,2.8,1.4,5.2,3.6,6.6c0,0,0,0,0,0.1c0.2,0.5,0.3,1.3,0.2,2
				c0,0.6-0.1,1.2-0.2,1.8h-1.9c-4.5,0-8.2,3.7-8.2,8.2v13.9h28.9V56.8C2560.9,52.3,2557.2,48.6,2552.7,48.6z"/>
			<path class="st2" d="M2602.9,48.6h-1.9c-0.1-0.5-0.2-1.1-0.2-1.8c0-0.7,0-1.5,0.2-2c0,0,0,0,0-0.1c2.2-1.4,3.6-3.8,3.6-6.6
				c0-4.4-3.5-7.9-7.9-7.9c-4.4,0-7.9,3.5-7.9,7.9c0,2.8,1.4,5.2,3.6,6.6c0,0,0,0,0,0.1c0.2,0.5,0.3,1.3,0.2,2
				c0,0.6-0.1,1.2-0.2,1.8h-1.9c-4.5,0-8.2,3.7-8.2,8.2v13.9h28.9V56.8C2611.1,52.3,2607.4,48.6,2602.9,48.6z"/>
			<path class="st2" d="M2653.1,48.6h-1.9c-0.1-0.5-0.2-1.1-0.2-1.8c0-0.7,0-1.5,0.2-2c0,0,0,0,0-0.1c2.2-1.4,3.6-3.8,3.6-6.6
				c0-4.4-3.5-7.9-7.9-7.9s-7.9,3.5-7.9,7.9c0,2.8,1.4,5.2,3.6,6.6c0,0,0,0,0,0.1c0.2,0.5,0.3,1.3,0.2,2c0,0.6-0.1,1.2-0.2,1.8h-1.9
				c-4.5,0-8.2,3.7-8.2,8.2v13.9h28.9V56.8C2661.3,52.3,2657.6,48.6,2653.1,48.6z"/>
			<path class="st2" d="M2703.3,48.6h-1.9c-0.1-0.5-0.2-1.1-0.2-1.8c0-0.7,0-1.5,0.2-2c0,0,0,0,0-0.1c2.2-1.4,3.6-3.8,3.6-6.6
				c0-4.4-3.5-7.9-7.9-7.9s-7.9,3.5-7.9,7.9c0,2.8,1.4,5.2,3.6,6.6c0,0,0,0,0,0.1c0.2,0.5,0.3,1.3,0.2,2c0,0.6-0.1,1.2-0.2,1.8h-1.9
				c-4.5,0-8.2,3.7-8.2,8.2v13.9h28.9V56.8C2711.5,52.3,2707.8,48.6,2703.3,48.6z"/>
			<path class="st2" d="M2753.4,48.6h-1.9c-0.1-0.5-0.2-1.1-0.2-1.8c0-0.7,0-1.5,0.2-2c0,0,0,0,0-0.1c2.2-1.4,3.6-3.8,3.6-6.6
				c0-4.4-3.5-7.9-7.9-7.9c-4.4,0-7.9,3.5-7.9,7.9c0,2.8,1.4,5.2,3.6,6.6c0,0,0,0,0,0.1c0.2,0.5,0.3,1.3,0.2,2
				c0,0.6-0.1,1.2-0.2,1.8h-1.9c-4.5,0-8.2,3.7-8.2,8.2v13.9h28.9V56.8C2761.6,52.3,2758,48.6,2753.4,48.6z"/>
			<path class="st2" d="M2803.6,48.6h-1.9c-0.1-0.5-0.2-1.1-0.2-1.8c0-0.7,0-1.5,0.2-2c0,0,0,0,0-0.1c2.2-1.4,3.6-3.8,3.6-6.6
				c0-4.4-3.5-7.9-7.9-7.9c-4.4,0-7.9,3.5-7.9,7.9c0,2.8,1.4,5.2,3.6,6.6c0,0,0,0,0,0.1c0.2,0.5,0.3,1.3,0.2,2
				c0,0.6-0.1,1.2-0.2,1.8h-1.9c-4.5,0-8.2,3.7-8.2,8.2v13.9h28.9V56.8C2811.8,52.3,2808.2,48.6,2803.6,48.6z"/>
			<path class="st2" d="M2853.8,48.6h-1.9c-0.1-0.5-0.2-1.1-0.2-1.8c0-0.7,0-1.5,0.2-2c0,0,0,0,0-0.1c2.2-1.4,3.6-3.8,3.6-6.6
				c0-4.4-3.5-7.9-7.9-7.9c-4.4,0-7.9,3.5-7.9,7.9c0,2.8,1.4,5.2,3.6,6.6c0,0,0,0,0,0.1c0.2,0.5,0.3,1.3,0.2,2
				c0,0.6-0.1,1.2-0.2,1.8h-1.9c-4.5,0-8.2,3.7-8.2,8.2v13.9h28.9V56.8C2862,52.3,2858.3,48.6,2853.8,48.6z"/>
		</g>
		<g>
			<path class="st3" d="M1900.4,249.4h-1.9c-0.1-0.5-0.2-1.1-0.2-1.8c0-0.7,0-1.5,0.2-2c0,0,0,0,0-0.1c2.2-1.4,3.6-3.8,3.6-6.6
				c0-4.4-3.5-7.9-7.9-7.9c-4.4,0-7.9,3.5-7.9,7.9c0,2.8,1.4,5.2,3.6,6.6c0,0,0,0,0,0.1c0.2,0.5,0.3,1.3,0.2,2
				c0,0.6-0.1,1.2-0.2,1.8h-1.9c-4.5,0-8.2,3.7-8.2,8.2v13.9h28.9v-13.9C1908.6,253.1,1904.9,249.4,1900.4,249.4z"/>
			<path class="st3" d="M1850.2,249.4h-1.9c-0.1-0.5-0.2-1.1-0.2-1.8c0-0.7,0-1.5,0.2-2c0,0,0,0,0-0.1c2.2-1.4,3.6-3.8,3.6-6.6
				c0-4.4-3.5-7.9-7.9-7.9s-7.9,3.5-7.9,7.9c0,2.8,1.4,5.2,3.6,6.6c0,0,0,0,0,0.1c0.2,0.5,0.3,1.3,0.2,2c0,0.6-0.1,1.2-0.2,1.8h-1.9
				c-4.5,0-8.2,3.7-8.2,8.2v13.9h28.9v-13.9C1858.4,253.1,1854.7,249.4,1850.2,249.4z"/>
			<path class="st3" d="M1950.5,249.4h-1.9c-0.1-0.5-0.2-1.1-0.2-1.8c0-0.7,0-1.5,0.2-2c0,0,0,0,0-0.1c2.2-1.4,3.6-3.8,3.6-6.6
				c0-4.4-3.5-7.9-7.9-7.9c-4.4,0-7.9,3.5-7.9,7.9c0,2.8,1.4,5.2,3.6,6.6c0,0,0,0,0,0.1c0.2,0.5,0.3,1.3,0.2,2
				c0,0.6-0.1,1.2-0.2,1.8h-1.9c-4.5,0-8.2,3.7-8.2,8.2v13.9h28.9v-13.9C1958.7,253.1,1955.1,249.4,1950.5,249.4z"/>
			<path class="st3" d="M2000.7,249.4h-1.9c-0.1-0.5-0.2-1.1-0.2-1.8c0-0.7,0-1.5,0.2-2c0,0,0,0,0-0.1c2.2-1.4,3.6-3.8,3.6-6.6
				c0-4.4-3.5-7.9-7.9-7.9c-4.4,0-7.9,3.5-7.9,7.9c0,2.8,1.4,5.2,3.6,6.6c0,0,0,0,0,0.1c0.2,0.5,0.3,1.3,0.2,2
				c0,0.6-0.1,1.2-0.2,1.8h-1.9c-4.5,0-8.2,3.7-8.2,8.2v13.9h28.9v-13.9C2008.9,253.1,2005.3,249.4,2000.7,249.4z"/>
			<path class="st3" d="M2050.9,249.4h-1.9c-0.1-0.5-0.2-1.1-0.2-1.8c0-0.7,0-1.5,0.2-2c0,0,0,0,0-0.1c2.2-1.4,3.6-3.8,3.6-6.6
				c0-4.4-3.5-7.9-7.9-7.9c-4.4,0-7.9,3.5-7.9,7.9c0,2.8,1.4,5.2,3.6,6.6c0,0,0,0,0,0.1c0.2,0.5,0.3,1.3,0.2,2
				c0,0.6-0.1,1.2-0.2,1.8h-1.9c-4.5,0-8.2,3.7-8.2,8.2v13.9h28.9v-13.9C2059.1,253.1,2055.4,249.4,2050.9,249.4z"/>
			<path class="st3" d="M2101.1,249.4h-1.9c-0.1-0.5-0.2-1.1-0.2-1.8c0-0.7,0-1.5,0.2-2c0,0,0,0,0-0.1c2.2-1.4,3.6-3.8,3.6-6.6
				c0-4.4-3.5-7.9-7.9-7.9c-4.4,0-7.9,3.5-7.9,7.9c0,2.8,1.4,5.2,3.6,6.6c0,0,0,0,0,0.1c0.2,0.5,0.3,1.3,0.2,2
				c0,0.6-0.1,1.2-0.2,1.8h-1.9c-4.5,0-8.2,3.7-8.2,8.2v13.9h28.9v-13.9C2109.3,253.1,2105.6,249.4,2101.1,249.4z"/>
			<path class="st3" d="M2151.3,249.4h-1.9c-0.1-0.5-0.2-1.1-0.2-1.8c0-0.7,0-1.5,0.2-2c0,0,0,0,0-0.1c2.2-1.4,3.6-3.8,3.6-6.6
				c0-4.4-3.5-7.9-7.9-7.9c-4.4,0-7.9,3.5-7.9,7.9c0,2.8,1.4,5.2,3.6,6.6c0,0,0,0,0,0.1c0.2,0.5,0.3,1.3,0.2,2
				c0,0.6-0.1,1.2-0.2,1.8h-1.9c-4.5,0-8.2,3.7-8.2,8.2v13.9h28.9v-13.9C2159.5,253.1,2155.8,249.4,2151.3,249.4z"/>
			<path class="st3" d="M2201.4,249.4h-1.9c-0.1-0.5-0.2-1.1-0.2-1.8c0-0.7,0-1.5,0.2-2c0,0,0,0,0-0.1c2.2-1.4,3.6-3.8,3.6-6.6
				c0-4.4-3.5-7.9-7.9-7.9s-7.9,3.5-7.9,7.9c0,2.8,1.4,5.2,3.6,6.6c0,0,0,0,0,0.1c0.2,0.5,0.3,1.3,0.2,2c0,0.6-0.1,1.2-0.2,1.8h-1.9
				c-4.5,0-8.2,3.7-8.2,8.2v13.9h28.9v-13.9C2209.7,253.1,2206,249.4,2201.4,249.4z"/>
			<path class="st3" d="M2251.6,249.4h-1.9c-0.1-0.5-0.2-1.1-0.2-1.8c0-0.7,0-1.5,0.2-2c0,0,0,0,0-0.1c2.2-1.4,3.6-3.8,3.6-6.6
				c0-4.4-3.5-7.9-7.9-7.9c-4.4,0-7.9,3.5-7.9,7.9c0,2.8,1.4,5.2,3.6,6.6c0,0,0,0,0,0.1c0.2,0.5,0.3,1.3,0.2,2
				c0,0.6-0.1,1.2-0.2,1.8h-1.9c-4.5,0-8.2,3.7-8.2,8.2v13.9h28.9v-13.9C2259.8,253.1,2256.2,249.4,2251.6,249.4z"/>
			<path class="st3" d="M2301.8,249.4h-1.9c-0.1-0.5-0.2-1.1-0.2-1.8c0-0.7,0-1.5,0.2-2c0,0,0,0,0-0.1c2.2-1.4,3.6-3.8,3.6-6.6
				c0-4.4-3.5-7.9-7.9-7.9c-4.4,0-7.9,3.5-7.9,7.9c0,2.8,1.4,5.2,3.6,6.6c0,0,0,0,0,0.1c0.2,0.5,0.3,1.3,0.2,2
				c0,0.6-0.1,1.2-0.2,1.8h-1.9c-4.5,0-8.2,3.7-8.2,8.2v13.9h28.9v-13.9C2310,253.1,2306.3,249.4,2301.8,249.4z"/>
			<path class="st3" d="M2352,249.4h-1.9c-0.1-0.5-0.2-1.1-0.2-1.8c0-0.7,0-1.5,0.2-2c0,0,0,0,0-0.1c2.2-1.4,3.6-3.8,3.6-6.6
				c0-4.4-3.5-7.9-7.9-7.9c-4.4,0-7.9,3.5-7.9,7.9c0,2.8,1.4,5.2,3.6,6.6c0,0,0,0,0,0.1c0.2,0.5,0.3,1.3,0.2,2
				c0,0.6-0.1,1.2-0.2,1.8h-1.9c-4.5,0-8.2,3.7-8.2,8.2v13.9h28.9v-13.9C2360.2,253.1,2356.5,249.4,2352,249.4z"/>
			<path class="st3" d="M2402.2,249.4h-1.9c-0.1-0.5-0.2-1.1-0.2-1.8c0-0.7,0-1.5,0.2-2c0,0,0,0,0-0.1c2.2-1.4,3.6-3.8,3.6-6.6
				c0-4.4-3.5-7.9-7.9-7.9s-7.9,3.5-7.9,7.9c0,2.8,1.4,5.2,3.6,6.6c0,0,0,0,0,0.1c0.2,0.5,0.3,1.3,0.2,2c0,0.6-0.1,1.2-0.2,1.8h-1.9
				c-4.5,0-8.2,3.7-8.2,8.2v13.9h28.9v-13.9C2410.4,253.1,2406.7,249.4,2402.2,249.4z"/>
			<path class="st3" d="M2452.3,249.4h-1.9c-0.1-0.5-0.2-1.1-0.2-1.8c0-0.7,0-1.5,0.2-2c0,0,0,0,0-0.1c2.2-1.4,3.6-3.8,3.6-6.6
				c0-4.4-3.5-7.9-7.9-7.9s-7.9,3.5-7.9,7.9c0,2.8,1.4,5.2,3.6,6.6c0,0,0,0,0,0.1c0.2,0.5,0.3,1.3,0.2,2c0,0.6-0.1,1.2-0.2,1.8h-1.9
				c-4.5,0-8.2,3.7-8.2,8.2v13.9h28.9v-13.9C2460.6,253.1,2456.9,249.4,2452.3,249.4z"/>
			<path class="st3" d="M2502.5,249.4h-1.9c-0.1-0.5-0.2-1.1-0.2-1.8c0-0.7,0-1.5,0.2-2c0,0,0,0,0-0.1c2.2-1.4,3.6-3.8,3.6-6.6
				c0-4.4-3.5-7.9-7.9-7.9c-4.4,0-7.9,3.5-7.9,7.9c0,2.8,1.4,5.2,3.6,6.6c0,0,0,0,0,0.1c0.2,0.5,0.3,1.3,0.2,2
				c0,0.6-0.1,1.2-0.2,1.8h-1.9c-4.5,0-8.2,3.7-8.2,8.2v13.9h28.9v-13.9C2510.7,253.1,2507.1,249.4,2502.5,249.4z"/>
			<path class="st3" d="M2552.7,250.6h-1.9c-0.1-0.5-0.2-1.1-0.2-1.8c0-0.7,0-1.5,0.2-2c0,0,0,0,0-0.1c2.2-1.4,3.6-3.8,3.6-6.6
				c0-4.4-3.5-7.9-7.9-7.9c-4.4,0-7.9,3.5-7.9,7.9c0,2.8,1.4,5.2,3.6,6.6c0,0,0,0,0,0.1c0.2,0.5,0.3,1.3,0.2,2
				c0,0.6-0.1,1.2-0.2,1.8h-1.9c-4.5,0-8.2,3.7-8.2,8.2v13.9h28.9v-13.9C2560.9,254.3,2557.2,250.6,2552.7,250.6z"/>
			<path class="st3" d="M2602.9,250.6h-1.9c-0.1-0.5-0.2-1.1-0.2-1.8c0-0.7,0-1.5,0.2-2c0,0,0,0,0-0.1c2.2-1.4,3.6-3.8,3.6-6.6
				c0-4.4-3.5-7.9-7.9-7.9c-4.4,0-7.9,3.5-7.9,7.9c0,2.8,1.4,5.2,3.6,6.6c0,0,0,0,0,0.1c0.2,0.5,0.3,1.3,0.2,2
				c0,0.6-0.1,1.2-0.2,1.8h-1.9c-4.5,0-8.2,3.7-8.2,8.2v13.9h28.9v-13.9C2611.1,254.3,2607.4,250.6,2602.9,250.6z"/>
			<path class="st3" d="M2653.1,250.6h-1.9c-0.1-0.5-0.2-1.1-0.2-1.8c0-0.7,0-1.5,0.2-2c0,0,0,0,0-0.1c2.2-1.4,3.6-3.8,3.6-6.6
				c0-4.4-3.5-7.9-7.9-7.9s-7.9,3.5-7.9,7.9c0,2.8,1.4,5.2,3.6,6.6c0,0,0,0,0,0.1c0.2,0.5,0.3,1.3,0.2,2c0,0.6-0.1,1.2-0.2,1.8h-1.9
				c-4.5,0-8.2,3.7-8.2,8.2v13.9h28.9v-13.9C2661.3,254.3,2657.6,250.6,2653.1,250.6z"/>
			<path class="st3" d="M2703.3,250.6h-1.9c-0.1-0.5-0.2-1.1-0.2-1.8c0-0.7,0-1.5,0.2-2c0,0,0,0,0-0.1c2.2-1.4,3.6-3.8,3.6-6.6
				c0-4.4-3.5-7.9-7.9-7.9s-7.9,3.5-7.9,7.9c0,2.8,1.4,5.2,3.6,6.6c0,0,0,0,0,0.1c0.2,0.5,0.3,1.3,0.2,2c0,0.6-0.1,1.2-0.2,1.8h-1.9
				c-4.5,0-8.2,3.7-8.2,8.2v13.9h28.9v-13.9C2711.5,254.3,2707.8,250.6,2703.3,250.6z"/>
			<path class="st3" d="M2753.4,250.6h-1.9c-0.1-0.5-0.2-1.1-0.2-1.8c0-0.7,0-1.5,0.2-2c0,0,0,0,0-0.1c2.2-1.4,3.6-3.8,3.6-6.6
				c0-4.4-3.5-7.9-7.9-7.9c-4.4,0-7.9,3.5-7.9,7.9c0,2.8,1.4,5.2,3.6,6.6c0,0,0,0,0,0.1c0.2,0.5,0.3,1.3,0.2,2
				c0,0.6-0.1,1.2-0.2,1.8h-1.9c-4.5,0-8.2,3.7-8.2,8.2v13.9h28.9v-13.9C2761.6,254.3,2758,250.6,2753.4,250.6z"/>
			<path class="st3" d="M2803.6,250.6h-1.9c-0.1-0.5-0.2-1.1-0.2-1.8c0-0.7,0-1.5,0.2-2c0,0,0,0,0-0.1c2.2-1.4,3.6-3.8,3.6-6.6
				c0-4.4-3.5-7.9-7.9-7.9c-4.4,0-7.9,3.5-7.9,7.9c0,2.8,1.4,5.2,3.6,6.6c0,0,0,0,0,0.1c0.2,0.5,0.3,1.3,0.2,2
				c0,0.6-0.1,1.2-0.2,1.8h-1.9c-4.5,0-8.2,3.7-8.2,8.2v13.9h28.9v-13.9C2811.8,254.3,2808.2,250.6,2803.6,250.6z"/>
			<path class="st3" d="M2853.8,250.6h-1.9c-0.1-0.5-0.2-1.1-0.2-1.8c0-0.7,0-1.5,0.2-2c0,0,0,0,0-0.1c2.2-1.4,3.6-3.8,3.6-6.6
				c0-4.4-3.5-7.9-7.9-7.9c-4.4,0-7.9,3.5-7.9,7.9c0,2.8,1.4,5.2,3.6,6.6c0,0,0,0,0,0.1c0.2,0.5,0.3,1.3,0.2,2
				c0,0.6-0.1,1.2-0.2,1.8h-1.9c-4.5,0-8.2,3.7-8.2,8.2v13.9h28.9v-13.9C2862,254.3,2858.3,250.6,2853.8,250.6z"/>
		</g>
		<rect x="1833.9" y="348.1" class="st4" width="1025.1" height="41.9"/>
		<g>
			<path class="st5" d="M1900.4,251.4h-1.9c-0.1-0.5-0.2-1.1-0.2-1.8c0-0.7,0-1.5,0.2-2c0,0,0,0,0-0.1c2.2-1.4,3.6-3.8,3.6-6.6
				c0-4.4-3.5-7.9-7.9-7.9c-4.4,0-7.9,3.5-7.9,7.9c0,2.8,1.4,5.2,3.6,6.6c0,0,0,0,0,0.1c0.2,0.5,0.3,1.3,0.2,2
				c0,0.6-0.1,1.2-0.2,1.8h-1.9c-4.5,0-8.2,3.7-8.2,8.2v13.9h28.9v-13.9C1908.6,255.1,1904.9,251.4,1900.4,251.4z"/>
			<path class="st5" d="M1850.2,251.4h-1.9c-0.1-0.5-0.2-1.1-0.2-1.8c0-0.7,0-1.5,0.2-2c0,0,0,0,0-0.1c2.2-1.4,3.6-3.8,3.6-6.6
				c0-4.4-3.5-7.9-7.9-7.9s-7.9,3.5-7.9,7.9c0,2.8,1.4,5.2,3.6,6.6c0,0,0,0,0,0.1c0.2,0.5,0.3,1.3,0.2,2c0,0.6-0.1,1.2-0.2,1.8h-1.9
				c-4.5,0-8.2,3.7-8.2,8.2v13.9h28.9v-13.9C1858.4,255.1,1854.7,251.4,1850.2,251.4z"/>
			<path class="st5" d="M1950.5,251.4h-1.9c-0.1-0.5-0.2-1.1-0.2-1.8c0-0.7,0-1.5,0.2-2c0,0,0,0,0-0.1c2.2-1.4,3.6-3.8,3.6-6.6
				c0-4.4-3.5-7.9-7.9-7.9c-4.4,0-7.9,3.5-7.9,7.9c0,2.8,1.4,5.2,3.6,6.6c0,0,0,0,0,0.1c0.2,0.5,0.3,1.3,0.2,2
				c0,0.6-0.1,1.2-0.2,1.8h-1.9c-4.5,0-8.2,3.7-8.2,8.2v13.9h28.9v-13.9C1958.7,255.1,1955.1,251.4,1950.5,251.4z"/>
			<path class="st5" d="M2000.7,251.4h-1.9c-0.1-0.5-0.2-1.1-0.2-1.8c0-0.7,0-1.5,0.2-2c0,0,0,0,0-0.1c2.2-1.4,3.6-3.8,3.6-6.6
				c0-4.4-3.5-7.9-7.9-7.9c-4.4,0-7.9,3.5-7.9,7.9c0,2.8,1.4,5.2,3.6,6.6c0,0,0,0,0,0.1c0.2,0.5,0.3,1.3,0.2,2
				c0,0.6-0.1,1.2-0.2,1.8h-1.9c-4.5,0-8.2,3.7-8.2,8.2v13.9h28.9v-13.9C2008.9,255.1,2005.3,251.4,2000.7,251.4z"/>
			<path class="st5" d="M2050.9,251.4h-1.9c-0.1-0.5-0.2-1.1-0.2-1.8c0-0.7,0-1.5,0.2-2c0,0,0,0,0-0.1c2.2-1.4,3.6-3.8,3.6-6.6
				c0-4.4-3.5-7.9-7.9-7.9c-4.4,0-7.9,3.5-7.9,7.9c0,2.8,1.4,5.2,3.6,6.6c0,0,0,0,0,0.1c0.2,0.5,0.3,1.3,0.2,2
				c0,0.6-0.1,1.2-0.2,1.8h-1.9c-4.5,0-8.2,3.7-8.2,8.2v13.9h28.9v-13.9C2059.1,255.1,2055.4,251.4,2050.9,251.4z"/>
			<path class="st5" d="M2101.1,251.4h-1.9c-0.1-0.5-0.2-1.1-0.2-1.8c0-0.7,0-1.5,0.2-2c0,0,0,0,0-0.1c2.2-1.4,3.6-3.8,3.6-6.6
				c0-4.4-3.5-7.9-7.9-7.9c-4.4,0-7.9,3.5-7.9,7.9c0,2.8,1.4,5.2,3.6,6.6c0,0,0,0,0,0.1c0.2,0.5,0.3,1.3,0.2,2
				c0,0.6-0.1,1.2-0.2,1.8h-1.9c-4.5,0-8.2,3.7-8.2,8.2v13.9h28.9v-13.9C2109.3,255.1,2105.6,251.4,2101.1,251.4z"/>
			<path class="st5" d="M2151.3,251.4h-1.9c-0.1-0.5-0.2-1.1-0.2-1.8c0-0.7,0-1.5,0.2-2c0,0,0,0,0-0.1c2.2-1.4,3.6-3.8,3.6-6.6
				c0-4.4-3.5-7.9-7.9-7.9c-4.4,0-7.9,3.5-7.9,7.9c0,2.8,1.4,5.2,3.6,6.6c0,0,0,0,0,0.1c0.2,0.5,0.3,1.3,0.2,2
				c0,0.6-0.1,1.2-0.2,1.8h-1.9c-4.5,0-8.2,3.7-8.2,8.2v13.9h28.9v-13.9C2159.5,255.1,2155.8,251.4,2151.3,251.4z"/>
			<path class="st5" d="M2201.4,251.4h-1.9c-0.1-0.5-0.2-1.1-0.2-1.8c0-0.7,0-1.5,0.2-2c0,0,0,0,0-0.1c2.2-1.4,3.6-3.8,3.6-6.6
				c0-4.4-3.5-7.9-7.9-7.9s-7.9,3.5-7.9,7.9c0,2.8,1.4,5.2,3.6,6.6c0,0,0,0,0,0.1c0.2,0.5,0.3,1.3,0.2,2c0,0.6-0.1,1.2-0.2,1.8h-1.9
				c-4.5,0-8.2,3.7-8.2,8.2v13.9h28.9v-13.9C2209.7,255.1,2206,251.4,2201.4,251.4z"/>
			<path class="st5" d="M2251.6,251.4h-1.9c-0.1-0.5-0.2-1.1-0.2-1.8c0-0.7,0-1.5,0.2-2c0,0,0,0,0-0.1c2.2-1.4,3.6-3.8,3.6-6.6
				c0-4.4-3.5-7.9-7.9-7.9c-4.4,0-7.9,3.5-7.9,7.9c0,2.8,1.4,5.2,3.6,6.6c0,0,0,0,0,0.1c0.2,0.5,0.3,1.3,0.2,2
				c0,0.6-0.1,1.2-0.2,1.8h-1.9c-4.5,0-8.2,3.7-8.2,8.2v13.9h28.9v-13.9C2259.8,255.1,2256.2,251.4,2251.6,251.4z"/>
			<path class="st5" d="M2301.8,251.4h-1.9c-0.1-0.5-0.2-1.1-0.2-1.8c0-0.7,0-1.5,0.2-2c0,0,0,0,0-0.1c2.2-1.4,3.6-3.8,3.6-6.6
				c0-4.4-3.5-7.9-7.9-7.9c-4.4,0-7.9,3.5-7.9,7.9c0,2.8,1.4,5.2,3.6,6.6c0,0,0,0,0,0.1c0.2,0.5,0.3,1.3,0.2,2
				c0,0.6-0.1,1.2-0.2,1.8h-1.9c-4.5,0-8.2,3.7-8.2,8.2v13.9h28.9v-13.9C2310,255.1,2306.3,251.4,2301.8,251.4z"/>
			<path class="st5" d="M2352,251.4h-1.9c-0.1-0.5-0.2-1.1-0.2-1.8c0-0.7,0-1.5,0.2-2c0,0,0,0,0-0.1c2.2-1.4,3.6-3.8,3.6-6.6
				c0-4.4-3.5-7.9-7.9-7.9c-4.4,0-7.9,3.5-7.9,7.9c0,2.8,1.4,5.2,3.6,6.6c0,0,0,0,0,0.1c0.2,0.5,0.3,1.3,0.2,2
				c0,0.6-0.1,1.2-0.2,1.8h-1.9c-4.5,0-8.2,3.7-8.2,8.2v13.9h28.9v-13.9C2360.2,255.1,2356.5,251.4,2352,251.4z"/>
			<path class="st5" d="M2402.2,251.4h-1.9c-0.1-0.5-0.2-1.1-0.2-1.8c0-0.7,0-1.5,0.2-2c0,0,0,0,0-0.1c2.2-1.4,3.6-3.8,3.6-6.6
				c0-4.4-3.5-7.9-7.9-7.9s-7.9,3.5-7.9,7.9c0,2.8,1.4,5.2,3.6,6.6c0,0,0,0,0,0.1c0.2,0.5,0.3,1.3,0.2,2c0,0.6-0.1,1.2-0.2,1.8h-1.9
				c-4.5,0-8.2,3.7-8.2,8.2v13.9h28.9v-13.9C2410.4,255.1,2406.7,251.4,2402.2,251.4z"/>
			<path class="st5" d="M2452.3,251.4h-1.9c-0.1-0.5-0.2-1.1-0.2-1.8c0-0.7,0-1.5,0.2-2c0,0,0,0,0-0.1c2.2-1.4,3.6-3.8,3.6-6.6
				c0-4.4-3.5-7.9-7.9-7.9s-7.9,3.5-7.9,7.9c0,2.8,1.4,5.2,3.6,6.6c0,0,0,0,0,0.1c0.2,0.5,0.3,1.3,0.2,2c0,0.6-0.1,1.2-0.2,1.8h-1.9
				c-4.5,0-8.2,3.7-8.2,8.2v13.9h28.9v-13.9C2460.6,255.1,2456.9,251.4,2452.3,251.4z"/>
			<path class="st5" d="M2502.5,251.4h-1.9c-0.1-0.5-0.2-1.1-0.2-1.8c0-0.7,0-1.5,0.2-2c0,0,0,0,0-0.1c2.2-1.4,3.6-3.8,3.6-6.6
				c0-4.4-3.5-7.9-7.9-7.9c-4.4,0-7.9,3.5-7.9,7.9c0,2.8,1.4,5.2,3.6,6.6c0,0,0,0,0,0.1c0.2,0.5,0.3,1.3,0.2,2
				c0,0.6-0.1,1.2-0.2,1.8h-1.9c-4.5,0-8.2,3.7-8.2,8.2v13.9h28.9v-13.9C2510.7,255.1,2507.1,251.4,2502.5,251.4z"/>
			<path class="st5" d="M2552.7,252.6h-1.9c-0.1-0.5-0.2-1.1-0.2-1.8c0-0.7,0-1.5,0.2-2c0,0,0,0,0-0.1c2.2-1.4,3.6-3.8,3.6-6.6
				c0-4.4-3.5-7.9-7.9-7.9c-4.4,0-7.9,3.5-7.9,7.9c0,2.8,1.4,5.2,3.6,6.6c0,0,0,0,0,0.1c0.2,0.5,0.3,1.3,0.2,2
				c0,0.6-0.1,1.2-0.2,1.8h-1.9c-4.5,0-8.2,3.7-8.2,8.2v13.9h28.9v-13.9C2560.9,256.3,2557.2,252.6,2552.7,252.6z"/>
			<path class="st5" d="M2602.9,252.6h-1.9c-0.1-0.5-0.2-1.1-0.2-1.8c0-0.7,0-1.5,0.2-2c0,0,0,0,0-0.1c2.2-1.4,3.6-3.8,3.6-6.6
				c0-4.4-3.5-7.9-7.9-7.9c-4.4,0-7.9,3.5-7.9,7.9c0,2.8,1.4,5.2,3.6,6.6c0,0,0,0,0,0.1c0.2,0.5,0.3,1.3,0.2,2
				c0,0.6-0.1,1.2-0.2,1.8h-1.9c-4.5,0-8.2,3.7-8.2,8.2v13.9h28.9v-13.9C2611.1,256.3,2607.4,252.6,2602.9,252.6z"/>
			<path class="st5" d="M2653.1,252.6h-1.9c-0.1-0.5-0.2-1.1-0.2-1.8c0-0.7,0-1.5,0.2-2c0,0,0,0,0-0.1c2.2-1.4,3.6-3.8,3.6-6.6
				c0-4.4-3.5-7.9-7.9-7.9s-7.9,3.5-7.9,7.9c0,2.8,1.4,5.2,3.6,6.6c0,0,0,0,0,0.1c0.2,0.5,0.3,1.3,0.2,2c0,0.6-0.1,1.2-0.2,1.8h-1.9
				c-4.5,0-8.2,3.7-8.2,8.2v13.9h28.9v-13.9C2661.3,256.3,2657.6,252.6,2653.1,252.6z"/>
			<path class="st5" d="M2703.3,252.6h-1.9c-0.1-0.5-0.2-1.1-0.2-1.8c0-0.7,0-1.5,0.2-2c0,0,0,0,0-0.1c2.2-1.4,3.6-3.8,3.6-6.6
				c0-4.4-3.5-7.9-7.9-7.9s-7.9,3.5-7.9,7.9c0,2.8,1.4,5.2,3.6,6.6c0,0,0,0,0,0.1c0.2,0.5,0.3,1.3,0.2,2c0,0.6-0.1,1.2-0.2,1.8h-1.9
				c-4.5,0-8.2,3.7-8.2,8.2v13.9h28.9v-13.9C2711.5,256.3,2707.8,252.6,2703.3,252.6z"/>
			<path class="st5" d="M2753.4,252.6h-1.9c-0.1-0.5-0.2-1.1-0.2-1.8c0-0.7,0-1.5,0.2-2c0,0,0,0,0-0.1c2.2-1.4,3.6-3.8,3.6-6.6
				c0-4.4-3.5-7.9-7.9-7.9c-4.4,0-7.9,3.5-7.9,7.9c0,2.8,1.4,5.2,3.6,6.6c0,0,0,0,0,0.1c0.2,0.5,0.3,1.3,0.2,2
				c0,0.6-0.1,1.2-0.2,1.8h-1.9c-4.5,0-8.2,3.7-8.2,8.2v13.9h28.9v-13.9C2761.6,256.3,2758,252.6,2753.4,252.6z"/>
			<path class="st5" d="M2803.6,252.6h-1.9c-0.1-0.5-0.2-1.1-0.2-1.8c0-0.7,0-1.5,0.2-2c0,0,0,0,0-0.1c2.2-1.4,3.6-3.8,3.6-6.6
				c0-4.4-3.5-7.9-7.9-7.9c-4.4,0-7.9,3.5-7.9,7.9c0,2.8,1.4,5.2,3.6,6.6c0,0,0,0,0,0.1c0.2,0.5,0.3,1.3,0.2,2
				c0,0.6-0.1,1.2-0.2,1.8h-1.9c-4.5,0-8.2,3.7-8.2,8.2v13.9h28.9v-13.9C2811.8,256.3,2808.2,252.6,2803.6,252.6z"/>
			<path class="st5" d="M2853.8,252.6h-1.9c-0.1-0.5-0.2-1.1-0.2-1.8c0-0.7,0-1.5,0.2-2c0,0,0,0,0-0.1c2.2-1.4,3.6-3.8,3.6-6.6
				c0-4.4-3.5-7.9-7.9-7.9c-4.4,0-7.9,3.5-7.9,7.9c0,2.8,1.4,5.2,3.6,6.6c0,0,0,0,0,0.1c0.2,0.5,0.3,1.3,0.2,2
				c0,0.6-0.1,1.2-0.2,1.8h-1.9c-4.5,0-8.2,3.7-8.2,8.2v13.9h28.9v-13.9C2862,256.3,2858.3,252.6,2853.8,252.6z"/>
		</g>
		<g>
			<path class="st5" d="M1900.4,91.4h-1.9c-0.1-0.5-0.2-1.1-0.2-1.8c0-0.7,0-1.5,0.2-2c0,0,0,0,0-0.1c2.2-1.4,3.6-3.8,3.6-6.6
				c0-4.4-3.5-7.9-7.9-7.9c-4.4,0-7.9,3.5-7.9,7.9c0,2.8,1.4,5.2,3.6,6.6c0,0,0,0,0,0.1c0.2,0.5,0.3,1.3,0.2,2
				c0,0.6-0.1,1.2-0.2,1.8h-1.9c-4.5,0-8.2,3.7-8.2,8.2v13.9h28.9V99.6C1908.6,95.1,1904.9,91.4,1900.4,91.4z"/>
			<path class="st5" d="M1850.2,91.4h-1.9c-0.1-0.5-0.2-1.1-0.2-1.8c0-0.7,0-1.5,0.2-2c0,0,0,0,0-0.1c2.2-1.4,3.6-3.8,3.6-6.6
				c0-4.4-3.5-7.9-7.9-7.9s-7.9,3.5-7.9,7.9c0,2.8,1.4,5.2,3.6,6.6c0,0,0,0,0,0.1c0.2,0.5,0.3,1.3,0.2,2c0,0.6-0.1,1.2-0.2,1.8h-1.9
				c-4.5,0-8.2,3.7-8.2,8.2v13.9h28.9V99.6C1858.4,95.1,1854.7,91.4,1850.2,91.4z"/>
			<path class="st5" d="M1950.5,91.4h-1.9c-0.1-0.5-0.2-1.1-0.2-1.8c0-0.7,0-1.5,0.2-2c0,0,0,0,0-0.1c2.2-1.4,3.6-3.8,3.6-6.6
				c0-4.4-3.5-7.9-7.9-7.9c-4.4,0-7.9,3.5-7.9,7.9c0,2.8,1.4,5.2,3.6,6.6c0,0,0,0,0,0.1c0.2,0.5,0.3,1.3,0.2,2
				c0,0.6-0.1,1.2-0.2,1.8h-1.9c-4.5,0-8.2,3.7-8.2,8.2v13.9h28.9V99.6C1958.7,95.1,1955.1,91.4,1950.5,91.4z"/>
			<path class="st5" d="M2000.7,91.4h-1.9c-0.1-0.5-0.2-1.1-0.2-1.8c0-0.7,0-1.5,0.2-2c0,0,0,0,0-0.1c2.2-1.4,3.6-3.8,3.6-6.6
				c0-4.4-3.5-7.9-7.9-7.9c-4.4,0-7.9,3.5-7.9,7.9c0,2.8,1.4,5.2,3.6,6.6c0,0,0,0,0,0.1c0.2,0.5,0.3,1.3,0.2,2
				c0,0.6-0.1,1.2-0.2,1.8h-1.9c-4.5,0-8.2,3.7-8.2,8.2v13.9h28.9V99.6C2008.9,95.1,2005.3,91.4,2000.7,91.4z"/>
			<path class="st5" d="M2050.9,91.4h-1.9c-0.1-0.5-0.2-1.1-0.2-1.8c0-0.7,0-1.5,0.2-2c0,0,0,0,0-0.1c2.2-1.4,3.6-3.8,3.6-6.6
				c0-4.4-3.5-7.9-7.9-7.9c-4.4,0-7.9,3.5-7.9,7.9c0,2.8,1.4,5.2,3.6,6.6c0,0,0,0,0,0.1c0.2,0.5,0.3,1.3,0.2,2
				c0,0.6-0.1,1.2-0.2,1.8h-1.9c-4.5,0-8.2,3.7-8.2,8.2v13.9h28.9V99.6C2059.1,95.1,2055.4,91.4,2050.9,91.4z"/>
			<path class="st5" d="M2101.1,91.4h-1.9c-0.1-0.5-0.2-1.1-0.2-1.8c0-0.7,0-1.5,0.2-2c0,0,0,0,0-0.1c2.2-1.4,3.6-3.8,3.6-6.6
				c0-4.4-3.5-7.9-7.9-7.9c-4.4,0-7.9,3.5-7.9,7.9c0,2.8,1.4,5.2,3.6,6.6c0,0,0,0,0,0.1c0.2,0.5,0.3,1.3,0.2,2
				c0,0.6-0.1,1.2-0.2,1.8h-1.9c-4.5,0-8.2,3.7-8.2,8.2v13.9h28.9V99.6C2109.3,95.1,2105.6,91.4,2101.1,91.4z"/>
			<path class="st5" d="M2151.3,91.4h-1.9c-0.1-0.5-0.2-1.1-0.2-1.8c0-0.7,0-1.5,0.2-2c0,0,0,0,0-0.1c2.2-1.4,3.6-3.8,3.6-6.6
				c0-4.4-3.5-7.9-7.9-7.9c-4.4,0-7.9,3.5-7.9,7.9c0,2.8,1.4,5.2,3.6,6.6c0,0,0,0,0,0.1c0.2,0.5,0.3,1.3,0.2,2
				c0,0.6-0.1,1.2-0.2,1.8h-1.9c-4.5,0-8.2,3.7-8.2,8.2v13.9h28.9V99.6C2159.5,95.1,2155.8,91.4,2151.3,91.4z"/>
			<path class="st5" d="M2201.4,91.4h-1.9c-0.1-0.5-0.2-1.1-0.2-1.8c0-0.7,0-1.5,0.2-2c0,0,0,0,0-0.1c2.2-1.4,3.6-3.8,3.6-6.6
				c0-4.4-3.5-7.9-7.9-7.9s-7.9,3.5-7.9,7.9c0,2.8,1.4,5.2,3.6,6.6c0,0,0,0,0,0.1c0.2,0.5,0.3,1.3,0.2,2c0,0.6-0.1,1.2-0.2,1.8h-1.9
				c-4.5,0-8.2,3.7-8.2,8.2v13.9h28.9V99.6C2209.7,95.1,2206,91.4,2201.4,91.4z"/>
			<path class="st5" d="M2251.6,91.4h-1.9c-0.1-0.5-0.2-1.1-0.2-1.8c0-0.7,0-1.5,0.2-2c0,0,0,0,0-0.1c2.2-1.4,3.6-3.8,3.6-6.6
				c0-4.4-3.5-7.9-7.9-7.9c-4.4,0-7.9,3.5-7.9,7.9c0,2.8,1.4,5.2,3.6,6.6c0,0,0,0,0,0.1c0.2,0.5,0.3,1.3,0.2,2
				c0,0.6-0.1,1.2-0.2,1.8h-1.9c-4.5,0-8.2,3.7-8.2,8.2v13.9h28.9V99.6C2259.8,95.1,2256.2,91.4,2251.6,91.4z"/>
			<path class="st5" d="M2301.8,91.4h-1.9c-0.1-0.5-0.2-1.1-0.2-1.8c0-0.7,0-1.5,0.2-2c0,0,0,0,0-0.1c2.2-1.4,3.6-3.8,3.6-6.6
				c0-4.4-3.5-7.9-7.9-7.9c-4.4,0-7.9,3.5-7.9,7.9c0,2.8,1.4,5.2,3.6,6.6c0,0,0,0,0,0.1c0.2,0.5,0.3,1.3,0.2,2
				c0,0.6-0.1,1.2-0.2,1.8h-1.9c-4.5,0-8.2,3.7-8.2,8.2v13.9h28.9V99.6C2310,95.1,2306.3,91.4,2301.8,91.4z"/>
			<path class="st5" d="M2352,91.4h-1.9c-0.1-0.5-0.2-1.1-0.2-1.8c0-0.7,0-1.5,0.2-2c0,0,0,0,0-0.1c2.2-1.4,3.6-3.8,3.6-6.6
				c0-4.4-3.5-7.9-7.9-7.9c-4.4,0-7.9,3.5-7.9,7.9c0,2.8,1.4,5.2,3.6,6.6c0,0,0,0,0,0.1c0.2,0.5,0.3,1.3,0.2,2
				c0,0.6-0.1,1.2-0.2,1.8h-1.9c-4.5,0-8.2,3.7-8.2,8.2v13.9h28.9V99.6C2360.2,95.1,2356.5,91.4,2352,91.4z"/>
			<path class="st5" d="M2402.2,91.4h-1.9c-0.1-0.5-0.2-1.1-0.2-1.8c0-0.7,0-1.5,0.2-2c0,0,0,0,0-0.1c2.2-1.4,3.6-3.8,3.6-6.6
				c0-4.4-3.5-7.9-7.9-7.9s-7.9,3.5-7.9,7.9c0,2.8,1.4,5.2,3.6,6.6c0,0,0,0,0,0.1c0.2,0.5,0.3,1.3,0.2,2c0,0.6-0.1,1.2-0.2,1.8h-1.9
				c-4.5,0-8.2,3.7-8.2,8.2v13.9h28.9V99.6C2410.4,95.1,2406.7,91.4,2402.2,91.4z"/>
			<path class="st5" d="M2452.3,91.4h-1.9c-0.1-0.5-0.2-1.1-0.2-1.8c0-0.7,0-1.5,0.2-2c0,0,0,0,0-0.1c2.2-1.4,3.6-3.8,3.6-6.6
				c0-4.4-3.5-7.9-7.9-7.9s-7.9,3.5-7.9,7.9c0,2.8,1.4,5.2,3.6,6.6c0,0,0,0,0,0.1c0.2,0.5,0.3,1.3,0.2,2c0,0.6-0.1,1.2-0.2,1.8h-1.9
				c-4.5,0-8.2,3.7-8.2,8.2v13.9h28.9V99.6C2460.6,95.1,2456.9,91.4,2452.3,91.4z"/>
			<path class="st5" d="M2502.5,91.4h-1.9c-0.1-0.5-0.2-1.1-0.2-1.8c0-0.7,0-1.5,0.2-2c0,0,0,0,0-0.1c2.2-1.4,3.6-3.8,3.6-6.6
				c0-4.4-3.5-7.9-7.9-7.9c-4.4,0-7.9,3.5-7.9,7.9c0,2.8,1.4,5.2,3.6,6.6c0,0,0,0,0,0.1c0.2,0.5,0.3,1.3,0.2,2
				c0,0.6-0.1,1.2-0.2,1.8h-1.9c-4.5,0-8.2,3.7-8.2,8.2v13.9h28.9V99.6C2510.7,95.1,2507.1,91.4,2502.5,91.4z"/>
			<path class="st5" d="M2552.7,92.6h-1.9c-0.1-0.5-0.2-1.1-0.2-1.8c0-0.7,0-1.5,0.2-2c0,0,0,0,0-0.1c2.2-1.4,3.6-3.8,3.6-6.6
				c0-4.4-3.5-7.9-7.9-7.9c-4.4,0-7.9,3.5-7.9,7.9c0,2.8,1.4,5.2,3.6,6.6c0,0,0,0,0,0.1c0.2,0.5,0.3,1.3,0.2,2
				c0,0.6-0.1,1.2-0.2,1.8h-1.9c-4.5,0-8.2,3.7-8.2,8.2v13.9h28.9v-13.9C2560.9,96.3,2557.2,92.6,2552.7,92.6z"/>
			<path class="st5" d="M2602.9,92.6h-1.9c-0.1-0.5-0.2-1.1-0.2-1.8c0-0.7,0-1.5,0.2-2c0,0,0,0,0-0.1c2.2-1.4,3.6-3.8,3.6-6.6
				c0-4.4-3.5-7.9-7.9-7.9c-4.4,0-7.9,3.5-7.9,7.9c0,2.8,1.4,5.2,3.6,6.6c0,0,0,0,0,0.1c0.2,0.5,0.3,1.3,0.2,2
				c0,0.6-0.1,1.2-0.2,1.8h-1.9c-4.5,0-8.2,3.7-8.2,8.2v13.9h28.9v-13.9C2611.1,96.3,2607.4,92.6,2602.9,92.6z"/>
			<path class="st5" d="M2653.1,92.6h-1.9c-0.1-0.5-0.2-1.1-0.2-1.8c0-0.7,0-1.5,0.2-2c0,0,0,0,0-0.1c2.2-1.4,3.6-3.8,3.6-6.6
				c0-4.4-3.5-7.9-7.9-7.9s-7.9,3.5-7.9,7.9c0,2.8,1.4,5.2,3.6,6.6c0,0,0,0,0,0.1c0.2,0.5,0.3,1.3,0.2,2c0,0.6-0.1,1.2-0.2,1.8h-1.9
				c-4.5,0-8.2,3.7-8.2,8.2v13.9h28.9v-13.9C2661.3,96.3,2657.6,92.6,2653.1,92.6z"/>
			<path class="st5" d="M2703.3,92.6h-1.9c-0.1-0.5-0.2-1.1-0.2-1.8c0-0.7,0-1.5,0.2-2c0,0,0,0,0-0.1c2.2-1.4,3.6-3.8,3.6-6.6
				c0-4.4-3.5-7.9-7.9-7.9s-7.9,3.5-7.9,7.9c0,2.8,1.4,5.2,3.6,6.6c0,0,0,0,0,0.1c0.2,0.5,0.3,1.3,0.2,2c0,0.6-0.1,1.2-0.2,1.8h-1.9
				c-4.5,0-8.2,3.7-8.2,8.2v13.9h28.9v-13.9C2711.5,96.3,2707.8,92.6,2703.3,92.6z"/>
			<path class="st5" d="M2753.4,92.6h-1.9c-0.1-0.5-0.2-1.1-0.2-1.8c0-0.7,0-1.5,0.2-2c0,0,0,0,0-0.1c2.2-1.4,3.6-3.8,3.6-6.6
				c0-4.4-3.5-7.9-7.9-7.9c-4.4,0-7.9,3.5-7.9,7.9c0,2.8,1.4,5.2,3.6,6.6c0,0,0,0,0,0.1c0.2,0.5,0.3,1.3,0.2,2
				c0,0.6-0.1,1.2-0.2,1.8h-1.9c-4.5,0-8.2,3.7-8.2,8.2v13.9h28.9v-13.9C2761.6,96.3,2758,92.6,2753.4,92.6z"/>
			<path class="st5" d="M2803.6,92.6h-1.9c-0.1-0.5-0.2-1.1-0.2-1.8c0-0.7,0-1.5,0.2-2c0,0,0,0,0-0.1c2.2-1.4,3.6-3.8,3.6-6.6
				c0-4.4-3.5-7.9-7.9-7.9c-4.4,0-7.9,3.5-7.9,7.9c0,2.8,1.4,5.2,3.6,6.6c0,0,0,0,0,0.1c0.2,0.5,0.3,1.3,0.2,2
				c0,0.6-0.1,1.2-0.2,1.8h-1.9c-4.5,0-8.2,3.7-8.2,8.2v13.9h28.9v-13.9C2811.8,96.3,2808.2,92.6,2803.6,92.6z"/>
			<path class="st5" d="M2853.8,92.6h-1.9c-0.1-0.5-0.2-1.1-0.2-1.8c0-0.7,0-1.5,0.2-2c0,0,0,0,0-0.1c2.2-1.4,3.6-3.8,3.6-6.6
				c0-4.4-3.5-7.9-7.9-7.9c-4.4,0-7.9,3.5-7.9,7.9c0,2.8,1.4,5.2,3.6,6.6c0,0,0,0,0,0.1c0.2,0.5,0.3,1.3,0.2,2
				c0,0.6-0.1,1.2-0.2,1.8h-1.9c-4.5,0-8.2,3.7-8.2,8.2v13.9h28.9v-13.9C2862,96.3,2858.3,92.6,2853.8,92.6z"/>
		</g>
		<g>
			<path class="st1" d="M1900.4,130.4h-1.9c-0.1-0.5-0.2-1.1-0.2-1.8c0-0.7,0-1.5,0.2-2c0,0,0,0,0-0.1c2.2-1.4,3.6-3.8,3.6-6.6
				c0-4.4-3.5-7.9-7.9-7.9c-4.4,0-7.9,3.5-7.9,7.9c0,2.8,1.4,5.2,3.6,6.6c0,0,0,0,0,0.1c0.2,0.5,0.3,1.3,0.2,2
				c0,0.6-0.1,1.2-0.2,1.8h-1.9c-4.5,0-8.2,3.7-8.2,8.2v13.9h28.9v-13.9C1908.6,134.1,1904.9,130.4,1900.4,130.4z"/>
			<path class="st1" d="M1850.2,130.4h-1.9c-0.1-0.5-0.2-1.1-0.2-1.8c0-0.7,0-1.5,0.2-2c0,0,0,0,0-0.1c2.2-1.4,3.6-3.8,3.6-6.6
				c0-4.4-3.5-7.9-7.9-7.9s-7.9,3.5-7.9,7.9c0,2.8,1.4,5.2,3.6,6.6c0,0,0,0,0,0.1c0.2,0.5,0.3,1.3,0.2,2c0,0.6-0.1,1.2-0.2,1.8h-1.9
				c-4.5,0-8.2,3.7-8.2,8.2v13.9h28.9v-13.9C1858.4,134.1,1854.7,130.4,1850.2,130.4z"/>
			<path class="st1" d="M1950.5,130.4h-1.9c-0.1-0.5-0.2-1.1-0.2-1.8c0-0.7,0-1.5,0.2-2c0,0,0,0,0-0.1c2.2-1.4,3.6-3.8,3.6-6.6
				c0-4.4-3.5-7.9-7.9-7.9c-4.4,0-7.9,3.5-7.9,7.9c0,2.8,1.4,5.2,3.6,6.6c0,0,0,0,0,0.1c0.2,0.5,0.3,1.3,0.2,2
				c0,0.6-0.1,1.2-0.2,1.8h-1.9c-4.5,0-8.2,3.7-8.2,8.2v13.9h28.9v-13.9C1958.7,134.1,1955.1,130.4,1950.5,130.4z"/>
			<path class="st1" d="M2000.7,130.4h-1.9c-0.1-0.5-0.2-1.1-0.2-1.8c0-0.7,0-1.5,0.2-2c0,0,0,0,0-0.1c2.2-1.4,3.6-3.8,3.6-6.6
				c0-4.4-3.5-7.9-7.9-7.9c-4.4,0-7.9,3.5-7.9,7.9c0,2.8,1.4,5.2,3.6,6.6c0,0,0,0,0,0.1c0.2,0.5,0.3,1.3,0.2,2
				c0,0.6-0.1,1.2-0.2,1.8h-1.9c-4.5,0-8.2,3.7-8.2,8.2v13.9h28.9v-13.9C2008.9,134.1,2005.3,130.4,2000.7,130.4z"/>
			<path class="st1" d="M2050.9,130.4h-1.9c-0.1-0.5-0.2-1.1-0.2-1.8c0-0.7,0-1.5,0.2-2c0,0,0,0,0-0.1c2.2-1.4,3.6-3.8,3.6-6.6
				c0-4.4-3.5-7.9-7.9-7.9c-4.4,0-7.9,3.5-7.9,7.9c0,2.8,1.4,5.2,3.6,6.6c0,0,0,0,0,0.1c0.2,0.5,0.3,1.3,0.2,2
				c0,0.6-0.1,1.2-0.2,1.8h-1.9c-4.5,0-8.2,3.7-8.2,8.2v13.9h28.9v-13.9C2059.1,134.1,2055.4,130.4,2050.9,130.4z"/>
			<path class="st1" d="M2101.1,130.4h-1.9c-0.1-0.5-0.2-1.1-0.2-1.8c0-0.7,0-1.5,0.2-2c0,0,0,0,0-0.1c2.2-1.4,3.6-3.8,3.6-6.6
				c0-4.4-3.5-7.9-7.9-7.9c-4.4,0-7.9,3.5-7.9,7.9c0,2.8,1.4,5.2,3.6,6.6c0,0,0,0,0,0.1c0.2,0.5,0.3,1.3,0.2,2
				c0,0.6-0.1,1.2-0.2,1.8h-1.9c-4.5,0-8.2,3.7-8.2,8.2v13.9h28.9v-13.9C2109.3,134.1,2105.6,130.4,2101.1,130.4z"/>
			<path class="st1" d="M2151.3,130.4h-1.9c-0.1-0.5-0.2-1.1-0.2-1.8c0-0.7,0-1.5,0.2-2c0,0,0,0,0-0.1c2.2-1.4,3.6-3.8,3.6-6.6
				c0-4.4-3.5-7.9-7.9-7.9c-4.4,0-7.9,3.5-7.9,7.9c0,2.8,1.4,5.2,3.6,6.6c0,0,0,0,0,0.1c0.2,0.5,0.3,1.3,0.2,2
				c0,0.6-0.1,1.2-0.2,1.8h-1.9c-4.5,0-8.2,3.7-8.2,8.2v13.9h28.9v-13.9C2159.5,134.1,2155.8,130.4,2151.3,130.4z"/>
			<path class="st1" d="M2201.4,130.4h-1.9c-0.1-0.5-0.2-1.1-0.2-1.8c0-0.7,0-1.5,0.2-2c0,0,0,0,0-0.1c2.2-1.4,3.6-3.8,3.6-6.6
				c0-4.4-3.5-7.9-7.9-7.9s-7.9,3.5-7.9,7.9c0,2.8,1.4,5.2,3.6,6.6c0,0,0,0,0,0.1c0.2,0.5,0.3,1.3,0.2,2c0,0.6-0.1,1.2-0.2,1.8h-1.9
				c-4.5,0-8.2,3.7-8.2,8.2v13.9h28.9v-13.9C2209.7,134.1,2206,130.4,2201.4,130.4z"/>
			<path class="st1" d="M2251.6,130.4h-1.9c-0.1-0.5-0.2-1.1-0.2-1.8c0-0.7,0-1.5,0.2-2c0,0,0,0,0-0.1c2.2-1.4,3.6-3.8,3.6-6.6
				c0-4.4-3.5-7.9-7.9-7.9c-4.4,0-7.9,3.5-7.9,7.9c0,2.8,1.4,5.2,3.6,6.6c0,0,0,0,0,0.1c0.2,0.5,0.3,1.3,0.2,2
				c0,0.6-0.1,1.2-0.2,1.8h-1.9c-4.5,0-8.2,3.7-8.2,8.2v13.9h28.9v-13.9C2259.8,134.1,2256.2,130.4,2251.6,130.4z"/>
			<path class="st1" d="M2301.8,130.4h-1.9c-0.1-0.5-0.2-1.1-0.2-1.8c0-0.7,0-1.5,0.2-2c0,0,0,0,0-0.1c2.2-1.4,3.6-3.8,3.6-6.6
				c0-4.4-3.5-7.9-7.9-7.9c-4.4,0-7.9,3.5-7.9,7.9c0,2.8,1.4,5.2,3.6,6.6c0,0,0,0,0,0.1c0.2,0.5,0.3,1.3,0.2,2
				c0,0.6-0.1,1.2-0.2,1.8h-1.9c-4.5,0-8.2,3.7-8.2,8.2v13.9h28.9v-13.9C2310,134.1,2306.3,130.4,2301.8,130.4z"/>
			<path class="st1" d="M2352,130.4h-1.9c-0.1-0.5-0.2-1.1-0.2-1.8c0-0.7,0-1.5,0.2-2c0,0,0,0,0-0.1c2.2-1.4,3.6-3.8,3.6-6.6
				c0-4.4-3.5-7.9-7.9-7.9c-4.4,0-7.9,3.5-7.9,7.9c0,2.8,1.4,5.2,3.6,6.6c0,0,0,0,0,0.1c0.2,0.5,0.3,1.3,0.2,2
				c0,0.6-0.1,1.2-0.2,1.8h-1.9c-4.5,0-8.2,3.7-8.2,8.2v13.9h28.9v-13.9C2360.2,134.1,2356.5,130.4,2352,130.4z"/>
			<path class="st1" d="M2402.2,130.4h-1.9c-0.1-0.5-0.2-1.1-0.2-1.8c0-0.7,0-1.5,0.2-2c0,0,0,0,0-0.1c2.2-1.4,3.6-3.8,3.6-6.6
				c0-4.4-3.5-7.9-7.9-7.9s-7.9,3.5-7.9,7.9c0,2.8,1.4,5.2,3.6,6.6c0,0,0,0,0,0.1c0.2,0.5,0.3,1.3,0.2,2c0,0.6-0.1,1.2-0.2,1.8h-1.9
				c-4.5,0-8.2,3.7-8.2,8.2v13.9h28.9v-13.9C2410.4,134.1,2406.7,130.4,2402.2,130.4z"/>
			<path class="st1" d="M2452.3,130.4h-1.9c-0.1-0.5-0.2-1.1-0.2-1.8c0-0.7,0-1.5,0.2-2c0,0,0,0,0-0.1c2.2-1.4,3.6-3.8,3.6-6.6
				c0-4.4-3.5-7.9-7.9-7.9s-7.9,3.5-7.9,7.9c0,2.8,1.4,5.2,3.6,6.6c0,0,0,0,0,0.1c0.2,0.5,0.3,1.3,0.2,2c0,0.6-0.1,1.2-0.2,1.8h-1.9
				c-4.5,0-8.2,3.7-8.2,8.2v13.9h28.9v-13.9C2460.6,134.1,2456.9,130.4,2452.3,130.4z"/>
			<path class="st1" d="M2502.5,130.4h-1.9c-0.1-0.5-0.2-1.1-0.2-1.8c0-0.7,0-1.5,0.2-2c0,0,0,0,0-0.1c2.2-1.4,3.6-3.8,3.6-6.6
				c0-4.4-3.5-7.9-7.9-7.9c-4.4,0-7.9,3.5-7.9,7.9c0,2.8,1.4,5.2,3.6,6.6c0,0,0,0,0,0.1c0.2,0.5,0.3,1.3,0.2,2
				c0,0.6-0.1,1.2-0.2,1.8h-1.9c-4.5,0-8.2,3.7-8.2,8.2v13.9h28.9v-13.9C2510.7,134.1,2507.1,130.4,2502.5,130.4z"/>
			<path class="st1" d="M2552.7,131.6h-1.9c-0.1-0.5-0.2-1.1-0.2-1.8c0-0.7,0-1.5,0.2-2c0,0,0,0,0-0.1c2.2-1.4,3.6-3.8,3.6-6.6
				c0-4.4-3.5-7.9-7.9-7.9c-4.4,0-7.9,3.5-7.9,7.9c0,2.8,1.4,5.2,3.6,6.6c0,0,0,0,0,0.1c0.2,0.5,0.3,1.3,0.2,2
				c0,0.6-0.1,1.2-0.2,1.8h-1.9c-4.5,0-8.2,3.7-8.2,8.2v13.9h28.9v-13.9C2560.9,135.3,2557.2,131.6,2552.7,131.6z"/>
			<path class="st1" d="M2602.9,131.6h-1.9c-0.1-0.5-0.2-1.1-0.2-1.8c0-0.7,0-1.5,0.2-2c0,0,0,0,0-0.1c2.2-1.4,3.6-3.8,3.6-6.6
				c0-4.4-3.5-7.9-7.9-7.9c-4.4,0-7.9,3.5-7.9,7.9c0,2.8,1.4,5.2,3.6,6.6c0,0,0,0,0,0.1c0.2,0.5,0.3,1.3,0.2,2
				c0,0.6-0.1,1.2-0.2,1.8h-1.9c-4.5,0-8.2,3.7-8.2,8.2v13.9h28.9v-13.9C2611.1,135.3,2607.4,131.6,2602.9,131.6z"/>
			<path class="st1" d="M2653.1,131.6h-1.9c-0.1-0.5-0.2-1.1-0.2-1.8c0-0.7,0-1.5,0.2-2c0,0,0,0,0-0.1c2.2-1.4,3.6-3.8,3.6-6.6
				c0-4.4-3.5-7.9-7.9-7.9s-7.9,3.5-7.9,7.9c0,2.8,1.4,5.2,3.6,6.6c0,0,0,0,0,0.1c0.2,0.5,0.3,1.3,0.2,2c0,0.6-0.1,1.2-0.2,1.8h-1.9
				c-4.5,0-8.2,3.7-8.2,8.2v13.9h28.9v-13.9C2661.3,135.3,2657.6,131.6,2653.1,131.6z"/>
			<path class="st1" d="M2703.3,131.6h-1.9c-0.1-0.5-0.2-1.1-0.2-1.8c0-0.7,0-1.5,0.2-2c0,0,0,0,0-0.1c2.2-1.4,3.6-3.8,3.6-6.6
				c0-4.4-3.5-7.9-7.9-7.9s-7.9,3.5-7.9,7.9c0,2.8,1.4,5.2,3.6,6.6c0,0,0,0,0,0.1c0.2,0.5,0.3,1.3,0.2,2c0,0.6-0.1,1.2-0.2,1.8h-1.9
				c-4.5,0-8.2,3.7-8.2,8.2v13.9h28.9v-13.9C2711.5,135.3,2707.8,131.6,2703.3,131.6z"/>
			<path class="st1" d="M2753.4,131.6h-1.9c-0.1-0.5-0.2-1.1-0.2-1.8c0-0.7,0-1.5,0.2-2c0,0,0,0,0-0.1c2.2-1.4,3.6-3.8,3.6-6.6
				c0-4.4-3.5-7.9-7.9-7.9c-4.4,0-7.9,3.5-7.9,7.9c0,2.8,1.4,5.2,3.6,6.6c0,0,0,0,0,0.1c0.2,0.5,0.3,1.3,0.2,2
				c0,0.6-0.1,1.2-0.2,1.8h-1.9c-4.5,0-8.2,3.7-8.2,8.2v13.9h28.9v-13.9C2761.6,135.3,2758,131.6,2753.4,131.6z"/>
			<path class="st1" d="M2803.6,131.6h-1.9c-0.1-0.5-0.2-1.1-0.2-1.8c0-0.7,0-1.5,0.2-2c0,0,0,0,0-0.1c2.2-1.4,3.6-3.8,3.6-6.6
				c0-4.4-3.5-7.9-7.9-7.9c-4.4,0-7.9,3.5-7.9,7.9c0,2.8,1.4,5.2,3.6,6.6c0,0,0,0,0,0.1c0.2,0.5,0.3,1.3,0.2,2
				c0,0.6-0.1,1.2-0.2,1.8h-1.9c-4.5,0-8.2,3.7-8.2,8.2v13.9h28.9v-13.9C2811.8,135.3,2808.2,131.6,2803.6,131.6z"/>
			<path class="st1" d="M2853.8,131.6h-1.9c-0.1-0.5-0.2-1.1-0.2-1.8c0-0.7,0-1.5,0.2-2c0,0,0,0,0-0.1c2.2-1.4,3.6-3.8,3.6-6.6
				c0-4.4-3.5-7.9-7.9-7.9c-4.4,0-7.9,3.5-7.9,7.9c0,2.8,1.4,5.2,3.6,6.6c0,0,0,0,0,0.1c0.2,0.5,0.3,1.3,0.2,2
				c0,0.6-0.1,1.2-0.2,1.8h-1.9c-4.5,0-8.2,3.7-8.2,8.2v13.9h28.9v-13.9C2862,135.3,2858.3,131.6,2853.8,131.6z"/>
		</g>
		<g>
			<defs>
				<rect id="SVGID_2_" x="1833.9" y="390" width="1025.1" height="246.3"/>
			</defs>
			<clipPath id="SVGID_3_">
				<use xlink:href="#SVGID_2_"  style="overflow:visible;"/>
			</clipPath>
			<rect x="1833.9" y="390" class="st6" width="1025.1" height="180.2"/>
			<g class="st7">
				<polygon class="st8" points="2623.1,390 2577.1,390 2531.1,390 2485.1,390 2439.1,390 2393.1,390 2347.1,390 2301.1,390 
					2255.1,390 2209.1,390 2163.1,390 2117.1,390 2071.1,390 2025.1,390 1512,505.4 0,845.7 335.3,845.7 670.6,845.7 1005.9,845.7 
					1341.2,845.7 1676.5,845.7 2011.8,845.7 2347.1,845.7 2682.4,845.7 3017.7,845.7 3353,845.7 3688.3,845.7 4023.6,845.7 
					4358.9,845.7 4694.2,845.7 3219.6,513.9 2669.1,390 				"/>
				<g>
					<path class="st9" d="M2668.2,398.3l1951,439.1H75l1951-439.1H2668.2 M2669.1,390h-644L0,845.7h4694.2L2669.1,390L2669.1,390z"
						/>
				</g>
				<path class="st9" d="M2419.9,390.1l48.2,48.1h0c17.2,17.4-34.7,35.8-121.2,35.8s-138.4-18.3-121.1-35.8h0l48.4-48.1l-216.3-0.1
					c-116.3,30.8-50,84.3,289.3,84.3c338.1,0,405.3-53.2,290.1-84.1L2419.9,390.1z"/>
				<line class="st10" x1="2221.6" y1="438.2" x2="2475.2" y2="438.2"/>
			</g>
		</g>
		<g>
			<path class="st1" d="M1900.4,295.4h-1.9c-0.1-0.5-0.2-1.1-0.2-1.8c0-0.7,0-1.5,0.2-2c0,0,0,0,0-0.1c2.2-1.4,3.6-3.8,3.6-6.6
				c0-4.4-3.5-7.9-7.9-7.9c-4.4,0-7.9,3.5-7.9,7.9c0,2.8,1.4,5.2,3.6,6.6c0,0,0,0,0,0.1c0.2,0.5,0.3,1.3,0.2,2
				c0,0.6-0.1,1.2-0.2,1.8h-1.9c-4.5,0-8.2,3.7-8.2,8.2v13.9h28.9v-13.9C1908.6,299.1,1904.9,295.4,1900.4,295.4z"/>
			<path class="st1" d="M1850.2,295.4h-1.9c-0.1-0.5-0.2-1.1-0.2-1.8c0-0.7,0-1.5,0.2-2c0,0,0,0,0-0.1c2.2-1.4,3.6-3.8,3.6-6.6
				c0-4.4-3.5-7.9-7.9-7.9s-7.9,3.5-7.9,7.9c0,2.8,1.4,5.2,3.6,6.6c0,0,0,0,0,0.1c0.2,0.5,0.3,1.3,0.2,2c0,0.6-0.1,1.2-0.2,1.8h-1.9
				c-4.5,0-8.2,3.7-8.2,8.2v13.9h28.9v-13.9C1858.4,299.1,1854.7,295.4,1850.2,295.4z"/>
			<path class="st1" d="M1950.5,295.4h-1.9c-0.1-0.5-0.2-1.1-0.2-1.8c0-0.7,0-1.5,0.2-2c0,0,0,0,0-0.1c2.2-1.4,3.6-3.8,3.6-6.6
				c0-4.4-3.5-7.9-7.9-7.9c-4.4,0-7.9,3.5-7.9,7.9c0,2.8,1.4,5.2,3.6,6.6c0,0,0,0,0,0.1c0.2,0.5,0.3,1.3,0.2,2
				c0,0.6-0.1,1.2-0.2,1.8h-1.9c-4.5,0-8.2,3.7-8.2,8.2v13.9h28.9v-13.9C1958.7,299.1,1955.1,295.4,1950.5,295.4z"/>
			<path class="st1" d="M2000.7,295.4h-1.9c-0.1-0.5-0.2-1.1-0.2-1.8c0-0.7,0-1.5,0.2-2c0,0,0,0,0-0.1c2.2-1.4,3.6-3.8,3.6-6.6
				c0-4.4-3.5-7.9-7.9-7.9c-4.4,0-7.9,3.5-7.9,7.9c0,2.8,1.4,5.2,3.6,6.6c0,0,0,0,0,0.1c0.2,0.5,0.3,1.3,0.2,2
				c0,0.6-0.1,1.2-0.2,1.8h-1.9c-4.5,0-8.2,3.7-8.2,8.2v13.9h28.9v-13.9C2008.9,299.1,2005.3,295.4,2000.7,295.4z"/>
			<path class="st1" d="M2050.9,295.4h-1.9c-0.1-0.5-0.2-1.1-0.2-1.8c0-0.7,0-1.5,0.2-2c0,0,0,0,0-0.1c2.2-1.4,3.6-3.8,3.6-6.6
				c0-4.4-3.5-7.9-7.9-7.9c-4.4,0-7.9,3.5-7.9,7.9c0,2.8,1.4,5.2,3.6,6.6c0,0,0,0,0,0.1c0.2,0.5,0.3,1.3,0.2,2
				c0,0.6-0.1,1.2-0.2,1.8h-1.9c-4.5,0-8.2,3.7-8.2,8.2v13.9h28.9v-13.9C2059.1,299.1,2055.4,295.4,2050.9,295.4z"/>
			<path class="st1" d="M2101.1,295.4h-1.9c-0.1-0.5-0.2-1.1-0.2-1.8c0-0.7,0-1.5,0.2-2c0,0,0,0,0-0.1c2.2-1.4,3.6-3.8,3.6-6.6
				c0-4.4-3.5-7.9-7.9-7.9c-4.4,0-7.9,3.5-7.9,7.9c0,2.8,1.4,5.2,3.6,6.6c0,0,0,0,0,0.1c0.2,0.5,0.3,1.3,0.2,2
				c0,0.6-0.1,1.2-0.2,1.8h-1.9c-4.5,0-8.2,3.7-8.2,8.2v13.9h28.9v-13.9C2109.3,299.1,2105.6,295.4,2101.1,295.4z"/>
			<path class="st1" d="M2151.3,295.4h-1.9c-0.1-0.5-0.2-1.1-0.2-1.8c0-0.7,0-1.5,0.2-2c0,0,0,0,0-0.1c2.2-1.4,3.6-3.8,3.6-6.6
				c0-4.4-3.5-7.9-7.9-7.9c-4.4,0-7.9,3.5-7.9,7.9c0,2.8,1.4,5.2,3.6,6.6c0,0,0,0,0,0.1c0.2,0.5,0.3,1.3,0.2,2
				c0,0.6-0.1,1.2-0.2,1.8h-1.9c-4.5,0-8.2,3.7-8.2,8.2v13.9h28.9v-13.9C2159.5,299.1,2155.8,295.4,2151.3,295.4z"/>
			<path class="st1" d="M2201.4,295.4h-1.9c-0.1-0.5-0.2-1.1-0.2-1.8c0-0.7,0-1.5,0.2-2c0,0,0,0,0-0.1c2.2-1.4,3.6-3.8,3.6-6.6
				c0-4.4-3.5-7.9-7.9-7.9s-7.9,3.5-7.9,7.9c0,2.8,1.4,5.2,3.6,6.6c0,0,0,0,0,0.1c0.2,0.5,0.3,1.3,0.2,2c0,0.6-0.1,1.2-0.2,1.8h-1.9
				c-4.5,0-8.2,3.7-8.2,8.2v13.9h28.9v-13.9C2209.7,299.1,2206,295.4,2201.4,295.4z"/>
			<path class="st1" d="M2251.6,295.4h-1.9c-0.1-0.5-0.2-1.1-0.2-1.8c0-0.7,0-1.5,0.2-2c0,0,0,0,0-0.1c2.2-1.4,3.6-3.8,3.6-6.6
				c0-4.4-3.5-7.9-7.9-7.9c-4.4,0-7.9,3.5-7.9,7.9c0,2.8,1.4,5.2,3.6,6.6c0,0,0,0,0,0.1c0.2,0.5,0.3,1.3,0.2,2
				c0,0.6-0.1,1.2-0.2,1.8h-1.9c-4.5,0-8.2,3.7-8.2,8.2v13.9h28.9v-13.9C2259.8,299.1,2256.2,295.4,2251.6,295.4z"/>
			<path class="st1" d="M2301.8,295.4h-1.9c-0.1-0.5-0.2-1.1-0.2-1.8c0-0.7,0-1.5,0.2-2c0,0,0,0,0-0.1c2.2-1.4,3.6-3.8,3.6-6.6
				c0-4.4-3.5-7.9-7.9-7.9c-4.4,0-7.9,3.5-7.9,7.9c0,2.8,1.4,5.2,3.6,6.6c0,0,0,0,0,0.1c0.2,0.5,0.3,1.3,0.2,2
				c0,0.6-0.1,1.2-0.2,1.8h-1.9c-4.5,0-8.2,3.7-8.2,8.2v13.9h28.9v-13.9C2310,299.1,2306.3,295.4,2301.8,295.4z"/>
			<path class="st1" d="M2352,295.4h-1.9c-0.1-0.5-0.2-1.1-0.2-1.8c0-0.7,0-1.5,0.2-2c0,0,0,0,0-0.1c2.2-1.4,3.6-3.8,3.6-6.6
				c0-4.4-3.5-7.9-7.9-7.9c-4.4,0-7.9,3.5-7.9,7.9c0,2.8,1.4,5.2,3.6,6.6c0,0,0,0,0,0.1c0.2,0.5,0.3,1.3,0.2,2
				c0,0.6-0.1,1.2-0.2,1.8h-1.9c-4.5,0-8.2,3.7-8.2,8.2v13.9h28.9v-13.9C2360.2,299.1,2356.5,295.4,2352,295.4z"/>
			<path class="st1" d="M2402.2,295.4h-1.9c-0.1-0.5-0.2-1.1-0.2-1.8c0-0.7,0-1.5,0.2-2c0,0,0,0,0-0.1c2.2-1.4,3.6-3.8,3.6-6.6
				c0-4.4-3.5-7.9-7.9-7.9s-7.9,3.5-7.9,7.9c0,2.8,1.4,5.2,3.6,6.6c0,0,0,0,0,0.1c0.2,0.5,0.3,1.3,0.2,2c0,0.6-0.1,1.2-0.2,1.8h-1.9
				c-4.5,0-8.2,3.7-8.2,8.2v13.9h28.9v-13.9C2410.4,299.1,2406.7,295.4,2402.2,295.4z"/>
			<path class="st1" d="M2452.3,295.4h-1.9c-0.1-0.5-0.2-1.1-0.2-1.8c0-0.7,0-1.5,0.2-2c0,0,0,0,0-0.1c2.2-1.4,3.6-3.8,3.6-6.6
				c0-4.4-3.5-7.9-7.9-7.9s-7.9,3.5-7.9,7.9c0,2.8,1.4,5.2,3.6,6.6c0,0,0,0,0,0.1c0.2,0.5,0.3,1.3,0.2,2c0,0.6-0.1,1.2-0.2,1.8h-1.9
				c-4.5,0-8.2,3.7-8.2,8.2v13.9h28.9v-13.9C2460.6,299.1,2456.9,295.4,2452.3,295.4z"/>
			<path class="st1" d="M2502.5,295.4h-1.9c-0.1-0.5-0.2-1.1-0.2-1.8c0-0.7,0-1.5,0.2-2c0,0,0,0,0-0.1c2.2-1.4,3.6-3.8,3.6-6.6
				c0-4.4-3.5-7.9-7.9-7.9c-4.4,0-7.9,3.5-7.9,7.9c0,2.8,1.4,5.2,3.6,6.6c0,0,0,0,0,0.1c0.2,0.5,0.3,1.3,0.2,2
				c0,0.6-0.1,1.2-0.2,1.8h-1.9c-4.5,0-8.2,3.7-8.2,8.2v13.9h28.9v-13.9C2510.7,299.1,2507.1,295.4,2502.5,295.4z"/>
			<path class="st1" d="M2552.7,296.6h-1.9c-0.1-0.5-0.2-1.1-0.2-1.8c0-0.7,0-1.5,0.2-2c0,0,0,0,0-0.1c2.2-1.4,3.6-3.8,3.6-6.6
				c0-4.4-3.5-7.9-7.9-7.9c-4.4,0-7.9,3.5-7.9,7.9c0,2.8,1.4,5.2,3.6,6.6c0,0,0,0,0,0.1c0.2,0.5,0.3,1.3,0.2,2
				c0,0.6-0.1,1.2-0.2,1.8h-1.9c-4.5,0-8.2,3.7-8.2,8.2v13.9h28.9v-13.9C2560.9,300.3,2557.2,296.6,2552.7,296.6z"/>
			<path class="st1" d="M2602.9,296.6h-1.9c-0.1-0.5-0.2-1.1-0.2-1.8c0-0.7,0-1.5,0.2-2c0,0,0,0,0-0.1c2.2-1.4,3.6-3.8,3.6-6.6
				c0-4.4-3.5-7.9-7.9-7.9c-4.4,0-7.9,3.5-7.9,7.9c0,2.8,1.4,5.2,3.6,6.6c0,0,0,0,0,0.1c0.2,0.5,0.3,1.3,0.2,2
				c0,0.6-0.1,1.2-0.2,1.8h-1.9c-4.5,0-8.2,3.7-8.2,8.2v13.9h28.9v-13.9C2611.1,300.3,2607.4,296.6,2602.9,296.6z"/>
			<path class="st1" d="M2653.1,296.6h-1.9c-0.1-0.5-0.2-1.1-0.2-1.8c0-0.7,0-1.5,0.2-2c0,0,0,0,0-0.1c2.2-1.4,3.6-3.8,3.6-6.6
				c0-4.4-3.5-7.9-7.9-7.9s-7.9,3.5-7.9,7.9c0,2.8,1.4,5.2,3.6,6.6c0,0,0,0,0,0.1c0.2,0.5,0.3,1.3,0.2,2c0,0.6-0.1,1.2-0.2,1.8h-1.9
				c-4.5,0-8.2,3.7-8.2,8.2v13.9h28.9v-13.9C2661.3,300.3,2657.6,296.6,2653.1,296.6z"/>
			<path class="st1" d="M2703.3,296.6h-1.9c-0.1-0.5-0.2-1.1-0.2-1.8c0-0.7,0-1.5,0.2-2c0,0,0,0,0-0.1c2.2-1.4,3.6-3.8,3.6-6.6
				c0-4.4-3.5-7.9-7.9-7.9s-7.9,3.5-7.9,7.9c0,2.8,1.4,5.2,3.6,6.6c0,0,0,0,0,0.1c0.2,0.5,0.3,1.3,0.2,2c0,0.6-0.1,1.2-0.2,1.8h-1.9
				c-4.5,0-8.2,3.7-8.2,8.2v13.9h28.9v-13.9C2711.5,300.3,2707.8,296.6,2703.3,296.6z"/>
			<path class="st1" d="M2753.4,296.6h-1.9c-0.1-0.5-0.2-1.1-0.2-1.8c0-0.7,0-1.5,0.2-2c0,0,0,0,0-0.1c2.2-1.4,3.6-3.8,3.6-6.6
				c0-4.4-3.5-7.9-7.9-7.9c-4.4,0-7.9,3.5-7.9,7.9c0,2.8,1.4,5.2,3.6,6.6c0,0,0,0,0,0.1c0.2,0.5,0.3,1.3,0.2,2
				c0,0.6-0.1,1.2-0.2,1.8h-1.9c-4.5,0-8.2,3.7-8.2,8.2v13.9h28.9v-13.9C2761.6,300.3,2758,296.6,2753.4,296.6z"/>
			<path class="st1" d="M2803.6,296.6h-1.9c-0.1-0.5-0.2-1.1-0.2-1.8c0-0.7,0-1.5,0.2-2c0,0,0,0,0-0.1c2.2-1.4,3.6-3.8,3.6-6.6
				c0-4.4-3.5-7.9-7.9-7.9c-4.4,0-7.9,3.5-7.9,7.9c0,2.8,1.4,5.2,3.6,6.6c0,0,0,0,0,0.1c0.2,0.5,0.3,1.3,0.2,2
				c0,0.6-0.1,1.2-0.2,1.8h-1.9c-4.5,0-8.2,3.7-8.2,8.2v13.9h28.9v-13.9C2811.8,300.3,2808.2,296.6,2803.6,296.6z"/>
			<path class="st1" d="M2853.8,296.6h-1.9c-0.1-0.5-0.2-1.1-0.2-1.8c0-0.7,0-1.5,0.2-2c0,0,0,0,0-0.1c2.2-1.4,3.6-3.8,3.6-6.6
				c0-4.4-3.5-7.9-7.9-7.9c-4.4,0-7.9,3.5-7.9,7.9c0,2.8,1.4,5.2,3.6,6.6c0,0,0,0,0,0.1c0.2,0.5,0.3,1.3,0.2,2
				c0,0.6-0.1,1.2-0.2,1.8h-1.9c-4.5,0-8.2,3.7-8.2,8.2v13.9h28.9v-13.9C2862,300.3,2858.3,296.6,2853.8,296.6z"/>
		</g>
		<rect x="1817.5" y="310.6" class="st9" width="1051.3" height="37.5"/>
		<rect x="1817.5" y="146.6" class="st9" width="1051.3" height="37.5"/>
		<g>
			<g>
				<path id="path2987_11_" inkscape:connector-curvature="0" class="st11" d="M2073.8,177.1c0-0.1,3.3-11.6,3.4-11.8
					c0.1-0.1,4.5-0.1,4.5,0c0,0-0.5,1.9-1.1,4c-0.6,2.2-1.1,4-1.1,4.1c0.1,0.1,1.5,0.1,1.6,0c0.1-0.1,2.9-9.7,2.8-9.7
					c0,0-1.3-0.1-3.1-0.1c-1.7,0-3.1,0-3.1-0.1c0,0,0.6-2.3,1.4-5l1.5-5l5.4,0c3,0,5.4,0,5.4,0c0,0-0.8,3.2-2,6.9
					c-1.1,3.8-2.6,9-3.4,11.7s-1.4,4.8-1.5,4.9c-0.1,0.1-0.4,0.1-5.5,0.1C2076.3,177.2,2073.8,177.2,2073.8,177.1L2073.8,177.1z
					 M2085,159.9c0.1-0.1,0.8-2.4,0.8-2.6c0-0.1-0.1-0.1-0.8-0.1c-0.5,0-0.8,0-0.8,0.1c-0.1,0.1-0.8,2.4-0.8,2.6
					c0,0.1,0.1,0.1,0.8,0.1C2084.7,160,2085,160,2085,159.9L2085,159.9z M2089.8,163.6c0,0,0.6-2.3,1.4-5l1.5-5l2.2,0
					c1.2,0,2.3,0,2.3,0c0,0-0.3,1.4-0.8,3.1c-0.5,1.7-0.9,3.1-0.9,3.2c0,0.1,0.1,0.1,0.8,0.1l0.8,0l0.9-3.1c0.5-1.7,1-3.2,1-3.2
					c0.1-0.1,4.4-0.1,4.5,0c0,0-0.6,2.3-1.4,5l-1.5,5l-5.4,0C2092.3,163.6,2089.8,163.6,2089.8,163.6L2089.8,163.6z M2101.7,163.6
					c0,0,0.6-2.3,1.4-5l1.5-5l5.4,0c3,0,5.4,0,5.4,0c0,0-0.6,2.3-1.4,5l-1.5,5l-2.2,0c-1.2,0-2.3,0-2.3,0c0,0,0.3-1.4,0.8-3.1
					c0.5-1.7,0.9-3.1,0.9-3.2c0-0.1-0.1-0.1-0.8-0.1l-0.8,0l-0.9,3.1c-0.5,1.7-1,3.2-1,3.2C2106.1,163.6,2101.8,163.7,2101.7,163.6
					L2101.7,163.6z M2115.2,160.3c-0.3-0.2-0.3-0.5,0-1.7c0.2-0.8,0.3-1.1,0.5-1.2c0.4-0.4,1-0.2,1.1,0.3c0.1,0.4-0.5,2.3-0.7,2.5
					C2115.9,160.5,2115.5,160.5,2115.2,160.3L2115.2,160.3z"/>
				<path id="path2989-1_11_" inkscape:connector-curvature="0" class="st11" d="M2091.6,164.7c-0.7,0-1.1,0.1-1.6,0.5
					c-0.7,0.7-0.8,1.9-0.6,2.7c0.4,0.9,1.4,1.2,1.8,1.4c-1.1-0.9-0.7-2.7,0.4-3.5h0.9c2.1,0,2-0.2,2,1.3h0c0-2,0-2.4-1.8-2.4
					C2092.3,164.7,2091.9,164.7,2091.6,164.7L2091.6,164.7z M2095.2,168.8c-0.2,1.3-1,1.5-2.6,1.5l0,0l-4.7,0l-0.4,1.5l4.8,0h0
					C2094,171.7,2094.9,170.3,2095.2,168.8L2095.2,168.8z"/>
			</g>
			<g>
				<path id="path2987_10_" inkscape:connector-curvature="0" class="st11" d="M2413.8,177.1c0-0.1,3.3-11.6,3.4-11.8
					c0.1-0.1,4.5-0.1,4.5,0c0,0-0.5,1.9-1.1,4c-0.6,2.2-1.1,4-1.1,4.1c0.1,0.1,1.5,0.1,1.6,0c0.1-0.1,2.9-9.7,2.8-9.7
					c0,0-1.3-0.1-3.1-0.1c-1.7,0-3.1,0-3.1-0.1c0,0,0.6-2.3,1.4-5l1.5-5l5.4,0c3,0,5.4,0,5.4,0c0,0-0.8,3.2-2,6.9
					c-1.1,3.8-2.6,9-3.4,11.7s-1.4,4.8-1.5,4.9c-0.1,0.1-0.4,0.1-5.5,0.1C2416.3,177.2,2413.8,177.2,2413.8,177.1L2413.8,177.1z
					 M2425,159.9c0.1-0.1,0.8-2.4,0.8-2.6c0-0.1-0.1-0.1-0.8-0.1c-0.5,0-0.8,0-0.8,0.1c-0.1,0.1-0.8,2.4-0.8,2.6
					c0,0.1,0.1,0.1,0.8,0.1C2424.7,160,2425,160,2425,159.9L2425,159.9z M2429.8,163.6c0,0,0.6-2.3,1.4-5l1.5-5l2.2,0
					c1.2,0,2.3,0,2.3,0c0,0-0.3,1.4-0.8,3.1c-0.5,1.7-0.9,3.1-0.9,3.2c0,0.1,0.1,0.1,0.8,0.1l0.8,0l0.9-3.1c0.5-1.7,1-3.2,1-3.2
					c0.1-0.1,4.4-0.1,4.5,0c0,0-0.6,2.3-1.4,5l-1.5,5l-5.4,0C2432.3,163.6,2429.8,163.6,2429.8,163.6L2429.8,163.6z M2441.7,163.6
					c0,0,0.6-2.3,1.4-5l1.5-5l5.4,0c3,0,5.4,0,5.4,0c0,0-0.6,2.3-1.4,5l-1.5,5l-2.2,0c-1.2,0-2.3,0-2.3,0c0,0,0.3-1.4,0.8-3.1
					c0.5-1.7,0.9-3.1,0.9-3.2c0-0.1-0.1-0.1-0.8-0.1l-0.8,0l-0.9,3.1c-0.5,1.7-1,3.2-1,3.2C2446.1,163.6,2441.8,163.7,2441.7,163.6
					L2441.7,163.6z M2455.2,160.3c-0.3-0.2-0.3-0.5,0-1.7c0.2-0.8,0.3-1.1,0.5-1.2c0.4-0.4,1-0.2,1.1,0.3c0.1,0.4-0.5,2.3-0.7,2.5
					C2455.9,160.5,2455.5,160.5,2455.2,160.3L2455.2,160.3z"/>
				<path id="path2989-1_10_" inkscape:connector-curvature="0" class="st11" d="M2431.6,164.7c-0.7,0-1.1,0.1-1.6,0.5
					c-0.7,0.7-0.8,1.9-0.6,2.7c0.4,0.9,1.4,1.2,1.8,1.4c-1.1-0.9-0.7-2.7,0.4-3.5h0.9c2.1,0,2-0.2,2,1.3h0c0-2,0-2.4-1.8-2.4
					C2432.3,164.7,2431.9,164.7,2431.6,164.7L2431.6,164.7z M2435.2,168.8c-0.2,1.3-1,1.5-2.6,1.5l0,0l-4.7,0l-0.4,1.5l4.8,0h0
					C2434,171.7,2434.9,170.3,2435.2,168.8L2435.2,168.8z"/>
			</g>
			<g>
				<path id="path2987_9_" inkscape:connector-curvature="0" class="st11" d="M2793.8,177.1c0-0.1,3.3-11.6,3.4-11.8
					c0.1-0.1,4.5-0.1,4.5,0c0,0-0.5,1.9-1.1,4c-0.6,2.2-1.1,4-1.1,4.1c0.1,0.1,1.5,0.1,1.6,0c0.1-0.1,2.9-9.7,2.8-9.7
					c0,0-1.3-0.1-3.1-0.1c-1.7,0-3.1,0-3.1-0.1c0,0,0.6-2.3,1.4-5l1.5-5l5.4,0c3,0,5.4,0,5.4,0c0,0-0.8,3.2-2,6.9
					c-1.1,3.8-2.6,9-3.4,11.7s-1.4,4.8-1.5,4.9c-0.1,0.1-0.4,0.1-5.5,0.1C2796.3,177.2,2793.8,177.2,2793.8,177.1L2793.8,177.1z
					 M2805,159.9c0.1-0.1,0.8-2.4,0.8-2.6c0-0.1-0.1-0.1-0.8-0.1c-0.5,0-0.8,0-0.8,0.1c-0.1,0.1-0.8,2.4-0.8,2.6
					c0,0.1,0.1,0.1,0.8,0.1C2804.7,160,2805,160,2805,159.9L2805,159.9z M2809.8,163.6c0,0,0.6-2.3,1.4-5l1.5-5l2.2,0
					c1.2,0,2.3,0,2.3,0c0,0-0.3,1.4-0.8,3.1c-0.5,1.7-0.9,3.1-0.9,3.2c0,0.1,0.1,0.1,0.8,0.1l0.8,0l0.9-3.1c0.5-1.7,1-3.2,1-3.2
					c0.1-0.1,4.4-0.1,4.5,0c0,0-0.6,2.3-1.4,5l-1.5,5l-5.4,0C2812.3,163.6,2809.8,163.6,2809.8,163.6L2809.8,163.6z M2821.7,163.6
					c0,0,0.6-2.3,1.4-5l1.5-5l5.4,0c3,0,5.4,0,5.4,0c0,0-0.6,2.3-1.4,5l-1.5,5l-2.2,0c-1.2,0-2.3,0-2.3,0c0,0,0.3-1.4,0.8-3.1
					c0.5-1.7,0.9-3.1,0.9-3.2c0-0.1-0.1-0.1-0.8-0.1l-0.8,0l-0.9,3.1c-0.5,1.7-1,3.2-1,3.2C2826.1,163.6,2821.8,163.7,2821.7,163.6
					L2821.7,163.6z M2835.2,160.3c-0.3-0.2-0.3-0.5,0-1.7c0.2-0.8,0.3-1.1,0.5-1.2c0.4-0.4,1-0.2,1.1,0.3c0.1,0.4-0.5,2.3-0.7,2.5
					C2835.9,160.5,2835.5,160.5,2835.2,160.3L2835.2,160.3z"/>
				<path id="path2989-1_9_" inkscape:connector-curvature="0" class="st11" d="M2811.6,164.7c-0.7,0-1.1,0.1-1.6,0.5
					c-0.7,0.7-0.8,1.9-0.6,2.7c0.4,0.9,1.4,1.2,1.8,1.4c-1.1-0.9-0.7-2.7,0.4-3.5h0.9c2.1,0,2-0.2,2,1.3h0c0-2,0-2.4-1.8-2.4
					C2812.3,164.7,2811.9,164.7,2811.6,164.7L2811.6,164.7z M2815.2,168.8c-0.2,1.3-1,1.5-2.6,1.5l0,0l-4.7,0l-0.4,1.5l4.8,0h0
					C2814,171.7,2814.9,170.3,2815.2,168.8L2815.2,168.8z"/>
			</g>
		</g>
		<rect x="2267.3" y="68.3" class="st12" width="156.7" height="104.3"/>
		<g>
			<path class="st13" d="M2383.1,158.1h-73.4v-47.6h73.4V158.1z M2313.9,154h65.1v-39.4h-65.1V154z"/>
		</g>
		<path class="st9" d="M2261.7,63.1v114.2h169.4V63.1H2261.7z M2273.1,165.6V74.9h146.8v90.7H2273.1z"/>
		<g>
			<g>
				<path class="st14" d="M2321.5,224.6l-2.5-0.1c0,0,0-0.9,0-2.5c0-1.6-0.1-3.9-0.2-6.6c-0.3-5.7-0.9-13-1.8-20
					c-0.2-1.7-0.5-3.4-0.7-5.1l0-0.3c-0.2-1.7-0.5-3.4-0.9-5.2c-0.3-1.7-0.6-3.4-1-4.9c-0.4-1.7-0.7-3.1-1-4.4
					c-0.3-1.2-0.7-2.5-1-3.7l-0.1-0.2c-0.3-1-0.6-1.9-0.8-2.6c-0.5-1.5-0.9-2.4-0.9-2.4l2.3-0.9c0,0,0.4,1,0.9,2.6
					c0.3,0.7,0.5,1.6,0.8,2.7l0.1,0.2c0.4,1.2,0.7,2.5,1,3.8c0.3,1.3,0.7,2.8,1.1,4.5c0.3,1.5,0.7,3.2,1,5c0.3,1.8,0.6,3.6,0.9,5.3
					l0,0.3c0.2,1.7,0.5,3.4,0.7,5.2c0.9,7,1.6,14.4,1.9,20.2c0.1,2.7,0.2,5,0.2,6.7C2321.5,223.7,2321.5,224.6,2321.5,224.6z"/>
			</g>
			<g>
				<path class="st14" d="M2371.4,224.6c0,0,0-0.9,0-2.6c0-1.7,0.1-4,0.2-6.7c0.3-5.8,0.9-13.1,1.9-20.2c0.2-1.7,0.5-3.4,0.7-5.1
					l0-0.3c0.3-1.7,0.5-3.5,0.9-5.3c0.3-1.8,0.7-3.4,1-5c0.4-1.7,0.7-3.2,1.1-4.5c0.3-1.3,0.7-2.6,1-3.8l0.1-0.2
					c0.3-1,0.6-1.9,0.8-2.7c0.5-1.6,0.9-2.5,0.9-2.6l2.3,0.9c0,0-0.4,0.9-0.9,2.4c-0.3,0.7-0.5,1.6-0.8,2.6l-0.1,0.2
					c-0.4,1.1-0.7,2.4-1,3.7c-0.3,1.3-0.7,2.7-1,4.4c-0.3,1.5-0.7,3.2-1,4.9c-0.3,1.8-0.6,3.6-0.9,5.2l0,0.3
					c-0.2,1.7-0.5,3.4-0.7,5.1c-0.9,7-1.6,14.3-1.8,20c-0.1,2.6-0.2,4.9-0.2,6.6c0,1.6,0,2.4,0,2.5L2371.4,224.6z"/>
			</g>
			<g>
				<polygon class="st14" points="2372.4,225.8 2319.4,215.2 2319.4,212.9 2366.3,204.7 2317.8,196.5 2317.6,194.2 2370.5,184.4 
					2337.5,175.9 2338.1,173.5 2376.6,183.5 2376.1,185.9 2325.4,195.3 2373.7,203.4 2373.3,205.9 2326.8,214.1 2372.9,223.3 				
					"/>
			</g>
			<g>
				<polygon class="st14" points="2320.2,225.8 2373.2,215.2 2373.1,212.9 2326.3,204.7 2374.8,196.5 2375,194.2 2322,184.4 
					2355.1,175.9 2354.4,173.5 2315.9,183.5 2316.4,185.9 2367.2,195.3 2318.9,203.4 2319.2,205.9 2365.8,214.1 2319.7,223.3 				
					"/>
			</g>
			<g>
				<path class="st14" d="M2329.1,235c-5.6,0-10.1-6-10.1-10.9h2.5c0,3.8,3.5,8.4,7.6,8.4c4.1,0,7.4-3.1,7.4-6.9h2.5
					C2339,230.8,2334.6,235,2329.1,235z"/>
			</g>
			<g>
				<path class="st14" d="M2346.5,235c-5.5,0-9.9-4.2-9.9-9.4h2.5c0,3.8,3.3,6.9,7.4,6.9c4.1,0,7.4-3.1,7.4-6.9h2.5
					C2356.3,230.8,2351.9,235,2346.5,235z"/>
			</g>
			<g>
				<path class="st14" d="M2363.8,235c-5.5,0-9.9-4.2-9.9-9.4h2.5c0,3.8,3.3,6.9,7.4,6.9c4.1,0,7.6-4.6,7.6-8.3h2.5
					C2373.9,229.2,2369.5,235,2363.8,235z"/>
			</g>
			<g>
				<rect x="2336.6" y="174.4" class="st14" width="2.5" height="53.3"/>
			</g>
			<g>
				<rect x="2353.9" y="174.7" class="st14" width="2.5" height="51.6"/>
			</g>
		</g>
		<g>
			<path class="st15" d="M2346.5,176.7c-9.4,0-18.3-1-25-2.8c-7.7-2.1-11.7-5-11.7-8.6s3.9-6.5,11.7-8.6c6.7-1.8,15.6-2.8,25-2.8
				c9.4,0,18.3,1,25,2.8c7.7,2.1,11.7,5,11.7,8.6s-3.9,6.5-11.7,8.6C2364.8,175.7,2355.9,176.7,2346.5,176.7z M2346.5,158.1
				c-21.1,0-32.6,4.8-32.6,7.3s11.5,7.3,32.6,7.3c21.1,0,32.6-4.8,32.6-7.3S2367.5,158.1,2346.5,158.1z"/>
		</g>
		<g>
			<g>
				<path id="path2987_8_" inkscape:connector-curvature="0" class="st11" d="M1933.8,341.1c0-0.1,3.3-11.6,3.4-11.8
					c0.1-0.1,4.5-0.1,4.5,0c0,0-0.5,1.9-1.1,4c-0.6,2.2-1.1,4-1.1,4.1c0.1,0.1,1.5,0.1,1.6,0c0.1-0.1,2.9-9.7,2.8-9.7
					c0,0-1.3-0.1-3.1-0.1c-1.7,0-3.1,0-3.1-0.1c0,0,0.6-2.3,1.4-5l1.5-5l5.4,0c3,0,5.4,0,5.4,0c0,0-0.8,3.2-2,6.9
					c-1.1,3.8-2.6,9-3.4,11.7s-1.4,4.8-1.5,4.9c-0.1,0.1-0.4,0.1-5.5,0.1C1936.3,341.2,1933.8,341.1,1933.8,341.1L1933.8,341.1z
					 M1945,323.9c0.1-0.1,0.8-2.4,0.8-2.6c0-0.1-0.1-0.1-0.8-0.1c-0.5,0-0.8,0-0.8,0.1c-0.1,0.1-0.8,2.4-0.8,2.6
					c0,0.1,0.1,0.1,0.8,0.1C1944.7,324,1945,323.9,1945,323.9L1945,323.9z M1949.8,327.6c0,0,0.6-2.3,1.4-5l1.5-5l2.2,0
					c1.2,0,2.3,0,2.3,0c0,0-0.3,1.4-0.8,3.1c-0.5,1.7-0.9,3.1-0.9,3.2c0,0.1,0.1,0.1,0.8,0.1l0.8,0l0.9-3.1c0.5-1.7,1-3.2,1-3.2
					c0.1-0.1,4.4-0.1,4.5,0c0,0-0.6,2.3-1.4,5l-1.5,5l-5.4,0C1952.3,327.6,1949.8,327.6,1949.8,327.6L1949.8,327.6z M1961.7,327.6
					c0,0,0.6-2.3,1.4-5l1.5-5l5.4,0c3,0,5.4,0,5.4,0c0,0-0.6,2.3-1.4,5l-1.5,5l-2.2,0c-1.2,0-2.3,0-2.3,0c0,0,0.3-1.4,0.8-3.1
					c0.5-1.7,0.9-3.1,0.9-3.2c0-0.1-0.1-0.1-0.8-0.1l-0.8,0l-0.9,3.1c-0.5,1.7-1,3.2-1,3.2C1966.1,327.6,1961.8,327.7,1961.7,327.6
					L1961.7,327.6z M1975.2,324.3c-0.3-0.2-0.3-0.5,0-1.7c0.2-0.8,0.3-1.1,0.5-1.2c0.4-0.4,1-0.2,1.1,0.3c0.1,0.4-0.5,2.3-0.7,2.5
					C1975.9,324.5,1975.5,324.5,1975.2,324.3L1975.2,324.3z"/>
				<path id="path2989-1_8_" inkscape:connector-curvature="0" class="st11" d="M1951.6,328.7c-0.7,0-1.1,0.1-1.6,0.5
					c-0.7,0.7-0.8,1.9-0.6,2.7c0.4,0.9,1.4,1.2,1.8,1.4c-1.1-0.9-0.7-2.7,0.4-3.5h0.9c2.1,0,2-0.2,2,1.3h0c0-2,0-2.4-1.8-2.4
					C1952.3,328.7,1951.9,328.7,1951.6,328.7L1951.6,328.7z M1955.2,332.8c-0.2,1.3-1,1.5-2.6,1.5l0,0h-4.7l-0.4,1.5l4.8,0h0
					C1954,335.7,1954.9,334.3,1955.2,332.8L1955.2,332.8z"/>
			</g>
			<g>
				<path id="path2987_7_" inkscape:connector-curvature="0" class="st11" d="M2273.8,341.1c0-0.1,3.3-11.6,3.4-11.8
					c0.1-0.1,4.5-0.1,4.5,0c0,0-0.5,1.9-1.1,4c-0.6,2.2-1.1,4-1.1,4.1c0.1,0.1,1.5,0.1,1.6,0c0.1-0.1,2.9-9.7,2.8-9.7
					c0,0-1.3-0.1-3.1-0.1c-1.7,0-3.1,0-3.1-0.1c0,0,0.6-2.3,1.4-5l1.5-5l5.4,0c3,0,5.4,0,5.4,0c0,0-0.8,3.2-2,6.9
					c-1.1,3.8-2.6,9-3.4,11.7s-1.4,4.8-1.5,4.9c-0.1,0.1-0.4,0.1-5.5,0.1C2276.3,341.2,2273.8,341.1,2273.8,341.1L2273.8,341.1z
					 M2285,323.9c0.1-0.1,0.8-2.4,0.8-2.6c0-0.1-0.1-0.1-0.8-0.1c-0.5,0-0.8,0-0.8,0.1c-0.1,0.1-0.8,2.4-0.8,2.6
					c0,0.1,0.1,0.1,0.8,0.1C2284.7,324,2285,323.9,2285,323.9L2285,323.9z M2289.8,327.6c0,0,0.6-2.3,1.4-5l1.5-5l2.2,0
					c1.2,0,2.3,0,2.3,0c0,0-0.3,1.4-0.8,3.1c-0.5,1.7-0.9,3.1-0.9,3.2c0,0.1,0.1,0.1,0.8,0.1l0.8,0l0.9-3.1c0.5-1.7,1-3.2,1-3.2
					c0.1-0.1,4.4-0.1,4.5,0c0,0-0.6,2.3-1.4,5l-1.5,5l-5.4,0C2292.3,327.6,2289.8,327.6,2289.8,327.6L2289.8,327.6z M2301.7,327.6
					c0,0,0.6-2.3,1.4-5l1.5-5l5.4,0c3,0,5.4,0,5.4,0s-0.6,2.3-1.4,5l-1.5,5l-2.2,0c-1.2,0-2.3,0-2.3,0c0,0,0.3-1.4,0.8-3.1
					c0.5-1.7,0.9-3.1,0.9-3.2c0-0.1-0.1-0.1-0.8-0.1l-0.8,0l-0.9,3.1c-0.5,1.7-1,3.2-1,3.2C2306.1,327.6,2301.8,327.7,2301.7,327.6
					L2301.7,327.6z M2315.2,324.3c-0.3-0.2-0.3-0.5,0-1.7c0.2-0.8,0.3-1.1,0.5-1.2c0.4-0.4,1-0.2,1.1,0.3c0.1,0.4-0.5,2.3-0.7,2.5
					C2315.9,324.5,2315.5,324.5,2315.2,324.3L2315.2,324.3z"/>
				<path id="path2989-1_7_" inkscape:connector-curvature="0" class="st11" d="M2291.6,328.7c-0.7,0-1.1,0.1-1.6,0.5
					c-0.7,0.7-0.8,1.9-0.6,2.7c0.4,0.9,1.4,1.2,1.8,1.4c-1.1-0.9-0.7-2.7,0.4-3.5h0.9c2.1,0,2-0.2,2,1.3h0c0-2,0-2.4-1.8-2.4
					C2292.3,328.7,2291.9,328.7,2291.6,328.7L2291.6,328.7z M2295.2,332.8c-0.2,1.3-1,1.5-2.6,1.5l0,0h-4.7l-0.4,1.5l4.8,0h0
					C2294,335.7,2294.9,334.3,2295.2,332.8L2295.2,332.8z"/>
			</g>
			<g>
				<path id="path2987_6_" inkscape:connector-curvature="0" class="st11" d="M2653.8,341.1c0-0.1,3.3-11.6,3.4-11.8
					c0.1-0.1,4.5-0.1,4.5,0c0,0-0.5,1.9-1.1,4c-0.6,2.2-1.1,4-1.1,4.1c0.1,0.1,1.5,0.1,1.6,0c0.1-0.1,2.9-9.7,2.8-9.7
					c0,0-1.3-0.1-3.1-0.1c-1.7,0-3.1,0-3.1-0.1c0,0,0.6-2.3,1.4-5l1.5-5l5.4,0c3,0,5.4,0,5.4,0c0,0-0.8,3.2-2,6.9
					c-1.1,3.8-2.6,9-3.4,11.7s-1.4,4.8-1.5,4.9c-0.1,0.1-0.4,0.1-5.5,0.1C2656.3,341.2,2653.8,341.1,2653.8,341.1L2653.8,341.1z
					 M2665,323.9c0.1-0.1,0.8-2.4,0.8-2.6c0-0.1-0.1-0.1-0.8-0.1c-0.5,0-0.8,0-0.8,0.1c-0.1,0.1-0.8,2.4-0.8,2.6
					c0,0.1,0.1,0.1,0.8,0.1C2664.7,324,2665,323.9,2665,323.9L2665,323.9z M2669.8,327.6c0,0,0.6-2.3,1.4-5l1.5-5l2.2,0
					c1.2,0,2.3,0,2.3,0c0,0-0.3,1.4-0.8,3.1c-0.5,1.7-0.9,3.1-0.9,3.2c0,0.1,0.1,0.1,0.8,0.1l0.8,0l0.9-3.1c0.5-1.7,1-3.2,1-3.2
					c0.1-0.1,4.4-0.1,4.5,0c0,0-0.6,2.3-1.4,5l-1.5,5l-5.4,0C2672.3,327.6,2669.8,327.6,2669.8,327.6L2669.8,327.6z M2681.7,327.6
					c0,0,0.6-2.3,1.4-5l1.5-5l5.4,0c3,0,5.4,0,5.4,0s-0.6,2.3-1.4,5l-1.5,5l-2.2,0c-1.2,0-2.3,0-2.3,0c0,0,0.3-1.4,0.8-3.1
					c0.5-1.7,0.9-3.1,0.9-3.2c0-0.1-0.1-0.1-0.8-0.1l-0.8,0l-0.9,3.1c-0.5,1.7-1,3.2-1,3.2C2686.1,327.6,2681.8,327.7,2681.7,327.6
					L2681.7,327.6z M2695.2,324.3c-0.3-0.2-0.3-0.5,0-1.7c0.2-0.8,0.3-1.1,0.5-1.2c0.4-0.4,1-0.2,1.1,0.3c0.1,0.4-0.5,2.3-0.7,2.5
					C2695.9,324.5,2695.5,324.5,2695.2,324.3L2695.2,324.3z"/>
				<path id="path2989-1_6_" inkscape:connector-curvature="0" class="st11" d="M2671.6,328.7c-0.7,0-1.1,0.1-1.6,0.5
					c-0.7,0.7-0.8,1.9-0.6,2.7c0.4,0.9,1.4,1.2,1.8,1.4c-1.1-0.9-0.7-2.7,0.4-3.5h0.9c2.1,0,2-0.2,2,1.3h0c0-2,0-2.4-1.8-2.4
					C2672.3,328.7,2671.9,328.7,2671.6,328.7L2671.6,328.7z M2675.2,332.8c-0.2,1.3-1,1.5-2.6,1.5l0,0h-4.7l-0.4,1.5l4.8,0h0
					C2674,335.7,2674.9,334.3,2675.2,332.8L2675.2,332.8z"/>
			</g>
		</g>
	</g>
</g>
</svg>
