<!-- Generator: Adobe Illustrator 19.2.1, SVG Export Plug-In  -->
<svg version="1.1"
	 xmlns="http://www.w3.org/2000/svg" xmlns:xlink="http://www.w3.org/1999/xlink" xmlns:a="http://ns.adobe.com/AdobeSVGViewerExtensions/3.0/"
	 x="0px" y="0px" width="4694.2px" height="845.7px" viewBox="0 0 4694.2 845.7" style="enable-background:new 0 0 4694.2 845.7;"
	 xml:space="preserve">
<style type="text/css">
	.st0{fill:url(#SVGID_2_);}
	.st1{clip-path:url(#SVGID_3_);fill:#624373;}
	.st2{clip-path:url(#SVGID_3_);}
	.st3{fill:url(#SVGID_4_);}
	.st4{fill:#624373;}
	.st5{fill:none;stroke:#624373;stroke-width:5.8319;stroke-miterlimit:10;}
	.st6{fill:#808080;}
	.st7{fill:#F2E9D6;}
	.st8{fill:#EF7752;}
	.st9{fill:#E6EDED;}
	.st10{fill:#F15A24;}
	.st11{fill:url(#SVGID_5_);}
	.st12{clip-path:url(#SVGID_7_);fill:#624373;}
	.st13{clip-path:url(#SVGID_7_);}
	.st14{fill:url(#SVGID_8_);}
</style>
<defs>
</defs>
<g>
	<linearGradient id="SVGID_2_" gradientUnits="userSpaceOnUse" x1="2346.4512" y1="-2.301203e-08" x2="2346.4512" y2="389.9749">
		<stop  offset="0" style="stop-color:#666666"/>
		<stop  offset="1" style="stop-color:#999999"/>
	</linearGradient>
	<rect x="1833.9" class="st0" width="1025.1" height="390"/>
	<g>
		<defs>
			<rect id="SVGID_1_" x="1833.9" y="390" width="1025.1" height="246.3"/>
		</defs>
		<clipPath id="SVGID_3_">
			<use xlink:href="#SVGID_1_"  style="overflow:visible;"/>
		</clipPath>
		<rect x="1833.9" y="390" class="st1" width="1025.1" height="180.2"/>
		<g class="st2">
			<linearGradient id="SVGID_4_" gradientUnits="userSpaceOnUse" x1="2347.1003" y1="389.9759" x2="2347.1003" y2="845.7053">
				<stop  offset="0" style="stop-color:#F0EEDD"/>
				<stop  offset="1" style="stop-color:#95958D"/>
			</linearGradient>
			<polygon class="st3" points="2623.1,390 2577.1,390 2531.1,390 2485.1,390 2439.1,390 2393.1,390 2347.1,390 2301.1,390 
				2255.1,390 2209.1,390 2163.1,390 2117.1,390 2071.1,390 2025.1,390 1512,505.4 0,845.7 335.3,845.7 670.6,845.7 1005.9,845.7 
				1341.2,845.7 1676.5,845.7 2011.8,845.7 2347.1,845.7 2682.4,845.7 3017.7,845.7 3353,845.7 3688.3,845.7 4023.6,845.7 
				4358.9,845.7 4694.2,845.7 3219.6,513.9 2669.1,390 			"/>
			<g>
				<path class="st4" d="M2668.2,398.3l1951,439.1H75l1951-439.1H2668.2 M2669.1,390h-644L0,845.7h4694.2L2669.1,390L2669.1,390z"/>
			</g>
			<path class="st4" d="M2419.9,390.1l48.2,48.1h0c17.2,17.4-34.7,35.8-121.2,35.8s-138.4-18.3-121.1-35.8h0l48.4-48.1l-216.3-0.1
				c-116.3,30.8-50,84.3,289.3,84.3c338.1,0,405.3-53.2,290.1-84.1L2419.9,390.1z"/>
			<line class="st5" x1="2221.6" y1="438.2" x2="2475.2" y2="438.2"/>
		</g>
	</g>
	<rect x="2339.1" y="139.3" class="st6" width="14.8" height="267.2"/>
	<rect x="2267.3" y="68.3" class="st7" width="156.7" height="104.3"/>
	<g>
		<path class="st8" d="M2383.1,158.1h-73.4v-47.6h73.4V158.1z M2313.9,154h65.1v-39.4h-65.1V154z"/>
	</g>
	<path class="st4" d="M2261.7,63.1v114.2h169.4V63.1H2261.7z M2273.1,165.6V74.9h146.8v90.7H2273.1z"/>
	<g>
		<g>
			<path class="st9" d="M2321.5,224.6l-2.5-0.1c0,0,0-0.9,0-2.5c0-1.6-0.1-3.9-0.2-6.6c-0.3-5.7-0.9-13-1.8-20
				c-0.2-1.7-0.5-3.4-0.7-5.1l0-0.3c-0.2-1.7-0.5-3.4-0.9-5.2c-0.3-1.7-0.6-3.4-1-4.9c-0.4-1.7-0.7-3.1-1-4.4
				c-0.3-1.2-0.7-2.5-1-3.7l-0.1-0.2c-0.3-1-0.6-1.9-0.8-2.6c-0.5-1.5-0.9-2.4-0.9-2.4l2.3-0.9c0,0,0.4,1,0.9,2.6
				c0.3,0.7,0.5,1.6,0.8,2.7l0.1,0.2c0.4,1.2,0.7,2.5,1,3.8c0.3,1.3,0.7,2.8,1.1,4.5c0.3,1.5,0.7,3.2,1,5c0.3,1.8,0.6,3.6,0.9,5.3
				l0,0.3c0.2,1.7,0.5,3.4,0.7,5.2c0.9,7,1.6,14.4,1.9,20.2c0.1,2.7,0.2,5,0.2,6.7C2321.5,223.7,2321.5,224.6,2321.5,224.6z"/>
		</g>
		<g>
			<path class="st9" d="M2371.4,224.6c0,0,0-0.9,0-2.6c0-1.7,0.1-4,0.2-6.7c0.3-5.8,0.9-13.1,1.9-20.2c0.2-1.7,0.5-3.4,0.7-5.1
				l0-0.3c0.3-1.7,0.5-3.5,0.9-5.3c0.3-1.8,0.7-3.4,1-5c0.4-1.7,0.7-3.2,1.1-4.5c0.3-1.3,0.7-2.6,1-3.8l0.1-0.2
				c0.3-1,0.6-1.9,0.8-2.7c0.5-1.6,0.9-2.5,0.9-2.6l2.3,0.9c0,0-0.4,0.9-0.9,2.4c-0.3,0.7-0.5,1.6-0.8,2.6l-0.1,0.2
				c-0.4,1.1-0.7,2.4-1,3.7c-0.3,1.3-0.7,2.7-1,4.4c-0.3,1.5-0.7,3.2-1,4.9c-0.3,1.8-0.6,3.6-0.9,5.2l0,0.3
				c-0.2,1.7-0.5,3.4-0.7,5.1c-0.9,7-1.6,14.3-1.8,20c-0.1,2.6-0.2,4.9-0.2,6.6c0,1.6,0,2.4,0,2.5L2371.4,224.6z"/>
		</g>
		<g>
			<polygon class="st9" points="2372.4,225.8 2319.4,215.2 2319.4,212.9 2366.3,204.7 2317.8,196.5 2317.6,194.2 2370.5,184.4 
				2337.5,175.9 2338.1,173.5 2376.6,183.5 2376.1,185.9 2325.4,195.3 2373.7,203.4 2373.3,205.9 2326.8,214.1 2372.9,223.3 			"/>
		</g>
		<g>
			<polygon class="st9" points="2320.2,225.8 2373.2,215.2 2373.1,212.9 2326.3,204.7 2374.8,196.5 2375,194.2 2322,184.4 
				2355.1,175.9 2354.4,173.5 2315.9,183.5 2316.4,185.9 2367.2,195.3 2318.9,203.4 2319.2,205.9 2365.8,214.1 2319.7,223.3 			"/>
		</g>
		<g>
			<path class="st9" d="M2329.1,235c-5.6,0-10.1-6-10.1-10.9h2.5c0,3.8,3.5,8.4,7.6,8.4c4.1,0,7.4-3.1,7.4-6.9h2.5
				C2339,230.8,2334.6,235,2329.1,235z"/>
		</g>
		<g>
			<path class="st9" d="M2346.5,235c-5.5,0-9.9-4.2-9.9-9.4h2.5c0,3.8,3.3,6.9,7.4,6.9c4.1,0,7.4-3.1,7.4-6.9h2.5
				C2356.3,230.8,2351.9,235,2346.5,235z"/>
		</g>
		<g>
			<path class="st9" d="M2363.8,235c-5.5,0-9.9-4.2-9.9-9.4h2.5c0,3.8,3.3,6.9,7.4,6.9c4.1,0,7.6-4.6,7.6-8.3h2.5
				C2373.9,229.2,2369.5,235,2363.8,235z"/>
		</g>
		<g>
			<rect x="2336.6" y="174.4" class="st9" width="2.5" height="53.3"/>
		</g>
		<g>
			<rect x="2353.9" y="174.7" class="st9" width="2.5" height="51.6"/>
		</g>
	</g>
	<g>
		<path class="st10" d="M2346.5,176.7c-9.4,0-18.3-1-25-2.8c-7.7-2.1-11.7-5-11.7-8.6s3.9-6.5,11.7-8.6c6.7-1.8,15.6-2.8,25-2.8
			c9.4,0,18.3,1,25,2.8c7.7,2.1,11.7,5,11.7,8.6s-3.9,6.5-11.7,8.6C2364.8,175.7,2355.9,176.7,2346.5,176.7z M2346.5,158.1
			c-21.1,0-32.6,4.8-32.6,7.3s11.5,7.3,32.6,7.3c21.1,0,32.6-4.8,32.6-7.3S2367.5,158.1,2346.5,158.1z"/>
	</g>
</g>
</svg>
