<?xml version="1.0" encoding="utf-8"?>
<!-- Generator: Adobe Illustrator 19.1.0, SVG Export Plug-In . SVG Version: 6.00 Build 0)  -->
<!DOCTYPE svg PUBLIC "-//W3C//DTD SVG 1.1//EN" "http://www.w3.org/Graphics/SVG/1.1/DTD/svg11.dtd">
<svg version="1.1" id="Layer_1" xmlns="http://www.w3.org/2000/svg" xmlns:xlink="http://www.w3.org/1999/xlink" x="0px" y="0px"
	 viewBox="0 0 121.9 204.3" style="enable-background:new 0 0 121.9 204.3;" xml:space="preserve">
<style type="text/css">
	.st0{fill:#A77E67;}
	.st1{fill:#D19F7D;}
	.st2{fill:#ED1C24;}
	.st3{fill:#39B54A;}
	.st4{fill:#F1F2F2;}
	.st5{fill:#FFFFFF;}
	.st6{fill:#E2AE83;}
	.st7{fill:#383838;}
	.st8{fill:#F3BA91;}
	.st9{fill:#BE9271;}
	.st10{fill:#21409A;}
	.st11{fill:#BE9173;}
	.st12{fill:#243D82;}
	.st13{fill:#99247D;}
	.st14{fill:#FFFFFF;stroke:#99247D;stroke-width:1.1116;stroke-miterlimit:10;}
	.st15{fill:#2D8A42;}
	.st16{fill:#CCCCCC;}
	.st17{fill:#C42128;}
</style>
<g>
	<path class="st1" d="M92.8,203.8l0.4-5.5h-5.8C89.4,199.3,91.2,201.8,92.8,203.8z"/>
	<path class="st1" d="M33.5,204.3c1.7-2.2,3.5-5,5.5-6h-6.3L33.5,204.3z"/>
	<path class="st10" d="M121.3,63.6c-0.3-1.4-0.6-2.8-0.9-4.1c0-0.3,0-0.5,0-0.8C120.5,26.3,93.6,0,60.4,0c-0.4,0-0.7,0-1.1,0
		c-0.6,0-1.1,0-1.7,0h0C32.8,0,12.5,11.8,9.8,27c-6,9.1-9.5,20-9.5,31.7c0,1.8,0.1,3.5,0.3,5.2c0,0.1,0,0.2-0.1,0.3L1.2,88
		l2.4,110.4h28.9H39h48.5h5.8h29.5l-0.9-116.1L121.3,63.6z"/>
</g>
</svg>
