<?xml version="1.0" encoding="utf-8"?>
<!-- Generator: Adobe Illustrator 19.1.0, SVG Export Plug-In . SVG Version: 6.00 Build 0)  -->
<!DOCTYPE svg PUBLIC "-//W3C//DTD SVG 1.1//EN" "http://www.w3.org/Graphics/SVG/1.1/DTD/svg11.dtd">
<svg version="1.1" id="Layer_1" xmlns="http://www.w3.org/2000/svg" xmlns:xlink="http://www.w3.org/1999/xlink" x="0px" y="0px"
	 viewBox="0 0 63.7 220" style="enable-background:new 0 0 63.7 220;" xml:space="preserve">
<style type="text/css">
	.st0{fill:#A77E67;}
	.st1{fill:#D19F7D;}
	.st2{fill:#ED1C24;}
	.st3{fill:#39B54A;}
	.st4{fill:#F1F2F2;}
	.st5{fill:#FFFFFF;}
	.st6{fill:#E2AE83;}
	.st7{fill:#383838;}
	.st8{fill:#F3BA91;}
	.st9{fill:#BE9271;}
	.st10{fill:#21409A;}
	.st11{fill:#BE9173;}
	.st12{fill:#243D82;}
	.st13{fill:#99247D;}
	.st14{fill:#FFFFFF;stroke:#99247D;stroke-width:1.1116;stroke-miterlimit:10;}
	.st15{fill:#2D8A42;}
	.st16{fill:#CCCCCC;}
	.st17{fill:#C42128;}
</style>
<g>
	<path class="st6" d="M54.7,65.4c0,35.6-6.7,65.4-21.7,65.4c-18.3,0-33-29.8-33-65.4c0-19,4.9-35.8,3.8-51.3C2.3-7.2,23.5,2,33,2
		c10.6,0,22.7,4.7,22.7,19.6C55.7,33.3,54.7,48.3,54.7,65.4z"/>
	<path class="st6" d="M4.2,164.5l8.7-33.8h37l12.6,37.7c0.9,2.6,1.3,5.3,1.3,8v5.4l-1.6,9.6c-0.3,1.6-2.1,2.9-4.3,2.9H54
		c-2.5,0-4.5-1.6-4.5-3.4l0.4-13.1l0,0c-0.1-1-2.2-1-2.3,0l-4.9,34.6c-0.1,1-0.8,2-1.9,2.7l-5.7,3.6c-2.4,1.5-5.8,1.8-8.5,0.7
		l-10.6-4.1c-1.8-0.7-3.1-2-3.5-3.5l-8-31.4C2.9,175,2.9,169.7,4.2,164.5z"/>
	<path class="st6" d="M52.6,96.6H4.1l4.8,12.9c2.6,6.9,3.9,14,4,21.2v0l36.6,0v0c-1-7-0.8-14,0.5-21L52.6,96.6z"/>
</g>
</svg>
