<?xml version="1.0" encoding="utf-8"?>
<!-- Generator: Adobe Illustrator 19.1.0, SVG Export Plug-In . SVG Version: 6.00 Build 0)  -->
<!DOCTYPE svg PUBLIC "-//W3C//DTD SVG 1.1//EN" "http://www.w3.org/Graphics/SVG/1.1/DTD/svg11.dtd">
<svg version="1.1" id="Layer_1" xmlns="http://www.w3.org/2000/svg" xmlns:xlink="http://www.w3.org/1999/xlink" x="0px" y="0px"
	 viewBox="0 0 160 291.1" style="enable-background:new 0 0 160 291.1;" xml:space="preserve">
<style type="text/css">
	.st0{fill:#A77E67;}
	.st1{fill:#D19F7D;}
	.st2{fill:#ED1C24;}
	.st3{fill:#39B54A;}
	.st4{fill:#F1F2F2;}
	.st5{fill:#FFFFFF;}
	.st6{fill:#E2AE83;}
	.st7{fill:#383838;}
	.st8{fill:#F3BA91;}
	.st9{fill:#BE9271;}
	.st10{fill:#21409A;}
	.st11{fill:#BE9173;}
	.st12{fill:#243D82;}
	.st13{fill:#99247D;}
	.st14{fill:#FFFFFF;stroke:#99247D;stroke-width:1.1116;stroke-miterlimit:10;}
	.st15{fill:#2D8A42;}
	.st16{fill:#CCCCCC;}
	.st17{fill:#C42128;}
</style>
<g>
	<path class="st1" d="M71.4,193.6l-42,0L4,58.5C3.7,41.6,16-2.7,48.4-2.7h0c21.8,0,40.6,18,38.6,41.6L71.4,193.6z"/>
	<g>
		<path class="st2" d="M146.3,237.2L146.3,237.2l-0.2,0.5l-6.7-1.4l-6.7-1.5l-13.4-3c-2.2-0.5-4.4-1-6.7-1.5l-6.7-1.6
			c-4.4-1-8.9-2.1-13.3-3.2l0.9,0.2c-1.7-0.2-3.3-0.6-5-1.2c-1.6-0.6-3.2-1.4-4.6-2.3c-1.5-0.9-2.8-2.1-4-3.4
			c-1.2-1.3-2.3-2.7-3.2-4.3c-0.9-1.5-1.6-3.2-2.2-4.9c-0.5-1.7-0.8-3.5-1-5.4l-0.6-7.4c-0.4-4.8-0.7-10.4-1.1-13.1l-0.3-3.2
			c-0.2-2.6-2.4-4.5-5-4.5H24.9c-3.3,0-5.9,2.7-5.9,5.9l-7,84.1c0,3.3,2.7,5.9,5.9,5.9h64.2h70.2c4.2,0,7.6-3.4,7.6-7.6v-8.2
			C160,247.7,154.5,240,146.3,237.2z"/>
		<path class="st3" d="M95,219L95,219L95,219c-1.2-0.3-2.3-0.6-3.4-1.1c-1.1-0.5-2.1-1.1-3-1.8c-0.9-0.7-1.8-1.5-2.5-2.4
			c-0.7-0.9-1.4-1.9-1.9-2.9c-0.5-1-0.9-2.1-1.2-3.3c-0.3-1.1-0.4-2.3-0.4-3.4l0-7.2l0-14.5c0-1.2-0.1-2.6-0.7-3.8
			c-0.6-1.2-1.8-2.2-3.1-2.6c-1.2-0.5-2.5-0.7-3.8-0.7c-0.6-0.1-1.2,0-1.9,0c-0.3,0-0.6,0-0.9,0.1l-0.5,0c-0.2,0-0.3,0-0.4,0.2
			l0,0.5l0.7,7.7c0.4,2.7,0.7,8.3,1.1,13.1l0.6,7.4c0.1,1.8,0.4,3.6,1,5.4c0.5,1.7,1.2,3.4,2.2,4.9c0.9,1.6,2,3,3.2,4.3
			c1.2,1.3,2.6,2.4,4,3.4c1.5,1,3,1.7,4.6,2.3c1.6,0.6,3.3,1,5,1.2l-0.9-0.2c4.4,1.1,8.8,2.2,13.3,3.2l6.7,1.6
			c2.2,0.5,4.4,1.1,6.7,1.5l13.4,3l6.7,1.5l6.7,1.4l0.2-0.5l0,0L95,219z"/>
		<path class="st4" d="M160,266.5l-0.9,1c-2.6,2.8-6.3,4.4-10.1,4.4H21.2c-3.8,0-7.3-2.1-9.2-5.4h-1v19.2l1.1,0.2
			c1.9,3.3,5.3,5.3,9.1,5.3h127.1c4.3,0,8.4-2,11-5.4l0.7-1V266.5z"/>
		<g>
			<path class="st5" d="M136.3,245.6c-0.3,0-0.5-0.1-0.8-0.2c-1-0.4-1.5-1.6-1.1-2.6l3.7-9.7c0.4-1,1.6-1.5,2.6-1.1
				c1,0.4,1.5,1.6,1.1,2.6l-3.7,9.7C137.9,245.1,137.1,245.6,136.3,245.6z"/>
		</g>
		<g>
			<path class="st5" d="M126.3,241.6c-0.3,0-0.5-0.1-0.8-0.2c-1-0.4-1.5-1.6-1.1-2.6l4.7-9.7c0.4-1,1.6-1.5,2.6-1.1
				c1,0.4,1.5,1.6,1.1,2.6l-4.7,9.7C127.9,241.1,127.1,241.6,126.3,241.6z"/>
		</g>
		<g>
			<path class="st5" d="M116.8,238.6c-0.3,0-0.5-0.1-0.8-0.2c-1-0.4-1.5-1.6-1.1-2.6l4.7-9.7c0.4-1,1.6-1.5,2.6-1.1
				c1,0.4,1.5,1.6,1.1,2.6l-4.7,9.7C118.4,238.1,117.6,238.6,116.8,238.6z"/>
		</g>
		<g>
			<path class="st5" d="M105.3,234.6c-0.3,0-0.5-0.1-0.8-0.2c-1-0.4-1.5-1.6-1.1-2.6l4.7-9.7c0.4-1,1.6-1.5,2.6-1.1
				c1,0.4,1.5,1.6,1.1,2.6l-4.7,9.7C106.9,234.1,106.1,234.6,105.3,234.6z"/>
		</g>
		<g>
			<path class="st5" d="M94.8,231.6c-0.3,0-0.5-0.1-0.8-0.2c-1-0.4-1.5-1.6-1.1-2.6l4.7-9.7c0.4-1,1.6-1.5,2.6-1.1
				c1,0.4,1.5,1.6,1.1,2.6l-4.7,9.7C96.4,231.1,95.6,231.6,94.8,231.6z"/>
		</g>
		<g>
			<path class="st5" d="M83.3,226.6c-0.3,0-0.5-0.1-0.8-0.2c-1-0.4-1.5-1.6-1.1-2.6l4.7-9.7c0.4-1,1.6-1.5,2.6-1.1
				c1,0.4,1.5,1.6,1.1,2.6l-4.7,9.7C84.9,226.1,84.1,226.6,83.3,226.6z"/>
		</g>
	</g>
</g>
</svg>
