<!-- Generator: Adobe Illustrator 19.1.0, SVG Export Plug-In  -->
<svg version="1.1"
	 xmlns="http://www.w3.org/2000/svg" xmlns:xlink="http://www.w3.org/1999/xlink" xmlns:a="http://ns.adobe.com/AdobeSVGViewerExtensions/3.0/"
	 x="0px" y="0px" width="112.4px" height="185.7px" viewBox="0 0 112.4 185.7" style="enable-background:new 0 0 112.4 185.7;"
	 xml:space="preserve">
<style type="text/css">
	.st0{fill:#9B7957;}
	.st1{fill:#82654B;}
	.st2{fill:none;stroke:#414042;stroke-width:6.4313;stroke-linecap:round;stroke-miterlimit:10;}
</style>
<defs>
</defs>
<path class="st0" d="M101.7,185.7l-96.9-2.9l0,0c6.1-18,10.8-36.4,14.1-55.1l6.2-35.6h47.7l-2.1,46.6c-0.5,11.1,2.5,19.4,8.5,28.8
	L101.7,185.7z"/>
<g>
	<path class="st1" d="M35.8,135.1l68.2,15.7c4.5,1.1,8.7-2.5,8.3-7.1l-6.9-36.6v0.2h-8.5l-3.3,18.8l-40.7-3.8l-19.4-58v-11l15.9-22
		l51,6.5l0,0c-3.2-20-15-34.6-48-34.6c-27.1,0-49.1,22-49.1,49.1c0,16.7,8.3,31.4,21,40.3l5.7-5.6l-0.7,8.7l-1.8,24.8
		C25.6,127,29.4,133.6,35.8,135.1z M101.9,114.4h4.9l2.7,14h-3.9l0.8,4l-7-6.2L101.9,114.4z"/>
	<polygon class="st0" points="105.5,128.4 109.4,128.4 106.8,114.4 101.9,114.4 99.2,126.2 106.2,132.4 	"/>
	<path class="st0" d="M24.2,92.8c1.6,1.1,3.3,2.1,5,3.1l0.7-8.7L24.2,92.8z"/>
	<path class="st0" d="M49.3,31.4l-15.9,22v11l19.4,58l40.6,3.8l3.4-18.8h8.5v-0.2L99.7,77l-0.1,0.1c1.3-6.4,1.9-14.5,1.9-24.6
		c0-5.1-0.4-10-1.2-14.6l0,0L49.3,31.4z"/>
	<path class="st2" d="M26.1,90.9c0,0-11.2-17.2-11.2-23.7s9.2-10.8,19-10.8"/>
	<path class="st2" d="M36.8,49.4c-14.4-1.2-29.9,2-29.9,12.5S20,89.5,20,89.5"/>
	<path class="st2" d="M41.2,43.2c-5.3-1.6-11-6.8-26.3-3.3S6.5,70.1,6.5,70.1"/>
	<path class="st0" d="M29.4,64.4c0-6.9-5.1-11.5-11.5-11.5S6.4,57.4,6.4,64.4v2.9c0,11,12,19.9,23,19.9V64.4z"/>
	<path class="st2" d="M46.7,35.4c-7.6-4-11.6-6.5-28.3-6.5S3.3,52.6,3.3,52.6"/>
	<path class="st2" d="M81.5,35.4c1.2-13.3-4.8-19.1-14.8-25.2s-34.2-7-46.1,4.9"/>
	<path class="st2" d="M100.5,38c0,0-2.4-24.5-24.1-31S40.5,3.8,34.1,7"/>
	<path class="st2" d="M67.3,24.7c-0.6-14.4-42.3-13-42.3-13"/>
	<path class="st2" d="M41.2,24.7c-14.3-3.5-33,4.2-33,4.2c4.8-18.1,24.2-15.9,30.5-13.8c12.9,4.4,15.5,8,20.2,17.2"/>
</g>
</svg>
