<!-- Generator: Adobe Illustrator 19.1.0, SVG Export Plug-In  -->
<svg version="1.1"
	 xmlns="http://www.w3.org/2000/svg" xmlns:xlink="http://www.w3.org/1999/xlink" xmlns:a="http://ns.adobe.com/AdobeSVGViewerExtensions/3.0/"
	 x="0px" y="0px" width="125.2px" height="259.5px" viewBox="0 0 125.2 259.5" style="enable-background:new 0 0 125.2 259.5;"
	 xml:space="preserve">
<style type="text/css">
	.st0{fill:#594533;}
	.st1{fill:#263A7A;}
</style>
<defs>
</defs>
<g>
	<path class="st0" d="M39.7,259.5c5.9-9.6,13.6-16.9,23.3-18.9H37.7L39.7,259.5z"/>
	<path class="st0" d="M74.1,240.6c10,1.9,19,8.5,25,18.3l1.1-18.3H74.1z"/>
	<path class="st1" d="M121.3,68.1l-0.4-18.2c-2.1-11.5-7.4-21.8-15.1-30C95.6,8.8,81.3,1.5,65.5,0.2c-1.7-0.1-3.3-0.2-5-0.2
		C30.5,0,4.8,22,0,50.7l0.8,23.1l5.4,166.8h31.5H63c1.7-0.3,3.5-0.6,5.3-0.6c1.9,0,3.9,0.2,5.7,0.6h26.1h25L121.3,68.1z"/>
</g>
</svg>
