<!-- Generator: Adobe Illustrator 19.1.0, SVG Export Plug-In  -->
<svg version="1.1"
	 xmlns="http://www.w3.org/2000/svg" xmlns:xlink="http://www.w3.org/1999/xlink" xmlns:a="http://ns.adobe.com/AdobeSVGViewerExtensions/3.0/"
	 x="0px" y="0px" width="63.7px" height="280.1px" viewBox="0 0 63.7 280.1" style="enable-background:new 0 0 63.7 280.1;"
	 xml:space="preserve">
<style type="text/css">
	.st0{fill:#473729;}
</style>
<defs>
</defs>
<g>
	<path class="st0" d="M54.7,83.2c0,45.3-6.7,83.2-21.7,83.2c-18.3,0-33-38-33-83.2C0,59,4.9,37.6,3.8,17.9C2.3-9.2,23.5,2.5,33,2.5
		c10.6,0,22.7,6,22.7,25C55.7,42.4,54.7,61.5,54.7,83.2z"/>
	<path class="st0" d="M4.2,209.5l8.7-43h37l12.6,48c0.9,3.3,1.3,6.7,1.3,10.2v6.8l-1.6,12.3c-0.3,2-2.1,3.7-4.3,3.7H54
		c-2.5,0-4.5-2-4.5-4.4l0.4-16.6v0c-0.1-1.3-2.2-1.3-2.3,0l-4.9,44c-0.1,1.3-0.8,2.5-1.9,3.4l-5.7,4.5c-2.4,1.9-5.8,2.2-8.5,0.9
		L15.8,274c-1.8-0.9-3.1-2.6-3.5-4.5l-8-40C2.9,222.9,2.9,216.1,4.2,209.5z"/>
	<path class="st0" d="M52.6,123.1H4.1l4.8,16.5c2.6,8.8,3.9,17.8,4,26.9v0l36.6,0v0c-1-8.9-0.8-17.9,0.5-26.7L52.6,123.1z"/>
</g>
</svg>
