<!-- Generator: Adobe Illustrator 19.1.0, SVG Export Plug-In  -->
<svg version="1.1"
	 xmlns="http://www.w3.org/2000/svg" xmlns:xlink="http://www.w3.org/1999/xlink" xmlns:a="http://ns.adobe.com/AdobeSVGViewerExtensions/3.0/"
	 x="0px" y="0px" width="125.2px" height="259.5px" viewBox="0 0 125.2 259.5" style="enable-background:new 0 0 125.2 259.5;"
	 xml:space="preserve">
<style type="text/css">
	.st0{fill:#84664C;}
	.st1{fill:#21409A;}
</style>
<defs>
</defs>
<g>
	<path class="st0" d="M32,259.5c5.9-9.6,13.6-16.9,23.3-18.9H29.9L32,259.5z"/>
	<path class="st0" d="M66.3,240.6c10,1.9,19,8.5,25,18.3l1.1-18.3H66.3z"/>
	<path class="st1" d="M121.3,68l-0.4-18.2c-3.1-17.4-13.9-32.2-28.6-41.1C82.9,3.2,72.1,0,60.5,0c-1.3,0-2.6,0.1-3.9,0.1
		c-7.8,0.5-15.2,2.4-21.9,5.5c-9.1,4.2-17.1,10.6-23.1,18.5C5.7,31.8,1.7,40.8,0,50.6l0.8,23.1l5.4,166.8h23.7h25.3
		c1.7-0.3,3.5-0.6,5.3-0.6c1.9,0,3.9,0.2,5.7,0.6h26.1h32.8L121.3,68z"/>
</g>
</svg>
