<!-- Generator: Adobe Illustrator 19.1.0, SVG Export Plug-In  -->
<svg version="1.1"
	 xmlns="http://www.w3.org/2000/svg" xmlns:xlink="http://www.w3.org/1999/xlink" xmlns:a="http://ns.adobe.com/AdobeSVGViewerExtensions/3.0/"
	 x="0px" y="0px" width="156px" height="347.6px" viewBox="0 0 156 347.6" style="enable-background:new 0 0 156 347.6;"
	 xml:space="preserve">
<style type="text/css">
	.st0{fill:#84664C;}
	.st1{fill:#39B54A;}
	.st2{fill:#ED1C24;}
	.st3{fill:#F1F2F2;}
</style>
<defs>
</defs>
<path class="st0" d="M67.4,250l-42,0L0,78C-0.2,56.5,12,0,44.4,0l0,0C66.2,0,85,23,83,53L67.4,250z"/>
<g>
	<g>
		<path class="st1" d="M91,275.5L91,275.5L91,275.5c-1.2-0.3-2.3-0.6-3.4-1.1c-1.1-0.5-2.1-1.1-3-1.8c-0.9-0.7-1.8-1.5-2.5-2.4
			c-0.7-0.9-1.4-1.9-1.9-2.9c-0.5-1-0.9-2.1-1.2-3.3c-0.3-1.1-0.4-2.3-0.4-3.4l0-7.2l0-14.5c0-1.2-0.1-2.6-0.7-3.8
			c-0.6-1.2-1.8-2.2-3.1-2.6c-1.2-0.5-2.5-0.7-3.8-0.7c-0.6-0.1-1.2,0-1.9,0c-0.3,0-0.6,0-0.9,0.1l-0.5,0c-0.2,0-0.3,0-0.4,0.2
			l0,0.5l0.7,7.7c0.4,2.7,0.7,8.3,1.1,13.1l0.6,7.4c0.1,1.8,0.4,3.6,1,5.4c0.5,1.7,1.2,3.4,2.2,4.9c0.9,1.6,2,3,3.2,4.3
			c1.2,1.3,2.6,2.4,4,3.4c1.5,1,3,1.7,4.6,2.3c1.6,0.6,3.3,1,5,1.2l-0.9-0.2c4.4,1.1,8.8,2.2,13.3,3.2l6.7,1.6
			c2.2,0.5,4.4,1.1,6.7,1.5l13.4,3l6.7,1.5l6.7,1.4l0.2-0.5l0,0L91,275.5z"/>
		<g>
			<path class="st2" d="M142.3,293.6L142.3,293.6l-0.2,0.5l-6.7-1.4l-6.7-1.5l-13.4-3c-2.2-0.5-4.4-1-6.7-1.5l-6.7-1.6
				c-4.4-1-8.9-2.1-13.3-3.2l0.9,0.2c-1.7-0.2-3.3-0.6-5-1.2c-1.6-0.6-3.2-1.4-4.6-2.3c-1.5-0.9-2.8-2.1-4-3.4
				c-1.2-1.3-2.3-2.7-3.2-4.3c-0.9-1.5-1.6-3.2-2.2-4.9c-0.5-1.7-0.8-3.5-1-5.4l-0.6-7.4c-0.4-4.8-0.7-10.4-1.1-13.1l-0.3-3.2
				c-0.2-2.6-2.4-4.5-5-4.5H21c-3.3,0-5.9,2.7-5.9,5.9l-7,84.1c0,3.3,2.7,5.9,5.9,5.9h64.2h70.2c4.2,0,7.6-3.4,7.6-7.6v-8.2
				C156,304.1,150.5,296.4,142.3,293.6z"/>
			<path class="st3" d="M156,322.9l-0.9,1c-2.6,2.8-6.3,4.4-10.1,4.4H17.2c-3.8,0-7.3-2.1-9.2-5.4H7v19.2l1.1,0.2
				c1.9,3.3,5.3,5.3,9.1,5.3h127.1c4.3,0,8.4-2,11-5.4l0.7-1V322.9z"/>
		</g>
		<g>
			<path class="st3" d="M132.3,302.1c-0.3,0-0.5-0.1-0.8-0.2c-1-0.4-1.5-1.6-1.1-2.6l3.7-9.7c0.4-1,1.6-1.5,2.6-1.1
				c1,0.4,1.5,1.6,1.1,2.6l-3.7,9.7C133.9,301.6,133.1,302.1,132.3,302.1z"/>
		</g>
		<g>
			<path class="st3" d="M122.3,298.1c-0.3,0-0.5-0.1-0.8-0.2c-1-0.4-1.5-1.6-1.1-2.6l4.7-9.7c0.4-1,1.6-1.5,2.6-1.1
				c1,0.4,1.5,1.6,1.1,2.6l-4.7,9.7C123.9,297.6,123.1,298.1,122.3,298.1z"/>
		</g>
		<g>
			<path class="st3" d="M112.8,295.1c-0.3,0-0.5-0.1-0.8-0.2c-1-0.4-1.5-1.6-1.1-2.6l4.7-9.7c0.4-1,1.6-1.5,2.6-1.1
				c1,0.4,1.5,1.6,1.1,2.6l-4.7,9.7C114.4,294.6,113.6,295.1,112.8,295.1z"/>
		</g>
		<g>
			<path class="st3" d="M101.3,291.1c-0.3,0-0.5-0.1-0.8-0.2c-1-0.4-1.5-1.6-1.1-2.6l4.7-9.7c0.4-1,1.6-1.5,2.6-1.1
				c1,0.4,1.5,1.6,1.1,2.6l-4.7,9.7C102.9,290.6,102.1,291.1,101.3,291.1z"/>
		</g>
		<g>
			<path class="st3" d="M90.8,288.1c-0.3,0-0.5-0.1-0.8-0.2c-1-0.4-1.5-1.6-1.1-2.6l4.7-9.7c0.4-1,1.6-1.5,2.6-1.1
				c1,0.4,1.5,1.6,1.1,2.6l-4.7,9.7C92.4,287.6,91.6,288.1,90.8,288.1z"/>
		</g>
	</g>
	<g>
		<path class="st3" d="M79.3,283.1c-0.3,0-0.5-0.1-0.8-0.2c-1-0.4-1.5-1.6-1.1-2.6l4.7-9.7c0.4-1,1.6-1.5,2.6-1.1
			c1,0.4,1.5,1.6,1.1,2.6l-4.7,9.7C80.9,282.6,80.1,283.1,79.3,283.1z"/>
	</g>
</g>
</svg>
