<!-- Generator: Adobe Illustrator 19.1.0, SVG Export Plug-In  -->
<svg version="1.1"
	 xmlns="http://www.w3.org/2000/svg" xmlns:xlink="http://www.w3.org/1999/xlink" xmlns:a="http://ns.adobe.com/AdobeSVGViewerExtensions/3.0/"
	 x="0px" y="0px" width="146px" height="330.6px" viewBox="0 0 146 330.6" style="enable-background:new 0 0 146 330.6;"
	 xml:space="preserve">
<style type="text/css">
	.st0{fill:#594533;}
	.st1{fill:#84664C;}
	.st2{fill:#21409A;}
	.st3{fill:#99247D;}
	.st4{fill:#FFFFFF;stroke:#99247D;stroke-width:1.1116;stroke-miterlimit:10;}
</style>
<defs>
</defs>
<g>
	<path class="st0" d="M141.4,92H52.5l0-80l80.8,2.9c4.5,0.2,8.1,3.9,8.1,8.4V92z"/>
	<path class="st1" d="M124.1,14.9L65,12v-1.3l-14.2,0.6L43,11v0.7L36.1,12l-4.9,4.8c-9.9,9.5-16.4,22.1-18.6,35.7l-8.7,55H43v10h89
		V26.1C132,20.1,128.6,15.1,124.1,14.9z"/>
	<g>
		<g>
			<path class="st2" d="M135.2,73.1c-18.3-2-30-43-33.2-61.1L40.2,0l-3.9,11.3c86,14.7,50.9,100.7,11.1,95.8l0,0.6
				c-1.8,0.2-3.4,0.3-5.1,0.3c-14.7,0-27.8-7.4-36-18.9L0,137.6v193h46.4H48h37.8h18.3H146V73.4C145,73.4,136.9,73.2,135.2,73.1z"/>
			<path class="st2" d="M36.5,12.4l-0.1-1l-0.7,1.2C35.9,12.5,36.2,12.4,36.5,12.4z"/>
		</g>
		<path class="st3" d="M104.2,330.6C97.6,268.6,77,213.6,49,176.7v-0.1c0,0,0,0,0,0c0,0,0,0,0,0v0.1C20,213.6,6.7,267.6,0,330.6
			h18.3c5.4-44,11.8-83.9,30.2-113.9c18.5,30,31.8,69.9,37.2,113.9H104.2z"/>
		<g>
			<g>
				<path class="st4" d="M65.5,120.6c3-1,6.1-1.9,9.2-2.7c6-1.6,10.1-2.3,12.3-2.3c2.2,0,4,0.4,5.3,1.2c1.3,0.8,2.2,1.8,2.7,3
					c0.5,1.2,1.1,3.7,1.8,7.3c0.8,4.5,1.7,9.1,2.5,13.6c0.6,3.5,0.9,5.9,0.8,7.1c-0.1,1.2-0.5,2.3-1.3,3.1c-0.7,0.8-1.6,1.5-2.8,2
					c-1.2,0.5-3,1.1-5.4,1.7c-4.3,1.1-8.6,2.3-12.8,3.6C73.5,145.7,69.5,133.1,65.5,120.6z M79.4,123.5c2.2,8.4,4.4,16.8,6.6,25.2
					c1.5-0.4,2.4-0.9,2.6-1.6c0.2-0.7,0-2.3-0.6-4.8c-1.2-5-2.4-10-3.6-14.9c-0.4-1.7-0.8-2.8-1-3.3c-0.3-0.5-0.6-0.7-1.2-0.9
					C81.7,123.1,80.7,123.2,79.4,123.5z"/>
				<path class="st4" d="M128.5,109.8c2.8,13.1,5.1,26.3,7.1,39.5c-3.6,0-7.1,0.1-10.7,0.3c-0.3-2.4-0.6-4.7-1-7.1
					c-1.3,0.1-2.6,0.2-3.9,0.3c0,2.4-0.1,4.8-0.1,7.1c-3.6,0.3-7.2,0.7-10.7,1.2c0-13.3,0.3-26.6,1-40
					C116.3,110.4,122.4,110,128.5,109.8z M123.3,135.5c-0.8-4.4-1.7-9.9-2.8-16.5c-0.7,7.6-1,13.2-1.1,16.7
					C120.7,135.6,122,135.5,123.3,135.5z"/>
			</g>
		</g>
	</g>
</g>
</svg>
