<?xml version="1.0" encoding="utf-8"?>
<!-- Generator: Adobe Illustrator 19.2.1, SVG Export Plug-In . SVG Version: 6.00 Build 0)  -->
<!DOCTYPE svg PUBLIC "-//W3C//DTD SVG 1.1//EN" "http://www.w3.org/Graphics/SVG/1.1/DTD/svg11.dtd">
<svg version="1.1" id="Layer_1" xmlns="http://www.w3.org/2000/svg" xmlns:xlink="http://www.w3.org/1999/xlink" x="0px" y="0px"
	 viewBox="0 0 332.2 892.7" style="enable-background:new 0 0 332.2 892.7;" xml:space="preserve">
<style type="text/css">
	.st0{fill:#E2AE83;}
	.st1{fill:url(#SVGID_1_);}
	.st2{fill:#C49A6C;}
	.st3{fill:#F1F2F2;}
	.st4{fill:none;}
	.st5{fill:#ED1C24;}
	.st6{fill:#39B54A;}
	.st7{opacity:0.95;fill:#010101;enable-background:new    ;}
	.st8{fill:#FFFFFF;}
	.st9{fill:#21409A;}
	.st10{fill:#99247D;}
	.st11{fill:#BE9271;}
	.st12{fill:#383838;}
	.st13{fill:#FFFFFF;stroke:#99247D;stroke-width:1.11;stroke-miterlimit:10;}
</style>
<title>shortest</title>
<g>
	<g id="Layer_1_1_">
		<path class="st0" d="M228.2,103.5v-2.6c0-4.1-2.8-7.4-6.9-7.4c-3,0-5.6,1.9-6.6,4.8l-0.4-4.8c0.4-25.6-20.1-46.6-45.6-47
			s-46.6,20.1-47,45.6c0,0.5,0,0.9,0,1.4l-0.5,4.8c-1.3-2.9-4.1-4.8-7.3-4.8c-4.2,0-7.6,3.2-7.8,7.4v2.6c0,6.6,5.2,21,11.6,22.5h0.5
			l-3.8,39.7c-0.3,3.2,1.4,6.2,4.3,7.6l24.6,12.1c1.1,0.5,2.2,0.8,3.4,0.8h42.3c1.2,0,2.3-0.3,3.3-0.8l24.8-12.1
			c2.9-1.4,4.5-4.4,4.2-7.6l-4.2-39.7C223.8,124.7,228.2,110.1,228.2,103.5z"/>
		
			<linearGradient id="SVGID_1_" gradientUnits="userSpaceOnUse" x1="165.2" y1="675.83" x2="165.2" y2="709.86" gradientTransform="matrix(1 0 0 -1 0 892)">
			<stop  offset="0" style="stop-color:#E2AE83"/>
			<stop  offset="0.25" style="stop-color:#DBA97F"/>
			<stop  offset="0.61" style="stop-color:#C99D72"/>
			<stop  offset="1" style="stop-color:#AD895F"/>
		</linearGradient>
		<path class="st1" d="M250.3,207.4c-8.1-2.1-16.1-4.7-23.9-7.8l-33.9-9l-1.8-8.4h-50l-1.8,8.2l-35,9.3c-7.8,3.1-15.8,5.7-23.9,7.8
			l-29.9,8.8h230L250.3,207.4z"/>
		<polygon class="st0" points="242.2,377.5 89.2,377.5 69.2,241.4 262.2,241.4 		"/>
		<path class="st0" d="M331.3,302.7c-1.6-11.5-6-23.9-11.8-34.7c8-18.6,1.2-40.6-19.4-52.2c-0.4-0.3-0.9-0.5-1.3-0.8l0,0
			c-13.8-7.3-32.4-4.4-41.6,6.4s-5.6,25.4,8.1,32.7l0.8,0.4c-4,14.4-0.8,35.4,1.8,53.6c1.7,12,11.9,31.8,22,45.2
			c-4.9,12.9-8.2,29.6-11.1,44.5c-2.1,10.7-1.7,28.5,0.4,42.7c0,2.7-0.3,5.5-0.9,8.1c-0.6,2-1.7,3.9-3.1,5.5l-5.9,26.1h-0.1l-1,4.9
			l-0.4,1.7l0,0l-2.4,11.7l0,0l0.6,14.2c0.1,2.7,2.6,4.8,5.6,4.9l3.4,0.1c3.2,0.1,5.9-2.1,6-4.9l0.4-11.7l0,0l3.2-10.7l6.6,1.4
			l-0.4,22.3l0,0l-0.5,15l0,0l-0.5,9.3c-0.1,2.9,2.4,5.3,5.7,5.4l4.9,0.1c1.3,0.1,2.5-0.7,2.8-2l1.8-12.8l0,0l2-15l0,0l2-18.7v-0.1
			l0,0l-3.7-41.2c0,0,0.8-4.2,1.6-7s4-11.1,4-11.1l0,0c4.8-10.5,8.4-21.5,10.8-32.8c3.1-16,3.5-32.3,1.2-48.4
			C330.5,342.3,334,322,331.3,302.7z"/>
		<g>
			<path class="st0" d="M33.4,215L33.4,215c13.8-7.3,32.4-4.4,41.6,6.4s5.6,25.4-8.1,32.7l-47.3,25c-17.3-20.2-12.5-49.3,12.5-63.4
				C32.5,215.5,33,215.2,33.4,215L33.4,215L33.4,215z"/>
			<path class="st0" d="M0.9,302.7c-4.2,30.3,6.6,63.1,24,65c10.8,1.1,36.5-39.8,39.3-59.5c4.4-30.3,10.3-68.4-18-70.9
				C28.8,235.8,5.1,272.4,0.9,302.7z"/>
			<path class="st0" d="M10.1,403.3c6.1,30.1,22.9,60.1,34.9,58.9c7.4-0.7,12.3-44.8,8.4-64.4c-6-30.1-13.3-68.1-32.7-65.7
				C8.8,333.6,4,373.2,10.1,403.3z"/>
			<polygon class="st0" points="22.9,495.5 64.4,487 57,454.2 26.5,454.2 			"/>
			<polygon class="st0" points="24.9,514.3 41.2,514 40.8,491.9 22.9,495.4 			"/>
			<polygon class="st0" points="50.7,501.2 66.7,498.7 63,480.4 45.2,482.9 			"/>
			<polygon class="st0" points="27,529.2 41.7,528.8 41.2,514 24.9,514.2 			"/>
			<path class="st0" d="M31.5,544l4.9-0.2c3.3-0.1,5.9-2.6,5.7-5.5l-0.5-9.5l-14.7,0.4l1.8,12.8C29,543.2,30.2,544.1,31.5,544z"/>
			<path class="st0" d="M60.5,517.8l-3.4,0.1c-3.2,0.1-5.9-2.1-6-4.9l-0.5-13.6l16.1-0.7l-0.6,14.2C66,515.5,63.5,517.7,60.5,517.8z
				"/>
			<path class="st0" d="M53,440.6c0,2.7,0.3,5.5,0.9,8.1c0.6,2,1.7,3.9,3.1,5.5l-13.4,8l-17.1-8c0,0-0.8-4.4-1.6-7.1s-4-11.2-4-11.2
				L53,440.6z"/>
		</g>
		<path class="st0" d="M239.2,272.8H92.3c-7.7,0-14.3-4.1-16.2-9.9l-11.6-36.5c-2.6-8.3,5.3-16.3,16.2-16.3l81.7,1
			c1.1,0,2.3,0.3,3.2,0.8l0,0c1-0.5,2.1-0.8,3.2-0.8l82-1c10.9,0,18.8,8,16.2,16.3l-11.6,36.6C253.5,268.7,246.9,272.8,239.2,272.8z
			"/>
		<polygon class="st2" points="242.2,377.2 165.7,377.2 89.2,377.2 86.2,420.9 165.7,429.6 245.2,420.8 		"/>
		<path class="st0" d="M123.2,410.4L123.2,410.4c-21.5-0.7-39.6,12.5-40.2,29.4l-1.8,177.1L76,643.5c-2,10-3,20.3-3,30.5l12.8,120.4
			l36,1.2l18.6-127.6c0.4-4.6,0.5-9.2,0.4-13.8l-0.6-35.2L160.1,443C161.8,425.9,145.1,411.1,123.2,410.4z"/>
		<path class="st0" d="M255.9,643.2l-5.5-26.6l-3.4-177.1c-0.8-16.9-19-30-40.5-29.2l0,0c-21.8,0.8-38.4,15.7-36.6,32.8l21.5,175.7
			l-0.3,35.2c0,4.6,0.1,9.2,0.6,13.8l19.7,127.5l36-1.4l11.8-120.4C259.1,663.5,258,653.3,255.9,643.2z"/>
		<rect x="50.1" y="874" class="st3" width="104.8" height="18.8"/>
		<polygon class="st4" points="118.7,811.1 118.8,811.3 118.8,811 		"/>
		<polygon class="st4" points="86.2,811.3 86.3,811.1 86.3,811 		"/>
		<path class="st5" d="M118.8,811l5.4-23.9c0,0,0-0.1,0-0.2L118.8,811L118.8,811z"/>
		<path class="st5" d="M129.8,815.2l-10.8-3.5l0,0l10.8,18.7l10.5-34.6c0.6-1.7,0.7-3.5,0.4-5.2l-1.2-6.6c-0.6-3.5-1.4-5.9-4.1-5.9
			h-5c-2.5,0-4.7,2.2-5.5,5.5l-0.8,3.4c0,0,0,0.1,0,0.1l-5.4,23.9l-0.3,0.2l-0.2,0.3v53.6h-32v-54l0,0l0.1-0.2l-4.4-19.5l-1-4.4V787
			l-0.8-3.3c-0.7-3.3-3-5.5-5.5-5.5h-2.8c-2.7,0-5.1,2.6-5.6,6.3l-0.9,6.3c-0.2,1.6-0.1,3.3,0.4,4.8l9.6,19.5l-25.2,59
			c0,0,20.6,5,52.4,5s52.4-5,52.4-5L129.8,815.2z"/>
		<path class="st6" d="M119.2,778.2H85.8c-3.4,0-5.7,4.4-4.8,8.9l5.3,24l-0.1,0.1h0.3l-10.1,53.2c0,0,12.8,9.6,26.1,9.6
			s26.6-9.6,26.6-9.6l-10.1-53.2h-0.2V811l5.4-24C125.1,782.6,122.7,778.2,119.2,778.2z"/>
		<path id="path2987" class="st7" d="M93.3,797.3c0,0,1.4-5.1,1.5-5.1c0.7,0,1.3,0,2,0c0,0-0.2,0.8-0.5,1.8s-0.5,1.8-0.5,1.8
			c0.2,0.1,0.5,0.1,0.7,0c0-0.1,1.2-4.2,1.2-4.2s-0.6,0-1.3,0s-1.3,0-1.3,0s0.3-1,0.6-2.2l0.6-2.3h2.3c1.3,0,2.4,0,2.4,0
			s-0.4,1.4-0.8,3l-1.5,5.1c-0.3,1.1-0.6,2.1-0.6,2.1c-0.8,0.1-1.6,0.1-2.4,0.1C94.4,797.3,93.4,797.3,93.3,797.3L93.3,797.3
			L93.3,797.3z M98.2,789.8c0.1-0.4,0.2-0.8,0.3-1.1c0,0,0,0-0.3,0c-0.1,0-0.2,0-0.4,0c-0.1,0.4-0.2,0.8-0.3,1.1c0,0,0,0,0.3,0
			C98,789.8,98.1,789.8,98.2,789.8L98.2,789.8z M100.3,791.4c0,0,0.3-1,0.6-2.2l0.6-2.2h1c0.3,0,0.7,0,1,0c-0.1,0.5-0.2,0.9-0.4,1.4
			c-0.2,0.7-0.4,1.3-0.4,1.4s0,0,0.4,0h0.4l0.4-1.4c0.2-0.8,0.4-1.4,0.4-1.4c0.6,0,1.3,0,1.9,0c0,0-0.3,1-0.6,2.2l-0.7,2.2h-2.3
			C101.4,791.4,100.3,791.4,100.3,791.4L100.3,791.4L100.3,791.4z M105.5,791.4c0,0,0.3-1,0.6-2.2l0.6-2.2h2.3c1.3,0,2.4,0,2.4,0
			s-0.3,1-0.6,2.2l-0.6,2.2h-1c-0.3,0-0.7,0-1,0c0.1-0.5,0.2-0.9,0.4-1.4c0.2-0.7,0.4-1.3,0.4-1.4s0,0-0.4,0h-0.4l-0.4,1.4
			c-0.2,0.8-0.4,1.4-0.4,1.4C106.8,791.5,106.1,791.5,105.5,791.4L105.5,791.4L105.5,791.4z M111.3,790c-0.1-0.1-0.1-0.2,0-0.7
			c0-0.2,0.1-0.4,0.2-0.5c0.1-0.1,0.3-0.1,0.4,0c0,0,0.1,0.1,0.1,0.1c0,0.4-0.1,0.8-0.3,1.1C111.6,790,111.5,790,111.3,790
			L111.3,790L111.3,790z"/>
		<path id="path2989-1" class="st7" d="M101.1,791.9c-0.3,0-0.5,0-0.7,0.2c-0.3,0.3-0.4,0.8-0.2,1.2c0.2,0.3,0.5,0.5,0.8,0.6
			c-0.4-0.4-0.4-1,0-1.4c0,0,0.1-0.1,0.1-0.1h0.4c0.9,0,0.8-0.1,0.9,0.5l0,0c0-0.9,0-1-0.8-1L101.1,791.9L101.1,791.9z M102.7,793.7
			c-0.1,0.6-0.4,0.7-1.1,0.6h-2.1l-0.2,0.6h2.1C102.1,794.9,102.6,794.4,102.7,793.7L102.7,793.7L102.7,793.7z"/>
		<path class="st8" d="M84,811.3h37.5c0.9,0,1.7,0.8,1.7,1.7l0,0c0,0.9-0.8,1.7-1.7,1.7H84c-0.9,0-1.7-0.8-1.7-1.7l0,0
			C82.3,812,83,811.3,84,811.3z"/>
		<path class="st8" d="M82.3,821.4h40.8c0.9,0,1.7,0.8,1.7,1.7l0,0c0,0.9-0.8,1.7-1.7,1.7H82.3c-0.9,0-1.7-0.8-1.7-1.7l0,0
			C80.6,822.2,81.4,821.4,82.3,821.4z"/>
		<path class="st8" d="M80.3,831.5h44.8c0.9,0,1.7,0.8,1.7,1.7l0,0c0,0.9-0.8,1.7-1.7,1.7H80.3c-0.9,0-1.7-0.8-1.7-1.7l0,0
			C78.6,832.3,79.4,831.5,80.3,831.5z"/>
		<path class="st8" d="M78.3,841.7h48.8c0.9,0,1.7,0.8,1.7,1.7l0,0c0,0.9-0.8,1.7-1.7,1.7H78.3c-0.9,0-1.7-0.8-1.7-1.7l0,0
			C76.6,842.4,77.4,841.7,78.3,841.7z"/>
		<path class="st8" d="M76.4,851.8H129c0.9,0,1.7,0.8,1.7,1.7l0,0c0,0.9-0.8,1.7-1.7,1.7H76.4c-0.9,0-1.7-0.8-1.7-1.7l0,0
			C74.7,852.6,75.5,851.8,76.4,851.8z"/>
		<path class="st8" d="M74.5,862H131c0.9,0,1.7,0.8,1.7,1.7l0,0c0,0.9-0.8,1.7-1.7,1.7H74.5c-0.9,0-1.7-0.8-1.7-1.7l0,0
			C72.8,862.7,73.5,862,74.5,862z"/>
		<polygon class="st4" points="190.3,811.1 190.2,811.3 190.3,811 		"/>
		<rect x="179.1" y="874" class="st3" width="104.8" height="18.8"/>
		<polygon class="st4" points="247.8,811.3 247.7,811.1 247.8,811 		"/>
		<path class="st5" d="M204.2,815.2l10.8-3.5l0,0l-10.8,18.7l-10.5-34.6c-0.6-1.7-0.7-3.5-0.4-5.2l1.2-6.5c0.6-3.5,1.4-5.9,4.1-5.9
			h5c2.5,0,4.7,2.2,5.5,5.5l0.8,3.3c0,0,0,0.1,0,0.1l5.4,23.8l0.5,0.2l0.5,0.3v53.6h32v-54h-0.4l-0.1-0.2l4.4-19.5l1-4.4V787
			l0.8-3.3c0.7-3.3,3-5.5,5.5-5.5h2.8c2.7,0,5.1,2.6,5.6,6.3l0.9,6.3c0.2,1.6,0.1,3.3-0.4,4.8l-9.6,19.5l25.2,59c0,0-20.6,5-52.4,5
			s-52.4-5-52.4-5L204.2,815.2z"/>
		<path class="st6" d="M214.8,778.2h33.5c3.4,0,5.7,4.4,4.8,8.9l-5.3,24l0.1,0.1h-0.3l10.1,53.2c0,0-12.8,9.6-26.2,9.6
			s-26.6-9.6-26.6-9.6l10.1-53.2h0.2V811l-5.4-24C208.9,782.6,211.4,778.2,214.8,778.2z"/>
		<path id="path2987-2" class="st7" d="M221.9,797.3c0,0,1.4-5.1,1.5-5.1c0.7,0,1.3,0,2,0c0,0-0.2,0.8-0.5,1.8s-0.5,1.8-0.5,1.8
			c0.2,0.1,0.5,0.1,0.7,0c0-0.1,1.2-4.2,1.2-4.2s-0.6,0-1.3,0s-1.3,0-1.3,0s0.3-1,0.6-2.2l0.6-2.2h2.4c1.3,0,2.4,0,2.4,0
			s-0.4,1.4-0.9,3l-1.5,5.1c-0.3,1.1-0.6,2.1-0.6,2.1c-0.8,0.1-1.6,0.1-2.4,0.1C223.1,797.4,222,797.4,221.9,797.3L221.9,797.3
			L221.9,797.3z M226.8,789.8c0.1-0.4,0.2-0.8,0.3-1.1c0,0,0,0-0.3,0c-0.1,0-0.2,0-0.4,0c-0.1,0.4-0.2,0.8-0.3,1.1c0,0,0,0,0.3,0
			C226.6,789.8,226.7,789.8,226.8,789.8L226.8,789.8z M228.9,791.4c0,0,0.3-1,0.6-2.2l0.6-2.2h1c0.3,0,0.7,0,1,0
			c-0.1,0.5-0.2,0.9-0.4,1.4c-0.2,0.7-0.4,1.3-0.4,1.4s0,0,0.4,0h0.4l0.4-1.4c0.2-0.8,0.4-1.4,0.4-1.4c0.6,0,1.3,0,1.9,0
			c0,0-0.3,1-0.6,2.2l-0.6,2.2h-2.4C230,791.4,228.9,791.4,228.9,791.4L228.9,791.4L228.9,791.4z M234.1,791.4c0,0,0.3-1,0.6-2.2
			l0.6-2.2h2.3c1.3,0,2.4,0,2.4,0s-0.3,1-0.6,2.2l-0.6,2.2h-1c-0.3,0-0.7,0-1,0c0.1-0.5,0.2-0.9,0.4-1.4c0.2-0.7,0.4-1.3,0.4-1.4
			s0,0-0.4,0h-0.4l-0.4,1.4c-0.2,0.8-0.4,1.4-0.4,1.4C235.4,791.5,234.7,791.5,234.1,791.4L234.1,791.4L234.1,791.4z M240,790
			c-0.1-0.1-0.1-0.2,0-0.7c0-0.2,0.1-0.4,0.2-0.5c0.1-0.1,0.3-0.1,0.4,0c0,0,0.1,0.1,0.1,0.1c0,0.4-0.1,0.8-0.3,1.1
			C240.3,790.1,240.1,790.1,240,790L240,790L240,790z"/>
		<path id="path2989-1-2" class="st7" d="M229.7,791.9c-0.3,0-0.5,0-0.7,0.2c-0.3,0.3-0.4,0.8-0.2,1.2c0.2,0.3,0.5,0.5,0.8,0.6
			c-0.4-0.4-0.4-1,0-1.4c0,0,0.1-0.1,0.1-0.1h0.4c0.9,0,0.9-0.1,0.9,0.5l0,0c0-0.9,0-1-0.8-1L229.7,791.9L229.7,791.9z M231.2,793.7
			c-0.1,0.6-0.4,0.7-1.1,0.6h-2.1l-0.2,0.6h2.1C230.7,794.9,231.2,794.4,231.2,793.7L231.2,793.7L231.2,793.7z"/>
		<path class="st8" d="M250.1,814.7h-37.5c-0.9,0-1.7-0.8-1.7-1.7l0,0c0-0.9,0.8-1.7,1.7-1.7h37.5c0.9,0,1.7,0.8,1.7,1.7l0,0
			C251.8,813.9,251,814.7,250.1,814.7z"/>
		<path class="st8" d="M251.7,824.8h-40.8c-0.9,0-1.7-0.8-1.7-1.7l0,0c0-0.9,0.8-1.7,1.7-1.7h40.8c0.9,0,1.7,0.8,1.7,1.7l0,0
			C253.4,824,252.6,824.8,251.7,824.8z"/>
		<path class="st8" d="M253.7,834.9h-44.8c-0.9,0-1.7-0.8-1.7-1.7l0,0c0-0.9,0.8-1.7,1.7-1.7h44.8c0.9,0,1.7,0.8,1.7,1.7l0,0
			C255.4,834.2,254.7,834.9,253.7,834.9z"/>
		<path class="st8" d="M255.7,845.1h-48.8c-0.9,0-1.7-0.8-1.7-1.7l0,0c0-0.9,0.8-1.7,1.7-1.7h48.8c0.9,0,1.7,0.8,1.7,1.7l0,0
			C257.4,844.3,256.6,845.1,255.7,845.1z"/>
		<path class="st8" d="M257.6,855.2H205c-0.9,0-1.7-0.8-1.7-1.7l0,0c0-0.9,0.8-1.7,1.7-1.7h52.6c0.9,0,1.7,0.8,1.7,1.7l0,0
			C259.3,854.5,258.6,855.2,257.6,855.2z"/>
		<path class="st8" d="M259.6,865.4h-56.5c-0.9,0-1.7-0.8-1.7-1.7l0,0c0-0.9,0.8-1.7,1.7-1.7h56.5c0.9,0,1.7,0.8,1.7,1.7l0,0
			C261.3,864.6,260.5,865.4,259.6,865.4z"/>
		<polygon class="st9" points="229.2,394.2 93.6,394.2 73.6,608.2 161.6,608.2 165.2,532.6 169.2,608.2 257.2,608.2 237.2,394.2 		
			"/>
		<polygon class="st10" points="246.4,394.2 246.2,394.2 267.6,608.2 		"/>
		<polygon class="st10" points="246.2,394.2 237.2,394.2 257.2,608.2 267.6,608.2 		"/>
		<polygon class="st10" points="84.4,394.2 63.2,608.2 84.6,394.2 		"/>
		<polygon class="st10" points="84.6,394.2 63.2,608.2 73.6,608.2 93.6,394.2 		"/>
		<path class="st9" d="M258.8,255.2c-9.9-31.8-10.3-19.5-1.2-51.4l-41.1-11.6h-3.2l-7,38.4c-3.2,18.1-17.4,32.8-35.7,34.8
			c-3.3,0.3-6.7,0.3-10-0.2c-18.3-2-32.5-16.5-35.7-34.6l-7-38.5h-3.2l-41,11.4c9.1,32,8.7,21-1.2,52.8l-2.5,7.3l4.1,34.7l-0.4,70.5
			l-0.6,39.5l-1.6,71.8h185.1l0.5-182.2l4.1-34.2L258.8,255.2z"/>
		<path class="st10" d="M73.3,365.3c18.8,30.1,32.4,69.8,37.8,114.8h18.3c-6.6-63-27-117.5-55.6-154.3L73.3,365.3z"/>
		<path class="st10" d="M257.4,365.3c-18.9,30.1-32.4,69.8-37.8,114.8h-18.3c6.6-63,27-117.5,55.6-154.3L257.4,365.3z"/>
		<path class="st11" d="M217.7,126.1l-3.2-15.6l-3.8-7l5.3,64l-25.8,12.8h-44.4l-25.9-12.6l6.9-63.7l-5,6.6l-3.3,15.5h0.2l-3.9,39.7
			c-0.3,3.2,1.4,6.2,4.2,7.6l24.6,12.1c1,0.5,2.2,0.8,3.4,0.8h42.3c1.2,0,2.3-0.3,3.3-0.8l24.8-12.1c1.9-0.9,3.3-2.5,3.9-4.5
			l0.3-3.1L217.7,126.1z"/>
		<path class="st12" d="M234.2,62.1c-4.6-10.4-10.1-35.7-19.5-38.2s-22.3-23-41.3-23s-44.3,12.9-46.3,19s-9.4,4-16,12.7
			S91.9,65.1,96.2,74.2c2.9,6.2,8.2,16.4,12.1,23c1.9-3.5,6.3-4.7,9.7-2.8c1.5,0.8,2.7,2.2,3.3,3.8l0.5,12.1l5-7.1l1.3-17l40,2.5
			l40.3-2.5l2.3,17l3.8,7.1l0.1-0.1l0.4-12c1.3-3.7,5.4-5.7,9.2-4.3c0.2,0.1,0.4,0.2,0.6,0.3C224.8,89.2,238.8,72.4,234.2,62.1z"/>
		<path class="st13" d="M96.2,300.8c3-1,6.1-1.9,9.2-2.7c5.9-1.6,10.1-2.3,12.3-2.3c1.8-0.1,3.6,0.3,5.2,1.2c1.2,0.7,2.1,1.7,2.7,3
			c0.8,2.4,1.4,4.8,1.8,7.3l2.5,13.7c0.5,2.3,0.8,4.7,0.8,7.1c-0.1,1.1-0.5,2.2-1.2,3.1c-0.8,0.9-1.7,1.6-2.8,2
			c-1.8,0.7-3.6,1.3-5.4,1.6c-4.3,1.1-8.6,2.3-12.8,3.6L96.2,300.8z M110.2,303.8l6.5,25.2c1.5-0.4,2.4-0.9,2.6-1.6s0-2.3-0.6-4.8
			l-3.6-14.9c-0.2-1.1-0.6-2.2-1-3.3c-0.2-0.5-0.7-0.8-1.2-0.9C112,303.4,111.1,303.5,110.2,303.8L110.2,303.8z"/>
		<path class="st13" d="M159.2,290c2.8,13.1,5.2,26.3,7.1,39.5c-3.6,0-7.1,0.1-10.7,0.3c-0.3-2.4-0.6-4.7-1-7.1
			c-1.3,0.1-2.6,0.2-3.9,0.3c0,2.4-0.1,4.8-0.1,7.1c-3.6,0.3-7.2,0.7-10.8,1.2c0-13.3,0.3-26.7,1-40
			C147,290.6,153.1,290.2,159.2,290z M154,315.7c-0.8-4.4-1.8-9.9-2.8-16.5c-0.7,7.6-1,13.2-1,16.7
			C151.4,315.9,152.7,315.8,154,315.7z"/>
		<path class="st13" d="M198.5,292.3l-1.1,7.8c-2.4-0.3-4.8-0.7-7.2-0.9l-3.5,31.4c-3.5-0.4-6.9-0.7-10.4-0.9l1.7-31.6
			c-2.4-0.1-4.8-0.2-7.2-0.3l0.2-7.9C180.2,290.2,189.4,291,198.5,292.3z"/>
		<path class="st13" d="M228.3,298.7c-1.3,13.3-3,26.6-5.1,39.8c-3.4-1.1-6.9-2.1-10.4-3c0.4-2.3,0.8-4.7,1.2-7
			c-1.3-0.3-2.5-0.6-3.8-0.9c-0.8,2.3-1.5,4.5-2.2,6.8c-3.5-0.8-7.1-1.5-10.6-2.1c4-12.7,8.3-25.3,13-37.8
			C216.4,295.6,222.4,297,228.3,298.7z M215.5,321.6c0.5-4.5,1.3-10,2.3-16.5c-3,7.1-5,12.3-6.1,15.6
			C213,320.9,214.2,321.2,215.5,321.6z"/>
	</g>
</g>
</svg>
