<svg xmlns="http://www.w3.org/2000/svg" xmlns:xlink="http://www.w3.org/1999/xlink" viewBox="0 0 332.18 892.72"><defs><style>.cls-1,.cls-11{isolation:isolate;}.cls-2,.cls-4,.cls-5{mix-blend-mode:darken;}.cls-2{fill:url(#linear-gradient);}.cls-3,.cls-5{fill:#e2ae83;}.cls-6{fill:#c49a6c;}.cls-7{fill:#f1f2f2;}.cls-8{fill:none;}.cls-9{fill:#ed1c24;}.cls-10{fill:#39b54a;}.cls-11{fill:#010101;opacity:0.95;}.cls-12,.cls-17{fill:#fff;}.cls-13{fill:#21409a;}.cls-14{fill:#99247d;}.cls-15{fill:#be9271;}.cls-16{fill:#383838;}.cls-17{stroke:#99247d;stroke-miterlimit:10;stroke-width:1.11px;}</style><linearGradient id="linear-gradient" x1="165.24" y1="216.17" x2="165.24" y2="182.17" gradientUnits="userSpaceOnUse"><stop offset="0" stop-color="#e2ae83"/><stop offset="0.25" stop-color="#dba97f"/><stop offset="0.61" stop-color="#c99d72"/><stop offset="1" stop-color="#ad895f"/></linearGradient></defs><title>basketball</title><g class="cls-1"><g id="Layer_1" data-name="Layer 1"><path class="cls-2" d="M250.3,207.37a199.13,199.13,0,0,1-23.86-7.83l-33.87-9-1.82-8.4h-50L139,190.33,104,199.62a198.92,198.92,0,0,1-23.86,7.77l-29.94,8.78h230Z"/><polygon class="cls-3" points="242.24 377.52 89.24 377.52 69.24 241.41 262.24 241.41 242.24 377.52"/><path class="cls-3" d="M331.27,302.69c-1.59-11.47-6-23.86-11.76-34.74,8-18.64,1.22-40.57-19.42-52.24-0.43-.26-0.88-0.51-1.33-0.75h0c-13.75-7.27-32.39-4.4-41.64,6.4s-5.6,25.44,8.14,32.71l0.82,0.43c-4,14.42-.81,35.44,1.81,53.62,1.73,12,11.89,31.8,22,45.25-4.87,12.89-8.16,29.64-11.13,44.47-2.14,10.66-1.68,28.51.38,42.72a32.5,32.5,0,0,1-.92,8.14,16,16,0,0,1-3.07,5.54l-5.86,26.15-0.11,0-1,4.94L267.83,487h0l-2.35,11.67h0l0.63,14.17c0.12,2.67,2.56,4.8,5.6,4.88l3.43,0.1c3.19,0.09,5.87-2.11,6-4.92l0.43-11.73h0l3.18-10.73,6.64,1.42L291,514.17h0l-0.51,15h0L290,538.49c-0.14,2.91,2.42,5.27,5.73,5.4l4.89,0.14A2.58,2.58,0,0,0,303.4,542l1.84-12.8h0l2.05-15h0l2-18.69v-0.07h0l-3.66-41.18s0.84-4.25,1.63-7,4-11.07,4-11.07h0a154.08,154.08,0,0,0,10.81-32.78A144.49,144.49,0,0,0,323.23,355C330.55,342.32,333.95,322,331.27,302.69Z"/><g class="cls-4"><path class="cls-3" d="M33.43,215h0c13.75-7.27,32.39-4.4,41.64,6.4s5.6,25.44-8.14,32.71l-47.29,25C2.37,258.91,7.15,229.82,32.1,215.72c0.43-.26.88-0.51,1.33-0.75h0Z"/><path class="cls-3" d="M0.91,302.69c-4.21,30.3,6.58,63.13,24,65,10.81,1.13,36.51-39.8,39.35-59.53,4.36-30.28,10.33-68.45-18-70.88C28.79,235.75,5.11,272.4.91,302.69Z"/><path class="cls-3" d="M10.13,403.29C16.27,433.38,33,463.4,45,462.22c7.44-.73,12.3-44.77,8.37-64.39-6-30.11-13.33-68.13-32.68-65.69C8.78,333.65,4,373.19,10.13,403.29Z"/><polygon class="cls-3" points="22.85 495.54 64.36 487.04 57.01 454.24 26.53 454.24 22.85 495.54"/><polygon class="cls-3" points="24.89 514.27 41.16 514.04 40.83 491.86 22.85 495.42 24.89 514.27"/><polygon class="cls-3" points="50.65 501.22 66.67 498.73 62.97 480.37 45.23 482.9 50.65 501.22"/><polygon class="cls-3" points="26.96 529.17 41.67 528.78 41.16 513.99 24.9 514.25 26.96 529.17"/><path class="cls-3" d="M31.52,544l4.89-.19c3.31-.13,5.88-2.59,5.73-5.49l-0.47-9.52-14.73.38,1.84,12.78A2.57,2.57,0,0,0,31.52,544Z"/><path class="cls-3" d="M60.48,517.77l-3.43.1c-3.19.09-5.87-2.11-6-4.92L50.59,499.4l16.12-.68-0.63,14.17C66,515.55,63.51,517.69,60.48,517.77Z"/><path class="cls-3" d="M53,440.56a32.5,32.5,0,0,0,.92,8.14A16,16,0,0,0,57,454.24l-13.41,8-17.08-8s-0.84-4.36-1.63-7.11-4-11.17-4-11.17Z"/></g><path class="cls-5" d="M239.21,272.79H92.27c-7.66,0-14.34-4.09-16.19-9.93L64.43,226.33C61.8,218.05,69.76,210,80.63,210l81.69,1a6.87,6.87,0,0,1,3.25.84h0a6.87,6.87,0,0,1,3.25-.84l82-1c10.86,0,18.83,8,16.19,16.3L255.4,262.86C253.54,268.69,246.87,272.79,239.21,272.79Z"/><polygon class="cls-6" points="242.24 377.17 165.74 377.17 89.24 377.17 86.24 420.85 165.74 429.58 245.24 420.81 242.24 377.17"/><path class="cls-3" d="M123.24,410.43h0c-21.49-.7-39.56,12.52-40.21,29.4l-1.8,177.08L76,643.5A157.33,157.33,0,0,0,73,674L85.85,794.36l36,1.18,18.57-127.62q0.55-6.91.43-13.83l-0.65-35.25L160.15,443C161.8,425.93,145.07,411.15,123.24,410.43Z"/><path class="cls-3" d="M255.93,643.23l-5.47-26.56-3.38-177.06c-0.8-16.88-19-30-40.47-29.18h0c-21.82.83-38.42,15.71-36.62,32.81L191.5,618.92l-0.33,35.25q-0.07,6.92.55,13.83l19.71,127.52,36-1.37,11.75-120.4A157.49,157.49,0,0,0,255.93,643.23Z"/><rect class="cls-7" x="50.09" y="873.96" width="104.84" height="18.76"/><polygon class="cls-8" points="118.74 811.1 118.83 811.26 118.75 811.03 118.74 811.1"/><polygon class="cls-8" points="86.2 811.26 86.29 811.1 86.27 811.03 86.2 811.26"/><path class="cls-9" d="M118.75,811l5.39-23.86s0-.1,0-0.15l-5.43,24Z"/><path class="cls-9" d="M129.83,815.17l-10.77-3.5h0l10.77,18.71,10.53-34.6a10.45,10.45,0,0,0,.35-5.23L139.5,784c-0.65-3.46-1.45-5.88-4.08-5.88h-5c-2.52,0-4.74,2.23-5.49,5.51L124.17,787s0,0.1,0,.14L118.75,811l-0.27.23-0.24.33v53.58h-32v-54h0l0.09-.15-4.41-19.46-1-4.42,0-.13-0.76-3.34c-0.74-3.28-3-5.5-5.49-5.5H71.83c-2.74,0-5.1,2.63-5.63,6.29l-0.92,6.29a10.42,10.42,0,0,0,.42,4.81L75.31,815,50.09,874S70.73,879,102.51,879,154.93,874,154.93,874Z"/><path class="cls-10" d="M119.25,778.17H85.77c-3.41,0-5.74,4.43-4.81,8.86l5.33,24-0.09.14h0.3l-10.14,53.2S89.13,874,102.51,874s26.56-9.61,26.56-9.61l-10.14-53.2h-0.16l0-.15,5.43-24C125.1,782.61,122.66,778.17,119.25,778.17Z"/><path id="path2987" class="cls-11" d="M93.35,797.3s1.45-5.07,1.49-5.13a16,16,0,0,1,2,0s-0.21.81-.48,1.76-0.5,1.75-.49,1.77a1.41,1.41,0,0,0,.69,0c0-.06,1.24-4.21,1.22-4.24s-0.58,0-1.34,0-1.33,0-1.34,0,0.27-1,.62-2.19L96.33,787h2.35c1.29,0,2.36,0,2.37,0s-0.37,1.37-.85,3l-1.48,5.07c-0.33,1.14-.62,2.1-0.63,2.13a9.53,9.53,0,0,1-2.37.06c-1.29,0-2.35,0-2.36,0h0Zm4.89-7.5a10.77,10.77,0,0,0,.33-1.14s0-.05-0.34-0.05a0.75,0.75,0,0,0-.37,0,11,11,0,0,0-.33,1.14s0,0.05.34,0.05a0.76,0.76,0,0,0,.37,0h0Zm2.07,1.6s0.27-1,.62-2.2l0.64-2.17h1a9.19,9.19,0,0,1,1,0,13.67,13.67,0,0,1-.36,1.36c-0.21.73-.39,1.35-0.39,1.38s0,0.05.36,0h0.36l0.4-1.36c0.22-.75.42-1.38,0.43-1.4a14.43,14.43,0,0,1,1.94,0s-0.27,1-.62,2.19L105,791.42h-2.35c-1.29,0-2.36,0-2.37,0h0Zm5.18,0s0.27-1,.62-2.2l0.64-2.17h2.34c1.29,0,2.36,0,2.37,0s-0.26,1-.62,2.2l-0.64,2.17h-1a9.19,9.19,0,0,1-1,0,13.67,13.67,0,0,1,.36-1.36c0.21-.73.39-1.35,0.39-1.38s0-.05-0.36,0h-0.36l-0.4,1.36c-0.22.75-.42,1.38-0.43,1.4a14.43,14.43,0,0,1-1.94,0h0Zm5.86-1.44c-0.14-.11-0.14-0.23,0-0.73a1.31,1.31,0,0,1,.21-0.54,0.3,0.3,0,0,1,.5.15,2.86,2.86,0,0,1-.31,1.1,0.29,0.29,0,0,1-.4,0h0Z"/><path id="path2989-1" class="cls-11" d="M101.08,791.9a0.8,0.8,0,0,0-.69.23,1.25,1.25,0,0,0-.25,1.17,1.28,1.28,0,0,0,.79.63,1,1,0,0,1,.19-1.53h0.41c0.91,0,.85-0.08.87,0.55h0c0-.89,0-1-0.8-1h-0.52Zm1.57,1.78c-0.09.58-.45,0.65-1.13,0.64H99.47l-0.19.64h2.11a1.36,1.36,0,0,0,1.26-1.29h0Z"/><rect class="cls-12" x="82.27" y="811.26" width="40.89" height="3.39" rx="1.7" ry="1.7"/><rect class="cls-12" x="80.62" y="821.4" width="44.19" height="3.39" rx="1.7" ry="1.7"/><rect class="cls-12" x="78.6" y="831.54" width="48.22" height="3.39" rx="1.7" ry="1.7"/><rect class="cls-12" x="76.62" y="841.68" width="52.18" height="3.39" rx="1.7" ry="1.7"/><rect class="cls-12" x="74.7" y="851.81" width="56.03" height="3.39" rx="1.7" ry="1.7"/><rect class="cls-12" x="72.76" y="861.95" width="59.91" height="3.39" rx="1.7" ry="1.7"/><polygon class="cls-8" points="190.29 811.1 190.2 811.26 190.27 811.03 190.29 811.1"/><rect class="cls-7" x="179.09" y="873.96" width="104.84" height="18.76"/><polygon class="cls-8" points="247.83 811.26 247.74 811.1 247.75 811.03 247.83 811.26"/><path class="cls-9" d="M204.19,815.17l10.77-3.5h0l-10.77,18.71-10.53-34.6a10.45,10.45,0,0,1-.35-5.23l1.22-6.5c0.65-3.46,1.45-5.88,4.08-5.88h5c2.52,0,4.74,2.23,5.49,5.51l0.76,3.35s0,0.1,0,.14L215.27,811l0.5,0.23,0.47,0.33v53.58h32v-54h-0.41l-0.09-.15,4.41-19.46,1-4.42,0-.13,0.76-3.34c0.74-3.28,3-5.5,5.49-5.5h2.78c2.74,0,5.1,2.63,5.63,6.29l0.92,6.29a10.42,10.42,0,0,1-.42,4.81L258.71,815l25.22,59S263.3,879,231.51,879,179.09,874,179.09,874Z"/><path class="cls-10" d="M214.77,778.17h33.48c3.41,0,5.74,4.43,4.81,8.86l-5.33,24,0.09,0.14h-0.3l10.14,53.2S244.9,874,231.51,874s-26.56-9.61-26.56-9.61l10.14-53.2h0.16l0-.15-5.43-24C208.93,782.61,211.37,778.17,214.77,778.17Z"/><path id="path2987-2" data-name="path2987" class="cls-11" d="M221.95,797.3s1.45-5.07,1.49-5.13a16,16,0,0,1,2,0s-0.21.81-.48,1.76-0.5,1.75-.49,1.77a1.41,1.41,0,0,0,.69,0c0-.06,1.24-4.21,1.22-4.24s-0.58,0-1.34,0-1.33,0-1.34,0,0.27-1,.62-2.19l0.64-2.17h2.35c1.29,0,2.36,0,2.37,0s-0.37,1.37-.85,3l-1.48,5.07c-0.33,1.14-.62,2.1-0.63,2.13a9.53,9.53,0,0,1-2.37.06c-1.29,0-2.35,0-2.36,0h0Zm4.89-7.5a10.77,10.77,0,0,0,.33-1.14s0-.05-0.34-0.05a0.75,0.75,0,0,0-.37,0,11,11,0,0,0-.33,1.14s0,0.05.34,0.05a0.76,0.76,0,0,0,.37,0h0Zm2.07,1.6s0.27-1,.62-2.2l0.64-2.17h1a9.19,9.19,0,0,1,1,0,13.67,13.67,0,0,1-.36,1.36c-0.21.73-.39,1.35-0.39,1.38s0,0.05.36,0h0.36l0.4-1.36c0.22-.75.42-1.38,0.43-1.4a14.43,14.43,0,0,1,1.94,0s-0.27,1-.62,2.19l-0.64,2.17h-2.35c-1.29,0-2.36,0-2.37,0h0Zm5.18,0s0.27-1,.62-2.2l0.64-2.17h2.34c1.29,0,2.36,0,2.37,0s-0.26,1-.62,2.2l-0.64,2.17h-1a9.19,9.19,0,0,1-1,0,13.67,13.67,0,0,1,.36-1.36c0.21-.73.39-1.35,0.39-1.38s0-.05-0.36,0h-0.36l-0.4,1.36c-0.22.75-.42,1.38-0.43,1.4a14.43,14.43,0,0,1-1.94,0h0ZM240,790c-0.14-.11-0.14-0.23,0-0.73a1.31,1.31,0,0,1,.21-0.54,0.3,0.3,0,0,1,.5.15,2.86,2.86,0,0,1-.31,1.1,0.29,0.29,0,0,1-.4,0h0Z"/><path id="path2989-1-2" data-name="path2989-1" class="cls-11" d="M229.67,791.9a0.8,0.8,0,0,0-.69.23,1.25,1.25,0,0,0-.25,1.17,1.28,1.28,0,0,0,.79.63,1,1,0,0,1,.19-1.53h0.41c0.91,0,.85-0.08.87,0.55h0c0-.89,0-1-0.8-1h-0.52Zm1.57,1.78c-0.09.58-.45,0.65-1.13,0.64h-2.05l-0.19.64H230a1.36,1.36,0,0,0,1.26-1.29h0Z"/><rect class="cls-12" x="210.87" y="811.26" width="40.89" height="3.39" rx="1.7" ry="1.7" transform="translate(462.62 1625.91) rotate(180)"/><rect class="cls-12" x="209.22" y="821.4" width="44.19" height="3.39" rx="1.7" ry="1.7" transform="translate(462.62 1646.19) rotate(-180)"/><rect class="cls-12" x="207.2" y="831.54" width="48.22" height="3.39" rx="1.7" ry="1.7" transform="translate(462.62 1666.47) rotate(180)"/><rect class="cls-12" x="205.22" y="841.68" width="52.18" height="3.39" rx="1.7" ry="1.7" transform="translate(462.62 1686.74) rotate(-180)"/><rect class="cls-12" x="203.29" y="851.81" width="56.03" height="3.39" rx="1.7" ry="1.7" transform="translate(462.62 1707.02) rotate(-180)"/><rect class="cls-12" x="201.35" y="861.95" width="59.91" height="3.39" rx="1.7" ry="1.7" transform="translate(462.62 1727.3) rotate(-180)"/><polygon class="cls-13" points="229.24 394.17 93.57 394.17 73.57 608.17 161.57 608.17 165.24 532.63 169.24 608.17 257.24 608.17 237.24 394.17 229.24 394.17"/><polygon class="cls-14" points="246.41 394.17 246.24 394.17 267.57 608.17 246.41 394.17"/><polygon class="cls-14" points="246.24 394.17 237.24 394.17 257.24 608.17 267.57 608.17 246.24 394.17"/><polygon class="cls-14" points="84.41 394.17 63.24 608.17 84.57 394.17 84.41 394.17"/><polygon class="cls-14" points="84.57 394.17 63.24 608.17 73.57 608.17 93.57 394.17 84.57 394.17"/><path class="cls-13" d="M258.82,255.17c-9.9-31.79-10.31-19.47-1.18-51.45l-41.05-11.56H213.4l-7,38.41c-3.23,18.1-17.41,32.8-35.69,34.81a45.8,45.8,0,0,1-10-.16c-18.28-2-32.47-16.46-35.69-34.57l-7-38.49h-3.19L73.83,203.51c9.13,32,8.73,21-1.18,52.75l-2.52,7.34,4.07,34.71-0.38,70.52-0.55,39.5-1.6,71.84H256.8l0.47-182.24,4.07-34.23Z"/><path class="cls-14" d="M73.27,365.33c18.85,30.11,32.36,69.84,37.81,114.84h18.34c-6.63-63-27-117.45-55.6-154.34Z"/><path class="cls-14" d="M257.42,365.33c-18.85,30.11-32.36,69.84-37.81,114.84H201.27c6.63-63,27-117.45,55.6-154.34Z"/><path class="cls-15" d="M217.69,126.06l-3.19-15.57-3.8-7,5.32,64-25.83,12.77H145.74l-25.93-12.62,6.87-63.7-5,6.58L118.43,126l0.18,0-3.89,39.68a7.61,7.61,0,0,0,4.22,7.57l24.6,12.09a7.61,7.61,0,0,0,3.36.78h42.28a7.61,7.61,0,0,0,3.34-.77l24.83-12.11a7.61,7.61,0,0,0,3.9-4.49l0.34-3.08Z"/><path class="cls-16" d="M234.24,62.07c-4.56-10.38-10.13-35.71-19.5-38.24s-22.29-23-41.28-23-44.32,12.92-46.35,19-9.37,4.05-16,12.66S91.9,65.1,96.2,74.22c2.92,6.18,8.21,16.36,12.08,23a7.16,7.16,0,0,1,13,1l0.49,12.14,5-7.06,1.27-17,40,2.53,40.27-2.53,2.28,17,3.8,7.09,0.13-.14,0.35-12a7.17,7.17,0,0,1,9.8-4.08C224.75,89.17,238.8,72.45,234.24,62.07Z"/><path class="cls-5" d="M228.24,103.49v-2.56c0-4.09-2.79-7.41-6.88-7.41a6.92,6.92,0,0,0-6.58,4.76l-0.39-4.81a46.32,46.32,0,1,0-92.63,0l-0.46,4.81a7.88,7.88,0,0,0-7.3-4.76,7.72,7.72,0,0,0-7.77,7.41v2.56c0,6.56,5.24,21,11.62,22.5l0.46,0-3.75,39.69a7.67,7.67,0,0,0,4.29,7.58l24.64,12.09a7.76,7.76,0,0,0,3.39.78h42.28a7.61,7.61,0,0,0,3.34-.77l24.83-12.11a7.64,7.64,0,0,0,4.24-7.59L217.33,126C223.8,124.72,228.24,110.11,228.24,103.49Z"/><path class="cls-17" d="M96.19,300.83q4.56-1.47,9.16-2.73c5.94-1.63,10.06-2.3,12.26-2.32a9.69,9.69,0,0,1,5.25,1.21,6.55,6.55,0,0,1,2.68,3,43.54,43.54,0,0,1,1.76,7.34L129.8,321a31.09,31.09,0,0,1,.77,7.1,5.46,5.46,0,0,1-1.25,3.1,7.83,7.83,0,0,1-2.81,2,34.21,34.21,0,0,1-5.41,1.65q-6.44,1.58-12.79,3.62Zm14,3L116.72,329c1.52-.4,2.39-0.91,2.6-1.58s0-2.28-.61-4.84l-3.61-14.93a17.34,17.34,0,0,0-1-3.3,1.66,1.66,0,0,0-1.17-.86A7,7,0,0,0,110.16,303.81Z"/><path class="cls-17" d="M159.18,290q4.19,19.66,7.12,39.45-5.34,0-10.67.27-0.47-3.53-1-7.07-1.94.11-3.87,0.26-0.05,3.57-.08,7.14-5.39.43-10.75,1.18-0.07-20,1-40Q150,290.28,159.18,290ZM154,315.69q-1.24-6.66-2.82-16.46c-0.73,7.64-1,13.22-1,16.73Q152,315.8,154,315.69Z"/><path class="cls-17" d="M198.53,292.29l-1.14,7.83q-3.59-.52-7.2-0.93l-3.52,31.43q-5.2-.58-10.41-0.87L178,298.17q-3.6-.2-7.21-0.28L171,290A227.49,227.49,0,0,1,198.53,292.29Z"/><path class="cls-17" d="M228.27,298.68q-1.93,20-5.09,39.77-5.14-1.65-10.35-3,0.62-3.51,1.21-7-1.89-.48-3.79-0.93-1.13,3.39-2.24,6.78-5.29-1.22-10.64-2.13,6-19,13-37.8Q219.4,296.14,228.27,298.68Zm-12.78,22.88q0.82-6.72,2.28-16.55c-3,7.06-5,12.29-6.06,15.63Q213.6,321.08,215.49,321.56Z"/></g></g></svg>