<!-- Generator: Adobe Illustrator 19.1.0, SVG Export Plug-In  -->
<svg version="1.1"
	 xmlns="http://www.w3.org/2000/svg" xmlns:xlink="http://www.w3.org/1999/xlink" xmlns:a="http://ns.adobe.com/AdobeSVGViewerExtensions/3.0/"
	 x="0px" y="0px" width="149px" height="87.6px" viewBox="0 0 149 87.6" style="enable-background:new 0 0 149 87.6;"
	 xml:space="preserve">
<style type="text/css">
	.st0{fill:#39B54A;}
	.st1{fill:none;}
	.st2{fill:#ED1C24;}
	.st3{fill:#C42128;}
	.st4{fill:#2D8A42;}
	.st5{fill:#F1F2F2;}
</style>
<defs>
</defs>
<g>
	<path class="st0" d="M84,15.5L84,15.5L84,15.5c-1.2-0.3-2.3-0.6-3.4-1.1c-1.1-0.5-2.1-1.1-3-1.8c-0.9-0.6-1.6-1.4-2.4-2.2
		c-0.5,1.5-1.1,3-1.7,4.4c0.8,1.6,1.4,3.4,1.8,5.2c0.1,0,0.1,0.1,0.2,0.1c0.3,0.2,0.6,0.3,1,0.5c0.1,0,0.2,0.1,0.3,0.1
		c0.3,0.1,0.6,0.2,0.9,0.3c0.4,0.2,0.8,0.3,1.2,0.4c0.6,0.2,1.2,0.3,1.8,0.4c0.6,0.1,1.3,0.2,1.9,0.3L81.8,22h0c0,0,0,0,0,0
		c0,0,0,0,0,0h0l0,0c0,0,0,0,0,0c3.2,0.7,6.4,1.5,9.6,2.3c1.2,0.3,2.4,0.6,3.6,0.9l6.7,1.6c2.2,0.5,4.4,1.1,6.7,1.5l13.4,3l6.7,1.5
		l6.7,1.4l0.2-0.5L84,15.5z"/>
	<g>
		<path class="st1" d="M81.8,22l0.9,0.2l0,0L82,22.1L81.8,22C81.8,22,81.8,22,81.8,22z"/>
		<path class="st1" d="M91.4,24.3c-3.2-0.8-6.3-1.6-9.4-2.3C85.1,22.8,88.2,23.6,91.4,24.3z"/>
		<polygon class="st1" points="82.7,22.2 82,22.1 82.6,22.2 		"/>
		<path class="st2" d="M135.3,33.6l-0.2,0.5l-6.7-1.4l-6.7-1.5l-13.4-3c-2.2-0.5-4.4-1-6.7-1.5l-6.7-1.6c-1.2-0.3-2.5-0.6-3.7-0.9
			c-3.1-0.8-6.3-1.5-9.4-2.3c0,0-0.1,0-0.1,0l0.2,0.1l0.6,0.2h0c0,0,0,0,0,0l0,0c-1.7-0.2-3.3-0.6-5-1.2c-0.3-0.1-0.6-0.2-0.9-0.3
			c-0.1,0-0.2-0.1-0.3-0.1c-0.3-0.1-0.7-0.3-1-0.5c-0.1,0-0.1-0.1-0.2-0.1c-0.8-0.4-1.5-0.8-2.3-1.3c-1.5-0.9-2.8-2.1-4-3.4
			c-1.2-1.3-2.3-2.7-3.2-4.3c-0.9-1.5-1.6-3.2-2.2-4.9c-0.3-0.9-0.5-1.8-0.6-2.7C59.4,1.3,55.1,0,50.5,0H25.5C17.3,0,10,4,5.4,10
			L1,62.8C1,66.1,3.7,69,6.9,69h64.2H76h65.4c4.2,0,7.6-3.9,7.6-8.1v-8.2C149,44.1,143.5,36.4,135.3,33.6z"/>
		<polygon class="st3" points="82,22.1 81.8,22 81.8,22 		"/>
		<polygon class="st4" points="81.8,22 81.8,22 81.8,22 		"/>
		<path class="st4" d="M81.8,22C81.8,22,81.8,22,81.8,22L81.8,22C81.8,22,81.8,22,81.8,22z"/>
		<path class="st4" d="M78.9,21.4c-0.4-0.1-0.8-0.3-1.2-0.4c1.6,0.6,3.3,1,5,1.2l0,0c-0.6-0.1-1.3-0.2-1.9-0.3
			C80.1,21.8,79.5,21.6,78.9,21.4z"/>
		<path class="st4" d="M121.7,31.3l-13.4-3c-2.2-0.5-4.4-1-6.7-1.5l-1.3-0.3l-5.3-1.2l6.7,1.6c2.2,0.5,4.4,1.1,6.7,1.5L121.7,31.3
			l6.7,1.5l6.7,1.4l-6.7-1.4L121.7,31.3z"/>
		<path class="st4" d="M100.4,26.5l1.3,0.3l-6.7-1.6c-1.2-0.3-2.4-0.6-3.6-0.9c1.2,0.3,2.4,0.6,3.6,0.9L100.4,26.5z"/>
		<polygon class="st4" points="81.8,22 81.8,22 81.8,22 81.8,22 		"/>
		<path class="st0" d="M65.9,11.1c0.9,1.6,2,3,3.2,4.3c1.2,1.3,2.6,2.4,4,3.4c0.7,0.5,1.5,0.9,2.3,1.3c-1.6-7-6.1-12.9-12.2-16.4
			c0,0,0-0.1,0-0.1c0,0,0,0,0,0c0.2,0.9,0.4,1.8,0.6,2.7C64.3,7.9,65,9.5,65.9,11.1z"/>
		<rect x="82.6" y="22.2" class="st4" width="0" height="0"/>
		<polygon class="st4" points="82.7,22.2 82.7,22.2 82.6,22.2 		"/>
		<path class="st4" d="M78.9,21.4c0.6,0.2,1.2,0.3,1.8,0.4C80.1,21.8,79.5,21.6,78.9,21.4z"/>
		<path class="st4" d="M80.7,21.9c0.6,0.1,1.3,0.2,1.9,0.3l0,0C82,22.1,81.4,22,80.7,21.9z"/>
		<path class="st4" d="M77.7,21c0.4,0.2,0.8,0.3,1.2,0.4C78.5,21.3,78.1,21.2,77.7,21z"/>
		<path class="st4" d="M81.8,22C81.8,22,81.8,22,81.8,22L81.8,22C81.8,22,81.8,22,81.8,22L81.8,22z"/>
		<path class="st4" d="M81.8,22C81.9,22,81.9,22,81.8,22c3.2,0.7,6.4,1.5,9.5,2.3c0,0,0,0,0.1,0C88.2,23.6,85,22.7,81.8,22z"/>
		<path class="st4" d="M101.7,26.8c2.2,0.5,4.4,1.1,6.7,1.5l13.4,3l-13.4-3C106.1,27.8,103.9,27.3,101.7,26.8l-1.3-0.3L101.7,26.8z"
			/>
		<path class="st4" d="M81.8,22L81.8,22c0.1,0,0.1,0,0.1,0C81.9,22,81.9,22,81.8,22C81.8,22,81.8,22,81.8,22z"/>
		<path class="st4" d="M95.1,25.2c-1.2-0.3-2.4-0.6-3.6-0.9c0,0,0,0-0.1,0C92.6,24.6,93.8,24.9,95.1,25.2l5.3,1.2L95.1,25.2z"/>
		<rect x="81.8" y="22" transform="matrix(-0.9655 -0.2603 0.2603 -0.9655 155.0755 64.5506)" class="st4" width="0" height="0"/>
		<path class="st5" d="M149,62.9l-0.9,1c-2.6,2.8-6.3,4.4-10.1,4.4H10.2c-3.8,0-7.3-2.1-9.2-5.4l-1,0v19.2l1.1,0.2
			c1.9,3.3,5.3,5.3,9.1,5.3h127.1c4.3,0,8.4-2,11-5.4l0.7-1V62.9z"/>
		<g>
			<path class="st5" d="M125.3,42.1c-0.3,0-0.5-0.1-0.8-0.2c-1-0.4-1.5-1.6-1.1-2.6l3.7-9.7c0.4-1,1.6-1.5,2.6-1.1
				c1,0.4,1.5,1.6,1.1,2.6l-3.7,9.7C126.9,41.6,126.1,42.1,125.3,42.1z"/>
		</g>
		<g>
			<path class="st5" d="M115.3,38.1c-0.3,0-0.5-0.1-0.8-0.2c-1-0.4-1.5-1.6-1.1-2.6l4.7-9.7c0.4-1,1.6-1.5,2.6-1.1
				c1,0.4,1.5,1.6,1.1,2.6l-4.7,9.7C116.9,37.6,116.1,38.1,115.3,38.1z"/>
		</g>
		<g>
			<path class="st5" d="M105.8,35.1c-0.3,0-0.5-0.1-0.8-0.2c-1-0.4-1.5-1.6-1.1-2.6l4.7-9.7c0.4-1,1.6-1.5,2.6-1.1
				c1,0.4,1.5,1.6,1.1,2.6l-4.7,9.7C107.4,34.6,106.6,35.1,105.8,35.1z"/>
		</g>
		<g>
			<path class="st5" d="M94.3,31.1c-0.3,0-0.5-0.1-0.8-0.2c-1-0.4-1.5-1.6-1.1-2.6l4.7-9.7c0.4-1,1.6-1.5,2.6-1.1
				c1,0.4,1.5,1.6,1.1,2.6l-4.7,9.7C95.9,30.6,95.1,31.1,94.3,31.1z"/>
		</g>
		<g>
			<path class="st5" d="M83.8,28.1c-0.3,0-0.5-0.1-0.8-0.2c-1-0.4-1.5-1.6-1.1-2.6l4.7-9.7c0.4-1,1.6-1.5,2.6-1.1
				c1,0.4,1.5,1.6,1.1,2.6l-4.7,9.7C85.4,27.6,84.6,28.1,83.8,28.1z"/>
		</g>
	</g>
</g>
</svg>
