<!-- Generator: Adobe Illustrator 19.1.0, SVG Export Plug-In  -->
<svg version="1.1"
	 xmlns="http://www.w3.org/2000/svg" xmlns:xlink="http://www.w3.org/1999/xlink" xmlns:a="http://ns.adobe.com/AdobeSVGViewerExtensions/3.0/"
	 x="0px" y="0px" width="156.2px" height="296.3px" viewBox="0 0 156.2 296.3" style="enable-background:new 0 0 156.2 296.3;"
	 xml:space="preserve">
<style type="text/css">
	.st0{fill:#BE9173;}
	.st1{fill:#2D8A42;}
	.st2{fill:#C42128;}
	.st3{fill:#CCCCCC;}
</style>
<defs>
</defs>
<g>
	<path class="st0" d="M67.4,196.3l-42,0L0,61.2C-0.2,44.4,12,0,44.4,0l0,0C66.2,0,85,18,83,41.6L67.4,196.3z"/>
	<g>
		<g>
			<path class="st1" d="M91.2,224.2L91.2,224.2L91.2,224.2c-1.2-0.3-2.3-0.6-3.4-1.1c-1.1-0.5-2.1-1.1-3-1.8
				c-0.9-0.7-1.8-1.5-2.5-2.4c-0.7-0.9-1.4-1.9-1.9-2.9c-0.5-1-0.9-2.1-1.2-3.3c-0.3-1.1-0.4-2.3-0.4-3.4l0-7.2l0-14.5
				c0-1.2-0.1-2.6-0.7-3.8c-0.6-1.2-1.8-2.2-3.1-2.6c-1.2-0.5-2.5-0.7-3.8-0.7c-0.6-0.1-1.2,0-1.9,0c-0.3,0-0.6,0-0.9,0.1l-0.5,0
				c-0.2,0-0.3,0-0.4,0.2l0,0.5l0.7,7.7c0.4,2.7,0.7,8.3,1.1,13.1l0.6,7.4c0.1,1.8,0.4,3.6,1,5.4c0.5,1.7,1.2,3.4,2.2,4.9
				c0.9,1.6,2,3,3.2,4.3c1.2,1.3,2.6,2.4,4,3.4c1.5,1,3,1.7,4.6,2.3c1.6,0.6,3.3,1,5,1.2l-0.9-0.2c4.4,1.1,8.8,2.2,13.3,3.2l6.7,1.6
				c2.2,0.5,4.4,1.1,6.7,1.5l13.4,3l6.7,1.5l6.7,1.4l0.2-0.5l0,0L91.2,224.2z"/>
			<g>
				<path class="st2" d="M142.5,242.3L142.5,242.3l-0.2,0.5l-6.7-1.4L129,240l-13.4-3c-2.2-0.5-4.4-1-6.7-1.5l-6.7-1.6
					c-4.4-1-8.9-2.1-13.3-3.2l0.9,0.2c-1.7-0.2-3.3-0.6-5-1.2c-1.6-0.6-3.2-1.4-4.6-2.3c-1.5-0.9-2.8-2.1-4-3.4
					c-1.2-1.3-2.3-2.7-3.2-4.3c-0.9-1.5-1.6-3.2-2.2-4.9c-0.5-1.7-0.8-3.5-1-5.4l-0.6-7.4c-0.4-4.8-0.7-10.4-1.1-13.1l-0.3-3.2
					c-0.2-2.6-2.4-4.5-5-4.5H21.2c-3.3,0-5.9,2.7-5.9,5.9l-7,84.1c0,3.3,2.7,5.9,5.9,5.9h64.2h70.2c4.2,0,7.6-3.4,7.6-7.6v-8.2
					C156.2,252.8,150.7,245.2,142.5,242.3z"/>
				<path class="st3" d="M156.2,271.7l-0.9,1c-2.6,2.8-6.3,4.4-10.1,4.4H17.4c-3.8,0-7.3-2.1-9.2-5.4h-1v19.2l1.1,0.2
					c1.9,3.3,5.3,5.3,9.1,5.3h127.1c4.3,0,8.4-2,11-5.4l0.7-1V271.7z"/>
			</g>
			<g>
				<path class="st3" d="M132.6,250.8c-0.3,0-0.5-0.1-0.8-0.2c-1-0.4-1.5-1.6-1.1-2.6l3.7-9.7c0.4-1,1.6-1.5,2.6-1.1
					c1,0.4,1.5,1.6,1.1,2.6l-3.7,9.7C134.1,250.3,133.3,250.8,132.6,250.8z"/>
			</g>
			<g>
				<path class="st3" d="M122.6,246.8c-0.3,0-0.5-0.1-0.8-0.2c-1-0.4-1.5-1.6-1.1-2.6l4.7-9.7c0.4-1,1.6-1.5,2.6-1.1
					c1,0.4,1.5,1.6,1.1,2.6l-4.7,9.7C124.1,246.3,123.3,246.8,122.6,246.8z"/>
			</g>
			<g>
				<path class="st3" d="M113.1,243.8c-0.3,0-0.5-0.1-0.8-0.2c-1-0.4-1.5-1.6-1.1-2.6l4.7-9.7c0.4-1,1.6-1.5,2.6-1.1
					c1,0.4,1.5,1.6,1.1,2.6l-4.7,9.7C114.6,243.3,113.8,243.8,113.1,243.8z"/>
			</g>
			<g>
				<path class="st3" d="M101.6,239.8c-0.3,0-0.5-0.1-0.8-0.2c-1-0.4-1.5-1.6-1.1-2.6l4.7-9.7c0.4-1,1.6-1.5,2.6-1.1
					c1,0.4,1.5,1.6,1.1,2.6l-4.7,9.7C103.1,239.3,102.3,239.8,101.6,239.8z"/>
			</g>
			<g>
				<path class="st3" d="M91.1,236.8c-0.3,0-0.5-0.1-0.8-0.2c-1-0.4-1.5-1.6-1.1-2.6l4.7-9.7c0.4-1,1.6-1.5,2.6-1.1
					c1,0.4,1.5,1.6,1.1,2.6l-4.7,9.7C92.6,236.3,91.8,236.8,91.1,236.8z"/>
			</g>
		</g>
		<g>
			<path class="st3" d="M79.6,231.8c-0.3,0-0.5-0.1-0.8-0.2c-1-0.4-1.5-1.6-1.1-2.6l4.7-9.7c0.4-1,1.6-1.5,2.6-1.1
				c1,0.4,1.5,1.6,1.1,2.6l-4.7,9.7C81.1,231.3,80.3,231.8,79.6,231.8z"/>
		</g>
	</g>
</g>
</svg>
