<!-- Generator: Adobe Illustrator 19.1.0, SVG Export Plug-In  -->
<svg version="1.1"
	 xmlns="http://www.w3.org/2000/svg" xmlns:xlink="http://www.w3.org/1999/xlink" xmlns:a="http://ns.adobe.com/AdobeSVGViewerExtensions/3.0/"
	 x="0px" y="0px" width="156px" height="293.8px" viewBox="0 0 156 293.8" style="enable-background:new 0 0 156 293.8;"
	 xml:space="preserve">
<style type="text/css">
	.st0{fill:#D19F7D;}
	.st1{clip-path:url(#SVGID_2_);}
	.st2{fill:#ED1C24;}
	.st3{fill:#39B54A;}
	.st4{fill:#CCCCCC;}
	.st5{clip-path:url(#SVGID_4_);}
</style>
<defs>
</defs>
<g>
	<path class="st0" d="M67.4,196.3l-42,0L0,61.2C-0.2,44.4,12,0,44.4,0l0,0C66.2,0,85,18,83,41.6L67.4,196.3z"/>
	<g>
		<defs>
			<path id="SVGID_1_" d="M46,243.1L46,243.1c-21,0-38-17-38-38v-26.8h76v26.8C84,226.1,67,243.1,46,243.1z"/>
		</defs>
		<clipPath id="SVGID_2_">
			<use xlink:href="#SVGID_1_"  style="overflow:visible;"/>
		</clipPath>
		<g class="st1">
			<path class="st2" d="M142.3,239.9L142.3,239.9l-0.2,0.5l-6.7-1.4l-6.7-1.5l-13.4-3c-2.2-0.5-4.4-1-6.7-1.5l-6.7-1.6
				c-4.4-1-8.9-2.1-13.3-3.2l0.9,0.2c-1.7-0.2-3.3-0.6-5-1.2c-1.6-0.6-3.2-1.4-4.6-2.3c-1.5-0.9-2.8-2.1-4-3.4
				c-1.2-1.3-2.3-2.7-3.2-4.3c-0.9-1.5-1.6-3.2-2.2-4.9c-0.5-1.7-0.8-3.5-1-5.4l-0.6-7.4c-0.4-4.8-0.7-10.4-1.1-13.1l-0.3-3.2
				c-0.2-2.6-2.4-4.5-5-4.5H21c-3.3,0-5.9,2.7-5.9,5.9l-7,84.1c0,3.3,2.7,5.9,5.9,5.9h64.2h70.2c4.2,0,7.6-3.4,7.6-7.6v-8.2
				C156,250.4,150.5,242.7,142.3,239.9z"/>
			<path class="st3" d="M91,221.8L91,221.8L91,221.8c-1.2-0.3-2.3-0.6-3.4-1.1c-1.1-0.5-2.1-1.1-3-1.8c-0.9-0.7-1.8-1.5-2.5-2.4
				c-0.7-0.9-1.4-1.9-1.9-2.9c-0.5-1-0.9-2.1-1.2-3.3c-0.3-1.1-0.4-2.3-0.4-3.4l0-7.2l0-14.5c0-1.2-0.1-2.6-0.7-3.8
				c-0.6-1.2-1.8-2.2-3.1-2.6c-1.2-0.5-2.5-0.7-3.8-0.7c-0.6-0.1-1.2,0-1.9,0c-0.3,0-0.6,0-0.9,0.1l-0.5,0c-0.2,0-0.3,0-0.4,0.2
				l0,0.5l0.7,7.7c0.4,2.7,0.7,8.3,1.1,13.1l0.6,7.4c0.1,1.8,0.4,3.6,1,5.4c0.5,1.7-8.8,3.4-7.8,4.9c0.9,1.6,2,23,3.2,24.3
				c1.2,1.3,2.6,2.4,4,3.4c1.5,1,13-18.3,14.6-17.7c1.6,0.6,3.3,1,5,1.2l-0.9-0.2c4.4,1.1,8.8,2.2,13.3,3.2l6.7,1.6
				c2.2,0.5,4.4,1.1,6.7,1.5l13.4,3l6.7,1.5l6.7,1.4l0.2-0.5l0,0L91,221.8z"/>
			<path class="st4" d="M156,269.2l-0.9,1c-2.6,2.8-6.3,4.4-10.1,4.4H17.2c-3.8,0-7.3-2.1-9.2-5.4H7v19.2l1.1,0.2
				c1.9,3.3,5.3,5.3,9.1,5.3h127.1c4.3,0,8.4-2,11-5.4l0.7-1V269.2z"/>
			<g>
				<path class="st4" d="M132.3,248.3c-0.3,0-0.5-0.1-0.8-0.2c-1-0.4-1.5-1.6-1.1-2.6l3.7-9.7c0.4-1,1.6-1.5,2.6-1.1
					c1,0.4,1.5,1.6,1.1,2.6l-3.7,9.7C133.9,247.9,133.1,248.3,132.3,248.3z"/>
			</g>
			<g>
				<path class="st4" d="M122.3,244.3c-0.3,0-0.5-0.1-0.8-0.2c-1-0.4-1.5-1.6-1.1-2.6l4.7-9.7c0.4-1,1.6-1.5,2.6-1.1
					c1,0.4,1.5,1.6,1.1,2.6l-4.7,9.7C123.9,243.9,123.1,244.3,122.3,244.3z"/>
			</g>
			<g>
				<path class="st4" d="M112.8,241.3c-0.3,0-0.5-0.1-0.8-0.2c-1-0.4-1.5-1.6-1.1-2.6l4.7-9.7c0.4-1,1.6-1.5,2.6-1.1
					c1,0.4,1.5,1.6,1.1,2.6l-4.7,9.7C114.4,240.9,113.6,241.3,112.8,241.3z"/>
			</g>
			<g>
				<path class="st4" d="M101.3,237.3c-0.3,0-0.5-0.1-0.8-0.2c-1-0.4-1.5-1.6-1.1-2.6l4.7-9.7c0.4-1,1.6-1.5,2.6-1.1
					c1,0.4,1.5,1.6,1.1,2.6l-4.7,9.7C102.9,236.9,102.1,237.3,101.3,237.3z"/>
			</g>
			<g>
				<path class="st4" d="M90.8,234.3c-0.3,0-0.5-0.1-0.8-0.2c-1-0.4-1.5-1.6-1.1-2.6l4.7-9.7c0.4-1,1.6-1.5,2.6-1.1
					c1,0.4,1.5,1.6,1.1,2.6l-4.7,9.7C92.4,233.9,91.6,234.3,90.8,234.3z"/>
			</g>
		</g>
	</g>
</g>
</svg>
