<!-- Generator: Adobe Illustrator 19.1.0, SVG Export Plug-In  -->
<svg version="1.1"
	 xmlns="http://www.w3.org/2000/svg" xmlns:xlink="http://www.w3.org/1999/xlink" xmlns:a="http://ns.adobe.com/AdobeSVGViewerExtensions/3.0/"
	 x="0px" y="0px" width="146px" height="284px" viewBox="0 0 146 284" style="enable-background:new 0 0 146 284;"
	 xml:space="preserve">
<style type="text/css">
	.st0{fill:#BE9173;}
	.st1{fill:#D19F7D;}
	.st2{fill:#21409A;}
	.st3{fill:#99247D;}
	.st4{fill:#FFFFFF;stroke:#99247D;stroke-width:1.1116;stroke-miterlimit:10;}
</style>
<defs>
</defs>
<path class="st0" d="M141.4,75.9H52.5l0-62.8l80.8,2.3c4.5,0.1,8.1,3.1,8.1,6.6V75.9z"/>
<polygon class="st1" points="52.3,232.9 125.7,232.9 127.6,236.4 134.5,225.8 137.4,221.9 137.4,180.5 52.3,180.5 "/>
<polygon class="st1" points="43.5,180.5 137.4,180.5 141.4,75.9 43.5,75.9 "/>
<path class="st1" d="M132,21.9c0-3.6-3.6-6.5-8.1-6.6L60,13.5v-1.5l-23.8-0.7C22.5,23.1,13.6,39.6,11.1,57.5L3.7,111H60V76h72V21.9z
	"/>
<g>
	<g>
		<path class="st2" d="M135.2,73.1c-18.3-2-30-43-33.2-61.1L40.2,0l-3.9,11.3c86,14.7,50.9,100.7,11.1,95.8l0,0.6
			c-1.8,0.2-3.4,0.3-5.1,0.3c-14.7,0-27.8-7.4-36-18.9L0,137.6L6,284h46.4H54h37.8h18.3H146l-4.6-210.6
			C140.4,73.4,136.9,73.2,135.2,73.1z"/>
		<path class="st2" d="M36.5,12.4l-0.1-1l-0.7,1.2C35.9,12.5,36.2,12.4,36.5,12.4z"/>
	</g>
	<path class="st3" d="M110.2,284C103.6,221.2,83,166.6,55,129.7v-0.1c0,0,0,0,0,0c0,0,0,0,0,0v0.1C26,166.6,12.7,221,6,284h18.3
		c5.4-44.5,11.8-83.9,30.2-113.9c18.5,30,31.8,69.5,37.2,113.9H110.2z"/>
</g>
<g>
	<g>
		<path class="st4" d="M71.1,103.7c3-1,6.1-1.9,9.2-2.7c5.9-1.6,10.1-2.3,12.3-2.3c2.2,0,4,0.4,5.3,1.2c1.3,0.8,2.2,1.8,2.7,3
			c0.5,1.2,1.1,3.7,1.8,7.3c0.8,4.5,1.7,9.1,2.5,13.6c0.6,3.5,0.9,5.9,0.8,7.1c-0.1,1.2-0.5,2.3-1.3,3.1c-0.7,0.8-1.6,1.5-2.8,2
			c-1.2,0.5-3,1.1-5.4,1.7c-4.3,1.1-8.6,2.3-12.8,3.6C79.1,128.8,75.1,116.2,71.1,103.7z M85,106.6c2.2,8.4,4.4,16.8,6.6,25.2
			c1.5-0.4,2.4-0.9,2.6-1.6c0.2-0.7,0-2.3-0.6-4.8c-1.2-5-2.4-10-3.6-14.9c-0.4-1.7-0.8-2.8-1-3.3c-0.2-0.5-0.6-0.7-1.2-0.9
			C87.3,106.2,86.4,106.3,85,106.6z"/>
		<path class="st4" d="M134.1,92.9c2.8,13.1,5.1,26.3,7.1,39.5c-3.6,0-7.1,0.1-10.7,0.3c-0.3-2.4-0.6-4.7-1-7.1
			c-1.3,0.1-2.6,0.2-3.9,0.3c0,2.4-0.1,4.8-0.1,7.1c-3.6,0.3-7.2,0.7-10.7,1.2c0-13.3,0.3-26.6,1-40C121.9,93.5,128,93.1,134.1,92.9
			z M128.9,118.6c-0.8-4.4-1.7-9.9-2.8-16.5c-0.7,7.6-1,13.2-1.1,16.7C126.3,118.7,127.6,118.6,128.9,118.6z"/>
	</g>
</g>
</svg>
