<!-- Generator: Adobe Illustrator 19.1.0, SVG Export Plug-In  -->
<svg version="1.1"
	 xmlns="http://www.w3.org/2000/svg" xmlns:xlink="http://www.w3.org/1999/xlink" xmlns:a="http://ns.adobe.com/AdobeSVGViewerExtensions/3.0/"
	 x="0px" y="0px" width="109.5px" height="209.2px" viewBox="0 0 109.5 209.2" style="enable-background:new 0 0 109.5 209.2;"
	 xml:space="preserve">
<style type="text/css">
	.st0{fill:url(#SVGID_1_);}
	.st1{fill:#3A2D22;}
	.st2{fill:#594533;}
	.st3{fill:#211A13;}
	.st4{fill:#674F3C;}
	.st5{fill:url(#SVGID_2_);}
</style>
<defs>
</defs>
<linearGradient id="SVGID_1_" gradientUnits="userSpaceOnUse" x1="48.4544" y1="209.19" x2="48.4544" y2="93.4409">
	<stop  offset="0" style="stop-color:#594533"/>
	<stop  offset="0.1908" style="stop-color:#564330"/>
	<stop  offset="0.4591" style="stop-color:#4D3C2A"/>
	<stop  offset="0.7718" style="stop-color:#3F2F1F"/>
	<stop  offset="1" style="stop-color:#312312"/>
</linearGradient>
<path class="st0" d="M96.9,209.2L0,205.6l0,0c6.1-22.2,10.8-45,14.1-68.1l6.2-44.1H68l-2.1,57.6c-0.5,13.8,2.5,24,8.5,35.6
	L96.9,209.2z"/>
<g>
	<path class="st1" d="M26.7,76.4H34l11.7-24H0.7c-0.3,2-0.4,4.2-0.4,6.3c0,16.3,7.8,30.8,19.9,39.7l6.4-4.9V76.4z"/>
	<path class="st2" d="M109.4,150L96.8,83.4l-0.1,0c1.3-6.4,1.9-14.5,1.9-24.6c0-27.1-8.5-49.3-49.1-49.3C24.4,9.5,3.8,28.4,0.7,52.4
		h44.9L34,76.4h-8l1,16.9l-6.5,5.1c1.8,1.4,3.8,2.6,5.8,3.7l-1.8,24.8c-1.7,6.3,2.1,12.9,8.5,14.4l68.2,15.7
		C105.6,158.2,109.8,154.6,109.4,150z"/>
	<path class="st3" d="M45.7,51.4l4.5-9.9l45.4-6c0,0-1-35.5-40.4-35.5S0.8,22.4,0.8,51.4H45.7z"/>
	<path class="st4" d="M26.7,70.6c0-6.9-5.1-11.5-11.5-11.5S3.7,63.7,3.7,70.7v2.9c0,11,12,19.9,23,19.9V70.6z"/>
</g>
</svg>
