<!-- Generator: Adobe Illustrator 19.1.0, SVG Export Plug-In  -->
<svg version="1.1"
	 xmlns="http://www.w3.org/2000/svg" xmlns:xlink="http://www.w3.org/1999/xlink" xmlns:a="http://ns.adobe.com/AdobeSVGViewerExtensions/3.0/"
	 x="0px" y="0px" width="63.7px" height="346.4px" viewBox="0 0 63.7 346.4" style="enable-background:new 0 0 63.7 346.4;"
	 xml:space="preserve">
<style type="text/css">
	.st0{fill:#382823;}
</style>
<defs>
</defs>
<g>
	<path class="st0" d="M54.7,102.9c0,56-6.7,102.9-21.7,102.9c-18.3,0-33-46.9-33-102.9c0-30,4.9-56.4,3.8-80.8
		C2.3-11.3,23.5,3.1,33,3.1c10.6,0,22.7,7.4,22.7,30.9C55.7,52.4,54.7,76.1,54.7,102.9z"/>
	<path class="st0" d="M4.2,259.1l8.7-53.2h37l12.6,59.4c0.9,4.1,1.3,8.3,1.3,12.6v8.5l-1.6,15.2c-0.3,2.5-2.1,4.6-4.3,4.6H54
		c-2.5,0-4.5-2.5-4.5-5.4l0.4-20.6l0,0c-0.1-1.6-2.2-1.6-2.3,0l-4.9,54.4c-0.1,1.6-0.8,3.2-1.9,4.2l-5.7,5.6
		c-2.4,2.3-5.8,2.8-8.5,1.1l-10.6-6.5c-1.8-1.1-3.1-3.2-3.5-5.5l-8-49.5C2.9,275.7,2.9,267.3,4.2,259.1z"/>
	<path class="st0" d="M52.6,152.2H4.1l4.8,20.4c2.6,10.8,3.9,22,4,33.3v0l36.6,0v0c-1-11-0.8-22.1,0.5-33L52.6,152.2z"/>
</g>
</svg>
