<svg id="Layer_1" data-name="Layer 1" xmlns="http://www.w3.org/2000/svg" xmlns:xlink="http://www.w3.org/1999/xlink" viewBox="0 0 332.18 1227.88"><defs><style>.cls-1{fill:url(#linear-gradient);}.cls-2{fill:#594533;}.cls-3{fill:#c49a6c;}.cls-4{fill:#f1f2f2;}.cls-5{fill:none;}.cls-6{fill:#ed1c24;}.cls-7{fill:#39b54a;}.cls-8{fill:#010101;opacity:0.95;isolation:isolate;}.cls-14,.cls-9{fill:#fff;}.cls-10{fill:#21409a;}.cls-11{fill:#99247d;}.cls-12{fill:#3a2d22;}.cls-13{fill:#211a13;}.cls-14{stroke:#99247d;stroke-miterlimit:10;stroke-width:1.11px;}</style><linearGradient id="linear-gradient" x1="165.24" y1="220.33" x2="165.24" y2="160.33" gradientUnits="userSpaceOnUse"><stop offset="0" stop-color="#594533"/><stop offset="0.38" stop-color="#52402e"/><stop offset="0.92" stop-color="#403120"/><stop offset="1" stop-color="#3d2e1e"/></linearGradient></defs><title>basketball</title><path class="cls-1" d="M250.3,206.63a154.59,154.59,0,0,1-23.86-12.24L192.56,180l-1.82-19.67h-50L139,179.65,104,194.4a154.2,154.2,0,0,1-23.86,12.17L50.24,220.33h230Z"/><polygon class="cls-2" points="242.24 474.04 89.24 474.04 69.24 260.22 262.24 260.22 242.24 474.04"/><path class="cls-2" d="M331.27,356.49a242.68,242.68,0,0,0-11.76-54.57c8-29.28,1.22-63.73-19.43-82.06-0.43-.4-0.88-0.8-1.33-1.18h0c-13.75-11.41-32.39-6.92-41.64,10s-5.6,40,8.14,51.38l0.81,0.68c-4,22.66-.8,55.67,1.82,84.23,1.73,18.83,11.89,49.95,22,71.08-4.87,20.25-8.16,46.56-11.13,69.85-2.14,16.74-1.68,44.79.38,67.12a79.29,79.29,0,0,1-.92,12.79,30.67,30.67,0,0,1-3.07,8.7l-5.86,41.08-0.11,0-1,7.76-0.39,2.71h0l-2.35,18.33h0l0.63,22.27c0.12,4.19,2.56,7.54,5.6,7.67l3.43,0.15c3.19,0.14,5.87-3.32,6-7.73l0.43-18.42h0l3.18-17,6.64,2h0l-0.33,35h0l-0.51,23h0L290,726.44c-0.14,4.57,2.42,8.51,5.73,8.71l4.89,0.33c1.38,0.08,2.57-1.24,2.74-3.13l1.83-20h0l2.05-23h0l2-29.67v-0.4l-3.66-64.7s0.84-6.85,1.63-11.17,4-17.55,4-17.55h0a333.47,333.47,0,0,0,10.8-51.32,354.22,354.22,0,0,0,1.18-75.9C330.55,418.68,333.95,386.78,331.27,356.49Z"/><path class="cls-2" d="M75.07,228.73c-9.25-17-27.89-21.46-41.64-10h0c-0.46.38-.9,0.77-1.33,1.18C11.46,238.2,4.64,272.64,12.67,301.92A242.68,242.68,0,0,0,.91,356.49c-2.68,30.29.72,62.18,8,82.12a354.22,354.22,0,0,0,1.18,75.9,333.46,333.46,0,0,0,10.8,51.32h0s3.18,13.23,4,17.55,1.63,11.17,1.63,11.17l-3.66,64.69h0v0.41l2,29.67h0l2.05,23h0l1.84,20c0.17,1.89,1.36,3.25,2.74,3.17l4.89-.31c3.31-.2,5.88-4.22,5.73-8.79l-0.47-15.11h0l-0.51-23h0l-0.33-35h0l6.44-2,3,16.93v0l0.63,18.44c0.1,4.41,2.88,7.88,6.07,7.74l3.48-.15c3-.13,5.5-3.48,5.62-7.67l0.65-22.27h0l-2.35-18.33h0L64,643.37l-1-7.76-0.11,0L57,594.55a30.67,30.67,0,0,1-3.07-8.7A79.32,79.32,0,0,1,53,573.07h0c2.06-22.32,2.52-50.37.38-67.11-3-23.3-6.25-49.6-11.13-69.85C52.41,415,62.57,383.85,64.29,365c2.62-28.56,5.81-61.57,1.82-84.23l0.81-.68C80.67,268.7,84.32,245.7,75.07,228.73Z"/><path class="cls-2" d="M239.21,309.51H92.27c-7.66,0-14.34-6.43-16.19-15.6L64.43,236.53c-2.64-13,5.33-25.6,16.19-25.6l81.69,1.56a5.07,5.07,0,0,1,3.25,1.32h0a5.07,5.07,0,0,1,3.25-1.31l82-1.56c10.86,0,18.83,12.6,16.19,25.6L255.4,293.91C253.54,303.08,246.87,309.51,239.21,309.51Z"/><polygon class="cls-3" points="242.24 473.33 165.74 473.33 89.24 473.33 86.24 542.03 165.74 555.78 245.24 541.94 242.24 473.33"/><path class="cls-2" d="M123.24,525.74h0c-21.49-1.1-39.56,19.66-40.21,46.19L81.22,850.1,76,891.86a384.48,384.48,0,0,0-3,48l12.83,189,36,1.85,18.57-200.48q0.55-10.85.43-21.72l-0.65-55.37L160.15,577C161.8,550.08,145.07,526.86,123.24,525.74Z"/><path class="cls-2" d="M255.93,891.45l-5.47-41.72-3.38-278.15c-0.8-26.52-19-47.12-40.47-45.84h0C184.79,527,168.19,550.41,170,577.28l21.51,276-0.33,55.38q-0.07,10.87.55,21.72l19.71,200.32,36-2.16,11.75-189.14A384.23,384.23,0,0,0,255.93,891.45Z"/><rect class="cls-4" x="50.09" y="1209.13" width="104.84" height="18.76"/><polygon class="cls-5" points="118.74 1146.27 118.83 1146.42 118.75 1146.2 118.74 1146.27"/><polygon class="cls-5" points="86.2 1146.42 86.29 1146.27 86.27 1146.2 86.2 1146.42"/><path class="cls-6" d="M118.75,1146.2l5.39-23.86s0-.1,0-0.15l-5.43,24Z"/><path class="cls-6" d="M129.83,1150.33l-10.77-3.5h0l10.77,18.71,10.53-34.6a10.45,10.45,0,0,0,.35-5.23l-1.22-6.5c-0.65-3.46-1.45-5.88-4.08-5.88h-5c-2.52,0-4.74,2.23-5.49,5.51l-0.76,3.35s0,0.1,0,.14l-5.39,23.86-0.27.23-0.24.33v53.58h-32v-54h0l0.09-.15-4.41-19.46-1-4.42,0-.13-0.76-3.34c-0.74-3.28-3-5.5-5.49-5.5H71.83c-2.74,0-5.1,2.63-5.63,6.29l-0.92,6.29a10.42,10.42,0,0,0,.42,4.81l9.61,19.4-25.22,59s20.63,5.07,52.42,5.07,52.42-5.07,52.42-5.07Z"/><path class="cls-7" d="M119.25,1113.33H85.77c-3.41,0-5.74,4.43-4.81,8.86l5.33,24-0.09.14h0.3l-10.14,53.2s12.77,9.62,26.16,9.62,26.56-9.61,26.56-9.61l-10.14-53.2h-0.16l0-.15,5.43-24C125.1,1117.78,122.66,1113.33,119.25,1113.33Z"/><path id="path2987" class="cls-8" d="M93.35,1132.47s1.45-5.07,1.49-5.13a16,16,0,0,1,2,0s-0.21.81-.48,1.76-0.5,1.75-.49,1.77a1.41,1.41,0,0,0,.69,0c0-.06,1.24-4.21,1.22-4.24s-0.58,0-1.34,0-1.33,0-1.34,0,0.27-1,.62-2.19l0.64-2.17h2.35c1.29,0,2.36,0,2.37,0s-0.37,1.37-.85,3l-1.48,5.07c-0.33,1.14-.62,2.1-0.63,2.13a9.53,9.53,0,0,1-2.37.06c-1.29,0-2.35,0-2.36,0h0Zm4.89-7.5a10.77,10.77,0,0,0,.33-1.14s0-.05-0.34-0.05a0.75,0.75,0,0,0-.37,0,11,11,0,0,0-.33,1.14s0,0.05.34,0.05a0.76,0.76,0,0,0,.37,0h0Zm2.07,1.6s0.27-1,.62-2.2l0.64-2.17h1a9.19,9.19,0,0,1,1,0,13.67,13.67,0,0,1-.36,1.36c-0.21.73-.39,1.35-0.39,1.38s0,0.05.36,0h0.36l0.4-1.36c0.22-.75.42-1.38,0.43-1.4a14.43,14.43,0,0,1,1.94,0s-0.27,1-.62,2.2l-0.64,2.17h-2.35c-1.29,0-2.36,0-2.37,0h0Zm5.18,0s0.27-1,.62-2.19l0.64-2.17h2.34c1.29,0,2.36,0,2.37,0s-0.26,1-.62,2.2l-0.64,2.17h-1a9.19,9.19,0,0,1-1,0,13.67,13.67,0,0,1,.36-1.36c0.21-.73.39-1.35,0.39-1.38s0-.05-0.36,0h-0.36l-0.4,1.36c-0.22.75-.42,1.38-0.43,1.4a14.43,14.43,0,0,1-1.94,0h0Zm5.86-1.44c-0.14-.11-0.14-0.23,0-0.73a1.31,1.31,0,0,1,.21-0.54,0.3,0.3,0,0,1,.5.15,2.86,2.86,0,0,1-.31,1.1,0.29,0.29,0,0,1-.4,0h0Z"/><path id="path2989-1" class="cls-8" d="M101.08,1127.07a0.8,0.8,0,0,0-.69.23,1.25,1.25,0,0,0-.25,1.17,1.28,1.28,0,0,0,.79.63,1,1,0,0,1,.19-1.53h0.41c0.91,0,.85-0.08.87,0.55h0c0-.89,0-1-0.8-1h-0.52Zm1.57,1.78c-0.09.58-.45,0.65-1.13,0.64H99.47l-0.19.64h2.11a1.36,1.36,0,0,0,1.26-1.29h0Z"/><rect class="cls-9" x="82.27" y="1146.42" width="40.89" height="3.39" rx="1.7" ry="1.7"/><rect class="cls-9" x="80.62" y="1156.56" width="44.19" height="3.39" rx="1.7" ry="1.7"/><rect class="cls-9" x="78.6" y="1166.7" width="48.22" height="3.39" rx="1.7" ry="1.7"/><rect class="cls-9" x="76.62" y="1176.84" width="52.18" height="3.39" rx="1.7" ry="1.7"/><rect class="cls-9" x="74.7" y="1186.98" width="56.03" height="3.39" rx="1.7" ry="1.7"/><rect class="cls-9" x="72.76" y="1197.12" width="59.91" height="3.39" rx="1.7" ry="1.7"/><polygon class="cls-5" points="190.29 1146.27 190.2 1146.42 190.27 1146.2 190.29 1146.27"/><rect class="cls-4" x="179.09" y="1209.13" width="104.84" height="18.76"/><polygon class="cls-5" points="247.83 1146.42 247.74 1146.27 247.75 1146.2 247.83 1146.42"/><path class="cls-6" d="M204.19,1150.33l10.77-3.5h0l-10.77,18.71-10.53-34.6a10.45,10.45,0,0,1-.35-5.23l1.22-6.5c0.65-3.46,1.45-5.88,4.08-5.88h5c2.52,0,4.74,2.23,5.49,5.51l0.76,3.35s0,0.1,0,.14l5.39,23.86,0.5,0.23,0.47,0.33v53.58h32v-54h-0.41l-0.09-.15,4.41-19.46,1-4.42,0-.13,0.76-3.34c0.74-3.28,3-5.5,5.49-5.5h2.78c2.74,0,5.1,2.63,5.63,6.29l0.92,6.29a10.42,10.42,0,0,1-.42,4.81l-9.61,19.4,25.22,59s-20.63,5.07-52.42,5.07-52.42-5.07-52.42-5.07Z"/><path class="cls-7" d="M214.77,1113.33h33.48c3.41,0,5.74,4.43,4.81,8.86l-5.33,24,0.09,0.14h-0.3l10.14,53.2s-12.77,9.62-26.16,9.62-26.56-9.61-26.56-9.61l10.14-53.2h0.16l0-.15-5.43-24C208.93,1117.78,211.37,1113.33,214.77,1113.33Z"/><path id="path2987-2" data-name="path2987" class="cls-8" d="M221.95,1132.47s1.45-5.07,1.49-5.13a16,16,0,0,1,2,0s-0.21.81-.48,1.76-0.5,1.75-.49,1.77a1.41,1.41,0,0,0,.69,0c0-.06,1.24-4.21,1.22-4.24s-0.58,0-1.34,0-1.33,0-1.34,0,0.27-1,.62-2.19l0.64-2.17h2.35c1.29,0,2.36,0,2.37,0s-0.37,1.37-.85,3l-1.48,5.07c-0.33,1.14-.62,2.1-0.63,2.13a9.53,9.53,0,0,1-2.37.06c-1.29,0-2.35,0-2.36,0h0Zm4.89-7.5a10.77,10.77,0,0,0,.33-1.14s0-.05-0.34-0.05a0.75,0.75,0,0,0-.37,0,11,11,0,0,0-.33,1.14s0,0.05.34,0.05a0.76,0.76,0,0,0,.37,0h0Zm2.07,1.6s0.27-1,.62-2.2l0.64-2.17h1a9.19,9.19,0,0,1,1,0,13.67,13.67,0,0,1-.36,1.36c-0.21.73-.39,1.35-0.39,1.38s0,0.05.36,0h0.36l0.4-1.36c0.22-.75.42-1.38,0.43-1.4a14.43,14.43,0,0,1,1.94,0s-0.27,1-.62,2.2l-0.64,2.17h-2.35c-1.29,0-2.36,0-2.37,0h0Zm5.18,0s0.27-1,.62-2.19l0.64-2.17h2.34c1.29,0,2.36,0,2.37,0s-0.26,1-.62,2.2l-0.64,2.17h-1a9.19,9.19,0,0,1-1,0,13.67,13.67,0,0,1,.36-1.36c0.21-.73.39-1.35,0.39-1.38s0-.05-0.36,0h-0.36l-0.4,1.36c-0.22.75-.42,1.38-0.43,1.4a14.43,14.43,0,0,1-1.94,0h0Zm5.86-1.44c-0.14-.11-0.14-0.23,0-0.73a1.31,1.31,0,0,1,.21-0.54,0.3,0.3,0,0,1,.5.15,2.86,2.86,0,0,1-.31,1.1,0.29,0.29,0,0,1-.4,0h0Z"/><path id="path2989-1-2" data-name="path2989-1" class="cls-8" d="M229.67,1127.07a0.8,0.8,0,0,0-.69.23,1.25,1.25,0,0,0-.25,1.17,1.28,1.28,0,0,0,.79.63,1,1,0,0,1,.19-1.53h0.41c0.91,0,.85-0.08.87,0.55h0c0-.89,0-1-0.8-1h-0.52Zm1.57,1.78c-0.09.58-.45,0.65-1.13,0.64h-2.05l-0.19.64H230a1.36,1.36,0,0,0,1.26-1.29h0Z"/><rect class="cls-9" x="210.87" y="1146.42" width="40.89" height="3.39" rx="1.7" ry="1.7" transform="translate(462.62 2296.24) rotate(-180)"/><rect class="cls-9" x="209.22" y="1156.56" width="44.19" height="3.39" rx="1.7" ry="1.7" transform="translate(462.62 2316.52) rotate(-180)"/><rect class="cls-9" x="207.2" y="1166.7" width="48.22" height="3.39" rx="1.7" ry="1.7" transform="translate(462.62 2336.8) rotate(-180)"/><rect class="cls-9" x="205.22" y="1176.84" width="52.18" height="3.39" rx="1.7" ry="1.7" transform="translate(462.62 2357.07) rotate(-180)"/><rect class="cls-9" x="203.29" y="1186.98" width="56.03" height="3.39" rx="1.7" ry="1.7" transform="translate(462.62 2377.35) rotate(180)"/><rect class="cls-9" x="201.35" y="1197.12" width="59.91" height="3.39" rx="1.7" ry="1.7" transform="translate(462.62 2397.63) rotate(-180)"/><polygon class="cls-10" points="246.24 485.33 229.24 485.33 84.57 485.33 63.24 786.33 161.57 786.33 165.24 623.79 169.24 786.33 267.57 786.33 246.24 485.33"/><polygon class="cls-11" points="246.41 485.33 267.57 786.33 257.24 786.33 237.24 485.33 246.41 485.33"/><polygon class="cls-11" points="84.41 485.33 63.24 786.33 73.57 786.33 93.57 485.33 84.41 485.33"/><path class="cls-10" d="M258.32,301.34c-9.9-31.79-10.31-62.47-1.18-94.45l-41.05-18.56H212.9l-7,45.41c-3.23,18.1-17.41,32.8-35.69,34.81a45.8,45.8,0,0,1-10-.16c-18.28-2-32.47-16.46-35.69-34.57l-7-45.49h-3.19L73.33,206.67a164.11,164.11,0,0,1-1.18,95.75l-2.52,7.34,4.07,34.71L73.32,372l-0.55,39.5-1.6,151.84H256.3l0.47-219.24,4.07-34.23Z"/><path class="cls-11" d="M72.77,411.5c18.85,30.11,32.36,107,37.81,151.84h18.34c-6.63-62.8-27-154.45-55.6-191.34Z"/><path class="cls-11" d="M256.92,411.5c-18.85,30.11-32.36,106.84-37.81,151.84H200.77c6.63-63,27-154.45,55.6-191.34Z"/><path class="cls-2" d="M228.24,74.29V71.64A7.51,7.51,0,0,0,220.76,64a7.4,7.4,0,0,0-7,4.93l-0.49-5a48,48,0,1,0-96.07,0l-0.49,5a7.4,7.4,0,0,0-7-4.93,7.51,7.51,0,0,0-7.48,7.68v2.65c0,6.86,5,22,11.65,23.37l-4,41.13a7.89,7.89,0,0,0,4.37,7.85l25.5,12.7a8.09,8.09,0,0,0,3.48,1H187a8.09,8.09,0,0,0,3.46-1l25.73-12.63a8,8,0,0,0,4.39-7.9l-4-41.14C223.29,96.32,228.24,81.16,228.24,74.29Z"/><path class="cls-12" d="M118,56.33H129.8a125.22,125.22,0,0,1-4.63,12.54,65.33,65.33,0,0,0-3.84,11.46h-5.71l1.09-11.5,0.49-5s0.19-4.28.29-5.16A24.2,24.2,0,0,1,118,56.33Z"/><path class="cls-12" d="M212.49,56.33H200.68a125.22,125.22,0,0,0,4.63,12.54,65.33,65.33,0,0,1,3.84,11.46h5.71l-1.09-11.5-0.49-5s-0.19-4.28-.29-5.16A24.2,24.2,0,0,0,212.49,56.33Z"/><path class="cls-13" d="M118,56.24h0A42.69,42.69,0,0,1,143.13,9.72l7.32-3.16a42.69,42.69,0,0,1,30.11-1.41l2.95,1A42.69,42.69,0,0,1,212.93,49.2l-0.44,7.63H200.68l-2.06-6.23a5.92,5.92,0,0,0-4.48-3.95l-30.6-6-27.82,4.77a5.92,5.92,0,0,0-4.82,4.76l-1.09,5.89Z"/><path class="cls-14" d="M95.69,335.31q4.56-1.47,9.16-2.73c5.94-1.63,10.06-2.3,12.26-2.32a9.7,9.7,0,0,1,5.25,1.21,6.55,6.55,0,0,1,2.68,3,43.58,43.58,0,0,1,1.76,7.34l2.5,13.62a31.18,31.18,0,0,1,.77,7.1,5.44,5.44,0,0,1-1.25,3.1,7.88,7.88,0,0,1-2.81,2,34.48,34.48,0,0,1-5.41,1.65q-6.44,1.58-12.79,3.62Zm14,3,6.56,25.17c1.52-.4,2.39-0.91,2.6-1.58s0-2.28-.61-4.84l-3.61-14.93a17.36,17.36,0,0,0-1-3.3,1.67,1.67,0,0,0-1.17-.86A7,7,0,0,0,109.66,338.29Z"/><path class="cls-14" d="M158.68,324.49q4.19,19.66,7.12,39.45-5.34,0-10.67.27-0.47-3.53-1-7.07-1.94.11-3.87,0.26-0.05,3.57-.08,7.14-5.39.43-10.75,1.18-0.07-20,1-40Q149.54,324.76,158.68,324.49Zm-5.21,25.68q-1.24-6.66-2.82-16.46c-0.73,7.64-1,13.22-1,16.73Q151.54,350.28,153.47,350.17Z"/><path class="cls-14" d="M198,326.77l-1.14,7.83q-3.59-.52-7.2-0.93l-3.52,31.43q-5.2-.58-10.41-0.87l1.76-31.58q-3.6-.2-7.21-0.28,0.09-4,.18-7.91A227.31,227.31,0,0,1,198,326.77Z"/><path class="cls-14" d="M227.77,333.16q-1.93,20-5.09,39.77-5.14-1.65-10.35-3,0.62-3.51,1.21-7-1.89-.48-3.79-0.93-1.13,3.39-2.24,6.78-5.29-1.22-10.64-2.13,6-19,13-37.8Q218.9,330.62,227.77,333.16ZM215,356q0.82-6.72,2.28-16.55c-3,7.06-5,12.29-6.06,15.63Q213.1,355.56,215,356Z"/></svg>