<svg id="Layer_1" data-name="Layer 1" xmlns="http://www.w3.org/2000/svg" xmlns:xlink="http://www.w3.org/1999/xlink" viewBox="0 0 332.18 1347.55"><defs><style>.cls-1{fill:url(#linear-gradient);}.cls-2{fill:#c49a6c;}.cls-3{fill:#f1f2f2;}.cls-4{fill:none;}.cls-5{fill:#ed1c24;}.cls-6{fill:#39b54a;}.cls-7{fill:#010101;opacity:0.95;isolation:isolate;}.cls-12,.cls-8{fill:#fff;}.cls-9{fill:#21409a;}.cls-10{fill:#99247d;}.cls-11{fill:#303030;}.cls-12{stroke:#99247d;stroke-miterlimit:10;stroke-width:1.11px;}</style><linearGradient id="linear-gradient" x1="165.24" y1="210" x2="165.24" y2="144" gradientUnits="userSpaceOnUse"><stop offset="0" stop-color="#c49a6c"/><stop offset="0.38" stop-color="#bd9568"/><stop offset="0.92" stop-color="#ab875f"/><stop offset="1" stop-color="#a8855d"/></linearGradient></defs><title>basketball</title><path class="cls-1" d="M250.3,187.14c-8.2-3.84-16.17-1.53-23.86-7.07l-33.87-13.52L190.74,144h-50L139,166.09,104,179.93c-7.69,5.54-15.67,3.29-23.86,7.13L50.24,210h230Z"/><path class="cls-2" d="M331.27,356.75a310.34,310.34,0,0,0-11.76-62.21c8-33.38,1.22-72.65-19.43-93.55-0.43-.46-0.88-0.91-1.33-1.34h0c-13.75-13-32.39-7.88-41.64,11.45s-5.6,45.56,8.14,58.58l0.81,0.77c-4,25.83-.8,63.47,1.82,96,1.73,21.47,11.89,56.94,22,81-4.87,23.08-8.16,53.08-11.13,79.63-2.14,19.08-1.68,51.06.38,76.51a102.89,102.89,0,0,1-.92,14.58,38.12,38.12,0,0,1-3.07,9.92L269.32,675l-0.11,0-1,8.85-0.39,3.09h0l-2.35,20.9h0l0.63,25.38c0.12,4.77,2.56,8.59,5.6,8.74l3.43,0.17c3.19,0.16,5.87-3.78,6-8.81l0.43-21h0l3.18-19.21,6.65,2.44v-0.13L291,735h0l-0.51,27h0L290,778.86c-0.14,5.21,2.42,9.52,5.73,9.75l4.89,0.29c1.38,0.09,2.57-1.67,2.74-3.82L305.24,762h0l2.05-26h0l2-33.73v-0.35h0l-3.66-73.76s0.84-7.81,1.63-12.74,4-20,4-20h0a426.89,426.89,0,0,0,10.8-58.51,460,460,0,0,0,1.18-86.53C330.55,427.64,333.95,391.28,331.27,356.75Z"/><path class="cls-2" d="M75.07,211.1c-9.25-19.34-27.89-24.47-41.64-11.45h0c-0.46.43-.9,0.88-1.33,1.34-20.64,20.9-27.46,60.17-19.43,93.55A310.35,310.35,0,0,0,.91,356.75c-2.68,34.53.72,70.89,8,93.62a460,460,0,0,0,1.18,86.53,426.86,426.86,0,0,0,10.8,58.51h0s3.18,15.09,4,20,1.63,12.73,1.63,12.73L22.86,701.9h0v0.37l2,33.73h0L27,762h0l1.84,23.05c0.17,2.15,1.36,3.81,2.74,3.72l4.89-.3c3.31-.23,5.88-4.43,5.73-9.64L41.67,762h0l-0.51-27h0l-0.33-39.61v0.06l6.44-2.4,3,19.23h0l0.63,21c0.1,5,2.88,9,6.07,8.81l3.48-.17c3-.15,5.5-4,5.62-8.74l0.65-25.38h0l-2.35-20.9h0L64,683.8l-1-8.85-0.11,0L57,628.15a38.12,38.12,0,0,1-3.07-9.92A102.89,102.89,0,0,1,53,603.65h0c2.06-25.45,2.52-57.43.38-76.51-3-26.56-6.25-56.55-11.13-79.63,10.13-24.09,20.29-59.56,22-81,2.62-32.56,5.81-70.19,1.82-96l0.81-.77C80.67,256.67,84.32,230.44,75.07,211.1Z"/><polygon class="cls-2" points="242.24 501.76 89.24 501.76 69.24 258 262.24 258 242.24 501.76"/><path class="cls-2" d="M239.21,314.19H92.27c-7.66,0-14.34-7.33-16.19-17.78L64.43,231c-2.64-14.82,5.33-29.19,16.19-29.19l81.69,1.78a4.75,4.75,0,0,1,3.25,1.5h0a4.75,4.75,0,0,1,3.25-1.5l82-1.78c10.86,0,18.83,14.36,16.19,29.19L255.4,296.41C253.54,306.86,246.87,314.19,239.21,314.19Z"/><polygon class="cls-2" points="242.24 502 165.74 502 89.24 502 86.24 579.79 165.74 595.21 245.24 579.83 242.24 502"/><path class="cls-2" d="M123.24,560.7h0c-21.49-1.26-39.56,22.42-40.21,52.65l-1.8,317.12L76,978.09a498.89,498.89,0,0,0-3,54.67l12.83,215.51,36,2.1,18.57-228.55q0.55-12.37.43-24.77l-0.65-63.13,19.95-314.83C161.8,588.44,145.07,562,123.24,560.7Z"/><path class="cls-2" d="M255.93,977.61l-5.47-47.56L247.09,613c-0.8-30.23-19-53.72-40.47-52.26h0c-21.82,1.49-38.42,28.13-36.62,58.76L191.5,934.08l-0.33,63.13q-0.07,12.39.55,24.76l19.71,228.36,36-2.46,11.75-215.63A498.47,498.47,0,0,0,255.93,977.61Z"/><rect class="cls-3" x="50.09" y="1328.79" width="104.84" height="18.76"/><polygon class="cls-4" points="118.74 1265.93 118.83 1266.09 118.75 1265.87 118.74 1265.93"/><polygon class="cls-4" points="86.2 1266.09 86.29 1265.93 86.27 1265.87 86.2 1266.09"/><path class="cls-5" d="M118.75,1265.87l5.39-23.86s0-.1,0-0.15l-5.43,24Z"/><path class="cls-5" d="M129.83,1270l-10.77-3.5h0l10.77,18.71,10.53-34.6a10.45,10.45,0,0,0,.35-5.23l-1.22-6.5c-0.65-3.46-1.45-5.88-4.08-5.88h-5c-2.52,0-4.74,2.23-5.49,5.51l-0.76,3.35s0,0.1,0,.14l-5.39,23.86-0.27.23-0.24.33V1320h-32v-54h0l0.09-.15-4.41-19.46-1-4.42,0-.13-0.76-3.34c-0.74-3.28-3-5.5-5.49-5.5H71.83c-2.74,0-5.1,2.63-5.63,6.29l-0.92,6.29a10.42,10.42,0,0,0,.42,4.81l9.61,19.4-25.22,59s20.63,5.07,52.42,5.07,52.42-5.07,52.42-5.07Z"/><path class="cls-6" d="M119.25,1233H85.77c-3.41,0-5.74,4.43-4.81,8.86l5.33,24-0.09.14h0.3l-10.14,53.2s12.77,9.62,26.16,9.62,26.56-9.61,26.56-9.61L118.94,1266h-0.16l0-.15,5.43-24C125.1,1237.45,122.66,1233,119.25,1233Z"/><path id="path2987" class="cls-7" d="M93.35,1252.14s1.45-5.07,1.49-5.13a16,16,0,0,1,2,0s-0.21.81-.48,1.76-0.5,1.75-.49,1.77a1.41,1.41,0,0,0,.69,0c0-.06,1.24-4.21,1.22-4.24s-0.58,0-1.34,0-1.33,0-1.34,0,0.27-1,.62-2.19l0.64-2.17h2.35c1.29,0,2.36,0,2.37,0s-0.37,1.37-.85,3L98.72,1250c-0.33,1.14-.62,2.1-0.63,2.13a9.53,9.53,0,0,1-2.37.06c-1.29,0-2.35,0-2.36,0h0Zm4.89-7.5a10.77,10.77,0,0,0,.33-1.14s0-.05-0.34-0.05a0.75,0.75,0,0,0-.37,0,11,11,0,0,0-.33,1.14s0,0.05.34,0.05a0.76,0.76,0,0,0,.37,0h0Zm2.07,1.6s0.27-1,.62-2.2l0.64-2.17h1a9.19,9.19,0,0,1,1,0,13.67,13.67,0,0,1-.36,1.36c-0.21.73-.39,1.35-0.39,1.38s0,0.05.36,0h0.36l0.4-1.36c0.22-.75.42-1.38,0.43-1.4a14.43,14.43,0,0,1,1.94,0s-0.27,1-.62,2.2l-0.64,2.17h-2.35c-1.29,0-2.36,0-2.37,0h0Zm5.18,0s0.27-1,.62-2.19l0.64-2.17h2.34c1.29,0,2.36,0,2.37,0s-0.26,1-.62,2.2l-0.64,2.17h-1a9.19,9.19,0,0,1-1,0,13.67,13.67,0,0,1,.36-1.36c0.21-.73.39-1.35,0.39-1.38s0-.05-0.36,0h-0.36l-0.4,1.36c-0.22.75-.42,1.38-0.43,1.4a14.43,14.43,0,0,1-1.94,0h0Zm5.86-1.44c-0.14-.11-0.14-0.23,0-0.73a1.31,1.31,0,0,1,.21-0.54,0.3,0.3,0,0,1,.5.15,2.86,2.86,0,0,1-.31,1.1,0.29,0.29,0,0,1-.4,0h0Z"/><path id="path2989-1" class="cls-7" d="M101.08,1246.73a0.8,0.8,0,0,0-.69.23,1.25,1.25,0,0,0-.25,1.17,1.28,1.28,0,0,0,.79.63,1,1,0,0,1,.19-1.53h0.41c0.91,0,.85-0.08.87,0.55h0c0-.89,0-1-0.8-1h-0.52Zm1.57,1.78c-0.09.58-.45,0.65-1.13,0.64H99.47l-0.19.64h2.11a1.36,1.36,0,0,0,1.26-1.29h0Z"/><rect class="cls-8" x="82.27" y="1266.09" width="40.89" height="3.39" rx="1.7" ry="1.7"/><rect class="cls-8" x="80.62" y="1276.23" width="44.19" height="3.39" rx="1.7" ry="1.7"/><rect class="cls-8" x="78.6" y="1286.37" width="48.22" height="3.39" rx="1.7" ry="1.7"/><rect class="cls-8" x="76.62" y="1296.51" width="52.18" height="3.39" rx="1.7" ry="1.7"/><rect class="cls-8" x="74.7" y="1306.65" width="56.03" height="3.39" rx="1.7" ry="1.7"/><rect class="cls-8" x="72.76" y="1316.79" width="59.91" height="3.39" rx="1.7" ry="1.7"/><polygon class="cls-4" points="190.29 1265.93 190.2 1266.09 190.27 1265.87 190.29 1265.93"/><rect class="cls-3" x="179.09" y="1328.79" width="104.84" height="18.76"/><polygon class="cls-4" points="247.83 1266.09 247.74 1265.93 247.75 1265.87 247.83 1266.09"/><path class="cls-5" d="M204.19,1270l10.77-3.5h0l-10.77,18.71-10.53-34.6a10.45,10.45,0,0,1-.35-5.23l1.22-6.5c0.65-3.46,1.45-5.88,4.08-5.88h5c2.52,0,4.74,2.23,5.49,5.51l0.76,3.35s0,0.1,0,.14l5.39,23.86,0.5,0.23,0.47,0.33V1320h32v-54h-0.41l-0.09-.15,4.41-19.46,1-4.42,0-.13,0.76-3.34c0.74-3.28,3-5.5,5.49-5.5h2.78c2.74,0,5.1,2.63,5.63,6.29l0.92,6.29a10.42,10.42,0,0,1-.42,4.81l-9.61,19.4,25.22,59s-20.63,5.07-52.42,5.07-52.42-5.07-52.42-5.07Z"/><path class="cls-6" d="M214.77,1233h33.48c3.41,0,5.74,4.43,4.81,8.86l-5.33,24,0.09,0.14h-0.3l10.14,53.2s-12.77,9.62-26.16,9.62-26.56-9.61-26.56-9.61l10.14-53.2h0.16l0-.15-5.43-24C208.93,1237.45,211.37,1233,214.77,1233Z"/><path id="path2987-2" data-name="path2987" class="cls-7" d="M221.95,1252.14s1.45-5.07,1.49-5.13a16,16,0,0,1,2,0s-0.21.81-.48,1.76-0.5,1.75-.49,1.77a1.41,1.41,0,0,0,.69,0c0-.06,1.24-4.21,1.22-4.24s-0.58,0-1.34,0-1.33,0-1.34,0,0.27-1,.62-2.19l0.64-2.17h2.35c1.29,0,2.36,0,2.37,0s-0.37,1.37-.85,3l-1.48,5.07c-0.33,1.14-.62,2.1-0.63,2.13a9.53,9.53,0,0,1-2.37.06c-1.29,0-2.35,0-2.36,0h0Zm4.89-7.5a10.77,10.77,0,0,0,.33-1.14s0-.05-0.34-0.05a0.75,0.75,0,0,0-.37,0,11,11,0,0,0-.33,1.14s0,0.05.34,0.05a0.76,0.76,0,0,0,.37,0h0Zm2.07,1.6s0.27-1,.62-2.2l0.64-2.17h1a9.19,9.19,0,0,1,1,0,13.67,13.67,0,0,1-.36,1.36c-0.21.73-.39,1.35-0.39,1.38s0,0.05.36,0h0.36l0.4-1.36c0.22-.75.42-1.38,0.43-1.4a14.43,14.43,0,0,1,1.94,0s-0.27,1-.62,2.2l-0.64,2.17h-2.35c-1.29,0-2.36,0-2.37,0h0Zm5.18,0s0.27-1,.62-2.19l0.64-2.17h2.34c1.29,0,2.36,0,2.37,0s-0.26,1-.62,2.2l-0.64,2.17h-1a9.19,9.19,0,0,1-1,0,13.67,13.67,0,0,1,.36-1.36c0.21-.73.39-1.35,0.39-1.38s0-.05-0.36,0h-0.36l-0.4,1.36c-0.22.75-.42,1.38-0.43,1.4a14.43,14.43,0,0,1-1.94,0h0Zm5.86-1.44c-0.14-.11-0.14-0.23,0-0.73a1.31,1.31,0,0,1,.21-0.54,0.3,0.3,0,0,1,.5.15,2.86,2.86,0,0,1-.31,1.1,0.29,0.29,0,0,1-.4,0h0Z"/><path id="path2989-1-2" data-name="path2989-1" class="cls-7" d="M229.67,1246.73a0.8,0.8,0,0,0-.69.23,1.25,1.25,0,0,0-.25,1.17,1.28,1.28,0,0,0,.79.63,1,1,0,0,1,.19-1.53h0.41c0.91,0,.85-0.08.87,0.55h0c0-.89,0-1-0.8-1h-0.52Zm1.57,1.78c-0.09.58-.45,0.65-1.13,0.64h-2.05l-0.19.64H230a1.36,1.36,0,0,0,1.26-1.29h0Z"/><rect class="cls-8" x="210.87" y="1266.09" width="40.89" height="3.39" rx="1.7" ry="1.7" transform="translate(462.62 2535.57) rotate(180)"/><rect class="cls-8" x="209.22" y="1276.23" width="44.19" height="3.39" rx="1.7" ry="1.7" transform="translate(462.62 2555.85) rotate(180)"/><rect class="cls-8" x="207.2" y="1286.37" width="48.22" height="3.39" rx="1.7" ry="1.7" transform="translate(462.62 2576.13) rotate(-180)"/><rect class="cls-8" x="205.22" y="1296.51" width="52.18" height="3.39" rx="1.7" ry="1.7" transform="translate(462.62 2596.41) rotate(-180)"/><rect class="cls-8" x="203.29" y="1306.65" width="56.03" height="3.39" rx="1.7" ry="1.7" transform="translate(462.62 2616.68) rotate(180)"/><rect class="cls-8" x="201.35" y="1316.79" width="59.91" height="3.39" rx="1.7" ry="1.7" transform="translate(462.62 2636.96) rotate(-180)"/><polygon class="cls-9" points="247.24 541 230.24 541 85.57 541 64.24 892 162.57 892 166.24 679.46 170.24 892 268.57 892 247.24 541"/><polygon class="cls-10" points="247.41 541 268.57 892 258.24 892 238.24 541 247.41 541"/><polygon class="cls-10" points="85.41 541 64.24 892 74.57 892 94.57 541 85.41 541"/><path class="cls-9" d="M258.32,282c-9.9-31.79-10.31-62.47-1.18-94.45L216.09,176H212.9l-7,38.41c-3.23,18.1-17.41,32.8-35.69,34.81a45.8,45.8,0,0,1-10-.16c-18.28-2-32.47-16.46-35.69-34.57l-7-38.49h-3.19L73.33,187.34a164.11,164.11,0,0,1-1.18,95.75l-2.52,7.34,4.07,34.71-0.38,27.52-0.55,39.5L71.17,557H256.3l0.47-232.24,4.07-34.23Z"/><path class="cls-10" d="M72.77,392.16c18.85,30.11,32.36,120,37.81,164.84h18.34c-6.63-62.8-27-167.45-55.6-204.34Z"/><path class="cls-10" d="M256.92,392.16C238.07,422.28,224.55,512,219.11,557H200.77c6.63-63,27-167.45,55.6-204.34Z"/><path class="cls-2" d="M229.24,58.42V55.76a7.51,7.51,0,0,0-7.48-7.68,7.4,7.4,0,0,0-7,4.93l-0.49-5A48,48,0,0,0,212.46,35l0.12,1.13-22.72-18L166.24,32.9,147.73,18.11l-28,18A48.12,48.12,0,0,0,118.2,48l-0.49,5a7.4,7.4,0,0,0-7-4.93,7.51,7.51,0,0,0-7.48,7.68v2.65c0,6.86,5,22,11.65,23.37l-4,41.13a7.89,7.89,0,0,0,4.37,7.85l25.5,12.47a7.84,7.84,0,0,0,3.48.75H188a7.84,7.84,0,0,0,3.46-.74l25.73-12.52a7.87,7.87,0,0,0,4.39-7.85l-4-41.11C224.29,80.42,229.24,65.28,229.24,58.42Z"/><path class="cls-11" d="M166.24,32.9l15.19-6a19.43,19.43,0,0,1,16.4,1l14.94,8.14L212.46,35a48,48,0,0,0-92.77,1.13l15-8.15a19.43,19.43,0,0,1,16.39-1Z"/><path class="cls-11" d="M117.24,63c2-5.63,6.88-10,11.89-11.1-9.85,0-11.89,3-11.89,3V63Z"/><path class="cls-11" d="M117.66,54.34c2-6.08,10.69-10.81,16.09-12-10.64,0-15.51,3.21-15.51,3.21Z"/><path class="cls-11" d="M118.24,45.56c2-6.08,11.68-11.48,17.09-12.66-10.64,0-15.64,3.21-15.64,3.21h0q-0.93,4.53-1.42,9.13Z"/><path class="cls-11" d="M215.24,63c-3-5.63-6.88-10-11.89-11.1,9.85,0,11.89,3,11.89,3V63Z"/><path class="cls-11" d="M214.93,54.71c-2-6.08-11-11.18-16.4-12.36,10.64,0,15.69,3.21,15.69,3.21Z"/><path class="cls-11" d="M214.21,45.56c-2-6.08-11.68-11.48-17.09-12.66,10.64,0,15.64,3.21,15.64,3.21h0q0.93,4.53,1.42,9.13Z"/><polygon class="cls-11" points="166.24 120 156.79 120 166.24 137.32 175.69 120 166.24 120"/><path class="cls-12" d="M95.69,309.29q4.56-1.47,9.16-2.73c5.94-1.63,10.06-2.3,12.26-2.32a9.7,9.7,0,0,1,5.25,1.21,6.55,6.55,0,0,1,2.68,3,43.67,43.67,0,0,1,1.76,7.34l2.5,13.62a31.16,31.16,0,0,1,.77,7.1,5.46,5.46,0,0,1-1.25,3.1,7.87,7.87,0,0,1-2.81,2,34.45,34.45,0,0,1-5.41,1.65q-6.44,1.58-12.79,3.62Zm14,3,6.56,25.17c1.52-.4,2.39-0.91,2.6-1.58s0-2.28-.61-4.84l-3.61-14.93a17.31,17.31,0,0,0-1-3.3,1.67,1.67,0,0,0-1.17-.86A7,7,0,0,0,109.66,312.27Z"/><path class="cls-12" d="M158.68,298.47q4.19,19.66,7.12,39.45-5.34,0-10.67.27-0.47-3.53-1-7.07-1.94.11-3.87,0.26-0.05,3.57-.08,7.14-5.39.43-10.75,1.18-0.07-20,1-40Q149.54,298.73,158.68,298.47Zm-5.21,25.68q-1.24-6.66-2.82-16.46c-0.73,7.64-1,13.22-1,16.73Q151.54,324.26,153.47,324.14Z"/><path class="cls-12" d="M198,300.74l-1.14,7.83q-3.59-.52-7.2-0.93l-3.52,31.43q-5.2-.58-10.41-0.87l1.77-31.58q-3.6-.2-7.21-0.28l0.18-7.91A227.33,227.33,0,0,1,198,300.74Z"/><path class="cls-12" d="M227.77,307.13q-1.93,20-5.09,39.77-5.14-1.65-10.35-3,0.62-3.51,1.21-7-1.89-.48-3.79-0.93-1.13,3.39-2.24,6.78-5.29-1.22-10.64-2.13,6-19,13-37.8Q218.9,304.59,227.77,307.13ZM215,330q0.82-6.72,2.28-16.55c-3,7.06-5,12.29-6.06,15.63Q213.1,329.53,215,330Z"/></svg>