<?xml version="1.0" encoding="utf-8"?>
<!-- Generator: Adobe Illustrator 19.1.0, SVG Export Plug-In . SVG Version: 6.00 Build 0)  -->
<!DOCTYPE svg PUBLIC "-//W3C//DTD SVG 1.1//EN" "http://www.w3.org/Graphics/SVG/1.1/DTD/svg11.dtd">
<svg version="1.1" id="Layer_1" xmlns="http://www.w3.org/2000/svg" xmlns:xlink="http://www.w3.org/1999/xlink" x="0px" y="0px"
	 viewBox="0 0 146.9 284.5" style="enable-background:new 0 0 146.9 284.5;" xml:space="preserve">
<style type="text/css">
	.st0{fill:#A77E67;}
	.st1{fill:#D19F7D;}
	.st2{fill:#ED1C24;}
	.st3{fill:#39B54A;}
	.st4{fill:#F1F2F2;}
	.st5{fill:#FFFFFF;}
	.st6{fill:#E2AE83;}
	.st7{fill:#383838;}
	.st8{fill:#F3BA91;}
	.st9{fill:#BE9271;}
	.st10{fill:#21409A;}
	.st11{fill:#BE9173;}
	.st12{fill:#243D82;}
	.st13{fill:#99247D;}
	.st14{fill:#FFFFFF;stroke:#99247D;stroke-width:1.1116;stroke-miterlimit:10;}
	.st15{fill:#2D8A42;}
	.st16{fill:#CCCCCC;}
	.st17{fill:#C42128;}
</style>
<path class="st11" d="M142.3,75.9H53.4l0-62.8l80.8,2.3c4.5,0.1,8.1,3.1,8.1,6.6V75.9z"/>
<polygon class="st1" points="53.2,232.9 126.6,232.9 128.5,236.4 135.4,225.8 138.3,221.9 138.3,180.5 53.2,180.5 "/>
<path class="st10" d="M33.7,244.1c-0.3-16.9,21.3-30.7,48.1-30.7h0c27.2,0,49,14.2,48.1,31.4l-0.1,1.4c8,8.4,13.7,19.2,15.8,31
	l-1.8-79.7h-0.2H52.2H22l2.6,80.4c1.5-9.1,5.1-17.6,10.3-24.8L33.7,244.1z"/>
<polygon class="st1" points="44.3,180.5 138.3,180.5 142.3,75.9 44.3,75.9 "/>
<path class="st1" d="M133.3,75.9H44.4l0-62.8l80.8,2.3c4.5,0.1,8.1,3.1,8.1,6.6V75.9z"/>
<g>
	<g>
		<path class="st10" d="M136.1,73.1c-18.3-2-30-43-33.2-61.1L41,0l-3.9,11.3c86,14.7,50.9,100.7,11.1,95.8l0,0.6
			c-1.8,0.2-3.4,0.3-5.1,0.3c-14.7,0-27.8-7.4-36-18.9l-6.3,48.8l6,146.6h46.4h1.6h37.8H111h35.8l-4.6-210.8
			C141.3,73.6,137.8,73.3,136.1,73.1z"/>
		<path class="st10" d="M37.3,12.4l-0.1-1l-0.7,1.2C36.8,12.5,37.1,12.4,37.3,12.4z"/>
	</g>
	<path class="st13" d="M111,284.5c-6.6-63-27.2-117.8-55.2-154.7v-0.1c0,0,0,0,0,0c0,0,0,0,0,0v0.1c-29,36.9-42.3,91.7-49,154.7
		h18.3c5.4-45,11.8-83.9,30.2-113.9c18.5,30,31.8,68.9,37.2,113.9H111z"/>
</g>
<g>
	<g>
		<path class="st14" d="M71.9,103.7c3-1,6.1-1.9,9.2-2.7c5.9-1.6,10.1-2.3,12.3-2.3c2.2,0,4,0.4,5.3,1.2c1.3,0.8,2.2,1.8,2.7,3
			c0.5,1.2,1.1,3.7,1.8,7.3c0.8,4.5,1.7,9.1,2.5,13.6c0.6,3.5,0.9,5.9,0.8,7.1c-0.1,1.2-0.5,2.3-1.3,3.1c-0.7,0.8-1.6,1.5-2.8,2
			c-1.2,0.5-3,1.1-5.4,1.7c-4.3,1.1-8.6,2.3-12.8,3.6C80,128.8,76,116.2,71.9,103.7z M85.9,106.7c2.2,8.4,4.4,16.8,6.6,25.2
			c1.5-0.4,2.4-0.9,2.6-1.6c0.2-0.7,0-2.3-0.6-4.8c-1.2-5-2.4-10-3.6-14.9c-0.4-1.7-0.8-2.8-1-3.3c-0.3-0.5-0.6-0.7-1.2-0.9
			C88.1,106.2,87.2,106.3,85.9,106.7z"/>
		<path class="st14" d="M135,92.9c2.8,13.1,5.1,26.3,7.1,39.5c-3.6,0-7.1,0.1-10.7,0.3c-0.3-2.4-0.6-4.7-1-7.1
			c-1.3,0.1-2.6,0.2-3.9,0.3c0,2.4-0.1,4.8-0.1,7.1c-3.6,0.3-7.2,0.7-10.7,1.2c0-13.3,0.3-26.6,1-40C122.8,93.5,128.9,93.1,135,92.9
			z M129.7,118.6c-0.8-4.4-1.7-9.9-2.8-16.5c-0.7,7.6-1,13.2-1.1,16.7C127.1,118.7,128.4,118.7,129.7,118.6z"/>
	</g>
</g>
</svg>
