<!-- Generator: Adobe Illustrator 19.1.0, SVG Export Plug-In  -->
<svg version="1.1"
	 xmlns="http://www.w3.org/2000/svg" xmlns:xlink="http://www.w3.org/1999/xlink" xmlns:a="http://ns.adobe.com/AdobeSVGViewerExtensions/3.0/"
	 x="0px" y="0px" width="125.2px" height="371.4px" viewBox="0 0 125.2 371.4" style="enable-background:new 0 0 125.2 371.4;"
	 xml:space="preserve">
<style type="text/css">
	.st0{fill:#937254;}
	.st1{fill:#263A79;}
</style>
<defs>
</defs>
<g>
	<path class="st0" d="M34.3,339.9l2.4,31.6c6.9-16,16.3-27.6,28.6-27.6c12.3,0,23.6,10.2,30.8,26.7l1.3-30.7H34.3z"/>
	<path class="st1" d="M121.3,100.5l-0.4-50.8c-1.9-15.1-6.6-25.8-13.2-33.4C96.7,3.7,80.1,0,61.5,0C43,0,25.7,3.9,14.1,16.4
		C6.9,24.1,1.8,35.2,0,50.7l0.8,57.8l5.4,231.3h28.1h63h27.8L121.3,100.5z"/>
</g>
</svg>
