<!-- Generator: Adobe Illustrator 19.1.0, SVG Export Plug-In  -->
<svg version="1.1"
	 xmlns="http://www.w3.org/2000/svg" xmlns:xlink="http://www.w3.org/1999/xlink" xmlns:a="http://ns.adobe.com/AdobeSVGViewerExtensions/3.0/"
	 x="0px" y="0px" width="139.4px" height="367.4px" viewBox="0 0 139.4 367.4" style="enable-background:new 0 0 139.4 367.4;"
	 xml:space="preserve">
<style type="text/css">
	.st0{fill:#AA855F;}
	.st1{fill:#21409A;}
</style>
<defs>
</defs>
<g>
	<path class="st0" d="M46.5,335.9l2.4,31.6c6.9-16,16.3-27.6,28.6-27.6l0,0c12.3,0,23.6,10.2,30.8,26.7l1.3-30.7H46.5z"/>
	<path class="st1" d="M135,96.5l-0.5-46.8c-3.1-21.9-12.6-34.7-26-41.8C97.4,2,83.5,0,68.5,0C41.5,0,17,6.6,5.7,30.5
		C3,36.2,1,42.9,0,50.7l0.8,53.8l6.1,231.3h22.6h70.2h39.6L135,96.5z"/>
</g>
</svg>
