<!-- Generator: Adobe Illustrator 19.1.0, SVG Export Plug-In  -->
<svg version="1.1"
	 xmlns="http://www.w3.org/2000/svg" xmlns:xlink="http://www.w3.org/1999/xlink" xmlns:a="http://ns.adobe.com/AdobeSVGViewerExtensions/3.0/"
	 x="0px" y="0px" width="63.7px" height="396.7px" viewBox="0 0 63.7 396.7" style="enable-background:new 0 0 63.7 396.7;"
	 xml:space="preserve">
<style type="text/css">
	.st0{fill:#C49A6C;}
</style>
<defs>
</defs>
<g>
	<path class="st0" d="M54.7,117.9C54.7,182,48,235.8,33,235.8c-18.3,0-33-53.8-33-117.9c0-34.3,4.9-64.6,3.8-92.5
		C2.3-13,23.5,3.5,33,3.5C43.6,3.5,55.7,12,55.7,39C55.7,60.1,54.7,87.1,54.7,117.9z"/>
	<path class="st0" d="M4.2,296.7l8.7-60.9h37l12.6,68c0.9,4.7,1.3,9.5,1.3,14.4v9.7l-1.6,17.4c-0.3,2.9-2.1,5.3-4.3,5.3H54
		c-2.5,0-4.5-2.9-4.5-6.2l0.4-23.6l0,0c-0.1-1.8-2.2-1.9-2.3,0L42.6,383c-0.1,1.9-0.8,3.6-1.9,4.8l-5.7,6.4
		c-2.4,2.7-5.8,3.2-8.5,1.2L15.8,388c-1.8-1.3-3.1-3.6-3.5-6.3l-8-56.6C2.9,315.7,2.9,306.1,4.2,296.7z"/>
	<path class="st0" d="M52.6,174.3H4.1l4.8,23.3c2.6,12.4,3.9,25.2,4,38.2v0l36.6,0v0c-1-12.6-0.8-25.3,0.5-37.8L52.6,174.3z"/>
</g>
</svg>
