<!-- Generator: Adobe Illustrator 19.1.0, SVG Export Plug-In  -->
<svg version="1.1"
	 xmlns="http://www.w3.org/2000/svg" xmlns:xlink="http://www.w3.org/1999/xlink" xmlns:a="http://ns.adobe.com/AdobeSVGViewerExtensions/3.0/"
	 x="0px" y="0px" width="148px" height="379.9px" viewBox="0 0 148 379.9" style="enable-background:new 0 0 148 379.9;"
	 xml:space="preserve">
<style type="text/css">
	.st0{fill:#937254;}
	.st1{fill:#AA855F;}
	.st2{fill:#21409A;}
	.st3{fill:#99247D;}
	.st4{fill:#FFFFFF;stroke:#99247D;stroke-width:1.1116;stroke-miterlimit:10;}
</style>
<defs>
</defs>
<g>
	<path class="st0" d="M144.4,130.3H55.5l0-113.3l80.8,4.1c4.5,0.2,8.1,5.5,8.1,12V130.3z"/>
	<path class="st1" d="M126.8,21.1L46,17v0.4L39.1,17l-4.5,5.7C20.4,40.2,11.1,61.1,7.8,83.4L5.2,98.8L46,117.5v12.4h89V33
		C135,26.6,131.4,21.3,126.8,21.1z"/>
	<g>
		<path class="st2" d="M135.2,103.4c-18.3-2.9-30-60.8-33.2-86.5L40.2,0l-3.9,16.1c86,20.8,50.9,100.5,11.1,93.6l0,0.9
			c-1.8,0.3-3.4,0.4-5.1,0.4c-14.7,0-27.8-10.5-36-26.8L0,194.8v185.1h46.4H48h37.8h18.3H148V104C147,103.9,136.9,103.7,135.2,103.4
			z"/>
		<path class="st2" d="M36.5,17.5l-0.1-1.5l-0.7,1.6C35.9,17.6,36.2,17.6,36.5,17.5z"/>
	</g>
	<path class="st3" d="M104.2,379.9C97.6,290.9,77,233.5,49,181.2v-0.1c0,0,0,0,0,0c0,0,0,0,0,0v0.1C20,233.5,6.7,290.9,0,379.9h18.3
		c5.4-63,11.8-98.8,30.2-141.3c18.5,42.5,31.8,78.3,37.2,141.3H104.2z"/>
	<g>
		<g>
			<path class="st4" d="M73.4,131.2c3-1,6.1-1.9,9.2-2.7c5.9-1.6,10.1-2.3,12.3-2.3c2.2,0,4,0.4,5.3,1.2c1.3,0.8,2.2,1.8,2.7,3
				c0.5,1.2,1.1,3.7,1.8,7.3c0.8,4.5,1.7,9.1,2.5,13.6c0.6,3.5,0.9,5.9,0.8,7.1c-0.1,1.2-0.5,2.3-1.3,3.1c-0.7,0.8-1.6,1.5-2.8,2
				c-1.2,0.5-3,1.1-5.4,1.7c-4.3,1.1-8.6,2.3-12.8,3.6C81.5,156.3,77.4,143.7,73.4,131.2z M87.4,134.2c2.2,8.4,4.4,16.8,6.6,25.2
				c1.5-0.4,2.4-0.9,2.6-1.6c0.2-0.7,0-2.3-0.6-4.8c-1.2-5-2.4-10-3.6-14.9c-0.4-1.7-0.8-2.8-1-3.3c-0.3-0.5-0.6-0.7-1.2-0.9
				C89.6,133.7,88.7,133.8,87.4,134.2z"/>
			<path class="st4" d="M136.4,120.4c2.8,13.1,5.1,26.3,7.1,39.5c-3.6,0-7.1,0.1-10.7,0.3c-0.3-2.4-0.6-4.7-1-7.1
				c-1.3,0.1-2.6,0.2-3.9,0.3c0,2.4-0.1,4.8-0.1,7.1c-3.6,0.3-7.2,0.7-10.7,1.2c0-13.3,0.3-26.6,1-40
				C124.2,121,130.3,120.6,136.4,120.4z M131.2,146.1c-0.8-4.4-1.7-9.9-2.8-16.5c-0.7,7.6-1,13.2-1.1,16.7
				C128.6,146.2,129.9,146.1,131.2,146.1z"/>
		</g>
	</g>
</g>
</svg>
